<?xml version="1.0" encoding="UTF-8"?>
<svg id="Layer_1" data-name="Layer 1" xmlns="http://www.w3.org/2000/svg" viewBox="0 0 65.64 65.64">
  <defs>
    <style>
      .cls-1 {
        fill: #2f2f2f;
      }

      .cls-2 {
        fill: #fff;
        stroke: #e9e9ee;
        stroke-miterlimit: 10;
        stroke-width: 1.89px;
      }
    </style>
  </defs>
  <path class="cls-2" d="M65.64,65.64H0V0h65.64v65.64Z"/>
  <path class="cls-1" d="M14.13,49.7c-1.98,0-3.59-1.61-3.59-3.59,0-1.52.96-2.87,2.39-3.38l.27-.09v-4.5c0-4.29,1.38-8.36,4-11.79,2.3-3.02,5.54-5.37,9.12-6.64l.25-.09v-.27c.11-1.91,1.68-3.41,3.6-3.41h5.32c1.92,0,3.49,1.5,3.58,3.41v.27s.27.09.27.09c3.58,1.27,6.81,3.62,9.12,6.64,2.62,3.42,4,7.5,4,11.79v4.5l.27.09c1.43.51,2.39,1.87,2.39,3.38,0,1.98-1.61,3.59-3.59,3.59H14.13ZM14.13,44.38c-.95,0-1.73.78-1.73,1.73s.78,1.73,1.73,1.73h37.39c.95,0,1.73-.78,1.73-1.73s-.78-1.73-1.73-1.73H14.13ZM20.58,25.37c-3.51,3.35-5.53,8-5.53,12.77v4.39h35.53v-4.39c0-4.77-2.01-9.42-5.53-12.77l-.68-.64v5.44c0,.51-.42.93-.93.93s-.93-.42-.93-.93v-6.81l-.18-.12c-.86-.55-1.78-1.03-2.72-1.42l-.55-.23v11.24c0,.51-.42.93-.93.93s-.93-.42-.93-.93v-13.29c0-.95-.78-1.73-1.73-1.73h-5.32c-.95,0-1.73.78-1.73,1.73v13.29c0,.51-.42.93-.93.93s-.93-.42-.93-.93v-11.24l-.55.23c-.94.39-1.85.87-2.72,1.42l-.18.12v6.81c0,.51-.42.93-.93.93s-.93-.42-.93-.93v-5.44l-.68.64Z"/>
</svg>