<?xml version="1.0" encoding="UTF-8"?>
<svg id="Layer_1" data-name="Layer 1" xmlns="http://www.w3.org/2000/svg" viewBox="0 0 65.64 65.64">
  <defs>
    <style>
      .cls-1 {
        fill: #2f2f2f;
      }

      .cls-2 {
        fill: #fff;
        stroke: #e9e9ee;
        stroke-miterlimit: 10;
        stroke-width: 1.89px;
      }
    </style>
  </defs>
  <path class="cls-2" d="M65.64,65.64H0V0h65.64v65.64s0,0,0,0Z"/>
  <g>
    <path class="cls-1" d="M28.94,52.83c-1.92,0-3.48-1.56-3.48-3.48s1.56-3.48,3.48-3.48,3.48,1.56,3.48,3.48-1.56,3.48-3.48,3.48ZM28.94,47.66c-.93,0-1.69.76-1.69,1.69s.76,1.69,1.69,1.69,1.69-.76,1.69-1.69-.76-1.69-1.69-1.69Z"/>
    <path class="cls-1" d="M45.75,52.83c-1.92,0-3.48-1.56-3.48-3.48s1.56-3.48,3.48-3.48,3.48,1.56,3.48,3.48-1.56,3.48-3.48,3.48ZM45.75,47.66c-.93,0-1.69.76-1.69,1.69s.76,1.69,1.69,1.69,1.69-.76,1.69-1.69-.76-1.69-1.69-1.69Z"/>
    <path class="cls-1" d="M26.35,45.07c-1.92,0-3.48-1.56-3.48-3.48v-2.44l-3.4-15.36c-.02-.08-.04-.13-.04-.18l-1.14-5.16c-.23-1.04-1.05-1.82-1.63-1.82h-1.94c-.49,0-.89-.4-.89-.89s.4-.89.89-.89h1.94c1.49,0,2.97,1.42,3.37,3.22l1.01,4.53h29.88c.28,0,.53.12.7.34.17.22.23.5.16.77l-3.25,13.01c-.45,1.79-2.24,3.19-4.08,3.19h-19.8v1.69c0,.93.76,1.69,1.69,1.69h24.57c.49,0,.89.4.89.89s-.4.89-.89.89h-24.57ZM24.48,38.12h19.97c1.01,0,2.1-.86,2.35-1.83l2.98-11.9h-28.34l3.05,13.73Z"/>
  </g>
</svg>