<?xml version="1.0" encoding="UTF-8"?>
<svg id="Layer_1" data-name="Layer 1" xmlns="http://www.w3.org/2000/svg" viewBox="0 0 65.64 65.64">
  <defs>
    <style>
      .cls-1 {
        fill: #2f2f2f;
      }

      .cls-2 {
        fill: #fff;
        stroke: #e9e9ee;
        stroke-miterlimit: 10;
        stroke-width: 1.89px;
      }
    </style>
  </defs>
  <path class="cls-2" d="M65.64,65.64H0V0h65.64v65.64Z"/>
  <g>
    <path class="cls-1" d="M47.51,38.29c-2.14,0-4.25-.34-6.24-.99-.99-.34-2.13-.08-2.77.58l-3.94,2.97c-4.56-2.44-7.38-5.25-9.78-9.78l2.88-3.83c.75-.75,1.02-1.84.7-2.87-.66-2-1-4.11-1-6.25,0-1.55-1.26-2.81-2.81-2.81h-6.43c-1.55,0-2.81,1.26-2.81,2.81,0,17.75,14.44,32.19,32.19,32.19,1.55,0,2.81-1.26,2.81-2.81v-6.41c0-1.55-1.26-2.81-2.81-2.81ZM48.38,47.51c0,.48-.39.86-.86.86-16.68,0-30.25-13.57-30.25-30.25,0-.48.39-.86.86-.86h6.43c.48,0,.86.39.86.86,0,2.35.37,4.66,1.09,6.85.1.32.02.66-.31,1l-3.34,4.43c-.22.3-.26.69-.09,1.03,2.73,5.36,6.04,8.68,11.44,11.44.33.17.73.14,1.03-.09l4.53-3.43c.23-.23.57-.31.88-.21,2.2.73,4.51,1.1,6.86,1.1.48,0,.86.39.86.86v6.41Z"/>
    <path class="cls-1" d="M49.35,20.18h-3.89v-3.89c0-.54-.43-.97-.97-.97h-3.89c-.54,0-.97.43-.97.97v3.89h-3.89c-.54,0-.97.43-.97.97v3.89c0,.54.43.97.97.97h3.89v3.89c0,.54.43.97.97.97h3.89c.54,0,.97-.43.97-.97v-3.89h3.89c.54,0,.97-.43.97-.97v-3.89c0-.54-.43-.97-.97-.97ZM48.38,24.07h-3.89c-.54,0-.97.43-.97.97v3.89h-1.94v-3.89c0-.54-.43-.97-.97-.97h-3.89v-1.94h3.89c.54,0,.97-.43.97-.97v-3.89h1.94v3.89c0,.54.43.97.97.97h3.89v1.94Z"/>
  </g>
</svg>