<?xml version="1.0" encoding="UTF-8"?>
<svg id="Layer_1" data-name="Layer 1" xmlns="http://www.w3.org/2000/svg" viewBox="0 0 65.64 65.64">
  <defs>
    <style>
      .cls-1 {
        fill: #2f2f2f;
      }

      .cls-2 {
        fill: #fff;
        stroke: #e9e9ee;
        stroke-miterlimit: 10;
        stroke-width: 1.89px;
      }
    </style>
  </defs>
  <path class="cls-2" d="M65.64,65.64H0V0h65.64v65.64Z"/>
  <g>
    <path class="cls-1" d="M45.42,14.56c-.28-.28-.72-.28-1,0l-9.09,9.09c-1.41,1.41-1.87,3.51-1.21,5.37l-2.8,2.48-2.69-2.39c1.39-2.73.88-6.06-1.32-8.26-2.19-2.19-4.73-3.73-7.14-4.34-2.52-.63-4.68-.21-6.09,1.19-1.4,1.4-1.83,3.57-1.19,6.09.61,2.42,2.15,4.95,4.34,7.14,2.21,2.21,5.53,2.71,8.26,1.32,0,0,2.63,2.96,2.66,3,.14.16.33.24.53.24.17,0,.33-.06.47-.18l6.29-5.58c.24-.21.3-.55.17-.83-.68-1.43-.39-3.14.73-4.26l9.09-9.09c.28-.28.28-.72,0-1ZM28.74,33.79l-2.57-2.9c-.23-.26-.61-.31-.9-.13-2.26,1.4-5.16,1.06-7.04-.83-2.01-2.01-3.42-4.32-3.97-6.49-.51-2.02-.22-3.71.82-4.75,1.04-1.04,2.72-1.33,4.75-.82,2.17.55,4.48,1.96,6.49,3.97,1.88,1.88,2.22,4.78.83,7.04-.18.29-.12.67.13.9l2.99,2.65-1.52,1.35Z"/>
    <path class="cls-1" d="M42.62,30.93l9.09-9.09c.28-.28.28-.72,0-1-.28-.28-.72-.28-1,0l-9.09,9.09c-1.12,1.12-2.83,1.41-4.26.73-.28-.14-.62-.07-.83.17l-3.09,3.48s0,0,0,0c0,0,0,0,0,0l-13.35,15.04s0,0-.01.01c-.04.05-.09.1-.13.14-.88.88-2.31.88-3.2,0-.43-.43-.66-.99-.66-1.6s.24-1.17.66-1.6c.04-.04.09-.08.14-.13,0,0,0,0,.01-.01l8.34-7.41c.29-.26.32-.71.06-1-.26-.29-.71-.32-1-.06l-8.34,7.4c-.08.07-.15.13-.22.2-.69.69-1.08,1.62-1.08,2.6s.38,1.9,1.08,2.6c.72.72,1.66,1.07,2.6,1.07.94,0,1.88-.36,2.6-1.07.07-.07.13-.14.2-.22l10.17-11.46,10.17,11.46c.07.08.13.15.2.22.72.72,1.66,1.07,2.6,1.07s1.88-.36,2.6-1.07c1.43-1.43,1.43-3.76,0-5.19-.07-.07-.14-.13-.22-.2l-11.7-10.39,2.29-2.58c1.86.66,3.95.2,5.37-1.21ZM45.74,46.18s0,0,.01.01c.05.04.1.09.14.13.88.88.88,2.31,0,3.2-.88.88-2.31.88-3.2,0-.04-.04-.08-.09-.13-.14,0,0,0,0-.01-.01l-10.29-11.59,1.76-1.98,11.71,10.39Z"/>
    <path class="cls-1" d="M49.53,18.57c-.28-.28-.72-.28-1,0l-7.32,7.32c-.28.28-.28.72,0,1,.14.14.32.21.5.21s.36-.07.5-.21l7.32-7.32c.28-.28.28-.72,0-1Z"/>
    <path class="cls-1" d="M47.54,16.61c-.28-.28-.72-.28-1,0l-7.32,7.32c-.28.28-.28.72,0,1,.14.14.32.21.5.21s.36-.07.5-.21l7.32-7.32c.28-.28.28-.72,0-1Z"/>
  </g>
</svg>