<?xml version="1.0" encoding="UTF-8"?>
<svg id="Layer_1" data-name="Layer 1" xmlns="http://www.w3.org/2000/svg" viewBox="0 0 65.64 65.64">
  <defs>
    <style>
      .cls-1 {
        fill: #2f2f2f;
      }

      .cls-2 {
        fill: #fff;
        stroke: #e9e9ee;
        stroke-miterlimit: 10;
        stroke-width: 1.89px;
      }
    </style>
  </defs>
  <path class="cls-2" d="M65.64,65.64H0V0h65.64v65.64Z"/>
  <path class="cls-1" d="M33.5,51.97c-1.25,0-2.41-.67-3.04-1.76l-.12-.2h-9.79c-2.69,0-4.87-2.18-4.87-4.87v-12.71c0-2.69,2.18-4.87,4.87-4.87h.2c.57,0,1.04-.47,1.04-1.04v-1.34l-.23-.11c-1.01-.46-1.67-1.48-1.67-2.59v-3.2c0-1.57,1.27-2.84,2.84-2.84h8.34c1.57,0,2.84,1.27,2.84,2.84v3.2c0,1.13-.67,2.15-1.7,2.6l-.24.1v1.33c0,.57.47,1.04,1.04,1.04h.23c2.69,0,4.87,2.18,4.87,4.87v12.51h1.55c1.94,0,3.51,1.57,3.51,3.51s-1.57,3.51-3.51,3.51h-6.16ZM33.5,46.75c-.94,0-1.71.77-1.71,1.71s.77,1.71,1.71,1.71h6.16c.94,0,1.71-.77,1.71-1.71s-.77-1.71-1.71-1.71h-6.16ZM17.49,45.14c0,1.69,1.38,3.07,3.07,3.07h9.43l.06-.33c.28-1.7,1.74-2.93,3.46-2.93h2.81v-12.51c0-1.69-1.38-3.07-3.07-3.07h-.23c-1.57,0-2.84-1.27-2.84-2.84v-1.19h-6.57v1.19c0,1.57-1.27,2.84-2.84,2.84h-.2c-1.69,0-3.07,1.38-3.07,3.07v.83h12.49c.5,0,.9.4.9.9v9.05c0,.5-.4.9-.9.9h-12.49v1.02ZM17.49,42.32h11.59v-7.25h-11.59v7.25ZM22.73,18.25c-.57,0-1.04.47-1.04,1.04v3.2c0,.57.46,1.04,1.03,1.04h8.35c.58,0,1.04-.47,1.04-1.04v-3.2c0-.57-.47-1.04-1.04-1.04h-8.34Z"/>
  <path class="cls-1" d="M48.62,46.58c-.94,0-1.82-.36-2.48-1.03l-4.36-4.36c-.66-.66-1.03-1.54-1.03-2.48s.36-1.82,1.03-2.48,1.54-1.03,2.48-1.03,1.82.37,2.48,1.03l4.36,4.36c.66.66,1.03,1.54,1.03,2.48s-.37,1.82-1.03,2.48c-.66.66-1.54,1.03-2.48,1.03ZM44.26,37c-.46,0-.89.18-1.21.5-.67.67-.67,1.75,0,2.42l4.36,4.36c.32.32.75.5,1.21.5s.89-.18,1.21-.5.5-.75.5-1.21-.18-.89-.5-1.21l-4.36-4.36c-.32-.32-.75-.5-1.21-.5Z"/>
</svg>