<?xml version="1.0" encoding="UTF-8"?>
<svg id="Layer_1" data-name="Layer 1" xmlns="http://www.w3.org/2000/svg" viewBox="0 0 65.64 65.64">
  <defs>
    <style>
      .cls-1 {
        fill: #2f2f2f;
      }

      .cls-2 {
        fill: #fff;
        stroke: #e9e9ee;
        stroke-miterlimit: 10;
        stroke-width: 1.89px;
      }
    </style>
  </defs>
  <path class="cls-2" d="M65.64,65.64H0V0h65.64v65.64Z"/>
  <path class="cls-1" d="M39.11,24.57h7.99c.45,0,1.26.37,1.62.66,2.45,2.72,4.77,5.61,6.95,8.56l.02,7.81c-.15.57-.28,1.1-.66,1.56-1.28,1.6-3.66.98-5.44,1.12-.55,2.72-3.1,4.52-5.86,3.91-1.43-.32-2.84-1.54-3.39-2.9-.08-.19-.23-.88-.3-.96-.23-.24-.84-.06-1.13-.06-4.73.08-9.46-.06-14.19,0-.56,2.63-2.93,4.35-5.63,3.95-1.96-.29-3.71-1.97-3.99-3.94-.61-.03-1.22.03-1.83,0-1.69-.09-2.81-.7-3.29-2.39l-.03-20.15c.15-1.11.92-2.1,2.04-2.34,8.29-.15,16.63-.13,24.93-.01,1.07.19,2.2,1.43,2.2,2.53v2.66ZM36.72,41.75v-19.73s-.14-.15-.18-.18c-7.07-.08-14.15,0-21.23-.03-.45,0-.96-.12-1.44-.07-.31.12-1.2-.05-1.37.19-.16.22-.08.98-.09,1.28-.01.28-.19.71,0,.89v17.01s.09.51.09.51c.07.09.3.11.42.12.74.06,1.58-.04,2.33-.01.5-.89,1-1.68,1.85-2.28,2.61-1.83,6.23-.65,7.35,2.29h12.27ZM51.63,32.47c-.02-.13-.16-.28-.24-.39-1.36-1.7-2.83-3.32-4.25-4.97-.35-.25-.53-.09-.86-.09-.79,0-1.58,0-2.37,0v4.58c0,.3.82.87,1.11.87h6.62ZM41.51,27.02h-2.31l-.09,14.73h1.11c.14-.14.16-.35.26-.52,1.72-3.16,5.83-3.63,8.15-.83.35.42.54.89.82,1.34h3.52s.21-.08.21-.08c.03-.03.12-.27.12-.3v-6.38c-.13,0-.25-.05-.39-.06-2.01-.15-4.32.05-6.35.06-1.6.02-3.01-.03-4.13-1.32-.34-.39-.93-1.44-.93-1.95v-4.7ZM22.22,43.42c0-1.3-1.05-2.35-2.35-2.35s-2.35,1.05-2.35,2.35,1.05,2.35,2.35,2.35,2.35-1.05,2.35-2.35ZM47.2,43.46c0-1.31-1.06-2.38-2.38-2.38s-2.38,1.06-2.38,2.38,1.06,2.38,2.38,2.38,2.38-1.06,2.38-2.38Z"/>
</svg>