<?xml version="1.0" encoding="UTF-8"?>
<svg id="Layer_1" data-name="Layer 1" xmlns="http://www.w3.org/2000/svg" viewBox="0 0 64 64">
  <defs>
    <style>
      .cls-1 {
        fill: #4ea49b;
      }

      .cls-2 {
        fill: #00746b;
        opacity: .1;
      }
    </style>
  </defs>
  <rect class="cls-2" x="-.07" width="64" height="64"/>
  <g>
    <path class="cls-1" d="M42.44,50.32c-.13,0-.26-.03-.38-.08-.28-.12-6.79-3.02-6.79-9.02v-4.89c0-.4.25-.76.63-.89l6.23-2.17c.1-.03.21-.05.31-.05s.21.02.31.05l6.23,2.17c.38.13.63.49.63.89v4.89c0,5.99-6.52,8.9-6.79,9.02-.12.05-.25.08-.38.08ZM37.16,41.22c0,3.99,3.9,6.39,5.28,7.11,1.38-.72,5.29-3.12,5.29-7.11v-4.22l-5.29-1.85-5.29,1.85v4.22Z"/>
    <path class="cls-1" d="M42.44,50.07c-.09,0-.19-.02-.28-.06-.27-.12-6.64-2.97-6.64-8.79v-4.89c0-.29.19-.56.46-.65l6.23-2.17c.15-.05.31-.05.46,0l6.23,2.17c.28.1.46.36.46.65v4.89c0,5.82-6.37,8.67-6.64,8.79-.09.04-.18.06-.28.06h0ZM36.91,36.82v4.4c0,4.3,4.38,6.8,5.53,7.39,1.16-.59,5.54-3.1,5.54-7.39v-4.4l-5.54-1.93-5.54,1.93Z"/>
    <path class="cls-1" d="M41.82,44.46c-.27-.01-.52-.15-.69-.36l-2.27-2.93c-.32-.41-.24-1,.17-1.32.17-.13.37-.2.58-.2.29,0,.57.13.74.36l1.6,2.07,3.21-3.32c.18-.18.42-.29.68-.29s.48.09.65.26c.37.36.38.96.02,1.33l-3.96,4.1c-.18.19-.42.29-.68.29h-.06Z"/>
    <path class="cls-1" d="M41.88,44.21s-.03,0-.04,0c-.2-.01-.39-.11-.51-.27l-2.27-2.93c-.23-.3-.18-.74.12-.97.3-.23.74-.18.97.12l1.78,2.3,3.41-3.52c.26-.27.7-.28.98-.02.27.27.28.7.02.98l-3.96,4.1c-.13.14-.31.21-.5.21h0Z"/>
    <path class="cls-1" d="M17.98,44.78c-1.15,0-2.09-.94-2.09-2.08v-16.85c0-.52.42-.94.94-.94h26.29c.52,0,.94.42.94.94v5.54c0,.52-.42.94-.94.94s-.94-.42-.94-.94v-4.59h-24.41v15.91c0,.11.09.2.2.2h15.46c.52,0,.94.42.94.94s-.42.94-.94.94h-15.46Z"/>
    <path class="cls-1" d="M33.45,44.53h-15.46c-1.01,0-1.84-.82-1.84-1.84v-16.85c0-.38.31-.69.69-.69h26.29c.38,0,.69.31.69.69v5.54c0,.38-.31.69-.69.69s-.69-.31-.69-.69v-4.84h-24.91v16.16c0,.25.2.45.45.45h15.46c.38,0,.69.31.69.69s-.31.69-.69.69Z"/>
    <path class="cls-1" d="M16.84,26.79c-.16,0-.31-.04-.45-.12-.22-.12-.38-.32-.45-.56-.07-.24-.04-.5.08-.72l4.18-7.59c.41-.74,1.19-1.2,2.04-1.2h15.51c.85,0,1.63.46,2.04,1.2l4.18,7.59c.12.22.15.47.08.71-.07.24-.23.44-.45.56-.14.08-.3.12-.46.12-.34,0-.66-.19-.83-.49l-4.18-7.59c-.08-.14-.23-.23-.39-.23h-15.51c-.16,0-.31.09-.39.23l-4.18,7.59c-.17.3-.48.49-.83.49Z"/>
    <path class="cls-1" d="M43.13,26.54c-.24,0-.48-.13-.61-.36l-4.18-7.59c-.12-.22-.35-.36-.61-.36h-15.51c-.25,0-.49.14-.61.36l-4.18,7.59c-.18.33-.61.46-.94.27-.33-.18-.46-.61-.27-.94l4.18-7.59c.36-.66,1.06-1.08,1.82-1.08h15.51c.76,0,1.45.41,1.82,1.07l4.18,7.59c.19.33.06.76-.27.94-.11.06-.22.09-.33.09h0Z"/>
    <path class="cls-1" d="M29.99,26.79c-.52,0-.94-.42-.94-.94v-8.3c0-.52.42-.94.94-.94s.94.42.94.94v8.3c0,.52-.42.94-.94.94Z"/>
    <path class="cls-1" d="M29.99,26.54c-.38,0-.69-.31-.69-.69v-8.3c0-.38.31-.69.69-.69s.69.31.69.69v8.3c0,.38-.31.69-.69.69Z"/>
  </g>
</svg>