<?xml version="1.0" encoding="UTF-8"?>
<svg id="Layer_1" data-name="Layer 1" xmlns="http://www.w3.org/2000/svg" viewBox="0 0 64 64">
  <defs>
    <style>
      .cls-1 {
        fill: #4ea49b;
      }

      .cls-2 {
        fill: #00746b;
        opacity: .1;
      }
    </style>
  </defs>
  <rect class="cls-2" y=".1" width="64" height="64"/>
  <g>
    <path class="cls-1" d="M26.55,47.56c-.96-.3-1.91-.69-2.81-1.16l-.51-.26.24-4.62c-.8-.63-1.53-1.36-2.16-2.16l-4.62.24-.26-.51c-.47-.9-.86-1.84-1.16-2.81l-.17-.54,3.43-3.1c-.12-1.01-.12-2.04,0-3.06l-3.43-3.1.17-.54c.3-.97.69-1.91,1.16-2.81l.26-.51,4.62.24c.63-.8,1.36-1.53,2.16-2.16l-.24-4.62.51-.26c.9-.47,1.85-.86,2.81-1.16l.54-.17,3.1,3.43c.51-.06,1.02-.09,1.53-.09s1.02.03,1.53.09l3.1-3.43.54.17c.96.3,1.91.69,2.81,1.16l.51.26-.24,4.62c.8.63,1.53,1.36,2.16,2.16l4.62-.24.26.51c.47.9.86,1.84,1.16,2.81l.17.54-3.43,3.1c.12,1.01.12,2.04,0,3.06l3.43,3.1-.17.54c-.3.97-.69,1.91-1.16,2.81l-.26.51-4.62-.24c-.64.8-1.36,1.53-2.16,2.16l.24,4.62-.51.26c-.9.47-1.84.86-2.81,1.16l-.55.17-3.1-3.43c-.51.06-1.02.09-1.53.09s-1.02-.03-1.53-.09l-3.1,3.43-.54-.17ZM25.07,45.07c.48.23.97.43,1.47.61l2.96-3.28.47.07c.57.09,1.16.13,1.74.13s1.17-.04,1.74-.13l.47-.07,2.96,3.28c.5-.18.99-.38,1.47-.61l-.23-4.41.39-.28c.94-.69,1.77-1.52,2.46-2.46l.28-.39,4.41.23c.23-.48.43-.97.61-1.47l-3.28-2.96.07-.47c.18-1.15.18-2.33,0-3.48l-.07-.47,3.28-2.96c-.18-.5-.38-.99-.61-1.47l-4.41.23-.28-.39c-.69-.94-1.52-1.77-2.46-2.46l-.39-.28.23-4.41c-.48-.23-.97-.43-1.47-.61l-2.96,3.28-.47-.07c-.57-.09-1.16-.13-1.74-.13s-1.17.04-1.74.13l-.47.07-2.96-3.28c-.5.18-.99.38-1.47.61l.23,4.41-.39.29c-.94.69-1.77,1.52-2.46,2.46l-.28.39-4.41-.23c-.23.48-.43.97-.61,1.47l3.28,2.96-.07.47c-.18,1.15-.18,2.33,0,3.48l.07.47-3.28,2.96c.18.5.38.99.61,1.47l4.41-.23.28.39c.69.94,1.52,1.77,2.46,2.46l.39.28-.23,4.41Z"/>
    <path class="cls-1" d="M44.65,29.47l3.41-3.08-.12-.39c-.3-.95-.68-1.88-1.14-2.77l-.19-.36-4.59.23c-.67-.86-1.44-1.63-2.3-2.3l.23-4.59-.36-.19c-.89-.46-1.81-.85-2.77-1.14l-.39-.12-3.08,3.41c-1.08-.14-2.17-.14-3.25,0l-3.08-3.41-.39.12c-.95.3-1.88.68-2.77,1.14l-.36.19.23,4.59c-.86.67-1.63,1.44-2.3,2.3l-4.59-.23-.19.36c-.46.89-.85,1.81-1.14,2.77l-.12.39,3.41,3.08c-.14,1.08-.14,2.17,0,3.25l-3.41,3.08.12.39c.3.95.68,1.88,1.14,2.77l.19.36,4.59-.23c.67.86,1.44,1.63,2.3,2.3l-.23,4.59.36.19c.89.46,1.81.85,2.77,1.15l.39.12,3.08-3.41c1.08.14,2.17.14,3.25,0l3.08,3.41.39-.12c.95-.3,1.88-.68,2.77-1.15l.36-.19-.23-4.59c.86-.67,1.63-1.44,2.3-2.3l4.59.23.19-.36c.46-.89.85-1.81,1.14-2.77l.12-.39-3.41-3.08c.14-1.08.14-2.17,0-3.25ZM46.58,36.2c-.21.62-.46,1.22-.75,1.8l-4.44-.23-.2.28c-.71.96-1.56,1.81-2.52,2.52l-.28.2.23,4.44c-.59.29-1.19.54-1.8.75l-2.98-3.3-.34.05c-1.18.18-2.38.18-3.56,0l-.34-.05-2.98,3.3c-.62-.21-1.22-.46-1.8-.75l.23-4.44-.28-.2c-.96-.71-1.81-1.56-2.52-2.52l-.2-.28-4.44.23c-.29-.59-.54-1.19-.75-1.8l3.3-2.98-.05-.34c-.18-1.18-.18-2.38,0-3.56l.05-.34-3.3-2.98c.21-.62.46-1.22.75-1.8l4.44.23.2-.28c.71-.96,1.56-1.81,2.52-2.52l.28-.2-.23-4.44c.59-.29,1.19-.54,1.8-.75l2.98,3.3.34-.05c1.18-.18,2.38-.18,3.56,0l.34.05,2.98-3.3c.62.21,1.22.46,1.8.75l-.23,4.44.28.2c.96.71,1.81,1.56,2.52,2.52l.2.28,4.44-.23c.29.59.54,1.19.75,1.8l-3.3,2.98.05.34c.18,1.18.18,2.38,0,3.56l-.05.34,3.3,2.98Z"/>
    <path class="cls-1" d="M31.72,40.22c-2.43,0-4.72-.95-6.45-2.67-3.56-3.56-3.57-9.35-.01-12.91,1.72-1.72,4.01-2.67,6.45-2.67s4.73.95,6.45,2.67c1.72,1.72,2.67,4.02,2.67,6.45s-.95,4.73-2.67,6.46c-1.72,1.72-4.01,2.67-6.45,2.67ZM31.72,23.76c-1.96,0-3.81.76-5.19,2.15s-2.15,3.23-2.15,5.19c0,1.96.76,3.81,2.15,5.19,1.39,1.39,3.23,2.15,5.19,2.15s3.81-.76,5.19-2.15c1.37-1.37,2.15-3.26,2.15-5.19,0-1.96-.76-3.81-2.15-5.19-1.39-1.39-3.23-2.15-5.19-2.15Z"/>
    <path class="cls-1" d="M25.44,24.82c-3.46,3.47-3.46,9.09.01,12.56,3.47,3.46,9.08,3.46,12.54,0h0c3.47-3.47,3.47-9.09,0-12.56h0c-3.46-3.46-9.09-3.46-12.56,0ZM37.09,36.47c-2.97,2.97-7.78,2.97-10.74,0s-2.97-7.78,0-10.74c2.97-2.97,7.78-2.97,10.74,0,1.42,1.42,2.22,3.36,2.22,5.37,0,2.02-.8,3.95-2.22,5.37h0Z"/>
    <path class="cls-1" d="M31.04,36.24v-1.52h-1.66v-1.78h3.29c.32,0,.58-.27.58-.58,0-.16-.06-.31-.17-.42-.11-.11-.26-.18-.42-.18h-1.33c-1.3,0-2.34-1.02-2.37-2.32-.02-.63.22-1.24.65-1.69.38-.4.88-.65,1.42-.72v-1.34h1.78v1.32h1.66v1.78h-3.14c-.17,0-.32.06-.43.18-.11.11-.17.26-.17.42,0,.32.27.59.59.59h1.34c1.3,0,2.35,1.07,2.36,2.36,0,1.26-.97,2.3-2.21,2.38v1.52h-1.78Z"/>
    <path class="cls-1" d="M32.67,30.22h-1.33c-.46,0-.84-.37-.85-.83s.37-.84.83-.85c0,0,0,0,.01,0h2.89v-1.28h-1.66v-1.32h-1.28v1.32c-1.17.03-2.1,1-2.07,2.17.03,1.15.97,2.07,2.12,2.07h1.33c.46,0,.84.38.83.85,0,.46-.37.83-.83.83h-3.04v1.28h1.66v1.52h1.28v-1.52h.1c1.17,0,2.12-.96,2.11-2.14,0-1.16-.95-2.11-2.11-2.11h0Z"/>
  </g>
</svg>