<?xml version="1.0" encoding="UTF-8"?>
<svg id="Layer_1" data-name="Layer 1" xmlns="http://www.w3.org/2000/svg" viewBox="0 0 64 64">
  <defs>
    <style>
      .cls-1 {
        fill: #31726b;
        opacity: .1;
      }

      .cls-2 {
        fill: #4ea49b;
      }
    </style>
  </defs>
  <rect class="cls-1" x=".28" y=".44" width="64" height="64"/>
  <g>
    <path class="cls-2" d="M28.54,34.42c-.83,1.31-1.65,2.64-2.24,4.05-.53,1.31-.11,2.56.96,3.47,1.01.88,2.19,1.17,3.44.59,1.23-.59,2-1.57,2.03-3.28-.29-1.76-1.49-3.39-2.61-4.99-.4-.59-1.2-.43-1.57.16ZM29.4,40.53c-.67-.03-1.09-.43-1.01-1.12.11-.75.59-1.87,1.01-1.81.69.11.93,1.15,1.15,1.84-.11.75-.48,1.12-1.15,1.09Z"/>
    <path class="cls-2" d="M23.85,24.98c-.03,1.07.51,1.55,1.55,1.55h8.13c.96,0,1.49-.45,1.49-1.47v-3.73c0-1.07-.51-1.52-1.55-1.49-2.72.03-5.41.03-8.13,0-1.09,0-1.52.51-1.49,1.55.03,1.2.03,2.4,0,3.6ZM26.06,22.93c.03-.67.19-.93.88-.91,1.68.05,3.36.05,5.04,0,.99-.05.77.59.77,1.12s.21,1.2-.77,1.12c-.88-.05-1.76-.03-2.64-.03-.67,0-1.33-.08-2,.03-1.12.16-1.33-.35-1.28-1.33Z"/>
    <path class="cls-2" d="M49.88,22.8h-4.27c-2.61,0-3.89,1.31-3.92,3.92v10c0,.99-.29,1.6-1.41,1.63-1.33.03-.8-.93-.8-1.49-.03-5.92,0-11.82-.03-17.74,0-2.45-1.36-3.76-3.81-3.76h-12.4c-2.37,0-3.76,1.33-3.84,3.65-.03,1.01,0,2.05,0,3.07,0,8,0,16-.03,24,0,.48.37,1.25-.67,1.23-.8-.03-1.49.19-1.47,1.12.03,1.01.83,1.09,1.63,1.09h21.34c.75,0,1.39-.21,1.44-1.04.05-.83-.51-1.23-1.28-1.17-.83.05-.96-.32-.93-1.01.03-1.55.05-3.12,0-4.67-.03-.85.27-1.01,1.07-1.04,2.21-.13,3.39-1.49,3.41-3.76.03-2.13.03-4.27-.03-6.4-.03-.75.21-.96.96-.96,1.97-.05,3.49-1.31,3.47-3.12,0-1.31.53-1.44,1.55-1.36.8.08,1.47-.21,1.44-1.15-.03-.85-.67-1.04-1.41-1.04ZM21.66,19.06c0-1.01.45-1.49,1.44-1.49h12.64c1.04,0,1.49.51,1.49,1.57-.03,2.88-.05,5.76,0,8.64,0,.77-.27.93-.99.93-2.29-.05-4.61-.03-6.93-.03s-4.53-.03-6.8.03c-.69,0-.91-.19-.91-.88.08-2.93.08-5.87.05-8.77ZM36.2,47.31c-4.48-.05-8.96-.05-13.44,0-.91,0-1.09-.27-1.09-1.12.03-4.75.03-9.5,0-14.24,0-.83.24-1.04,1.07-1.04,4.53.03,9.04.03,13.58,0,.77,0,.96.27.96.99-.03,2.43-.03,4.88-.03,7.31s-.03,4.69.03,7.07c-.03.83-.27,1.04-1.07,1.04ZM44.68,27.25c-.64.03-.83-.21-.8-.85.05-.99.53-1.44,1.57-1.44.59-.11.72.24.72.83-.05,1.01-.53,1.44-1.49,1.47Z"/>
  </g>
</svg>