<?xml version="1.0" encoding="UTF-8"?>
<svg id="Layer_1" data-name="Layer 1" xmlns="http://www.w3.org/2000/svg" viewBox="0 0 64 64">
  <defs>
    <style>
      .cls-1 {
        fill: #4ea49b;
      }

      .cls-2 {
        fill: #00746b;
        opacity: .1;
      }
    </style>
  </defs>
  <rect class="cls-2" y=".04" width="64" height="64"/>
  <g id="b85db83d-9203-44f9-8716-5a4a8d73faeb">
    <path class="cls-1" d="M25.59,42.14c-.37,0-.72-.14-.98-.39-5.38-5.11-5.6-13.61-.49-18.98.16-.17.32-.33.49-.49.62-.5,1.53-.41,2.04.21.46.56.43,1.37-.07,1.9-4.21,4.04-4.35,10.72-.32,14.94.1.11.21.21.32.32.58.55.61,1.46.07,2.05-.27.29-.65.46-1.05.46h0ZM19.81,46.02c.56-.56.56-1.48,0-2.04-6.61-6.31-6.86-16.78-.55-23.38.18-.19.36-.37.55-.55.58-.56.6-1.49.04-2.08s-1.49-.6-2.08-.04h0c-7.78,7.41-8.07,19.72-.66,27.5.22.23.44.45.66.66.58.55,1.5.52,2.05-.06,0,0,0,0,0-.01h-.01ZM39.38,41.75c5.38-5.11,5.6-13.61.49-18.98-.16-.17-.32-.33-.49-.49-.58-.55-1.5-.52-2.05.07-.55.58-.52,1.5.07,2.05,4.21,4,4.38,10.66.38,14.87-.12.13-.25.26-.38.38-.58.54-.61,1.46-.07,2.04.28.3.66.47,1.07.46.37,0,.72-.14.98-.39ZM46.21,46.09c7.78-7.37,8.1-19.66.73-27.43-.24-.25-.48-.49-.73-.73-.62-.5-1.53-.41-2.04.21-.46.56-.43,1.37.07,1.9,6.61,6.31,6.86,16.78.55,23.38-.18.19-.36.37-.55.55-.58.54-.61,1.46-.07,2.04.27.29.66.46,1.06.46.37,0,.72-.14.98-.39ZM34.9,32.01c0-1.6-1.3-2.89-2.89-2.89s-2.89,1.3-2.89,2.89,1.3,2.89,2.89,2.89,2.89-1.3,2.89-2.89Z"/>
  </g>
</svg>