<?xml version="1.0" encoding="UTF-8"?>
<svg id="Layer_1" data-name="Layer 1" xmlns="http://www.w3.org/2000/svg" viewBox="0 0 65.64 65.64">
  <defs>
    <style>
      .cls-1 {
        fill: #2f2f2f;
      }

      .cls-2 {
        fill: #fff;
        stroke: #e9e9ee;
        stroke-miterlimit: 10;
        stroke-width: 1.89px;
      }
    </style>
  </defs>
  <path class="cls-2" d="M65.64,65.64H0V0h65.64s0,0,0,0v65.64s0,0,0,0Z"/>
  <g>
    <path class="cls-1" d="M32.82,41.52c-.91,0-1.5-.59-1.5-1.5v-9c0-.91.59-1.5,1.5-1.5s1.5.59,1.5,1.5v9c0,.91-.59,1.5-1.5,1.5Z"/>
    <circle class="cls-1" cx="32.82" cy="25.62" r="1.5"/>
    <path class="cls-1" d="M32.82,50.13c-9.54,0-17.31-7.76-17.31-17.31s7.76-17.31,17.31-17.31,17.31,7.76,17.31,17.31-7.76,17.31-17.31,17.31ZM32.82,17.71c-8.33,0-15.11,6.78-15.11,15.11s6.78,15.11,15.11,15.11,15.11-6.78,15.11-15.11-6.78-15.11-15.11-15.11Z"/>
  </g>
</svg>