<?xml version="1.0" encoding="UTF-8"?>
<svg id="Layer_1" data-name="Layer 1" xmlns="http://www.w3.org/2000/svg" viewBox="0 0 65.64 65.64">
  <defs>
    <style>
      .cls-1 {
        fill: #2f2f2f;
      }

      .cls-2 {
        fill: #fff;
        stroke: #e9e9ee;
        stroke-miterlimit: 10;
        stroke-width: 1.89px;
      }
    </style>
  </defs>
  <path class="cls-2" d="M65.64,65.64H0V0h65.64v65.64Z"/>
  <path class="cls-1" d="M45.99,22.14h-5.99v-1.2c0-1.98-1.61-3.59-3.59-3.59h-7.18c-1.98,0-3.59,1.61-3.59,3.59v1.2h-5.99c-1.98,0-3.59,1.61-3.59,3.59v19.16c0,1.98,1.61,3.59,3.59,3.59h26.34c1.98,0,3.59-1.61,3.59-3.59v-19.16c0-1.98-1.61-3.59-3.59-3.59ZM28.03,20.94c0-.66.54-1.2,1.2-1.2h7.18c.66,0,1.2.54,1.2,1.2v1.2h-9.58v-1.2ZM26.83,24.53h18.92l-3.64,5.45c-.22.33-.6.53-1,.53h-3.73c-.5-1.39-1.81-2.39-3.37-2.39h-2.39c-1.56,0-2.88,1-3.37,2.39h-3.73c-.4,0-.77-.2-1-.53l-3.64-5.45h6.94ZM35.22,31.72c0,.66-.54,1.2-1.2,1.2h-2.39c-.66,0-1.2-.54-1.2-1.2s.54-1.2,1.2-1.2h2.39c.66,0,1.2.54,1.2,1.2ZM47.19,44.89c0,.66-.54,1.2-1.2,1.2h-26.34c-.66,0-1.2-.54-1.2-1.2v-18.2l3.08,4.62c.67,1,1.79,1.6,2.99,1.6h3.73c.5,1.39,1.81,2.39,3.37,2.39h2.39c1.56,0,2.88-1,3.37-2.39h3.73c1.2,0,2.32-.6,2.99-1.6l3.08-4.62v18.2Z"/>
</svg>