<?xml version="1.0" encoding="UTF-8"?>
<svg id="Layer_1" data-name="Layer 1" xmlns="http://www.w3.org/2000/svg" viewBox="0 0 64 64">
  <defs>
    <style>
      .cls-1 {
        stroke: #2f2f2f;
        stroke-linecap: round;
        stroke-linejoin: round;
        stroke-width: 3.96px;
      }

      .cls-1, .cls-2 {
        fill: none;
      }

      .cls-3 {
        fill: #fff;
      }

      .cls-2 {
        stroke: #eaeaf0;
        stroke-width: 1.6px;
      }
    </style>
  </defs>
  <rect class="cls-3" x="12.5" y="12.2" width="39" height="39" rx="7.5" ry="7.5"/>
  <rect class="cls-2" x=".82" y=".82" width="62.36" height="62.36" rx="11.99" ry="11.99"/>
  <path class="cls-1" d="M37.95,18.13v7.93M37.95,26.05h7.93M37.95,26.05l11.89-11.89M44.88,49.84c-16.97,0-30.72-13.75-30.72-30.72,0-.77.03-1.52.08-2.28.06-.86.09-1.29.32-1.69.19-.33.52-.63.86-.8.41-.2.88-.2,1.84-.2h5.58c.8,0,1.2,0,1.54.13.3.12.57.31.79.55.24.28.38.65.65,1.41l2.31,6.36c.32.88.48,1.31.45,1.73-.02.37-.15.72-.36,1.02-.24.34-.64.58-1.44,1.06l-2.71,1.63c2.38,5.25,6.64,9.51,11.89,11.89l1.63-2.71c.48-.8.72-1.2,1.06-1.44.3-.21.65-.34,1.02-.36.42-.03.85.13,1.73.45l6.36,2.31c.75.27,1.13.41,1.41.65.24.21.43.48.55.79.13.34.13.74.13,1.54v5.58c0,.95,0,1.43-.2,1.84-.16.34-.47.67-.8.86-.39.23-.82.26-1.69.32-.75.05-1.51.08-2.28.08Z"/>
</svg>