<?xml version="1.0" encoding="UTF-8"?>
<svg id="Layer_1" data-name="Layer 1" xmlns="http://www.w3.org/2000/svg" viewBox="0 0 65.64 65.64">
  <defs>
    <style>
      .cls-1 {
        fill: #2f2f2f;
      }

      .cls-2 {
        fill: #fff;
        stroke: #e9e9ee;
        stroke-miterlimit: 10;
        stroke-width: 1.89px;
      }
    </style>
  </defs>
  <path class="cls-2" d="M65.64,65.64H0s0,0,0,0V0h65.64v65.64Z"/>
  <g id="calendar-check">
    <path class="cls-1" d="M44.82,16.42h-2.48v-1.49c0-.82-.67-1.49-1.49-1.49s-1.49.67-1.49,1.49v1.49h-12.9v-1.49c0-.82-.67-1.49-1.49-1.49s-1.49.67-1.49,1.49v1.49h-2.48c-3.68-.43-7.02,2.21-7.44,5.9-.06.51-.06,1.03,0,1.55v20.84c-.43,3.68,2.21,7.02,5.9,7.44.51.06,1.03.06,1.55,0h23.82c3.68.43,7.02-2.21,7.44-5.9.06-.51.06-1.03,0-1.55v-20.84c.43-3.68-2.21-7.02-5.9-7.44-.51-.06-1.03-.06-1.55,0ZM21,19.4h2.48v1.49c0,.82.67,1.49,1.49,1.49s1.49-.67,1.49-1.49v-1.49h12.9v1.49c0,.82.67,1.49,1.49,1.49s1.49-.67,1.49-1.49v-1.49h2.48c3.13,0,4.47,1.34,4.47,4.47v1.49H16.54v-1.49c0-3.13,1.34-4.47,4.47-4.47ZM44.82,49.17h-23.82c-3.13,0-4.47-1.34-4.47-4.47v-16.37h32.75v16.37c0,3.13-1.34,4.47-4.47,4.47ZM38.92,34.39c.58.58.58,1.52,0,2.11,0,0,0,0,0,0l-6.61,6.63c-.58.58-1.52.58-2.1,0,0,0,0,0,0,0l-3.31-3.31c-.56-.6-.53-1.54.07-2.1.57-.53,1.46-.53,2.03,0l2.26,2.25,5.56-5.56c.58-.59,1.52-.59,2.1-.02,0,0,0,0,0,0h0Z"/>
  </g>
</svg>