<?xml version="1.0" encoding="UTF-8"?>
<svg id="Layer_1" data-name="Layer 1" xmlns="http://www.w3.org/2000/svg" viewBox="0 0 65.64 65.64">
  <defs>
    <style>
      .cls-1 {
        fill: #2f2f2f;
      }

      .cls-2 {
        fill: #fff;
        stroke: #e9e9ee;
        stroke-miterlimit: 10;
        stroke-width: 1.89px;
      }
    </style>
  </defs>
  <path class="cls-2" d="M65.64,65.64H0V0h65.64s0,0,0,0v65.64Z"/>
  <g>
    <rect class="cls-1" x="41.33" y="13.21" width="2.47" height="19.75" transform="translate(-3.85 36.86) rotate(-45)"/>
    <path class="cls-1" d="M33.79,47.47l-15.62-15.62c-.99-.99-.99-2.59,0-3.58l8.64-8.64c.99-.99,2.59-.99,3.58,0l15.62,15.62c.99.99.99,2.59,0,3.58l-8.64,8.64c-.99.99-2.59.99-3.58,0ZM21.66,31.85l12.13,12.13c.99.99,2.59.99,3.58,0l5.15-5.15c.99-.99.99-2.59,0-3.58l-12.13-12.13c-.99-.99-2.59-.99-3.58,0l-5.15,5.15c-.99.99-.99,2.59,0,3.58Z"/>
    <path class="cls-1" d="M42.56,34.19c-.23,0-.46,0-.69-.02l.15-2.46c2.47.15,4.9-.76,6.65-2.51,1.63-1.63,2.53-3.8,2.53-6.11s-.9-4.48-2.53-6.11-3.8-2.53-6.11-2.53-4.48.9-6.11,2.53c-1.75,1.75-2.67,4.18-2.51,6.65l-2.46.15c-.2-3.18.98-6.3,3.23-8.55,2.1-2.1,4.89-3.25,7.85-3.25s5.76,1.16,7.85,3.25c2.1,2.1,3.25,4.89,3.25,7.86s-1.16,5.76-3.25,7.85c-2.09,2.09-4.92,3.25-7.86,3.25Z"/>
    <polygon class="cls-1" points="18.37 54.1 11.54 47.27 22.26 34.36 24.16 35.93 14.87 47.12 18.52 50.77 29.71 41.48 31.28 43.38 18.37 54.1"/>
  </g>
</svg>