<?xml version="1.0" encoding="UTF-8"?>
<svg id="Layer_1" data-name="Layer 1" xmlns="http://www.w3.org/2000/svg" viewBox="0 0 64 64">
  <defs>
    <style>
      .cls-1 {
        fill: #31726b;
        opacity: .1;
      }

      .cls-2 {
        fill: #4ea49b;
      }
    </style>
  </defs>
  <rect class="cls-1" x="0" width="64" height="64"/>
  <g>
    <path class="cls-2" d="M32.06,46.4c-6.6,0-12.02-5.31-12.1-11.98-.08-6.55,5.31-11.88,11.85-12.24l.6-.03s.05-.04.03-.07l-2.39-2.42s-.01-.04,0-.05l1.78-1.78s.04-.02.05,0l5.61,5.61s.02.04,0,.05l-5.61,5.61s-.04.02-.05,0l-1.78-1.78s-.02-.04,0-.05l2.43-2.45s0-.07-.03-.07l-.94.08c-4.28.36-8.02,3.38-8.88,7.59-1.25,6.12,3.47,11.55,9.37,11.55h.11c1.41,0,2.82-.28,4.08-.93,2.95-1.52,4.81-4.17,5.27-7.17.1-.63.64-1.09,1.27-1.09h0c.79,0,1.42.71,1.29,1.5-.91,5.5-5.53,9.79-11.27,10.11-.23.01-.46.02-.69.02h0Z"/>
    <path class="cls-2" d="M30.78,37.89v-3.42c0-.46.18-.91.51-1.24l2.2-2.21c.5-.51,1.32-.51,1.83,0h0c.51.51.51,1.34,0,1.84l-1.96,1.96v3.07c0,.72-.58,1.3-1.3,1.3h0c-.72,0-1.3-.58-1.3-1.3Z"/>
  </g>
</svg>