<?xml version="1.0" encoding="UTF-8"?>
<svg id="Layer_1" data-name="Layer 1" xmlns="http://www.w3.org/2000/svg" viewBox="0 0 64 64">
  <defs>
    <style>
      .cls-1 {
        fill: #4ea49b;
        fill-rule: evenodd;
      }

      .cls-2 {
        fill: #31726b;
        opacity: .1;
      }
    </style>
  </defs>
  <rect class="cls-2" x="0" width="64" height="64"/>
  <g id="Icon">
    <path class="cls-1" d="M26.01,17.24c.66,0,1.2.54,1.2,1.2s-.54,1.2-1.2,1.2h-2.39c-1.54,0-2.79,1.25-2.79,2.79v21.54c0,.74.29,1.45.82,1.97.52.52,1.23.82,1.97.82h17.55c.74,0,1.45-.29,1.97-.82.52-.52.82-1.23.82-1.97v-21.54c0-1.54-1.25-2.79-2.79-2.79h-2.39c-.66,0-1.2-.54-1.2-1.2s.54-1.2,1.2-1.2h2.39c2.86,0,5.19,2.32,5.19,5.19v21.54c0,1.38-.55,2.69-1.52,3.67-.97.97-2.29,1.52-3.67,1.52h-17.55c-1.38,0-2.69-.55-3.67-1.52-.97-.97-1.52-2.29-1.52-3.67v-21.54c0-2.86,2.32-5.19,5.19-5.19h2.39Z"/>
    <path class="cls-1" d="M39.97,17.64v1.6c0,1.54-1.25,2.79-2.79,2.79h-9.57c-1.54,0-2.79-1.25-2.79-2.79v-1.6c0-1.54,1.25-2.79,2.79-2.79h9.57c1.54,0,2.79,1.25,2.79,2.79ZM37.58,17.64c0-.22-.18-.4-.4-.4h-9.57c-.22,0-.4.18-.4.4v1.6c0,.22.18.4.4.4h9.57c.22,0,.4-.18.4-.4v-1.6Z"/>
    <path class="cls-1" d="M30.4,27.21v3.19c0,.53-.21,1.04-.58,1.41-.37.37-.88.58-1.41.58h-3.19c-.53,0-1.04-.21-1.41-.58-.37-.37-.58-.88-.58-1.41v-3.19c0-.53.21-1.04.58-1.41.37-.37.88-.58,1.41-.58h3.19c.53,0,1.04.21,1.41.58.37.37.58.88.58,1.41ZM25.61,27.61v2.39h2.39v-2.39h-2.39Z"/>
    <path class="cls-1" d="M30.4,38.38v3.19c0,.53-.21,1.04-.58,1.41-.37.37-.88.58-1.41.58h-3.19c-.53,0-1.04-.21-1.41-.58-.37-.37-.58-.88-.58-1.41v-3.19c0-.53.21-1.04.58-1.41.37-.37.88-.58,1.41-.58h3.19c.53,0,1.04.21,1.41.58.37.37.58.88.58,1.41ZM25.61,38.78v2.39h2.39v-2.39h-2.39Z"/>
    <path class="cls-1" d="M33.99,27.61c-.66,0-1.2-.54-1.2-1.2s.54-1.2,1.2-1.2h6.38c.66,0,1.2.54,1.2,1.2s-.54,1.2-1.2,1.2h-6.38Z"/>
    <path class="cls-1" d="M33.99,38.78c-.66,0-1.2-.54-1.2-1.2s.54-1.2,1.2-1.2h6.38c.66,0,1.2.54,1.2,1.2s-.54,1.2-1.2,1.2h-6.38Z"/>
    <path class="cls-1" d="M33.99,31.6c-.66,0-1.2-.54-1.2-1.2s.54-1.2,1.2-1.2h3.19c.66,0,1.2.54,1.2,1.2s-.54,1.2-1.2,1.2h-3.19Z"/>
    <path class="cls-1" d="M33.99,42.77c-.66,0-1.2-.54-1.2-1.2s.54-1.2,1.2-1.2h3.19c.66,0,1.2.54,1.2,1.2s-.54,1.2-1.2,1.2h-3.19Z"/>
  </g>
</svg>