<?xml version="1.0" encoding="UTF-8"?>
<svg id="Layer_1" data-name="Layer 1" xmlns="http://www.w3.org/2000/svg" viewBox="0 0 64 64">
  <defs>
    <style>
      .cls-1 {
        fill: #31726b;
        opacity: .1;
      }

      .cls-2 {
        fill: #4ea49b;
      }
    </style>
  </defs>
  <rect class="cls-1" width="64" height="64"/>
  <g>
    <path class="cls-2" d="M44.35,17.41h-24.7c-1.36,0-2.47,1.11-2.47,2.47v22.23c0,1.36,1.11,2.47,2.47,2.47h24.7c1.36,0,2.47-1.11,2.47-2.47v-22.23c0-1.36-1.11-2.47-2.47-2.47ZM44.35,19.88v2.47h-24.7v-2.47h24.7ZM19.65,42.11v-17.29h24.7v17.29h-24.7Z"/>
    <path class="cls-2" d="M34.36,30.15l2.05-1.81c-1.33-.67-2.83-1.05-4.41-1.05-5.46,0-9.88,4.42-9.88,9.88h2.47c0-4.09,3.32-7.41,7.41-7.41.83,0,1.62.14,2.36.39Z"/>
    <path class="cls-2" d="M39.02,34.81c.25.74.39,1.53.39,2.36h2.47c0-1.59-.38-3.08-1.05-4.41l-1.81,2.05Z"/>
    <path class="cls-2" d="M39.42,30.62l-.87-.87-5.77,5.09c-.25-.08-.51-.14-.78-.14-1.36,0-2.47,1.1-2.47,2.47s1.11,2.47,2.47,2.47,2.47-1.1,2.47-2.47c0-.27-.06-.53-.14-.78l5.09-5.77Z"/>
  </g>
</svg>