<?xml version="1.0" encoding="UTF-8"?>
<svg id="Layer_1" data-name="Layer 1" xmlns="http://www.w3.org/2000/svg" viewBox="0 0 64 64">
  <defs>
    <style>
      .cls-1 {
        fill: #31726b;
        opacity: .1;
      }

      .cls-2 {
        fill: #4ea49b;
      }
    </style>
  </defs>
  <rect class="cls-1" x="0" width="64" height="64"/>
  <g>
    <path class="cls-2" d="M31.51,14.66c1.41-.17,2.65.41,3.48,1.53l16.84,27.91c1.12,2.41-.37,4.99-2.97,5.27H15.15c-2.59-.21-4.15-3-2.94-5.32l16.75-27.77c.58-.86,1.51-1.5,2.56-1.63ZM31.91,17.26c-.34.04-.65.33-.84.59l-16.45,27.28c-.48.77.03,1.6.92,1.64h32.92c.88-.03,1.4-.86.92-1.64l-16.45-27.28c-.22-.32-.61-.64-1.03-.59Z"/>
    <g>
      <path class="cls-2" d="M31.67,25.47c.82-.11,1.96.26,2.07,1.2.25,2.11-.25,4.72-.24,6.87-.08,1.08.08,2.51-.08,3.55-.18,1.16-2.61,1.22-2.82.07-.07-.41,0-.9-.02-1.33-.1-1.94-.18-3.88-.24-5.84-.03-.9-.25-2.69-.04-3.52.15-.6.8-.93,1.36-1Z"/>
      <circle class="cls-2" cx="32.03" cy="41.56" r="1.87"/>
    </g>
  </g>
</svg>