<?xml version="1.0" encoding="UTF-8"?>
<svg id="Layer_1" data-name="Layer 1" xmlns="http://www.w3.org/2000/svg" viewBox="0 0 64 64">
  <defs>
    <style>
      .cls-1 {
        fill: #31726b;
        opacity: .1;
      }

      .cls-2 {
        fill: #4ea49b;
      }
    </style>
  </defs>
  <rect class="cls-1" width="64" height="64"/>
  <g>
    <path class="cls-2" d="M18.04,42.57c-.16,0-.33-.04-.47-.13-.42-.26-.55-.82-.29-1.24l2.79-4.51c1.84-2.83,4.86-4.51,8.07-4.51h7.09c.5,0,.9.4.9.9,0,2.87-2.33,5.2-5.2,5.2h-2.15c-.5,0-.9-.4-.9-.9s.4-.9.9-.9h2.15c1.56,0,2.88-1.06,3.27-2.5h-6.07c-2.6,0-5.05,1.37-6.55,3.67l-2.78,4.49c-.17.28-.46.43-.77.43Z"/>
    <path class="cls-2" d="M21.26,47.94c-.29,0-.58-.14-.75-.4-.28-.41-.16-.97.25-1.25,4.36-2.91,9.44-4.45,14.67-4.45,2.83,0,5.51-1.58,6.83-4.04l2.01-3.57c-1.1.35-2.06,1.02-2.74,1.95l-1.29,1.73c-.17.23-.44.36-.72.36h-8.59c-.5,0-.9-.4-.9-.9s.4-.9.9-.9h8.14l1.02-1.36c1.35-1.84,3.55-2.94,5.88-2.94.32,0,.62.17.78.45.16.28.16.62,0,.9l-2.9,5.15c-1.62,3.01-4.93,4.97-8.41,4.97-4.88,0-9.61,1.43-13.68,4.14-.15.1-.33.15-.5.15Z"/>
    <path class="cls-2" d="M43.81,30.75h-23.63c-.5,0-.9-.4-.9-.9v-12.89c0-.5.4-.9.9-.9h23.63c.5,0,.9.4.9.9v12.89c0,.5-.4.9-.9.9ZM21.09,28.95h21.83v-11.09h-21.83v11.09Z"/>
    <path class="cls-2" d="M43.81,22.16c-2.87,0-5.2-2.33-5.2-5.2,0-.5.4-.9.9-.9s.9.4.9.9c0,1.87,1.52,3.4,3.4,3.4.5,0,.9.4.9.9s-.4.9-.9.9Z"/>
    <path class="cls-2" d="M24.48,30.75c-.5,0-.9-.4-.9-.9,0-1.87-1.52-3.4-3.4-3.4-.5,0-.9-.4-.9-.9s.4-.9.9-.9c2.87,0,5.2,2.33,5.2,5.2,0,.5-.4.9-.9.9Z"/>
    <path class="cls-2" d="M32,27.53c-2.27,0-4.12-1.85-4.12-4.12s1.85-4.12,4.12-4.12,4.12,1.85,4.12,4.12-1.85,4.12-4.12,4.12ZM32,21.09c-1.28,0-2.32,1.04-2.32,2.32s1.04,2.32,2.32,2.32,2.32-1.04,2.32-2.32-1.04-2.32-2.32-2.32Z"/>
    <path class="cls-2" d="M20.19,22.16c-.5,0-.9-.4-.9-.9s.4-.9.9-.9c1.87,0,3.4-1.52,3.4-3.4,0-.5.4-.9.9-.9s.9.4.9.9c0,2.87-2.33,5.2-5.2,5.2Z"/>
    <path class="cls-2" d="M39.52,30.75c-.5,0-.9-.4-.9-.9,0-2.87,2.33-5.2,5.2-5.2.5,0,.9.4.9.9s-.4.9-.9.9c-1.87,0-3.4,1.52-3.4,3.4,0,.5-.4.9-.9.9Z"/>
  </g>
</svg>