<?xml version="1.0" encoding="UTF-8"?>
<svg id="Layer_1" data-name="Layer 1" xmlns="http://www.w3.org/2000/svg" viewBox="0 0 64 64">
  <defs>
    <style>
      .cls-1 {
        fill: #31726b;
        opacity: .1;
      }

      .cls-2 {
        fill: #4ea49b;
      }
    </style>
  </defs>
  <rect class="cls-1" x="0" width="64" height="64"/>
  <g>
    <path class="cls-2" d="M32,30.23c-.58,0-1.06-.53-1.06-1.17s.47-1.17,1.06-1.17h1.36c.58,0,1.06.53,1.06,1.17s-.47,1.17-1.06,1.17h-1.36Z"/>
    <g>
      <path class="cls-2" d="M27.93,42.01c-1.33,0-2.41-1.19-2.41-2.65v-14.72c0-1.46,1.08-2.65,2.41-2.65h5.43c3.57,0,6.48,3.17,6.48,7.06s-2.91,7.06-6.48,7.06h-.3v3.25c0,1.46-1.08,2.65-2.41,2.65h-2.71ZM27.63,39.66h3.31v-4.72c0-.65.47-1.17,1.06-1.17h1.36c2.41,0,4.37-2.12,4.37-4.72s-1.96-4.72-4.37-4.72h-5.73v15.32Z"/>
      <path class="cls-2" d="M22.5,49.37c-3.57,0-6.48-3.17-6.48-7.06v-20.62c0-3.89,2.91-7.06,6.48-7.06h18.99c3.57,0,6.48,3.17,6.48,7.06v20.62c0,3.89-2.91,7.06-6.48,7.06h-18.99ZM22.5,16.97c-2.41,0-4.37,2.12-4.37,4.72v20.62c0,2.6,1.96,4.72,4.37,4.72h18.99c2.41,0,4.37-2.12,4.37-4.72v-20.62c0-2.6-1.96-4.72-4.37-4.72h-18.99Z"/>
    </g>
  </g>
</svg>