<?xml version="1.0" encoding="UTF-8"?>
<svg id="Layer_1" data-name="Layer 1" xmlns="http://www.w3.org/2000/svg" viewBox="0 0 64 64">
  <defs>
    <style>
      .cls-1 {
        fill: #4ea49b;
        stroke: #4ea49b;
        stroke-miterlimit: 10;
        stroke-width: .5px;
      }

      .cls-2 {
        fill: #31726b;
        opacity: .1;
      }
    </style>
  </defs>
  <rect class="cls-2" x="0" width="64" height="64"/>
  <g>
    <path class="cls-1" d="M31.98,32.37c-.45,0-.88.1-1.26.29l-2.92-2.92c-.38-.38-1-.38-1.38,0s-.38,1,0,1.38l2.92,2.92c-.18.38-.29.81-.29,1.26,0,1.61,1.31,2.92,2.92,2.92s2.92-1.31,2.92-2.92-1.31-2.92-2.92-2.92ZM31.98,36.27c-.54,0-.97-.44-.97-.97s.44-.97.97-.97.97.44.97.97-.44.97-.97.97Z"/>
    <path class="cls-1" d="M40.09,25.58h0s1.36-1.77,1.36-1.77l.32.23c.17.12.37.19.57.19.3,0,.6-.14.79-.4.32-.44.22-1.04-.22-1.36l-2.19-1.58c-.44-.32-1.04-.22-1.36.22s-.22,1.04.22,1.36l.3.21-1.36,1.78c-1.1-.66-2.31-1.17-3.6-1.47v-2.29c1.61,0,2.92-1.31,2.92-2.92s-1.31-2.92-2.92-2.92h-5.85c-1.61,0-2.92,1.31-2.92,2.92s1.31,2.92,2.92,2.92v2.29c-5.09,1.21-9.01,5.5-9.65,10.79l.03.03s-.2,2.01,0,3.46h.03c.05.31.11.61.18.91.02.06.05.11.07.16.06.12.07.22.05.31,1.47,5.37,6.39,9.33,12.22,9.33,6.98,0,12.67-5.68,12.67-12.67,0-3.9-1.77-7.4-4.56-9.72ZM28.08,17.76c0-.54.44-.97.97-.97h5.85c.54,0,.97.44.97.97s-.44.97-.97.97h-5.85c-.54,0-.97-.44-.97-.97ZM32.96,20.68v1.99c-.32-.02-.65-.04-.97-.04s-.65.01-.97.04v-1.99h1.95ZM31.98,46.01c-5.91,0-10.72-4.81-10.72-10.72s4.81-10.72,10.72-10.72,10.72,4.81,10.72,10.72-4.81,10.72-10.72,10.72Z"/>
  </g>
</svg>