<?xml version="1.0" encoding="UTF-8"?>
<svg id="Layer_1" data-name="Layer 1" xmlns="http://www.w3.org/2000/svg" viewBox="0 0 64 64">
  <defs>
    <style>
      .cls-1 {
        fill: #4ea69c;
      }

      .cls-2 {
        fill: #00746b;
        opacity: .1;
      }
    </style>
  </defs>
  <rect class="cls-2" x="0" width="64" height="64"/>
  <g>
    <path class="cls-1" d="M32.64,17.98c.19.09.48.08.72.12,5.63.95,9.27,6.55,7.29,12.06-1.13,3.14-3.3,6.04-5.24,8.72l-.03.08c1.62.25,3.33.53,4.83,1.21,1.35.61,2.88,1.88,1.57,3.4-1.41,1.63-5.48,2.24-7.54,2.39-.28.02-.45.02-.73.06-.49.07-2.57.07-3.06,0-1.5-.21-2.93-.25-4.44-.62s-5.16-1.56-4.11-3.76c.7-1.45,3.67-2.2,5.14-2.46.49-.09.99-.11,1.47-.19.04,0,.05-.02.07-.05-1.17-1.56-2.3-3.16-3.31-4.83-1.94-3.19-3.36-6.22-1.99-10,1.17-3.21,3.91-5.41,7.26-6,.33-.06,1.86-.23,2.09-.12ZM32.01,40.67c1.54-2.02,3.1-4.02,4.49-6.15,2.29-3.52,4.5-7.25,1.93-11.35-3.2-5.11-10.98-4.58-13.4.94-1.62,3.68.06,6.65,1.98,9.73,1.34,2.15,2.88,4.25,4.45,6.24.16.2.35.38.47.6h.08ZM29.59,40.44c-.66.01-1.55.18-2.21.3-.85.15-3.45.72-3.91,1.45-.1.15-.09.26.01.41.51.72,3.02,1.27,3.9,1.43,3.06.54,6.46.54,9.52-.06.83-.16,3.21-.78,3.69-1.46.09-.13.08-.17-.01-.29-.61-.81-4.02-1.49-5.06-1.63-.2-.03-1.13-.16-1.25-.11-.03.01-.09.09-.12.12-.43.47-1.38,2.05-1.86,2.23-.23.09-.45.08-.67-.03-.45-.21-1.37-1.73-1.77-2.2-.07-.08-.14-.16-.25-.16Z"/>
    <path class="cls-1" d="M31.83,24.15c-.32.05-.6.33-.65.65-.07.43-.04,1.59,0,2.05,0,.11.04.3.09.4.13.3.9.92,1.17,1.19s.63.8,1.03.85c.8.1,1.19-.76.72-1.36-.37-.48-.99-.86-1.37-1.35-.09-.54.01-1.12-.04-1.66s-.43-.84-.95-.76Z"/>
    <path class="cls-1" d="M38.01,27.17c0,3.33-2.7,6.02-6.02,6.02s-6.02-2.7-6.02-6.02,2.7-6.02,6.02-6.02,6.02,2.7,6.02,6.02ZM36.38,27.15c0-2.43-1.97-4.41-4.41-4.41s-4.41,1.97-4.41,4.41,1.97,4.41,4.41,4.41,4.41-1.97,4.41-4.41Z"/>
    <path class="cls-1" d="M31.83,24.15c.52-.07.9.25.95.76s-.05,1.12.04,1.66c.38.49,1,.88,1.37,1.35.47.6.08,1.46-.72,1.36-.4-.05-.76-.58-1.03-.85s-1.05-.89-1.17-1.19c-.04-.1-.08-.29-.09-.4-.04-.46-.06-1.62,0-2.05.05-.32.33-.6.65-.65Z"/>
  </g>
</svg>