<?xml version="1.0" encoding="UTF-8"?>
<svg id="Layer_1" data-name="Layer 1" xmlns="http://www.w3.org/2000/svg" viewBox="0 0 64 64">
  <defs>
    <style>
      .cls-1 {
        fill: #31726b;
        opacity: .1;
      }

      .cls-2 {
        fill: #4ea49b;
      }
    </style>
  </defs>
  <rect class="cls-1" x="0" width="64" height="64"/>
  <path class="cls-2" d="M28.3,47.3c-.65,0-1.18-.53-1.18-1.18v-5.25l-.14-.09c-2.79-1.75-4.45-4.75-4.45-8.02,0-5.16,4.14-9.36,9.26-9.46h.18c5.2,0,9.43,4.24,9.43,9.46,0,.65-.53,1.18-1.18,1.18-.65,0-1.18-.53-1.18-1.18,0-3.91-3.17-7.09-7.07-7.09s-7.07,3.18-7.07,7.09c0,2.69,1.48,5.11,3.86,6.32.08.03.12.05.16.07.9.43,1.86.67,2.86.69h.54c.98-.06,1.87-.29,2.71-.7,1.25-.61,2.25-1.52,2.96-2.65.22-.35.59-.56,1.01-.56.22,0,.44.06.62.18.55.34.72,1.08.38,1.63-.74,1.2-1.76,2.23-2.96,2.99l-.14.09v5.3c0,.65-.53,1.18-1.18,1.18h-7.4ZM29.49,44.93h5.03v-3.07l-.37.09c-.68.16-1.38.25-2.07.25h-.11c-.78,0-1.46-.09-2.11-.24l-.37-.08v3.05ZM47.07,40.06c-.14,0-.28-.03-.42-.08l-3.8-1.46-.06-.02c-.3-.11-.53-.33-.66-.62-.13-.29-.14-.61-.02-.91.17-.44.58-.73,1.04-.76h.02c.2,0,.34.03.47.08l3.86,1.47c.61.23.91.92.68,1.53-.17.46-.62.76-1.11.76ZM16.78,40.05c-.49,0-.93-.3-1.1-.75-.24-.61.07-1.3.67-1.53l3.84-1.5c.14-.05.28-.08.43-.08.52.02.93.32,1.1.75v.02c.12.29.11.6-.02.89-.13.29-.36.51-.65.63l-3.84,1.5c-.14.05-.28.08-.43.08h0ZM43.3,29.32c-.49,0-.92-.3-1.1-.75v-.02c-.23-.6.07-1.28.67-1.51l3.85-1.5c.14-.05.29-.08.44-.08.5.02.9.3,1.08.7v.06l.04.04c.2.59-.1,1.25-.69,1.48l-3.84,1.5c-.14.05-.28.08-.43.08ZM20.71,29.28c-.14,0-.29-.03-.42-.08l-3.85-1.47c-.61-.23-.92-.92-.69-1.52.17-.44.58-.74,1.04-.76h.02c.2,0,.34.03.47.08l3.86,1.47c.29.11.53.33.66.62.13.29.14.61.02.91v.02c-.19.45-.62.74-1.11.74h0ZM36.17,22.88c-.16,0-.31-.03-.46-.09-.6-.25-.88-.95-.63-1.55l1.59-3.8c.18-.43.6-.72,1.06-.73h0c.18,0,.33.03.46.08h.02c.29.13.52.36.64.65.12.29.12.61,0,.91l-1.57,3.75-.05.05v.06c-.2.41-.61.67-1.07.67h0ZM27.5,22.79c-.44,0-.84-.24-1.05-.63l-1.92-3.65c-.3-.58-.08-1.29.49-1.6.17-.09.36-.14.55-.14.47.02.85.26,1.05.63l1.92,3.65c.3.58.08,1.29-.49,1.6-.17.09-.36.14-.55.14Z"/>
</svg>