<?xml version="1.0" encoding="UTF-8"?>
<svg id="Layer_1" data-name="Layer 1" xmlns="http://www.w3.org/2000/svg" viewBox="0 0 64 64">
  <defs>
    <style>
      .cls-1 {
        fill: #4ea49b;
      }

      .cls-2 {
        fill: #00746b;
        opacity: .1;
      }
    </style>
  </defs>
  <rect class="cls-2" width="64" height="64"/>
  <g>
    <path class="cls-1" d="M43.44,15.99h-22.88c-1.89,0-3.43,1.54-3.43,3.43v25.16c0,1.89,1.54,3.43,3.43,3.43h22.88c1.89,0,3.43-1.54,3.43-3.43v-25.16c0-1.89-1.54-3.43-3.43-3.43ZM20.56,18.27h22.88c.63,0,1.14.51,1.14,1.14v1.14h-25.16v-1.14c0-.63.51-1.14,1.14-1.14ZM28.57,22.85h6.86v1.14c0,.63-.51,1.14-1.14,1.14h-4.58c-.63,0-1.14-.51-1.14-1.14v-1.14ZM43.44,45.73h-22.88c-.63,0-1.14-.51-1.14-1.14v-21.73h6.86v1.14c0,1.89,1.54,3.43,3.43,3.43h4.58c1.89,0,3.43-1.54,3.43-3.43v-1.14h6.86v21.73c0,.63-.51,1.14-1.14,1.14Z"/>
    <path class="cls-1" d="M36.53,35.28c.32.55,1.02.73,1.56.42.55-.32.73-1.01.42-1.56l-1.14-1.98c-.32-.55-1.02-.74-1.56-.42-.55.32-.74,1.02-.42,1.56,0,0,0,0,0,0h0s-2.25,1.3-2.25,1.3v-2.59c.63,0,1.14-.51,1.14-1.14s-.51-1.14-1.14-1.14h-2.29c-.63,0-1.14.51-1.14,1.14s.51,1.14,1.14,1.14v2.59l-2.25-1.3h0c.32-.55.13-1.25-.42-1.56-.55-.32-1.25-.13-1.56.42,0,0,0,0,0,0l-1.14,1.98c-.31.55-.13,1.25.42,1.56.55.31,1.24.13,1.56-.42l2.25,1.3-2.25,1.3c-.32-.55-1.02-.73-1.56-.42-.55.32-.73,1.01-.42,1.56l1.14,1.98c.32.55,1.02.73,1.56.42.55-.32.73-1.01.42-1.56h0s2.25-1.3,2.25-1.3v2.59c-.63,0-1.14.51-1.14,1.14s.51,1.14,1.14,1.14h2.29c.63,0,1.14-.51,1.14-1.14s-.51-1.14-1.14-1.14v-2.59l2.25,1.3h0c-.32.55-.13,1.25.42,1.56.55.32,1.25.13,1.56-.42l1.14-1.98c.32-.55.13-1.25-.42-1.56-.55-.31-1.24-.13-1.56.42l-2.25-1.3,2.25-1.3Z"/>
  </g>
</svg>