<?xml version="1.0" encoding="UTF-8"?>
<svg id="Layer_1" data-name="Layer 1" xmlns="http://www.w3.org/2000/svg" viewBox="0 0 64 64">
  <defs>
    <style>
      .cls-1 {
        fill: #31726b;
        opacity: .1;
      }

      .cls-2 {
        fill: #4ea49b;
      }
    </style>
  </defs>
  <rect class="cls-1" x="0" width="64" height="64"/>
  <g>
    <path class="cls-2" d="M42.5,34.03v-4.06c0-.51-.38-.94-.89-1.01l-1.74-.22,1.08-1.39c.31-.4.28-.98-.08-1.34l-2.87-2.87c-.36-.36-.94-.4-1.34-.08l-1.39,1.08-.22-1.74c-.06-.51-.5-.89-1.01-.89h-4.06c-.51,0-.94.38-1.01.89l-.22,1.74-1.39-1.08c-.4-.31-.98-.28-1.34.08l-2.87,2.87c-.36.36-.4.94-.08,1.34l1.08,1.39-1.74.22c-.51.06-.89.5-.89,1.01v4.06c0,.51.38.94.89,1.01l1.74.22-1.08,1.39c-.31.4-.28.98.08,1.34l2.87,2.87c.36.36.94.4,1.34.08l1.39-1.08.22,1.74c.06.51.5.89,1.01.89h4.06c.51,0,.94-.38,1.01-.89l.22-1.74,1.39,1.08c.4.31.98.28,1.34-.08l2.87-2.87c.36-.36.4-.94.08-1.34l-1.08-1.39,1.74-.22c.51-.06.89-.5.89-1.01ZM40.47,33.14l-1.52.19c-.39.05-.72.32-.84.69-.1.29-.22.58-.37.88-.18.35-.14.77.1,1.08l.94,1.21-1.61,1.61-1.21-.94c-.31-.24-.73-.28-1.08-.1-.29.15-.59.27-.88.37-.37.12-.64.45-.69.84l-.19,1.52h-2.27l-.19-1.52c-.05-.39-.32-.72-.69-.84-.29-.1-.58-.22-.88-.37-.35-.18-.77-.14-1.08.11l-1.21.94-1.61-1.61.94-1.21c.24-.31.28-.73.1-1.08-.15-.29-.27-.59-.37-.88-.12-.37-.45-.64-.84-.69l-1.52-.19v-2.27l1.52-.19c.39-.05.72-.32.84-.69.1-.29.22-.58.37-.88.18-.35.14-.77-.11-1.08l-.94-1.21,1.61-1.61,1.21.94c.31.24.73.28,1.08.11.29-.15.59-.27.88-.37.37-.12.64-.45.69-.84l.19-1.52h2.27l.19,1.52c.05.39.32.72.69.84.29.1.58.22.88.37.35.18.77.14,1.08-.1l1.21-.94,1.61,1.61-.94,1.21c-.24.31-.28.73-.1,1.08.15.29.27.59.37.88.12.37.45.64.84.69l1.52.19v2.27Z"/>
    <path class="cls-2" d="M32,27.6c-2.43,0-4.4,1.98-4.4,4.4s1.98,4.4,4.4,4.4,4.4-1.98,4.4-4.4-1.98-4.4-4.4-4.4ZM32,34.37c-1.31,0-2.37-1.06-2.37-2.37s1.06-2.37,2.37-2.37,2.37,1.06,2.37,2.37-1.06,2.37-2.37,2.37Z"/>
    <path class="cls-2" d="M46.94,23.19c-.29-.48-.91-.64-1.39-.36s-.64.91-.36,1.39c3.55,6.01,2.58,13.65-2.36,18.6-5.51,5.51-14.2,5.93-20.19,1.28l2.36-.53c.55-.12.89-.66.77-1.21s-.66-.89-1.21-.77l-4.31.96c-.46.1-.8.52-.8.99v4.31c0,.56.45,1.02,1.02,1.02s1.02-.45,1.02-1.02v-2.07c3.01,2.31,6.67,3.56,10.52,3.56,4.63,0,8.98-1.8,12.26-5.08,5.6-5.6,6.7-14.26,2.68-21.07Z"/>
    <path class="cls-2" d="M21.18,21.18c5.51-5.51,14.2-5.93,20.19-1.28l-2.36.53c-.55.12-.89.66-.77,1.21.11.47.52.8.99.8.07,0,.15,0,.22-.02l4.31-.96c.46-.1.8-.52.8-.99v-4.31c0-.56-.45-1.02-1.02-1.02s-1.02.45-1.02,1.02v2.07c-3.01-2.31-6.67-3.56-10.52-3.56-4.63,0-8.98,1.8-12.26,5.08-5.6,5.6-6.7,14.26-2.68,21.07.19.32.53.5.88.5.18,0,.35-.05.52-.14.48-.29.64-.91.36-1.39-3.55-6.01-2.58-13.65,2.36-18.6h0Z"/>
  </g>
</svg>