<?xml version="1.0" encoding="UTF-8"?>
<svg id="Layer_1" data-name="Layer 1" xmlns="http://www.w3.org/2000/svg" viewBox="0 0 64 64">
  <defs>
    <style>
      .cls-1 {
        fill: #4ea49b;
      }

      .cls-2 {
        fill: #00746b;
        opacity: .1;
      }
    </style>
  </defs>
  <g>
    <rect class="cls-2" width="64" height="64"/>
    <path class="cls-1" d="M18.16,22.87v7.27c0,7.71,4.84,14.76,12.04,17.53.58.22,1.19.33,1.8.33s1.22-.11,1.81-.33l1.08-.42c6.66-2.56,10.96-9,10.96-16.4v-7.98c0-.6-.47-1.09-1.07-1.11-4-.16-8.08-1.73-12.12-4.68-.39-.28-.92-.28-1.31,0-4.04,2.95-8.12,4.53-12.12,4.68-.6.02-1.07.51-1.07,1.11ZM20.38,23.91c3.88-.37,7.78-1.9,11.62-4.57,3.84,2.67,7.74,4.2,11.62,4.57v6.94c0,6.48-3.74,12.1-9.53,14.33l-1.08.42c-.65.25-1.37.25-2.01,0-6.35-2.44-10.61-8.65-10.61-15.45v-6.23Z"/>
  </g>
  <path class="cls-1" d="M29.72,37.03c.21.21.49.33.79.33s.58-.12.79-.33l6.92-6.92c.43-.43.43-1.14,0-1.57s-1.14-.43-1.57,0l-6.13,6.13-3.15-3.15c-.43-.43-1.14-.43-1.57,0s-.43,1.14,0,1.57l3.94,3.94Z"/>
</svg>