<?xml version="1.0" encoding="UTF-8"?>
<svg id="Layer_1" data-name="Layer 1" xmlns="http://www.w3.org/2000/svg" viewBox="0 0 64 64">
  <defs>
    <style>
      .cls-1 {
        fill: #4ea69c;
      }

      .cls-2 {
        fill: #00746b;
        opacity: .1;
      }
    </style>
  </defs>
  <rect class="cls-2" x="0" width="64" height="64"/>
  <g>
    <path class="cls-1" d="M37.87,43.15c-.55,0-1.03-.41-1.11-.98-.08-.61.36-1.17.97-1.25,3.53-.45,6.69-1.41,8.9-2.69,2.02-1.18,3.13-2.56,3.13-3.9,0-1.47-1.3-2.68-2.39-3.43-.51-.35-.64-1.04-.29-1.55.35-.51,1.05-.64,1.55-.29,2.2,1.51,3.36,3.34,3.36,5.27,0,2.2-1.47,4.21-4.24,5.83-2.5,1.46-5.87,2.49-9.74,2.98-.05,0-.1,0-.14,0Z"/>
    <path class="cls-1" d="M32.67,41.55l-2.98-2.98c-.44-.44-1.14-.44-1.58,0s-.44,1.14,0,1.58l.87.87c-3.34-.34-6.37-1.12-8.72-2.25-2.64-1.27-4.15-2.89-4.15-4.44,0-1.31,1.08-2.68,3.05-3.85.53-.31.71-1,.39-1.53-.31-.53-1-.71-1.53-.39-3.43,2.03-4.15,4.26-4.15,5.77,0,2.48,1.92,4.77,5.42,6.45,2.71,1.3,6.22,2.18,10.04,2.52l-1.23,1.23c-.44.44-.44,1.14,0,1.58.22.22.5.33.79.33s.57-.11.79-.33l2.98-2.98c.44-.44.44-1.14,0-1.58Z"/>
    <path class="cls-1" d="M25.57,32.1v-.27c0-.95-.58-1.13-1.36-1.13-.48,0-.64-.42-.64-.85s.16-.85.64-.85c.54,0,1.1-.07,1.1-1.22,0-.82-.47-1.02-1.05-1.02-.69,0-1.05.17-1.05.72,0,.48-.21.81-1.03.81-1.02,0-1.15-.21-1.15-.89,0-1.1.79-2.53,3.23-2.53,1.8,0,3.16.65,3.16,2.56,0,1.03-.38,1.99-1.09,2.32.83.31,1.44.93,1.44,2.08v.27c0,2.32-1.6,3.2-3.58,3.2-2.43,0-3.37-1.49-3.37-2.67,0-.64.27-.81,1.05-.81.91,0,1.13.2,1.13.74,0,.66.62.82,1.26.82.96,0,1.3-.35,1.3-1.27Z"/>
    <path class="cls-1" d="M36.37,31.83v.13c0,2.43-1.51,3.34-3.47,3.34s-3.48-.91-3.48-3.34v-3.75c0-2.43,1.57-3.34,3.61-3.34,2.39,0,3.34,1.49,3.34,2.66,0,.68-.33.89-1.03.89-.61,0-1.15-.16-1.15-.81,0-.54-.57-.82-1.23-.82-.83,0-1.33.44-1.33,1.41v1.27c.45-.5,1.09-.62,1.77-.62,1.61,0,2.97.71,2.97,2.97ZM31.63,32.11c0,.98.48,1.4,1.27,1.4s1.26-.42,1.26-1.4v-.13c0-1.03-.47-1.43-1.27-1.43-.76,0-1.26.37-1.26,1.3v.25Z"/>
    <path class="cls-1" d="M38.08,31.95v-3.75c0-2.43,1.51-3.34,3.47-3.34s3.48.91,3.48,3.34v3.75c0,2.43-1.53,3.34-3.48,3.34s-3.47-.91-3.47-3.34ZM42.82,28.21c0-.98-.48-1.41-1.27-1.41s-1.26.44-1.26,1.41v3.75c0,.98.47,1.41,1.26,1.41s1.27-.44,1.27-1.41v-3.75Z"/>
    <path class="cls-1" d="M47.71,24.86c-1.85,0-3.35-1.5-3.35-3.35s1.5-3.35,3.35-3.35,3.35,1.5,3.35,3.35-1.5,3.35-3.35,3.35ZM47.71,20.39c-.62,0-1.12.5-1.12,1.12s.5,1.12,1.12,1.12,1.12-.5,1.12-1.12-.5-1.12-1.12-1.12Z"/>
  </g>
</svg>