<?xml version="1.0" encoding="UTF-8"?>
<svg id="Layer_1" data-name="Layer 1" xmlns="http://www.w3.org/2000/svg" viewBox="0 0 64 64">
  <defs>
    <style>
      .cls-1 {
        fill: #4ea49b;
        fill-rule: evenodd;
      }

      .cls-2 {
        fill: #00746b;
        opacity: .1;
      }
    </style>
  </defs>
  <path class="cls-1" d="M41.8,47.67c-.49,0-.88-.4-.88-.88s.4-.88.88-.88h5.02v-4.27c0-.49.4-.88.88-.88s.88.4.88.88v5.15c0,.49-.4.88-.88.88h-5.9ZM16.3,47.67c-.49,0-.88-.4-.88-.88v-5.15c0-.49.4-.88.88-.88s.88.4.88.88v4.27h5.02c.49,0,.88.4.88.88s-.4.88-.88.88h-5.9ZM32,46.64c-.16,0-.31-.04-.44-.12l-11.92-6.88c-.27-.16-.44-.45-.44-.77v-13.76c0-.32.17-.61.44-.77l11.92-6.88c.13-.08.29-.12.44-.12s.31.04.44.12l11.91,6.88c.27.16.45.45.45.77v13.76c0,.31-.17.61-.44.76l-11.91,6.88c-.13.08-.29.12-.44.12ZM32.88,44.22l10.15-5.86v-11.71l-2.61,1.51v7.62c0,.31-.17.61-.44.77l-3.16,1.82c-.13.08-.29.12-.44.12-.23,0-.45-.09-.61-.25-.18-.17-.27-.39-.27-.64v-6.6l-2.61,1.51v11.71ZM31.11,44.22v-11.71l-10.14-5.86v11.71l10.14,5.86ZM36.82,28.71c.27.16.45.45.45.77v6.6l1.38-.8v-7.11l-11.03-6.37-1.39.8,10.59,6.11ZM32,30.98l2.61-1.51-10.15-5.86-2.61,1.51,10.14,5.86ZM39.53,26.63l2.61-1.51-10.15-5.86-2.61,1.51,10.14,5.86ZM47.7,23.25c-.49,0-.88-.4-.88-.88v-4.27h-5.02c-.49,0-.88-.4-.88-.88s.4-.88.88-.88h5.9c.49,0,.88.4.88.88v5.15c0,.49-.4.88-.88.88ZM16.3,23.25c-.49,0-.88-.4-.88-.88v-5.15c0-.49.4-.88.88-.88h5.9c.49,0,.88.4.88.88s-.4.88-.88.88h-5.02v4.27c0,.49-.4.88-.88.88Z"/>
  <g>
    <rect class="cls-2" width="64" height="64"/>
    <path class="cls-1" d="M22.84,46.78c0,.35-.29.63-.63.63h-5.9c-.35,0-.63-.28-.63-.63v-5.15c0-.35.28-.63.63-.63s.63.28.63.63v4.52h5.27c.35,0,.63.28.63.63ZM15.67,22.37v-5.15c0-.35.28-.63.63-.63h5.9c.35,0,.63.28.63.63s-.29.63-.63.63h-5.27v4.52c0,.35-.29.63-.63.63s-.63-.28-.63-.63h0ZM48.33,17.21v5.15c0,.35-.28.63-.63.63s-.63-.28-.63-.63v-4.52h-5.27c-.35,0-.63-.28-.63-.63s.28-.63.63-.63h5.9c.35,0,.63.28.63.63ZM48.33,41.63v5.15c0,.35-.28.63-.63.63h-5.9c-.35,0-.63-.28-.63-.63s.28-.63.63-.63h5.27v-4.52c0-.35.28-.63.63-.63.35,0,.63.28.63.63ZM32.63,44.66l10.65-6.15v-12.29l-3.11,1.8v7.77c0,.23-.12.44-.31.55l-3.16,1.82c-.42.24-.95-.05-.95-.55v-7.03l-3.11,1.8v12.29h0ZM20.72,26.22v12.29l10.64,6.15v-12.29l-10.64-6.14ZM32,31.27l-10.64-6.15,3.11-1.8,10.65,6.15-3.11,1.8ZM36.69,28.92l-10.96-6.33,1.89-1.09,11.28,6.51v7.4l-1.88,1.09v-7.03c0-.23-.12-.44-.32-.55h0ZM42.64,25.12l-10.65-6.15-3.11,1.8,10.64,6.15,3.11-1.8ZM44.55,38.88v-13.76c0-.23-.12-.44-.32-.55l-11.91-6.88c-.2-.11-.44-.11-.63,0l-11.92,6.88c-.2.11-.31.32-.31.55v13.76c0,.23.12.44.31.55l11.92,6.88c.2.11.44.11.63,0l11.91-6.88c.2-.11.32-.32.32-.55Z"/>
  </g>
</svg>