<?xml version="1.0" encoding="UTF-8"?>
<svg id="Layer_2" data-name="Layer 2" xmlns="http://www.w3.org/2000/svg" viewBox="0 0 64 64">
  <defs>
    <style>
      .cls-1 {
        fill: #4ea69c;
      }

      .cls-2 {
        fill: #00746b;
        opacity: .1;
      }
    </style>
  </defs>
  <g id="Layer_1-2" data-name="Layer 1">
    <g>
      <rect class="cls-2" width="64" height="64"/>
      <path class="cls-1" d="M32.14,47.08c-1.37,0-2.75-.18-4.02-.53-.26-.05-.42-.1-.55-.15-.64-.2-1.34-.48-2.15-.87-3.21-1.66-5.71-4.34-7.05-7.56-.77-1.83-1.16-3.77-1.16-5.77,0-.59,0-1.27.14-1.95.35-2.85,1.57-5.56,3.53-7.84,2.87-3.26,6.97-5.13,11.25-5.13.48,0,.89.02,1.33.06.13,0,.23.03.29.04,6.43.69,11.79,5.56,13.02,11.83.02.07.02.12.02.16,0,.46-.37.83-.83.83-.42,0-.77-.3-.82-.71-1.11-5.53-5.8-9.83-11.42-10.44-.14-.01-.23-.03-.3-.05-.44-.05-.85-.07-1.28-.07-3.81,0-7.46,1.66-10,4.55-1.74,2.01-2.83,4.44-3.15,7.02-.11.59-.11,1.12-.11,1.68,0,1.79.35,3.52,1.03,5.14,1.19,2.86,3.41,5.25,6.26,6.71.78.36,1.41.62,1.98.79.14.06.25.08.29.09l.1.03c1.13.31,2.37.48,3.59.48,2.33,0,4.62-.61,6.63-1.76l.29-.15c.13-.08.28-.12.43-.12.29,0,.55.15.71.4.11.19.15.4.1.62-.05.22-.18.4-.37.52-2.32,1.42-5.01,2.17-7.77,2.17Z"/>
      <path class="cls-1" d="M32.14,47.07c-1.36,0-2.75-.18-4.01-.53-.26-.05-.41-.1-.55-.15-.64-.2-1.35-.49-2.15-.87-3.2-1.65-5.71-4.34-7.04-7.56-.77-1.83-1.16-3.77-1.16-5.77,0-.59,0-1.26.14-1.94.35-2.86,1.57-5.56,3.53-7.84,2.87-3.26,6.96-5.12,11.24-5.12.48,0,.89.02,1.33.06h0c.13,0,.23.03.29.04,6.46.69,11.78,5.55,13.01,11.82.02.07.02.12.02.15,0,.45-.37.82-.82.82-.41,0-.76-.3-.81-.7-1.11-5.55-5.81-9.84-11.43-10.45-.14-.01-.23-.03-.3-.05-.48-.05-.88-.07-1.29-.07-3.82,0-7.46,1.66-10.01,4.55-1.74,2.01-2.83,4.44-3.16,7.03-.11.59-.11,1.12-.11,1.68,0,1.79.35,3.52,1.03,5.14,1.19,2.86,3.41,5.25,6.27,6.72.79.37,1.41.62,1.98.79.15.06.26.08.3.09l.1.03c1.13.31,2.37.48,3.6.48,2.34,0,4.62-.61,6.63-1.76h0s.29-.15.29-.15c.13-.08.27-.12.42-.12.28,0,.54.15.7.39.11.18.15.4.1.61-.05.21-.18.39-.37.51-2.32,1.42-5,2.17-7.76,2.17Z"/>
      <path class="cls-1" d="M46.19,48.17c-.26,0-.51-.13-.67-.35l-5.96-8.34c-.17-.26-.2-.59-.06-.86.14-.27.43-.45.74-.45h2.76v-5.13c0-.46.36-.83.82-.83h4.75c.46,0,.83.37.83.83v5.14h2.75c.27,0,.52.12.67.33l.05.1c.14.27.11.62-.06.86l-5.96,8.35c-.15.21-.41.35-.67.35ZM46.21,45.93l4.36-6.12-1.99.02c-.46,0-.83-.37-.83-.83v-5.14h-3.11s0,5.14,0,5.14c0,.46-.37.83-.83.83h-1.98l4.36,6.11Z"/>
      <path class="cls-1" d="M46.19,48.16c-.26,0-.5-.13-.66-.35l-5.96-8.34c-.17-.25-.19-.58-.06-.85.14-.27.42-.44.73-.44h2.76v-5.14c0-.45.37-.82.82-.82h4.75c.45,0,.82.37.82.82v5.14h2.76c.27,0,.51.13.67.34l.05.1c.14.27.11.61-.06.85l-5.96,8.35c-.15.21-.4.34-.66.34ZM46.2,45.93l4.37-6.12h-2c-.45,0-.82-.37-.82-.82v-5.14h-3.12v5.14c0,.45-.37.82-.82.82h-2l4.37,6.12Z"/>
      <path class="cls-1" d="M32,38.63c-2.99,0-5.43-2.44-5.43-5.43,0-2.73,4-6.51,4.81-7.25.17-.15.39-.24.62-.24s.45.08.62.24c.49.44,4.8,4.42,4.8,7.25,0,2.99-2.44,5.42-5.42,5.43h0ZM32.05,27.88c-2.13,2.09-3.62,4.28-3.62,5.33.03,1.94,1.63,3.52,3.57,3.52s3.55-1.58,3.57-3.53c0-1.2-1.82-3.6-3.52-5.33Z"/>
      <path class="cls-1" d="M32,38.63c-2.99,0-5.42-2.43-5.42-5.42,0-2.73,4-6.51,4.8-7.24.17-.15.39-.24.62-.24s.45.08.62.24c.49.44,4.8,4.41,4.8,7.24,0,2.98-2.43,5.41-5.42,5.42h0ZM32.05,27.87c-2.14,2.09-3.63,4.28-3.63,5.34.03,1.94,1.63,3.53,3.58,3.53s3.56-1.59,3.58-3.54c0-1.16-1.76-3.54-3.53-5.34Z"/>
    </g>
  </g>
</svg>