<?xml version="1.0" encoding="UTF-8"?>
<svg id="Layer_2" data-name="Layer 2" xmlns="http://www.w3.org/2000/svg" viewBox="0 0 64 64">
  <defs>
    <style>
      .cls-1 {
        fill: #4ea69c;
      }

      .cls-2 {
        fill: #00746b;
        opacity: .1;
      }
    </style>
  </defs>
  <g id="Layer_1-2" data-name="Layer 1">
    <g>
      <rect class="cls-2" width="64" height="64"/>
      <g>
        <path class="cls-1" d="M47.21,41.66l-12.65-22.23c-1.13-1.98-3.99-1.98-5.12,0l-12.66,22.23c-1.12,1.96.3,4.4,2.56,4.4h25.31c2.26,0,3.68-2.44,2.55-4.4ZM45.12,43.36c-.07.12-.21.26-.46.26h-25.31c-.25,0-.39-.14-.46-.26-.07-.12-.12-.31,0-.53l12.66-22.22c.13-.23.32-.27.46-.27s.33.04.46.27l12.66,22.22c.12.22.06.41,0,.53Z"/>
        <path class="cls-1" d="M19.34,45.81c-.97,0-1.84-.5-2.33-1.34-.49-.84-.49-1.84-.01-2.68l12.66-22.23c.49-.85,1.36-1.36,2.35-1.36s1.86.51,2.35,1.36l12.65,22.23c.48.84.48,1.84,0,2.68-.49.84-1.36,1.35-2.33,1.35h-25.31ZM32,20.09c-.29,0-.53.14-.68.39l-12.66,22.22c-.14.25-.14.53,0,.78.14.25.39.39.68.39h25.31c.29,0,.54-.14.68-.39.17-.34.09-.61,0-.77l-12.66-22.22c-.15-.25-.39-.39-.68-.39Z"/>
        <path class="cls-1" d="M32,36.24c-.69,0-1.25-.57-1.25-1.27v-5.97c0-.7.56-1.27,1.25-1.27s1.25.57,1.25,1.27v5.97c0,.7-.56,1.27-1.25,1.27h0Z"/>
        <path class="cls-1" d="M32,35.99c-.55,0-1-.46-1-1.02v-5.96c0-.56.45-1.02,1-1.02s1,.46,1,1.02v5.96c0,.56-.45,1.02-1,1.02Z"/>
        <path class="cls-1" d="M32,27.73c-.21,0-.4.05-.58.14.4.21.68.64.68,1.13v5.97c0,.49-.28.92-.68,1.13.17.09.37.14.58.14.69,0,1.25-.57,1.25-1.27v-5.97c0-.7-.56-1.27-1.25-1.27h0Z"/>
        <path class="cls-1" d="M31.96,35.99c.25-.28.39-.64.39-1.02v-5.97c0-.38-.14-.75-.39-1.02.01,0,.03,0,.04,0,.55,0,1,.46,1,1.02v5.97c0,.56-.45,1.02-1,1.02-.01,0-.03,0-.04,0Z"/>
        <path class="cls-1" d="M32,40.58c-.69,0-1.25-.57-1.25-1.27s.56-1.27,1.25-1.27,1.25.57,1.25,1.27-.56,1.27-1.25,1.27h0Z"/>
        <path class="cls-1" d="M32,40.33c-.55,0-1-.46-1-1.02s.45-1.02,1-1.02,1,.46,1,1.02-.45,1.02-1,1.02Z"/>
        <path class="cls-1" d="M32,38.04c-.21,0-.4.05-.58.14.4.21.68.64.68,1.13s-.28.92-.68,1.13c.17.09.37.14.58.14.69,0,1.25-.57,1.25-1.27s-.56-1.27-1.25-1.27h0Z"/>
        <path class="cls-1" d="M31.96,40.33c.25-.28.39-.64.39-1.02s-.14-.75-.39-1.02c.01,0,.03,0,.04,0,.55,0,1,.46,1,1.02s-.45,1.02-1,1.02c-.01,0-.03,0-.04,0Z"/>
        <path class="cls-1" d="M44.43,30.15c-.06,0-.12,0-.19-.02-.49-.11-.8-.59-.7-1.08.29-1.35-.57-2.7-1.91-3-.49-.11-.79-.6-.68-1.08.09-.41.46-.7.88-.7.07,0,.13,0,.2.02,2.31.52,3.78,2.83,3.28,5.15-.09.41-.46.71-.88.71Z"/>
        <path class="cls-1" d="M44.43,29.9s-.09,0-.14-.01c-.35-.08-.58-.43-.5-.78.32-1.48-.62-2.96-2.1-3.3-.17-.04-.31-.14-.41-.29-.09-.15-.12-.32-.08-.49.07-.3.33-.51.64-.51.05,0,.1,0,.15.02,2.18.49,3.56,2.67,3.09,4.85-.06.3-.33.52-.64.52Z"/>
        <path class="cls-1" d="M44.43,29.72s-.07,0-.1-.01c-.25-.06-.42-.31-.36-.56.34-1.58-.66-3.16-2.24-3.52-.25-.06-.41-.31-.35-.56s.31-.41.56-.36c2.08.47,3.4,2.55,2.95,4.63-.05.22-.24.37-.46.37h0Z"/>
        <path class="cls-1" d="M44.39,29.47c-.06-.01-.11-.05-.14-.1-.03-.05-.04-.11-.03-.17.37-1.71-.72-3.42-2.43-3.81-.06-.01-.11-.05-.14-.1-.03-.05-.04-.11-.03-.17.02-.1.11-.17.22-.17,2,.45,3.24,2.39,2.81,4.34-.02.1-.11.17-.22.17-.01,0-.03,0-.04,0Z"/>
        <path class="cls-1" d="M47.08,30.68c-.06,0-.12,0-.19-.02-.49-.11-.8-.59-.7-1.08.6-2.77-1.16-5.53-3.92-6.16-.24-.05-.44-.2-.56-.4-.13-.2-.17-.45-.12-.68.09-.41.46-.7.88-.7.07,0,.13,0,.2.02,3.73.85,6.1,4.57,5.29,8.3-.09.41-.46.71-.88.71Z"/>
        <path class="cls-1" d="M47.08,30.43s-.09,0-.14-.01c-.17-.04-.32-.14-.41-.29-.1-.15-.13-.32-.09-.49.63-2.9-1.22-5.79-4.11-6.45-.17-.04-.31-.14-.41-.29-.09-.15-.12-.32-.08-.49.07-.3.33-.51.64-.51.05,0,.1,0,.14.02,3.59.82,5.88,4.41,5.1,8-.06.3-.33.52-.64.52Z"/>
        <path class="cls-1" d="M47.08,30.25s-.07,0-.1-.01c-.25-.06-.42-.31-.36-.56.65-3-1.26-5.99-4.25-6.67-.25-.06-.41-.31-.35-.56.06-.25.31-.41.56-.36,3.5.79,5.72,4.29,4.96,7.79-.05.22-.24.37-.46.37h0Z"/>
        <path class="cls-1" d="M47.03,29.99c-.12-.03-.19-.14-.17-.26.68-3.13-1.31-6.26-4.44-6.97-.06-.01-.11-.05-.14-.1-.03-.05-.04-.11-.03-.17.02-.1.11-.17.22-.17,3.41.77,5.55,4.13,4.82,7.5-.02.1-.11.17-.22.17-.01,0-.03,0-.05,0Z"/>
        <path class="cls-1" d="M19.57,30.15c-.42,0-.79-.3-.88-.71-.5-2.31.97-4.62,3.28-5.15.07-.02.13-.02.2-.02.42,0,.79.29.88.7.05.23.01.48-.12.68-.13.2-.33.35-.57.4-1.35.31-2.21,1.65-1.91,3,.11.49-.21.97-.69,1.08-.07.01-.13.02-.19.02Z"/>
        <path class="cls-1" d="M19.57,29.9c-.31,0-.57-.22-.64-.52-.47-2.18.91-4.36,3.09-4.85.05-.01.1-.02.15-.02.31,0,.57.21.64.51.04.17,0,.34-.08.49-.09.15-.24.25-.41.29-1.48.34-2.43,1.82-2.1,3.3.04.17,0,.35-.09.49-.09.15-.24.25-.41.28-.05.01-.1.02-.14.02Z"/>
        <path class="cls-1" d="M19.57,29.72c-.22,0-.41-.15-.46-.37-.45-2.08.87-4.16,2.95-4.63.25-.06.51.1.56.36.06.25-.1.51-.35.56-1.58.36-2.58,1.94-2.24,3.52.06.25-.11.5-.36.56-.03,0-.07.01-.1.01h0Z"/>
        <path class="cls-1" d="M19.57,29.47c-.1,0-.19-.07-.22-.17-.42-1.95.82-3.89,2.76-4.34,0,0,.01,0,.02,0,.14,0,.23.07.25.17.01.06,0,.12-.03.17-.03.05-.08.08-.14.1-1.71.39-2.8,2.1-2.43,3.81.01.06,0,.12-.03.17-.03.05-.08.08-.14.1h-.05Z"/>
        <path class="cls-1" d="M16.92,30.68c-.42,0-.79-.3-.88-.71-.81-3.73,1.56-7.45,5.29-8.3.07-.02.13-.02.2-.02.42,0,.79.29.88.7.05.24.01.48-.12.68-.13.2-.33.35-.57.4-2.76.63-4.52,3.39-3.92,6.15.11.49-.21.97-.69,1.08-.07.01-.13.02-.19.02Z"/>
        <path class="cls-1" d="M16.92,30.43c-.31,0-.57-.22-.64-.52-.78-3.6,1.51-7.19,5.1-8,.05-.01.1-.02.15-.02.31,0,.57.21.64.51.04.17,0,.35-.08.49-.09.15-.24.25-.41.29-2.9.66-4.74,3.55-4.11,6.45.08.35-.15.7-.5.78-.05,0-.09.01-.14.01Z"/>
        <path class="cls-1" d="M16.92,30.25c-.22,0-.41-.15-.46-.37-.76-3.5,1.47-6.99,4.96-7.79.25-.06.51.1.56.36s-.1.51-.35.56c-2.99.68-4.9,3.67-4.25,6.67.06.25-.11.5-.36.56-.03,0-.07.01-.1.01Z"/>
        <path class="cls-1" d="M16.92,30c-.1,0-.19-.07-.21-.17-.73-3.37,1.41-6.73,4.77-7.49,0,0,.01,0,.02,0,.14,0,.23.07.25.17.03.12-.05.24-.17.26-3.13.71-5.12,3.83-4.44,6.97.03.12-.05.24-.17.26h-.05Z"/>
      </g>
    </g>
  </g>
</svg>