<svg width="14" height="8" viewBox="0 0 14 8" fill="none" xmlns="http://www.w3.org/2000/svg">
<path d="M1.14114 1.13452C1.09643 1.1761 1.06092 1.22573 1.03667 1.28051C1.01243 1.33528 0.999939 1.3941 0.999939 1.45351C0.999939 1.51293 1.01243 1.57174 1.03667 1.62652C1.06092 1.68129 1.09643 1.73092 1.14114 1.7725L12.8577 1.13354C12.7654 1.04793 12.6414 1 12.5123 1C12.3833 1 12.2593 1.04793 12.167 1.13354V1.13452M1.14114 1.13452C1.23347 1.04891 1.35741 1.00098 1.48647 1.00098C1.61554 1.00098 1.73948 1.04891 1.83181 1.13452M1.14114 1.13452L1.14114 1.13452L1.14114 1.13452ZM1.83181 1.13452L6.99941 5.91646M1.83181 1.13452L1.89973 1.06112L1.89976 1.06115C1.78844 0.957952 1.64003 0.900981 1.48647 0.900981C1.33289 0.900981 1.18447 0.957967 1.07315 1.06119L1.07303 1.0613C1.01861 1.11192 0.975066 1.17263 0.945231 1.24003C0.91539 1.30744 0.899939 1.38004 0.899939 1.45351C0.899939 1.52698 0.91539 1.59958 0.945231 1.66699C0.975065 1.73439 1.01861 1.7951 1.07303 1.84573L1.07321 1.84589L6.57064 6.93406L6.57065 6.93407C6.68618 7.04097 6.84011 7.1 6.99941 7.1C7.15871 7.1 7.31264 7.04097 7.42817 6.93407L7.42817 6.93407L12.9256 1.84692C12.9804 1.79627 13.0242 1.73541 13.0543 1.66779L12.9629 1.62716L13.0543 1.66779C13.0844 1.60015 13.0999 1.52728 13.0999 1.45351C13.0999 1.37975 13.0844 1.30687 13.0543 1.23923L12.9633 1.27969L13.0543 1.23923C13.0242 1.17161 12.9804 1.11076 12.9256 1.0601C12.8142 0.956945 12.6659 0.9 12.5123 0.9C12.3588 0.9 12.2103 0.956985 12.099 1.06021L12.067 1.08989V1.09081M1.83181 1.13452L1.8998 1.06119L6.99941 5.78021M6.99941 5.91646L12.167 1.13452M6.99941 5.91646L6.93149 5.84306L6.99941 5.78021M6.99941 5.91646L7.06733 5.84306L6.99941 5.78021M12.167 1.13452H12.067V1.13354V1.09081M12.167 1.13452L12.1661 1.13354L12.0991 1.06112L12.067 1.09081M6.99941 5.78021L12.067 1.09081" fill="white" stroke="white" stroke-width="0.2"/>
</svg>
