<svg width="36" height="36" viewBox="0 0 36 36" fill="none" xmlns="http://www.w3.org/2000/svg">
<g clip-path="url(#clip0_3550_663)">
<path d="M30.7188 5.26711C29.0488 3.59346 27.0646 2.26624 24.8801 1.36168C22.6957 0.457117 20.3541 -0.00695779 17.9898 -0.00389115C8.04778 -0.00389115 -0.0117188 8.05561 -0.0117188 17.9976C-0.0117188 22.9686 2.00428 27.4701 5.26228 30.7281C6.93228 32.4018 8.91648 33.729 11.1009 34.6335C13.2853 35.5381 15.627 36.0022 17.9913 35.9991C27.9333 35.9991 35.9928 27.9396 35.9928 17.9976C35.9928 13.0266 33.9768 8.52511 30.7188 5.26711ZM28.4058 28.4076C27.0396 29.7773 25.4163 30.8635 23.629 31.6038C21.8417 32.3442 19.9258 32.724 17.9913 32.7216C9.85678 32.7216 3.26278 26.1276 3.26278 17.9931C3.26036 16.0586 3.64023 14.1426 4.38056 12.3554C5.1209 10.5681 6.20711 8.94477 7.57678 7.57861C8.94262 6.20892 10.5657 5.12268 12.3527 4.38233C14.1397 3.64199 16.0555 3.26214 17.9898 3.26461C26.1228 3.26461 32.7168 9.85861 32.7168 17.9916C32.7193 19.9259 32.3395 21.8417 31.5992 23.6287C30.8588 25.4158 29.7725 27.0388 28.4028 28.4046L28.4058 28.4076Z" fill="#B3B9CA" fill-opacity="0.5"/>
<path d="M20.3044 17.9988L26.0869 12.2163C26.3721 11.9054 26.5262 11.4963 26.5171 11.0745C26.5079 10.6526 26.3362 10.2506 26.0378 9.95238C25.7393 9.65413 25.3372 9.48267 24.9154 9.4738C24.4935 9.46493 24.0846 9.61933 23.7739 9.90477L23.7754 9.90327L17.9929 15.6858L12.2104 9.90327C11.8995 9.61803 11.4904 9.4639 11.0686 9.47304C10.6467 9.48219 10.2447 9.65391 9.94648 9.95235C9.64822 10.2508 9.47677 10.6529 9.46789 11.0747C9.45902 11.4966 9.61342 11.9055 9.89886 12.2163L9.89736 12.2148L15.6799 17.9973L9.89736 23.7798C9.73467 23.929 9.60386 24.1097 9.51281 24.3108C9.42176 24.512 9.37236 24.7294 9.36757 24.9502C9.36279 25.1709 9.40272 25.3903 9.48496 25.5952C9.5672 25.8001 9.69006 25.9863 9.84613 26.1425C10.0022 26.2986 10.1883 26.4216 10.3931 26.504C10.598 26.5864 10.8174 26.6264 11.0381 26.6218C11.2588 26.6172 11.4764 26.5679 11.6776 26.477C11.8788 26.3861 12.0595 26.2554 12.2089 26.0928L12.2104 26.0913L17.9929 20.3088L23.7754 26.0913C23.9246 26.254 24.1053 26.3848 24.3064 26.4758C24.5075 26.5669 24.725 26.6163 24.9458 26.6211C25.1665 26.6258 25.3859 26.5859 25.5908 26.5037C25.7957 26.4214 25.9819 26.2986 26.1381 26.1425C26.2942 25.9864 26.4172 25.8004 26.4996 25.5955C26.582 25.3907 26.622 25.1713 26.6174 24.9505C26.6127 24.7298 26.5635 24.5123 26.4726 24.3111C26.3816 24.1099 26.251 23.9291 26.0884 23.7798L26.0869 23.7783L20.3044 17.9988Z" fill="#B3B9CA" fill-opacity="0.5"/>
</g>
<defs>
<clipPath id="clip0_3550_663">
<rect width="36" height="36" fill="white"/>
</clipPath>
</defs>
</svg>
