<svg width="47" height="48" viewBox="0 0 47 48" fill="none" xmlns="http://www.w3.org/2000/svg">
<path fill-rule="evenodd" clip-rule="evenodd" d="M44.4531 0.711478C45.7534 0.711478 46.8077 1.76567 46.8077 3.06611V23.9961C46.8077 25.2966 45.7534 26.3508 44.4531 26.3508C43.1528 26.3508 42.0985 25.2966 42.0985 23.9961V8.75066L8.27747 42.5717H23.523C24.8234 42.5717 25.8776 43.626 25.8776 44.9263C25.8776 46.2266 24.8234 47.2809 23.523 47.2809H2.59291C1.96841 47.2809 1.3695 47.0329 0.927928 46.5913C0.486356 46.1497 0.238281 45.5505 0.238281 44.9263V23.9961C0.238281 22.6957 1.29248 21.6415 2.59291 21.6415C3.89335 21.6415 4.94755 22.6957 4.94755 23.9961V39.2417L38.7685 5.42074L23.523 5.42069C22.2225 5.42069 21.1683 4.3665 21.1683 3.06606C21.1683 1.76562 22.2225 0.711426 23.523 0.711426L44.4531 0.711478Z" fill="#2DB5A4"/>
</svg>
