<svg width="50" height="50" viewBox="0 0 50 50" fill="none" xmlns="http://www.w3.org/2000/svg">
<path d="M7.32361 42.6751C4.93586 40.3689 3.0313 37.6103 1.72108 34.5602C0.410851 31.5101 -0.278804 28.2296 -0.30765 24.9101C-0.336495 21.5906 0.296047 18.2986 1.55307 15.2262C2.81009 12.1538 4.66642 9.36252 7.01374 7.0152C9.36105 4.66788 12.1524 2.81156 15.2248 1.55453C18.2972 0.297512 21.5892 -0.33503 24.9086 -0.306185C28.2281 -0.27734 31.5086 0.412316 34.5587 1.72254C37.6088 3.03277 40.3674 4.93732 42.6736 7.32508C47.2276 12.0401 49.7474 18.3552 49.6905 24.9101C49.6335 31.465 47.0043 37.7353 42.3691 42.3705C37.7339 47.0057 31.4636 49.635 24.9086 49.6919C18.3537 49.7489 12.0387 47.229 7.32361 42.6751ZM39.1486 39.1501C42.9014 35.3973 45.0097 30.3074 45.0097 25.0001C45.0097 19.6928 42.9014 14.6029 39.1486 10.8501C35.3958 7.09726 30.3059 4.98895 24.9986 4.98895C19.6913 4.98895 14.6014 7.09726 10.8486 10.8501C7.0958 14.6029 4.98749 19.6928 4.98749 25.0001C4.98749 30.3074 7.0958 35.3973 10.8486 39.1501C14.6014 42.9029 19.6913 45.0112 24.9986 45.0112C30.3059 45.0112 35.3958 42.9029 39.1486 39.1501ZM17.4986 15.0001L37.4986 25.0001L17.4986 35.0001V15.0001Z" fill="white" fill-opacity="0.8"/>
</svg>
