<?xml version="1.0" encoding="utf-8"?>
<!-- Generator: Adobe Illustrator 25.2.0, SVG Export Plug-In . SVG Version: 6.00 Build 0)  -->
<svg version="1.1" id="Layer_1" xmlns="http://www.w3.org/2000/svg" xmlns:xlink="http://www.w3.org/1999/xlink" x="0px" y="0px"
	 viewBox="0 0 163 45.7" style="enable-background:new 0 0 163 45.7;" xml:space="preserve">
<style type="text/css">
	.st0{fill:#5ABFB5;}
	.st1{fill:#FFFFFF;}
	.st2{opacity:0.3;}
</style>
<g>
	<g>
		<g>
			<g>
				<path class="st0" d="M44.1,42.1c1-1.5,1.6-3.2,1.6-5V8.6c0-4.7-3.9-8.6-8.6-8.6H8.6C3.8,0,0,3.8,0,8.6v28.5
					c0,1.7,0.5,3.3,1.4,4.7l21.5-9.9L44.1,42.1z"/>
				<path d="M44.1,42.1L22.9,31.9L1.4,41.8c1.6,2.4,4.3,3.9,7.2,3.9h28.6C39.9,45.7,42.5,44.4,44.1,42.1z"/>
				<g>
					<path d="M23,1.9v4.2c5.9,0,10.7,4.8,10.7,10.7l0,0h4.2C37.9,8.6,31.2,1.9,23,1.9C23,1.9,23,1.9,23,1.9z"/>
					<path d="M26.2,17c0,1.9-1.5,3.4-3.4,3.4c-1.9,0-3.4-1.5-3.4-3.4s1.5-3.4,3.4-3.4C24.7,13.6,26.2,15.1,26.2,17
						C26.3,17,26.3,17,26.2,17z"/>
					<path d="M23.1,7.3v4.2c2.9,0.1,5.3,2.5,5.4,5.4h4C32.4,11.6,28.3,7.4,23.1,7.3z"/>
					<path class="st1" d="M22.9,22.8c-3.1-0.1-5.6-2.6-5.5-5.8c0.1-3,2.4-5.4,5.3-5.5V7.3c-5.3,0.2-9.5,4.4-9.5,9.7
						c-0.2,7,9.6,14.7,9.6,14.7s9.8-7.6,9.8-14.5h-4C28.5,20.3,26,22.8,22.9,22.8z"/>
				</g>
				<polygon class="st1" points="23.2,36.9 22.6,36.9 22.7,33.8 23,33.8 				"/>
				<polygon class="st1" points="23.5,45.7 22.3,45.7 22.6,40 23.2,40 				"/>
			</g>
			<g class="st2">
				<path class="st1" d="M37.1,0H8.6C3.8,0,0,3.8,0,8.6v17.9c7.6,0.5,15.2,0.8,22.9,0.8c7.7,0,15.3-0.3,22.9-0.8V8.6
					C45.7,3.8,41.9,0,37.1,0z"/>
			</g>
		</g>
		<g>
			<path class="st1" d="M62.4,24.2v7.9h-3.2V12.4h5.6c2.5,0,4.4,0.5,5.7,1.4c1.3,1.1,1.9,2.7,1.8,4.3c0,2.4-1.3,4.2-3.8,5.2l5.6,8.7
				h-3.7l-4.7-7.9H62.4z M62.4,21.5h2.2c1.1,0.1,2.3-0.2,3.2-0.8c0.7-0.6,1.1-1.5,1-2.5c0.1-0.9-0.3-1.8-1.1-2.4
				c-1-0.6-2.1-0.8-3.3-0.7h-2.1V21.5z"/>
			<path class="st1" d="M87.7,24.6c0.1,2.1-0.5,4.1-1.9,5.7c-1.4,1.4-3.3,2.1-5.2,2c-1.3,0-2.6-0.3-3.7-0.9
				c-1.1-0.6-1.9-1.6-2.5-2.7c-0.6-1.3-0.9-2.7-0.9-4.1c-0.1-2.1,0.5-4.1,1.8-5.7c1.4-1.4,3.3-2.1,5.2-2c1.9-0.1,3.8,0.7,5.1,2.1
				C87.1,20.6,87.8,22.6,87.7,24.6z M76.8,24.6c0,3.4,1.3,5.2,3.8,5.2c2.5,0,3.8-1.7,3.8-5.2c0-3.4-1.3-5.1-3.8-5.1
				c-1.1-0.1-2.2,0.4-2.9,1.3C77,21.9,76.7,23.3,76.8,24.6z"/>
			<path class="st1" d="M98.5,32.1L97.9,30h-0.1c-0.6,0.8-1.3,1.4-2.2,1.9c-0.9,0.4-1.8,0.5-2.8,0.5c-1.3,0.1-2.5-0.3-3.4-1.2
				c-0.9-0.9-1.3-2.1-1.2-3.4c-0.1-1.4,0.6-2.7,1.7-3.5c1.6-0.9,3.4-1.4,5.2-1.3h2.6v-0.8c0.1-0.8-0.2-1.6-0.7-2.2
				c-0.6-0.5-1.3-0.8-2.1-0.7c-0.7,0-1.5,0.1-2.2,0.3c-0.7,0.2-1.4,0.5-2,0.8l-1-2.3c0.8-0.4,1.7-0.8,2.7-1c0.9-0.2,1.8-0.3,2.7-0.3
				c1.5-0.1,3.1,0.3,4.3,1.2c1,1,1.5,2.5,1.4,3.9v10L98.5,32.1z M93.8,29.9c1,0,2-0.3,2.8-1c0.7-0.7,1.1-1.7,1-2.7V25h-1.9
				c-1.1,0-2.2,0.2-3.2,0.8c-0.7,0.4-1,1.2-1,2c-0.1,0.6,0.1,1.2,0.5,1.6C92.5,29.8,93.2,30,93.8,29.9z"/>
			<path class="st1" d="M108.2,32.3c-1.7,0.1-3.3-0.7-4.3-2c-1.1-1.7-1.7-3.7-1.6-5.7c-0.1-2,0.4-4,1.6-5.7c1-1.3,2.7-2.1,4.4-2
				c1.8-0.1,3.5,0.7,4.5,2.2h0.2c-0.1-0.8-0.2-1.7-0.2-2.5v-5.5h3.2v21h-2.5l-0.6-2h-0.2C111.6,31.6,109.9,32.4,108.2,32.3z
				 M109,29.8c1.1,0.1,2.1-0.3,2.8-1.1c0.7-1.1,1-2.3,0.9-3.6v-0.4c0.1-1.4-0.2-2.8-0.9-4c-0.7-0.8-1.8-1.3-2.9-1.2
				c-1,0-2,0.5-2.6,1.4c-0.7,1.2-1,2.5-0.9,3.9c-0.1,1.3,0.2,2.6,0.9,3.8C107,29.3,108,29.8,109,29.8L109,29.8z"/>
			<path class="st1" d="M124.3,32.3c-1.9,0.1-3.8-0.6-5.1-2c-1.3-1.6-1.9-3.6-1.8-5.7c-0.1-2.1,0.5-4.2,1.8-5.8
				c1.4-1.4,3.3-2.1,5.3-2c1.5,0,2.9,0.3,4.2,0.9l-0.9,2.5c-1.1-0.5-2.2-0.7-3.3-0.8c-2.6,0-3.9,1.7-3.9,5.1c-0.1,1.3,0.3,2.6,1,3.8
				c0.7,0.9,1.7,1.3,2.8,1.3c1.4,0,2.8-0.4,4-1v2.8c-0.6,0.3-1.2,0.6-1.8,0.7C125.9,32.3,125.1,32.3,124.3,32.3z"/>
			<path class="st1" d="M139.2,32.1l-0.6-2.1h-0.1c-0.6,0.8-1.3,1.4-2.2,1.9c-0.9,0.4-1.8,0.5-2.8,0.5c-1.3,0.1-2.5-0.3-3.5-1.2
				c-0.9-0.9-1.3-2.1-1.2-3.4c-0.1-1.4,0.6-2.7,1.7-3.5c1.6-0.9,3.4-1.4,5.2-1.3l2.6-0.1v-0.8c0.1-0.8-0.2-1.5-0.7-2.1
				c-0.6-0.5-1.3-0.8-2.1-0.7c-0.7,0-1.5,0.1-2.2,0.3c-0.7,0.2-1.4,0.5-2,0.8l-1-2.3c0.8-0.4,1.7-0.8,2.6-1c0.9-0.2,1.8-0.3,2.7-0.3
				c1.5-0.1,3.1,0.4,4.3,1.3c1,1,1.6,2.4,1.4,3.9v10L139.2,32.1z M134.4,29.9c1,0,2-0.3,2.8-1c0.7-0.7,1.1-1.7,1-2.7V25l-1.9,0.1
				c-1.1,0-2.2,0.2-3.2,0.8c-0.7,0.4-1,1.2-1,2c0,0.6,0.2,1.1,0.6,1.5C133.2,29.8,133.8,30,134.4,29.9z"/>
			<path class="st1" d="M153.8,27.8c0.1,1.3-0.5,2.6-1.6,3.4c-1.4,0.9-2.9,1.3-4.6,1.2c-1.6,0.1-3.3-0.2-4.8-0.9v-2.7
				c1.5,0.7,3.2,1.2,4.9,1.2c1.9,0,2.9-0.6,2.9-1.8c0-0.3-0.1-0.7-0.3-0.9c-0.3-0.3-0.7-0.6-1.1-0.8c-0.7-0.3-1.4-0.7-2.1-0.9
				c-1.3-0.4-2.5-1.1-3.5-2c-0.6-0.7-0.9-1.6-0.9-2.6c-0.1-1.2,0.5-2.3,1.6-3c1.3-0.8,2.7-1.1,4.2-1.1c1.7,0,3.4,0.3,5,1.1l-1,2.4
				c-1.3-0.6-2.7-0.9-4.1-1c-1.7,0-2.5,0.5-2.5,1.4c0,0.5,0.3,0.9,0.6,1.2c0.9,0.5,1.9,1,2.9,1.3c0.9,0.3,1.8,0.8,2.7,1.3
				C153.3,25.3,153.9,26.5,153.8,27.8L153.8,27.8z"/>
			<path class="st1" d="M160.7,29.8c0.8,0,1.6-0.1,2.3-0.4v2.4c-0.4,0.2-0.9,0.3-1.4,0.4c-0.6,0.1-1.1,0.2-1.7,0.2
				c-3,0-4.5-1.6-4.5-4.7v-8h-2v-1.4l2.2-1.2l1.1-3.2h2v3.3h4.2v2.4h-4.2v8c0,0.6,0.2,1.2,0.6,1.7C159.6,29.6,160.1,29.8,160.7,29.8
				z"/>
		</g>
	</g>
</g>
</svg>
