<svg width="50" height="52" viewBox="0 0 50 52" fill="none" xmlns="http://www.w3.org/2000/svg">
<path d="M24.6353 29.8716C25.2856 29.8716 25.9092 29.6133 26.369 29.1535C26.8288 28.6937 27.0871 28.0701 27.0871 27.4198V2.90243C27.0871 2.25218 26.8288 1.62857 26.369 1.16878C25.9092 0.708991 25.2856 0.450684 24.6353 0.450684C23.9851 0.450684 23.3615 0.708991 22.9017 1.16878C22.4419 1.62857 22.1836 2.25218 22.1836 2.90243V27.4198C22.1836 28.0701 22.4419 28.6937 22.9017 29.1535C23.3615 29.6133 23.9851 29.8716 24.6353 29.8716Z" fill="#2DB5A4"/>
<path d="M35.8881 5.62384C35.3094 5.32472 34.6356 5.26776 34.0149 5.46547C33.3941 5.66318 32.8774 6.09937 32.5783 6.67808C32.2792 7.2568 32.2222 7.93063 32.4199 8.55135C32.6176 9.17207 33.0538 9.68882 33.6325 9.98794C37.5392 12.0049 40.655 15.276 42.4797 19.2762C44.3044 23.2763 44.7321 27.7735 43.6943 32.046C42.6565 36.3184 40.2133 40.1182 36.7569 42.8356C33.3005 45.5529 29.0313 47.0301 24.6346 47.0301C20.238 47.0301 15.9688 45.5529 12.5124 42.8356C9.05595 40.1182 6.61275 36.3184 5.57494 32.046C4.53713 27.7735 4.96489 23.2763 6.78956 19.2762C8.61424 15.276 11.73 12.0049 15.6367 9.98794C15.9233 9.83983 16.1779 9.63674 16.3859 9.39025C16.594 9.14376 16.7515 8.8587 16.8493 8.55135C16.9472 8.244 16.9836 7.92038 16.9565 7.59897C16.9293 7.27755 16.8391 6.96464 16.691 6.67808C16.5429 6.39153 16.3398 6.13696 16.0933 5.9289C15.8468 5.72084 15.5617 5.56336 15.2544 5.46547C14.947 5.36757 14.6234 5.33117 14.302 5.35834C13.9806 5.38552 13.6677 5.47573 13.3811 5.62384C8.49895 8.14615 4.6057 12.2355 2.32615 17.2357C0.0466074 22.2358 -0.487047 27.8568 0.810831 33.1966C2.10871 38.5363 5.16286 43.2853 9.48316 46.6813C13.8034 50.0773 19.1394 51.9234 24.6346 51.9234C30.1299 51.9234 35.4658 50.0773 39.7861 46.6813C44.1064 43.2853 47.1605 38.5363 48.4584 33.1966C49.7563 27.8568 49.2226 22.2358 46.9431 17.2357C44.6635 12.2355 40.7703 8.14615 35.8881 5.62384Z" fill="#2DB5A4"/>
</svg>
