<svg width="60" height="39" viewBox="0 0 60 39" fill="none" xmlns="http://www.w3.org/2000/svg">
<path d="M58.5036 5.98915C58.2071 5.81705 57.8705 5.72585 57.5276 5.72467C57.1847 5.7235 56.8476 5.8124 56.5498 5.98246L45.7753 12.1393V10.6187C45.7723 8.02361 44.7401 5.5357 42.9051 3.70071C41.0701 1.86573 38.5822 0.833535 35.9872 0.830566H4.66524C3.62722 0.831754 2.63205 1.24463 1.89806 1.97863C1.16407 2.71262 0.751187 3.70778 0.75 4.74581V28.2372C0.752969 30.8323 1.78517 33.3202 3.62015 35.1552C5.45513 36.9902 7.94305 38.0224 10.5381 38.0254H41.86C42.8981 38.0242 43.8932 37.6113 44.6272 36.8773C45.3612 36.1433 45.7741 35.1481 45.7753 34.1101V26.7166L56.5498 32.8735C56.8476 33.0435 57.1847 33.1324 57.5276 33.1313C57.8705 33.1301 58.207 33.0389 58.5036 32.8668C58.8002 32.6947 59.0463 32.4477 59.2174 32.1506C59.3885 31.8534 59.4786 31.5166 59.4786 31.1737V7.68224C59.4786 7.33935 59.3886 7.00247 59.2175 6.70533C59.0464 6.40819 58.8002 6.16122 58.5036 5.98915ZM41.86 34.1101H10.5381C8.98107 34.1083 7.48832 33.489 6.38733 32.388C5.28634 31.287 4.66702 29.7943 4.66524 28.2372V4.74581H35.9872C37.5442 4.74759 39.037 5.36691 40.1379 6.4679C41.2389 7.56888 41.8582 9.06164 41.86 10.6187L41.8605 15.5418C41.8606 15.5486 41.8604 15.5554 41.8605 15.5622L41.8613 23.2825C41.8607 23.303 41.8613 23.3234 41.8613 23.3438L41.8624 34.1101H41.86Z" fill="#2DB5A4"/>
</svg>
