<?xml version="1.0" encoding="UTF-8"?>
<svg id="Layer_1" data-name="Layer 1" xmlns="http://www.w3.org/2000/svg" viewBox="0 0 64 64">
  <defs>
    <style>
      .cls-1 {
        fill: #4ea49b;
      }

      .cls-2 {
        fill: #00746b;
        opacity: .1;
      }
    </style>
  </defs>
  <rect class="cls-2" x=".25" y="-.27" width="64" height="64"/>
  <g>
    <path class="cls-1" d="M50.86,31.29c-3.47-4.23-10.83-9.17-18.86-9.17s-15.41,4.97-18.86,9.17c-.34.41-.34,1.01,0,1.43,3.56,4.34,10.93,9.17,18.86,9.17s15.54-5.12,18.86-9.17c.34-.41.34-1.01,0-1.43ZM39.64,32c0,4.21-3.43,7.64-7.64,7.64s-7.64-3.43-7.64-7.64,3.43-7.64,7.64-7.64c4.21,0,7.64,3.43,7.64,7.64h0ZM15.53,32c1.27-1.32,4.32-4.15,8.6-5.98-2.69,3.53-2.69,8.42,0,11.95-3.26-1.38-6.28-3.56-8.6-5.97ZM39.87,37.98c2.69-3.53,2.69-8.42,0-11.95,3.26,1.38,6.28,3.56,8.6,5.97-1.27,1.32-4.32,4.15-8.6,5.98Z"/>
    <path class="cls-1" d="M28.18,32c0,2.11,1.71,3.82,3.82,3.82s3.82-1.71,3.82-3.82-1.71-3.82-3.82-3.82-3.82,1.71-3.82,3.82ZM33.57,32c0,.87-.71,1.57-1.57,1.57s-1.57-.71-1.57-1.57.71-1.57,1.57-1.57,1.57.71,1.57,1.57Z"/>
    <path class="cls-1" d="M32,17.76c.62,0,1.12-.5,1.12-1.12v-2.62c0-.62-.5-1.12-1.12-1.12s-1.12.5-1.12,1.12v2.62c0,.62.5,1.12,1.12,1.12Z"/>
    <path class="cls-1" d="M38.71,19.26c.54.31,1.23.12,1.53-.42l1.5-2.62c.31-.54.12-1.23-.42-1.53-.54-.31-1.23-.12-1.53.42l-1.5,2.62c-.31.54-.12,1.23.42,1.53Z"/>
    <path class="cls-1" d="M23.76,18.84c.31.54.99.73,1.53.42.54-.31.73-.99.42-1.53l-1.5-2.62c-.31-.54-.99-.73-1.53-.42-.54.31-.73.99-.42,1.53l1.5,2.62Z"/>
    <path class="cls-1" d="M32,46.24c-.62,0-1.12.5-1.12,1.12v2.62c0,.62.5,1.12,1.12,1.12s1.12-.5,1.12-1.12v-2.62c0-.62-.5-1.12-1.12-1.12Z"/>
    <path class="cls-1" d="M25.29,44.74c-.54-.31-1.23-.12-1.53.42l-1.5,2.62c-.31.54-.12,1.23.42,1.53.54.31,1.23.12,1.53-.42l1.5-2.62c.31-.54.12-1.23-.42-1.53Z"/>
    <path class="cls-1" d="M40.24,45.16c-.31-.54-.99-.73-1.53-.42-.54.31-.73.99-.42,1.53l1.5,2.62c.31.54.99.73,1.53.42.54-.31.73-.99.42-1.53l-1.5-2.62Z"/>
  </g>
</svg>