<svg width="25" height="24" viewBox="0 0 25 24" fill="none" xmlns="http://www.w3.org/2000/svg">
<path opacity="0.12" d="M13.8627 8.35186C13.2903 8.75995 12.5898 9 11.8333 9C9.90026 9 8.33325 7.433 8.33325 5.5C8.33325 3.567 9.90026 2 11.8333 2C13.0862 2 14.1854 2.65842 14.8038 3.64814C15.3762 3.24005 16.0767 3 16.8333 3C18.7662 3 20.3333 4.567 20.3333 6.5C20.3333 8.433 18.7662 10 16.8333 10C15.5803 10 14.4811 9.34158 13.8627 8.35186Z" fill="url(#paint0_linear_40008583_12130)"/>
<path d="M13.8627 8.35186C13.2903 8.75995 12.5898 9 11.8333 9C9.90026 9 8.33325 7.433 8.33325 5.5C8.33325 3.567 9.90026 2 11.8333 2C13.0862 2 14.1854 2.65842 14.8038 3.64814M6.33325 20.0872H8.94354C9.28388 20.0872 9.62213 20.1277 9.95206 20.2086L12.7101 20.8789C13.3086 21.0247 13.932 21.0388 14.5367 20.9214L17.5862 20.3281C18.3918 20.1712 19.1328 19.7854 19.7136 19.2205L21.8711 17.1217C22.4873 16.5234 22.4873 15.5524 21.8711 14.9531C21.3164 14.4134 20.438 14.3527 19.8104 14.8103L17.2958 16.6449C16.9357 16.9081 16.4976 17.0498 16.0469 17.0498H13.6188L15.1643 17.0498C16.0355 17.0498 16.7411 16.3633 16.7411 15.5159V15.2091C16.7411 14.5055 16.2488 13.892 15.5473 13.7219L13.1618 13.1417C12.7736 13.0476 12.3761 13 11.9764 13C11.0116 13 9.26515 13.7988 9.26515 13.7988L6.33325 15.0249M20.3333 6.5C20.3333 8.433 18.7662 10 16.8333 10C14.9003 10 13.3333 8.433 13.3333 6.5C13.3333 4.567 14.9003 3 16.8333 3C18.7662 3 20.3333 4.567 20.3333 6.5ZM2.33325 14.6L2.33325 20.4C2.33325 20.9601 2.33325 21.2401 2.44225 21.454C2.53812 21.6422 2.6911 21.7951 2.87926 21.891C3.09317 22 3.3732 22 3.93325 22H4.73325C5.2933 22 5.57333 22 5.78724 21.891C5.9754 21.7951 6.12839 21.6422 6.22426 21.454C6.33325 21.2401 6.33325 20.9601 6.33325 20.4V14.6C6.33325 14.0399 6.33325 13.7599 6.22426 13.546C6.12839 13.3578 5.9754 13.2049 5.78724 13.109C5.57333 13 5.2933 13 4.73325 13L3.93325 13C3.3732 13 3.09317 13 2.87926 13.109C2.6911 13.2049 2.53812 13.3578 2.44225 13.546C2.33325 13.7599 2.33325 14.0399 2.33325 14.6Z" stroke="url(#paint1_linear_40008583_12130)" stroke-width="2" stroke-linecap="round" stroke-linejoin="round"/>
<defs>
<linearGradient id="paint0_linear_40008583_12130" x1="14.3333" y1="10" x2="14.3333" y2="2" gradientUnits="userSpaceOnUse">
<stop offset="0.18" stop-color="#198A81"/>
<stop offset="1" stop-color="#23BBAD"/>
</linearGradient>
<linearGradient id="paint1_linear_40008583_12130" x1="12.3333" y1="22" x2="12.3333" y2="2" gradientUnits="userSpaceOnUse">
<stop offset="0.18" stop-color="#198A81"/>
<stop offset="1" stop-color="#23BBAD"/>
</linearGradient>
</defs>
</svg>
