<svg width="33" height="33" viewBox="0 0 33 33" fill="none" xmlns="http://www.w3.org/2000/svg">
<rect x="1" y="0.5" width="31.2" height="31.2" rx="15.5" fill="url(#paint0_linear_40007783_19664)"/>
<rect x="1" y="0.5" width="31.2" height="31.2" rx="15.5" stroke="#14A99C"/>
<g clip-path="url(#clip0_40007783_19664)">
<path d="M24.09 8.26001H22.13C22.0114 8.26001 21.8968 8.30313 21.8066 8.38153L15.0426 14.3115C14.6928 14.238 14.1518 14.14 13.8 14.14C11.0981 14.14 8.89999 16.3381 8.89999 19.04C8.89999 21.7419 11.0981 23.94 13.8 23.94C16.5019 23.94 18.7 21.7419 18.7 19.04C18.7 18.2374 18.5471 17.6994 18.3737 17.2525L20.0416 16.686C20.1404 16.6525 20.2258 16.5883 20.2856 16.5028C20.3453 16.4173 20.3763 16.315 20.3738 16.2107L20.3327 14.3507L22.2045 14.2204C22.3256 14.2119 22.4392 14.1588 22.5234 14.0714C22.6076 13.9839 22.6563 13.8684 22.6602 13.747L22.7298 11.5136L24.1958 11.1882C24.3047 11.1642 24.4022 11.1036 24.472 11.0167C24.5419 10.9297 24.5799 10.8215 24.58 10.71V8.75001C24.58 8.62005 24.5284 8.49542 24.4365 8.40353C24.3446 8.31163 24.2199 8.26001 24.09 8.26001ZM12.33 19.04C12.7197 19.0404 13.0934 19.1954 13.369 19.471C13.6446 19.7466 13.7996 20.1203 13.8 20.51C13.7901 20.8933 13.6309 21.2576 13.3563 21.5252C13.0817 21.7928 12.7134 21.9425 12.33 21.9425C11.9466 21.9425 11.5783 21.7928 11.3037 21.5252C11.0291 21.2576 10.8699 20.8933 10.86 20.51C10.86 19.6986 11.5186 19.04 12.33 19.04Z" fill="white"/>
</g>
<defs>
<linearGradient id="paint0_linear_40007783_19664" x1="16.6" y1="32.2" x2="16.6" y2="0" gradientUnits="userSpaceOnUse">
<stop offset="0.18" stop-color="#198A81"/>
<stop offset="1" stop-color="#23BBAD"/>
</linearGradient>
<clipPath id="clip0_40007783_19664">
<rect width="15.68" height="15.68" fill="white" transform="translate(8.89999 8.26001)"/>
</clipPath>
</defs>
</svg>
