<svg width="24" height="25" viewBox="0 0 24 25" fill="none" xmlns="http://www.w3.org/2000/svg">
<path opacity="0.12" d="M3 8.3C3 6.61984 3 5.77976 3.32698 5.13803C3.6146 4.57354 4.07354 4.1146 4.63803 3.82698C5.27976 3.5 6.11984 3.5 7.8 3.5H16.2C17.8802 3.5 18.7202 3.5 19.362 3.82698C19.9265 4.1146 20.3854 4.57354 20.673 5.13803C21 5.77976 21 6.61984 21 8.3V16.7C21 18.3802 21 19.2202 20.673 19.862C20.3854 20.4265 19.9265 20.8854 19.362 21.173C18.7202 21.5 17.8802 21.5 16.2 21.5H7.8C6.11984 21.5 5.27976 21.5 4.63803 21.173C4.07354 20.8854 3.6146 20.4265 3.32698 19.862C3 19.2202 3 18.3802 3 16.7V8.3Z" fill="#C1C7D0"/>
<path d="M12 8.5V12.5M12 12.5V16.5M12 12.5H8M12 12.5H16M7.8 21.5H16.2C17.8802 21.5 18.7202 21.5 19.362 21.173C19.9265 20.8854 20.3854 20.4265 20.673 19.862C21 19.2202 21 18.3802 21 16.7V8.3C21 6.61984 21 5.77976 20.673 5.13803C20.3854 4.57354 19.9265 4.1146 19.362 3.82698C18.7202 3.5 17.8802 3.5 16.2 3.5H7.8C6.11984 3.5 5.27976 3.5 4.63803 3.82698C4.07354 4.1146 3.6146 4.57354 3.32698 5.13803C3 5.77976 3 6.61984 3 8.3V16.7C3 18.3802 3 19.2202 3.32698 19.862C3.6146 20.4265 4.07354 20.8854 4.63803 21.173C5.27976 21.5 6.11984 21.5 7.8 21.5Z" stroke="#C1C7D0" stroke-width="2" stroke-linecap="round" stroke-linejoin="round"/>
</svg>
