<svg width="12" height="12" viewBox="0 0 12 12" fill="none" xmlns="http://www.w3.org/2000/svg">
<path d="M1.20921 1.20921C1.48816 0.930264 1.94042 0.930264 2.21936 1.20921L6 4.98985L9.78064 1.20921C10.0596 0.930264 10.5118 0.930264 10.7908 1.20921C11.0697 1.48816 11.0697 1.94042 10.7908 2.21936L7.01015 6L10.7908 9.78064C11.0697 10.0596 11.0697 10.5118 10.7908 10.7908C10.5118 11.0697 10.0596 11.0697 9.78064 10.7908L6 7.01015L2.21936 10.7908C1.94042 11.0697 1.48816 11.0697 1.20921 10.7908C0.930264 10.5118 0.930264 10.0596 1.20921 9.78064L4.98985 6L1.20921 2.21936C0.930264 1.94042 0.930264 1.48816 1.20921 1.20921Z" fill="#818898"/>
</svg>
