<svg width="30" height="31" viewBox="0 0 30 31" fill="none" xmlns="http://www.w3.org/2000/svg">
<path d="M22.6992 10.8643C22.4072 11.1463 22.0812 11.6843 21.8242 12.4203C21.9092 12.5833 21.9872 12.7673 22.0562 12.9763C22.7962 15.1993 22.5452 18.0113 21.8942 19.8723C21.9312 19.9703 21.9702 20.0653 22.0102 20.1573C22.2322 20.6623 22.4742 21.0183 22.7002 21.2363C22.9202 21.4503 23.0782 21.4873 23.1662 21.4873C23.2562 21.4873 23.4122 21.4503 23.6342 21.2363C23.8592 21.0183 24.1012 20.6623 24.3232 20.1563C24.7642 19.1483 25.0582 17.6963 25.0582 16.0503C25.0582 14.4033 24.7642 12.9523 24.3232 11.9433C24.1012 11.4383 23.8592 11.0823 23.6332 10.8643C23.4132 10.6503 23.2552 10.6133 23.1672 10.6133C23.0772 10.6133 22.9212 10.6503 22.6992 10.8643Z" fill="#20294C"/>
<path fill-rule="evenodd" clip-rule="evenodd" d="M16.8 15.926C16.8 12.007 17.511 8.50301 18.625 6.01301C19.183 4.76601 19.822 3.81401 20.485 3.18701C21.321 2.39701 22.64 2.34701 23.581 3.01301C26.151 4.83301 28 9.92601 28 15.926C28 23.451 25.09 29.551 21.5 29.551C18.448 29.551 15.246 28.961 12.109 28.384C10.572 28.101 9.052 27.821 7.571 27.614C4.421 26.797 2 21.875 2 15.927C2 9.97701 4.421 5.05701 7.571 4.23701L14.071 3.21001C14.873 3.11201 15.691 2.97901 16.514 2.84501C17.254 2.72501 17.792 3.59701 17.439 4.24401C17.257 4.57501 17.086 4.92401 16.924 5.28601C15.684 8.05601 14.942 11.818 14.942 15.926C14.942 16.428 15.358 16.835 15.87 16.835C15.9907 16.8365 16.1105 16.8141 16.2225 16.7693C16.3346 16.7244 16.4367 16.658 16.5231 16.5736C16.6094 16.4893 16.6783 16.3888 16.7259 16.2779C16.7734 16.1669 16.7986 16.0477 16.8 15.927V15.926ZM26.143 15.926C26.143 19.437 24.896 22.284 23.357 22.284C21.819 22.284 20.571 19.437 20.571 15.926C20.571 12.414 21.819 9.56701 23.357 9.56701C24.896 9.56701 26.143 12.414 26.143 15.926Z" fill="#20294C"/>
</svg>
