<svg width="20" height="16" viewBox="0 0 20 16" fill="none" xmlns="http://www.w3.org/2000/svg">
<path d="M6.875 2.5C6.875 2.32741 6.73509 2.1875 6.5625 2.1875C5.52696 2.1875 4.6875 1.34804 4.6875 0.3125C4.6875 0.13991 4.54759 0 4.375 0C4.20241 0 4.0625 0.13991 4.0625 0.3125C4.0625 1.34804 3.22304 2.1875 2.1875 2.1875C2.01491 2.1875 1.875 2.32741 1.875 2.5C1.875 2.67259 2.01491 2.8125 2.1875 2.8125C3.22304 2.8125 4.0625 3.65196 4.0625 4.6875C4.0625 4.86009 4.20241 5 4.375 5C4.54759 5 4.6875 4.86009 4.6875 4.6875C4.6875 3.65196 5.52696 2.8125 6.5625 2.8125C6.73509 2.8125 6.875 2.67259 6.875 2.5Z" fill="url(#paint0_linear_40007783_14335)" style="mix-blend-mode:screen"/>
<path d="M6.875 2.5C6.875 2.32741 6.73509 2.1875 6.5625 2.1875C5.52696 2.1875 4.6875 1.34804 4.6875 0.3125C4.6875 0.13991 4.54759 0 4.375 0C4.20241 0 4.0625 0.13991 4.0625 0.3125C4.0625 1.34804 3.22304 2.1875 2.1875 2.1875C2.01491 2.1875 1.875 2.32741 1.875 2.5C1.875 2.67259 2.01491 2.8125 2.1875 2.8125C3.22304 2.8125 4.0625 3.65196 4.0625 4.6875C4.0625 4.86009 4.20241 5 4.375 5C4.54759 5 4.6875 4.86009 4.6875 4.6875C4.6875 3.65196 5.52696 2.8125 6.5625 2.8125C6.73509 2.8125 6.875 2.67259 6.875 2.5Z" fill="white" fill-opacity="0.5"/>
<path d="M14.375 2C14.375 1.72386 14.1511 1.5 13.875 1.5C13.5989 1.5 13.375 1.72386 13.375 2C13.375 4.48488 11.3602 6.5 8.875 6.5C8.5989 6.5 8.375 6.7239 8.375 7C8.375 7.2761 8.5989 7.5 8.875 7.5C11.3603 7.5 13.375 9.5142 13.375 12C13.375 12.2761 13.5989 12.5 13.875 12.5C14.1511 12.5 14.375 12.2761 14.375 12C14.375 9.5141 16.3891 7.5 18.875 7.5C19.1511 7.5 19.375 7.2761 19.375 7C19.375 6.7239 19.1511 6.5 18.875 6.5C16.3892 6.5 14.375 4.48492 14.375 2Z" fill="url(#paint1_linear_40007783_14335)" style="mix-blend-mode:screen"/>
<path d="M14.375 2C14.375 1.72386 14.1511 1.5 13.875 1.5C13.5989 1.5 13.375 1.72386 13.375 2C13.375 4.48488 11.3602 6.5 8.875 6.5C8.5989 6.5 8.375 6.7239 8.375 7C8.375 7.2761 8.5989 7.5 8.875 7.5C11.3603 7.5 13.375 9.5142 13.375 12C13.375 12.2761 13.5989 12.5 13.875 12.5C14.1511 12.5 14.375 12.2761 14.375 12C14.375 9.5141 16.3891 7.5 18.875 7.5C19.1511 7.5 19.375 7.2761 19.375 7C19.375 6.7239 19.1511 6.5 18.875 6.5C16.3892 6.5 14.375 4.48492 14.375 2Z" fill="white" fill-opacity="0.5"/>
<path d="M5.375 8.5C5.375 8.2239 5.15114 8 4.875 8C4.59886 8 4.375 8.2239 4.375 8.5C4.375 10.1569 3.03186 11.5 1.375 11.5C1.09886 11.5 0.875 11.7239 0.875 12C0.875 12.2761 1.09886 12.5 1.375 12.5C3.03186 12.5 4.375 13.8431 4.375 15.5C4.375 15.7761 4.59886 16 4.875 16C5.15114 16 5.375 15.7761 5.375 15.5C5.375 13.8431 6.71814 12.5 8.375 12.5C8.6511 12.5 8.875 12.2761 8.875 12C8.875 11.7239 8.6511 11.5 8.375 11.5C6.71814 11.5 5.375 10.1569 5.375 8.5Z" fill="url(#paint2_linear_40007783_14335)" style="mix-blend-mode:screen"/>
<path d="M5.375 8.5C5.375 8.2239 5.15114 8 4.875 8C4.59886 8 4.375 8.2239 4.375 8.5C4.375 10.1569 3.03186 11.5 1.375 11.5C1.09886 11.5 0.875 11.7239 0.875 12C0.875 12.2761 1.09886 12.5 1.375 12.5C3.03186 12.5 4.375 13.8431 4.375 15.5C4.375 15.7761 4.59886 16 4.875 16C5.15114 16 5.375 15.7761 5.375 15.5C5.375 13.8431 6.71814 12.5 8.375 12.5C8.6511 12.5 8.875 12.2761 8.875 12C8.875 11.7239 8.6511 11.5 8.375 11.5C6.71814 11.5 5.375 10.1569 5.375 8.5Z" fill="white" fill-opacity="0.5"/>
<defs>
<linearGradient id="paint0_linear_40007783_14335" x1="-2.825" y1="51.2" x2="65.625" y2="51.2107" gradientUnits="userSpaceOnUse">
<stop stop-color="#3ECCC3"/>
<stop offset="0.5" stop-color="#1F6761"/>
<stop offset="1" stop-color="#53D7CB"/>
</linearGradient>
<linearGradient id="paint1_linear_40007783_14335" x1="-11.7386" y1="21.0909" x2="19.375" y2="21.0958" gradientUnits="userSpaceOnUse">
<stop stop-color="#3ECCC3"/>
<stop offset="0.5" stop-color="#1F6761"/>
<stop offset="1" stop-color="#53D7CB"/>
</linearGradient>
<linearGradient id="paint2_linear_40007783_14335" x1="0.875" y1="16" x2="43.6563" y2="16.0067" gradientUnits="userSpaceOnUse">
<stop stop-color="#3ECCC3"/>
<stop offset="0.5" stop-color="#1F6761"/>
<stop offset="1" stop-color="#53D7CB"/>
</linearGradient>
</defs>
</svg>
