<svg width="25" height="24" viewBox="0 0 25 24" fill="none" xmlns="http://www.w3.org/2000/svg">
<path opacity="0.12" d="M19.3332 10L19.7505 8.53955C19.9483 7.84717 20.0473 7.50097 19.9696 7.22708C19.9015 6.98715 19.7462 6.78132 19.5342 6.64996C19.2922 6.5 18.9322 6.5 18.2121 6.5L6.45442 6.5C5.73432 6.5 5.37428 6.5 5.13227 6.64996C4.92027 6.78132 4.76501 6.98715 4.69694 7.22708C4.61924 7.50097 4.71815 7.84717 4.91598 8.53955L5.33325 10L19.3332 10Z" fill="url(#paint0_linear_40008583_12111)"/>
<path d="M19.3333 10L5.33334 10M19.3333 10L21.1975 13.1069C21.6153 13.8032 21.8242 14.1514 21.9327 14.5262C22.0288 14.8582 22.0668 15.2045 22.045 15.5495C22.0204 15.9389 21.892 16.324 21.6352 17.0944L21.4274 17.7179C21.034 18.8981 20.8373 19.4882 20.4724 19.9245C20.1502 20.3098 19.7365 20.608 19.2691 20.7918C18.7398 21 18.1178 21 16.8737 21L7.79298 21C6.54891 21 5.92688 21 5.3976 20.7918C4.93022 20.608 4.51646 20.3098 4.19427 19.9245C3.82942 19.4882 3.63271 18.8981 3.2393 17.7179L3.03147 17.0944C2.77469 16.324 2.6463 15.9389 2.62169 15.5495C2.59989 15.2044 2.6379 14.8582 2.73403 14.5261C2.84251 14.1514 3.0514 13.8032 3.46919 13.1069L5.33334 10M19.3333 10L19.7506 8.53955C19.9484 7.84717 20.0473 7.50097 19.9696 7.22708C19.9016 6.98715 19.7463 6.78132 19.5343 6.64996C19.2923 6.5 18.9323 6.5 18.2122 6.5L6.45451 6.5C5.73441 6.5 5.37437 6.5 5.13236 6.64996C4.92036 6.78132 4.7651 6.98715 4.69703 7.22708C4.61933 7.50097 4.71824 7.84717 4.91607 8.53955L5.33334 10M12.3333 6.5H8.79763C8.27667 6.5 7.77704 6.28929 7.40867 5.91421C7.04029 5.53914 6.83334 5.03043 6.83334 4.5C6.83334 3.96957 7.04029 3.46086 7.40867 3.08579C7.77704 2.71071 8.27667 2.5 8.79763 2.5C11.5476 2.5 12.3333 6.5 12.3333 6.5ZM12.3333 6.5H15.8691C16.39 6.5 16.8896 6.28929 17.258 5.91421C17.6264 5.53914 17.8333 5.03043 17.8333 4.5C17.8333 3.96957 17.6264 3.46086 17.258 3.08579C16.8896 2.71071 16.39 2.5 15.8691 2.5C13.1191 2.5 12.3333 6.5 12.3333 6.5Z" stroke="url(#paint1_linear_40008583_12111)" stroke-width="2" stroke-linecap="round" stroke-linejoin="round"/>
<defs>
<linearGradient id="paint0_linear_40008583_12111" x1="12.3332" y1="10" x2="12.3332" y2="6.5" gradientUnits="userSpaceOnUse">
<stop offset="0.18" stop-color="#198A81"/>
<stop offset="1" stop-color="#23BBAD"/>
</linearGradient>
<linearGradient id="paint1_linear_40008583_12111" x1="12.3333" y1="21" x2="12.3333" y2="2.5" gradientUnits="userSpaceOnUse">
<stop offset="0.18" stop-color="#198A81"/>
<stop offset="1" stop-color="#23BBAD"/>
</linearGradient>
</defs>
</svg>
