<svg width="25" height="24" viewBox="0 0 25 24" fill="none" xmlns="http://www.w3.org/2000/svg">
<path opacity="0.12" d="M4.66663 14.8C4.66663 13.1198 4.66663 12.2798 4.99361 11.638C5.28123 11.0735 5.74017 10.6146 6.30465 10.327C6.94639 10 7.78647 10 9.46663 10H15.8666C17.5468 10 18.3869 10 19.0286 10.327C19.5931 10.6146 20.052 11.0735 20.3396 11.638C20.6666 12.2798 20.6666 13.1198 20.6666 14.8V16.2C20.6666 17.8802 20.6666 18.7202 20.3396 19.362C20.052 19.9265 19.5931 20.3854 19.0286 20.673C18.3869 21 17.5468 21 15.8666 21H9.46663C7.78647 21 6.94639 21 6.30465 20.673C5.74017 20.3854 5.28123 19.9265 4.99361 19.362C4.66663 18.7202 4.66663 17.8802 4.66663 16.2V14.8Z" fill="url(#paint0_linear_40008583_12136)"/>
<path d="M7.66663 10V8C7.66663 5.23858 9.9052 3 12.6666 3C14.7169 3 16.479 4.2341 17.2506 6M12.6666 14.5V16.5M9.46663 21H15.8666C17.5468 21 18.3869 21 19.0286 20.673C19.5931 20.3854 20.052 19.9265 20.3396 19.362C20.6666 18.7202 20.6666 17.8802 20.6666 16.2V14.8C20.6666 13.1198 20.6666 12.2798 20.3396 11.638C20.052 11.0735 19.5931 10.6146 19.0286 10.327C18.3869 10 17.5468 10 15.8666 10H9.46663C7.78647 10 6.94639 10 6.30465 10.327C5.74017 10.6146 5.28123 11.0735 4.99361 11.638C4.66663 12.2798 4.66663 13.1198 4.66663 14.8V16.2C4.66663 17.8802 4.66663 18.7202 4.99361 19.362C5.28123 19.9265 5.74017 20.3854 6.30465 20.673C6.94639 21 7.78647 21 9.46663 21Z" stroke="url(#paint1_linear_40008583_12136)" stroke-width="2" stroke-linecap="round" stroke-linejoin="round"/>
<defs>
<linearGradient id="paint0_linear_40008583_12136" x1="12.6666" y1="21" x2="12.6666" y2="10" gradientUnits="userSpaceOnUse">
<stop offset="0.18" stop-color="#198A81"/>
<stop offset="1" stop-color="#23BBAD"/>
</linearGradient>
<linearGradient id="paint1_linear_40008583_12136" x1="12.6666" y1="21" x2="12.6666" y2="3" gradientUnits="userSpaceOnUse">
<stop offset="0.18" stop-color="#198A81"/>
<stop offset="1" stop-color="#23BBAD"/>
</linearGradient>
</defs>
</svg>
