<svg width="32" height="33" viewBox="0 0 32 33" fill="none" xmlns="http://www.w3.org/2000/svg">
<path fill-rule="evenodd" clip-rule="evenodd" d="M26.0004 26.7306H28.0004C28.4247 26.7306 28.8317 26.8992 29.1318 27.1992C29.4318 27.4993 29.6004 27.9063 29.6004 28.3306C29.6004 28.7549 29.4318 29.1619 29.1318 29.462C28.8317 29.762 28.4247 29.9306 28.0004 29.9306H4.00039C3.57604 29.9306 3.16908 29.762 2.86902 29.462C2.56896 29.1619 2.40039 28.7549 2.40039 28.3306C2.40039 27.9063 2.56896 27.4993 2.86902 27.1992C3.16908 26.8992 3.57604 26.7306 4.00039 26.7306H6.00039V15.7156C7.30584 15.8914 8.62797 15.5458 9.68039 14.7536L11.0244 13.7346C11.1462 13.6456 11.2931 13.5977 11.4439 13.5977C11.5947 13.5977 11.7416 13.6456 11.8634 13.7346L13.0094 14.6046C13.879 15.2574 14.937 15.6104 16.0244 15.6104C17.1118 15.6104 18.1698 15.2574 19.0394 14.6046L20.1864 13.7346C20.3082 13.6456 20.4551 13.5977 20.6059 13.5977C20.7567 13.5977 20.9036 13.6456 21.0254 13.7346L22.3694 14.7546C23.408 15.5359 24.7097 15.8827 25.9994 15.7216L26.0004 26.7306ZM11.6004 26.7306H14.0004V22.5606C14.0004 22.0302 14.2111 21.5215 14.5862 21.1464C14.9613 20.7713 15.47 20.5606 16.0004 20.5606C16.5308 20.5606 17.0395 20.7713 17.4146 21.1464C17.7897 21.5215 18.0004 22.0302 18.0004 22.5606V26.7306H20.4004V22.5606C20.4004 21.3936 19.9368 20.2745 19.1117 19.4493C18.2865 18.6242 17.1673 18.1606 16.0004 18.1606C14.8334 18.1606 13.7143 18.6242 12.8891 19.4493C12.064 20.2745 11.6004 21.3936 11.6004 22.5606V26.7306Z" fill="#20294C"/>
<path d="M4.5393 5.24737C4.5993 5.08737 4.6653 4.92837 4.7663 4.78737C5.3933 3.90537 6.5133 3.35938 7.7303 3.35938H9.5993V12.1034L9.3023 12.3064C8.1223 13.1164 6.4663 13.1784 5.2083 12.4594L4.6633 12.1474C2.2923 10.7904 3.3173 8.27437 4.1643 6.19638C4.2983 5.86638 4.4283 5.54937 4.5393 5.24737ZM11.9993 11.1354V3.35938H19.9993V11.1354C19.7324 11.1794 19.4783 11.2807 19.2543 11.4324L18.1683 12.1784C16.9003 13.0484 15.0983 13.0484 13.8303 12.1784L12.7443 11.4324C12.5203 11.2807 12.2662 11.1794 11.9993 11.1354ZM22.3993 12.1034L22.6963 12.3064C23.8763 13.1164 25.5323 13.1784 26.7903 12.4594L27.3353 12.1474C29.7063 10.7904 28.6813 8.27437 27.8343 6.19638C27.7003 5.86638 27.5703 5.54837 27.4593 5.24637C27.4043 5.08366 27.328 4.92897 27.2323 4.78637C26.6053 3.90637 25.4853 3.35938 24.2683 3.35938H22.3983L22.3993 12.1034Z" fill="#20294C"/>
</svg>
