<svg width="40" height="39" viewBox="0 0 40 39" fill="none" xmlns="http://www.w3.org/2000/svg">
<path d="M11.54 9.68918V0.4375H23.2674V9.68918C23.2674 10.0281 22.8603 10.2043 22.6133 9.97165L21.5821 9.00461C21.4319 8.86504 21.1983 8.86504 21.0514 9.00461L19.6297 10.3372C19.4796 10.4768 19.2459 10.4768 19.0991 10.3372L17.6774 9.00461C17.5272 8.86504 17.2936 8.86504 17.1468 9.00461L15.7251 10.3372C15.5749 10.4768 15.3413 10.4768 15.1944 10.3372L13.7694 9.00129C13.6192 8.86172 13.3856 8.86172 13.2387 9.00129L12.2008 9.97165C11.9539 10.2043 11.5467 10.0281 11.5467 9.68918H11.54Z" fill="url(#paint0_linear_40007783_7128)" stroke="url(#paint1_linear_40007783_7128)" stroke-width="0.22" stroke-miterlimit="10"/>
<path d="M39.2638 27.2219L38.326 27.0558C38.0757 27.0126 37.8855 26.8265 37.822 26.5839C37.6285 25.8727 37.3448 25.1948 36.9844 24.5734C36.8542 24.3574 36.8576 24.0882 37.0044 23.8788L37.5517 23.0979C37.7319 22.8453 37.6986 22.5064 37.4816 22.2871L36.2001 21.011C35.9798 20.7916 35.6361 20.7617 35.3825 20.9379L34.5982 21.4828C34.3913 21.6257 34.1209 21.6291 33.904 21.5061C33.2766 21.1406 32.5991 20.8581 31.8849 20.672C31.6413 20.6055 31.4544 20.4161 31.4077 20.1669L31.2442 19.2331C31.1908 18.9307 30.9271 18.708 30.6167 18.708H28.7979C28.4875 18.708 28.2239 18.9307 28.1705 19.2331L28.0036 20.1669C27.9636 20.4161 27.7733 20.6055 27.5297 20.672C26.8155 20.8614 26.1347 21.1439 25.5106 21.5028C25.2904 21.6291 25.0234 21.6257 24.8165 21.4795L24.0289 20.9379C23.7752 20.7617 23.4348 20.7916 23.2145 21.0076L21.933 22.2871C21.7127 22.5031 21.6827 22.8453 21.8596 23.0979L22.4069 23.8788C22.5504 24.0849 22.5538 24.3574 22.4303 24.5734C22.0632 25.1948 21.7795 25.8727 21.5926 26.5839C21.5259 26.8265 21.3356 27.0093 21.0853 27.0558L20.1475 27.2219C19.8438 27.2751 19.6202 27.5376 19.6202 27.8467V29.6578C19.6202 29.9669 19.8438 30.2294 20.1475 30.2826L21.0853 30.4454C21.3356 30.4886 21.5259 30.678 21.5926 30.9206C21.7828 31.6318 22.0665 32.3064 22.4303 32.9278C22.5571 33.1471 22.5538 33.413 22.4069 33.6224L21.8596 34.4033C21.6827 34.6559 21.7127 34.9948 21.933 35.2142L23.2145 36.4936C23.4315 36.7096 23.7752 36.7428 24.0289 36.5667L24.8165 36.0217C25.02 35.8788 25.2904 35.8755 25.5106 35.9984C26.1347 36.3606 26.8155 36.6431 27.5297 36.8325C27.7733 36.8957 27.9602 37.0851 28.0036 37.3343L28.1705 38.2681C28.2239 38.5739 28.4875 38.7932 28.7979 38.7932H30.6167C30.9271 38.7932 31.1908 38.5739 31.2442 38.2681L31.4077 37.3343C31.4511 37.0851 31.6413 36.8957 31.8849 36.8325C32.5991 36.6398 33.2766 36.3573 33.904 35.9984C34.1209 35.8688 34.3879 35.8721 34.5982 36.0184L35.3825 36.5634C35.6361 36.7428 35.9765 36.7096 36.2001 36.4936L37.4816 35.2142C37.6986 34.9981 37.7319 34.6559 37.5517 34.4033L37.0044 33.6224C36.8609 33.4163 36.8576 33.1471 36.9844 32.9278C37.3481 32.3064 37.6318 31.6318 37.822 30.9206C37.8855 30.678 38.0757 30.4919 38.326 30.4454L39.2638 30.2826C39.5708 30.2294 39.7911 29.9669 39.7911 29.6578V27.8467C39.7911 27.5376 39.5708 27.2751 39.2638 27.2219ZM29.7057 33.0475C27.3228 33.0475 25.3905 31.1267 25.3905 28.7506C25.3905 26.3745 27.3228 24.4504 29.7057 24.4504C32.0885 24.4504 34.0208 26.3779 34.0208 28.7506C34.0208 31.1233 32.0885 33.0475 29.7057 33.0475Z" fill="#E2E2E2"/>
<path d="M31.2675 0.434082H24.486V9.68576C24.486 10.573 23.7685 11.2875 22.8774 11.2875C22.4703 11.2875 22.0798 11.1347 21.7794 10.8522L21.3155 10.4202L20.4612 11.2211C19.8504 11.7926 18.8759 11.796 18.2619 11.2211L17.4075 10.4202L16.5532 11.2211C15.9124 11.8026 14.9512 11.786 14.3472 11.2144L13.4928 10.4202L13.0223 10.8555C12.7186 11.1347 12.3281 11.2908 11.9209 11.2908C11.0366 11.2908 10.3124 10.5697 10.3124 9.68909V0.434082H3.54425C1.58857 0.434082 0 2.01591 0 3.96328V31.5655C0 33.5128 1.58857 35.0913 3.54425 35.0913H20.5546C20.4679 34.6228 20.568 34.121 20.8583 33.7089L21.1987 33.2237C20.9184 32.702 20.6881 32.1503 20.5112 31.5721L19.9339 31.4757C19.0428 31.3195 18.3987 30.5552 18.3987 29.6546V27.8402C18.3987 26.9429 19.0462 26.1786 19.9339 26.0258L20.5112 25.9227C20.6881 25.3511 20.9184 24.7995 21.1987 24.2711L20.8583 23.7859C20.341 23.0449 20.4311 22.0512 21.0786 21.4198L22.3534 20.1471C22.7072 19.7948 23.1711 19.6087 23.665 19.6087C24.0488 19.6087 24.4159 19.725 24.7296 19.941L25.2169 20.2734C25.7408 20.0009 26.2948 19.7682 26.8689 19.5954L26.9723 19.0139C27.1292 18.1332 27.8968 17.4919 28.8012 17.4919H30.6167C31.5178 17.4919 32.2853 18.1366 32.4455 19.0205L32.549 19.5954C33.1163 19.7649 33.6703 19.9942 34.201 20.28L34.6882 19.941C34.7249 19.9178 34.7683 19.8879 34.8117 19.8679V3.96328C34.8117 2.01591 33.2265 0.434082 31.2708 0.434082H31.2675ZM10.6561 31.1933H3.98477C3.65104 31.1933 3.37404 30.9274 3.37404 30.5851C3.37404 30.2428 3.6477 29.977 3.98477 29.977H10.6561C10.9965 29.977 11.2668 30.2495 11.2668 30.5851C11.2668 30.9208 10.9998 31.1933 10.6561 31.1933ZM10.6561 27.8668H3.98477C3.65104 27.8668 3.37404 27.6009 3.37404 27.2586C3.37404 26.9164 3.6477 26.6505 3.98477 26.6505H10.6561C10.9965 26.6505 11.2668 26.923 11.2668 27.2586C11.2668 27.5943 10.9998 27.8668 10.6561 27.8668Z" fill="url(#paint2_linear_40007783_7128)" stroke="url(#paint3_linear_40007783_7128)" stroke-width="0.22" stroke-miterlimit="10"/>
<defs>
<linearGradient id="paint0_linear_40007783_7128" x1="11.54" y1="0.59653" x2="24.9393" y2="4.16614" gradientUnits="userSpaceOnUse">
<stop stop-color="#3BEEE2"/>
<stop offset="0.985" stop-color="#05A194" stop-opacity="0.7"/>
</linearGradient>
<linearGradient id="paint1_linear_40007783_7128" x1="11.5033" y1="5.43886" x2="23.3041" y2="5.43886" gradientUnits="userSpaceOnUse">
<stop stop-color="#52A5E9"/>
<stop offset="0.03" stop-color="#58A0EA"/>
<stop offset="0.21" stop-color="#798DF1"/>
<stop offset="0.39" stop-color="#937EF7"/>
<stop offset="0.58" stop-color="#A574FB"/>
<stop offset="0.78" stop-color="#B06EFE"/>
<stop offset="1" stop-color="#B46CFF"/>
</linearGradient>
<linearGradient id="paint2_linear_40007783_7128" x1="-6.74255e-07" y1="0.984996" x2="40.4876" y2="10.2273" gradientUnits="userSpaceOnUse">
<stop stop-color="#3BEEE2"/>
<stop offset="0.985" stop-color="#05A194" stop-opacity="0.7"/>
</linearGradient>
<linearGradient id="paint3_linear_40007783_7128" x1="-0.0367106" y1="17.7644" x2="34.8417" y2="17.7644" gradientUnits="userSpaceOnUse">
<stop stop-color="#52A5E9"/>
<stop offset="0.03" stop-color="#58A0EA"/>
<stop offset="0.21" stop-color="#798DF1"/>
<stop offset="0.39" stop-color="#937EF7"/>
<stop offset="0.58" stop-color="#A574FB"/>
<stop offset="0.78" stop-color="#B06EFE"/>
<stop offset="1" stop-color="#B46CFF"/>
</linearGradient>
</defs>
</svg>
