<svg width="41" height="40" viewBox="0 0 41 40" fill="none" xmlns="http://www.w3.org/2000/svg">
<rect x="1" y="0.5" width="39" height="39" rx="7.5" fill="white"/>
<rect x="1" y="0.5" width="39" height="39" rx="7.5" stroke="#EAEAF0"/>
<path d="M23.5 13V17M23.5 17L27.5 17M23.5 17L29.5 11M27 29C18.4396 29 11.5 22.0604 11.5 13.5C11.5 13.1138 11.5141 12.7309 11.5419 12.3517C11.5738 11.9166 11.5897 11.6991 11.7037 11.501C11.7981 11.337 11.9655 11.1815 12.136 11.0993C12.3418 11 12.5819 11 13.062 11H15.8793C16.2831 11 16.485 11 16.658 11.0665C16.8109 11.1251 16.947 11.2205 17.0544 11.3441C17.176 11.484 17.245 11.6738 17.383 12.0532L18.5491 15.26C18.7096 15.7015 18.7899 15.9223 18.7763 16.1317C18.7643 16.3164 18.7012 16.4941 18.5942 16.6451C18.4729 16.8163 18.2715 16.9371 17.8686 17.1788L16.5 18C17.7019 20.6489 19.8501 22.7999 22.5 24L23.3212 22.6314C23.5629 22.2285 23.6837 22.0271 23.8549 21.9058C24.0059 21.7988 24.1836 21.7357 24.3683 21.7237C24.5777 21.7101 24.7985 21.7904 25.24 21.9509L28.4468 23.117C28.8262 23.255 29.016 23.324 29.1559 23.4456C29.2795 23.553 29.3749 23.6891 29.4335 23.842C29.5 24.015 29.5 24.2169 29.5 24.6207V27.438C29.5 27.9181 29.5 28.1582 29.4007 28.364C29.3185 28.5345 29.163 28.7019 28.999 28.7963C28.8009 28.9103 28.5834 28.9262 28.1483 28.9581C27.7691 28.9859 27.3862 29 27 29Z" stroke="#2F2F2F" stroke-width="2" stroke-linecap="round" stroke-linejoin="round"/>
</svg>
