<svg width="9" height="10" viewBox="0 0 9 10" fill="none" xmlns="http://www.w3.org/2000/svg">
<path d="M0.875 5.89035C0.875 8.17035 2.685 10.0003 4.935 10.0003C7.186 10.0003 8.99103 8.17035 8.99103 5.89035C8.99356 5.83941 8.98547 5.78851 8.96729 5.74087C8.9491 5.69322 8.9212 5.64988 8.88538 5.61359C8.84955 5.57729 8.80656 5.54884 8.75916 5.53004C8.71175 5.51123 8.66095 5.50248 8.60999 5.50435C8.39399 5.50435 8.25098 5.66635 8.25098 5.88935C8.25098 7.75735 6.777 9.25235 4.935 9.25235C3.093 9.25235 1.61401 7.75735 1.61401 5.88935C1.61401 4.02735 3.093 2.53635 4.935 2.53635C5.284 2.53635 5.60998 2.56435 5.88098 2.62935L4.508 4.00435C4.44043 4.0757 4.40251 4.17008 4.40198 4.26835C4.40198 4.48235 4.55901 4.64035 4.76501 4.64035C4.81459 4.6427 4.86409 4.63437 4.91016 4.61591C4.95623 4.59745 4.99776 4.56929 5.03198 4.53335L6.92401 2.61035C6.96194 2.57492 6.99182 2.53178 7.01166 2.48382C7.0315 2.43587 7.04082 2.38421 7.039 2.33235C7.03835 2.22794 6.99712 2.12788 6.92401 2.05335L5.03198 0.111348C4.99837 0.0743591 4.95704 0.0452347 4.91089 0.0260491C4.86474 0.00686348 4.81494 -0.00191161 4.76501 0.000347589C4.55901 0.000347589 4.40198 0.167347 4.40198 0.380347C4.40281 0.478227 4.43865 0.57258 4.50299 0.646348L5.72498 1.86735C5.46475 1.816 5.20024 1.78954 4.935 1.78835C2.685 1.78835 0.875 3.61535 0.875 5.89035Z" fill="#B3B3BC"/>
</svg>
