<svg width="21" height="20" viewBox="0 0 21 20" fill="none" xmlns="http://www.w3.org/2000/svg">
<path d="M5.83325 10H5.84325M10.3333 10H10.3433M14.8333 10H14.8433M10.3333 19C15.3038 19 19.3333 14.9706 19.3333 10C19.3333 5.02944 15.3038 1 10.3333 1C5.36269 1 1.33325 5.02944 1.33325 10C1.33325 11.1971 1.56699 12.3397 1.99131 13.3845C2.07253 13.5845 2.11313 13.6845 2.13125 13.7653C2.14897 13.8443 2.15545 13.9028 2.15546 13.9839C2.15547 14.0667 2.14043 14.1569 2.11036 14.3374L1.51738 17.8952C1.45528 18.2678 1.42423 18.4541 1.48201 18.5888C1.53258 18.7067 1.62653 18.8007 1.74444 18.8512C1.87915 18.909 2.06543 18.878 2.43801 18.8159L5.9959 18.2229C6.17634 18.1928 6.26656 18.1778 6.34938 18.1778C6.43041 18.1778 6.48891 18.1843 6.56797 18.202C6.64879 18.2201 6.74878 18.2607 6.94874 18.3419C7.99356 18.7663 9.13611 19 10.3333 19ZM6.33325 10C6.33325 10.2761 6.10939 10.5 5.83325 10.5C5.55711 10.5 5.33325 10.2761 5.33325 10C5.33325 9.72386 5.55711 9.5 5.83325 9.5C6.10939 9.5 6.33325 9.72386 6.33325 10ZM10.8333 10C10.8333 10.2761 10.6094 10.5 10.3333 10.5C10.0571 10.5 9.83325 10.2761 9.83325 10C9.83325 9.72386 10.0571 9.5 10.3333 9.5C10.6094 9.5 10.8333 9.72386 10.8333 10ZM15.3333 10C15.3333 10.2761 15.1094 10.5 14.8333 10.5C14.5571 10.5 14.3333 10.2761 14.3333 10C14.3333 9.72386 14.5571 9.5 14.8333 9.5C15.1094 9.5 15.3333 9.72386 15.3333 10Z" stroke="url(#paint0_linear_40008596_727)" stroke-width="2" stroke-linecap="round" stroke-linejoin="round"/>
<defs>
<linearGradient id="paint0_linear_40008596_727" x1="10.3333" y1="19" x2="10.3333" y2="1" gradientUnits="userSpaceOnUse">
<stop offset="0.18" stop-color="#198A81"/>
<stop offset="1" stop-color="#23BBAD"/>
</linearGradient>
</defs>
</svg>
