<?xml version="1.0" encoding="UTF-8"?>
<svg xmlns="http://www.w3.org/2000/svg" xmlns:xlink="http://www.w3.org/1999/xlink" viewBox="0 0 18.5 16">
  <defs>
    <style>
      .cls-1 {
        fill: #fff;
        opacity: .5;
      }

      .cls-2, .cls-3 {
        isolation: isolate;
      }

      .cls-3 {
        fill: url(#linear-gradient);
        mix-blend-mode: screen;
      }
    </style>
    <linearGradient id="linear-gradient" x1="1.37" y1="7.99" x2="17.78" y2="7.99" gradientUnits="userSpaceOnUse">
      <stop offset="0" stop-color="#3eccc3"/>
      <stop offset=".03" stop-color="#2abdb2"/>
      <stop offset=".07" stop-color="#19b0a4"/>
      <stop offset=".12" stop-color="#0da79b"/>
      <stop offset=".18" stop-color="#06a295"/>
      <stop offset=".37" stop-color="#05a194"/>
      <stop offset="1" stop-color="#3beee2"/>
    </linearGradient>
  </defs>
  <g class="cls-2">
    <g id="Layer_1" data-name="Layer 1">
      <g>
        <path class="cls-3" d="M17.78,3.19c0-1.51-1.23-2.74-2.74-2.74s-2.74,1.23-2.74,2.74c0,1.27.88,2.33,2.05,2.64v5.57c0,.38-.31.68-.68.68h-3.42l1.51-1.51-.97-.97-2.23,2.23c-.53.53-.53,1.39,0,1.92l2.23,2.23.97-.97-1.58-1.57h3.49c1.13,0,2.05-.92,2.05-2.05v-5.57c1.18-.31,2.05-1.37,2.05-2.64ZM8.32,6.38l2.23-2.23c.53-.53.53-1.39,0-1.92L8.32,0l-.97.97,1.54,1.54h-3.42c-1.13,0-2.05.92-2.05,2.05v5.57c-1.18.31-2.05,1.37-2.05,2.64,0,1.51,1.23,2.74,2.74,2.74s2.74-1.23,2.74-2.74c0-1.27-.88-2.33-2.05-2.64v-5.57c0-.38.31-.68.68-.68h3.42l-1.54,1.54.97.97h0Z"/>
        <path class="cls-1" d="M17.78,3.19c0-1.51-1.23-2.74-2.74-2.74s-2.74,1.23-2.74,2.74c0,1.27.88,2.33,2.05,2.64v5.57c0,.38-.31.68-.68.68h-3.42l1.51-1.51-.97-.97-2.23,2.23c-.53.53-.53,1.39,0,1.92l2.23,2.23.97-.97-1.58-1.57h3.49c1.13,0,2.05-.92,2.05-2.05v-5.57c1.18-.31,2.05-1.37,2.05-2.64ZM8.32,6.38l2.23-2.23c.53-.53.53-1.39,0-1.92L8.32,0l-.97.97,1.54,1.54h-3.42c-1.13,0-2.05.92-2.05,2.05v5.57c-1.18.31-2.05,1.37-2.05,2.64,0,1.51,1.23,2.74,2.74,2.74s2.74-1.23,2.74-2.74c0-1.27-.88-2.33-2.05-2.64v-5.57c0-.38.31-.68.68-.68h3.42l-1.54,1.54.97.97h0Z"/>
      </g>
    </g>
  </g>
</svg>