<?xml version="1.0" encoding="UTF-8"?>
<svg xmlns="http://www.w3.org/2000/svg" xmlns:xlink="http://www.w3.org/1999/xlink" viewBox="0 0 18.5 16">
  <defs>
    <style>
      .cls-1 {
        fill: #fff;
        opacity: .5;
      }

      .cls-2, .cls-3 {
        isolation: isolate;
      }

      .cls-3 {
        fill: url(#linear-gradient);
        mix-blend-mode: screen;
      }
    </style>
    <linearGradient id="linear-gradient" x1="1.11" y1="8.03" x2="17.08" y2="8.03" gradientUnits="userSpaceOnUse">
      <stop offset="0" stop-color="#3eccc3"/>
      <stop offset=".03" stop-color="#2abdb2"/>
      <stop offset=".07" stop-color="#19b0a4"/>
      <stop offset=".12" stop-color="#0da79b"/>
      <stop offset=".18" stop-color="#06a295"/>
      <stop offset=".37" stop-color="#05a194"/>
      <stop offset="1" stop-color="#3beee2"/>
    </linearGradient>
  </defs>
  <g class="cls-2">
    <g id="Layer_1" data-name="Layer 1">
      <g>
        <path class="cls-3" d="M11.76,11.39v-3.99h5.28c-.1-1.17-.44-2.31-1.03-3.33C14.06.69,9.79-.94,5.89.74,3.59,1.73,1.86,3.8,1.31,6.24c-.6,2.68.16,5.38,1.97,7.3.3.32.62.6.96.86l4.32-4.32c.52-.52,1.36-.52,1.88,0l1.3,1.31h0ZM5.82,9.2l2.62-1.6v-3.54h1.33v4.28l-3.25,1.99-.69-1.14h0ZM17.08,10.05v2.66h-1.33v-1.73l-4.08,4.07-2.16-2.16-3.09,3.09-.94-.94,4.03-4.03,2.16,2.16,3.12-3.12h-1.71v-1.33h2.66c.73,0,1.33.6,1.33,1.33h0Z"/>
        <path class="cls-1" d="M11.76,11.39v-3.99h5.28c-.1-1.17-.44-2.31-1.03-3.33C14.06.69,9.79-.94,5.89.74,3.59,1.73,1.86,3.8,1.31,6.24c-.6,2.68.16,5.38,1.97,7.3.3.32.62.6.96.86l4.32-4.32c.52-.52,1.36-.52,1.88,0l1.3,1.31h0ZM5.82,9.2l2.62-1.6v-3.54h1.33v4.28l-3.25,1.99-.69-1.14h0ZM17.08,10.05v2.66h-1.33v-1.73l-4.08,4.07-2.16-2.16-3.09,3.09-.94-.94,4.03-4.03,2.16,2.16,3.12-3.12h-1.71v-1.33h2.66c.73,0,1.33.6,1.33,1.33h0Z"/>
      </g>
    </g>
  </g>
</svg>