<?xml version="1.0" encoding="UTF-8"?>
<svg xmlns="http://www.w3.org/2000/svg" xmlns:xlink="http://www.w3.org/1999/xlink" viewBox="0 0 18.5 16">
  <defs>
    <style>
      .cls-1 {
        fill: #fff;
        opacity: .5;
      }

      .cls-2, .cls-3 {
        isolation: isolate;
      }

      .cls-3 {
        fill: url(#linear-gradient);
        mix-blend-mode: screen;
      }
    </style>
    <linearGradient id="linear-gradient" x1="1.25" y1="8.01" x2="17.17" y2="8.01" gradientUnits="userSpaceOnUse">
      <stop offset="0" stop-color="#3eccc3"/>
      <stop offset=".03" stop-color="#2abdb2"/>
      <stop offset=".07" stop-color="#19b0a4"/>
      <stop offset=".12" stop-color="#0da79b"/>
      <stop offset=".18" stop-color="#06a295"/>
      <stop offset=".37" stop-color="#05a194"/>
      <stop offset="1" stop-color="#3beee2"/>
    </linearGradient>
  </defs>
  <g class="cls-2">
    <g id="Layer_1" data-name="Layer 1">
      <g>
        <path class="cls-3" d="M14.51,4.75h0s-.02,0,0,0ZM4.57,4.69c-1.83,0-3.32,1.49-3.32,3.32V2.04C1.25.95,2.14.05,3.24.05h9.28c1.1,0,1.99.89,1.99,1.99v2.65H4.57ZM9.87,3.37h2.65v-1.33h-2.65v1.33ZM3.24,3.37h5.3v-1.33H3.24v1.33ZM17.17,8.01v6.63h-5.21l-1.22,1.01c-.24.21-.55.32-.86.32s-.63-.11-.89-.34l-1.18-.99H2.58v-6.63c0-1.1.89-1.99,1.99-1.99h10.61c1.1,0,1.99.89,1.99,1.99h0ZM7.22,10h-1.43l-.39-1.49h-.32l-.39,1.49h-1.44v.31l1.1.61-.43,1.35.24.18,1.09-.84,1.08.84.25-.17-.44-1.34,1.09-.63v-.3h0ZM11.86,10h-1.43l-.39-1.49h-.32l-.39,1.49h-1.44v.31l1.1.61-.43,1.35.24.18,1.09-.84,1.08.84.25-.17-.44-1.34,1.09-.63v-.3h0ZM16.5,10h-1.43l-.39-1.49h-.32l-.39,1.49h-1.44v.31l1.1.61-.43,1.35.24.18,1.09-.84,1.08.84.25-.17-.44-1.34,1.09-.63v-.3h0Z"/>
        <path class="cls-1" d="M14.51,4.75h0s-.02,0,0,0ZM4.57,4.69c-1.83,0-3.32,1.49-3.32,3.32V2.04C1.25.95,2.14.05,3.24.05h9.28c1.1,0,1.99.89,1.99,1.99v2.65H4.57ZM9.87,3.37h2.65v-1.33h-2.65v1.33ZM3.24,3.37h5.3v-1.33H3.24v1.33ZM17.17,8.01v6.63h-5.21l-1.22,1.01c-.24.21-.55.32-.86.32s-.63-.11-.89-.34l-1.18-.99H2.58v-6.63c0-1.1.89-1.99,1.99-1.99h10.61c1.1,0,1.99.89,1.99,1.99h0ZM7.22,10h-1.43l-.39-1.49h-.32l-.39,1.49h-1.44v.31l1.1.61-.43,1.35.24.18,1.09-.84,1.08.84.25-.17-.44-1.34,1.09-.63v-.3h0ZM11.86,10h-1.43l-.39-1.49h-.32l-.39,1.49h-1.44v.31l1.1.61-.43,1.35.24.18,1.09-.84,1.08.84.25-.17-.44-1.34,1.09-.63v-.3h0ZM16.5,10h-1.43l-.39-1.49h-.32l-.39,1.49h-1.44v.31l1.1.61-.43,1.35.24.18,1.09-.84,1.08.84.25-.17-.44-1.34,1.09-.63v-.3h0Z"/>
      </g>
    </g>
  </g>
</svg>