<svg width="325" height="208" viewBox="0 0 325 208" fill="none" xmlns="http://www.w3.org/2000/svg">
<g filter="url(#filter0_d_40008448_8281)">
<path d="M7 24.2C7 17.4794 7 14.1191 8.30792 11.5521C9.4584 9.29417 11.2942 7.4584 13.5521 6.30792C16.1191 5 19.4794 5 26.2 5H298.8C305.521 5 308.881 5 311.448 6.30792C313.706 7.4584 315.542 9.29417 316.692 11.5521C318 14.1191 318 17.4794 318 24.2V179.8C318 186.521 318 189.881 316.692 192.448C315.542 194.706 313.706 196.542 311.448 197.692C308.881 199 305.521 199 298.8 199H26.2C19.4794 199 16.1191 199 13.5521 197.692C11.2942 196.542 9.4584 194.706 8.30792 192.448C7 189.881 7 186.521 7 179.8V24.2Z" fill="#FFFDFC"/>
<path d="M26.468 38V27.375H23.187V25.335H32.027V27.375H28.797V38H26.468ZM36.2376 38.204C35.3309 38.204 34.5036 37.9943 33.7556 37.575C33.0189 37.1557 32.4296 36.5833 31.9876 35.858C31.5569 35.1327 31.3416 34.3053 31.3416 33.376C31.3416 32.4467 31.5569 31.6193 31.9876 30.894C32.4296 30.1687 33.0189 29.5963 33.7556 29.177C34.4922 28.7577 35.3196 28.548 36.2376 28.548C37.1442 28.548 37.9659 28.7577 38.7026 29.177C39.4392 29.5963 40.0229 30.1687 40.4536 30.894C40.8956 31.608 41.1166 32.4353 41.1166 33.376C41.1166 34.3053 40.8956 35.1327 40.4536 35.858C40.0116 36.5833 39.4222 37.1557 38.6856 37.575C37.9489 37.9943 37.1329 38.204 36.2376 38.204ZM36.2376 36.164C36.7362 36.164 37.1726 36.045 37.5466 35.807C37.9319 35.569 38.2322 35.2403 38.4476 34.821C38.6742 34.3903 38.7876 33.9087 38.7876 33.376C38.7876 32.832 38.6742 32.356 38.4476 31.948C38.2322 31.5287 37.9319 31.2 37.5466 30.962C37.1726 30.7127 36.7362 30.588 36.2376 30.588C35.7276 30.588 35.2799 30.7127 34.8946 30.962C34.5092 31.2 34.2032 31.5287 33.9766 31.948C33.7612 32.356 33.6536 32.832 33.6536 33.376C33.6536 33.9087 33.7612 34.3903 33.9766 34.821C34.2032 35.2403 34.5092 35.569 34.8946 35.807C35.2799 36.045 35.7276 36.164 36.2376 36.164ZM46.5154 38.102C45.4727 38.102 44.6624 37.8187 44.0844 37.252C43.5177 36.674 43.2344 35.8637 43.2344 34.821V30.741H41.6364V28.752H41.8064C42.2597 28.752 42.611 28.633 42.8604 28.395C43.1097 28.157 43.2344 27.8113 43.2344 27.358V26.644H45.4614V28.752H47.5864V30.741H45.4614V34.702C45.4614 35.008 45.5124 35.2687 45.6144 35.484C45.7277 35.6993 45.8977 35.8637 46.1244 35.977C46.3624 36.0903 46.6627 36.147 47.0254 36.147C47.1047 36.147 47.1954 36.1413 47.2974 36.13C47.4107 36.1187 47.5184 36.1073 47.6204 36.096V38C47.4617 38.0227 47.2804 38.0453 47.0764 38.068C46.8724 38.0907 46.6854 38.102 46.5154 38.102ZM51.7536 38.204C51.1076 38.204 50.5466 38.0963 50.0706 37.881C49.5946 37.6657 49.2263 37.3597 48.9656 36.963C48.705 36.555 48.5746 36.0847 48.5746 35.552C48.5746 35.042 48.688 34.5887 48.9146 34.192C49.1413 33.784 49.4926 33.444 49.9686 33.172C50.4446 32.9 51.0453 32.7073 51.7706 32.594L54.7966 32.101V33.801L52.1956 34.243C51.7536 34.3223 51.425 34.464 51.2096 34.668C50.9943 34.872 50.8866 35.1383 50.8866 35.467C50.8866 35.7843 51.0056 36.0393 51.2436 36.232C51.493 36.4133 51.799 36.504 52.1616 36.504C52.6263 36.504 53.0343 36.4077 53.3856 36.215C53.7483 36.011 54.026 35.7333 54.2186 35.382C54.4226 35.0307 54.5246 34.6453 54.5246 34.226V31.846C54.5246 31.4493 54.366 31.1207 54.0486 30.86C53.7426 30.588 53.3346 30.452 52.8246 30.452C52.3486 30.452 51.9236 30.5823 51.5496 30.843C51.187 31.0923 50.9206 31.4267 50.7506 31.846L48.9316 30.962C49.113 30.4747 49.3963 30.0553 49.7816 29.704C50.1783 29.3413 50.643 29.058 51.1756 28.854C51.7083 28.65 52.2863 28.548 52.9096 28.548C53.669 28.548 54.3376 28.6897 54.9156 28.973C55.4936 29.245 55.9413 29.6303 56.2586 30.129C56.5873 30.6163 56.7516 31.1887 56.7516 31.846V38H54.6436V36.419L55.1196 36.385C54.8816 36.7817 54.5983 37.116 54.2696 37.388C53.941 37.6487 53.567 37.8527 53.1476 38C52.7283 38.136 52.2636 38.204 51.7536 38.204ZM58.47 38V25.131H60.697V38H58.47ZM65.2817 38V25.335H73.6967V27.375H67.5937V30.622H73.3567V32.662H67.5937V35.96H73.6967V38H65.2817ZM74.032 38L77.262 33.359L74.015 28.752H76.633L79.166 32.492H77.993L80.526 28.752H83.127L79.897 33.359L83.11 38H80.509L78.01 34.277H79.149L76.65 38H74.032ZM84.0045 41.4V28.752H86.0955V30.588L85.8915 30.129C86.2088 29.6303 86.6395 29.245 87.1835 28.973C87.7275 28.6897 88.3565 28.548 89.0705 28.548C89.9432 28.548 90.7308 28.7633 91.4335 29.194C92.1362 29.6247 92.6915 30.2027 93.0995 30.928C93.5188 31.6533 93.7285 32.4693 93.7285 33.376C93.7285 34.2713 93.5245 35.0873 93.1165 35.824C92.7085 36.5607 92.1532 37.1443 91.4505 37.575C90.7478 37.9943 89.9488 38.204 89.0535 38.204C88.3848 38.204 87.7672 38.0737 87.2005 37.813C86.6452 37.541 86.2032 37.1557 85.8745 36.657L86.2315 36.215V41.4H84.0045ZM88.7985 36.164C89.3085 36.164 89.7618 36.045 90.1585 35.807C90.5552 35.569 90.8612 35.2403 91.0765 34.821C91.3032 34.4017 91.4165 33.92 91.4165 33.376C91.4165 32.832 91.3032 32.356 91.0765 31.948C90.8612 31.5287 90.5552 31.2 90.1585 30.962C89.7618 30.7127 89.3085 30.588 88.7985 30.588C88.3112 30.588 87.8692 30.707 87.4725 30.945C87.0872 31.183 86.7812 31.5173 86.5545 31.948C86.3392 32.3673 86.2315 32.8433 86.2315 33.376C86.2315 33.92 86.3392 34.4017 86.5545 34.821C86.7812 35.2403 87.0872 35.569 87.4725 35.807C87.8692 36.045 88.3112 36.164 88.7985 36.164ZM99.4724 38.204C98.5204 38.204 97.6874 37.9887 96.9734 37.558C96.2594 37.1273 95.704 36.5437 95.3074 35.807C94.9107 35.0703 94.7124 34.2543 94.7124 33.359C94.7124 32.4297 94.9107 31.608 95.3074 30.894C95.7154 30.1687 96.265 29.5963 96.9564 29.177C97.659 28.7577 98.441 28.548 99.3024 28.548C100.028 28.548 100.662 28.667 101.206 28.905C101.762 29.143 102.232 29.4717 102.617 29.891C103.003 30.3103 103.297 30.792 103.501 31.336C103.705 31.8687 103.807 32.4467 103.807 33.07C103.807 33.2287 103.796 33.393 103.773 33.563C103.762 33.733 103.734 33.8803 103.688 34.005H96.5484V32.305H102.43L101.376 33.104C101.478 32.5827 101.45 32.118 101.291 31.71C101.144 31.302 100.895 30.979 100.543 30.741C100.203 30.503 99.7897 30.384 99.3024 30.384C98.8377 30.384 98.424 30.503 98.0614 30.741C97.6987 30.9677 97.421 31.3077 97.2284 31.761C97.047 32.203 96.979 32.7413 97.0244 33.376C96.979 33.9427 97.0527 34.447 97.2454 34.889C97.4494 35.3197 97.744 35.654 98.1294 35.892C98.526 36.13 98.9794 36.249 99.4894 36.249C99.9994 36.249 100.43 36.1413 100.781 35.926C101.144 35.7107 101.427 35.4217 101.631 35.059L103.433 35.943C103.252 36.385 102.969 36.776 102.583 37.116C102.198 37.456 101.739 37.7223 101.206 37.915C100.685 38.1077 100.107 38.204 99.4724 38.204ZM105.156 38V28.752H107.247V30.571L107.077 30.248C107.292 29.6927 107.643 29.2733 108.131 28.99C108.629 28.6953 109.207 28.548 109.865 28.548C110.545 28.548 111.145 28.6953 111.667 28.99C112.199 29.2847 112.613 29.6983 112.908 30.231C113.202 30.7523 113.35 31.3587 113.35 32.05V38H111.123V32.577C111.123 32.169 111.043 31.8177 110.885 31.523C110.726 31.2283 110.505 31.0017 110.222 30.843C109.95 30.673 109.627 30.588 109.253 30.588C108.89 30.588 108.567 30.673 108.284 30.843C108 31.0017 107.779 31.2283 107.621 31.523C107.462 31.8177 107.383 32.169 107.383 32.577V38H105.156ZM118.412 38.204C117.426 38.204 116.564 37.9717 115.828 37.507C115.102 37.031 114.604 36.3907 114.332 35.586L115.998 34.787C116.236 35.3083 116.564 35.7163 116.984 36.011C117.414 36.3057 117.89 36.453 118.412 36.453C118.82 36.453 119.143 36.3623 119.381 36.181C119.619 35.9997 119.738 35.7617 119.738 35.467C119.738 35.2857 119.687 35.1383 119.585 35.025C119.494 34.9003 119.364 34.7983 119.194 34.719C119.035 34.6283 118.859 34.5547 118.667 34.498L117.154 34.073C116.372 33.8463 115.777 33.5007 115.369 33.036C114.972 32.5713 114.774 32.0217 114.774 31.387C114.774 30.8203 114.915 30.3273 115.199 29.908C115.493 29.4773 115.896 29.143 116.406 28.905C116.927 28.667 117.522 28.548 118.191 28.548C119.063 28.548 119.834 28.7577 120.503 29.177C121.171 29.5963 121.647 30.1857 121.931 30.945L120.231 31.744C120.072 31.3247 119.806 30.9903 119.432 30.741C119.058 30.4917 118.638 30.367 118.174 30.367C117.8 30.367 117.505 30.452 117.29 30.622C117.074 30.792 116.967 31.013 116.967 31.285C116.967 31.455 117.012 31.6023 117.103 31.727C117.193 31.8517 117.318 31.9537 117.477 32.033C117.647 32.1123 117.839 32.186 118.055 32.254L119.534 32.696C120.293 32.9227 120.877 33.2627 121.285 33.716C121.704 34.1693 121.914 34.7247 121.914 35.382C121.914 35.9373 121.766 36.4303 121.472 36.861C121.177 37.2803 120.769 37.609 120.248 37.847C119.726 38.085 119.114 38.204 118.412 38.204ZM127.671 38.204C126.719 38.204 125.886 37.9887 125.172 37.558C124.458 37.1273 123.903 36.5437 123.506 35.807C123.109 35.0703 122.911 34.2543 122.911 33.359C122.911 32.4297 123.109 31.608 123.506 30.894C123.914 30.1687 124.464 29.5963 125.155 29.177C125.858 28.7577 126.64 28.548 127.501 28.548C128.226 28.548 128.861 28.667 129.405 28.905C129.96 29.143 130.431 29.4717 130.816 29.891C131.201 30.3103 131.496 30.792 131.7 31.336C131.904 31.8687 132.006 32.4467 132.006 33.07C132.006 33.2287 131.995 33.393 131.972 33.563C131.961 33.733 131.932 33.8803 131.887 34.005H124.747V32.305H130.629L129.575 33.104C129.677 32.5827 129.649 32.118 129.49 31.71C129.343 31.302 129.093 30.979 128.742 30.741C128.402 30.503 127.988 30.384 127.501 30.384C127.036 30.384 126.623 30.503 126.26 30.741C125.897 30.9677 125.62 31.3077 125.427 31.761C125.246 32.203 125.178 32.7413 125.223 33.376C125.178 33.9427 125.251 34.447 125.444 34.889C125.648 35.3197 125.943 35.654 126.328 35.892C126.725 36.13 127.178 36.249 127.688 36.249C128.198 36.249 128.629 36.1413 128.98 35.926C129.343 35.7107 129.626 35.4217 129.83 35.059L131.632 35.943C131.451 36.385 131.167 36.776 130.782 37.116C130.397 37.456 129.938 37.7223 129.405 37.915C128.884 38.1077 128.306 38.204 127.671 38.204Z" fill="#281D1B"/>
<path d="M229.991 37.5V27.45H226.901V26.325H234.251V27.45H231.191V37.5H229.991ZM235.567 37.5V26.145H236.692V31.02L236.437 30.96C236.637 30.44 236.962 30.03 237.412 29.73C237.872 29.43 238.402 29.28 239.002 29.28C239.572 29.28 240.082 29.41 240.532 29.67C240.992 29.93 241.352 30.29 241.612 30.75C241.882 31.2 242.017 31.71 242.017 32.28V37.5H240.892V32.715C240.892 32.225 240.802 31.81 240.622 31.47C240.442 31.13 240.192 30.87 239.872 30.69C239.562 30.5 239.207 30.405 238.807 30.405C238.407 30.405 238.047 30.5 237.727 30.69C237.407 30.87 237.152 31.135 236.962 31.485C236.782 31.825 236.692 32.235 236.692 32.715V37.5H235.567ZM244.166 37.5V29.46H245.291V37.5H244.166ZM244.166 27.975V26.325H245.291V27.975H244.166ZM250.383 37.68C249.613 37.68 248.938 37.485 248.358 37.095C247.778 36.705 247.358 36.175 247.098 35.505L248.043 35.055C248.273 35.545 248.593 35.935 249.003 36.225C249.423 36.515 249.883 36.66 250.383 36.66C250.863 36.66 251.268 36.545 251.598 36.315C251.928 36.075 252.093 35.765 252.093 35.385C252.093 35.105 252.013 34.885 251.853 34.725C251.693 34.555 251.508 34.425 251.298 34.335C251.088 34.245 250.903 34.18 250.743 34.14L249.588 33.81C248.848 33.6 248.313 33.305 247.983 32.925C247.653 32.545 247.488 32.105 247.488 31.605C247.488 31.135 247.608 30.725 247.848 30.375C248.088 30.025 248.413 29.755 248.823 29.565C249.233 29.375 249.688 29.28 250.188 29.28C250.868 29.28 251.483 29.46 252.033 29.82C252.593 30.17 252.988 30.66 253.218 31.29L252.258 31.74C252.058 31.29 251.768 30.94 251.388 30.69C251.018 30.43 250.603 30.3 250.143 30.3C249.693 30.3 249.333 30.415 249.063 30.645C248.793 30.875 248.658 31.165 248.658 31.515C248.658 31.785 248.728 32 248.868 32.16C249.008 32.32 249.168 32.44 249.348 32.52C249.538 32.6 249.703 32.66 249.843 32.7L251.178 33.09C251.828 33.28 252.333 33.575 252.693 33.975C253.063 34.375 253.248 34.845 253.248 35.385C253.248 35.825 253.123 36.22 252.873 36.57C252.633 36.92 252.298 37.195 251.868 37.395C251.438 37.585 250.943 37.68 250.383 37.68ZM257.939 37.5V26.325H258.989L263.189 32.415H262.604L266.789 26.325H267.839V37.5H266.639V27.945L267.029 28.095L262.919 34.05H262.859L258.764 28.095L259.139 27.945V37.5H257.939ZM274.078 37.68C273.318 37.68 272.628 37.5 272.008 37.14C271.388 36.77 270.893 36.27 270.523 35.64C270.163 35 269.983 34.275 269.983 33.465C269.983 32.665 270.163 31.95 270.523 31.32C270.883 30.69 271.368 30.195 271.978 29.835C272.598 29.465 273.298 29.28 274.078 29.28C274.858 29.28 275.553 29.46 276.163 29.82C276.783 30.18 277.268 30.675 277.618 31.305C277.978 31.935 278.158 32.655 278.158 33.465C278.158 34.285 277.973 35.015 277.603 35.655C277.233 36.285 276.738 36.78 276.118 37.14C275.508 37.5 274.828 37.68 274.078 37.68ZM274.078 36.555C274.618 36.555 275.103 36.42 275.533 36.15C275.973 35.88 276.318 35.51 276.568 35.04C276.828 34.57 276.958 34.045 276.958 33.465C276.958 32.885 276.828 32.365 276.568 31.905C276.318 31.445 275.973 31.08 275.533 30.81C275.103 30.54 274.618 30.405 274.078 30.405C273.538 30.405 273.048 30.54 272.608 30.81C272.178 31.08 271.833 31.445 271.573 31.905C271.313 32.365 271.183 32.885 271.183 33.465C271.183 34.045 271.313 34.57 271.573 35.04C271.833 35.51 272.178 35.88 272.608 36.15C273.048 36.42 273.538 36.555 274.078 36.555ZM280.142 37.5V29.46H281.267V31.02L281.012 30.96C281.212 30.44 281.537 30.03 281.987 29.73C282.447 29.43 282.977 29.28 283.577 29.28C284.147 29.28 284.657 29.41 285.107 29.67C285.567 29.93 285.927 30.29 286.187 30.75C286.457 31.2 286.592 31.71 286.592 32.28V37.5H285.467V32.715C285.467 32.225 285.377 31.81 285.197 31.47C285.027 31.13 284.782 30.87 284.462 30.69C284.152 30.5 283.792 30.405 283.382 30.405C282.972 30.405 282.607 30.5 282.287 30.69C281.967 30.87 281.717 31.135 281.537 31.485C281.357 31.825 281.267 32.235 281.267 32.715V37.5H280.142ZM291.816 37.59C291.096 37.59 290.541 37.38 290.151 36.96C289.761 36.54 289.566 35.94 289.566 35.16V30.585H288.081V29.46H288.456C288.796 29.46 289.066 29.35 289.266 29.13C289.466 28.9 289.566 28.615 289.566 28.275V27.6H290.691V29.46H292.461V30.585H290.691V35.16C290.691 35.43 290.731 35.67 290.811 35.88C290.891 36.08 291.026 36.24 291.216 36.36C291.416 36.48 291.681 36.54 292.011 36.54C292.091 36.54 292.186 36.535 292.296 36.525C292.406 36.515 292.501 36.505 292.581 36.495V37.5C292.461 37.53 292.326 37.55 292.176 37.56C292.026 37.58 291.906 37.59 291.816 37.59ZM294.556 37.5V26.145H295.681V31.02L295.426 30.96C295.626 30.44 295.951 30.03 296.401 29.73C296.861 29.43 297.391 29.28 297.991 29.28C298.561 29.28 299.071 29.41 299.521 29.67C299.981 29.93 300.341 30.29 300.601 30.75C300.871 31.2 301.006 31.71 301.006 32.28V37.5H299.881V32.715C299.881 32.225 299.791 31.81 299.611 31.47C299.431 31.13 299.181 30.87 298.861 30.69C298.551 30.5 298.196 30.405 297.796 30.405C297.396 30.405 297.036 30.5 296.716 30.69C296.396 30.87 296.141 31.135 295.951 31.485C295.771 31.825 295.681 32.235 295.681 32.715V37.5H294.556Z" fill="#2E1814" fill-opacity="0.62"/>
<path d="M37.246 93L25.448 83.65V79.57H34.968C35.8067 79.57 36.532 79.4113 37.144 79.094C37.756 78.754 38.232 78.2893 38.572 77.7C38.912 77.1107 39.082 76.4307 39.082 75.66C39.082 74.8667 38.912 74.1867 38.572 73.62C38.232 73.0307 37.756 72.5773 37.144 72.26C36.532 71.92 35.8067 71.75 34.968 71.75H25.448V67.67H45.746V70.526H39.966L41.122 69.608C41.938 70.3107 42.5727 71.172 43.026 72.192C43.4793 73.1893 43.706 74.3453 43.706 75.66C43.706 77.3373 43.3207 78.7767 42.55 79.978C41.802 81.1567 40.7707 82.0633 39.456 82.698C38.1413 83.3327 36.6227 83.65 34.9 83.65H30.344L30.786 82.358L44.046 93H37.246ZM25.448 77.054V74.232H45.746V77.054H25.448ZM51.5106 93V71.614H46.6146V67.67H56.1346V93H51.5106ZM68.7595 93.408C67.4222 93.408 66.1415 93.1587 64.9175 92.66C63.7162 92.1613 62.6735 91.4587 61.7895 90.552C60.9282 89.6227 60.3388 88.5233 60.0215 87.254L64.0335 85.826C64.4188 86.982 65.0422 87.8433 65.9035 88.41C66.7648 88.954 67.7168 89.226 68.7595 89.226C69.6208 89.226 70.3802 89.0447 71.0375 88.682C71.7175 88.2967 72.2388 87.7753 72.6015 87.118C72.9642 86.438 73.1455 85.656 73.1455 84.772C73.1455 83.888 72.9528 83.1173 72.5675 82.46C72.2048 81.8027 71.6948 81.2927 71.0375 80.93C70.3802 80.5447 69.6208 80.352 68.7595 80.352C67.8755 80.352 67.0708 80.5447 66.3455 80.93C65.6428 81.3153 65.1328 81.8707 64.8155 82.596L61.0415 81.746L63.0475 67.67H76.8515V71.58H64.8835L66.6175 69.574L65.1895 80.182L63.8635 79.094C64.4982 78.1647 65.2688 77.4847 66.1755 77.054C67.1048 76.6233 68.2268 76.408 69.5415 76.408C71.2188 76.408 72.6695 76.7707 73.8935 77.496C75.1402 78.2213 76.1035 79.2073 76.7835 80.454C77.4635 81.7007 77.8035 83.14 77.8035 84.772C77.8035 86.404 77.4068 87.8773 76.6135 89.192C75.8202 90.5067 74.7435 91.538 73.3835 92.286C72.0235 93.034 70.4822 93.408 68.7595 93.408ZM82.4015 98.304V96.094C83.1495 95.9127 83.7501 95.5613 84.2035 95.04C84.6795 94.5413 84.9741 93.8613 85.0875 93H83.0815V88.24H87.5695V91.164C87.5695 93.1587 87.1275 94.7567 86.2435 95.958C85.3821 97.1593 84.1015 97.9413 82.4015 98.304ZM102.408 93.408C100.39 93.408 98.6225 92.864 97.1038 91.776C95.5851 90.688 94.3951 89.158 93.5338 87.186C92.6951 85.214 92.2758 82.9247 92.2758 80.318C92.2758 77.6887 92.6951 75.3993 93.5338 73.45C94.3725 71.5007 95.5511 69.982 97.0698 68.894C98.5885 67.806 100.356 67.262 102.374 67.262C104.436 67.262 106.216 67.806 107.712 68.894C109.23 69.982 110.42 71.512 111.282 73.484C112.143 75.4333 112.574 77.7113 112.574 80.318C112.574 82.9247 112.143 85.214 111.282 87.186C110.443 89.1353 109.264 90.6653 107.746 91.776C106.227 92.864 104.448 93.408 102.408 93.408ZM102.442 89.192C103.598 89.192 104.584 88.8407 105.4 88.138C106.216 87.4127 106.839 86.3927 107.27 85.078C107.723 83.7407 107.95 82.154 107.95 80.318C107.95 78.482 107.723 76.9067 107.27 75.592C106.839 74.2547 106.204 73.2347 105.366 72.532C104.55 71.8293 103.552 71.478 102.374 71.478C101.24 71.478 100.266 71.8293 99.4498 72.532C98.6338 73.2347 97.9991 74.2547 97.5458 75.592C97.1151 76.9067 96.8998 78.482 96.8998 80.318C96.8998 82.1313 97.1151 83.7067 97.5458 85.044C97.9991 86.3587 98.6338 87.3787 99.4498 88.104C100.288 88.8293 101.286 89.192 102.442 89.192ZM125.8 93.408C123.783 93.408 122.015 92.864 120.496 91.776C118.977 90.688 117.787 89.158 116.926 87.186C116.087 85.214 115.668 82.9247 115.668 80.318C115.668 77.6887 116.087 75.3993 116.926 73.45C117.765 71.5007 118.943 69.982 120.462 68.894C121.981 67.806 123.749 67.262 125.766 67.262C127.829 67.262 129.608 67.806 131.104 68.894C132.623 69.982 133.813 71.512 134.674 73.484C135.535 75.4333 135.966 77.7113 135.966 80.318C135.966 82.9247 135.535 85.214 134.674 87.186C133.835 89.1353 132.657 90.6653 131.138 91.776C129.619 92.864 127.84 93.408 125.8 93.408ZM125.834 89.192C126.99 89.192 127.976 88.8407 128.792 88.138C129.608 87.4127 130.231 86.3927 130.662 85.078C131.115 83.7407 131.342 82.154 131.342 80.318C131.342 78.482 131.115 76.9067 130.662 75.592C130.231 74.2547 129.597 73.2347 128.758 72.532C127.942 71.8293 126.945 71.478 125.766 71.478C124.633 71.478 123.658 71.8293 122.842 72.532C122.026 73.2347 121.391 74.2547 120.938 75.592C120.507 76.9067 120.292 78.482 120.292 80.318C120.292 82.1313 120.507 83.7067 120.938 85.044C121.391 86.3587 122.026 87.3787 122.842 88.104C123.681 88.8293 124.678 89.192 125.834 89.192ZM149.192 93.408C147.175 93.408 145.407 92.864 143.888 91.776C142.37 90.688 141.18 89.158 140.318 87.186C139.48 85.214 139.06 82.9247 139.06 80.318C139.06 77.6887 139.48 75.3993 140.318 73.45C141.157 71.5007 142.336 69.982 143.854 68.894C145.373 67.806 147.141 67.262 149.158 67.262C151.221 67.262 153 67.806 154.496 68.894C156.015 69.982 157.205 71.512 158.066 73.484C158.928 75.4333 159.358 77.7113 159.358 80.318C159.358 82.9247 158.928 85.214 158.066 87.186C157.228 89.1353 156.049 90.6653 154.53 91.776C153.012 92.864 151.232 93.408 149.192 93.408ZM149.226 89.192C150.382 89.192 151.368 88.8407 152.184 88.138C153 87.4127 153.624 86.3927 154.054 85.078C154.508 83.7407 154.734 82.154 154.734 80.318C154.734 78.482 154.508 76.9067 154.054 75.592C153.624 74.2547 152.989 73.2347 152.15 72.532C151.334 71.8293 150.337 71.478 149.158 71.478C148.025 71.478 147.05 71.8293 146.234 72.532C145.418 73.2347 144.784 74.2547 144.33 75.592C143.9 76.9067 143.684 78.482 143.684 80.318C143.684 82.1313 143.9 83.7067 144.33 85.044C144.784 86.3587 145.418 87.3787 146.234 88.104C147.073 88.8293 148.07 89.192 149.226 89.192Z" fill="#281D1B"/>
<path d="M23 158C23 144.193 34.1929 133 48 133H133.5C147.307 133 158.5 144.193 158.5 158C158.5 171.807 147.307 183 133.5 183H48C34.1929 183 23 171.807 23 158Z" fill="#14A99C" fill-opacity="0.18"/>
<path d="M42.8755 164.5L47.4145 151.835H49.3865L53.9255 164.5H52.1405L51.1035 161.525H45.6975L44.6605 164.5H42.8755ZM46.2245 159.995H50.5765L48.1625 153.042H48.6385L46.2245 159.995ZM59.1673 164.704C58.306 164.704 57.5297 164.494 56.8383 164.075C56.1583 163.656 55.62 163.083 55.2233 162.358C54.8267 161.633 54.6283 160.822 54.6283 159.927C54.6283 159.009 54.8267 158.193 55.2233 157.479C55.62 156.754 56.1583 156.181 56.8383 155.762C57.5297 155.343 58.306 155.133 59.1673 155.133C59.9267 155.133 60.601 155.297 61.1903 155.626C61.7797 155.943 62.2443 156.374 62.5843 156.918L62.3293 157.309V151.631H63.9273V164.5H62.3803V162.545L62.5843 162.817C62.267 163.418 61.8023 163.882 61.1903 164.211C60.5897 164.54 59.9153 164.704 59.1673 164.704ZM59.3033 163.174C59.8813 163.174 60.397 163.032 60.8503 162.749C61.3037 162.466 61.6607 162.08 61.9213 161.593C62.1933 161.094 62.3293 160.539 62.3293 159.927C62.3293 159.304 62.1933 158.748 61.9213 158.261C61.6607 157.762 61.3037 157.371 60.8503 157.088C60.397 156.805 59.8813 156.663 59.3033 156.663C58.7367 156.663 58.221 156.81 57.7563 157.105C57.303 157.388 56.946 157.774 56.6853 158.261C56.4247 158.737 56.2943 159.292 56.2943 159.927C56.2943 160.539 56.4247 161.094 56.6853 161.593C56.946 162.08 57.303 162.466 57.7563 162.749C58.2097 163.032 58.7253 163.174 59.3033 163.174ZM70.5394 164.704C69.6781 164.704 68.9017 164.494 68.2104 164.075C67.5304 163.656 66.9921 163.083 66.5954 162.358C66.1987 161.633 66.0004 160.822 66.0004 159.927C66.0004 159.009 66.1987 158.193 66.5954 157.479C66.9921 156.754 67.5304 156.181 68.2104 155.762C68.9017 155.343 69.6781 155.133 70.5394 155.133C71.2987 155.133 71.9731 155.297 72.5624 155.626C73.1517 155.943 73.6164 156.374 73.9564 156.918L73.7014 157.309V151.631H75.2994V164.5H73.7524V162.545L73.9564 162.817C73.6391 163.418 73.1744 163.882 72.5624 164.211C71.9617 164.54 71.2874 164.704 70.5394 164.704ZM70.6754 163.174C71.2534 163.174 71.7691 163.032 72.2224 162.749C72.6757 162.466 73.0327 162.08 73.2934 161.593C73.5654 161.094 73.7014 160.539 73.7014 159.927C73.7014 159.304 73.5654 158.748 73.2934 158.261C73.0327 157.762 72.6757 157.371 72.2224 157.088C71.7691 156.805 71.2534 156.663 70.6754 156.663C70.1087 156.663 69.5931 156.81 69.1284 157.105C68.6751 157.388 68.3181 157.774 68.0574 158.261C67.7967 158.737 67.6664 159.292 67.6664 159.927C67.6664 160.539 67.7967 161.094 68.0574 161.593C68.3181 162.08 68.6751 162.466 69.1284 162.749C69.5817 163.032 70.0974 163.174 70.6754 163.174ZM80.8719 164.5V151.835H89.1169V153.365H82.5379V157.377H88.7769V158.907H82.5379V162.97H89.1169V164.5H80.8719ZM89.9575 164.5L93.1705 159.91L89.9745 155.337H91.8785L94.6155 159.315H93.6465L96.3495 155.337H98.2705L95.0745 159.91L98.2535 164.5H96.3495L93.6465 160.522H94.5985L91.8955 164.5H89.9575ZM99.6771 167.9V155.337H101.224V157.309L101.02 156.918C101.36 156.374 101.825 155.943 102.414 155.626C103.003 155.297 103.678 155.133 104.437 155.133C105.298 155.133 106.069 155.343 106.749 155.762C107.44 156.181 107.984 156.754 108.381 157.479C108.778 158.193 108.976 159.009 108.976 159.927C108.976 160.822 108.778 161.633 108.381 162.358C107.984 163.083 107.44 163.656 106.749 164.075C106.069 164.494 105.293 164.704 104.42 164.704C103.683 164.704 103.009 164.54 102.397 164.211C101.796 163.882 101.332 163.418 101.003 162.817L101.258 162.545V167.9H99.6771ZM104.301 163.174C104.879 163.174 105.395 163.032 105.848 162.749C106.301 162.466 106.653 162.08 106.902 161.593C107.163 161.094 107.293 160.539 107.293 159.927C107.293 159.292 107.163 158.737 106.902 158.261C106.653 157.774 106.301 157.388 105.848 157.105C105.395 156.81 104.879 156.663 104.301 156.663C103.723 156.663 103.202 156.805 102.737 157.088C102.284 157.371 101.921 157.762 101.649 158.261C101.388 158.748 101.258 159.304 101.258 159.927C101.258 160.539 101.388 161.094 101.649 161.593C101.921 162.08 102.284 162.466 102.737 162.749C103.202 163.032 103.723 163.174 104.301 163.174ZM115.265 164.704C114.381 164.704 113.594 164.494 112.902 164.075C112.211 163.656 111.667 163.083 111.27 162.358C110.874 161.621 110.675 160.8 110.675 159.893C110.675 158.975 110.868 158.159 111.253 157.445C111.65 156.731 112.183 156.17 112.851 155.762C113.531 155.343 114.291 155.133 115.129 155.133C115.809 155.133 116.41 155.258 116.931 155.507C117.464 155.745 117.912 156.074 118.274 156.493C118.648 156.901 118.932 157.371 119.124 157.904C119.328 158.425 119.43 158.969 119.43 159.536C119.43 159.661 119.419 159.802 119.396 159.961C119.385 160.108 119.368 160.25 119.345 160.386H111.831V159.026H118.427L117.679 159.638C117.781 159.049 117.725 158.522 117.509 158.057C117.294 157.592 116.977 157.224 116.557 156.952C116.138 156.68 115.662 156.544 115.129 156.544C114.597 156.544 114.109 156.68 113.667 156.952C113.225 157.224 112.88 157.615 112.63 158.125C112.392 158.624 112.296 159.219 112.341 159.91C112.296 160.579 112.398 161.168 112.647 161.678C112.908 162.177 113.271 162.568 113.735 162.851C114.211 163.123 114.727 163.259 115.282 163.259C115.894 163.259 116.41 163.117 116.829 162.834C117.249 162.551 117.589 162.188 117.849 161.746L119.175 162.426C118.994 162.845 118.711 163.231 118.325 163.582C117.951 163.922 117.504 164.194 116.982 164.398C116.472 164.602 115.9 164.704 115.265 164.704ZM121.492 164.5V155.337H123.039V157.122L122.784 156.969C123.01 156.391 123.373 155.943 123.872 155.626C124.382 155.297 124.977 155.133 125.657 155.133C126.314 155.133 126.898 155.28 127.408 155.575C127.929 155.87 128.337 156.278 128.632 156.799C128.938 157.32 129.091 157.91 129.091 158.567V164.5H127.493V159.077C127.493 158.567 127.402 158.136 127.221 157.785C127.039 157.434 126.779 157.162 126.439 156.969C126.11 156.765 125.73 156.663 125.3 156.663C124.869 156.663 124.484 156.765 124.144 156.969C123.815 157.162 123.554 157.439 123.362 157.802C123.169 158.153 123.073 158.578 123.073 159.077V164.5H121.492ZM131.999 164.5V162.46H133.648V164.5H131.999ZM135.399 164.5V162.46H137.048V164.5H135.399ZM138.799 164.5V162.46H140.448V164.5H138.799Z" fill="#281D1B"/>
<path d="M166.5 158C166.5 144.193 177.693 133 191.5 133H277C290.807 133 302 144.193 302 158C302 171.807 290.807 183 277 183H191.5C177.693 183 166.5 171.807 166.5 158Z" fill="#14A99C" fill-opacity="0.18"/>
<path d="M189.512 164.5L184.939 151.835H186.724L190.6 162.97H190.243L194.119 151.835H195.904L191.348 164.5H189.512ZM197.315 164.5V155.337H198.896V164.5H197.315ZM197.315 153.875V151.835H198.896V153.875H197.315ZM205.565 164.704C204.681 164.704 203.894 164.494 203.202 164.075C202.511 163.656 201.967 163.083 201.57 162.358C201.174 161.621 200.975 160.8 200.975 159.893C200.975 158.975 201.168 158.159 201.553 157.445C201.95 156.731 202.483 156.17 203.151 155.762C203.831 155.343 204.591 155.133 205.429 155.133C206.109 155.133 206.71 155.258 207.231 155.507C207.764 155.745 208.212 156.074 208.574 156.493C208.948 156.901 209.232 157.371 209.424 157.904C209.628 158.425 209.73 158.969 209.73 159.536C209.73 159.661 209.719 159.802 209.696 159.961C209.685 160.108 209.668 160.25 209.645 160.386H202.131V159.026H208.727L207.979 159.638C208.081 159.049 208.025 158.522 207.809 158.057C207.594 157.592 207.277 157.224 206.857 156.952C206.438 156.68 205.962 156.544 205.429 156.544C204.897 156.544 204.409 156.68 203.967 156.952C203.525 157.224 203.18 157.615 202.93 158.125C202.692 158.624 202.596 159.219 202.641 159.91C202.596 160.579 202.698 161.168 202.947 161.678C203.208 162.177 203.571 162.568 204.035 162.851C204.511 163.123 205.027 163.259 205.582 163.259C206.194 163.259 206.71 163.117 207.129 162.834C207.549 162.551 207.889 162.188 208.149 161.746L209.475 162.426C209.294 162.845 209.011 163.231 208.625 163.582C208.251 163.922 207.804 164.194 207.282 164.398C206.772 164.602 206.2 164.704 205.565 164.704ZM213.9 164.5L210.755 155.337H212.506L215.005 163.004L214.393 162.987L216.841 155.337H218.337L220.785 162.987L220.173 163.004L222.689 155.337H224.423L221.278 164.5H219.765L217.351 156.85H217.827L215.413 164.5H213.9ZM228.962 164.5V151.835H233.11C234.391 151.835 235.507 152.096 236.459 152.617C237.411 153.138 238.148 153.875 238.669 154.827C239.191 155.768 239.451 156.878 239.451 158.159C239.451 159.428 239.191 160.539 238.669 161.491C238.148 162.443 237.411 163.185 236.459 163.718C235.507 164.239 234.391 164.5 233.11 164.5H228.962ZM230.628 162.97H233.127C234.068 162.97 234.878 162.772 235.558 162.375C236.25 161.978 236.782 161.423 237.156 160.709C237.53 159.984 237.717 159.134 237.717 158.159C237.717 157.173 237.525 156.323 237.139 155.609C236.765 154.895 236.233 154.345 235.541 153.96C234.861 153.563 234.057 153.365 233.127 153.365H230.628V162.97ZM245.592 164.704C244.708 164.704 243.92 164.494 243.229 164.075C242.538 163.656 241.994 163.083 241.597 162.358C241.2 161.621 241.002 160.8 241.002 159.893C241.002 158.975 241.195 158.159 241.58 157.445C241.977 156.731 242.509 156.17 243.178 155.762C243.858 155.343 244.617 155.133 245.456 155.133C246.136 155.133 246.737 155.258 247.258 155.507C247.791 155.745 248.238 156.074 248.601 156.493C248.975 156.901 249.258 157.371 249.451 157.904C249.655 158.425 249.757 158.969 249.757 159.536C249.757 159.661 249.746 159.802 249.723 159.961C249.712 160.108 249.695 160.25 249.672 160.386H242.158V159.026H248.754L248.006 159.638C248.108 159.049 248.051 158.522 247.836 158.057C247.621 157.592 247.303 157.224 246.884 156.952C246.465 156.68 245.989 156.544 245.456 156.544C244.923 156.544 244.436 156.68 243.994 156.952C243.552 157.224 243.206 157.615 242.957 158.125C242.719 158.624 242.623 159.219 242.668 159.91C242.623 160.579 242.725 161.168 242.974 161.678C243.235 162.177 243.597 162.568 244.062 162.851C244.538 163.123 245.054 163.259 245.609 163.259C246.221 163.259 246.737 163.117 247.156 162.834C247.575 162.551 247.915 162.188 248.176 161.746L249.502 162.426C249.321 162.845 249.037 163.231 248.652 163.582C248.278 163.922 247.83 164.194 247.309 164.398C246.799 164.602 246.227 164.704 245.592 164.704ZM255.541 164.602C254.646 164.602 253.955 164.347 253.467 163.837C252.991 163.327 252.753 162.607 252.753 161.678V156.85H251.087V155.337H251.427C251.835 155.337 252.158 155.212 252.396 154.963C252.634 154.714 252.753 154.385 252.753 153.977V153.229H254.334V155.337H256.391V156.85H254.334V161.627C254.334 161.933 254.38 162.199 254.47 162.426C254.572 162.653 254.737 162.834 254.963 162.97C255.19 163.095 255.49 163.157 255.864 163.157C255.944 163.157 256.04 163.151 256.153 163.14C256.278 163.129 256.391 163.117 256.493 163.106V164.5C256.346 164.534 256.182 164.557 256 164.568C255.819 164.591 255.666 164.602 255.541 164.602ZM261.128 164.704C260.528 164.704 259.995 164.596 259.53 164.381C259.077 164.154 258.72 163.848 258.459 163.463C258.199 163.066 258.068 162.613 258.068 162.103C258.068 161.616 258.17 161.179 258.374 160.794C258.59 160.397 258.918 160.063 259.36 159.791C259.814 159.519 260.38 159.326 261.06 159.213L264.46 158.652V159.978L261.417 160.488C260.828 160.59 260.397 160.777 260.125 161.049C259.865 161.321 259.734 161.655 259.734 162.052C259.734 162.426 259.882 162.738 260.176 162.987C260.482 163.236 260.862 163.361 261.315 163.361C261.893 163.361 262.392 163.242 262.811 163.004C263.242 162.755 263.576 162.42 263.814 162.001C264.064 161.582 264.188 161.117 264.188 160.607V158.278C264.188 157.779 264.001 157.377 263.627 157.071C263.265 156.754 262.783 156.595 262.182 156.595C261.661 156.595 261.196 156.731 260.788 157.003C260.392 157.264 260.097 157.615 259.904 158.057L258.527 157.343C258.697 156.924 258.969 156.55 259.343 156.221C259.717 155.881 260.154 155.615 260.652 155.422C261.151 155.229 261.672 155.133 262.216 155.133C262.919 155.133 263.537 155.269 264.069 155.541C264.602 155.802 265.016 156.17 265.31 156.646C265.616 157.111 265.769 157.655 265.769 158.278V164.5H264.222V162.766L264.511 162.868C264.319 163.231 264.058 163.548 263.729 163.82C263.401 164.092 263.015 164.307 262.573 164.466C262.131 164.625 261.65 164.704 261.128 164.704ZM268.221 164.5V155.337H269.802V164.5H268.221ZM268.221 153.875V151.835H269.802V153.875H268.221ZM272.255 164.5V151.631H273.836V164.5H272.255ZM279.57 164.704C278.652 164.704 277.853 164.477 277.173 164.024C276.493 163.571 276.011 162.959 275.728 162.188L276.986 161.576C277.247 162.12 277.604 162.551 278.057 162.868C278.51 163.185 279.015 163.344 279.57 163.344C280.069 163.344 280.482 163.225 280.811 162.987C281.14 162.749 281.304 162.437 281.304 162.052C281.304 161.78 281.225 161.565 281.066 161.406C280.919 161.236 280.737 161.106 280.522 161.015C280.307 160.913 280.108 160.839 279.927 160.794L278.55 160.403C277.723 160.165 277.116 159.825 276.731 159.383C276.357 158.941 276.17 158.425 276.17 157.836C276.17 157.292 276.306 156.822 276.578 156.425C276.861 156.017 277.241 155.7 277.717 155.473C278.204 155.246 278.748 155.133 279.349 155.133C280.154 155.133 280.873 155.337 281.508 155.745C282.154 156.153 282.613 156.725 282.885 157.462L281.593 158.057C281.389 157.581 281.083 157.207 280.675 156.935C280.267 156.652 279.808 156.51 279.298 156.51C278.833 156.51 278.465 156.629 278.193 156.867C277.921 157.094 277.785 157.383 277.785 157.734C277.785 157.995 277.853 158.21 277.989 158.38C278.125 158.539 278.289 158.663 278.482 158.754C278.675 158.833 278.862 158.901 279.043 158.958L280.539 159.4C281.287 159.615 281.865 159.95 282.273 160.403C282.692 160.856 282.902 161.4 282.902 162.035C282.902 162.545 282.76 163.004 282.477 163.412C282.194 163.82 281.803 164.137 281.304 164.364C280.805 164.591 280.227 164.704 279.57 164.704Z" fill="#281D1B"/>
</g>
<defs>
<filter id="filter0_d_40008448_8281" x="0" y="0" width="325" height="208" filterUnits="userSpaceOnUse" color-interpolation-filters="sRGB">
<feFlood flood-opacity="0" result="BackgroundImageFix"/>
<feColorMatrix in="SourceAlpha" type="matrix" values="0 0 0 0 0 0 0 0 0 0 0 0 0 0 0 0 0 0 127 0" result="hardAlpha"/>
<feOffset dy="2"/>
<feGaussianBlur stdDeviation="3.5"/>
<feComposite in2="hardAlpha" operator="out"/>
<feColorMatrix type="matrix" values="0 0 0 0 0 0 0 0 0 0 0 0 0 0 0 0 0 0 0.08 0"/>
<feBlend mode="normal" in2="BackgroundImageFix" result="effect1_dropShadow_40008448_8281"/>
<feBlend mode="normal" in="SourceGraphic" in2="effect1_dropShadow_40008448_8281" result="shape"/>
</filter>
</defs>
</svg>
