<?xml version="1.0" encoding="UTF-8"?>
<svg id="Layer_1" data-name="Layer 1" xmlns="http://www.w3.org/2000/svg" viewBox="0 0 64 64">
  <defs>
    <style>
      .cls-1 {
        fill: #4ea69c;
      }

      .cls-2 {
        fill: #00746b;
        opacity: .1;
      }
    </style>
  </defs>
  <rect class="cls-2" x="0" width="64" height="64"/>
  <g>
    <path class="cls-1" d="M19.38,31c.48-6.24,5.55-11.24,11.79-11.63,3.44-.22,6.79.98,9.32,3.27l-2.23.29c-.18.02-.35.12-.46.27-.11.15-.16.33-.14.52l.03.21c.05.35.35.61.69.61.03,0,.06,0,.09,0l3.43-.45c.7-.09,1.2-.74,1.1-1.44l-.45-3.43c-.05-.38-.4-.66-.78-.6l-.21.03c-.18.02-.35.12-.46.27s-.16.33-.14.52l.26,1.98c-2.78-2.41-6.42-3.66-10.13-3.42-6.94.44-12.57,6-13.1,12.92-.19,2.47.27,4.95,1.33,7.16.12.25.37.4.63.4.1,0,.2-.02.3-.07.35-.17.5-.58.33-.93-.95-1.99-1.37-4.22-1.2-6.45Z"/>
    <path class="cls-1" d="M44.69,25.94c-.17-.35-.59-.5-.93-.33-.35.17-.5.58-.33.93.95,1.99,1.37,4.22,1.2,6.45-.48,6.24-5.55,11.24-11.79,11.63-3.55.22-7.02-1.05-9.58-3.5l2.29-.3c.38-.05.65-.4.6-.79-.05-.38-.4-.66-.79-.6l-3.42.45c-.31.04-.59.2-.78.45-.19.25-.28.56-.23.87l.45,3.42c.05.35.35.61.69.61.03,0,.06,0,.09,0,.38-.05.65-.4.6-.79l-.28-2.15c2.6,2.4,6.01,3.75,9.55,3.75.3,0,.6,0,.9-.03,6.94-.44,12.57-6,13.1-12.92.19-2.47-.27-4.95-1.33-7.17Z"/>
    <path class="cls-1" d="M24.35,33.37c-.27.15-.46.4-.54.7s-.04.61.12.88l1.48,2.57c.15.27.4.46.7.54.3.08.61.04.9-.13.49-.28,1.07-.28,1.56,0,.49.28.78.79.78,1.38,0,.64.52,1.16,1.16,1.16h2.97c.64,0,1.16-.52,1.16-1.18,0-.57.29-1.07.78-1.35.49-.28,1.07-.28,1.58.01.27.15.58.2.88.12.3-.08.55-.27.7-.54l1.48-2.57c.15-.27.2-.58.12-.88-.08-.3-.27-.55-.56-.71-.49-.28-.78-.79-.78-1.35s.29-1.07.8-1.37c.55-.32.74-1.03.42-1.58h0s-1.48-2.57-1.48-2.57c-.32-.55-1.03-.74-1.6-.41-.49.28-1.07.28-1.56,0-.49-.28-.78-.79-.78-1.38,0-.64-.52-1.16-1.16-1.16h-2.97c-.64,0-1.16.52-1.16,1.18,0,.57-.29,1.07-.78,1.35-.49.28-1.07.28-1.58-.01-.27-.15-.58-.2-.88-.12-.3.08-.55.27-.7.54l-1.48,2.57c-.15.27-.2.58-.12.88.08.3.27.55.56.71.49.28.78.79.78,1.35s-.29,1.07-.8,1.37ZM26.56,32c0-.99-.47-1.89-1.3-2.45l1.25-2.16c.89.43,1.91.4,2.77-.1.86-.5,1.4-1.35,1.47-2.35h2.5c.07.98.61,1.85,1.47,2.35.86.5,1.87.53,2.77.1l1.25,2.16c-.81.55-1.29,1.45-1.29,2.45s.47,1.89,1.3,2.45l-1.25,2.16c-.89-.43-1.91-.4-2.77.1-.86.5-1.4,1.35-1.47,2.35h-2.5c-.07-.98-.61-1.85-1.47-2.35-.86-.49-1.87-.53-2.77-.1l-1.25-2.16c.81-.55,1.29-1.45,1.29-2.45Z"/>
    <path class="cls-1" d="M32,35.47c1.91,0,3.47-1.56,3.47-3.47s-1.56-3.47-3.47-3.47-3.47,1.56-3.47,3.47,1.56,3.47,3.47,3.47ZM32,29.93c1.14,0,2.07.93,2.07,2.07s-.93,2.07-2.07,2.07-2.07-.93-2.07-2.07.93-2.07,2.07-2.07Z"/>
  </g>
</svg>