<?xml version="1.0" encoding="UTF-8"?>
<svg id="Layer_1" data-name="Layer 1" xmlns="http://www.w3.org/2000/svg" xmlns:xlink="http://www.w3.org/1999/xlink" viewBox="0 0 64 64">
  <defs>
    <style>
      .cls-1 {
        fill: url(#linear-gradient-2);
      }

      .cls-2 {
        fill: url(#linear-gradient);
      }
    </style>
    <linearGradient id="linear-gradient" x1="32" y1="15.38" x2="32" y2="48.8" gradientUnits="userSpaceOnUse">
      <stop offset="0" stop-color="#76e7dd"/>
      <stop offset="1" stop-color="#367971"/>
    </linearGradient>
    <linearGradient id="linear-gradient-2" x1="32.14" y1="15.38" x2="32.14" y2="48.8" xlink:href="#linear-gradient"/>
  </defs>
  <path class="cls-2" d="M40.48,19.94c.17.21.3,1.03.48,1.4.74,1.5,1.69,1.69,3.18,1.92,1.11.16.84,1.43.82,2.3-.06,2.99-.11,6-.07,9-1.1,3.89-4.31,7.16-7.66,9.27-1.11.7-4.17,2.36-5.41,2.23-1.14-.12-3.33-1.21-4.37-1.8-3.89-2.19-8.15-6.58-8.43-11.27-.17-2.87.13-5.9,0-8.79.1-1.07,1.02-.86,1.79-1.05,1.04-.25,1.89-.98,2.25-2,.34-.95,0-1.15,1.14-1.48,2.5-.7,5.1-1.09,7.61-1.74l8.17,1.73c.13.04.39.18.47.27ZM43.19,24.95c-1.45-.19-2.82-1.18-3.57-2.42-.15-.24-.46-1.08-.61-1.16l-6.91-1.59-7.2,1.62c-.66,1.82-2.08,3.33-4.08,3.55v8.18c.37,4.64,6.34,9.75,10.59,10.95.8.23,1.19.04,1.95-.25,3.94-1.51,9.53-6.05,9.85-10.55v-8.32Z"/>
  <path class="cls-1" d="M35.1,24.19l2.8,4.56c1.16.73,2.83,1.02,3.31,2.46.21.62.22,2.84.14,3.54-.11.96-.87.8-1.62.82-.53,1.72-2.59,2.48-4.07,1.4-.53-.39-.72-.83-1.01-1.4h-4.34c-.71,2.12-3.28,2.57-4.64.76-.19-.25-.26-.52-.44-.76-.76-.11-2.17.36-2.29-.75-.1-.92-.09-3.71.23-4.52s.87-1.19,1.57-1.61c.8-1.25,1.35-2.95,2.15-4.16.26-.39.43-.49.9-.52,2.2-.15,4.58.12,6.81,0l.51.17ZM29.38,25.8h-1.1l-1.38,2.69,2.48-.07v-2.62ZM34.02,25.8h-2.87v2.62l4.46.07-1.59-2.69ZM24.71,31.01v2.8c.85.15.75-.25,1.17-.71,1.29-1.42,3.5-.93,4.34.71h4.51c.38-.43.65-.91,1.16-1.19,1.28-.72,2.96-.26,3.64,1.05h.1c.1-.01-.03-.09-.03-.11v-1.77c0-.12-.35-.34-.45-.4-.28-.18-2.07-1.1-2.28-1.12-3.82.06-7.67-.11-11.46.09-.22.05-.64.46-.69.66ZM28.62,34.88c0-.46-.37-.83-.83-.83s-.83.37-.83.83.37.83.83.83.83-.37.83-.83ZM38.02,34.88c0-.45-.36-.81-.81-.81s-.81.36-.81.81.36.81.81.81.81-.36.81-.81Z"/>
</svg>