<?xml version="1.0" encoding="UTF-8"?>
<svg id="Layer_1" data-name="Layer 1" xmlns="http://www.w3.org/2000/svg" xmlns:xlink="http://www.w3.org/1999/xlink" viewBox="0 0 64 64">
  <defs>
    <style>
      .cls-1 {
        fill: url(#linear-gradient-2);
      }

      .cls-2 {
        fill: url(#linear-gradient);
      }
    </style>
    <linearGradient id="linear-gradient" x1="32" y1="15.19" x2="32" y2="46.88" gradientUnits="userSpaceOnUse">
      <stop offset="0" stop-color="#76e7dd"/>
      <stop offset="1" stop-color="#367971"/>
    </linearGradient>
    <linearGradient id="linear-gradient-2" x1="31.98" y1="15.19" x2="31.98" y2="46.88" xlink:href="#linear-gradient"/>
  </defs>
  <path class="cls-2" d="M32.32,17.94l10.91,4.6c.73.38,1.05.86,1.11,1.69.14,1.88.03,4.6-.23,6.47-.83,6.08-4.68,11.41-9.95,14.43-.65.37-1.33.77-2.07.92-.09,0-.19.01-.27,0-1.26-.17-4.17-2.26-5.19-3.13-4.93-4.24-6.88-9.52-7-15.95-.02-.86-.13-2.92.23-3.62.14-.26.39-.46.6-.67l11.14-4.75h.71ZM21.51,24.21c-.11,2.46-.17,5.04.35,7.46,1.17,5.46,5.04,10.2,10.08,12.55h.11c4.76-2.28,8.61-6.73,9.91-11.89.59-2.35.7-5.3.58-7.72,0-.09,0-.32-.05-.38l-10.47-4.51-10.5,4.5Z"/>
  <path class="cls-1" d="M28.42,32.44c-.31.21-.57.54-.88.74-1.93,1.21-4.06-1.32-2.28-3.04.5-.48,2.36-2.14,2.89-2.39.26-.12.55-.18.82-.25-1-1.63-.65-3.75.92-4.88,3.22-2.32,7.21,1.57,5.13,4.88.15.05.32.05.47.11.5.19,2.86,2.14,3.32,2.61,1.54,1.55-.26,4.1-2.22,3.04l-.97-.7v1.35c0,1.13,1.16,2.63,1.51,3.71.61,1.89-1.54,3.49-3.15,2.27-.56-.43-1.16-1.77-1.52-2.44-.15-.28-.3-.58-.41-.88-.13-.03-.09.02-.12.07-.55.84-1.14,2.76-1.91,3.3-1.66,1.18-3.76-.56-3.08-2.48.3-.85,1.49-2.7,1.49-3.5v-1.51ZM33.85,25.52c0-1.03-.84-1.87-1.87-1.87s-1.87.84-1.87,1.87.84,1.87,1.87,1.87,1.87-.84,1.87-1.87ZM29.23,28.99c-1.11.53-1.95,1.59-2.95,2.32-.33.34-.1.76.38.6l2.17-1.84c.48-.19,1.05.04,1.13.59.13.91-.18,2.06.13,2.95.55,1.62,2.9,1.78,3.69.26.51-.97.1-2.29.25-3.31.08-.5.74-.74,1.15-.44l2.19,1.82c.29.18.61-.19.48-.48-.03-.06-.33-.34-.41-.41-.57-.53-1.41-1.24-2.04-1.7-.19-.14-.36-.28-.6-.34h-5.56ZM30.5,36.01c-.4-.05-.68-.38-.99-.6l-1.25,2.79c-.06.51.41.77.85.55l1.39-2.73ZM34.46,35.46l-.93.68,1.29,2.51c.38.4.95.07.89-.45l-1.25-2.73Z"/>
</svg>