<?xml version="1.0" encoding="UTF-8"?>
<svg id="Layer_1" data-name="Layer 1" xmlns="http://www.w3.org/2000/svg" viewBox="0 0 64 64">
  <defs>
    <style>
      .cls-1 {
        fill: #14a99c;
      }

      .cls-2 {
        fill: #00746b;
        opacity: .1;
      }
    </style>
  </defs>
  <rect class="cls-2" x="0" width="64" height="64"/>
  <path class="cls-1" d="M35.83,34.23c2.9-1.45,4.76-4.45,4.76-7.69,0-4.74-3.86-8.6-8.6-8.6s-8.6,3.86-8.6,8.6c0,3.25,1.86,6.25,4.76,7.69-4.78,1.56-8.18,5.95-8.48,10.98-.01.22.06.43.21.59.15.16.35.25.58.25.41,0,.76-.32.79-.74.33-5.67,5.05-10.11,10.74-10.11s10.41,4.44,10.74,10.11c.02.41.37.74.79.74.22,0,.42-.09.58-.25.15-.16.23-.37.21-.59-.3-5.03-3.7-9.42-8.48-10.98ZM39.02,26.54c0,3.87-3.15,7.02-7.02,7.02s-7.02-3.15-7.02-7.02,3.15-7.02,7.02-7.02,7.02,3.15,7.02,7.02Z"/>
</svg>