<?xml version="1.0" encoding="UTF-8"?>
<svg id="Layer_1" data-name="Layer 1" xmlns="http://www.w3.org/2000/svg" viewBox="0 0 64 64">
  <defs>
    <style>
      .cls-1 {
        fill: #4ea69c;
      }

      .cls-2 {
        fill: #00746b;
        opacity: .1;
      }
    </style>
  </defs>
  <rect class="cls-2" x="0" width="64" height="64"/>
  <path class="cls-1" d="M26.11,17.94h.18c.25.06.54.04.8.07.39.04.8.13,1.18.23,2.16.6,3.98,2.04,5.05,4.01,1.06,1.91,1.21,4.15.62,6.23.09.13.23.24.34.35l.58.57c.43.42.85.86,1.28,1.29l6,6c.65.64,1.3,1.29,1.94,1.94.38.38.8.74,1.1,1.18.4.58.66,1.25.71,1.96.08,1.05-.22,2.11-.91,2.92-.69.81-1.61,1.28-2.67,1.36-.8.06-1.65-.09-2.34-.51-.43-.26-.75-.61-1.11-.96-.56-.55-1.1-1.11-1.66-1.67l-6.29-6.26-1.68-1.68c-.29-.29-.57-.6-.87-.87-.03-.03-.08-.07-.12-.08-.07-.01-.47.1-.57.12-.3.06-.61.09-.91.11-2.11.16-4.2-.54-5.79-1.94-1.7-1.47-2.71-3.39-2.87-5.64-.08-1.08.05-2.22.42-3.24.08-.23.17-.47.33-.65.16-.19.41-.35.66-.36.12,0,.27.02.37.08.15.1.28.25.41.38.29.28.58.57.86.86l2.48,2.47c.23.22.45.46.68.68.28.28.69.39,1.07.28.11-.03.22-.06.32-.09.15-.04.31-.07.46-.11.4-.09.72-.4.83-.8.01-.05.02-.09.04-.14.05-.19.1-.38.16-.57.11-.38,0-.8-.29-1.08s-.55-.56-.83-.84l-1.23-1.23-1.51-1.51c-.23-.23-.48-.46-.7-.7-.07-.08-.17-.17-.2-.27-.07-.21-.03-.46.08-.65.3-.54,2.05-1.02,2.65-1.12.19-.03.39-.05.58-.06.11-.01.24-.01.35-.04,0,0,0,0,.01,0ZM26.19,19.75c-.19,0-1.14.04-1.25.15.05.11.99,1.01,1.13,1.15.63.64,1.27,1.27,1.91,1.9l.67.66c.16.15.33.3.46.48.08.11.15.29.17.43.01.12,0,.24-.02.36-.05.22-.13.45-.19.67-.13.49-.27.97-.42,1.46-.08.26-.12.53-.21.78-.08.22-.21.44-.43.55-.2.1-.45.13-.67.18l-1.05.25-1.25.31c-.18.04-.36.11-.55.13-.12.02-.25,0-.36-.03-.22-.08-.87-.8-1.07-1l-2.45-2.47c-.09-.09-.59-.67-.65-.68-.12.15-.12,1.36-.1,1.6.11,1.28.61,2.49,1.41,3.48.3.36.63.69.99.98,1.22,1.02,2.91,1.59,4.49,1.44.7-.07,1.35-.24,2-.48.21.13.41.38.59.56l.94.94,2.89,2.86c.66.66,1.31,1.34,1.98,1.99.59.56,1.15,1.15,1.72,1.73l2.31,2.29.79.79c.25.26.5.53.8.72.37.23.86.35,1.29.34.58-.02,1.07-.24,1.47-.66.41-.44.62-1,.6-1.6-.02-.47-.17-.87-.44-1.25-.12-.17-.27-.3-.41-.45-.27-.27-.55-.52-.82-.79l-2.12-2.07c-2.11-2.08-4.2-4.18-6.29-6.28l-1.35-1.36c-.22-.22-.51-.44-.68-.7-.1-.15-.12-.32-.09-.49.03-.22.13-.43.21-.64.05-.12.08-.25.11-.38.31-1.28.22-2.62-.26-3.84-.35-.89-.94-1.71-1.64-2.35-1.14-1.05-2.63-1.63-4.18-1.64Z"/>
</svg>