<?xml version="1.0" encoding="UTF-8"?>
<svg id="Layer_1" data-name="Layer 1" xmlns="http://www.w3.org/2000/svg" viewBox="0 0 64 64">
  <defs>
    <style>
      .cls-1 {
        fill: #4ea69c;
      }

      .cls-2 {
        fill: #00746b;
        opacity: .1;
      }
    </style>
  </defs>
  <rect class="cls-2" x="0" width="64" height="64"/>
  <g>
    <circle class="cls-1" cx="30.71" cy="39.91" r="2.6"/>
    <path class="cls-1" d="M31.13,37.34l8-9.1s.6-.14.55.44l-6.7,9.96-1.51.26-.34-1.56Z"/>
    <path class="cls-1" d="M52.29,37.08v2.38c-.03.76-.07,1.55-.14,2.37-.06.67-.13,1.31-.21,1.93-.13.28-.43.86-1.08,1.31-.51.35-1.12.59-1.64.64H15.01c-2.06-.14-2.44-1.87-2.85-3.56l-.43-2.93c.03-.68-.04-1.38,0-2.06.59-9.61,8.68-17.76,18.2-18.78,11.11-1.18,21.58,7.56,22.38,18.7ZM30.9,20.59c-2.25.09-4.43.74-6.49,1.59.13,1,2.02,2.64.78,3.51-1.53,1.08-2.03-1.58-2.81-2.32-1.88,1.16-3.42,2.75-4.79,4.46.47.61,2.07,1.61,2.14,2.38.07.81-.66,1.38-1.44,1.19-.39-.09-1.18-1.01-1.54-1.31-.08-.07-.45-.37-.51-.32-1.17,2.3-2.04,4.69-2.22,7.29h2.65c.5,0,1.05.66,1.06,1.16.01.39-.42,1.14-.82,1.14h-2.89c.15,1.09.25,2.21.58,3.27.08.27.17.79.49.85h33.6c.61.08.72-.9.84-1.38,1.06-4.18.3-8.62-1.79-12.34-.97.46-1.74,2.34-3,1.57-.47-.29-.61-1.12-.33-1.57.22-.35,2.01-1.88,2.01-2.03-1.33-1.73-2.97-3.21-4.8-4.39-.69.52-.96,2.31-1.89,2.45-.69.1-1.37-.42-1.3-1.14.04-.47,1.27-2.32,1.18-2.43-2.04-.91-4.23-1.64-6.5-1.67v2.34c0,.36-.71.82-1.07.84-.34.01-1.15-.44-1.15-.76v-2.42Z"/>
    <path class="cls-1" d="M50.34,37.39h-3.07c-.16.03-.48.1-.78.32-.08.06-.26.2-.39.43-.03.06-.23.45-.08.84.17.42.73.72,1.39.71h2.92s0-2.3,0-2.3Z"/>
  </g>
</svg>