<?xml version="1.0" encoding="UTF-8"?>
<svg id="Layer_1" data-name="Layer 1" xmlns="http://www.w3.org/2000/svg" viewBox="0 0 64 64">
  <defs>
    <style>
      .cls-1 {
        fill: #4ea69c;
      }

      .cls-2 {
        fill: #00746b;
        opacity: .1;
      }
    </style>
  </defs>
  <rect class="cls-2" width="64" height="64"/>
  <path class="cls-1" d="M36.13,31.17c.46,0,.83.37.83.83s-.37.83-.83.83h-.83c-1.37,0-2.48,1.11-2.48,2.48s1.11,2.48,2.48,2.48h6.62c2.28,0,4.13,1.85,4.13,4.13s-1.85,4.13-4.14,4.13h-13.24c-.46,0-.83-.37-.83-.83s.37-.83.83-.83h13.24c1.37,0,2.48-1.11,2.48-2.48s-1.11-2.48-2.48-2.48h-6.62c-2.28,0-4.13-1.85-4.13-4.13s1.85-4.13,4.13-4.13h.83ZM40.77,32.24c-.3.23-.72.23-1.02,0-.05-.04-.13-.1-.24-.19-.18-.15-.38-.32-.59-.52-.61-.55-1.21-1.17-1.78-1.84-1.66-1.97-2.68-3.98-2.68-5.95,0-3.2,2.59-5.79,5.79-5.79s5.79,2.59,5.79,5.79c0,1.98-1.01,3.99-2.68,5.95-.57.67-1.17,1.29-1.78,1.84-.21.19-.41.37-.59.52-.11.09-.19.16-.24.19ZM40.48,30.31c.56-.51,1.11-1.08,1.63-1.69,1.44-1.7,2.29-3.38,2.29-4.89,0-2.28-1.85-4.13-4.13-4.13s-4.13,1.85-4.13,4.13c0,1.5.85,3.19,2.29,4.89.52.61,1.08,1.18,1.63,1.69.07.07.15.13.22.2.07-.06.14-.13.22-.2ZM40.27,26.21c-1.37,0-2.48-1.11-2.48-2.48s1.11-2.48,2.48-2.48,2.48,1.11,2.48,2.48-1.11,2.48-2.48,2.48ZM40.27,24.56c.46,0,.83-.37.83-.83s-.37-.83-.83-.83-.83.37-.83.83.37.83.83.83ZM24.24,45.88c-.3.23-.72.23-1.02,0-.05-.04-.13-.1-.24-.19-.18-.15-.38-.32-.59-.52-.61-.55-1.21-1.17-1.78-1.84-1.66-1.97-2.68-3.98-2.68-5.95,0-3.2,2.59-5.79,5.79-5.79s5.79,2.59,5.79,5.79c0,1.98-1.01,3.99-2.68,5.95-.57.67-1.17,1.29-1.78,1.84-.21.19-.41.37-.59.52-.11.09-.19.16-.24.19ZM23.94,43.95c.56-.51,1.11-1.08,1.63-1.69,1.44-1.7,2.29-3.38,2.29-4.89,0-2.28-1.85-4.13-4.13-4.13s-4.13,1.85-4.13,4.13c0,1.5.85,3.19,2.29,4.89.52.61,1.08,1.18,1.63,1.69.07.07.15.13.22.2.07-.06.14-.13.22-.2h0ZM23.73,39.86c-1.37,0-2.48-1.11-2.48-2.48s1.11-2.48,2.48-2.48,2.48,1.11,2.48,2.48-1.11,2.48-2.48,2.48ZM23.73,38.2c.46,0,.83-.37.83-.83s-.37-.83-.83-.83-.83.37-.83.83.37.83.83.83Z"/>
</svg>