<?xml version="1.0" encoding="UTF-8"?>
<svg id="Layer_1" data-name="Layer 1" xmlns="http://www.w3.org/2000/svg" xmlns:xlink="http://www.w3.org/1999/xlink" viewBox="0 0 64 64">
  <defs>
    <style>
      .cls-1 {
        fill: url(#linear-gradient-5);
      }

      .cls-2 {
        fill: url(#linear-gradient-4);
      }

      .cls-3 {
        fill: url(#linear-gradient-3);
      }

      .cls-4 {
        fill: url(#linear-gradient-2);
      }

      .cls-5 {
        fill: url(#linear-gradient);
      }
    </style>
    <linearGradient id="linear-gradient" x1="32" y1="15.2" x2="32" y2="45.98" gradientUnits="userSpaceOnUse">
      <stop offset="0" stop-color="#76e7dd"/>
      <stop offset="1" stop-color="#367971"/>
    </linearGradient>
    <linearGradient id="linear-gradient-2" x1="32.73" y1="15.2" x2="32.73" y2="45.98" xlink:href="#linear-gradient"/>
    <linearGradient id="linear-gradient-3" x1="32.73" x2="32.73" y2="45.98" xlink:href="#linear-gradient"/>
    <linearGradient id="linear-gradient-4" x1="26.69" y1="15.2" x2="26.69" y2="45.98" xlink:href="#linear-gradient"/>
    <linearGradient id="linear-gradient-5" x1="38.04" y1="15.2" x2="38.04" y2="45.98" xlink:href="#linear-gradient"/>
  </defs>
  <path class="cls-5" d="M43.48,21.95c-3.88-.28-7.63-1.58-10.85-3.76l-.17-.11c-.28-.19-.64-.19-.92,0l-.17.11c-3.22,2.18-6.97,3.48-10.85,3.76-.43.03-.77.39-.77.82v6.35c0,7.59,4.81,14.38,11.97,16.89.17.06.37.06.55,0,7.16-2.51,11.97-9.3,11.97-16.89v-6.35c0-.43-.33-.79-.76-.82h0ZM42.6,29.12c0,6.79-4.25,12.88-10.6,15.24-6.35-2.36-10.6-8.44-10.6-15.24v-5.59c3.78-.39,7.42-1.69,10.6-3.77,3.18,2.08,6.82,3.38,10.6,3.77v5.59Z"/>
  <path class="cls-4" d="M27.51,36.39c0,.32,0,1.3.74,1.82,1.28.91,3.23-.56,4.47-.56s3.19,1.47,4.47.56c.74-.53.74-1.5.74-1.82,0-2.6-2.54-5.66-5.22-5.66s-5.22,3.06-5.22,5.66ZM36.3,36.39c0,.28-.04.42-.06.47-.25.03-.94-.21-1.36-.36-1.91-.67-2.38-.67-4.3,0-.42.15-1.11.39-1.36.36-.02-.05-.06-.19-.06-.47,0-1.84,1.93-4.01,3.57-4.01s3.57,2.17,3.57,4.01h0Z"/>
  <path class="cls-3" d="M30.15,26.51c0,1.54,1.16,2.8,2.58,2.8s2.58-1.26,2.58-2.8-1.16-2.8-2.58-2.8-2.58,1.26-2.58,2.8ZM33.66,26.51c0,.64-.42,1.15-.93,1.15s-.93-.52-.93-1.15.42-1.15.93-1.15.93.52.93,1.15Z"/>
  <path class="cls-2" d="M28.54,27.45c-1.09-1.12-2.79-1.2-3.8-.22-1.02.99-.98,2.7.09,3.81,1.08,1.12,2.78,1.2,3.8.22,1.02-.99.98-2.7-.09-3.81h0ZM27.49,30.08c-.33.32-.99.32-1.47-.18-.66-.69-.4-1.7.45-1.7.33,0,.65.16.89.4.44.46.5,1.12.13,1.48h0Z"/>
  <path class="cls-1" d="M39.9,31.04c1.07-1.11,1.12-2.82.09-3.81-1.02-.99-2.72-.9-3.8.22-1.07,1.11-1.12,2.82-.09,3.81,1.06,1.02,2.76.86,3.8-.22h0ZM37.37,28.6c.48-.5,1.14-.5,1.47-.18.37.36.31,1.02-.13,1.48-.48.5-1.14.5-1.47.18-.37-.36-.31-1.02.13-1.48Z"/>
</svg>