<?xml version="1.0" encoding="UTF-8"?>
<svg id="Layer_1" data-name="Layer 1" xmlns="http://www.w3.org/2000/svg" xmlns:xlink="http://www.w3.org/1999/xlink" viewBox="0 0 64 64">
  <defs>
    <style>
      .cls-1 {
        fill: url(#linear-gradient);
      }
    </style>
    <linearGradient id="linear-gradient" x1="32" y1="16.92" x2="32" y2="48.4" gradientUnits="userSpaceOnUse">
      <stop offset="0" stop-color="#76e7dd"/>
      <stop offset="1" stop-color="#367971"/>
    </linearGradient>
  </defs>
  <path class="cls-1" d="M17.72,25.31c.44-5.81,7.04-9.15,12.08-6.25.87.5,1.51,1.17,2.24,1.83.86-.9,1.81-1.73,2.96-2.24,7.19-3.19,14.33,4.96,10,11.63-.63.97-1.45,1.78-2.31,2.55.55.6,1.24,1.05,1.48,1.87.52,1.81-.75,3.41-2.59,3.47-.06,1.55-1.25,2.84-2.85,2.79-.03,2.03-2.13,3.25-3.93,2.35-1.38,1.32-2.57,3.45-4.81,2.51-.96-.4-1.58-1.38-1.65-2.4-.22-.09-.47-.03-.69-.07-1.28-.22-2.22-1.32-2.27-2.62-1.5-.03-2.79-1.06-2.79-2.63-1.95,0-3.29-1.72-2.65-3.63.26-.76.92-1.08,1.36-1.7-1.38-1.31-2.67-2.66-3.24-4.53-.12-.4-.3-1.08-.33-1.48s-.03-1.06,0-1.45ZM34.99,36.14c.89.88,2.04,2.17,2.97,2.93,1.05.85,2.4-.12,1.94-1.27-.13-.33-1.15-1.23-1.47-1.55-1.64-1.68-3.34-3.32-4.99-5.01-.47-.76.47-1.56,1.14-.98,1.75,1.7,3.46,3.43,5.22,5.11.4.39.91,1.12,1.46,1.22,1.08.18,1.91-.92,1.22-1.83l-8.01-7.97c-.13-.03-1.52,1.53-1.73,1.74-.61.61-1.52,1.64-2.29,1.95-2.84,1.14-5.35-2.15-3.49-4.55l3.88-3.88c.05-.05.06-.08.03-.14-.08-.16-.93-.91-1.12-1.06-4.75-3.71-11.62.62-10.34,6.55.41,1.91,1.65,3.09,3.03,4.35,1.47-1.35,3.87-.47,4.31,1.44.04.18.04.67.14.78.29.15.61.16.92.28.79.31,1.26.97,1.55,1.74l5.84,5.78c1.07.86,2.49-.3,1.78-1.5l-6.11-6.13c-.24-.28-.21-.86.09-1.09.62-.49,1.1.09,1.51.5.85.85,1.67,1.73,2.53,2.58ZM29.48,25.63c-.43.44-1.26,1.07-1.48,1.62-.58,1.45,1.18,2.57,2.33,1.55l3.72-3.77c.28-.2.72-.15.98.08l6.56,6.57c2.66-2,4-5.08,2.61-8.31-1.68-3.89-6.85-5.19-10.09-2.37-1.58,1.38-3.14,3.11-4.62,4.62ZM24.02,32.59c-.28.02-.45.13-.66.29-.33.26-1.71,1.64-1.89,1.96-.6,1.08.52,2.16,1.62,1.56.3-.16,1.48-1.39,1.75-1.71.38-.45.62-.78.37-1.38-.19-.48-.68-.77-1.19-.73ZM26.47,35.5c-.17.03-.35.13-.49.24-.29.22-1.64,1.6-1.76,1.87-.5,1.13.79,2.1,1.76,1.42.21-.15,1.67-1.68,1.76-1.87.42-.89-.31-1.83-1.27-1.66ZM29.36,38.14c-.08-.06-.16-.11-.23-.19l-.03.03c-.6.98-2.93,2.12-1.9,3.47.52.67,1.32.49,1.86-.03.22-.21,1.34-1.33,1.42-1.49.09-.19.11-.46,0-.65-.08-.15-.95-.99-1.13-1.13ZM31.94,40.74c-.51.58-1.27,1.13-1.74,1.73-.96,1.21.41,2.58,1.53,1.81.27-.19,1.32-1.25,1.54-1.53.1-.12.32-.4.2-.53l-1.53-1.47Z"/>
</svg>