<?xml version="1.0" encoding="UTF-8"?>
<svg id="Layer_1" data-name="Layer 1" xmlns="http://www.w3.org/2000/svg" viewBox="0 0 64 64">
  <defs>
    <style>
      .cls-1 {
        fill: #4ea69c;
      }

      .cls-2 {
        fill: #00746b;
        opacity: .1;
      }
    </style>
  </defs>
  <rect class="cls-2" width="64" height="64"/>
  <g>
    <path class="cls-1" d="M51.22,32.09c-.07-2.99-.14-6.07-.02-9.03l-.09-1.98c-.08-1.49-1.71-2.77-3.08-2.88l-32.38.03c-1.69.37-2.82,1.68-2.95,3.45.02,2.61,0,5.26,0,7.83v.24c-.02,4.33-.04,8.8.1,13.24.41,1.61,1.66,2.69,3.29,2.81,4.06-.03,8.11-.02,12.17,0h.38c2.38.01,4.76.02,7.14.02,5.09,0,9.01-.04,12.69-.13h.07c1.71-.52,2.56-1.71,2.67-3.76.17-3.21.09-6.56.02-9.83ZM48.94,21.36v2.44h-5.71l-1.44-3.42h.82s1.49,0,1.49,0h.51c.28,0,.58.01.72.01h1.46c.29,0,.58,0,.87,0,.35,0,1.29.46,1.29.97ZM48.94,25.99v16.41c0,.37-.32.68-.51.84-.16.13-.66.46-1.08.38h-.04s-30.89,0-30.89,0h-.08c-.44,0-1.37-.46-1.37-.98v-16.64h33.97ZM14.97,23.8v-2.36c0-.44.69-.92,1.02-.97.58-.09,1.34-.1,1.94-.1h1.48c.18,0,.35,0,.51,0h.15c.3-.02.67-.07,1.02.23l1.41,3.2h-7.54ZM25.09,23.8l-.09-.17c-.37-.72-.79-1.53-1.16-2.4-.12-.26-.22-.52-.07-.72l.07-.09h.11c.06-.01.15-.01.25-.01h1.2c.2.01.38,0,.49,0,.23-.02.43-.03.63-.03l.62-.02c.5-.02,1.04-.04,1.56-.04s.92.02,1.28.06c.16.02.33.06.42.27l1.39,3.15h-6.71ZM34.24,23.8l-1.44-3.42,2.65.03c.24,0,.49-.02.76-.03h.07c.52-.03,1.08-.06,1.61-.06.45,0,.81.02,1.16.06.08,0,.25.02.39.23l1.33,3.19h-6.53Z"/>
    <path class="cls-1" d="M25.87,35.97c.02.82.03,1.63.04,2.43,0,.74.04,1.47.07,2.28v.16c.02.38.47.56.88.56.19,0,.39-.04.54-.11,1.57-.97,3.3-1.84,4.98-2.69,1.75-.88,3.56-1.79,5.17-2.81.49-.31.77-.69.77-1.07,0-.45-.38-.78-.63-.95l-10.45-5.7c-.34-.12-.81-.03-1.08.22-.18.17-.31.57-.32.84-.07,2.15-.02,4.48.02,6.53v.32ZM28.02,38.4v-7.36l6.84,3.68-6.84,3.68Z"/>
  </g>
</svg>