<?xml version="1.0" encoding="UTF-8"?>
<svg id="Layer_1" data-name="Layer 1" xmlns="http://www.w3.org/2000/svg" viewBox="0 0 64 64">
  <defs>
    <style>
      .cls-1 {
        fill: #4ea69c;
      }

      .cls-2 {
        fill: #00746b;
        opacity: .1;
      }
    </style>
  </defs>
  <rect class="cls-2" width="64" height="64"/>
  <g>
    <path class="cls-1" d="M38.26,24.19h6.5c.85,0,1.65.66,2.14,1.33,1.78,2.45,3.17,5.46,4.96,7.94.12.34.35.77.38,1.12.17,1.96-.13,4.2,0,6.19-.14.59-.29,1.08-.67,1.55-1.31,1.63-3.02,1.09-4.82,1.18-.11,1.74-1.36,3.36-2.95,3.85-2.6.79-5.22-1.07-5.49-3.89h-12.71c-.31,2.95-2.99,4.78-5.7,3.81-1.46-.52-2.66-2.12-2.69-3.77-1.39-.06-2.89.27-4.1-.62-.81-.59-1.25-1.49-1.4-2.5v-17.94c.3-1.64,1.44-2.81,3.05-2.92,1.31-.09,2.72.08,4.05,0,1.9-2.36,4.61-3.45,7.53-2.91,1.93.36,3.51,1.43,4.78,2.96.76.01,1.52.02,2.28.01,1.44-.01,2.59-.28,3.8.81.52.47,1.07,1.43,1.07,2.16v1.65ZM30.7,24.81c0-3.36-2.58-6.09-5.77-6.09s-5.77,2.72-5.77,6.09,2.58,6.09,5.77,6.09,5.77-2.72,5.77-6.09ZM25.24,41.19h10.85s.06.09.07.02c.02-5.7-.03-11.4,0-17.1,0-.52.12-1.22-.08-1.73-.12-.28-.58-.65-.87-.65h-2.96c1.29,3.58.24,7.56-2.69,9.82-3.93,3.04-9.36,1.62-11.62-2.86-1.09-2.16-1.16-4.74-.32-7.01-.71.11-1.41-.04-2.12,0-.76.04-1.6.11-1.7,1.11-.15,1.6,0,3.35,0,4.96.01,3.74,0,7.48,0,11.21,0,.42-.06.82,0,1.27.07.52.42.88.91.96h2.83c1.7-3.24,5.95-3.14,7.69,0ZM38.26,26.45v14.76c.05.1.36.1.41.07.02-.01.19-.38.24-.46,1.56-2.44,4.79-2.87,6.71-.64.26.31.43.71.65.98.05.06.09.11.16.12.85-.05,1.77.07,2.61,0s1.16-.57,1.14-1.43h-1.93s-.34-.08-.41-.11c-.61-.24-.83-1.15-.47-1.71.1-.15.49-.49.65-.49h2.1l.07-.07v-2.36c-.2-.17-.52-.03-.77-.02-.94.03-1.86-.06-2.8-.05-1.83,0-3.91.2-5.73.05-.66-.05-1.1-.35-1.23-1.06.1-1.51-.13-3.18,0-4.67.04-.48.28-.99.75-1.12.07-.02.38-.08.43-.08h5.15l-1.06-1.67c-.14-.01-.27-.04-.4-.05-1.69-.1-3.44.02-5.12.05-.38,0-.76,0-1.14-.05ZM47.28,30.43h-5.47v2.41h7.03s-1.4-2.28-1.4-2.28c-.03-.04-.11-.12-.16-.13ZM44.54,43.12c0-1.19-.92-2.16-2.05-2.16s-2.05.97-2.05,2.16.92,2.16,2.05,2.16,2.05-.97,2.05-2.16ZM23.42,43.18c0-1.18-.91-2.14-2.03-2.14s-2.03.96-2.03,2.14.91,2.14,2.03,2.14,2.03-.96,2.03-2.14Z"/>
    <path class="cls-1" d="M20.04,34.92h9.72c1.47.13,1.54,2.05.14,2.34h-9.78c-1.43-.07-1.5-2.19-.08-2.34Z"/>
    <path class="cls-1" d="M25.87,24.09h1.19c.39,0,.88.41.94.82.12.76-.27,1.28-.99,1.34-.49.04-2.14.06-2.54-.07s-.62-.57-.65-.98c-.08-.96-.07-2.67,0-3.64.06-.85.76-1.32,1.51-.95.27.14.54.59.54.9v2.58Z"/>
  </g>
</svg>