<?xml version="1.0" encoding="UTF-8"?>
<svg id="Layer_1" data-name="Layer 1" xmlns="http://www.w3.org/2000/svg" viewBox="0 0 64 64">
  <defs>
    <style>
      .cls-1 {
        fill: #31726b;
        opacity: .1;
      }

      .cls-2 {
        fill: #4ea49b;
      }
    </style>
  </defs>
  <rect class="cls-1" x="0" width="64" height="64"/>
  <g>
    <path class="cls-2" d="M41.01,23.91c-1.63-3.31-4.61-5.76-8.16-6.73-.58-.15-1.19-.27-1.79-.35-.27-.03-.64,0-.89-.09h-1.34s-.02,0-.02,0c-.14.06-.39.04-.55.06-.15.02-.3.04-.46.06-.58.09-1.17.22-1.74.38-3.53,1.01-6.63,3.61-8.15,6.97-.41.92-.77,1.93-.94,2.92-.06.29-.1.58-.13.86-.02.2-.02.4-.06.6,0,.04,0,.09-.03.13v1.57c.06.11.11.81.14.99.11.74.27,1.46.5,2.17.1.3.22.58.34.87,1.19,2.89,3.38,5.25,6.17,6.64,1.79.91,3.95,1.38,5.96,1.26.21,0,.67,0,.86-.07.02-.02,1.37-.22,1.36-.25-.02-.14-.23-.55-.26-.69-.1-.35-.12-.7-.15-1.07l-1.3.3c-1.31.12-2.63-.06-3.9-.4-1.8-.5-3.43-1.48-4.73-2.81-.2-.2-.41-.41-.59-.62-.53-.63-.97-1.33-1.38-2.05.25.02.51,0,.77,0h10.43c.22,0,2.01.02,2.23,0,.14-.18,2.73-.37,2.86-.55.29-.4-.87-.83-.51-1.16-.33-.02-3.21,0-3.54-.02v-3.1c0-.49.02-.99,0-1.47-.02-.44-.2-.81-.53-1.1-.19-.17-.43-.3-.68-.36-.36-.08-1.03-.03-1.43-.03-.36,0-.73-.02-1.09,0-.43.02-.82.2-1.11.53-.2.22-.33.47-.38.77s-.04.61-.03.9v3c0,.3-.02.6,0,.89-.41-.02-.82,0-1.24-.02-.02-.66.02-1.32-.02-1.97-.02-.42-.19-.76-.5-1.03-.18-.17-.4-.29-.64-.34-.4-.1-1.01-.05-1.42-.05s-.81-.02-1.21,0c-.41.03-.78.21-1.05.53-.49.58-.39,1.22-.39,1.93,0,.3-.02.62,0,.94-.42,0-.84,0-1.26-.02-.06-.29-.16-.57-.22-.86-.22-1.04-.31-2.1-.24-3.16.22-2.88,1.55-5.56,3.72-7.46.47-.42.98-.81,1.51-1.14.47-.3.95-.54,1.46-.75,1.71-.74,3.41-.98,5.26-.86,2.74.19,5.7,1.4,7.5,3.47,1.97,2.23,3.15,5.16,2.54,9.45.54.06,1.11.31,1.61.52,0-.2.11-1.61.12-1.82.02-.4.03-.8.02-1.2-.02-1.76-.51-3.53-1.29-5.1ZM28.56,28.55c.17.02.34,0,.5,0,.38,0,.77-.02,1.15.02-.05.54,0,1.1,0,1.66,0,.87,0,1.74,0,2.62h-1.66c-.02-.35-.02-4.21,0-4.29ZM22.5,31.21c.42,0,.83,0,1.25,0-.02.22,0,.46,0,.69,0,.31,0,.63,0,.94-.1,0-.22,0-.33,0-.45-.02-.9,0-1.34,0,.04-.53,0-1.09,0-1.62.14,0,.3,0,.44,0Z"/>
    <path class="cls-2" d="M47.25,38.74c-.06-.19-.06-.42-.09-.62-.04-.28-.11-.57-.19-.84-.45-1.56-1.37-3.03-2.64-4.06-.38-.32-.81-.59-1.25-.83-1.93-1.06-4.05-1.23-6.16-.62-1.99.58-3.62,2.02-4.61,3.83-.97,1.78-1.18,4.01-.61,5.96.61,2.01,1.98,3.71,3.83,4.72.73.39,1.54.7,2.34.85.25.04.72.06.92.14h1.22c.1-.06.8-.14,1-.17.61-.12,1.24-.34,1.8-.62,1.63-.82,2.94-2.15,3.73-3.81.14-.3.27-.6.37-.92.1-.32.18-.66.23-.99.04-.26.03-.57.11-.81,0,0,0,0,0,0v-1.18s0,0,0-.02ZM44.01,43.31c-.22.25-.46.47-.7.69-1.1.94-2.28,1.38-3.69,1.49-1.43.08-3.09-.48-4.18-1.41-1.26-1.07-2.11-2.56-2.23-4.22-.12-1.58.38-3.26,1.42-4.46,1.14-1.33,2.67-2.05,4.4-2.18h.02c1.46-.12,3.14.51,4.25,1.46,1.22,1.06,2.05,2.6,2.17,4.21.12,1.66-.38,3.17-1.46,4.43Z"/>
    <path class="cls-2" d="M42.56,36.43c.23-.02.47.02.66.16.19.14.31.32.35.55.03.18,0,.46-.12.61-.06.07-.12.14-.18.21-1.07,1.11-2.18,2.18-3.27,3.27-.29.28-.57.57-.85.86-.15.16-.31.34-.48.47-.14.1-.32.15-.49.15-.17,0-.33-.04-.48-.13-.23-.14-.43-.4-.62-.59-.4-.4-.79-.79-1.19-1.18l-.45-.44c-.26-.25-.52-.47-.54-.86-.01-.23.07-.47.23-.64.16-.18.37-.26.61-.27.16,0,.33.03.47.11.31.18.64.57.9.83.34.35.69.7,1.05,1.03.56-.53,1.1-1.08,1.64-1.62.36-.36.73-.7,1.09-1.06l.82-.83c.16-.16.32-.34.5-.47.11-.08.22-.13.35-.16Z"/>
  </g>
</svg>