<?xml version="1.0" encoding="UTF-8"?>
<svg id="Layer_1" data-name="Layer 1" xmlns="http://www.w3.org/2000/svg" viewBox="0 0 64 64">
  <defs>
    <style>
      .cls-1 {
        fill: #31726b;
        opacity: .1;
      }

      .cls-2 {
        fill: #4ea49b;
      }
    </style>
  </defs>
  <rect class="cls-1" x="0" width="64" height="64"/>
  <g>
    <path class="cls-2" d="M21.7,46.29c-.1,0-.21,0-.31,0-.23-.02-.46-.06-.67-.27-.07-.07-.12-.15-.17-.22l-.1-.16v-.77l.04-.06c.12-.2.24-.41.48-.54,0-.35,0-.7,0-1.06v-.61s0-19.84,0-19.84v-1.96c-.01-.24-.01-.49.01-.73.08-.58.33-1.11.74-1.53.51-.53,1.19-.81,1.98-.83h1.15s11.58,0,11.58,0h.76c.28-.01.56,0,.83.04.56.09,1.07.35,1.48.74.56.55.85,1.25.86,2.1v8.11c0,.16,0,.31,0,.47.96.19,1.78.69,2.35,1.44.33.45.57.98.66,1.51.06.32.06.65.05.96v6.35s0,.32,0,.32c0,.44-.02,1.17.07,1.43.14.41.56.75,1.01.81.06,0,.12.01.17.01.25,0,.49-.08.69-.23.3-.23.48-.53.53-.88.03-.22.02-.45.02-.68v-4.39s0-.39,0-.39c0-.23,0-.45,0-.67-.12-.06-.25-.12-.37-.19-.47-.29-.87-.76-1.06-1.27-.08-.21-.14-.43-.15-.65-.02-.26-.02-.53-.01-.8v-3.97c0-.26,0-.51.02-.77.03-.25.1-.5.21-.75.21-.47.55-.87,1-1.14.01,0,.22-.11.23-.11l-.03-.03c-.15-.2-.31-.39-.47-.58-.14-.17-.29-.34-.42-.51-.16-.2-.29-.36-.37-.56-.1-.27-.12-.56-.03-.82.09-.25.28-.47.5-.57.11-.04.21-.06.32-.06.11,0,.23.02.33.06.11.05.2.12.27.17.24.2.45.42.67.64l.28.28c.09.09.2.19.3.29.2.19.41.38.57.57.08.08.14.17.18.26.09.21.08.47.07.7,0,.02,0,.04,0,.07.54.19,1.03.6,1.32,1.09.17.29.29.62.33.91.04.31.04.62.04.94v3.45s-.01.34-.01.34c0,.26,0,.52,0,.78,0,.2-.04.38-.08.55-.17.64-.59,1.16-1.25,1.53-.11.06-.2.11-.29.16,0,.09,0,4.68,0,4.68v.41c.01.55.03,1.17-.1,1.67-.17.68-.54,1.29-1.07,1.74-.63.54-1.37.83-2.14.83-.08,0-.15,0-.23,0-.89-.06-1.73-.49-2.31-1.16-.39-.45-.66-1-.76-1.58-.1-.49-.09-.99-.08-1.48v-.15c0-.34,0-.68,0-1.02v-5.71c0-.15,0-.31-.02-.46-.02-.13-.05-.25-.1-.36-.17-.43-.51-.69-.83-.84-.01.84,0,1.68,0,2.51v10.33s.08,0,.12,0c.24,0,.58.03.83.26.23.22.26.49.26.71,0,.3,0,.61-.25.87-.25.25-.55.25-.74.25h-12.89s-5.97,0-5.97,0ZM38.27,44.21v-21.28c0-.56,0-1.11,0-1.66v-.24c0-.2,0-.41-.01-.6-.02-.16-.09-.3-.22-.43-.11-.11-.24-.17-.37-.19-.1-.01-.21-.01-.32-.01h-13.26c-.44,0-.66.02-.85.21-.1.11-.15.23-.17.42-.02.19-.01.38-.01.57v1.66s0,19.82,0,19.82v.65c0,.36,0,.71,0,1.07h14.87c.11,0,.23,0,.34,0ZM46.89,26.91c-.16.02-.28.08-.37.19-.06.08-.09.17-.11.3-.03.25-.03.51-.02.77v3.48s0,.23,0,.23c0,.18,0,.37.01.55.02.17.08.28.21.38.11.09.21.12.33.12.24-.03.39-.12.47-.25.05-.07.07-.12.07-.18.03-.28.02-.56.02-.84v-3.56s0-.21,0-.21c0-.22.02-.46-.02-.64-.02-.08-.15-.23-.26-.29-.07-.04-.17-.06-.27-.06-.03,0-.05,0-.08,0Z"/>
    <path class="cls-2" d="M49.33,27.08c-.04-.28-.15-.57-.29-.82-.29-.49-.81-.89-1.36-1.03-.01-.25.05-.62-.05-.86-.03-.07-.08-.13-.13-.19-.25-.28-.59-.57-.86-.84-.31-.3-.61-.63-.94-.9-.07-.05-.13-.1-.21-.13-.13-.06-.31-.06-.44,0-.17.08-.31.25-.37.42-.07.2-.05.44.02.64.08.19.22.35.34.5.29.37.61.72.89,1.09.06.07.16.17.2.25,0,0,0,.01,0,.02,0,.02-.43.21-.48.24-.4.24-.72.6-.9,1.03-.1.21-.17.44-.19.67-.03.32-.02.66-.02.98v3.45c0,.35-.02.71.01,1.06.02.2.07.4.14.58.18.46.54.88.96,1.14.15.09.32.17.48.24.03.4,0,.82,0,1.23v2.52s0,1.63,0,1.63c0,.31.02.64-.02.95-.05.43-.28.79-.62,1.05-.3.23-.68.33-1.05.27-.54-.08-1.03-.46-1.21-.98-.13-.38-.08-1.39-.08-1.84v-6.17c0-.36.02-.73-.05-1.1-.09-.5-.31-.99-.61-1.4-.58-.77-1.45-1.25-2.4-1.38.02-.32,0-.65,0-.97v-2.16s0-5.65,0-5.65c0-.75-.24-1.39-.78-1.92-.37-.36-.83-.59-1.34-.68-.5-.08-1.05-.04-1.56-.04h-2.73s-6.42,0-6.42,0h-2.43c-.38,0-.76-.01-1.14,0-.69.01-1.32.25-1.81.75-.37.37-.6.86-.67,1.38-.04.31-.02.63-.02.94v1.72s0,5.24,0,5.24v10.97s0,3.63,0,3.63c0,.61-.02,1.22,0,1.83-.28.08-.38.27-.52.5v.62c.07.1.11.2.2.29.14.15.31.18.51.2.24.02.48,0,.73,0h5.54s12.78,0,12.78,0c.26,0,.48.02.67-.18.19-.2.18-.44.18-.7,0-.2-.03-.39-.18-.53-.26-.24-.7-.19-1.02-.18v-9.42c0-1.35-.02-2.7,0-4.04.57.17,1.07.52,1.3,1.1.06.13.09.28.11.42.03.21.02.43.02.64v.98s0,4.59,0,4.59c0,.34,0,.68,0,1.03,0,.53-.03,1.06.07,1.58.1.55.34,1.05.7,1.47.54.63,1.31,1.02,2.13,1.08.81.06,1.58-.23,2.2-.76.49-.42.84-.98.99-1.61.15-.59.09-1.4.09-2.02v-4.23c0-.2,0-.41,0-.62.14-.06.28-.13.41-.21.55-.31.96-.76,1.13-1.38.04-.17.07-.33.07-.5.02-.36,0-.73,0-1.1v-1.81s.01-1.45.01-1.45c0-.36.01-.73-.03-1.09ZM38.52,21.27c0,.55,0,1.1,0,1.66v4.55s0,16.99,0,16.99c-.39-.02-.78,0-1.17,0h-14.55c.02-.66,0-1.32,0-1.97v-3.94s0-15.88,0-15.88v-1.46c0-.26-.02-.54,0-.8.02-.22.08-.41.24-.57.29-.29.65-.28,1.03-.29h9.1s3.9,0,3.9,0c.21,0,.42,0,.63.01.2.02.37.12.51.26.17.16.28.35.3.59.03.28.01.58.01.86ZM47.75,32.51c0,.11-.05.21-.11.3-.13.19-.34.31-.57.35-.23.02-.42-.02-.6-.17-.18-.14-.28-.31-.31-.54-.03-.26-.01-.54-.01-.81v-1.65s0-1.56,0-1.56c0-.35-.02-.71.02-1.05.02-.17.06-.31.16-.44.13-.16.31-.26.51-.28.17-.03.37,0,.52.09.15.09.34.29.38.46.06.27.03.62.02.9v3.25c0,.38.02.78-.02,1.16Z"/>
    <path class="cls-2" d="M30.63,41.27c-1.17,0-2.32-.4-3.24-1.13-1.04-.84-1.75-2.15-1.89-3.5-.03-.22-.02-.44-.02-.66.03-1.23.44-2.34,1.23-3.31.78-.96,2.04-1.61,3.37-1.74.18,0,.35-.02.53-.02.19,0,.38,0,.57.03.91.09,1.84.47,2.56,1.04,1.13.88,1.83,2.1,1.99,3.44.17,1.42-.21,2.78-1.1,3.91-.84,1.06-2.09,1.76-3.43,1.92-.19.02-.37.03-.55.03ZM30.55,32.99c-.88.03-1.6.36-2.2,1-.54.58-.82,1.38-.78,2.17.03.84.41,1.67,1,2.21.56.51,1.26.79,1.98.79h.12c.94-.06,1.65-.39,2.24-1.06.54-.61.82-1.41.77-2.25-.04-.75-.44-1.55-1.04-2.08-.56-.5-1.28-.78-2.03-.78v-.25l-.07.25Z"/>
    <path class="cls-2" d="M35.47,35.44c-.15-1.32-.86-2.46-1.9-3.27-.68-.54-1.56-.9-2.43-.99-.34-.04-.7-.03-1.04-.01-1.19.12-2.43.71-3.2,1.65-.75.92-1.15,1.97-1.17,3.16,0,.21,0,.42.02.63.13,1.27.8,2.52,1.8,3.33,1.02.81,2.31,1.19,3.6,1.05h.01c1.29-.15,2.46-.81,3.26-1.82.84-1.07,1.21-2.37,1.05-3.73ZM33.1,38.26c-.66.73-1.43,1.08-2.4,1.14,0,0-.01,0-.02,0-.85.04-1.65-.29-2.28-.85-.66-.6-1.05-1.49-1.08-2.38-.04-.86.26-1.71.85-2.35.64-.7,1.43-1.05,2.37-1.08.84-.02,1.65.28,2.27.84.63.56,1.07,1.41,1.12,2.25.05.9-.24,1.76-.83,2.43Z"/>
    <path class="cls-2" d="M30.56,39.13c-.3-.03-.57-.17-.77-.4-.1-.11-.17-.25-.2-.4-.07-.27-.06-.85-.04-1.22h-.75c-.31,0-.64-.04-.92-.33-.2-.21-.3-.47-.29-.77,0-.3.13-.57.35-.77.12-.12.27-.2.42-.24.08-.02.22-.05.62-.05.19,0,.39,0,.56.01-.02-.39-.01-.96.04-1.16.04-.16.12-.31.22-.44.18-.22.41-.33.73-.36h0c.35,0,.62.11.82.31.13.13.22.3.27.48.07.27.06.76.05,1.16v.02s.68,0,.68,0c.34,0,.69.05.97.35.2.21.31.51.29.8-.02.27-.15.54-.38.74-.07.06-.21.16-.38.21-.16.05-.57.06-.89.06-.1,0-.2,0-.28,0,.01.37.01.92-.02,1.12-.03.16-.09.3-.18.43-.23.33-.55.42-.77.46h-.02s-.11,0-.16,0Z"/>
    <path class="cls-2" d="M30.57,33.25s.01,0,.02,0c.22,0,.44.07.6.24.1.1.17.23.21.37.08.3.04,1.01.04,1.36h.94c.3,0,.57.04.79.27.15.16.24.39.22.61-.01.22-.13.42-.29.56-.08.07-.18.13-.28.16-.2.06-1.12.05-1.37.03.03.25.04,1.1,0,1.34-.02.12-.07.23-.14.33-.15.22-.35.31-.61.36-.04,0-.08,0-.11,0-.23-.02-.44-.13-.59-.31-.07-.09-.12-.19-.15-.3-.07-.28-.05-1.09-.02-1.41-.34,0-.67,0-1.01,0-.29,0-.53-.04-.74-.26-.16-.16-.23-.37-.22-.59,0-.23.1-.44.27-.6.09-.08.2-.15.32-.18.25-.07,1.08-.03,1.39-.02,0-.02,0-.05-.01-.07-.02-.24-.03-1.08.02-1.3.03-.12.09-.24.17-.34.15-.18.33-.25.56-.27Z"/>
    <path class="cls-2" d="M25.43,28.9c-.1,0-.2,0-.29,0-.16-.01-.37-.04-.58-.2-.23-.16-.35-.36-.39-.61-.03-.17-.02-.35-.02-.53v-1.32c0-.62,0-1.24,0-1.86v-1.05c0-.3,0-1.03,0-1.03,0-.16,0-.33,0-.49.02-.19.05-.36.19-.55.21-.27.47-.33.68-.36.11,0,.21-.01.3-.01h1.56s8.64,0,8.64,0h.29c.11,0,.23,0,.34,0,.22.02.41.08.56.18.22.15.36.35.39.59.05.24.04.51.03.76v.25s0,1.78,0,1.78v2.68c.02.3.02.6,0,.89-.02.19-.07.34-.17.48-.16.21-.38.34-.64.38-.14.01-.25.01-.37.01h-.32s-10.2,0-10.2,0ZM27.12,26.81c.38,0,.76,0,1.14,0h6.14c.21,0,.42,0,.63,0,0-.05,0-.29,0-.29v-.9s0-2.65,0-2.65c-.27,0-.55,0-.82,0h-1.22s-6.33.02-6.33.02c-.15,0-.3,0-.44,0,0,.39,0,.77,0,1.16v2.67c.29,0,.59,0,.89,0Z"/>
    <path class="cls-2" d="M36.89,26.84v-2.38s0-1.78,0-1.78c0-.31.03-.66-.02-.97-.03-.18-.14-.32-.29-.42-.13-.09-.29-.13-.44-.14-.24-.02-.48,0-.71,0h-9.69c-.22,0-.46-.02-.68,0-.21.03-.38.09-.51.26-.1.13-.12.26-.14.42-.02.2,0,.4,0,.6,0,.3,0,.6,0,.9,0,.97-.02,1.93,0,2.9v1.14c0,.22-.02.46.02.68.03.2.13.33.29.45.14.1.28.14.44.15.21.01.43,0,.64,0h9.75c.24,0,.49,0,.74,0,.19-.03.35-.12.47-.28.08-.11.11-.22.13-.36.04-.38.02-.78.02-1.16ZM33.23,27.06h-4.96c-.77,0-1.53,0-2.29,0v-2.49c0-.62.02-1.23,0-1.85.67.02,1.35,0,2.03,0h5c.77-.01,1.53-.02,2.3,0v2.89s0,.9,0,.9c0,.18-.01.36.01.54-.69.02-1.38,0-2.07,0Z"/>
  </g>
</svg>