<?xml version="1.0" encoding="UTF-8"?>
<svg id="Layer_1" data-name="Layer 1" xmlns="http://www.w3.org/2000/svg" viewBox="0 0 64 64">
  <defs>
    <style>
      .cls-1 {
        fill: #31726b;
        opacity: .1;
      }

      .cls-2 {
        fill: #4ea49b;
      }
    </style>
  </defs>
  <rect class="cls-1" x="0" width="64" height="64"/>
  <g>
    <path class="cls-2" d="M21.56,46.56c-.18,0-.37,0-.55-.02-.27-.02-.53-.14-.75-.33-.24-.21-.4-.52-.43-.83-.01-.16-.01-.32-.01-.49v-22.8c0-.32,0-.64.02-.95.07-.67.33-1.33.75-1.88.55-.72,1.37-1.17,2.32-1.26.19,0,.36,0,.53,0h10.92s.86,0,.86,0c.36,0,.64.02.89.07.66.12,1.28.44,1.77.94.55.56.94,1.43,1,2.21.02.21.01.42,0,.63,0,.11,0,.22,0,.33.36.35.72.71,1.08,1.08,0,0,.64.65.68.69.11-.13.23-.26.35-.38l.24-.26.17-.2c.22-.25.49-.57.71-.72.17-.12.36-.19.55-.2,0,0,0,0,0,0,.27,0,.48.07.66.18.19.13.37.33.55.52.08.08.15.16.21.23.95.95,1.9,1.91,2.83,2.87.16.16.35.36.43.65.07.28.06.79.05,1.2v.87c0,.61-.01,1.22,0,1.82.07.07.15.14.22.21.32.29.68.63.74,1.1.04.37-.04.7-.25.99-.2.27-.46.44-.77.47-.05,0-.1,0-.15,0-.17,0-.32-.03-.45-.1-.26-.13-.47-.36-.66-.57l-.12-.12c0,.17,0,4.2,0,4.2v.49c.01.65.02,1.38-.09,1.91-.13.6-.43,1.18-.84,1.64-.6.67-1.4,1.02-2.32,1.03-.86,0-1.66-.37-2.28-1.05-.4-.43-.66-.9-.81-1.43-.06-.22-.11-.46-.13-.69-.02-.28-.02-.56-.02-.84v-3.42c0-.93-.2-1.7-.6-2.41v1.04c.02,1.41.03,2.82.02,4.23v7.33c0,.25,0,.51-.01.76-.02.3-.09.53-.23.73-.17.25-.48.44-.79.48-.16.02-.33.03-.49.03h-.45s-13.72,0-13.72,0h-.91s-.6.02-.76.02ZM23.25,44.09h3.19s10.17,0,10.17,0v-15.66l.02-6.26c0-.22,0-.44-.02-.66-.02-.26-.12-.47-.27-.65-.15-.17-.34-.28-.55-.33-.11-.03-.29-.04-.54-.04h-.68s-2.28,0-2.28,0h-8.29s-.59,0-.59,0c-.11,0-.22,0-.31.02-.32.03-.53.14-.71.38-.13.17-.2.37-.22.61-.02.26-.02.52-.02.79v2.05s0,5.54,0,5.54c0,0,0,13.97,0,14.23.37,0,.74,0,1.11,0ZM38.96,28.47c.2.14.42.3.58.49.11.15.22.26.28.29.32.28.83,1.05.96,1.27.53.92.87,1.89,1,2.9.06.44.05.88.05,1.31v2.5s0,.3,0,.3c0,.31-.01.64.04.92.04.2.13.39.27.53.17.18.39.29.63.29.25,0,.52-.12.69-.31.13-.15.22-.34.25-.56.03-.23.03-.47.02-.7v-.28s0-1.5,0-1.5v-5.57c-.33-.34-.66-.67-1-.99l-2.61-2.6c-.28-.28-.56-.56-.84-.84l-.35-.35c0,.07-.02.45-.02.57,0,.77,0,1.54.01,2.31l.05.03ZM44.2,27.42s.84.85.89.89c0-.28,0-.57,0-.85-.04-.05-.25-.24-.25-.24l-1.81-1.8s-.22-.24-.26-.28c-.06.06-.11.12-.17.18-.08.09-.17.17-.24.26l1.83,1.84ZM29.36,42.88c-.97,0-1.92-.36-2.69-1.01-.93-.79-1.53-1.94-1.68-3.21-.03-.22-.04-.44-.04-.67,0-.28.02-.55.07-.8.23-1.23,1.14-2.72,1.87-3.75.42-.6.87-1.18,1.34-1.73l.08-.09c.13-.15.27-.33.45-.46.14-.1.3-.17.51-.2h.01c.48,0,.75.24.92.42.92.98,1.78,2.19,2.63,3.68.29.5.56.99.73,1.5.15.42.22.82.22,1.24v.1c0,1.38-.42,2.58-1.22,3.48-.83.94-1.94,1.46-3.13,1.48h-.08ZM29.39,34.1c-.64.84-1.79,2.45-2.06,3.48-.05.17-.07.34-.07.53,0,.06,0,.12,0,.18.05.61.32,1.18.74,1.57.38.35.86.54,1.39.55.58-.01,1.1-.25,1.49-.69.39-.44.62-1.05.62-1.63,0-.26-.06-.5-.17-.79-.14-.35-.33-.69-.51-1.02-.42-.75-.84-1.39-1.28-1.97,0,0-.13-.17-.15-.21Z"/>
    <path class="cls-2" d="M29.36,42.88c-.97,0-1.92-.36-2.69-1.01-.93-.79-1.53-1.94-1.68-3.21-.06-.53-.05-1.02.03-1.47.23-1.23,1.14-2.72,1.87-3.75.42-.6.87-1.18,1.34-1.73l.08-.09c.13-.15.27-.33.45-.46.14-.1.3-.17.51-.2h.01c.48,0,.75.24.92.42.92.98,1.78,2.19,2.63,3.68.29.5.56.99.73,1.5.15.42.22.82.22,1.24.02,1.42-.4,2.66-1.22,3.58-.83.94-1.94,1.46-3.13,1.48h-.08ZM29.39,34.1c-.64.84-1.79,2.45-2.06,3.48-.06.22-.08.45-.06.7.05.61.32,1.18.74,1.57.38.35.86.54,1.39.55.58-.01,1.1-.25,1.49-.69.4-.45.63-1.07.62-1.67,0-.23-.06-.47-.17-.75-.14-.35-.33-.69-.51-1.02-.42-.75-.84-1.39-1.28-1.97,0,0-.13-.17-.15-.21Z"/>
    <path class="cls-2" d="M33.32,36.65c-.18-.51-.45-1-.72-1.46-.74-1.3-1.59-2.56-2.59-3.63-.2-.21-.41-.35-.69-.35,0,0-.02,0-.02,0-.14.02-.27.06-.4.15-.18.13-.33.33-.48.51-.46.55-.91,1.12-1.32,1.71-.67.96-1.61,2.46-1.83,3.66-.09.46-.08.93-.03,1.39.15,1.21.72,2.3,1.6,3.05.74.63,1.66.96,2.6.95,1.13-.02,2.16-.51,2.94-1.4.82-.93,1.18-2.14,1.16-3.41,0-.4-.08-.79-.21-1.16ZM31.07,39.87c-.45.51-1.04.76-1.68.78-.58,0-1.12-.2-1.56-.61-.47-.43-.77-1.06-.82-1.73-.02-.27,0-.53.07-.79.3-1.14,1.59-2.9,2.29-3.81,0,0,.01,0,.02.01.13.12.24.29.35.43.48.63.9,1.29,1.29,1.99.19.34.39.69.53,1.05.1.27.18.55.19.84,0,.67-.26,1.36-.68,1.83Z"/>
    <path class="cls-2" d="M29.36,42.88c-.97,0-1.92-.36-2.69-1.01-.93-.79-1.53-1.94-1.68-3.21-.06-.53-.05-1.02.03-1.47.23-1.23,1.14-2.72,1.87-3.75.42-.6.87-1.18,1.34-1.73l.08-.09c.13-.15.27-.33.45-.46.14-.1.3-.17.51-.2h.01c.48,0,.75.24.92.42.92.98,1.78,2.19,2.63,3.68.29.5.56.99.73,1.5.15.42.22.82.22,1.24.02,1.42-.4,2.66-1.22,3.58-.83.94-1.94,1.46-3.13,1.48h-.08ZM29.39,34.1c-.64.84-1.79,2.45-2.06,3.48-.06.22-.08.45-.06.7.05.61.32,1.18.74,1.57.38.35.86.54,1.39.55.58-.01,1.1-.25,1.49-.69.4-.45.63-1.07.62-1.67,0-.23-.06-.47-.17-.75-.14-.35-.33-.69-.51-1.02-.42-.75-.84-1.39-1.28-1.97,0,0-.13-.17-.15-.21Z"/>
    <path class="cls-2" d="M33.32,36.65c-.18-.51-.45-1-.72-1.46-.74-1.3-1.59-2.56-2.59-3.63-.2-.21-.41-.35-.69-.35,0,0-.02,0-.02,0-.14.02-.27.06-.4.15-.18.13-.33.33-.48.51-.46.55-.91,1.12-1.32,1.71-.67.96-1.61,2.46-1.83,3.66-.09.46-.08.93-.03,1.39.15,1.21.72,2.3,1.6,3.05.74.63,1.66.96,2.6.95,1.13-.02,2.16-.51,2.94-1.4.82-.93,1.18-2.14,1.16-3.41,0-.4-.08-.79-.21-1.16ZM31.07,39.87c-.45.51-1.04.76-1.68.78-.58,0-1.12-.2-1.56-.61-.47-.43-.77-1.06-.82-1.73-.02-.27,0-.53.07-.79.3-1.14,1.59-2.9,2.29-3.81,0,0,.01,0,.02.01.13.12.24.29.35.43.48.63.9,1.29,1.29,1.99.19.34.39.69.53,1.05.1.27.18.55.19.84,0,.67-.26,1.36-.68,1.83Z"/>
    <path class="cls-2" d="M34.5,26.26l-.34-.93-.38-1.04c-.06-.17-.11-.36-.2-.52-.04-.07-.1-.14-.17-.19-.11-.08-.24-.14-.39-.15-.26-.02-.62,0-.88,0h-4.87c-.5,0-1.01-.01-1.51,0-.22.01-.41.08-.55.22-.07.06-.1.15-.14.22-.06.16-.11.32-.16.48-.08.25-.17.51-.25.76-.13.36-.25.72-.37,1.08-.06.18-.13.36-.18.55-.02.06-.02.12-.01.18.02.16.11.3.26.4.13.08.27.12.43.13.29.02.6,0,.9,0h1.67s5.67,0,5.67,0h.53c.34,0,.64,0,.9-.2.13-.1.21-.27.21-.42,0-.18-.11-.39-.17-.56Z"/>
    <path class="cls-2" d="M39.72,29.48s-.01,0-.02-.01c-.11-.06-.24-.21-.31-.31,0-.01-.02-.02-.03-.03.09.08.26.25.36.36Z"/>
    <path class="cls-2" d="M39.72,29.48s-.01,0-.02-.01c-.11-.06-.24-.21-.31-.31,0-.01-.02-.02-.03-.03.09.08.26.25.36.36Z"/>
  </g>
</svg>