<?xml version="1.0" encoding="UTF-8"?>
<svg id="Layer_1" data-name="Layer 1" xmlns="http://www.w3.org/2000/svg" viewBox="0 0 64 64">
  <defs>
    <style>
      .cls-1 {
        opacity: .98;
      }

      .cls-1, .cls-2, .cls-3 {
        fill: #4ea49b;
      }

      .cls-2 {
        opacity: .96;
      }

      .cls-4 {
        fill: #31726b;
        opacity: .1;
      }
    </style>
  </defs>
  <rect class="cls-4" width="64" height="64"/>
  <g>
    <path class="cls-3" d="M37.08,48.53h-16.03c-.21,0-.42,0-.62-.03-.53-.06-1.03-.29-1.43-.66-.51-.47-.8-1.14-.83-1.95-.02-.37,0-.75,0-1.12,0-.19,0-.39,0-.58,0-1.28,0-2.57.01-3.86v-11.06l-.02-7.65c0-.82-.01-1.64,0-2.46v-.35c0-.32,0-.64.02-.96.06-.6.29-1.14.67-1.54.49-.53,1.08-.8,1.82-.83.38,0,.75-.01,1.12-.01h1.62s9.98,0,9.98,0c.12,0,.25,0,.37.01.24.02.43.1.61.26.22.19.43.4.63.61l.3.3c.67.65,1.33,1.31,1.98,1.98l2.37,2.37.3.3c.15.15.3.29.44.44.11.12.24.25.3.41.1.27.09.6.09.88v.21s0,1.3,0,1.3c0,.15,0,.3,0,.45.05.06.12.12.19.19l.65.64,2.49,2.51c.29.29.6.59.85.92.22.29.38.6.5.97.08.24.13.51.14.83.02.43.02.87.01,1.31v7.03s0,.41,0,.41c0,.39.01.78-.02,1.16-.04.46-.16.89-.37,1.3-.43.85-1.21,1.51-2.12,1.8-.31.1-.64.15-.98.15-.45,0-.89-.08-1.31-.24,0,.02,0,1.38,0,1.38,0,.81,0,1.58-.68,2.35-.46.5-1.11.81-1.78.84-.16,0-.33.01-.49.01h-.77ZM20.42,25.59c0,.1,0,.21,0,.31.01.4,0,.83,0,1.25v18.38c0,.17,0,.35.01.52,0,.06.05.12.09.16.09.1.18.11.4.11h16.98c.1,0,.19,0,.28-.02.09,0,.18-.05.24-.12.06-.06.1-.14.1-.2.02-.19.01-.38,0-.57v-1.71s0-20.04,0-20.04c-.1,0-.2,0-.3,0-.19,0-.94-.02-1.12-.02h-1.06c-.22.01-.43,0-.65,0-.88-.06-1.6-.41-2.15-1.03-.34-.39-.58-.84-.69-1.33-.12-.5-.11-1.13-.09-1.69,0-.17,0-.34,0-.5v-.49c-.01-.32-.02-.64,0-.95-.3,0-.59,0-.89,0h-10.55c-.1,0-.21.01-.31.02-.1,0-.15.03-.19.07-.06.06-.1.11-.11.17-.03.16-.03.35-.02.54v.61c0,.42,0,.84,0,1.26.02.48.02.96.02,1.44v1.66s-.07,0-.07,0h.06v1.68s-.03,0-.03,0c0,0,0,.02,0,.03h.03v.45ZM40.81,36.59v3.86c0,.15,0,.31.01.46.04.27.15.49.34.68.25.25.56.38.91.38.35,0,.68-.14.92-.39.23-.25.35-.47.39-.71.04-.24.03-.52.03-.79v-.28s0-2.08,0-2.08v-4.01s0-1.84,0-1.84c0-.2,0-.4,0-.59-.01-.29-.09-.53-.24-.76-.11-.17-.43-.48-.67-.71,0,0-1.66-1.67-1.7-1.71l.02,8.51ZM34.71,19.58v.31c-.01.29-.02.61.02.82.03.15.09.29.19.4.15.18.35.28.64.31.18.02.38.02.57.02.16,0,.69-.01.8-.01-.07-.07-.39-.38-.39-.38-.53-.54-1.07-1.07-1.6-1.6,0,0-.22-.23-.23-.24,0,.03,0,.37,0,.37Z"/>
    <path class="cls-3" d="M20.68,15.72c.91-.02,1.82,0,2.73,0h5.33s3.28,0,3.28,0h1.06c.22,0,.44,0,.66.01.18.02.33.07.47.2.32.28.62.6.92.9.67.65,1.33,1.31,1.98,1.97l2.37,2.37c.24.25.5.48.74.73.08.09.2.21.25.32.11.29.06.69.07,1.01v1.12c0,.24,0,.48,0,.72.09.13.23.25.35.36l.56.55,2.18,2.2c.38.39.81.77,1.13,1.2.21.28.36.57.47.9.08.24.12.51.13.76.03.62,0,1.25,0,1.87v3.78s0,2.68,0,2.68c0,.51.03,1.04-.02,1.54-.03.42-.15.83-.35,1.21-.41.8-1.12,1.41-1.98,1.68-.8.26-1.73.14-2.47-.25.01.2,0,.41,0,.62v1.15c0,.85-.02,1.51-.62,2.19-.41.46-.99.73-1.61.76-.41.02-.84,0-1.25,0h-2.36s-7.13,0-7.13,0h-4.82s-1.33,0-1.33,0c-.32,0-.66.01-.98-.03-.48-.06-.93-.27-1.29-.6-.51-.47-.72-1.1-.75-1.78-.02-.56,0-1.13,0-1.7,0-1.28,0-2.57.01-3.85v-18.72c-.02-.82-.03-1.64-.02-2.46,0-.42-.02-.86.02-1.28.05-.52.24-1.01.6-1.4.45-.49.98-.72,1.65-.75ZM20.15,20.33c.04,1.03.02,2.07.02,3.1v1.68c0,.26,0,.52,0,.78.02.61,0,1.22,0,1.83v3.43s0,8.94,0,8.94v3.92s0,1.34,0,1.34c0,.25-.01.5.02.75.01.12.08.22.16.3.17.18.35.19.58.19h11.51s3.87-.01,3.87-.01h1.23c.22,0,.46.02.68,0,.15-.02.29-.09.4-.2.09-.09.16-.22.17-.35.02-.27,0-.55,0-.82v-1.48s0-5.16,0-5.16v-15.14c-.55.03-1.11,0-1.67,0-.56,0-1.13.03-1.69,0-.79-.05-1.45-.35-1.98-.95-.31-.36-.53-.76-.64-1.22-.15-.62-.08-1.48-.08-2.13,0-.56-.03-1.13,0-1.68-.75-.03-1.51-.01-2.26-.02h-4.7s-3.32,0-3.32,0h-1.09c-.22,0-.45,0-.67,0-.13.01-.24.05-.34.14-.09.08-.16.18-.18.3-.05.25-.02.55-.02.81,0,.55.01,1.1-.01,1.65ZM40.53,27.5l.02,9.09v2.88s0,.85,0,.85c0,.2,0,.41.02.61.04.31.18.6.41.82.3.29.68.45,1.09.45.41,0,.8-.17,1.09-.47,0,0,.01-.01.02-.02.22-.24.38-.5.44-.83.06-.36.03-.75.03-1.12v-2.08s0-4.01,0-4.01v-1.58c0-.29,0-.58,0-.87-.01-.33-.1-.61-.28-.88-.16-.25-.68-.73-.91-.96l-1.13-1.14c-.24-.24-.47-.49-.72-.72-.02-.02-.04-.03-.06-.04ZM34.46,18.65c-.03.3,0,.63,0,.93,0,.34-.04.86.02,1.18.04.19.12.36.24.51.21.26.49.37.82.4.62.06,1.32-.01,1.96.02,0-.02,0-.03,0-.05-.01-.03-.68-.67-.77-.77-.53-.54-1.07-1.07-1.61-1.6-.17-.17-.44-.48-.61-.6-.01-.01-.02-.01-.03-.02ZM20.17,25.88c.01-.26,0-.52,0-.78v-1.68c0-1.03.02-2.07-.02-3.1-.03.03-.02.05-.02.09-.02.8,0,1.6,0,2.39l-.02,1.14c0,.22-.02.46,0,.68,0,.05.02.09.03.13,0-.04,0-.08.01-.12v.06s0-.01,0-.01c0,.3-.04.9,0,1.17h.01ZM20.1,42.61c0,.41,0,.81,0,1.22,0,.18-.02.38,0,.55,0,.03.01.05.03.07,0-.24.01-1.76-.04-1.85Z"/>
    <path class="cls-2" d="M19.9,44.55l-.04-.13c-.02-.14-.02-.29-.01-.43,0,0,0-.97,0-1.38l.47-.11c.1.19.06,1.95.06,1.97l-.02.76-.47-.68Z"/>
    <path class="cls-2" d="M20.1,42.61c.05.09.04,1.61.04,1.85-.02-.02-.03-.04-.03-.07-.02-.18,0-.38,0-.55,0-.41,0-.81,0-1.22Z"/>
    <path class="cls-1" d="M19.92,25.99v-.08c-.04-.23-.03-.63-.02-.95v-.12s-.04-.19-.04-.19c-.01-.17,0-.35,0-.53l.02-1.31c0-.37,0-.74,0-1.11,0-.43,0-.86,0-1.29v-.08s.08-.16.08-.16l.42-.53.03.68c.03.73.02,1.47.02,2.2v2.84c0,.18,0,.36,0,.54l-.03.56-.47-.47Z"/>
    <path class="cls-1" d="M20.17,25.88h-.01c-.04-.29,0-.88,0-1.18h-.01s.01-.05.01-.05c0,.04,0,.08-.01.12-.01-.04-.03-.09-.03-.13-.02-.22,0-.45,0-.68l.02-1.14c.01-.8,0-1.6,0-2.39,0-.04,0-.06.02-.09.04,1.03.02,2.07.02,3.1v1.68c0,.26,0,.52,0,.78Z"/>
    <path class="cls-3" d="M33.99,44.54h-9.7c-.31,0-.65-.06-.94-.43-.15-.2-.25-.43-.28-.67-.03-.22-.03-.46-.03-.69v-1.4c0-.47,0-.95,0-1.42,0-.69,0-1.38,0-2.08.01-.85.23-1.5.66-2.01.59-.7,1.18-.7,1.86-.7,0,0,.74,0,1.02.01,0-.12,0-.24,0-.36,0-.36-.01-.73.02-1.08.07-.65.34-1.24.76-1.64.23-.22.49-.37.78-.46.27-.08,1.06-.09,1.3-.09s.44,0,.61.01c0-.09,0-.44,0-.44,0-.79.04-1.57.55-2.28.32-.45.74-.69,1.26-.74h.32s.75,0,.75,0h.6c.52,0,1.12.05,1.66.7.41.49.59,1.06.6,1.86v8.89s0,2.41,0,2.41v.38c.02.34.02.7-.01,1.03-.03.29-.14.55-.31.76-.18.23-.37.35-.6.39-.14.03-.29.03-.44.03h-.44ZM26.22,41.75l.15.31v-.31s.16,0,.21,0c0-.28,0-.57,0-.85v-.51s0-.9,0-.9c0-.51,0-1.03,0-1.54-.05,0-1.04.01-1.04.01-.07,0-.13,0-.2,0,0,.75,0,1.5,0,2.25,0,.51,0,1.02,0,1.53h.87ZM33.51,41.75c0-.15,0-.3,0-.44v-1.2c.01-.39.02-.78.01-1.17l-.02-7.56c0-.18,0-.35,0-.53-.19,0-.81,0-.81,0h-.37s0,7.06,0,7.06v3.13c.02.24.02.47.02.71h.08c.37,0,.73,0,1.1,0ZM30.04,41.75c0-.19,0-3.06,0-3.06,0-1.43-.01-2.87,0-4.31-.08,0-1.15,0-1.17,0,0,0,.01,7.23.01,7.36.17,0,.94,0,1.16,0Z"/>
  </g>
</svg>