<?xml version="1.0" encoding="UTF-8"?>
<svg id="Layer_1" data-name="Layer 1" xmlns="http://www.w3.org/2000/svg" viewBox="0 0 64 64">
  <defs>
    <style>
      .cls-1 {
        fill: #31726b;
        opacity: .1;
      }

      .cls-2 {
        fill: #4ea49b;
      }
    </style>
  </defs>
  <rect class="cls-1" width="64" height="64"/>
  <path class="cls-2" d="M43.92,42.26c1.3-.55,2.14-1.82,2.14-3.23v-14.74c0-.62-.25-1.22-.69-1.66l-3.55-3.55c-.44-.44-1.14-.44-1.58,0l-.19.19c-.37.37-.37.97,0,1.35l1.33,1.33v3.03c0,1.29,1.05,2.34,2.34,2.34v11.71c.04,1.05-1.29,1.39-1.95,1.08l-5.08-5.08v-13.57c0-1.94-1.57-3.51-3.51-3.51h-13.19c-.25,0-.49.09-.67.27l-.74.74c-.35.35-.35.93,0,1.28l25.13,25.12c.39.39,1.02.39,1.41,0h0c.53-.53.53-1.38,0-1.9l-1.2-1.2ZM34.34,32.69l-1.86-1.86h.76c.61,0,1.1.49,1.1,1.1v.76ZM32.63,20.29c.95,0,1.72.77,1.72,1.72v4.61c0,1.03-.84,1.87-1.87,1.87h-2.33l-8.2-8.2h10.68ZM34.34,39.31l2.34,2.34v.94c0,1.91-1.55,3.46-3.46,3.46h-12.44c-1.57,0-2.85-1.27-2.85-2.84v-19.43c0-.32.39-.48.61-.25l1.73,1.73v1.26c0,1.08.88,1.96,1.96,1.96h1.27l2.34,2.34h-4.27c-.72,0-1.3.58-1.3,1.3v9.78c0,1,.81,1.8,1.8,1.8h10.45c1,0,1.81-.81,1.81-1.81v-2.59Z"/>
</svg>