<?xml version="1.0" encoding="UTF-8"?>
<svg id="Layer_1" data-name="Layer 1" xmlns="http://www.w3.org/2000/svg" viewBox="0 0 64 64">
  <defs>
    <style>
      .cls-1 {
        fill: #31726b;
        opacity: .1;
      }

      .cls-2 {
        fill: #4ea49b;
      }
    </style>
  </defs>
  <rect class="cls-1" x="0" width="64" height="64"/>
  <g>
    <path class="cls-2" d="M50.89,33.31c-.29-1.19-.88-2.29-1.7-3.2-.66-.71-1.45-1.28-2.33-1.67-.27-.12-.62-.19-.85-.37-.17-.13-.31-.3-.46-.45-.31-.3-.62-.59-.93-.9-.5-.49-1.01-.97-1.51-1.46-.46-.45-.92-.94-1.42-1.34-.75-.61-1.67-1-2.56-1.35-.99-.39-2.02-.67-3.09-.72-1.07-.04-2.16,0-3.23,0-.8,0-1.61-.03-2.4.04-2.57.22-4.65,1.37-6.53,3.1-.55,0-1.09,0-1.64,0h-6.45s-1.17,0-1.17,0c-.3,0-.66-.04-.95.05-.42.12-.52.38-.71.72l-.02.03v.49c.18.34.35.62.74.74.33.1,1.43.04,1.85.04h6.88c.62,0,1.26.03,1.88,0,.18-.01.39-.05.55-.14.31-.18.57-.5.84-.73.53-.45,1.1-.84,1.71-1.17,1.14-.61,2.39-.97,3.68-1.05.37-.03.75-.01,1.12-.01h1.82s1.37,0,1.37,0c.3,0,.61,0,.9.02.36.03.71.11,1.06.2,1.34.34,2.58.93,3.63,1.84.66.58,1.25,1.23,1.88,1.84-1.1-.03-2.21,0-3.31,0h-5.52s-3.52,0-3.52,0h-1.09c-.23,0-.46,0-.68.02-.22.02-.41.09-.58.24-.21.19-.33.46-.34.74,0,.28.1.56.3.76.28.29.6.31.97.31h10.52s2.79,0,2.79,0c.92,0,1.84-.05,2.74.15.94.21,1.8.72,2.47,1.39,1.4,1.41,1.44,2.78,1.42,4.62,0,.23-.04.44-.22.61-.09.09-.18.13-.29.15-.28.06-.61.02-.89.02-.38,0-.76,0-1.14,0-.03,0-.07,0-.1,0-.07-.23-.14-.47-.23-.69-.38-.93-1.08-1.7-1.97-2.17-.99-.53-2.15-.63-3.22-.28-1.14.36-2.08,1.17-2.62,2.23-.15.29-.27.61-.34.93h-5.41c-.66,0-1.31-.02-1.97,0-.37-1.22-1.05-2.22-2.2-2.83-1.02-.54-2.21-.65-3.31-.31-1.1.34-2.02,1.1-2.54,2.13-.16.3-.3.68-.37,1.01-.63,0-1.27-.01-1.9,0,0-.91-.01-1.82,0-2.73,0-.52-.05-1.1.07-1.61.08-.36.25-.68.51-.94.44-.44.92-.52,1.52-.52.51,0,1.06.08,1.45-.32.2-.2.29-.49.29-.77,0-.27-.11-.51-.31-.69-.18-.17-.4-.26-.64-.28-.42-.05-.88,0-1.31,0h-2.52s-3.49,0-3.49,0c-.59,0-1.18-.02-1.76,0-.34.01-.62.06-.86.31-.16.17-.2.35-.31.54v.44c.14.27.3.6.63.7.44.14,1.82.06,2.37.05h2.79c-.28.5-.56,1.29-.56,1.88-.25-.03-.52-.01-.77-.01h-1.34s-1.34,0-1.34,0c-.31,0-.62-.01-.92.03-.18.03-.34.09-.48.21-.15.12-.25.29-.34.46-.02.03,0,.02-.03.05v.6c.15.28.29.59.62.7.44.14,1.5.08,2,.08h2.62c0,.6-.04,1.22,0,1.82-.31-.02-.63,0-.95,0h-1.52s-1.05,0-1.05,0c-.26,0-.54-.02-.8.03-.21.04-.39.11-.56.25-.24.21-.22.41-.37.63v.33c.08.13.12.28.21.41.14.2.37.34.6.39.26.06.54.03.8.03h.93s4.65,0,4.65,0h1.32c.23,0,.49-.02.72.02.12.08.29.67.39.84.63,1.1,1.57,1.89,2.8,2.22,1.07.29,2.21.14,3.17-.41,1.01-.59,1.74-1.55,2.04-2.67.55,0,1.1-.01,1.65-.01,1.94,0,3.89-.02,5.83,0,.11.43.28.84.52,1.21.58.9,1.6,1.66,2.66,1.89,1.17.25,2.31.06,3.32-.59.83-.53,1.56-1.47,1.77-2.44.28.03.58,0,.86,0,.48,0,.98.04,1.46-.03.25-.03.49-.1.72-.2.74-.31,1.31-.93,1.57-1.69.07-.2.07-.46.15-.65,0-.01.01-.02.02-.03v-2.14c-.11-.2-.13-.69-.19-.94ZM28.2,39.14c-.43.55-.98.81-1.67.89-.63.02-1.18-.15-1.65-.59-.41-.38-.7-.96-.72-1.53-.02-.56.18-1.16.56-1.58.4-.43.9-.69,1.49-.71.56-.02,1.04.08,1.49.42.49.38.8.88.88,1.49.07.57-.04,1.14-.4,1.6ZM43.88,39.23c-.37.45-.89.7-1.47.76-.57.04-1.13-.08-1.59-.44-.46-.35-.77-.87-.84-1.45-.08-.6.08-1.2.46-1.68.4-.52.91-.74,1.54-.82.56-.05,1.11.09,1.55.44.47.37.78.92.85,1.51.07.63-.11,1.18-.51,1.67Z"/>
    <path class="cls-2" d="M32.56,31.59c.23-.02.46-.01.69-.01h1.18c.48,0,1.19-.05,1.65.02.18.03.35.1.5.21.22.16.36.4.4.67.04.28-.04.56-.21.79-.18.24-.42.35-.71.39-.73.03-1.47,0-2.19,0-.44,0-.99.04-1.41-.02-.16-.02-.32-.09-.45-.19-.22-.16-.35-.38-.39-.64-.04-.29.03-.6.21-.84.2-.26.44-.34.75-.38Z"/>
  </g>
</svg>