<?xml version="1.0" encoding="UTF-8"?>
<svg id="Layer_1" data-name="Layer 1" xmlns="http://www.w3.org/2000/svg" viewBox="0 0 64 64">
  <defs>
    <style>
      .cls-1 {
        fill: #31726b;
        opacity: .1;
      }

      .cls-2 {
        fill: #4ea49b;
      }
    </style>
  </defs>
  <rect class="cls-1" x="0" width="64" height="64"/>
  <g>
    <path class="cls-2" d="M11.71,28.9v-.02c.17-.37.26-.71.69-.87.32-.12,1.7-.12,2.08-.06.11.02.22.05.32.1.27.14.49.4.57.69.08.28.05.58-.1.84-.16.27-.44.48-.74.55-.32.08-1.55.08-1.89.02-.14-.02-.28-.08-.41-.15-.22-.13-.35-.31-.44-.55-.03-.07-.04-.15-.09-.21v-.33Z"/>
    <path class="cls-2" d="M11.71,36.79s0,0,0-.01c.06-.11.1-.23.15-.34.13-.25.38-.43.65-.51.32-.09,1.54-.1,1.88-.05.14.02.27.07.39.14.26.15.47.39.55.69.08.3.04.63-.12.89-.17.28-.44.47-.75.54-.32.07-1.47.06-1.79,0-.15-.03-.3-.08-.42-.17-.19-.13-.33-.31-.42-.52-.04-.09-.07-.19-.12-.27v-.39Z"/>
    <path class="cls-2" d="M11.71,32.65v-.02c.21-.32.35-.69.77-.79.29-.07,1.7-.08,2.01-.02.15.03.28.08.4.16.26.17.46.45.52.75.06.31-.03.63-.21.88-.17.24-.41.43-.71.48-.35.06-1.53.06-1.87-.01-.14-.03-.28-.09-.4-.17-.18-.13-.33-.3-.42-.5-.03-.07-.06-.16-.1-.23v-.53Z"/>
    <path class="cls-2" d="M20.2,39.01c-.77-.06-1.56.09-2.3-.22-.55-.23-1.02-.72-1.24-1.27-.09-.23-.14-.47-.16-.72-.04-.45-.02-.91-.04-1.36l-.1-2.6-.06-1.74c-.01-.36-.05-.74-.02-1.1.05-.7.2-1.41.49-2.05.2-.45.43-.88.74-1.27.29-.37.63-.69.96-1.02l1.28-1.27,1.07-1.07c.35-.35.69-.7,1.07-1,.31-.25.68-.46,1.05-.6.4-.15.85-.24,1.27-.27.48-.04.99-.01,1.47-.01h2.76s3.08,0,3.08,0c.98,0,1.96-.03,2.93.14,1.06.18,2.23.61,3.13,1.21.31.21.63.43.91.68.26.23.5.48.76.71,1.02.93,2,1.91,3.05,2.81.28.24.55.56.88.74.23.12.51.17.76.23.35.09.7.18,1.05.28.91.26,1.82.54,2.73.81.99.3,1.98.57,2.93,1,.64.29,1.17.88,1.43,1.53.09.21.13.44.21.65,0,0,0,.01,0,.02v4.47c-.07.12-.08.31-.11.45-.11.5-.38.9-.76,1.24-.28.25-.64.46-1,.55-.56.14-1.43.08-2.02.08-.5,0-.99.01-1.49-.01-.11.43-.27.83-.5,1.21-.64,1.09-1.68,1.88-2.9,2.2-1.12.29-2.45.11-3.45-.47-1.12-.66-1.87-1.66-2.2-2.92-.34-.03-.69-.02-1.03-.02h-1.53c-1.47,0-2.93.01-4.4,0-.51,0-1.16.04-1.65,0-.1.39-.24.76-.44,1.12-.63,1.11-1.62,1.93-2.86,2.27-1.18.32-2.5.13-3.56-.47-1.11-.64-1.87-1.7-2.2-2.92ZM27.04,23.76h-1.78c-.4,0-.86-.03-1.26.06-.22.05-.46.16-.65.3-.37.27-.88.83-1.22,1.16l-1.68,1.66c-1.05,1.05-1.87,1.63-1.87,3.28,0,.46.03.92.05,1.38.02.85.04,1.71.07,2.56.04.84.09,1.69.06,2.53.47,0,.94-.01,1.41.01.41-1.28,1.2-2.33,2.4-2.96,1.12-.59,2.42-.7,3.62-.3,1.15.37,2.1,1.18,2.66,2.25.15.29.31.65.38.97.89.05,1.79.03,2.69.02h3.49c.79,0,1.59-.02,2.38.02.05-.22.15-.44.25-.64.41-.87,1.02-1.6,1.84-2.1,1.06-.65,2.38-.91,3.6-.61.68.16,1.39.5,1.91.97.72.55,1.26,1.47,1.48,2.34.37.03.76.01,1.14.01h2.04c0-.91,0-1.83,0-2.74,0-.44.03-.9,0-1.34-.01-.11-.04-.2-.09-.31-.43-.31-1.23-.48-1.76-.64-.54-.17-1.09-.33-1.63-.49l-3.19-.95c-.49-.14-1.09-.37-1.59-.43-.27-.03-.55-.02-.83-.03-.41,0-.82,0-1.24,0h-3.37s-10.44,0-10.44,0h-1.95c-.5-.01-1.64.05-2.06-.09-.38-.13-.68-.5-.75-.89-.05-.29.01-.61.19-.85.18-.24.42-.42.72-.47.34-.05.7-.02,1.04-.02h1.6s3.02,0,3.02,0c.56,0,1.13-.01,1.69,0v-3.68c-.8.03-1.61,0-2.41,0ZM31.77,23.74c-.03,1.23,0,2.46,0,3.69h4.7c.94,0,1.89-.03,2.83.02,0-.06-.04-.09-.08-.13-.32-.32-.66-.62-.98-.93-.43-.42-.88-.87-1.35-1.24-.95-.74-2.08-1.21-3.27-1.35-.61-.07-1.24.03-1.85-.05ZM24.5,35.53c-.67.1-1.27.37-1.68.92-.38.51-.54,1.15-.45,1.79.1.61.43,1.17.93,1.54.52.38,1.05.5,1.69.46.7-.09,1.23-.41,1.66-.97.36-.47.52-1.08.44-1.67-.08-.63-.4-1.2-.91-1.59-.51-.39-1.05-.51-1.69-.48ZM41.99,35.61c-.71.15-1.23.46-1.63,1.08-.33.52-.43,1.15-.3,1.74.14.62.52,1.16,1.07,1.5.46.28,1.05.41,1.58.32.66-.11,1.22-.43,1.61-.98.38-.54.5-1.17.39-1.81-.1-.6-.46-1.11-.95-1.45-.62-.44-1.05-.43-1.77-.4Z"/>
    <path class="cls-2" d="M32.42,31.42c.51-.05,1.03-.01,1.54-.01.44,0,.93-.05,1.37.02.18.03.35.08.5.18.23.15.4.4.45.67.06.29,0,.6-.17.84-.18.27-.43.38-.73.45-.57.05-1.14.02-1.71.02-.39,0-.81.04-1.2-.02-.16-.02-.3-.07-.43-.16-.25-.16-.42-.42-.48-.71-.06-.29,0-.6.17-.84.16-.24.41-.39.69-.44Z"/>
  </g>
</svg>