<?xml version="1.0" encoding="UTF-8"?>
<svg id="Layer_1" data-name="Layer 1" xmlns="http://www.w3.org/2000/svg" viewBox="0 0 64 64">
  <defs>
    <style>
      .cls-1 {
        fill: #31726b;
        opacity: .1;
      }

      .cls-2 {
        fill: #4ea49b;
      }
    </style>
  </defs>
  <rect class="cls-1" x="0" width="64" height="64"/>
  <g>
    <path class="cls-2" d="M35.19,35.88c-.16,0-.32,0-.46-.03-.22-.04-.42-.13-.58-.27-.23-.2-.37-.49-.39-.8-.02-.31.1-.62.31-.85.29-.31.63-.36.92-.37h1.94s.52-.02.65-.02c.2,0,.39,0,.54.04.22.04.43.15.59.31.21.21.33.49.34.79,0,.34-.11.64-.33.86-.28.28-.6.33-.88.34-.44,0-.88,0-1.31,0h-.8s-.55.01-.55.01Z"/>
    <path class="cls-2" d="M34.11,34.75c-.01-.22.07-.43.21-.59.19-.2.41-.25.68-.26.64,0,1.29,0,1.93,0,.34,0,.81-.04,1.13.02.16.03.3.11.42.22.15.15.23.34.24.55,0,.22-.07.44-.22.6-.18.18-.39.23-.64.23-.7,0-1.4,0-2.11,0-.3,0-.66.03-.95-.02-.15-.03-.29-.09-.41-.19-.16-.14-.26-.34-.27-.55Z"/>
    <path class="cls-2" d="M35.19,35.88c-.16,0-.32,0-.46-.03-.22-.04-.42-.13-.58-.27-.23-.2-.37-.49-.39-.8-.02-.31.1-.62.31-.85.29-.31.63-.36.92-.37h1.94s.52-.02.65-.02c.2,0,.39,0,.54.04.22.04.43.15.59.31.21.21.33.49.34.79,0,.34-.11.64-.33.86-.28.28-.6.33-.88.34-.44,0-.88,0-1.31,0h-.8s-.55.01-.55.01Z"/>
    <g>
      <path class="cls-2" d="M34.11,34.75c-.01-.22.07-.43.21-.59.19-.2.41-.25.68-.26.64,0,1.29,0,1.93,0,.34,0,.81-.04,1.13.02.16.03.3.11.42.22.15.15.23.34.24.55,0,.22-.07.44-.22.6-.18.18-.39.23-.64.23-.7,0-1.4,0-2.11,0-.3,0-.66.03-.95-.02-.15-.03-.29-.09-.41-.19-.16-.14-.26-.34-.27-.55Z"/>
      <g>
        <path class="cls-2" d="M29.28,35.87c-.87-.02-1.7-.3-2.35-.81-.64-.51-1.09-1.19-1.35-2.09-.07-.23-.13-.46-.16-.69-.1-.84.59-2.38,2.17-4.83l.15-.24c.19-.3.38-.6.59-.87.22-.28.49-.43.85-.47,0,0,0,0,.01,0,.33,0,.61.11.8.28.24.22.51.66.71.98l.07.12c.47.74.93,1.51,1.35,2.28.2.38.44.8.61,1.25.2.5.3.94.31,1.34.02.93-.37,1.91-1.05,2.62-.7.72-1.66,1.13-2.72,1.15h-.01ZM29.25,29.12c-.33.54-.66,1.1-.96,1.66-.22.41-.39.74-.46,1.08-.04.17-.03.35.01.53.09.37.33.7.66.89.24.15.51.22.77.22.52-.04.87-.21,1.12-.51.24-.28.38-.65.35-.93-.02-.19-.11-.41-.2-.63-.12-.26-.26-.51-.4-.76l-.07-.12c-.23-.43-.47-.85-.73-1.26l-.1-.17Z"/>
        <path class="cls-2" d="M32.43,30.9c-.17-.42-.38-.82-.6-1.21-.42-.77-.87-1.52-1.34-2.26-.18-.28-.5-.81-.73-1.03-.13-.12-.35-.2-.54-.19-.26.03-.45.13-.61.34-.27.34-.49.72-.73,1.09-.6.94-2.24,3.52-2.12,4.6.02.22.09.43.15.64.22.76.6,1.41,1.23,1.91.61.48,1.37.72,2.14.74.94-.02,1.81-.36,2.47-1.04.59-.62.98-1.51.96-2.37,0-.41-.13-.83-.29-1.22ZM30.66,33.21c-.35.41-.81.59-1.34.64-.35.01-.7-.09-1-.27-.41-.24-.71-.64-.82-1.11-.05-.22-.06-.46-.01-.68.09-.41.3-.8.5-1.17.39-.74.82-1.44,1.26-2.15.15.19.28.43.41.64.26.42.5.84.74,1.27.17.3.34.6.48.91.1.22.21.49.23.74.04.42-.17.87-.43,1.18Z"/>
        <path class="cls-2" d="M28.14,39.22h-1.2c-.13,0-.27,0-.4,0-.25-.02-.46-.11-.63-.26-.24-.2-.39-.49-.41-.78-.02-.3.08-.6.29-.83.22-.24.52-.38.87-.4.38,0,.76-.01,1.14-.01h1.85s8.11,0,8.11,0c.09,0,.18,0,.27.01.26.02.48.12.65.27.23.2.36.49.38.83.02.3-.08.59-.28.81-.27.3-.61.35-.87.36h-4.87c-.68,0-1.36.01-2.04.01-.55,0-2.85-.01-2.85-.01Z"/>
        <path class="cls-2" d="M38.71,38.07c.01.2-.05.4-.19.55-.17.19-.38.24-.63.25h-4.86c-1.23.01-2.46.01-3.69,0-.62,0-1.24,0-1.86,0-.3,0-.62.02-.91,0-.17-.02-.31-.06-.44-.17-.16-.13-.27-.33-.29-.54-.01-.21.06-.41.2-.57.17-.18.39-.27.63-.28.99-.02,1.98,0,2.97,0h4.12s2.84,0,2.84,0h.87c.17,0,.34,0,.51,0,.17.02.32.07.45.19.17.15.25.36.26.58Z"/>
        <path class="cls-2" d="M24.49,46.31c-.2,0-.4,0-.6-.02-.39-.03-.73-.15-1.04-.37-.46-.33-.76-.82-.84-1.38-.07-.42-.06-.9-.05-1.33v-.31c0-.22,0-1.23,0-1.23v-5.44s0-11.17,0-11.17l.03-3.66v-.53c0-.4,0-.79.02-1.18.03-.47.15-.83.38-1.15.34-.47.83-.75,1.48-.86h2.27c.11,0,.23,0,.34,0,.13,0,.19.01.26.01h.39s1.34-.01,1.34-.01h4.35s1.29,0,1.29,0c.13,0,.26,0,.38.02.26.03.49.12.69.25.16.11.3.26.43.38l1.39,1.39c1.36,1.33,2.71,2.68,4.04,4.05.2.2.4.4.61.6l.31.31c.1.1.2.2.3.3.12.14.28.37.33.66.04.22.03.44.03.64v1.27s0,12.17,0,12.17c0,.99,0,1.99,0,2.98v.47c.01.41.02.83,0,1.22-.02.37-.15.72-.36,1.02-.31.44-.79.76-1.29.85-.19.03-.39.04-.58.04h-1.61s-11.44,0-11.44,0h-2.84ZM40.32,44.03v-17.1s-4.68,0-4.68,0c-.18,0-.38,0-.59-.05-.44-.09-.84-.31-1.15-.62-.3-.3-.5-.68-.59-1.13-.06-.28-.05-.55-.05-.82v-4.33s-8.73,0-8.96,0c0,.55,0,1.09,0,1.64v21.62s.01.65.01.79h16.01ZM35.55,24.38c0,.09,0,.18,0,.27.11,0,3.13,0,3.13,0l-2.27-2.27c-.29-.29-.57-.58-.86-.86,0,.4,0,2.86,0,2.86Z"/>
        <path class="cls-2" d="M29.28,35.87c-.87-.02-1.7-.3-2.35-.81-.64-.51-1.09-1.19-1.35-2.09-.07-.23-.13-.46-.16-.69-.1-.84.59-2.38,2.17-4.83l.15-.24c.19-.3.38-.6.59-.87.22-.28.49-.43.85-.47,0,0,0,0,.01,0,.33,0,.61.11.8.28.24.22.51.66.71.98l.07.12c.47.74.93,1.51,1.35,2.28.2.38.44.8.61,1.25.2.5.3.94.31,1.34.02.93-.37,1.91-1.05,2.62-.7.72-1.66,1.13-2.72,1.15h-.01ZM29.25,29.12c-.33.54-.66,1.1-.96,1.66-.22.41-.39.74-.46,1.08-.04.17-.03.35.01.53.09.37.33.7.66.89.24.15.51.22.77.22.52-.04.87-.21,1.12-.51.24-.28.38-.65.35-.93-.02-.19-.11-.41-.2-.63-.12-.26-.26-.51-.4-.76l-.07-.12c-.23-.43-.47-.85-.73-1.26l-.1-.17Z"/>
        <path class="cls-2" d="M32.43,30.9c-.17-.42-.38-.82-.6-1.21-.42-.77-.87-1.52-1.34-2.26-.18-.28-.5-.81-.73-1.03-.13-.12-.35-.2-.54-.19-.26.03-.45.13-.61.34-.27.34-.49.72-.73,1.09-.6.94-2.24,3.52-2.12,4.6.02.22.09.43.15.64.22.76.6,1.41,1.23,1.91.61.48,1.37.72,2.14.74.94-.02,1.81-.36,2.47-1.04.59-.62.98-1.51.96-2.37,0-.41-.13-.83-.29-1.22ZM30.66,33.21c-.35.41-.81.59-1.34.64-.35.01-.7-.09-1-.27-.41-.24-.71-.64-.82-1.11-.05-.22-.06-.46-.01-.68.09-.41.3-.8.5-1.17.39-.74.82-1.44,1.26-2.15.15.19.28.43.41.64.26.42.5.84.74,1.27.17.3.34.6.48.91.1.22.21.49.23.74.04.42-.17.87-.43,1.18Z"/>
        <path class="cls-2" d="M28.14,39.22h-1.2c-.13,0-.27,0-.4,0-.25-.02-.46-.11-.63-.26-.24-.2-.39-.49-.41-.78-.02-.3.08-.6.29-.83.22-.24.52-.38.87-.4.38,0,.76-.01,1.14-.01h1.85s8.11,0,8.11,0c.09,0,.18,0,.27.01.26.02.48.12.65.27.23.2.36.49.38.83.02.3-.08.59-.28.81-.27.3-.61.35-.87.36h-4.87c-.68,0-1.36.01-2.04.01-.55,0-2.85-.01-2.85-.01Z"/>
        <path class="cls-2" d="M25.85,38.15c-.01-.21.06-.41.2-.57.17-.18.39-.27.63-.28.99-.02,1.98,0,2.97,0h4.12s2.84,0,2.84,0h.87c.17,0,.34,0,.51,0,.17.02.32.07.45.19.17.15.25.36.26.58.01.2-.05.4-.19.55-.17.19-.38.24-.63.25h-4.86c-1.23.01-2.46.01-3.69,0-.62,0-1.24,0-1.86,0-.3,0-.62.02-.91,0-.17-.02-.31-.06-.44-.17-.16-.13-.27-.33-.29-.54Z"/>
        <path class="cls-2" d="M28.14,39.22h-1.2c-.13,0-.27,0-.4,0-.25-.02-.46-.11-.63-.26-.24-.2-.39-.49-.41-.78-.02-.3.08-.6.29-.83.22-.24.52-.38.87-.4.38,0,.76-.01,1.14-.01h1.85s8.11,0,8.11,0c.09,0,.18,0,.27.01.26.02.48.12.65.27.23.2.36.49.38.83.02.3-.08.59-.28.81-.27.3-.61.35-.87.36h-4.87c-.68,0-1.36.01-2.04.01-.55,0-2.85-.01-2.85-.01Z"/>
        <path class="cls-2" d="M29.28,35.87c-.87-.02-1.7-.3-2.35-.81-.64-.51-1.09-1.19-1.35-2.09-.07-.23-.13-.46-.16-.69-.1-.84.59-2.38,2.17-4.83l.15-.24c.19-.3.38-.6.59-.87.22-.28.49-.43.85-.47,0,0,0,0,.01,0,.33,0,.61.11.8.28.24.22.51.66.71.98l.07.12c.47.74.93,1.51,1.35,2.28.2.38.44.8.61,1.25.2.5.3.94.31,1.34.02.93-.37,1.91-1.05,2.62-.7.72-1.66,1.13-2.72,1.15h-.01ZM29.25,29.12c-.33.54-.66,1.1-.96,1.66-.22.41-.39.74-.46,1.08-.04.17-.03.35.01.53.09.37.33.7.66.89.24.15.51.22.77.22.52-.04.87-.21,1.12-.51.24-.28.38-.65.35-.93-.02-.19-.11-.41-.2-.63-.12-.26-.26-.51-.4-.76l-.07-.12c-.23-.43-.47-.85-.73-1.26l-.1-.17Z"/>
      </g>
    </g>
  </g>
</svg>