<?xml version="1.0" encoding="UTF-8"?>
<svg id="Layer_1" data-name="Layer 1" xmlns="http://www.w3.org/2000/svg" viewBox="0 0 64 64">
  <defs>
    <style>
      .cls-1 {
        fill: #31726b;
        opacity: .1;
      }

      .cls-2 {
        fill: #4ea49b;
      }
    </style>
  </defs>
  <rect class="cls-1" x="0" width="64" height="64"/>
  <g>
    <path class="cls-2" d="M48.86,35.03c-.2-.75-.67-1.41-1.31-1.84-.41-.27-.87-.39-1.33-.54-.37-.12-.74-.23-1.11-.35-.44-.13-.88-.28-1.31-.42-.37-.12-.74-.22-1.11-.36-.19-.07-.8-.22-.92-.31-.16-.11-.29-.46-.39-.63-.52-.85-1.01-1.71-1.51-2.57-.27-.45-.5-.92-.83-1.33-.36-.44-.78-.8-1.28-1.09-.5-.29-1.05-.48-1.63-.55-.48-.06-.98-.04-1.47-.04h-5.98c-.55,0-1.12-.02-1.68,0-.31.02-.62.07-.91.16-.9.24-1.84.79-2.42,1.55-.23.31-.41.68-.6,1.01-.16.29-.33.56-.49.85l-1.47,2.53c-.71,0-1.43,0-2.14,0-.37,0-.76-.02-1.14,0-.21.02-.42.07-.63.14-.7.25-1.25.81-1.54,1.49-.06.16-.07.35-.15.49,0,0,0,.01-.01.02v5.56s0,.01.01.02c.07.13.1.44.16.6.21.63.85,1.18,1.48,1.37.51.16,1.14.08,1.68.1.12,1.08.82,2.17,1.65,2.84,1.02.82,2.22,1.13,3.51.99,1.2-.14,2.22-.81,2.96-1.74.5-.63.74-1.28.87-2.06.19.04.44.01.64,0h5.85c.22,0,.44,0,.66.01.27,1.3.86,2.32,1.98,3.06,1,.66,2.29.93,3.47.68,1.23-.26,2.26-1.01,2.93-2.06.21-.33.37-.68.49-1.05.06-.19.1-.4.18-.59h2.45c.5,0,1.27.07,1.72-.04.2-.05.38-.19.53-.34.12-.11.2-.27.31-.38v-4.69c-.11-.14-.1-.37-.15-.54ZM32.01,27.14c.24.03.52,0,.76,0h1.91c.39,0,.79-.02,1.18.03.59.09,1.19.42,1.55.9.37.51.68,1.12,1,1.67.25.43.55.86.75,1.31.01.03.01.04,0,.08-.3-.03-.6-.02-.9-.02-.41,0-.82,0-1.24,0-1.67,0-3.35.02-5.03,0,.05-1.33-.03-2.66,0-3.98ZM25.16,41.88c-.49.54-1.09.82-1.81.85-.55,0-1.12-.16-1.55-.52-.53-.44-.89-1.02-.95-1.72-.05-.66.17-1.3.59-1.81.48-.56,1.1-.79,1.82-.85.61,0,1.2.2,1.66.61.49.43.8,1.03.83,1.68.03.64-.17,1.26-.6,1.74ZM41.37,41.77c-.45.55-1.04.86-1.74.93-.56.01-1.14-.13-1.61-.46-.53-.39-.89-.95-.98-1.6-.1-.63.05-1.28.43-1.8.45-.61,1.05-.89,1.79-1,.67-.03,1.27.16,1.78.58.47.38.78,1.01.84,1.61.06.63-.1,1.25-.51,1.73ZM46.91,36.89v1.95c-.76-.02-1.52,0-2.28,0-.21,0-.59.03-.78-.02-.09-.03-.23-.45-.28-.55-.31-.62-.76-1.16-1.3-1.59-.98-.76-2.22-1.09-3.44-.93-1.25.16-2.3.84-3.07,1.82-.28.41-.48.84-.68,1.3-1.74-.04-3.49,0-5.24,0h-1.38c-.28,0-.57.02-.85-.01-.03-.11-.07-.21-.12-.32-.47-1.12-1.43-2.05-2.55-2.51-1.11-.45-2.35-.43-3.45.05-1.31.56-2.03,1.52-2.55,2.8-.28,0-1.03.07-1.23-.11-.14-.11-.16-.28-.17-.45-.02-.35,0-.72,0-1.07v-2.81c0-.24,0-.49,0-.72.01-.12.03-.22.11-.31s.19-.15.31-.16c.29-.05.72-.01,1.02-.01h1.84c.33,0,.65.01.98,0,.26-.01.47-.08.66-.27.26-.26.54-.87.72-1.21.21-.38.43-.74.65-1.12.3-.53.61-1.06.91-1.58.21-.35.39-.76.66-1.06.46-.5,1.17-.83,1.85-.86.32-.03.65-.01.96,0,.55,0,1.1,0,1.65,0v4.8c0,.38.02.7.31.98.42.42.98.34,1.53.33h6.35s1.84,0,1.84,0c.35,0,.72-.02,1.06.03.38.06.77.22,1.15.34.87.26,1.73.53,2.59.81l.91.29c.22.07.47.13.68.23.11.05.2.12.29.2.14.15.22.29.26.49.09.38.04.86.04,1.25Z"/>
    <path class="cls-2" d="M26.2,31.13c.38-.03,1.38-.05,1.73.03.14.03.28.1.4.19.23.17.38.41.41.69.04.28-.03.57-.21.8-.18.23-.41.37-.71.41-.31.01-.63,0-.95,0-.26,0-.55.02-.8-.03-.15-.03-.28-.09-.4-.17-.23-.17-.38-.41-.43-.69-.04-.29.02-.59.2-.83.2-.26.44-.36.75-.41Z"/>
    <path class="cls-2" d="M23.63,23.18c-.34.78-.97,1.4-1.77,1.71-.57.22-1.17.2-1.77.2h-1.04c-.29,0-.61-.02-.9.08-.24.09-.43.27-.53.51-.11.25-.14.53-.04.78.1.25.29.47.54.57.78.32,2.02-.33,2.48.77.11.25.11.56,0,.81-.11.25-.35.49-.6.59-.33.13-1.58.08-1.94,0-.28-.05-.54-.14-.8-.25-.72-.34-1.36-1.03-1.63-1.78-.07-.21-.09-.52-.17-.69v-.76s0-.01.01-.02c.08-.17.07-.38.13-.56.3-.86.93-1.63,1.8-1.98.63-.25,1.19-.23,1.85-.23h1.01c.26,0,.55.03.81-.05.27-.08.48-.28.59-.54.1-.22.11-.45.01-.68-.09-.23-.28-.43-.52-.53-.53-.21-1.08.13-1.63-.34-.13-.11-.24-.24-.31-.39-.11-.26-.11-.58,0-.84.11-.27.32-.49.59-.61.54-.22,1.62-.04,2.13.17.76.32,1.37.92,1.68,1.69.32.76.32,1.62,0,2.37Z"/>
  </g>
</svg>