<?xml version="1.0" encoding="UTF-8"?>
<svg id="Layer_1" data-name="Layer 1" xmlns="http://www.w3.org/2000/svg" viewBox="0 0 64 64">
  <defs>
    <style>
      .cls-1 {
        opacity: .96;
      }

      .cls-1, .cls-2 {
        fill: #4ea49b;
      }

      .cls-3 {
        fill: #31726b;
        opacity: .1;
      }
    </style>
  </defs>
  <g>
    <rect class="cls-3" width="64" height="64"/>
    <path class="cls-1" d="M40.87,25.3c.05.1.03,1.59,0,1.75-.03-.11-.03-1.64,0-1.75Z"/>
  </g>
  <g>
    <path class="cls-2" d="M51.03,26.23c-.24,0-.49-.07-.66-.2-.25-.18-.41-.44-.46-.74-.06-.37-.06-1.07.02-1.38.03-.13.09-.25.17-.36.19-.25.45-.41.78-.46h.09c.26,0,.5.06.69.19.26.17.42.42.48.72.09.48.06,1.38-.2,1.76-.18.25-.44.41-.78.47-.04,0-.09,0-.14,0Z"/>
    <path class="cls-2" d="M47.48,26.23c-.29,0-.59-.1-.78-.26-.23-.19-.35-.42-.38-.68-.03-.31-.02-.64-.02-.97v-.44c0-.13,0-.27,0-.42-.01-.36-.02-.76.04-1.06.04-.19.12-.36.24-.51.19-.23.44-.34.83-.37h0c.29,0,.5.07.68.2.26.18.44.51.49.84.05.38.06,2.34,0,2.69-.04.19-.12.37-.23.53-.2.26-.45.4-.82.45h-.04Z"/>
    <path class="cls-2" d="M51,29.82h-5.79s-.94,0-.94,0c-.18,0-.36,0-.54-.01-.16,0-.3-.04-.43-.1-.21-.1-.42-.33-.49-.56-.03-.09-.05-.18-.05-.27-.01-.23,0-.47,0-.7v-.37c0-.69,0-1.38,0-2.06v-3.55s0-.71,0-.71c0-.48,0-.96,0-1.44,0-.15.01-.39.07-.49.05-.09.09-.16.14-.22.19-.25.44-.38.79-.43.39.03.69.18.89.42.13.16.17.32.2.53.05.37.04.76.04,1.14v1.28s-.06.2-.06.2c-.05.17-.06,1.9,0,2.06l.07.23v1.65c0,.32,0,.65-.02.96l-.02.2.2.02c.42.03.85.04,1.27.04,0,0,2.36-.01,3.04-.01h1.34s.96,0,.96,0c.24,0,.48,0,.66.03.18.02.35.09.5.19.25.17.4.41.46.7.06.3-.01.62-.19.87-.17.24-.4.38-.7.42-.14,0-.31.01-.47.01h-.92Z"/>
    <path class="cls-2" d="M20.39,45.09c-.57,0-1.14-.12-1.63-.35-1-.46-1.83-1.31-2.22-2.27l-.05-.11h-.12c-.27-.03-.55-.04-.83-.04h-1.44c-.32.01-.58,0-.82-.08-.19-.06-.36-.17-.49-.33-.08-.09-.12-.2-.16-.32-.03-.09-.07-.19-.12-.28v-6.33c.07-.08.11-.29.15-.49.02-.12.05-.24.08-.33.32-.99,1.05-1.72,2.06-2.08.42-.15.87-.16,1.29-.16h.35c.14,0,.28,0,.42,0h.1s.06-.09.06-.09c.18-.26.34-.54.5-.81l.23-.38c.39-.64.78-1.27,1.18-1.9.09-.14.17-.29.26-.43.14-.23.27-.46.42-.68.69-1,1.68-1.66,2.79-1.87.39-.07.8-.08,1.11-.08h.91s2.52.01,2.52.01h3.08s1.03-.02,1.03-.02c.38,0,.88.01,1.35.09.89.15,1.69.48,2.43,1.01.4.28.75.65,1.09,1.02.12.13.24.25.35.37l2.77,2.84c.07.07.16.16.25.26.26.28.55.59.79.75.21.14.66.23,1.05.32.14.03.27.06.36.08l1.01.27c.85.22,1.7.45,2.54.69.22.06.45.12.68.18.4.1.81.2,1.18.34,1.08.42,1.9,1.42,2.1,2.54.07.39.07.78.06,1.19v1.78c0,.16,0,.33,0,.52,0,.49.02,1.05-.03,1.45-.02.16-.08.31-.17.43-.16.24-.41.39-.7.45-.16.03-.32.04-.49.04h-.8c-.41-.01-.83,0-1.24,0h-.14s-.05.13-.05.13c-.38,1-1.2,1.88-2.22,2.34-.45.21-.99.31-1.57.31-.52,0-1.04-.09-1.48-.26-1.03-.39-1.89-1.22-2.35-2.26l-.08-.18-.05-.11h-.12c-.24-.02-.47-.02-.71-.02h-3.23s-5.9,0-5.9,0h-2.2s-.7.02-.7.02c-.13,0-.25,0-.38-.01h-.14s-.06.12-.06.12c-.56,1.24-1.38,2.07-2.43,2.47-.45.17-.94.26-1.43.26ZM41.29,39.22c-.57.12-.98.41-1.26.85-.25.39-.32.9-.2,1.39.12.47.42.87.83,1.12.27.16.61.26.93.26.11,0,.22-.01.32-.04.62-.16,1.02-.45,1.3-.92.23-.39.28-.92.14-1.41-.13-.44-.43-.82-.84-1.04-.28-.16-.57-.22-.96-.22-.09,0-.18,0-.27,0ZM20.08,39.13c-.6.14-1,.41-1.26.83-.26.42-.35.93-.24,1.39.12.51.45.96.87,1.21.27.16.59.24.94.24.11,0,.23,0,.34-.02.56-.13.99-.43,1.26-.87.26-.42.34-.91.23-1.38-.12-.47-.44-.91-.88-1.17-.34-.21-.67-.23-.95-.23-.1,0-.21,0-.31,0ZM15.63,40.08c.2,0,.39,0,.59,0h.16s.04-.14.04-.14c.34-1.16,1.04-2.05,2.01-2.58.6-.32,1.27-.49,1.95-.49.39,0,.77.05,1.14.16.79.24,1.51.72,2.07,1.38.32.42.55.88.78,1.52l.05.13h.28s.91,0,.91,0c.15,0,.3,0,.45,0h.21s0-.2,0-.2c0-.44,0-.89.01-1.33,0-.46.01-.92.01-1.37,0-.29,0-.58-.01-.87-.01-.63-.02-1.26,0-1.88v-.2s-.19,0-.19,0c-.33-.02-.67-.02-1-.02h-1.12s-7.36,0-7.36,0c-.29,0-.57,0-.85.02-.3.05-.54.19-.72.42-.11.15-.18.31-.21.5-.06.39-.05.8-.03,1.2v.41s.02.68.02.68c0,.82.02,1.64,0,2.45v.21s.85,0,.85,0ZM28.49,40.05h.19c.53.03,1.06.03,1.59.03h1.94c.67,0,1.28,0,1.9,0,1.13,0,2.25,0,3.38-.02h.14s.05-.13.05-.13c.3-.78.63-1.32,1.05-1.77.78-.78,1.83-1.22,2.94-1.22,1.08,0,2.12.45,2.87,1.21.43.44.73.96.98,1.7l.04.13,1.31.02v-.2c0-.6.01-1.2,0-1.8v-.25c0-.28.02-.58-.04-.86-.05-.26-.15-.46-.31-.62-.12-.13-.26-.21-.45-.28-.33-.12-.68-.2-1.02-.29l-.39-.1-3.07-.81c-.45-.12-.89-.24-1.34-.35l-.26-.07c-.19-.05-.38-.1-.58-.14-.25-.04-.51-.05-.77-.05h-.69s-8.31.02-8.31.02h-.61c-.11.01-.22,0-.33,0l-.22-.02v5.87ZM23.66,27.97c-.65.02-1.39.03-2,.68-.2.21-.35.46-.5.7l-.08.13c-.25.4-.5.81-.75,1.22l-.14.25c-.13.23-.26.46-.42.66l-.26.33h.42c.42-.02.83-.02,1.25-.02h3.57c.44.01.89,0,1.33,0h.21s-.02-.22-.02-.22c-.02-.27-.02-.56-.01-.83v-.39s0-.57,0-.57c0-.58,0-1.15,0-1.73v-.21s-.59.01-.79.01c-.31,0-1.82-.02-1.82-.02h0ZM35.59,31.92c.26,0,.53,0,.79.01h.12s.12-.19.12-.19l-.02-.13c-.05-.1-.27-.33-1.03-1.06-.14-.14-.26-.25-.31-.3-.17-.17-.33-.34-.5-.52-.21-.22-.41-.44-.63-.65-.14-.14-.28-.26-.43-.38-.3-.23-.64-.42-1-.54-.38-.13-.92-.19-1.72-.19-.31,0-.62,0-.91.02-.2,0-.9.02-.9.02-.15,0-.3,0-.44-.02l-.22-.03v.22c-.04,1.25-.04,2.44,0,3.55v.19s.19,0,.19,0c.48.01.96.02,1.43.02h5.46Z"/>
  </g>
</svg>