<?xml version="1.0" encoding="UTF-8"?>
<svg id="Layer_1" data-name="Layer 1" xmlns="http://www.w3.org/2000/svg" viewBox="0 0 64 64">
  <defs>
    <style>
      .cls-1 {
        fill: #31726b;
        opacity: .1;
      }

      .cls-2 {
        fill: #4ea49b;
      }
    </style>
  </defs>
  <rect class="cls-1" width="64" height="64"/>
  <g>
    <path class="cls-2" d="M47.64,34.66c-.05-.19-.05-.41-.06-.61-.07-.92-.27-1.83-.5-2.72-.73-2.79-2.56-5.6-4.75-7.47-.73-.63-1.52-1.16-2.35-1.65-.98-.58-2.07-1.02-3.16-1.34-2.62-.79-5.41-.83-8.05-.14-1.1.29-2.17.7-3.17,1.24-2.49,1.31-4.57,3.29-5.99,5.73-.21.34-.38.71-.55,1.07-.65,1.33-1.09,2.75-1.33,4.21-.18,1.09-.21,2.17-.21,3.27,0,0,0,.01.01.02.05.11.07.77.09.96.04.37.09.74.15,1.1.11.64.27,1.3.47,1.92.28.91.68,1.85,1.16,2.67.09.15.17.31.27.44.1.13.24.25.39.31.15.06.3.07.46.08.37,0,.75,0,1.13,0h2.28s8.69,0,8.69,0h8.31s2.63,0,2.63,0c.37,0,.75.01,1.12,0,.14,0,.26-.02.39-.07.13-.05.24-.13.33-.23.14-.15.24-.35.34-.53.25-.45.48-.91.68-1.39.16-.38.31-.76.44-1.14.29-.86.48-1.74.62-2.63.04-.21.06-.43.08-.64.07-.82.09-1.62.09-2.44,0,0,0,0,0-.01ZM44.03,41.7c-.46-.02-.91,0-1.37,0h-3.46s-10.04,0-10.04,0h-5.03c-.73.01-1.47.01-2.2,0-.21,0-.43,0-.64,0-.04,0-.14,0-.16-.03-.1-.09-.2-.41-.26-.54-.75-1.56-1.13-3.27-1.23-4.99.03,0,.06,0,.09.01.22.02.44,0,.66,0,.33,0,.7.04,1.02-.03.13-.03.25-.09.35-.17.18-.15.28-.37.29-.6.01-.23-.07-.45-.23-.62-.09-.1-.21-.17-.35-.21-.29-.08-.65-.05-.96-.05-.29,0-.58,0-.87,0,.09-1.18.31-2.43.74-3.54.12-.32.25-.63.39-.94.11-.25.24-.49.34-.74.42.29.84.59,1.28.85.22.13.47.2.72.13.2-.06.36-.2.47-.38.11-.19.14-.42.08-.63-.04-.14-.13-.27-.24-.36-.17-.15-.43-.28-.63-.41-.27-.17-.53-.36-.81-.51.78-1.11,1.61-2,2.68-2.85.32-.25.63-.49.97-.7.21.32.37.7.54,1.04.08.15.15.32.26.45.1.12.23.21.38.26.19.07.41.05.59-.03.19-.1.36-.29.43-.5.16-.47-.14-.82-.34-1.21-.14-.27-.27-.53-.4-.8.18-.12.4-.2.6-.29,1.25-.55,2.75-.9,4.12-.96,0,.33,0,.66,0,.98,0,.29-.02.59.03.88.03.2.16.36.32.48.19.13.43.17.65.13.65-.12.62-.79.61-1.29,0-.29,0-.57-.01-.86,0-.09-.02-.25.03-.33.13.02.26.02.38.03.21.02.42.05.63.08,1.33.22,2.47.59,3.69,1.16-.06.16-.15.31-.24.45l-.37.65c-.08.14-.17.29-.21.45-.03.13-.03.29,0,.42.05.2.2.36.37.46.19.11.42.14.63.08.14-.04.26-.12.36-.22.14-.16.23-.38.33-.56.17-.31.34-.61.52-.92.32.18.61.4.89.62.79.61,1.44,1.28,2.07,2.04.22.27.41.58.65.84l.02.02c-.23.14-.44.29-.66.44-.28.18-.6.34-.81.6-.06.08-.1.18-.12.27-.05.21-.03.45.09.63.12.18.31.32.52.36.13.02.27.02.39-.02.18-.07.35-.21.51-.32.31-.21.63-.41.93-.63.12.15.21.34.3.52.51,1.01.88,2.2,1.07,3.32.08.46.09.92.17,1.38v.02c-.29-.01-.58,0-.88,0-.29,0-.63-.03-.91.03-.14.03-.28.1-.39.2-.16.15-.23.36-.24.58,0,.23.07.43.24.59.1.1.22.17.36.21.28.08.61.05.9.05h.94c-.08,1.94-.59,3.83-1.5,5.54Z"/>
    <path class="cls-2" d="M36.42,38.31c1.22-.02,2.44,0,3.65,0h.98c.2,0,.41,0,.61.02.16.02.31.08.43.18.17.14.27.34.28.56.01.23-.07.45-.22.62-.18.19-.37.25-.63.26-.33,0-.67,0-1.01,0h-2.34s-1.17,0-1.17,0c-.25,0-.51.02-.76-.01-.16-.02-.3-.08-.42-.18-.17-.14-.26-.33-.28-.55-.02-.21.05-.46.19-.62.18-.21.42-.26.68-.28Z"/>
    <path class="cls-2" d="M23.02,38.31c.44-.01.88,0,1.32,0h2.59s1.14,0,1.14,0c.27,0,.57-.02.84.01.17.02.33.1.45.21.16.14.25.33.27.54.01.22-.06.45-.2.61-.18.2-.39.25-.65.26h-3.97s-1.27,0-1.27,0c-.25,0-.52.01-.77-.03-.15-.02-.29-.1-.4-.2-.16-.14-.24-.32-.26-.54-.02-.23.05-.45.21-.62.2-.21.43-.24.7-.26Z"/>
    <path class="cls-2" d="M39.14,29.86c-.19-.17-.42-.22-.66-.21-.14.02-.25.04-.37.12-.24.18-.44.42-.65.63-.49.49-.97.97-1.45,1.46-.4.39-.8.79-1.19,1.19-.16.16-.35.32-.49.49-.01.02-.03.04-.04.06-.79-.46-1.6-.65-2.5-.41-.79.21-1.42.71-1.83,1.42-.39.69-.5,1.57-.28,2.34.2.7.59,1.21,1.16,1.65.72.48,1.51.68,2.37.51.78-.16,1.45-.64,1.88-1.3.44-.69.59-1.52.43-2.32-.05-.22-.13-.42-.2-.63.19-.2.39-.38.58-.58l2.38-2.4c.2-.2.4-.4.6-.61.12-.12.26-.24.36-.38.1-.14.16-.31.16-.48,0-.22-.09-.42-.25-.57ZM33.48,36.82c-.21.26-.46.42-.79.45-.28.03-.57-.04-.8-.21-.26-.18-.43-.46-.48-.77-.04-.29.05-.63.22-.87.2-.27.48-.4.8-.45.32-.03.6.03.86.22.23.18.4.45.43.74.04.31-.04.63-.24.88Z"/>
  </g>
</svg>