<?xml version="1.0" encoding="UTF-8"?>
<svg id="Layer_1" data-name="Layer 1" xmlns="http://www.w3.org/2000/svg" viewBox="0 0 64 64">
  <defs>
    <style>
      .cls-1 {
        fill: #31726b;
        opacity: .1;
      }

      .cls-2 {
        fill: #4ea49b;
      }
    </style>
  </defs>
  <g>
    <rect class="cls-1" x="0" width="64" height="64"/>
    <g>
      <path class="cls-2" d="M24.26,46.29c-.2,0-.4,0-.61-.02-.25-.01-.52-.13-.74-.32-.25-.22-.41-.53-.43-.84-.02-.15-.01-.31-.01-.46v-22.82c0-.31,0-.64.02-.95.07-.66.35-1.34.75-1.88.55-.72,1.38-1.17,2.32-1.26.17-.01.33-.01.48-.01h10.96s.86-.01.86-.01c.36,0,.64.02.89.07.66.12,1.27.45,1.77.95.55.55.94,1.41,1,2.21,0,.09.01.19.01.29,0,0-.01.56-.01.68v.11s.01,2.64.01,2.64c.04.29.02.61.01.93v.28s-.01,5.01-.01,5.01h-.01c.01.1.01.2.01.31v1.53c.02,1.41.02,2.82.02,4.23v7.3c0,.27,0,.53-.02.8-.01.28-.08.52-.22.72-.18.26-.49.45-.79.49-.16.02-.32.03-.49.03h-.46s-14.63,0-14.63,0h-.17c-.18,0-.35.01-.53.01ZM26.06,43.81h3.03s10.17,0,10.17,0v-21.94c.01-.21.02-.43,0-.64-.02-.26-.12-.47-.27-.64-.16-.18-.35-.29-.55-.34-.16-.04-.44-.04-.53-.04h-.72s-8.67.02-8.67.02l-2.14-.02h-.3c-.12,0-.23,0-.33.01-.31.03-.53.15-.71.38-.14.18-.21.37-.23.61-.02.25-.02.5-.01.75v2.09s0,5.54,0,5.54v13.46c0,.25,0,.51,0,.76.42,0,.85,0,1.27,0ZM32,42.61c-.97,0-1.92-.36-2.68-1-.93-.79-1.53-1.93-1.69-3.22-.02-.22-.04-.45-.04-.67,0-.29.02-.55.07-.8.17-.96.8-2.22,1.87-3.75.43-.62.87-1.19,1.35-1.74.16-.2.32-.4.52-.54.13-.09.27-.14.42-.18l.02-.02h.13c.31,0,.6.13.87.42.94,1.01,1.8,2.21,2.64,3.69.26.45.55.97.73,1.5.15.42.22.84.22,1.24v.1c0,1.38-.42,2.58-1.22,3.47-.82.93-1.93,1.46-3.12,1.48h-.09ZM32.04,33.83c-.73.96-1.8,2.48-2.07,3.48-.05.17-.07.35-.07.53,0,.06,0,.12,0,.18.04.61.31,1.18.74,1.56.38.36.86.54,1.39.54.58,0,1.1-.25,1.49-.69.38-.44.62-1.05.62-1.64,0-.27-.07-.52-.17-.78-.13-.33-.31-.65-.48-.96-.44-.79-.86-1.43-1.3-2.02,0,0-.13-.18-.15-.21Z"/>
      <path class="cls-2" d="M32,42.61c-.97,0-1.92-.36-2.68-1-.93-.79-1.53-1.93-1.69-3.22-.06-.57-.05-1.04.03-1.47.17-.96.8-2.22,1.87-3.75.43-.62.87-1.19,1.35-1.74.16-.2.32-.4.52-.54.13-.09.27-.14.42-.18l.02-.02h.13c.31,0,.6.13.87.42.94,1.01,1.8,2.21,2.64,3.69.26.45.55.97.73,1.5.15.42.22.84.22,1.24.02,1.43-.4,2.66-1.22,3.58-.82.93-1.93,1.46-3.12,1.48h-.09ZM32.04,33.83c-.73.96-1.8,2.48-2.07,3.48-.06.23-.08.46-.06.71.04.61.31,1.18.74,1.56.38.36.86.54,1.39.54.58,0,1.1-.25,1.49-.69.39-.44.62-1.08.62-1.67,0-.24-.07-.49-.17-.75-.13-.33-.31-.65-.48-.96-.44-.79-.86-1.43-1.3-2.02,0,0-.13-.18-.15-.21Z"/>
      <path class="cls-2" d="M35.97,36.38c-.17-.51-.45-1.01-.71-1.46-.74-1.31-1.59-2.56-2.6-3.64-.19-.2-.41-.35-.69-.35-.01,0-.02,0-.03.01-.14.02-.27.06-.39.14-.18.14-.34.34-.48.51-.47.55-.91,1.12-1.33,1.72-.67.96-1.61,2.45-1.83,3.65-.09.46-.08.93-.03,1.39.15,1.21.72,2.31,1.6,3.06.74.63,1.66.96,2.6.94,1.13-.02,2.16-.51,2.94-1.4.83-.92,1.18-2.14,1.16-3.41,0-.4-.08-.79-.21-1.16ZM33.72,39.6c-.45.5-1.04.76-1.68.77-.58,0-1.12-.2-1.56-.61-.47-.43-.77-1.06-.82-1.73-.02-.27,0-.53.07-.79.3-1.14,1.59-2.9,2.29-3.8,0,0,0,.01.02.01.13.12.24.29.35.43.48.63.9,1.29,1.29,1.99.19.34.39.69.53,1.05.11.27.18.55.19.84.01.67-.26,1.36-.68,1.84Z"/>
      <path class="cls-2" d="M32,42.61c-.97,0-1.92-.36-2.68-1-.93-.79-1.53-1.93-1.69-3.22-.06-.57-.05-1.04.03-1.47.17-.96.8-2.22,1.87-3.75.43-.62.87-1.19,1.35-1.74.16-.2.32-.4.52-.54.13-.09.27-.14.42-.18l.02-.02h.13c.31,0,.6.13.87.42.94,1.01,1.8,2.21,2.64,3.69.26.45.55.97.73,1.5.15.42.22.84.22,1.24.02,1.43-.4,2.66-1.22,3.58-.82.93-1.93,1.46-3.12,1.48h-.09ZM32.04,33.83c-.73.96-1.8,2.48-2.07,3.48-.06.23-.08.46-.06.71.04.61.31,1.18.74,1.56.38.36.86.54,1.39.54.58,0,1.1-.25,1.49-.69.39-.44.62-1.08.62-1.67,0-.24-.07-.49-.17-.75-.13-.33-.31-.65-.48-.96-.44-.79-.86-1.43-1.3-2.02,0,0-.13-.18-.15-.21Z"/>
      <path class="cls-2" d="M35.97,36.38c-.17-.51-.45-1.01-.71-1.46-.74-1.31-1.59-2.56-2.6-3.64-.19-.2-.41-.35-.69-.35-.01,0-.02,0-.03.01-.14.02-.27.06-.39.14-.18.14-.34.34-.48.51-.47.55-.91,1.12-1.33,1.72-.67.96-1.61,2.45-1.83,3.65-.09.46-.08.93-.03,1.39.15,1.21.72,2.31,1.6,3.06.74.63,1.66.96,2.6.94,1.13-.02,2.16-.51,2.94-1.4.83-.92,1.18-2.14,1.16-3.41,0-.4-.08-.79-.21-1.16ZM33.72,39.6c-.45.5-1.04.76-1.68.77-.58,0-1.12-.2-1.56-.61-.47-.43-.77-1.06-.82-1.73-.02-.27,0-.53.07-.79.3-1.14,1.59-2.9,2.29-3.8,0,0,0,.01.02.01.13.12.24.29.35.43.48.63.9,1.29,1.29,1.99.19.34.39.69.53,1.05.11.27.18.55.19.84.01.67-.26,1.36-.68,1.84Z"/>
    </g>
  </g>
  <path class="cls-2" d="M38.05,26.26l-.4-1.49-.45-1.66c-.07-.28-.13-.57-.23-.84-.05-.12-.12-.22-.2-.3-.13-.13-.29-.22-.46-.24-.3-.04-.73-.01-1.04-.01h-5.73c-.59,0-1.19-.02-1.78.01-.26.02-.48.13-.65.35-.08.1-.12.23-.16.36-.08.25-.13.51-.19.76-.1.4-.2.81-.3,1.21-.15.57-.29,1.15-.43,1.72-.07.29-.16.58-.21.87-.02.09-.02.19-.02.28.03.26.13.48.31.64.15.13.32.19.51.21.34.03.71.01,1.05.01h9.28c.4,0,.76.01,1.06-.32.15-.17.25-.43.24-.66,0-.29-.12-.62-.2-.9ZM35.49,26.2h-7.62c.07-.36.16-.7.25-1.04.12-.5.24-.99.37-1.48.89-.02,1.78,0,2.68,0h4.31c.06.31.17.62.25.92.13.53.26,1.06.39,1.59h-.63Z"/>
</svg>