<?xml version="1.0" encoding="UTF-8"?>
<svg id="Layer_1" data-name="Layer 1" xmlns="http://www.w3.org/2000/svg" viewBox="0 0 64 64">
  <defs>
    <style>
      .cls-1 {
        fill: #4ea49b;
        fill-rule: evenodd;
      }

      .cls-2 {
        fill: #31726b;
        opacity: .1;
      }
    </style>
  </defs>
  <rect class="cls-2" x="0" width="64" height="64"/>
  <path class="cls-1" d="M32.79,48.31c-8.6,0-15.6-6.93-15.6-15.45s7-15.46,15.6-15.46,15.6,6.94,15.6,15.46-7,15.45-15.6,15.45ZM22.08,40.45l.19.25c2.5,3.3,6.34,5.19,10.53,5.19s8.02-1.89,10.53-5.19l.19-.25-7-4.04-.15.14c-.97.92-2.24,1.43-3.57,1.43s-2.6-.51-3.57-1.43l-.15-.14-6.99,4.04ZM31.27,19.92c-6.64.75-11.65,6.32-11.65,12.94,0,1.81.37,3.57,1.1,5.22l.12.28,6.99-4.05-.05-.2c-.11-.41-.16-.83-.16-1.25,0-2.26,1.54-4.29,3.75-4.93l.2-.06v-7.99l-.3.03ZM34.01,27.87l.2.06c2.21.63,3.75,2.66,3.75,4.93,0,.42-.05.84-.16,1.24l-.05.2,6.99,4.04.12-.28c.73-1.65,1.1-3.4,1.1-5.21,0-6.63-5.01-12.19-11.65-12.94l-.3-.03v7.99ZM32.79,30.17c-1.53,0-2.73,1.18-2.73,2.69s1.2,2.68,2.73,2.68,2.73-1.18,2.73-2.68-1.2-2.69-2.73-2.69Z"/>
</svg>