<?xml version="1.0" encoding="UTF-8"?>
<svg id="Layer_1" data-name="Layer 1" xmlns="http://www.w3.org/2000/svg" viewBox="0 0 64 64">
  <defs>
    <style>
      .cls-1 {
        fill: #31726b;
        opacity: .1;
      }

      .cls-2 {
        fill: #4ea49b;
      }
    </style>
  </defs>
  <rect class="cls-1" x="0" width="64" height="64"/>
  <path class="cls-2" d="M37.6,45.01h-.26c-.79,0-1.32-.53-1.32-1.32s.53-1.32,1.32-1.32h.26c1.98,0,3.03,0,3.56-.26.53-.26.92-.66,1.19-1.19.26-.53.26-1.58.26-3.56v-.26c0-.79.53-1.32,1.32-1.32s1.32.53,1.32,1.32v.26c0,2.37,0,3.69-.53,4.74s-1.32,1.84-2.24,2.24c-1.19.66-2.5.66-4.87.66ZM26.8,45.01h-.26c-2.37,0-3.69,0-4.74-.53s-1.84-1.32-2.24-2.24c-.66-1.19-.66-2.5-.66-4.87v-.26c0-.79.53-1.32,1.32-1.32s1.32.53,1.32,1.32v.26c0,1.98,0,3.03.26,3.56s.66.92,1.19,1.19c.53.26,1.58.26,3.56.26h.26c.79,0,1.32.53,1.32,1.32s-.53,1.32-1.32,1.32ZM32.07,39.09c-1.84,0-3.82-.66-5.27-2.11-.53-.53-.53-1.32,0-1.84s1.32-.53,1.84,0c1.84,1.84,4.87,1.84,6.72,0,.53-.53,1.32-.53,1.84,0s.53,1.32,0,1.84c-1.45,1.45-3.29,2.11-5.14,2.11ZM30.75,33.95c-.79,0-1.32-.53-1.32-1.32s.53-1.32,1.32-1.32c.26,0,.66-.4.66-.66v-4.08c0-.79.53-1.32,1.32-1.32s1.32.53,1.32,1.32v4.08c0,1.84-1.45,3.29-3.29,3.29ZM37.99,29.86c-.79,0-1.32-.53-1.32-1.32v-1.98c0-.79.53-1.32,1.32-1.32s1.32.53,1.32,1.32v1.98c0,.79-.53,1.32-1.32,1.32ZM26.14,29.86c-.79,0-1.32-.53-1.32-1.32v-1.98c0-.79.53-1.32,1.32-1.32s1.32.53,1.32,1.32v1.98c0,.79-.53,1.32-1.32,1.32ZM43.92,27.89c-.79,0-1.32-.53-1.32-1.32v-.26c0-1.98,0-3.03-.26-3.56-.26-.53-.66-.92-1.19-1.19s-1.58-.26-3.56-.26h-.26c-.79,0-1.32-.53-1.32-1.32s.53-1.32,1.32-1.32h.26c2.37,0,3.69,0,4.74.53s1.84,1.32,2.24,2.24c.66,1.19.66,2.5.66,4.87v.26c0,.79-.53,1.32-1.32,1.32ZM20.21,27.89c-.79,0-1.32-.53-1.32-1.32v-.26c0-2.37,0-3.69.53-4.74s1.32-1.84,2.24-2.24c1.19-.66,2.5-.66,4.87-.66h.26c.79,0,1.32.53,1.32,1.32s-.53,1.32-1.32,1.32h-.26c-1.98,0-3.03,0-3.56.26s-.92.66-1.19,1.19-.26,1.58-.26,3.56v.26c0,.79-.53,1.32-1.32,1.32Z"/>
</svg>