<?xml version="1.0" encoding="UTF-8"?>
<svg id="Layer_1" data-name="Layer 1" xmlns="http://www.w3.org/2000/svg" viewBox="0 0 64 64">
  <defs>
    <style>
      .cls-1 {
        fill: #31726b;
        opacity: .1;
      }

      .cls-2 {
        fill: #4ea49b;
      }
    </style>
  </defs>
  <rect class="cls-1" x="0" width="64" height="64"/>
  <path class="cls-2" d="M20.34,47.29c-4.31-.08-7.33-1.74-7.33-4.04,0-.67.29-1.94,2.22-2.99.21-.11.38-.15.56-.15.44,0,.84.25,1.03.65.13.28.15.59.05.88-.1.29-.31.52-.58.66-.3.15-.98.54-.98.91.21.66,2.09,1.7,5.14,1.75h.42c3.11,0,5.01-1.06,5.2-1.66l.05-.17-.12-.13c-.26-.27-.56-.49-.9-.65-.07-.03-.14-.08-.21-.14l-.07-.06h-.08c-.36-.07-.67-.29-.84-.62-.29-.56-.07-1.26.49-1.55l13.65-6.84-.32-.29c-.54-.5-.86-1.22-.87-1.96.03-.84.44-1.65,1.13-2.18l.36-.16.4-.18c.27-.13.53-.27.79-.42l.32-.18c.39-.21.63-.34,1.03-.41.1-.02.18-.06.24-.1l.19-.05c.07-.02.16-.02.24-.02.54,0,1,.37,1.12.89.07.3.02.61-.15.87-.16.26-.42.44-.72.51-1.95.44-2.57,1.16-2.65,1.4l-.05.17.13.13c.48.48,1.08.81,1.75.93,1.08.35,2.24.53,3.42.53h.17c3.07,0,5.11-.97,5.34-1.65l-.55-.23.27-.17.19.07c-.05-.06-.1-.11-.17-.18-.23-.2-.37-.49-.39-.79-.02-.31.08-.6.29-.83.22-.25.53-.39.86-.39.28,0,.55.1.76.29.65.54,1.02,1.33,1.03,2.17,0,2.65-3.85,4.04-7.66,4.04-1.3,0-2.56-.17-3.77-.5l-.11-.03-13.33,6.67.28.29c.48.5.76,1.16.77,1.86,0,2.3-3.04,3.96-7.39,4.04h-.64Z"/>
  <path class="cls-2" d="M46.51,29.86c-.31,0-.6-.13-.82-.35-1.04-1.06-4.43-4.71-4.43-7.17,0-2.9,2.36-5.25,5.25-5.25s5.25,2.36,5.25,5.25c0,2.45-3.39,6.1-4.43,7.17-.21.22-.51.34-.82.34h0ZM46.44,19.55c-1.57,0-2.83,1.23-2.88,2.8,0,.93,1.37,2.9,2.73,4.44l.23.26.22-.26c.46-.53,2.73-3.21,2.73-4.42-.05-1.58-1.31-2.81-2.88-2.81h-.15Z"/>
  <path class="cls-2" d="M20.31,41.37c-.31,0-.6-.14-.81-.36-1.04-1.07-4.44-4.72-4.44-7.17.05-2.8,2.38-5.08,5.18-5.08h.13c2.81,0,5.14,2.29,5.18,5.1,0,2.45-3.39,6.1-4.43,7.16-.21.22-.51.34-.82.34ZM20.25,31.06c-1.55,0-2.82,1.22-2.88,2.77,0,.94,1.47,2.97,2.73,4.43l.23.26.23-.26c.46-.53,2.73-3.21,2.73-4.42-.06-1.57-1.33-2.78-2.88-2.78h-.15Z"/>
</svg>