<?xml version="1.0" encoding="UTF-8"?>
<svg id="Layer_1" data-name="Layer 1" xmlns="http://www.w3.org/2000/svg" viewBox="0 0 64 64">
  <defs>
    <style>
      .cls-1 {
        fill: #4ea49b;
      }

      .cls-2 {
        fill: #00746b;
        opacity: .1;
      }
    </style>
  </defs>
  <rect class="cls-2" y="0" width="64" height="64"/>
  <g>
    <path class="cls-1" d="M32,48.66c-.83,0-1.51-.68-1.51-1.51v-16.66c0-.83.68-1.51,1.51-1.51s1.51.68,1.51,1.51v16.66c0,.83-.68,1.51-1.51,1.51Z"/>
    <path class="cls-1" d="M19.88,30.49c-.83,0-1.51-.68-1.51-1.51v-12.12c0-.83.68-1.51,1.51-1.51s1.51.68,1.51,1.51v12.12c0,.83-.68,1.51-1.51,1.51Z"/>
    <path class="cls-1" d="M44.12,36.54c-.83,0-1.51-.68-1.51-1.51v-18.18c0-.83.68-1.51,1.51-1.51s1.51.68,1.51,1.51v18.18c0,.83-.68,1.51-1.51,1.51Z"/>
    <path class="cls-1" d="M38.06,24.43c0,.83-.68,1.51-1.51,1.51h-9.09c-.83,0-1.51-.68-1.51-1.51s.68-1.51,1.51-1.51h3.03v-6.06c0-.83.68-1.51,1.51-1.51s1.51.68,1.51,1.51v6.06h3.03c.83,0,1.51.68,1.51,1.51Z"/>
    <path class="cls-1" d="M50.18,41.09c0,.83-.68,1.51-1.51,1.51h-3.03v4.54c0,.83-.68,1.51-1.51,1.51s-1.51-.68-1.51-1.51v-4.54h-3.03c-.83,0-1.51-.68-1.51-1.51s.68-1.51,1.51-1.51h9.09c.83,0,1.51.68,1.51,1.51Z"/>
    <path class="cls-1" d="M25.94,35.03c0,.83-.68,1.51-1.51,1.51h-3.03v10.6c0,.83-.68,1.51-1.51,1.51s-1.51-.68-1.51-1.51v-10.6h-3.03c-.83,0-1.51-.68-1.51-1.51s.68-1.51,1.51-1.51h9.09c.83,0,1.51.68,1.51,1.51Z"/>
  </g>
</svg>