<?xml version="1.0" encoding="UTF-8"?>
<svg id="Layer_1" data-name="Layer 1" xmlns="http://www.w3.org/2000/svg" viewBox="0 0 64 64">
  <defs>
    <style>
      .cls-1 {
        fill: #4ea69c;
      }

      .cls-2 {
        fill: #00746b;
        opacity: .1;
      }
    </style>
  </defs>
  <rect class="cls-2" width="64" height="64"/>
  <g id="_09" data-name="09">
    <path class="cls-1" d="M35.54,27.74l3.02-7.04c.35.1.72.17,1.1.17,2.3,0,4.18-1.87,4.18-4.18s-1.87-4.18-4.18-4.18-4.18,1.87-4.18,4.18c0,.88.28,1.7.75,2.38l-3.2,7.47c.95.18,1.8.61,2.51,1.2ZM39.66,15.3c.77,0,1.39.62,1.39,1.39s-.62,1.39-1.39,1.39-1.39-.62-1.39-1.39.62-1.39,1.39-1.39Z"/>
    <path class="cls-1" d="M32,43.14c-1,0-1.91.37-2.64.96l-8.48-8.48c-.62.72-1.42,1.28-2.33,1.6l9.35,9.35c-.04.24-.07.49-.07.74,0,2.3,1.87,4.18,4.18,4.18s4.18-1.87,4.18-4.18-1.87-4.18-4.18-4.18ZM32,48.7c-.77,0-1.39-.62-1.39-1.39s.62-1.39,1.39-1.39,1.39.62,1.39,1.39-.62,1.39-1.39,1.39Z"/>
    <path class="cls-1" d="M28.08,33.39c.58,1.62,2.11,2.78,3.92,2.78,2.3,0,4.18-1.87,4.18-4.18s-1.87-4.18-4.18-4.18c-1.81,0-3.34,1.17-3.92,2.78h-6.02c.12.45.2.91.2,1.39s-.08.94-.2,1.39h6.02ZM32,30.61c.77,0,1.39.62,1.39,1.39s-.62,1.39-1.39,1.39-1.39-.62-1.39-1.39.62-1.39,1.39-1.39Z"/>
    <path class="cls-1" d="M20.86,32c0-2.3-1.87-4.18-4.18-4.18s-4.18,1.87-4.18,4.18,1.87,4.18,4.18,4.18,4.18-1.87,4.18-4.18ZM16.69,33.39c-.77,0-1.39-.62-1.39-1.39s.62-1.39,1.39-1.39,1.39.62,1.39,1.39-.62,1.39-1.39,1.39Z"/>
    <path class="cls-1" d="M47.31,27.82c-.16,0-.3.03-.45.05l-3.16-7.37c-.65.69-1.47,1.19-2.39,1.48l3.04,7.09c-.42.43-.74.96-.95,1.54h-6.02c.12.45.2.91.2,1.39s-.08.94-.2,1.39h6.02c.16.46.4.87.71,1.24l-8.48,8.48c.72.62,1.28,1.42,1.6,2.33l9.35-9.35c.24.04.49.07.74.07,2.3,0,4.18-1.87,4.18-4.18s-1.87-4.18-4.18-4.18ZM47.31,33.39c-.77,0-1.39-.62-1.39-1.39s.62-1.39,1.39-1.39,1.39.62,1.39,1.39-.62,1.39-1.39,1.39Z"/>
  </g>
</svg>