<?xml version="1.0" encoding="UTF-8"?>
<svg id="Layer_1" data-name="Layer 1" xmlns="http://www.w3.org/2000/svg" viewBox="0 0 64 64">
  <defs>
    <style>
      .cls-1 {
        fill: #4ea49b;
      }

      .cls-2 {
        fill: #00746b;
        opacity: .1;
      }
    </style>
  </defs>
  <rect class="cls-2" y="0" width="64" height="64"/>
  <g id="OUTLINE">
    <path class="cls-1" d="M48.94,23.15c-.69-3.92-4.17-7.39-8.08-8.08h-.01c-2.73-.46-5.62-.68-8.84-.68-3.22,0-6.11.23-8.84.68h-.01c-3.92.7-7.39,4.17-8.08,8.09h0c-.46,2.74-.68,5.63-.68,8.85,0,3.22.23,6.11.68,8.84h0c.7,3.93,4.17,7.4,8.09,8.1h.01c2.73.46,5.62.68,8.84.68s6.11-.23,8.84-.68h.01c3.92-.7,7.39-4.17,8.08-8.09h0c.46-2.74.68-5.63.68-8.85s-.23-6.11-.68-8.84h0ZM46.36,40.4c-.5,2.84-3.12,5.45-5.96,5.96-2.59.43-5.34.64-8.4.64s-5.82-.21-8.41-.64c-2.84-.5-5.45-3.12-5.96-5.96-.43-2.59-.64-5.34-.64-8.4s.21-5.82.64-8.41c.5-2.84,3.12-5.45,5.96-5.96,2.59-.43,5.34-.64,8.4-.64,3.07,0,5.82.21,8.41.64,2.84.5,5.45,3.12,5.96,5.96.43,2.59.64,5.34.64,8.4s-.21,5.82-.64,8.4Z"/>
    <path class="cls-1" d="M39.82,35.75l-1.06-.74c-.08-.1-.18-.19-.29-.27l-5.16-3.52v-10.43c0-.72-.59-1.31-1.31-1.31s-1.31.59-1.31,1.31h0v11.12s0,.07,0,.1v.02s0,.07.01.1c0,0,0,0,0,0,0,.04.02.07.02.11,0,0,0,.02,0,.02.01.04.02.07.03.1v.02s.03.06.04.09v.03s.05.06.06.09l.02.03s.03.05.05.07l.02.02s.04.05.07.08l.02.02s.05.05.08.08h.02s.06.06.09.08h0s7.08,4.92,7.08,4.92c.59.42,1.4.29,1.82-.3s.29-1.4-.3-1.82c-.01,0-.02-.02-.03-.02h0Z"/>
  </g>
</svg>