<?xml version="1.0" encoding="UTF-8"?>
<svg id="Layer_1" data-name="Layer 1" xmlns="http://www.w3.org/2000/svg" viewBox="0 0 64 64">
  <defs>
    <style>
      .cls-1 {
        fill: #4ea49b;
      }

      .cls-2 {
        fill: #00746b;
        opacity: .1;
      }
    </style>
  </defs>
  <rect class="cls-2" width="64" height="64"/>
  <g id="Layer_79" data-name="Layer 79">
    <path class="cls-1" d="M14.97,51.11h18.79c1,0,1.81-.81,1.81-1.81s-.81-1.81-1.81-1.81h-16.99v-1.81c0-4.98,4.04-9.02,9.03-9.03h7.22c1.95,0,3.86.63,5.42,1.81.8.6,1.93.44,2.53-.36.6-.8.44-1.93-.36-2.53-2.18-1.65-4.85-2.53-7.58-2.53h-7.22c-6.97,0-12.63,5.66-12.64,12.64v3.61c0,1,.81,1.81,1.81,1.81h0Z"/>
    <path class="cls-1" d="M37.54,23.13c0-4.49-3.64-8.12-8.12-8.12s-8.12,3.64-8.12,8.12,3.64,8.12,8.12,8.12c4.48,0,8.12-3.64,8.12-8.12ZM24.9,23.13c0-2.49,2.02-4.51,4.51-4.51s4.51,2.02,4.51,4.51-2.02,4.51-4.51,4.51c-2.49,0-4.51-2.02-4.51-4.51Z"/>
    <path class="cls-1" d="M46.19,40.8l-4.14,4.14-2.33-2.33c-.72-.69-1.86-.67-2.55.04-.68.7-.68,1.81,0,2.51l3.61,3.61c.7.7,1.85.71,2.55,0h0s5.42-5.42,5.42-5.42c.69-.72.67-1.86-.04-2.55-.7-.68-1.81-.68-2.51,0h0Z"/>
  </g>
</svg>