<?xml version="1.0" encoding="UTF-8"?>
<svg id="Layer_1" data-name="Layer 1" xmlns="http://www.w3.org/2000/svg" viewBox="0 0 64 64">
  <defs>
    <style>
      .cls-1 {
        fill: #4ea49b;
      }

      .cls-2 {
        fill: #00746b;
        opacity: .1;
      }
    </style>
  </defs>
  <rect class="cls-2" width="64" height="64"/>
  <path class="cls-1" d="M48.08,23.5c.54-.7.86-1.58.86-2.53,0-2.3-1.87-4.18-4.18-4.18s-4.18,1.87-4.18,4.18c0,.95.32,1.83.86,2.53-1.27,1-2.05,2.55-2.05,4.22v.31h-2.02v-2.44c0-1.66-.78-3.21-2.05-4.22.54-.7.86-1.58.86-2.53,0-2.3-1.87-4.18-4.18-4.18s-4.18,1.87-4.18,4.18c0,.95.32,1.83.86,2.53-1.27,1-2.05,2.55-2.05,4.22v2.44h-2.02v-.31c0-1.66-.78-3.21-2.05-4.22.54-.7.86-1.58.86-2.53,0-2.3-1.87-4.18-4.18-4.18s-4.18,1.87-4.18,4.18c0,.95.32,1.83.86,2.53-1.27,1-2.05,2.55-2.05,4.22v7.43l3.93.98c.2.56.42,1.12.69,1.65l-2.08,3.47,5.56,5.56,3.47-2.08c.54.26,1.09.49,1.65.69l.98,3.93h7.86l.98-3.93c.56-.2,1.12-.42,1.65-.69l3.47,2.08,5.56-5.56-2.08-3.47c.26-.54.49-1.09.69-1.65l3.93-.98v-7.43c0-1.66-.78-3.21-2.05-4.22h0ZM44.76,18.91c1.13,0,2.05.92,2.05,2.05s-.92,2.05-2.05,2.05-2.05-.92-2.05-2.05.92-2.05,2.05-2.05ZM24.09,30.15h2.12v1.06c0,3.19,2.6,5.79,5.79,5.79s5.79-2.6,5.79-5.79v-1.06h2.12v1.06c0,4.36-3.55,7.91-7.91,7.91s-7.91-3.55-7.91-7.91v-1.06ZM35.66,30.15v1.06c0,2.02-1.64,3.66-3.66,3.66s-3.66-1.64-3.66-3.66v-1.06h7.32ZM32,16.79c1.13,0,2.05.92,2.05,2.05s-.92,2.05-2.05,2.05-2.05-.92-2.05-2.05.92-2.05,2.05-2.05ZM28.76,25.59c0-1.2.67-2.3,1.72-2.86.47.19.99.29,1.53.29s1.05-.1,1.53-.29c1.04.56,1.72,1.66,1.72,2.86v2.44h-6.49v-2.44ZM19.24,18.91c1.13,0,2.05.92,2.05,2.05s-.92,2.05-2.05,2.05-2.05-.92-2.05-2.05.92-2.05,2.05-2.05ZM16,27.71c0-1.2.67-2.3,1.72-2.86.47.19.99.29,1.53.29s1.05-.1,1.53-.29c1.04.56,1.72,1.66,1.72,2.86v.31h-6.49v-.31ZM48,33.48l-3.47.87-.17.58c-.25.83-.58,1.63-.99,2.38l-.29.53,1.84,3.07-3.21,3.21-3.07-1.84-.53.29c-.76.41-1.56.74-2.38.99l-.58.17-.87,3.47h-4.55l-.87-3.47-.58-.17c-.83-.25-1.63-.58-2.38-.99l-.53-.29-3.07,1.84-3.21-3.21,1.84-3.07-.29-.53c-.41-.76-.74-1.56-.99-2.38l-.17-.58-3.47-.87v-3.34h5.97v1.06c0,5.53,4.5,10.03,10.03,10.03s10.03-4.5,10.03-10.03v-1.06h5.97v3.34h0ZM41.52,28.02v-.31c0-1.2.67-2.3,1.72-2.86.47.19.99.29,1.53.29s1.05-.1,1.53-.29c1.04.56,1.72,1.66,1.72,2.86v.31h-6.49Z"/>
</svg>