<?xml version="1.0" encoding="UTF-8"?>
<svg id="Layer_1" data-name="Layer 1" xmlns="http://www.w3.org/2000/svg" viewBox="0 0 64 64">
  <defs>
    <style>
      .cls-1 {
        fill: #4ea69c;
      }

      .cls-2 {
        fill: #00746b;
        opacity: .1;
      }
    </style>
  </defs>
  <rect class="cls-2" width="64" height="64"/>
  <g>
    <path class="cls-1" d="M34.23,21.97l-3.29,2.89-1.11-1.26c-.13-.15-.32-.24-.52-.24-.17,0-.34.06-.46.17-.14.12-.22.29-.24.48-.01.19.05.37.18.51l1.58,1.78c.13.15.32.23.52.23.17,0,.33-.06.46-.18l3.82-3.36c.29-.26.31-.7.06-.98-.13-.15-.32-.24-.53-.24-.17,0-.33.06-.46.17Z"/>
    <path class="cls-1" d="M44.68,24.9c.43,0,.78-.35.78-.78v-4.19c0-.43-.35-.78-.78-.78h-4.19c-.43,0-.78.35-.78.78s.35.78.78.78h2.31l-4.03,4.03-.79-.39c.01-.14.01-.27.01-.41,0-3.3-2.69-5.99-5.99-5.99-1.69,0-3.31.72-4.45,1.98-1.08,1.2-1.63,2.8-1.52,4.42l-.79.39-4.03-4.03h2.31c.43,0,.78-.35.78-.78s-.35-.78-.78-.78h-4.19c-.43,0-.78.35-.78.78v4.19c0,.43.35.78.78.78s.78-.35.78-.78v-2.31l3.66,3.66-2.53,1.26c-.27.13-.43.4-.43.7v9.69c0,.73.39,1.35,1.04,1.67l1.92.96-3.66,3.66v-2.31c0-.43-.35-.78-.78-.78s-.78.35-.78.78v4.19c0,.43.35.78.78.78h4.19c.43,0,.78-.35.78-.78s-.35-.78-.78-.78h-2.31l4.03-4.03,6.42,3.19c.11.05.23.08.35.08s.24-.03.35-.08l6.42-3.19,4.03,4.03h-2.31c-.43,0-.78.35-.78.78s.35.78.78.78h4.19c.43,0,.78-.35.78-.78v-4.19c0-.43-.35-.78-.78-.78s-.78.35-.78.78v2.31l-3.66-3.66,1.92-.96c.65-.32,1.04-.95,1.04-1.67v-9.69c0-.3-.17-.57-.43-.7l-2.53-1.26,3.66-3.66v2.31c0,.43.35.78.78.78ZM32,28.36c-2.44,0-4.43-1.99-4.43-4.43s1.99-4.43,4.43-4.43,4.43,1.99,4.43,4.43-1.99,4.43-4.43,4.43ZM32,29.92c2.54,0,4.81-1.62,5.65-4l3.02,1.5-8.67,4.31-8.67-4.31,3.02-1.5c.84,2.37,3.1,4,5.65,4ZM31.22,33.09v8.62l-8.69-4.32c-.12-.06-.18-.15-.18-.28v-8.43l8.86,4.41ZM41.64,37.11c0,.13-.06.22-.17.28l-8.69,4.32v-8.62l8.87-4.41v8.43Z"/>
  </g>
</svg>