<?xml version="1.0" encoding="UTF-8"?>
<svg id="Layer_1" data-name="Layer 1" xmlns="http://www.w3.org/2000/svg" viewBox="0 0 64 64">
  <defs>
    <style>
      .cls-1 {
        fill: #31726b;
        isolation: isolate;
        opacity: .1;
      }

      .cls-2 {
        fill: #65a39b;
      }
    </style>
  </defs>
  <g id="Layer_1-2" data-name="Layer 1-2">
    <g>
      <rect class="cls-1" width="64" height="64"/>
      <g>
        <path class="cls-2" d="M47.37,30.11c-.76,0-1.5-.46-2.42-1.49-.64-.72-1.35-1.71-1.98-2.79-.73-1.23-2.42-4.39-2.42-7.04,0-2.04.79-3.86,2.22-5.13,1.25-1.1,2.93-1.74,4.61-1.74h.05c.17,0,1.69.08,3.26.89,1.56.81,3.41,2.47,3.41,5.83,0,2.79-1.65,5.96-2.37,7.19-.63,1.1-1.31,2.06-1.95,2.79-.89,1.01-1.66,1.48-2.41,1.48h0ZM47.35,14.54c-1.7.01-4.19,1.15-4.19,4.25,0,1.28.69,3.27,1.83,5.31.98,1.74,1.91,2.84,2.39,3.26.48-.42,1.39-1.51,2.33-3.23,1.12-2.05,1.79-4.1,1.79-5.48,0-1.67-.66-2.81-2.01-3.51-.99-.51-2-.59-2.14-.6h0Z"/>
        <path class="cls-2" d="M47.32,20.75c-1.01,0-1.82-.82-1.82-1.82s.81-1.82,1.82-1.82,1.82.81,1.82,1.82-.81,1.82-1.82,1.82Z"/>
        <path class="cls-2" d="M33.79,46.56h-6.61c-.72,0-1.3-.58-1.3-1.3s.58-1.3,1.3-1.3h6.61c2.62,0,4.75-2.13,4.75-4.75s-2.13-4.75-4.75-4.75h-3.54c-4.06,0-7.36-3.3-7.36-7.36s3.3-7.36,7.36-7.36h6.61c.72,0,1.3.58,1.3,1.3s-.58,1.3-1.3,1.3h-6.61c-2.62,0-4.75,2.13-4.75,4.75s2.13,4.75,4.75,4.75h3.54c4.06,0,7.36,3.3,7.36,7.36s-3.3,7.36-7.36,7.36Z"/>
        <path class="cls-2" d="M22.22,52.07h-11.01c-.72,0-1.3-.58-1.3-1.3v-11.01c0-.72.58-1.3,1.3-1.3h11.01c.72,0,1.3.58,1.3,1.3v11.01c0,.72-.58,1.3-1.3,1.3ZM12.51,49.46h8.41v-8.41h-8.41v8.41Z"/>
        <path class="cls-2" d="M17.4,45.21h-1.64c-.72,0-1.3-.58-1.3-1.3s.58-1.3,1.3-1.3h1.64c.72,0,1.3.58,1.3,1.3s-.58,1.3-1.3,1.3Z"/>
      </g>
    </g>
  </g>
</svg>