<?xml version="1.0" encoding="UTF-8"?>
<svg id="Layer_1" data-name="Layer 1" xmlns="http://www.w3.org/2000/svg" viewBox="0 0 64 64">
  <defs>
    <style>
      .cls-1 {
        fill: #31726b;
        opacity: .1;
      }

      .cls-2 {
        fill: #4ea49b;
      }
    </style>
  </defs>
  <rect class="cls-1" width="64" height="64"/>
  <path class="cls-2" d="M43.38,46.46h-22.71c-.31,0-.6-.22-.7-.49.09.27.39.5.7.5h22.71c.36,0,.58-.31.61-.63-.03.31-.25.62-.61.62Z"/>
  <path class="cls-2" d="M37.83,22.81c0,.07.02.14.05.2-.03-.06-.05-.13-.05-.2Z"/>
  <path class="cls-2" d="M37.9,23.06s.04.06.06.09c-.02-.03-.04-.06-.06-.09Z"/>
  <path class="cls-2" d="M20.67,48.84c-1.69,0-3.11-1.4-3.11-3.06v-27.58c0-1.68,1.38-3.05,3.08-3.05l15.35.04c.62,0,1.22.25,1.66.67l8.15,7.89c.36.35.56.84.56,1.38v20.64c0,1.69-1.34,3.06-2.99,3.06h-22.71ZM20.64,17.24c-.53,0-1,.45-1,.97v27.68c.01.05.03.11.05.18.14.41.55.7.98.7h22.71c.47,0,.86-.38.91-.89v-20.07s-5.73,0-5.73,0h-.16c-.05,0-.1,0-.15-.02l-.17-.02-.15-.03c-.17-.04-.27-.07-.37-.1-.06-.02-.13-.04-.19-.07-.07-.03-.13-.05-.19-.08-.06-.03-.12-.06-.18-.09l-.11-.06c-.46-.29-.84-.69-1.1-1.16-.04-.07-.07-.15-.11-.22-.04-.09-.07-.18-.11-.28-.03-.1-.06-.19-.08-.29-.04-.2-.06-.4-.06-.61v-5.5l-14.81-.04ZM37.53,22.78c0,.16.03.26.08.36l.05.09s.04.06.07.1l.1.1.09.08s.12.08.12.08l.12.06.14.05.09.02c.06,0,.11.01.17.01h4.23l-5.25-5.08v4.14Z"/>
  <path class="cls-2" d="M26.64,41.94c-.57,0-1.04-.47-1.04-1.04v-14.47c0-.57.47-1.04,1.04-1.04s1.04.47,1.04,1.04v14.47c0,.57-.47,1.04-1.04,1.04Z"/>
  <path class="cls-2" d="M32,41.94c-.57,0-1.04-.47-1.04-1.04v-10.98c0-.57.47-1.04,1.04-1.04s1.04.47,1.04,1.04v10.98c0,.57-.47,1.04-1.04,1.04Z"/>
  <path class="cls-2" d="M37.36,41.94c-.57,0-1.04-.47-1.04-1.04v-7.5c0-.57.47-1.04,1.04-1.04s1.04.47,1.04,1.04v7.5c0,.57-.47,1.04-1.04,1.04Z"/>
</svg>