<?xml version="1.0" encoding="UTF-8"?>
<svg id="Layer_1" data-name="Layer 1" xmlns="http://www.w3.org/2000/svg" viewBox="0 0 64 64">
  <defs>
    <style>
      .cls-1 {
        fill: #31726b;
        isolation: isolate;
        opacity: .1;
      }

      .cls-2 {
        fill: #65a39b;
      }
    </style>
  </defs>
  <g id="Layer_1-2" data-name="Layer 1-2">
    <g>
      <rect class="cls-1" width="64" height="64"/>
      <g id="Line">
        <path class="cls-2" d="M32,53.76c-.73,0-1.44-.14-2.11-.41-10.69-4.19-17.7-14.52-17.65-26v-8.04c0-2.78,1.93-5.19,4.64-5.79l13.83-3.08c.85-.18,1.72-.18,2.57,0l13.83,3.08c2.71.6,4.64,3.01,4.64,5.79v8.04c.04,11.48-6.96,21.81-17.65,26.02-.67.26-1.39.39-2.11.4h.01ZM32,14.24h-.43l-13.83,3.08c-.92.21-1.56,1.03-1.54,1.98v8.04c-.04,9.86,5.98,18.74,15.16,22.35.42.16.88.16,1.3,0,9.18-3.61,15.2-12.49,15.16-22.35v-8.04c.02-.94-.62-1.77-1.54-1.98l-13.83-3.08h-.45ZM30.48,37.5c-.52,0-1.01-.2-1.38-.55l-4.51-4.43c-.77-.77-.78-2.02-.01-2.79h.01c.77-.78,2.02-.78,2.79-.01l3.12,3.06,8.12-7.9c.78-.77,2.04-.76,2.81.02s.76,2.04-.02,2.81l-9.5,9.35c-.4.33-.91.49-1.42.45h-.01Z"/>
      </g>
    </g>
  </g>
</svg>