<?xml version="1.0" encoding="UTF-8"?>
<svg id="Layer_1" data-name="Layer 1" xmlns="http://www.w3.org/2000/svg" viewBox="0 0 64 64">
  <defs>
    <style>
      .cls-1 {
        fill: #4ea49b;
      }

      .cls-2 {
        fill: #00746b;
        opacity: .1;
      }
    </style>
  </defs>
  <rect class="cls-2" width="64" height="64"/>
  <g id="user">
    <path class="cls-1" d="M34.99,30c-3.86,0-6.98-3.13-6.98-6.98s3.13-6.98,6.98-6.98,6.98,3.13,6.98,6.98c0,3.86-3.13,6.98-6.98,6.98ZM34.99,18.03c-2.76,0-4.99,2.23-4.99,4.99s2.23,4.99,4.99,4.99,4.99-2.23,4.99-4.99c0-2.75-2.23-4.99-4.99-4.99Z"/>
    <path class="cls-1" d="M44.97,47.96h-19.95c-.55,0-1-.45-1-1v-.14c0-.55.45-1,1-1,.18,0,.35.05.51.14h18.45v-7.73c0-4.54-3.69-8.23-8.23-8.23h-1.5c-1.9,0-3.75.66-5.22,1.87-.43.34-1.06.26-1.4-.17-.33-.42-.27-1.02.13-1.37,1.83-1.5,4.12-2.32,6.49-2.32h1.5c5.65,0,10.22,4.58,10.23,10.23v8.73c0,.55-.45,1-1,1Z"/>
    <path class="cls-1" d="M39.98,47.96c-.55,0-1-.45-1-1v-9.98c0-.55.45-1,1-1s1,.45,1,1v9.98c0,.55-.45,1-1,1Z"/>
    <path class="cls-1" d="M30.01,47.96c-.55,0-1-.45-1-1v-1.81c0-.55.45-1,1-1s1,.45,1,1v1.81c0,.55-.45,1-1,1Z"/>
    <path class="cls-1" d="M25.71,47.96s-.1,0-.15-.01c-.83-.12-5.05-.92-6.82-4.44-.5-1.01-.75-2.13-.71-3.26v-7.89c0-.44.28-.82.7-.95l6.68-2.11c.2-.06.41-.06.6,0l6.68,2.11c.42.13.7.52.7.95v7.91c.03,1.12-.21,2.23-.71,3.23h0c-1.77,3.51-5.99,4.31-6.82,4.44-.05,0-.1.01-.15.01ZM20.03,33.1v7.18c-.03.81.14,1.61.5,2.34,1.25,2.48,4.39,3.19,5.18,3.33.8-.14,3.93-.85,5.18-3.33.36-.72.53-1.51.5-2.31v-7.21l-5.68-1.8-5.68,1.8Z"/>
    <path class="cls-1" d="M25.3,41.04c-.26,0-.52-.1-.71-.29l-2.06-2.06c-.38-.4-.37-1.03.02-1.41.39-.38,1-.38,1.39,0l1.35,1.35,3.18-3.18c.38-.4,1.01-.41,1.41-.02.4.38.41,1.01.02,1.41,0,0-.02.02-.02.02l-3.89,3.89c-.19.19-.44.29-.71.29h0Z"/>
  </g>
</svg>