<?xml version="1.0" encoding="UTF-8"?>
<svg id="Layer_1" data-name="Layer 1" xmlns="http://www.w3.org/2000/svg" viewBox="0 0 64 64">
  <defs>
    <style>
      .cls-1 {
        fill: #4ea69c;
      }

      .cls-2 {
        fill: #00746b;
        opacity: .1;
      }
    </style>
  </defs>
  <rect class="cls-2" width="64" height="64"/>
  <g>
    <path class="cls-1" d="M35.5,22.14c-.14-.16-.33-.26-.55-.27-.22-.02-.42.06-.58.2l-3.51,3.09-1.17-1.32c-.14-.16-.34-.25-.55-.27-.2-.02-.41.06-.57.2-.16.14-.26.33-.27.55-.01.21.06.42.2.58l1.69,1.91h0c.16.18.38.27.6.27.19,0,.37-.07.52-.2l4.11-3.61c.16-.14.25-.33.27-.55.01-.21-.06-.42-.2-.57Z"/>
    <path class="cls-1" d="M32,46.06c-.13,0-.26-.03-.38-.09l-7.24-3.6s-.75-.37-1.12-.56l-2.33-1.16c-.71-.35-1.13-1.03-1.13-1.82v-10.55c0-.32.18-.62.47-.76l2.94-1.46c.45-.21.72-.34,1.27-.63l1.01-.5c-.12-1.76.48-3.5,1.66-4.81,1.24-1.37,3-2.16,4.85-2.16,3.6,0,6.53,2.93,6.53,6.52,0,.15,0,.3-.02.45l5.22,2.6c.29.14.47.44.47.76v10.55c0,.79-.42,1.47-1.13,1.83l-10.69,5.32c-.11.06-.24.09-.38.09ZM32.85,43.84l9.47-4.71c.13-.06.19-.17.19-.31v-9.18l-9.66,4.8v9.4ZM21.49,38.83c0,.14.06.24.19.31l9.46,4.71v-9.4l-9.66-4.8v9.18ZM32,32.97l9.45-4.7-3.3-1.64c-.91,2.59-3.38,4.36-6.16,4.36s-5.24-1.77-6.15-4.36l-3.3,1.64,9.45,4.7ZM32,19.64c-2.66,0-4.83,2.17-4.83,4.83s2.16,4.83,4.83,4.83,4.83-2.17,4.83-4.83-2.17-4.83-4.83-4.83Z"/>
  </g>
</svg>