<svg width="99" height="98" viewBox="0 0 99 98" fill="none" xmlns="http://www.w3.org/2000/svg">
<path d="M49.0191 97.9999C21.986 97.9999 0 76.0226 0 49C0 21.9774 21.986 0 49.0191 0C76.0523 0 98.0382 21.9774 98.0382 49C98.0382 76.0226 76.0523 97.9999 49.0191 97.9999ZM49.0191 2.98129C23.6301 2.98129 2.98244 23.6209 2.98244 49C2.98244 74.379 23.6301 95.0186 49.0191 95.0186C74.4081 95.0186 95.0558 74.379 95.0558 49C95.0558 23.6209 74.4081 2.98129 49.0191 2.98129Z" fill="#655ADD"/>
<path d="M57.7962 69.9294C55.4022 69.9294 53.0062 69.9255 50.6121 69.9198C48.0043 69.9122 45.7514 67.6864 45.6904 65.0588C45.6789 64.5923 45.6675 64.1086 45.6923 63.6288C45.6999 63.467 45.6923 63.2328 45.5301 63.0614C45.3661 62.89 45.1238 62.8691 44.954 62.8691C43.4871 62.8748 42.0277 62.8767 40.5684 62.8767C39.6775 62.8767 36.7722 62.8748 36.7722 62.8748C32.2148 62.8729 28.6208 59.7217 28.0333 55.211C27.997 54.9349 27.9989 54.6512 28.0009 54.3522V54.1294C28.0009 50.8202 28.0009 47.509 28.0009 44.1998V38.598C28.0009 35.5915 28.0008 32.585 28.0028 29.5766C28.0028 28.6931 28.6666 28 29.5098 28C29.7082 28 29.9066 28.0381 30.1012 28.1161C30.723 28.3618 31.0645 28.8987 31.0683 29.6299C31.0721 31.0294 31.0721 32.4269 31.0702 33.8264V35.9647C31.0702 36.6844 31.1961 36.812 31.9134 36.812H44.8586C45.5454 36.812 45.6694 36.6939 45.6866 36.0237V35.9971C45.698 35.5553 45.6904 35.1098 45.6808 34.6775C45.6656 33.8816 45.6484 33.0591 45.761 32.267C46.0967 29.8984 48.2409 28.0324 50.6407 28.0171C51.1348 28.0152 51.6289 28.0133 52.1248 28.0133H54.3282C54.6754 28.0133 55.0225 28.0133 55.3716 28.0133C56.272 28.0133 57.0237 28.3256 57.6799 28.9673C58.4754 29.7441 59.1831 30.4524 59.8451 31.1303C60.1026 31.393 60.3925 31.5168 60.7588 31.5168C61.5161 31.5111 62.2601 31.5073 63.0022 31.5073C63.6126 31.5073 64.2231 31.5092 64.8335 31.513C67.4451 31.532 69.5034 33.2628 69.9517 35.8238C69.9918 36.0504 69.9956 36.2922 69.9956 36.5188V36.8406C69.9994 38.5257 70.0032 40.2679 69.9956 41.9815C69.9841 44.7253 67.7408 46.9626 64.9957 46.9702C62.6111 46.9759 60.2247 46.9797 57.8382 46.9797C55.4518 46.9797 53.0672 46.9759 50.6827 46.9702C47.9967 46.9626 45.7075 44.6701 45.6847 41.9644L45.6808 41.6636C45.677 41.3303 45.6713 40.9876 45.6885 40.6544C45.6999 40.4126 45.6484 40.2336 45.5282 40.106C45.368 39.9366 45.1372 39.9175 44.9769 39.9175H44.9559C44.4313 39.9232 43.9048 39.9251 43.3802 39.9251C43.0483 39.9251 41.7225 39.9232 41.3906 39.9232H31.8886C31.1923 39.9232 31.0683 40.047 31.0683 40.7515V43.977C31.0683 47.3738 31.0664 50.7688 31.0683 54.1656C31.0721 57.3302 33.451 59.7521 36.6043 59.7997C37.5409 59.8131 38.5673 59.8207 39.8301 59.8207C40.5016 59.8207 41.1712 59.8207 41.8427 59.8169C42.5123 59.8169 43.1837 59.8131 43.8533 59.8131C44.231 59.8131 44.6107 59.8131 44.9884 59.8131C45.1448 59.8131 45.3623 59.7959 45.5168 59.6379C45.6732 59.4799 45.6866 59.2571 45.6847 59.1029C45.6713 58.1489 45.6751 57.1779 45.6808 56.2372V56.043C45.6942 53.2022 47.9261 50.9668 50.7647 50.9554C51.4114 50.9535 52.06 50.9516 52.7067 50.9516C53.4545 50.9516 54.2042 50.9516 54.952 50.9535H55.2858C56.2301 50.9554 57.0446 51.2905 57.7104 51.9474L57.7772 52.0121C58.4792 52.7071 59.2041 53.4249 59.9061 54.1428C60.1522 54.3941 60.4307 54.5103 60.7836 54.5103C61.5696 54.5045 62.3402 54.5007 63.1128 54.5007C63.7633 54.5007 64.4157 54.5026 65.0662 54.5065C67.7217 54.5236 69.9765 56.7761 69.9918 59.4265C70.0032 61.3877 70.0013 63.2156 69.9918 65.0131C69.9765 67.6597 67.7293 69.9027 65.0872 69.9084C62.655 69.9141 60.2228 69.9179 57.7924 69.9179L57.7962 69.9294ZM61.9492 66.8638C62.8954 66.8638 63.8435 66.8638 64.7897 66.8619C66.0849 66.86 66.9243 66.026 66.9281 64.7408C66.9338 63.2366 66.9338 61.5972 66.9281 59.7312C66.9243 58.4098 66.1002 57.5853 64.7763 57.5815C64.059 57.5796 63.3398 57.5777 62.6226 57.5777C61.9053 57.5777 61.1556 57.5777 60.4212 57.5815C59.5684 57.5815 58.8264 57.3073 58.2026 56.7666C57.6207 56.262 57.0694 55.6984 56.5353 55.1538C56.2778 54.8911 56.0221 54.6302 55.7608 54.3713C55.5185 54.1333 55.2515 54.0228 54.9195 54.0228C54.4655 54.0266 54.0229 54.0266 53.5804 54.0266H52.1535C51.7586 54.0266 51.3637 54.0266 50.9688 54.0285C49.6068 54.0361 48.7598 54.8835 48.756 56.2372C48.7483 58.9125 48.7483 61.6619 48.756 64.638C48.7579 66.0298 49.5896 66.86 50.9783 66.8619C51.8768 66.8619 52.7773 66.8619 53.6758 66.8619H57.863H61.9492V66.8638ZM61.9129 43.918C62.842 43.918 63.771 43.918 64.7019 43.9142C66.0964 43.9103 66.9281 43.0821 66.9319 41.6978C66.9338 40.0432 66.9357 38.3867 66.9319 36.732C66.9281 35.4411 66.1212 34.6357 64.824 34.6318C64.2307 34.6299 63.6355 34.628 63.0423 34.628H60.5509C59.4902 34.628 58.628 34.2739 57.9183 33.5427C57.5502 33.1638 57.1686 32.7849 56.8005 32.4212C56.4685 32.0918 56.1385 31.7643 55.8123 31.4311C55.5758 31.1893 55.3087 31.077 54.971 31.077C54.372 31.0808 53.7864 31.0827 53.1988 31.0827H51.0623C49.5553 31.0827 48.7598 31.8824 48.7579 33.3904C48.756 36.1208 48.756 38.8532 48.7579 41.5836C48.7579 43.1087 49.5686 43.9161 51.1004 43.9161C51.997 43.9161 52.8955 43.9161 53.7921 43.9161H57.8611H61.9148L61.9129 43.918Z" fill="#655ADD"/>
</svg>
