<svg width="16" height="18" viewBox="0 0 16 18" fill="none" xmlns="http://www.w3.org/2000/svg">
<path d="M6 13.0002L7.16667 11.7918L5.375 10.0002L7.16667 8.2085L6 7.00016L3 10.0002L6 13.0002ZM10 13.0002L13 10.0002L10 7.00016L8.83333 8.2085L10.625 10.0002L8.83333 11.7918L10 13.0002ZM2.16667 17.5002C1.70833 17.5002 1.31611 17.3371 0.99 17.011C0.663889 16.6849 0.500556 16.2924 0.5 15.8335V4.16683C0.5 3.7085 0.663333 3.31627 0.99 2.99016C1.31667 2.66405 1.70889 2.50072 2.16667 2.50016H5.66667C5.84722 2.00016 6.14944 1.59738 6.57333 1.29183C6.99722 0.986274 7.47278 0.833496 8 0.833496C8.52722 0.833496 9.00306 0.986274 9.4275 1.29183C9.85194 1.59738 10.1539 2.00016 10.3333 2.50016H13.8333C14.2917 2.50016 14.6842 2.6635 15.0108 2.99016C15.3375 3.31683 15.5006 3.70905 15.5 4.16683V15.8335C15.5 16.2918 15.3369 16.6843 15.0108 17.011C14.6847 17.3377 14.2922 17.5007 13.8333 17.5002H2.16667ZM2.16667 15.8335H13.8333V4.16683H2.16667V15.8335ZM8 3.54183C8.18056 3.54183 8.33 3.48266 8.44833 3.36433C8.56667 3.246 8.62556 3.09683 8.625 2.91683C8.62444 2.73683 8.56528 2.58766 8.4475 2.46933C8.32972 2.351 8.18056 2.29183 8 2.29183C7.81944 2.29183 7.67028 2.351 7.5525 2.46933C7.43472 2.58766 7.37556 2.73683 7.375 2.91683C7.37444 3.09683 7.43361 3.24627 7.5525 3.36516C7.67139 3.48405 7.82056 3.54294 8 3.54183Z" fill="black"/>
</svg>
