<svg width="99" height="98" viewBox="0 0 99 98" fill="none" xmlns="http://www.w3.org/2000/svg">
<path d="M49.0191 97.9999C21.986 97.9999 0 76.0226 0 49C0 21.9774 21.986 0 49.0191 0C76.0523 0 98.0382 21.9774 98.0382 49C98.0382 76.0226 76.0523 97.9999 49.0191 97.9999ZM49.0191 2.98128C23.6301 2.98128 2.98244 23.6209 2.98244 49C2.98244 74.379 23.6301 95.0186 49.0191 95.0186C74.4081 95.0186 95.0558 74.379 95.0558 49C95.0558 23.6209 74.4081 2.98128 49.0191 2.98128Z" fill="#655ADD"/>
<path d="M49.4411 69.2238C41.9418 69.2039 35.36 66.5231 29.8708 61.2564C26.7993 58.3079 24.2264 54.7202 22.2275 50.5861C21.5915 49.27 21.5649 48.0379 22.1499 46.8214C25.2192 40.4333 29.2769 35.6732 34.5556 32.2712C38.2675 29.8801 42.4271 28.48 46.9192 28.1106C47.8167 28.0376 48.7142 28 49.5873 28C53.2572 28 56.7675 28.668 60.0207 29.9885C64.3864 31.7581 68.1559 34.5628 71.5443 38.562C73.5078 40.8801 75.1876 43.4681 76.679 46.4719C77.4037 47.9317 77.3992 49.3009 76.6679 50.7807C74.4895 55.1935 71.8258 58.8012 68.526 61.8139C64.054 65.8949 58.8683 68.3192 53.1131 69.0159C51.9475 69.1575 50.8527 69.226 49.7646 69.226C49.6582 69.226 49.5497 69.226 49.4433 69.226L49.4411 69.2238ZM49.5851 31.5701C48.9114 31.5701 48.22 31.5966 47.5308 31.6475C43.3934 31.9549 39.5662 33.2556 36.1556 35.5139C31.7279 38.4425 28.2575 42.5214 25.545 47.9848C25.2635 48.5511 25.4253 49.0222 25.5959 49.3695C27.5771 53.3687 30.0237 56.6335 33.0775 59.3564C37.7445 63.517 43.2582 65.6405 49.4699 65.6648C49.5718 65.6648 49.6693 65.6648 49.769 65.6648C49.8732 65.6648 49.9751 65.6648 50.0793 65.6648C50.2189 65.6648 50.3585 65.6648 50.4959 65.656C50.6998 65.6471 50.8993 65.6272 51.0921 65.6073C51.2294 65.594 51.3646 65.5808 51.502 65.5719C54.5647 65.3684 57.4832 64.581 60.1736 63.2317C65.8157 60.4026 70.1637 55.8129 73.4657 49.197C73.756 48.6152 73.5122 48.1242 73.4324 47.9627C71.0191 43.081 67.9853 39.3118 64.1559 36.4385C59.8456 33.2047 54.9436 31.5656 49.5873 31.5656L49.5851 31.5701Z" fill="#655ADD"/>
<path d="M49.4587 59.823C46.4714 59.8185 43.6592 58.6462 41.5384 56.5205C39.4176 54.3927 38.2519 51.5747 38.2564 48.5841C38.2652 42.4217 43.3113 37.4094 49.5074 37.4094C55.7081 37.4183 60.7341 42.4615 60.7275 48.6505C60.7209 54.8107 55.6704 59.823 49.472 59.823H49.4587ZM49.4676 40.9596C45.3301 40.9596 41.8265 44.4611 41.8154 48.6062C41.811 50.6279 42.611 52.5479 44.0736 54.01C45.5229 55.461 47.4288 56.2595 49.4387 56.2595C53.7335 56.2573 57.1175 52.9173 57.1463 48.6571C57.1751 44.3925 53.9019 41.0834 49.5318 40.9596H49.4676Z" fill="#655ADD"/>
</svg>
