<svg width="20" height="20" viewBox="0 0 20 20" fill="none" xmlns="http://www.w3.org/2000/svg">
<path d="M8.75 10.3688L7.13125 8.75L6.25 9.63125L8.75 12.1313L13.75 7.13125L12.8688 6.25L8.75 10.3688Z" fill="black" stroke="black" stroke-width="0.5"/>
<path d="M10 18.75L6.14 16.6919C5.0395 16.1066 4.11919 15.2325 3.4779 14.1637C2.83661 13.0948 2.49854 11.8715 2.5 10.625V2.5C2.5 2.16848 2.6317 1.85054 2.86612 1.61612C3.10054 1.3817 3.41848 1.25 3.75 1.25H16.25C16.5815 1.25 16.8995 1.3817 17.1339 1.61612C17.3683 1.85054 17.5 2.16848 17.5 2.5V10.625C17.5015 11.8715 17.1634 13.0948 16.5221 14.1637C15.8808 15.2325 14.9605 16.1066 13.86 16.6919L10 18.75ZM3.75 2.5V10.625C3.74931 11.6448 4.02618 12.6456 4.55093 13.52C5.07568 14.3945 5.82853 15.1096 6.72875 15.5887L10 17.3331L13.2713 15.5894C14.1716 15.1102 14.9245 14.3949 15.4492 13.5204C15.974 12.6458 16.2508 11.6449 16.25 10.625V2.5H3.75Z" fill="black" stroke="black" stroke-width="0.6"/>
</svg>
