<svg width="19" height="16" viewBox="0 0 19 16" fill="none" xmlns="http://www.w3.org/2000/svg">
<path d="M6.37605 13.6964C6.16488 15.0859 4.97587 15.9811 3.75752 15.9997C2.42375 16.0203 1.23203 15.0276 1.0533 13.6964C0.849851 13.6964 0.644862 13.6964 0.439874 13.6964C0.178523 13.6964 0.0360731 13.5551 0.0360731 13.2962C0.0360731 12.7194 0.0291243 12.1421 0.0372312 11.5652C0.0542171 10.349 0.518626 9.3259 1.41926 8.49543C1.52697 8.39605 1.63738 8.30009 1.76168 8.18891C1.60727 8.16606 1.47022 8.14512 1.33279 8.1257C0.546035 8.01451 -0.0202892 7.34816 0.000557148 6.55729C0.0206314 5.79498 0.634439 5.153 1.41116 5.08256C1.45903 5.07837 1.50767 5.07913 1.55554 5.07913C3.25605 5.07913 4.95618 5.07913 6.6567 5.07913C7.72913 5.07913 8.63363 5.87761 8.75755 6.93045C8.78534 7.16729 8.78341 7.39766 8.66876 7.61622C8.54098 7.85954 8.34525 8.02137 8.08081 8.10285C8.01094 8.12418 7.93952 8.14169 7.85768 8.16378C7.90787 8.33589 7.95574 8.5019 8.00515 8.66754C8.17694 9.24441 8.34873 9.82128 8.5209 10.3982C8.56839 10.5569 8.63903 10.6106 8.80657 10.6106C9.53619 10.6106 10.2658 10.6095 10.9954 10.608C11.2112 10.6076 11.295 10.5211 11.295 10.3037C11.295 9.25431 11.2954 8.20528 11.295 7.15587C11.295 6.42859 11.5459 5.79308 12.013 5.23639C12.0949 5.13891 12.1775 5.04181 12.2597 4.94433C12.2636 4.94015 12.2636 4.93291 12.2682 4.91806C12.2393 4.91578 12.2126 4.91235 12.186 4.91197C11.9995 4.91159 11.8131 4.91197 11.6266 4.91197C11.3741 4.91197 11.2309 4.77222 11.2305 4.52548C11.2301 4.27189 11.2305 4.01829 11.2305 3.7647C11.2305 3.73043 11.2305 3.69616 11.2305 3.64818C11.1842 3.64818 11.1471 3.64818 11.1097 3.64818C10.621 3.64818 10.1326 3.64894 9.6439 3.6478C9.4613 3.64742 9.31847 3.54118 9.27677 3.38202C9.23508 3.22248 9.30302 3.04999 9.45127 2.9765C9.51419 2.94527 9.59217 2.93118 9.66359 2.9308C10.1458 2.927 10.6279 2.9289 11.1101 2.9289C11.1448 2.9289 11.1796 2.9289 11.2236 2.9289C11.2259 2.88778 11.2298 2.85427 11.2298 2.82076C11.2301 2.56069 11.2294 2.301 11.2301 2.04093C11.2313 1.80942 11.3799 1.65978 11.6162 1.6594C12.484 1.65788 13.3518 1.65445 14.2197 1.66016C14.9917 1.66511 15.6573 2.21114 15.8098 2.95136C15.9661 3.71063 15.5781 4.46266 14.8682 4.77679C14.7026 4.8499 14.7034 4.8499 14.7412 5.02925C14.9697 6.1076 15.1975 7.18595 15.426 8.2643C15.4326 8.29514 15.4411 8.3256 15.4504 8.36406C15.6924 8.36406 15.9329 8.36521 16.1734 8.36406C16.5043 8.36216 16.8289 8.40747 17.137 8.52513C18.2098 8.93446 18.8178 9.7021 18.9398 10.8345C18.951 10.937 18.9537 11.0447 18.9344 11.1452C18.9043 11.304 18.7684 11.4042 18.6036 11.4141C18.4831 11.4213 18.3627 11.4285 18.2252 11.4369C18.2955 11.5298 18.3569 11.6098 18.4167 11.6909C19.0657 12.5682 19.1826 13.5102 18.7198 14.4953C18.2418 15.5123 17.1679 16.082 16.0835 15.9894C14.9304 15.8912 13.8996 15.0345 13.6761 13.7844C13.663 13.7101 13.6336 13.6953 13.5642 13.6957C11.1954 13.6972 8.82626 13.6968 6.4575 13.6968C6.43203 13.6968 6.40655 13.6968 6.37489 13.6968L6.37605 13.6964ZM7.66582 12.9718C7.68821 12.9733 7.70404 12.9756 7.71986 12.9756C9.67401 12.9756 11.6282 12.9756 13.5823 12.9771C13.6421 12.9771 13.6641 12.96 13.675 12.8998C13.8035 12.192 14.1591 11.6208 14.7393 11.1837C14.7702 11.1605 14.7922 11.1056 14.7925 11.0653C14.7956 10.3171 14.7949 9.56921 14.7945 8.82099C14.7945 8.78329 14.7918 8.74446 14.7841 8.7079C14.5466 7.5831 14.3088 6.45829 14.0703 5.33387C14.0417 5.19907 14.0108 5.06504 13.9811 4.93025C13.9174 4.94433 13.8672 4.95538 13.817 4.96604C12.7569 5.19374 12.013 6.10379 12.013 7.173C12.013 8.23498 12.0146 9.29696 12.0123 10.3589C12.0111 10.9057 11.6046 11.3212 11.0503 11.3269C10.2886 11.3349 9.52693 11.333 8.76488 11.3272C8.31707 11.3238 7.97118 11.0615 7.84263 10.6396C7.66736 10.0638 7.4975 9.4862 7.32533 8.90933C7.24928 8.65497 7.17323 8.40024 7.09641 8.14245H6.97442C6.06143 8.14245 5.14882 8.14398 4.23583 8.14207C3.62859 8.14093 3.06033 8.28486 2.53222 8.5792C1.96474 8.89524 1.52388 9.33732 1.20347 9.8963C1.18918 9.92143 0.611663 11.1738 0.611663 11.1738C0.611663 11.1738 0.577691 11.0439 1.4679 10.2116C2.70131 9.34379 4.0208 9.17968 5.39203 9.78244C6.7729 10.3894 7.47395 11.5096 7.66466 12.9718H7.66582ZM6.93813 12.9703C6.92462 12.8941 6.91188 12.8256 6.90068 12.757C6.59571 10.943 4.77436 9.77673 2.97849 10.2668C1.84738 10.5756 1.08495 11.3581 0.776889 12.4574C0.763763 12.5042 0.756815 12.5419 0.735582 12.5865C0.685397 12.6904 0.604714 12.9623 0.719754 12.9707C0.744461 12.9726 0.690415 12.9669 0.719754 12.9707C0.78461 12.9775 1.01083 12.971 1.01701 12.9707H6.9389L6.93813 12.9703ZM18.2704 13.337C18.2712 12.2708 17.3968 11.3977 16.3251 11.395C15.2481 11.3924 14.3644 12.2586 14.3633 13.3187C14.3621 14.4054 15.2257 15.2762 16.3066 15.2778C17.3949 15.2793 18.2696 14.4149 18.2708 13.3373L18.2704 13.337ZM4.63616 7.42012C5.6611 7.42012 6.68643 7.42012 7.71137 7.42012C7.74341 7.42012 7.77584 7.42127 7.80788 7.41898C7.96114 7.4087 8.06035 7.29904 8.05456 7.14749C8.02522 6.38023 7.41412 5.80031 6.63393 5.79993C6.13593 5.79993 5.63755 5.79993 5.13956 5.79993C3.95054 5.79993 2.76153 5.80107 1.57252 5.79879C1.37873 5.79879 1.20462 5.84639 1.05059 5.96176C0.765307 6.17538 0.652197 6.53825 0.76608 6.87067C0.87919 7.20156 1.18339 7.41936 1.54164 7.41974C2.57314 7.42089 3.60465 7.42012 4.63616 7.42012ZM11.9602 2.37906C11.9555 2.40229 11.952 2.41143 11.952 2.42057C11.9517 2.98792 11.952 3.55527 11.9497 4.12262C11.9497 4.19497 11.9899 4.19497 12.042 4.19497C12.7716 4.19459 13.5009 4.1984 14.2305 4.19307C14.6895 4.18964 15.079 3.82905 15.118 3.38697C15.1674 2.82381 14.7578 2.38097 14.1811 2.37944C13.4742 2.37754 12.767 2.37906 12.0601 2.37906H11.9602ZM1.7806 13.7002C2.03732 14.7607 2.92522 15.3414 3.8606 15.2728C4.75351 15.2073 5.46036 14.5593 5.64102 13.7002H1.7806ZM18.2175 10.6917C18.1843 10.5935 18.1581 10.5067 18.126 10.4214C17.8477 9.68306 17.308 9.24441 16.5267 9.11685C16.2286 9.06811 15.9186 9.0921 15.6144 9.07839C15.533 9.07459 15.5117 9.102 15.5125 9.18006C15.5156 9.6804 15.5141 10.1811 15.5144 10.6815C15.5144 10.7123 15.5172 10.7431 15.5195 10.7942C15.9985 10.6255 16.4823 10.6914 16.9621 10.6917C17.3412 10.6917 17.7199 10.6917 18.099 10.6917H18.2179H18.2175Z" fill="black"/>
<path d="M4.84483 0.000338465C5.69026 0.000338465 6.53531 -0.000423082 7.38074 0.000338465C7.65368 0.000338465 7.8301 0.226518 7.75212 0.471355C7.70695 0.613384 7.5784 0.710101 7.42128 0.720001C7.3958 0.721524 7.36994 0.720381 7.34407 0.720381C5.66324 0.720381 3.98203 0.720381 2.3012 0.720381C2.05683 0.720381 1.88543 0.538752 1.91554 0.313715C1.94063 0.125232 2.09157 0.000719239 2.29927 0.000338465C3.14779 -4.23082e-05 3.99631 0.000338465 4.84483 0.000338465Z" fill="black"/>
<path d="M2.928 2.31509C3.7634 2.31509 4.59918 2.31585 5.43458 2.31433C5.55657 2.31433 5.6635 2.33946 5.74573 2.43389C5.84224 2.54508 5.86733 2.67035 5.81251 2.80591C5.75769 2.94108 5.65424 3.01724 5.50522 3.03019C5.48283 3.03209 5.46044 3.03171 5.43767 3.03171C3.76649 3.03171 2.09569 3.03171 0.424516 3.03171C0.216439 3.03171 0.0759198 2.93271 0.0357714 2.76022C-0.0186606 2.5268 0.146952 2.31776 0.392475 2.31623C0.787782 2.31357 1.18309 2.31547 1.5784 2.31547C2.02814 2.31547 2.47826 2.31547 2.928 2.31547V2.31509Z" fill="black"/>
<path d="M16.3141 13.6991C16.1122 13.6987 15.9465 13.5323 15.9493 13.3328C15.952 13.134 16.1218 12.9699 16.3214 12.9729C16.5179 12.976 16.6785 13.139 16.6789 13.3358C16.6793 13.538 16.5171 13.6995 16.3137 13.6991H16.3141Z" fill="black"/>
</svg>
