<?xml version="1.0" encoding="utf-8"?>
<!-- Generator: Adobe Illustrator 25.2.0, SVG Export Plug-In . SVG Version: 6.00 Build 0)  -->
<svg version="1.1" id="Layer_1" xmlns="http://www.w3.org/2000/svg" xmlns:xlink="http://www.w3.org/1999/xlink" x="0px" y="0px"
	 viewBox="0 0 408.9 283.3" style="enable-background:new 0 0 408.9 283.3;" xml:space="preserve">
<style type="text/css">
	.st0{fill:#FFFFFF;}
</style>
<g id="Layer_2_1_">
	<g id="Layer_1-2">
		<path class="st0" d="M0,112.9c3.4-7.5,9.4-9.7,17.3-9.6c34.6,0.3,69.1,0.1,103.7,0.1c7.3,0,12.1,3.1,14,9c2.2,6.6-1.4,13.8-8,16
			c-0.9,0.3-1.8,0.5-2.7,0.6c-1.6,0.1-3.2,0.2-4.8,0.2c-34.4,0-68.8-0.1-103.3,0.1c-7.9,0.1-13.3-2.6-16.2-10L0,112.9z"/>
		<path class="st0" d="M277,25.8h40.5c4.1,0,8.3,0.1,12.4,0c7-0.3,11.5,2.8,14.6,9c10.2,20.6,21,40.9,30.8,61.7
			c6.8,14.4,16.9,26.4,26.7,38.6c4.8,5.7,7.3,13,7,20.4c-0.4,24.8-0.1,49.5-0.1,74.2c0,10.7-4.8,15.5-15.6,15.6
			c-10.2,0-20.5,0.1-30.7,0c-2.8,0-4.1,0.7-5.1,3.5c-7.5,21.1-26.8,34.7-48.7,34.6c-22.1-0.1-41-13.5-48.5-34.9
			c-0.9-2.6-2.2-3.3-4.9-3.3c-23,0.1-46,0.1-69,0c-2.9,0-4.1,0.9-5,3.6c-7.1,20.7-26.5,34.6-48.4,34.5
			c-21.9,0.1-41.2-13.5-48.7-34.6c-1-2.8-2.2-3.6-5.1-3.6c-9.4,0.2-18.9,0.2-28.3,0c-8.1-0.1-13.6-4.8-14.1-11.8
			c-0.6-8.1,4.9-13.9,13.8-14.1s17.8,0,26.7,0h5.4c2.2-8,6.2-15.4,11.6-21.6c26-29.3,73.9-20,86.9,17c1.3,3.7,2.9,4.7,6.6,4.7
			c22.2-0.2,44.4-0.2,66.7,0c3.1,0,4.6-0.7,5.6-3.9c8.9-26.9,37.9-41.5,64.8-32.7c15.6,5.1,27.7,17.4,32.8,33c0.9,2.8,2.2,3.6,5,3.5
			c6.6-0.2,13.3-0.1,20.5-0.1v-4.1c0-19.6,0.1-39.1-0.1-58.7c-0.1-2.2-0.8-4.3-2.1-6.1c-4.6-6.3-9.6-12.4-14.3-18.7
			c-1.3-2-3.6-3.1-5.9-2.9c-31.1,0.1-62.3,0.1-93.4,0.1c-11.4,0-16-4.6-16-15.9c0-27.3,0-54.6,0-81.8v-5.4h-5.4
			c-64.4,0-128.8,0-193.2,0c-2.4,0-4.8-0.2-7.1-0.8c-5.9-1.6-9.4-7.1-8.9-13.4c0.5-5.9,5.1-10.7,11-11.3C49.4,0.1,51.1,0,52.8,0
			h207.6C272.6,0,277,4.4,277,16.5V25.8z M349.3,102.8c0-0.4,0-0.7-0.1-1.1c-8.1-16.1-16.1-32.3-24.4-48.4c-0.5-1-2.5-1.8-3.8-1.8
			c-13.2-0.1-26.3-0.1-39.5-0.1h-4.3v51.4L349.3,102.8z M308.9,206.2c-14.1-0.1-25.7,11.3-25.9,25.4c-0.2,13.9,11.4,25.7,25.4,25.9
			c14.2,0.1,25.7-11.3,25.9-25.4C334.4,217.9,323,206.3,308.9,206.2L308.9,206.2L308.9,206.2z M158.4,231.7
			c-0.1-14.2-11.6-25.6-25.8-25.5S106.9,217.8,107,232c0.1,14.2,11.6,25.6,25.8,25.5c0,0,0.1,0,0.1,0
			C147.1,257.4,158.4,245.9,158.4,231.7C158.4,231.7,158.4,231.7,158.4,231.7z"/>
		<path class="st0" d="M89,52.9c18,0,35.9,0,53.9,0c7.3,0,12.6,4.1,13.6,10.4c1.3,7-3.3,13.8-10.3,15.1c-0.4,0.1-0.8,0.1-1.2,0.2
			c-0.9,0.1-1.9,0.1-2.8,0.1c-35.5,0-71,0-106.6,0c-5.3,0-9.7-1.6-12.5-6.3c-3.7-6-1.8-13.8,4.2-17.4c2-1.2,4.3-1.9,6.7-1.9
			c13.8-0.2,27.7-0.1,41.5-0.1L89,52.9z"/>
		<path class="st0" d="M63.6,154.3c10.1,0,20.2-0.3,30.3,0.1c6.9,0.2,12.4,6,12.1,12.9c0,1.4-0.3,2.8-0.9,4.2
			c-1.9,5.2-6.9,8.6-12.4,8.4c-19.6,0.1-39.1,0.1-58.7,0c-7.1,0.1-13-5.6-13.1-12.7c0-0.1,0-0.1,0-0.2c0-7.1,5.4-12.6,13-12.8
			C43.9,154.1,53.7,154.2,63.6,154.3L63.6,154.3z"/>
	</g>
</g>
</svg>
