<?xml version="1.0" encoding="UTF-8"?>
<svg viewBox="0 0 163 45.73" xmlns="http://www.w3.org/2000/svg" width="163px" height="46px">
<g style="isolation:isolate">
<path d="M44.14,42.11a8.54,8.54,0,0,0,1.59-5V8.59A8.6,8.6,0,0,0,37.13,0H8.59A8.6,8.6,0,0,0,0,8.59V37.13a8.57,8.57,0,0,0,1.38,4.68l21.48-9.94Z" fill="#5abfb5"/>
<path d="m44.14 42.11-21.28-10.24-21.48 9.94a8.61 8.61 0 0 0 7.2 3.92h28.57a8.58 8.58 0 0 0 6.99-3.62z"/>
<path d="M23.05,1.94V6.1A10.66,10.66,0,0,1,33.71,16.76h4.16A14.82,14.82,0,0,0,23.05,1.94Z"/>
<path d="M26.25,17a3.36,3.36,0,1,1-3.36-3.36A3.35,3.35,0,0,1,26.25,17Z"/>
<path d="m23.09 7.3v4.15a5.66 5.66 0 0 1 5.44 5.39h4a9.7 9.7 0 0 0-9.44-9.54z"/>
<path d="M22.89,22.76a5.66,5.66,0,0,1-.2-11.31V7.3A9.79,9.79,0,0,0,13.18,17c-.17,7,9.64,14.74,9.64,14.74s9.83-7.61,9.77-14.49H28.54A5.66,5.66,0,0,1,22.89,22.76Z" fill="#fff"/>
<polygon points="23.21 36.88 22.56 36.88 22.72 33.85 23.05 33.85" fill="#fff"/>
<polygon points="23.5 45.73 22.27 45.73 22.57 40.01 23.2 40.01" fill="#fff"/>
<g opacity=".3" style="mix-blend-mode:soft-light">
<path d="M37.13,0H8.59A8.6,8.6,0,0,0,0,8.59v17.9q11.33.82,22.86.84t22.87-.84V8.59A8.6,8.6,0,0,0,37.13,0Z" fill="#fff"/>
</g>
<path d="M62.43,24.2v7.86H59.21V12.37h5.56q3.81,0,5.65,1.43a5.13,5.13,0,0,1,1.83,4.31q0,3.67-3.83,5.24L74,32.06H70.32L65.61,24.2Zm0-2.67h2.24a5.13,5.13,0,0,0,3.25-.83,3,3,0,0,0,1-2.48,2.66,2.66,0,0,0-1.09-2.4,6,6,0,0,0-3.28-.73H62.43Z"/>
<path d="m87.65 24.59a8.1 8.1 0 0 1-1.88 5.69 6.67 6.67 0 0 1-5.21 2 7.13 7.13 0 0 1-3.69-0.94 6.17 6.17 0 0 1-2.46-2.71 9.12 9.12 0 0 1-0.86-4.09 8.12 8.12 0 0 1 1.85-5.66 6.77 6.77 0 0 1 5.24-2 6.55 6.55 0 0 1 5.12 2.12 8 8 0 0 1 1.89 5.59zm-10.85 0q0 5.16 3.82 5.16t3.77-5.16c0-3.4-1.27-5.11-3.8-5.11a3.24 3.24 0 0 0-2.89 1.32 6.72 6.72 0 0 0-0.9 3.79z"/>
<path d="M98.53,32.06,97.9,30h-.11a6.08,6.08,0,0,1-2.17,1.85,6.79,6.79,0,0,1-2.8.49,4.72,4.72,0,0,1-3.42-1.18,4.42,4.42,0,0,1-1.24-3.36,3.93,3.93,0,0,1,1.71-3.47A9.86,9.86,0,0,1,95.08,23L97.66,23v-.8A3,3,0,0,0,97,20a2.72,2.72,0,0,0-2.07-.71,7,7,0,0,0-2.19.34,16.29,16.29,0,0,0-2,.79l-1-2.26a11.19,11.19,0,0,1,2.66-1,12.15,12.15,0,0,1,2.72-.33,6.44,6.44,0,0,1,4.29,1.24A4.85,4.85,0,0,1,100.8,22v10Zm-4.71-2.15a3.9,3.9,0,0,0,2.77-1,3.5,3.5,0,0,0,1-2.7V25L95.72,25a6.62,6.62,0,0,0-3.25.75,2.26,2.26,0,0,0-1,2A2,2,0,0,0,92,29.36,2.53,2.53,0,0,0,93.82,29.91Z"/>
<path d="M108.17,32.33a5.18,5.18,0,0,1-4.35-2,9.08,9.08,0,0,1-1.57-5.67,9.07,9.07,0,0,1,1.59-5.7,5.22,5.22,0,0,1,4.38-2,5.12,5.12,0,0,1,4.47,2.17h.16a19.58,19.58,0,0,1-.23-2.54V11.11h3.18v21h-2.48l-.55-2h-.15A5.05,5.05,0,0,1,108.17,32.33Zm.85-2.56a3.46,3.46,0,0,0,2.84-1.09,5.84,5.84,0,0,0,.91-3.57v-.44a6.68,6.68,0,0,0-.91-4A3.4,3.4,0,0,0,109,19.48a2.92,2.92,0,0,0-2.57,1.36,6.86,6.86,0,0,0-.91,3.86,6.75,6.75,0,0,0,.88,3.77A3,3,0,0,0,109,29.77Z"/>
<path d="M124.27,32.33a6.53,6.53,0,0,1-5.14-2,8.25,8.25,0,0,1-1.76-5.66,8.27,8.27,0,0,1,1.84-5.78,6.8,6.8,0,0,1,5.31-2,10,10,0,0,1,4.24.87l-.95,2.55a9.6,9.6,0,0,0-3.32-.78q-3.85,0-3.86,5.13a6.15,6.15,0,0,0,1,3.76,3.33,3.33,0,0,0,2.82,1.26,8.08,8.08,0,0,0,4-1.05V31.4a6.46,6.46,0,0,1-1.81.72A11.1,11.1,0,0,1,124.27,32.33Z"/>
<path d="M139.17,32.06,138.53,30h-.1a6.17,6.17,0,0,1-2.17,1.85,6.82,6.82,0,0,1-2.8.49A4.73,4.73,0,0,1,130,31.15a4.45,4.45,0,0,1-1.23-3.36,3.93,3.93,0,0,1,1.71-3.47A9.83,9.83,0,0,1,135.72,23l2.57-.08v-.8a3,3,0,0,0-.67-2.13,2.71,2.71,0,0,0-2.06-.71,7,7,0,0,0-2.2.34,16.93,16.93,0,0,0-2,.79l-1-2.26a11.11,11.11,0,0,1,2.65-1,12.22,12.22,0,0,1,2.72-.33A6.4,6.4,0,0,1,140,18.14,4.82,4.82,0,0,1,141.43,22v10Zm-4.72-2.15a3.9,3.9,0,0,0,2.77-1,3.47,3.47,0,0,0,1-2.7V25l-1.91.08a6.65,6.65,0,0,0-3.25.75,2.26,2.26,0,0,0-1,2,2,2,0,0,0,.59,1.54A2.53,2.53,0,0,0,134.45,29.91Z"/>
<path d="M153.78,27.82a3.91,3.91,0,0,1-1.59,3.35,7.64,7.64,0,0,1-4.55,1.16,10.78,10.78,0,0,1-4.78-.9V28.7a11.85,11.85,0,0,0,4.89,1.21c1.95,0,2.92-.59,2.92-1.77a1.43,1.43,0,0,0-.32-.94,4,4,0,0,0-1.06-.78,20.74,20.74,0,0,0-2.07-.92,9.46,9.46,0,0,1-3.48-2,3.71,3.71,0,0,1-.91-2.58,3.39,3.39,0,0,1,1.55-3,7.24,7.24,0,0,1,4.19-1.06,11.86,11.86,0,0,1,5,1.06l-1,2.39a11,11,0,0,0-4.06-1c-1.67,0-2.5.48-2.5,1.43a1.44,1.44,0,0,0,.65,1.18,14.39,14.39,0,0,0,2.85,1.34,13.11,13.11,0,0,1,2.68,1.3,3.62,3.62,0,0,1,1.64,3.22Z"/>
<path d="M160.68,29.77a7.74,7.74,0,0,0,2.32-.36v2.38a6.32,6.32,0,0,1-1.35.39,9.74,9.74,0,0,1-1.72.15q-4.5,0-4.5-4.74v-8h-2v-1.4L155.58,17l1.08-3.16h2v3.32h4.24v2.39h-4.24v8a2.26,2.26,0,0,0,.57,1.69A2.09,2.09,0,0,0,160.68,29.77Z"/>
</g>
</svg>
