<svg xmlns="http://www.w3.org/2000/svg" width="438.23" height="332.82" viewBox="0 0 438.23 332.82">
  <title>motion_sensor</title>
  <path d="M-559.79,403.47a241.13,241.13,0,0,1-44-67.58,240.06,240.06,0,0,1-19.93-96.12,240,240,0,0,1,19.93-96.11,240.84,240.84,0,0,1,44-67.58l15.92,16.46a218.1,218.1,0,0,0-38.93,60.22,217.21,217.21,0,0,0-18,87,217.26,217.26,0,0,0,18,87A218.25,218.25,0,0,0-543.87,387Z" transform="translate(623.69 -70.65)" style="fill: #5eedff"/>
  <path d="M-498.41,329.63a138.64,138.64,0,0,1-32.88-89.86,138.71,138.71,0,0,1,32.88-89.86l16,16.53a116.23,116.23,0,0,0-26,73.33,116.17,116.17,0,0,0,26,73.33Z" transform="translate(623.69 -70.65)" style="fill: #fff"/>
  <path d="M-265.27,381.58a218.07,218.07,0,0,0,38.92-60.22,217.22,217.22,0,0,0,18-87,217.3,217.3,0,0,0-18-87,218.21,218.21,0,0,0-38.92-60.22l15.91-16.46a240.85,240.85,0,0,1,44,67.59,240,240,0,0,1,19.92,96.11,240,240,0,0,1-19.92,96.11,240.87,240.87,0,0,1-44,67.58Z" transform="translate(623.69 -70.65)" style="fill: #5eedff"/>
  <path d="M-321.29,313.1a116.17,116.17,0,0,0,26-73.33,116.19,116.19,0,0,0-26-73.33l16-16.53a138.71,138.71,0,0,1,32.88,89.86,138.64,138.64,0,0,1-32.88,89.86Z" transform="translate(623.69 -70.65)" style="fill: #fff"/>
  <path d="M-401.86,292.16a52.45,52.45,0,0,1-52.39-52.39,52.45,52.45,0,0,1,52.39-52.39,52.45,52.45,0,0,1,52.39,52.39A52.45,52.45,0,0,1-401.86,292.16Z" transform="translate(623.69 -70.65)" style="fill: #5eedff"/>
</svg>
