<svg xmlns="http://www.w3.org/2000/svg" xmlns:xlink="http://www.w3.org/1999/xlink" width="23.93mm" height="34.63mm" viewBox="0 0 67.83 98.17">
  <defs>
    <linearGradient id="a" x1="1.32" y1="41.1" x2="43.41" y2="41.1" gradientUnits="userSpaceOnUse">
      <stop offset="0" stop-color="#2ecabd"/>
      <stop offset="0.24" stop-color="#31c8bf"/>
      <stop offset="0.43" stop-color="#3bc1c5"/>
      <stop offset="0.61" stop-color="#4cb6ce"/>
      <stop offset="0.77" stop-color="#64a7dc"/>
      <stop offset="0.93" stop-color="#8393ed"/>
      <stop offset="1" stop-color="#9289f6"/>
    </linearGradient>
    <linearGradient id="b" x1="186.88" y1="105.27" x2="207.92" y2="105.27" xlink:href="#a"/>
    <linearGradient id="c" x1="24.43" y1="57.72" x2="66.52" y2="57.72" xlink:href="#a"/>
    <linearGradient id="d" x1="209.99" y1="121.89" x2="231.03" y2="121.89" xlink:href="#a"/>
  </defs>
  <title>Vector Smart Object</title>
  <rect x="1.32" y="1.64" width="42.09" height="78.92" rx="5.26" style="fill: url(#a)"/>
  <path d="M206.61,108.56H188.19L186.88,102h21Z" transform="translate(-175.04 -100.34)" style="fill: url(#b)"/>
  <path d="M213.18,100.34H181.62a6.59,6.59,0,0,0-6.58,6.58v68.4a6.58,6.58,0,0,0,6.58,6.57h31.56a6.57,6.57,0,0,0,6.58-6.57v-68.4A6.59,6.59,0,0,0,213.18,100.34ZM206.32,103l-.79,4H189.27l-.79-4Zm10.81,72.35a4,4,0,0,1-3.95,3.94H181.62a4,4,0,0,1-4-3.94v-68.4a4,4,0,0,1,4-4h4.18l1.1,5.52a1.32,1.32,0,0,0,1.29,1.06h18.42a1.32,1.32,0,0,0,1.29-1.06L209,103h4.18a4,4,0,0,1,3.95,4Z" transform="translate(-175.04 -100.34)" style="fill: #fff"/>
  <path d="M189.51,174h-7.89a1.32,1.32,0,1,0,0,2.63h7.89a1.32,1.32,0,0,0,0-2.63Z" transform="translate(-175.04 -100.34)" style="fill: #fff"/>
  <path d="M194.77,174h-1.32a1.32,1.32,0,0,0,0,2.63h1.32a1.32,1.32,0,1,0,0-2.63Z" transform="translate(-175.04 -100.34)" style="fill: #fff"/>
  <rect x="24.43" y="18.26" width="42.09" height="78.92" rx="5.26" style="fill: url(#c)"/>
  <path d="M229.72,125.18H211.3L210,118.6h21Z" transform="translate(-175.04 -100.34)" style="fill: url(#d)"/>
  <path d="M236.3,117H204.73a6.58,6.58,0,0,0-6.58,6.57v68.4a6.6,6.6,0,0,0,6.58,6.58H236.3a6.58,6.58,0,0,0,6.57-6.58v-68.4A6.57,6.57,0,0,0,236.3,117Zm-6.87,2.63-.79,3.94H212.38l-.79-3.94Zm10.81,72.34a4,4,0,0,1-3.94,3.95H204.73a4,4,0,0,1-3.95-3.95v-68.4a4,4,0,0,1,3.95-3.94h4.18l1.1,5.52a1.33,1.33,0,0,0,1.29,1h18.42a1.31,1.31,0,0,0,1.29-1l1.1-5.52h4.19a4,4,0,0,1,3.94,3.94Z" transform="translate(-175.04 -100.34)" style="fill: #fff"/>
  <path d="M212.62,190.62h-7.89a1.32,1.32,0,1,0,0,2.63h7.89a1.32,1.32,0,0,0,0-2.63Z" transform="translate(-175.04 -100.34)" style="fill: #fff"/>
  <path d="M217.88,190.62h-1.31a1.32,1.32,0,1,0,0,2.63h1.31a1.32,1.32,0,1,0,0-2.63Z" transform="translate(-175.04 -100.34)" style="fill: #fff"/>
</svg>
