<svg width="99" height="98" viewBox="0 0 99 98" fill="none" xmlns="http://www.w3.org/2000/svg">
<path d="M49.0191 97.9999C21.986 97.9999 0 76.0226 0 49C0 21.9774 21.986 0 49.0191 0C76.0523 0 98.0382 21.9774 98.0382 49C98.0382 76.0226 76.0523 97.9999 49.0191 97.9999ZM49.0191 2.9813C23.6301 2.9813 2.98244 23.6209 2.98244 49C2.98244 74.379 23.6301 95.0186 49.0191 95.0186C74.4081 95.0186 95.0558 74.379 95.0558 49C95.0558 23.6209 74.4081 2.9813 49.0191 2.9813Z" fill="#655ADD"/>
<path d="M49.2749 69.6786C49.0251 69.6786 48.779 69.6355 48.522 69.5441C44.1289 68.0053 39.7322 66.4719 35.3354 64.9386C32.536 63.9629 29.7367 62.9855 26.9373 62.0081C25.7819 61.6046 25.5627 61.2979 25.5591 60.0766C25.5519 58.2653 25.5501 56.4539 25.5483 54.6425C25.5412 49.2336 25.5358 43.6417 25.4154 38.1395C25.3777 36.4429 25.5789 36.156 27.2068 35.5893C34.818 32.9368 41.6817 30.5444 48.6029 28.1197C48.8545 28.0318 49.0809 27.9888 49.2929 27.9888C49.4887 27.9888 49.6846 28.0246 49.893 28.0964C55.3013 29.9831 60.8049 31.8912 66.127 33.7367L71.3951 35.5642C72.802 36.052 72.9961 36.33 72.9979 37.8454C73.0015 40.4692 72.9997 43.0947 72.9979 45.7185V52.2178C72.9979 54.7699 72.9979 57.3219 72.9961 59.8739C72.9961 61.2746 72.7841 61.5777 71.4922 62.0296C68.5724 63.0537 65.6526 64.0759 62.7328 65.0964C58.523 66.5688 54.3131 68.043 50.105 69.5207C49.8085 69.6248 49.5354 69.675 49.2677 69.675L49.2749 69.6786ZM29.4384 39.6819C29.0665 39.6819 28.8329 39.8361 28.7035 39.967C28.3837 40.2862 28.3477 40.774 28.3477 41.113C28.3585 47.7074 28.3585 53.1666 28.3441 58.2922C28.3423 59.1566 28.734 59.6964 29.5785 59.9887C33.0068 61.176 36.4872 62.3955 39.8544 63.5738C41.9063 64.2929 43.9582 65.0121 46.0119 65.7277C46.4036 65.864 46.6606 65.9375 46.8942 65.9375C47.7566 65.9375 47.7584 65.048 47.7602 64.4597C47.7656 62.4672 47.7656 60.4747 47.7638 58.4823V55.8692C47.7638 55.0801 47.7602 54.291 47.7584 53.5019C47.7512 51.4969 47.7458 49.4219 47.7818 47.3864C47.8015 46.287 47.3559 45.679 46.2904 45.3526C45.0812 44.9814 43.863 44.5546 42.6843 44.1421C42.1129 43.9412 41.5415 43.7404 40.9666 43.5449C40.4401 43.3655 40.1239 43.2741 39.8526 43.2741C38.9236 43.2741 38.9218 44.2102 38.9182 44.9635C38.9164 45.6808 38.9182 46.3982 38.9182 47.1174C38.92 48.2885 38.9218 49.4972 38.9092 50.6863C38.8985 51.6009 38.4439 52.2089 37.6892 52.3111C37.6156 52.3201 37.5437 52.3255 37.4718 52.3255C36.6489 52.3255 36.0667 51.6744 36.0577 50.7419C36.0344 48.5234 36.0326 46.1113 36.0541 43.1485C36.0577 42.5531 35.941 41.7228 34.8791 41.391C33.4937 40.9588 31.9754 40.4566 30.1032 39.8128C29.8498 39.7249 29.6324 39.6836 29.4348 39.6836L29.4384 39.6819ZM69.1887 39.6603C68.8976 39.6603 68.5508 39.759 68.0513 39.9311C66.2941 40.5355 64.5386 41.1417 62.7813 41.7461C59.2327 42.971 55.5637 44.2353 51.9503 45.4638C51.0106 45.7831 50.5973 46.3821 50.6117 47.4043C50.6387 49.438 50.6333 51.5077 50.6297 53.5091C50.6297 54.2713 50.6261 55.0353 50.6261 55.7975V58.2581C50.6261 60.1717 50.6261 62.087 50.6261 64.0006C50.6261 64.831 50.6261 65.864 51.6431 65.864C51.9449 65.864 52.3061 65.7582 52.8272 65.577C54.482 64.9995 56.1368 64.4185 57.7917 63.8374C61.3691 62.582 65.0669 61.2836 68.7143 60.0354C69.7726 59.6731 70.2021 59.0508 70.1949 57.8904C70.1715 54.0184 70.1733 50.0801 70.1751 46.2709C70.1751 44.6442 70.1769 43.0176 70.1751 41.3892C70.1751 40.6593 70.1751 39.6603 69.1869 39.6603H69.1887ZM60.8408 34.9777C60.4922 34.9777 60.1329 35.0477 59.7412 35.1911C57.6174 35.9695 55.454 36.7496 53.3608 37.5029C52.3869 37.8544 51.4113 38.2059 50.4374 38.5574L49.805 38.7851C48.425 39.2837 46.9966 39.8002 45.5987 40.3239C45.0201 40.5409 44.7326 40.8261 44.7165 41.1973C44.7075 41.4161 44.7973 41.7228 45.2681 41.9451C46.1575 42.3612 47.0972 42.6679 48.0064 42.9638C48.3711 43.0822 48.7466 43.2059 49.1096 43.3315L49.2785 43.3906L53.2997 41.99C56.9526 40.7185 60.6036 39.4469 64.2547 38.1682C64.3032 38.1521 64.3733 38.1341 64.4488 38.118C64.7416 38.0498 65.4298 37.892 65.4532 37.1729C65.4801 36.382 64.7578 36.1955 64.4506 36.1165C64.3715 36.0968 64.296 36.0771 64.2439 36.0574C63.8576 35.9067 63.4641 35.7668 63.085 35.6341C62.6699 35.4888 62.2423 35.3364 61.8326 35.1732C61.5038 35.0405 61.1804 34.9777 60.8426 34.9777H60.8408ZM49.3072 31.0394C48.9389 31.0394 48.558 31.1111 48.1465 31.2564C45.2034 32.2948 42.2082 33.3385 39.3099 34.3482C37.9318 34.8289 36.5537 35.3095 35.1755 35.7901L35.0749 35.826C34.6077 35.9892 34.1244 36.1578 33.6572 36.3658C33.2691 36.5398 33.0445 36.8518 33.0553 37.1998C33.0661 37.5315 33.2925 37.8113 33.659 37.9458C34.8144 38.3745 35.9877 38.7762 37.1232 39.1654C37.5419 39.3088 37.9569 39.4505 38.3684 39.594L38.5247 39.6478L38.6828 39.6012C38.8032 39.5653 38.9164 39.533 39.0224 39.5025C39.247 39.438 39.4393 39.3824 39.6369 39.3142C40.8534 38.8928 42.0698 38.4695 43.288 38.0463L46.648 36.8769C49.0126 36.0556 51.3753 35.2324 53.7381 34.4056C53.7777 34.3913 53.8208 34.3805 53.8657 34.368C54.128 34.2944 54.7407 34.1258 54.7461 33.4497C54.7497 32.7664 54.1208 32.6014 53.8855 32.5405C53.8369 32.5279 53.7884 32.5171 53.7471 32.501C53.3123 32.336 52.8757 32.1782 52.4373 32.0204C51.7724 31.7801 51.0843 31.5326 50.423 31.2653C50.0529 31.1165 49.69 31.043 49.3126 31.043L49.3072 31.0394Z" fill="#655ADD"/>
<path d="M59.8058 59.2875C59.1967 59.2875 58.7133 58.9486 58.5175 58.3818C58.2336 57.5658 58.6091 56.8503 59.4985 56.5167C61.0384 55.9374 63.0723 55.186 65.1476 54.5081C65.3489 54.4417 65.5483 54.4094 65.7388 54.4094C66.1161 54.4094 66.4431 54.5386 66.6857 54.7807C66.9426 55.0389 67.0774 55.3994 67.0756 55.8226C67.081 56.4772 66.7701 56.9077 66.1287 57.148C64.3966 57.7918 62.3788 58.5361 60.3844 59.1907C60.1885 59.2552 59.9944 59.2875 59.8058 59.2875Z" fill="#655ADD"/>
</svg>
