<svg xmlns="http://www.w3.org/2000/svg" width="44.69" height="35.12" viewBox="0 0 44.69 35.12">
  <title>Asset 5</title>
  <g>
    <path d="M28.68,6.47V3a3,3,0,0,0-3-3H3A3,3,0,0,0,0,3v11.6a3,3,0,0,0,3,3H5.25V11.76a5.29,5.29,0,0,1,5.28-5.29Z" style="fill: #fcfafa"/>
    <path d="M36.19,15.21V11.76a3,3,0,0,0-3-3H10.53a3,3,0,0,0-3,3v11.6a3,3,0,0,0,3,3h3.21V20.5A5.29,5.29,0,0,1,19,15.21Z" style="fill: #fcfafa"/>
    <path d="M41.67,17.47H19a3,3,0,0,0-3,3V32.09a3,3,0,0,0,3,3H41.67a3,3,0,0,0,3-3V20.5A3,3,0,0,0,41.67,17.47Z" style="fill: #fcfafa"/>
  </g>
</svg>
