<svg width="16" height="18" viewBox="0 0 16 18" fill="none" xmlns="http://www.w3.org/2000/svg">
<path d="M13.8333 0.5C14.2754 0.5 14.6993 0.675595 15.0118 0.988155C15.3244 1.30072 15.5 1.72464 15.5 2.16667V13.8333C15.5 14.2754 15.3244 14.6993 15.0118 15.0118C14.6993 15.3244 14.2754 15.5 13.8333 15.5H2.16667C1.72464 15.5 1.30072 15.3244 0.988155 15.0118C0.675595 14.6993 0.5 14.2754 0.5 13.8333V2.16667C0.5 1.72464 0.675595 1.30072 0.988155 0.988155C1.30072 0.675595 1.72464 0.5 2.16667 0.5H13.8333ZM13.8333 2.16667H2.16667V13.8333H13.8333V2.16667ZM8.03083 4.44083C8.25667 3.7175 9.23083 3.64917 9.5725 4.2875L9.61583 4.37917L11.0642 8H12.1667C12.3791 8.00024 12.5834 8.08157 12.7378 8.22737C12.8923 8.37318 12.9852 8.57246 12.9976 8.7845C13.0101 8.99653 12.9411 9.20532 12.8048 9.36819C12.6685 9.53107 12.4751 9.63575 12.2642 9.66083L12.1667 9.66667H10.5058C10.3549 9.66676 10.2068 9.62627 10.0769 9.54945C9.94697 9.47263 9.84012 9.36229 9.7675 9.23L9.72417 9.13833L8.93 7.15167L7.55167 11.5625C7.33583 12.2525 6.4225 12.3567 6.04583 11.775L5.99583 11.6875L4.98417 9.66667H3.83333C3.62093 9.66643 3.41664 9.5851 3.26219 9.43929C3.10775 9.29349 3.0148 9.09421 3.00236 8.88217C2.98991 8.67014 3.0589 8.46135 3.19522 8.29847C3.33155 8.1356 3.52492 8.03092 3.73583 8.00583L3.83333 8H5.495C5.77833 8 6.04 8.14167 6.195 8.37417L6.2475 8.46583L6.57083 9.1125L8.03083 4.44083Z" fill="black"/>
</svg>
