<svg width="99" height="98" viewBox="0 0 99 98" fill="none" xmlns="http://www.w3.org/2000/svg">
<path d="M49.0191 97.9999C21.986 97.9999 0 76.0226 0 49C0 21.9774 21.986 0 49.0191 0C76.0523 0 98.0382 21.9774 98.0382 49C98.0382 76.0226 76.0523 97.9999 49.0191 97.9999ZM49.0191 2.9813C23.6301 2.9813 2.98244 23.6209 2.98244 49C2.98244 74.3791 23.6301 95.0186 49.0191 95.0186C74.4081 95.0186 95.0558 74.3791 95.0558 49C95.0558 23.6209 74.4081 2.9813 49.0191 2.9813Z" fill="#655ADD"/>
<path d="M30.0037 49.0285C30.0037 43.9122 30.0019 38.7959 30.0037 33.6778C30.0037 32.1383 30.4787 30.7783 31.5754 29.6598C32.6593 28.556 33.9926 28.0178 35.5203 28.0124C40.9212 27.9959 46.3222 27.9959 51.7232 28.0124C53.2656 28.0178 54.6135 28.5615 55.7176 29.6635C58.1769 32.12 60.638 34.5729 63.0955 37.0313C64.1959 38.1314 64.7278 39.4714 64.7351 41.02C64.7388 42.0249 64.7424 43.0299 64.7351 44.0348C64.7278 44.9922 64.073 45.6823 63.1983 45.675C62.3418 45.6695 61.6981 44.9959 61.6816 44.055C61.6651 43.1415 61.6632 42.2281 61.6816 41.3147C61.6907 40.9321 61.5477 40.8131 61.1736 40.8168C59.2974 40.8296 57.4195 40.8333 55.5433 40.8186C53.7809 40.8058 52.4054 39.7459 52.0203 38.1205C51.9121 37.661 51.9048 37.1851 51.903 36.7128C51.8975 35.0232 51.8864 33.3318 51.9103 31.6423C51.9176 31.1755 51.7599 31.0492 51.3051 31.051C46.071 31.0657 40.8387 31.0583 35.6046 31.062C34.0476 31.062 33.0609 32.0486 33.0609 33.6082C33.0591 43.8866 33.0591 54.1667 33.0609 64.4451C33.0609 66.0321 34.0403 67.0096 35.6303 67.0114C38.7737 67.0151 41.9171 67.0096 45.0586 67.0151C46.0985 67.0151 46.7587 67.6887 46.7037 68.6644C46.6597 69.4662 45.9958 70.0464 45.0715 70.0611C44.0646 70.0757 43.0578 70.0666 42.051 70.0666C39.8851 70.0666 37.7173 70.0812 35.5514 70.0629C32.8482 70.0409 30.6676 68.2763 30.1303 65.6971C30.0313 65.2212 29.9982 64.7343 30.0001 64.2455C30.0037 59.175 30.0019 54.1027 30.0019 49.0321L30.0037 49.0285ZM59.3249 37.7653C57.8688 36.3082 56.3925 34.8347 54.951 33.3922C54.951 34.6004 54.9492 35.8927 54.9528 37.1832C54.9528 37.5109 55.0885 37.7598 55.4572 37.7617C56.7794 37.769 58.1017 37.7653 59.3249 37.7653Z" fill="#655ADD"/>
<path d="M60.3282 70.0629C57.6891 70.0629 55.0501 70.0629 52.411 70.0629C50.0122 70.0629 48.5744 68.6204 48.5744 66.2151C48.5744 63.0941 48.5671 59.9731 48.5781 56.8521C48.5836 55.1845 49.6803 53.8281 51.2978 53.4546C51.5179 53.4034 51.7508 53.3906 51.9782 53.3906C52.9704 53.3832 53.9607 53.3704 54.9529 53.3942C55.3435 53.4034 55.4536 53.2606 55.4407 52.8908C55.4169 52.2373 55.4297 51.582 55.4352 50.9267C55.4499 49.0431 56.9519 47.5512 58.8482 47.5403C59.8404 47.5348 60.8307 47.5348 61.8229 47.5403C63.765 47.5512 65.2689 49.0394 65.2835 50.9889C65.2982 52.8469 65.2872 54.7031 65.2872 56.561C65.2872 57.2456 65.2872 57.2383 65.9548 57.2493C66.9763 57.2676 68.0033 57.1614 69.0175 57.3024C70.8863 57.5623 72.0967 58.9041 72.1297 60.7785C72.1627 62.6969 72.1663 64.6153 72.1297 66.5337C72.0893 68.6058 70.5745 70.0501 68.4709 70.0611C65.7567 70.0739 63.0406 70.0647 60.3264 70.0647L60.3282 70.0629ZM62.2208 58.8565C62.2208 58.8565 62.2282 58.8565 62.2318 58.8565C62.2318 56.3285 62.2318 53.8006 62.2318 51.2727C62.2318 50.6723 62.0998 50.535 61.5166 50.5295C60.739 50.524 59.9596 50.524 59.182 50.5295C58.608 50.535 58.4356 50.6961 58.4356 51.2617C58.4319 56.3633 58.4356 61.465 58.4282 66.5648C58.4282 66.9053 58.5438 67.0169 58.8794 67.0114C59.8092 66.9949 60.7408 66.984 61.6706 67.0151C62.1255 67.0297 62.2337 66.8631 62.23 66.4366C62.2135 63.9087 62.2227 61.3808 62.2227 58.8528L62.2208 58.8565ZM55.4334 61.6901C55.4334 60.0774 55.426 58.4648 55.4389 56.8521C55.4425 56.5061 55.3527 56.3597 54.9767 56.3706C54.0928 56.3944 53.2088 56.3743 52.3248 56.3798C51.7838 56.3835 51.6353 56.5262 51.6353 57.0534C51.6316 60.158 51.6316 63.2607 51.6353 66.3653C51.6353 66.8979 51.7453 67.0041 52.2845 67.0078C53.1538 67.0133 54.0231 66.9913 54.8905 67.0169C55.2995 67.0297 55.4499 66.9162 55.4426 66.4824C55.4187 64.8862 55.4334 63.2882 55.4334 61.6901ZM65.2945 63.6524C65.2945 64.6244 65.3055 65.5983 65.289 66.5703C65.2835 66.9126 65.4082 67.0224 65.742 67.0151C66.6407 66.9986 67.5393 67.0151 68.4379 67.0078C68.9331 67.0041 69.0798 66.8686 69.0798 66.3927C69.0853 64.5695 69.0853 62.7445 69.0798 60.9213C69.0798 60.4417 68.9331 60.3044 68.4434 60.3008C67.5448 60.2934 66.6462 60.3136 65.7475 60.2916C65.3734 60.2825 65.2835 60.4362 65.289 60.7785C65.3055 61.7359 65.2945 62.6932 65.2945 63.6506V63.6524Z" fill="#655ADD"/>
<path d="M44.2499 46.6708C42.4343 46.6708 40.6187 46.6726 38.8049 46.6671C38.5628 46.6671 38.3153 46.6525 38.0787 46.6031C37.3341 46.4493 36.8206 45.783 36.8628 45.0544C36.9068 44.293 37.4973 43.6889 38.2749 43.6266C38.5335 43.6065 38.7939 43.6175 39.0525 43.6175C42.6837 43.6175 46.3131 43.6175 49.9443 43.6175C50.8155 43.6175 51.4133 44.0788 51.5766 44.8531C51.7361 45.6073 51.2611 46.3816 50.5129 46.5848C50.2616 46.6525 50.003 46.6708 49.7426 46.6708C47.9123 46.6671 46.082 46.6708 44.2517 46.6708H44.2499Z" fill="#655ADD"/>
<path d="M41.334 37.7708C42.2638 37.7708 43.1955 37.7653 44.1253 37.7708C45.0551 37.7782 45.741 38.4133 45.7593 39.27C45.7777 40.0608 45.1303 40.7839 44.2518 40.8003C42.2858 40.8369 40.3162 40.8406 38.3502 40.7967C37.4424 40.7765 36.8152 40.0352 36.861 39.2096C36.9068 38.3676 37.5707 37.7763 38.4969 37.7708C39.4432 37.7635 40.3877 37.7708 41.334 37.7708Z" fill="#655ADD"/>
<path d="M41.334 49.4659C42.2638 49.4659 43.1954 49.4604 44.1252 49.4659C45.055 49.4732 45.7409 50.1102 45.7593 50.9669C45.7758 51.7595 45.1284 52.4789 44.2499 52.4972C42.2986 52.5357 40.3454 52.5357 38.3941 52.4991C37.4771 52.4826 36.8389 51.7797 36.8591 50.9504C36.8793 50.0883 37.5523 49.4732 38.4968 49.4659C39.4431 49.4586 40.3876 49.4659 41.334 49.4659Z" fill="#655ADD"/>
</svg>
