<svg xmlns="http://www.w3.org/2000/svg" viewBox="0 0 1326.07 372"><title>Vector Smart Object1</title><g style="isolation:isolate"><path d="M145.34,1449a69.54,69.54,0,0,0,12.9-40.47v-232.2a69.9,69.9,0,0,0-69.91-69.9h-232.2a69.9,69.9,0,0,0-69.89,69.9v232.2a69.59,69.59,0,0,0,11.26,38.07l174.74-80.89Z" transform="translate(213.76 -1106.45)" style="fill:#5abfb5"/><path d="M145.34,1449l-173.1-83.29-174.74,80.89A69.84,69.84,0,0,0-144,1478.45H88.44A69.8,69.8,0,0,0,145.34,1449Z" transform="translate(213.76 -1106.45)"/><path d="M-26.23,1122.26v33.85a86.73,86.73,0,0,1,86.73,86.72H94.35A120.58,120.58,0,0,0-26.23,1122.26Z" transform="translate(213.76 -1106.45)"/><path d="M-.2,1245.09a27.36,27.36,0,0,1-27.36,27.35,27.36,27.36,0,0,1-27.35-27.35,27.36,27.36,0,0,1,27.35-27.35A27.36,27.36,0,0,1-.2,1245.09Z" transform="translate(213.76 -1106.45)"/><path d="M-25.92,1165.82v33.81a46,46,0,0,1,44.29,43.83H51.29C48.81,1199.67,17.14,1167-25.92,1165.82Z" transform="translate(213.76 -1106.45)"/><path d="M-27.56,1291.58a46,46,0,0,1-46-46,46,46,0,0,1,44.38-45.95v-33.81c-41.31,1.65-76.17,33.36-77.34,78.85-1.44,56.79,78.44,119.95,78.44,119.95s79.95-61.95,79.46-117.91h-33A46,46,0,0,1-27.56,1291.58Z" transform="translate(213.76 -1106.45)" style="fill:#fff"/><polygon points="188.85 300.07 183.55 300.07 184.86 275.42 187.55 275.42 188.85 300.07" style="fill:#fff"/><polygon points="191.2 372 181.19 372 183.66 325.47 188.75 325.47 191.2 372" style="fill:#fff"/><g style="opacity:0.30000000000000004;mix-blend-mode:soft-light"><path d="M88.33,1106.45h-232.2a69.9,69.9,0,0,0-69.89,69.9v145.57q92.12,6.8,186,6.84t186-6.84V1176.35A69.9,69.9,0,0,0,88.33,1106.45Z" transform="translate(213.76 -1106.45)" style="fill:#fff"/></g><path d="M294.12,1303.31v64H267.94V1207.11h45.25q31,0,45.9,11.61T374,1253.78q0,29.91-31.12,42.62l45.25,70.89h-29.8l-38.35-64Zm0-21.7h18.19q18.3,0,26.52-6.79t8.21-20.16q0-13.59-8.87-19.5t-26.73-5.92H294.12Z" transform="translate(213.76 -1106.45)"/><path d="M499.27,1306.48q0,29.7-15.23,46.35t-42.4,16.65q-17,0-30-7.67a50.59,50.59,0,0,1-20.05-22q-7-14.36-7-33.31,0-29.46,15.12-46t42.62-16.55q26.29,0,41.63,16.93T499.27,1306.48Zm-88.2,0q0,42,31,42,30.68,0,30.67-42,0-41.52-30.89-41.52-16.22,0-23.5,10.74T411.07,1306.48Z" transform="translate(213.76 -1106.45)"/><path d="M587.84,1367.29l-5.15-16.87h-.88q-8.77,11.07-17.64,15.06t-22.79,4q-17.85,0-27.88-9.64t-10-27.28q0-18.74,13.92-28.27t42.4-10.41l20.92-.65v-6.47q0-11.61-5.42-17.36t-16.82-5.76a58.24,58.24,0,0,0-17.85,2.74,136,136,0,0,0-16.44,6.47l-8.33-18.41a89.83,89.83,0,0,1,21.59-7.83,99.26,99.26,0,0,1,22.13-2.69q23.11,0,34.89,10.08t11.78,31.67v81.62Zm-38.35-17.53q14,0,22.51-7.83t8.5-22v-10.52l-15.56.66q-18.2.66-26.46,6.08t-8.27,16.6q0,8.1,4.82,12.54T549.49,1349.76Z" transform="translate(213.76 -1106.45)"/><path d="M666.22,1369.48q-22.68,0-35.39-16.43t-12.71-46.13q0-29.81,12.87-46.4t35.66-16.6q23.9,0,36.38,17.64h1.31a154.42,154.42,0,0,1-1.86-20.59v-44.16h25.86v170.48H708.18l-4.49-15.89h-1.21Q690.11,1369.48,666.22,1369.48Zm6.9-20.82q15.89,0,23.12-8.93t7.45-29v-3.62q0-22.89-7.45-32.54T672.9,1265q-13.59,0-20.93,11t-7.34,31.39q0,20.16,7.12,30.73T673.12,1348.66Z" transform="translate(213.76 -1106.45)"/><path d="M797.18,1369.48q-27.49,0-41.79-16t-14.3-46.07q0-30.57,14.95-47t43.23-16.44q19.17,0,34.51,7.13l-7.78,20.7q-16.34-6.35-27-6.35-31.45,0-31.45,41.74,0,20.38,7.84,30.62T798.39,1348a65.83,65.83,0,0,0,32.54-8.55v22.46a51,51,0,0,1-14.74,5.81A89,89,0,0,1,797.18,1369.48Z" transform="translate(213.76 -1106.45)"/><path d="M918.4,1367.29l-5.15-16.87h-.87q-8.77,11.07-17.64,15.06t-22.79,4q-17.87,0-27.88-9.64t-10-27.28q0-18.74,13.91-28.27t42.4-10.41l20.93-.65v-6.47q0-11.61-5.42-17.36T889,1263.64a58.35,58.35,0,0,0-17.86,2.74,135.82,135.82,0,0,0-16.43,6.47l-8.33-18.41a89.75,89.75,0,0,1,21.58-7.83,99.4,99.4,0,0,1,22.13-2.69q23.13,0,34.9,10.08t11.78,31.67v81.62Zm-38.34-17.53q14,0,22.51-7.83t8.49-22v-10.52l-15.56.66q-18.18.66-26.46,6.08t-8.27,16.6q0,8.1,4.82,12.54T880.06,1349.76Z" transform="translate(213.76 -1106.45)"/><path d="M1037.32,1332.78q0,17.74-12.93,27.22t-37,9.48q-24.21,0-38.89-7.34V1339.9q21.36,9.86,39.77,9.86,23.76,0,23.77-14.35a11.37,11.37,0,0,0-2.63-7.67q-2.62-3.08-8.65-6.36a150.27,150.27,0,0,0-16.77-7.45q-20.93-8.1-28.32-16.21t-7.39-21q0-15.56,12.54-24.16t34.13-8.6a96.69,96.69,0,0,1,40.43,8.66L1027,1272q-19.6-8.1-33-8.11-20.37,0-20.38,11.62,0,5.7,5.32,9.64t23.17,10.85q15,5.8,21.8,10.62a31.79,31.79,0,0,1,10.08,11.12A32.2,32.2,0,0,1,1037.32,1332.78Z" transform="translate(213.76 -1106.45)"/><path d="M1093.46,1348.66a62.64,62.64,0,0,0,18.84-3v19.39a52.14,52.14,0,0,1-11,3.12,75.86,75.86,0,0,1-14,1.26q-36.58,0-36.59-38.56v-65.3h-16.54v-11.4l17.74-9.42,8.77-25.64h15.89v27h34.51v19.5h-34.51v64.86q0,9.32,4.65,13.75T1093.46,1348.66Z" transform="translate(213.76 -1106.45)"/></g></svg>