<?xml version="1.0" encoding="UTF-8"?>
<svg xmlns="http://www.w3.org/2000/svg" xmlns:xlink="http://www.w3.org/1999/xlink" width="163pt" height="46pt" viewBox="0 0 163 46" version="1.1">
<defs>
<filter id="alpha" filterUnits="objectBoundingBox" x="0%" y="0%" width="100%" height="100%">
  <feColorMatrix type="matrix" in="SourceGraphic" values="0 0 0 0 1 0 0 0 0 1 0 0 0 0 1 0 0 0 1 0"/>
</filter>
<mask id="mask0">
  <g filter="url(#alpha)">
<rect x="0" y="0" width="163" height="46" style="fill:rgb(0%,0%,0%);fill-opacity:0.301961;stroke:none;"/>
  </g>
</mask>
<clipPath id="clip1">
  <rect x="0" y="0" width="163" height="46"/>
</clipPath>
<g id="surface5" clip-path="url(#clip1)">
<path style=" stroke:none;fill-rule:nonzero;fill:rgb(100%,100%,100%);fill-opacity:1;" d="M 37.132812 0 L 8.589844 0 C 3.847656 0 0 3.871094 0 8.644531 L 0 26.644531 C 7.550781 27.203125 15.167969 27.488281 22.863281 27.488281 C 30.554688 27.492188 38.175781 27.210938 45.726562 26.644531 L 45.726562 8.644531 C 45.726562 3.871094 41.878906 0 37.132812 0 Z M 37.132812 0 "/>
</g>
</defs>
<g id="surface1">
<path style=" stroke:none;fill-rule:nonzero;fill:rgb(35.294118%,74.901961%,70.980392%);fill-opacity:1;" d="M 44.140625 42.355469 C 45.175781 40.894531 45.730469 39.148438 45.726562 37.351562 L 45.726562 8.640625 C 45.726562 3.867188 41.878906 0 37.132812 0 L 8.589844 0 C 3.847656 0 0 3.867188 0 8.640625 L 0 37.351562 C -0.00390625 39.023438 0.476562 40.660156 1.382812 42.0625 L 22.863281 32.058594 Z M 44.140625 42.355469 "/>
<path style=" stroke:none;fill-rule:nonzero;fill:rgb(0%,0%,0%);fill-opacity:1;" d="M 44.140625 42.355469 L 22.863281 32.058594 L 1.382812 42.0625 C 2.964844 44.511719 5.671875 45.996094 8.574219 46 L 37.144531 46 C 39.925781 45.996094 42.535156 44.640625 44.140625 42.355469 Z M 44.140625 42.355469 "/>
<path style=" stroke:none;fill-rule:nonzero;fill:rgb(0%,0%,0%);fill-opacity:1;" d="M 23.050781 1.957031 L 23.050781 6.140625 C 28.9375 6.140625 33.710938 10.941406 33.710938 16.863281 L 37.871094 16.863281 C 37.871094 8.628906 31.238281 1.957031 23.050781 1.957031 Z M 23.050781 1.957031 "/>
<path style=" stroke:none;fill-rule:nonzero;fill:rgb(0%,0%,0%);fill-opacity:1;" d="M 26.25 17.144531 C 26.25 19.011719 24.746094 20.527344 22.886719 20.527344 C 21.03125 20.523438 19.527344 19.011719 19.527344 17.144531 C 19.527344 15.277344 21.03125 13.761719 22.886719 13.761719 C 24.746094 13.761719 26.25 15.277344 26.25 17.144531 Z M 26.25 17.144531 "/>
<path style=" stroke:none;fill-rule:nonzero;fill:rgb(0%,0%,0%);fill-opacity:1;" d="M 23.089844 7.34375 L 23.089844 11.523438 C 26.027344 11.628906 28.394531 13.984375 28.535156 16.941406 L 32.578125 16.941406 C 32.273438 11.527344 28.382812 7.488281 23.089844 7.34375 Z M 23.089844 7.34375 "/>
<path style=" stroke:none;fill-rule:nonzero;fill:rgb(100%,100%,100%);fill-opacity:1;" d="M 22.886719 22.890625 C 19.765625 22.890625 17.234375 20.347656 17.234375 17.203125 C 17.234375 14.140625 19.644531 11.628906 22.6875 11.523438 L 22.6875 7.34375 C 17.609375 7.546875 13.324219 11.46875 13.183594 17.09375 C 13.003906 24.113281 22.824219 31.921875 22.824219 31.921875 C 22.824219 31.921875 32.652344 24.265625 32.589844 17.34375 L 28.535156 17.34375 C 28.460938 20.429688 25.953125 22.890625 22.886719 22.890625 Z M 22.886719 22.890625 "/>
<path style=" stroke:none;fill-rule:nonzero;fill:rgb(100%,100%,100%);fill-opacity:1;" d="M 23.214844 37.105469 L 22.5625 37.105469 L 22.722656 34.058594 L 23.054688 34.058594 Z M 23.214844 37.105469 "/>
<path style=" stroke:none;fill-rule:nonzero;fill:rgb(100%,100%,100%);fill-opacity:1;" d="M 23.503906 46 L 22.273438 46 L 22.574219 40.246094 L 23.199219 40.246094 Z M 23.503906 46 "/>
<use xlink:href="#surface5" mask="url(#mask0)"/>
<path style=" stroke:none;fill-rule:nonzero;fill:rgb(0%,0%,0%);fill-opacity:1;" d="M 62.429688 24.34375 L 62.429688 32.257812 L 59.210938 32.257812 L 59.210938 12.449219 L 64.773438 12.449219 C 67.3125 12.449219 69.195312 12.925781 70.414062 13.882812 C 71.636719 14.839844 72.246094 16.285156 72.246094 18.21875 C 72.246094 20.683594 70.972656 22.441406 68.421875 23.488281 L 73.984375 32.253906 L 70.320312 32.253906 L 65.605469 24.339844 Z M 62.429688 21.660156 L 64.664062 21.660156 C 66.164062 21.660156 67.25 21.378906 67.925781 20.820312 C 68.597656 20.261719 68.933594 19.429688 68.933594 18.328125 C 68.933594 17.207031 68.570312 16.402344 67.84375 15.917969 C 67.117188 15.429688 66.019531 15.183594 64.558594 15.183594 L 62.429688 15.183594 Z M 62.429688 21.660156 "/>
<path style=" stroke:none;fill-rule:nonzero;fill:rgb(0%,0%,0%);fill-opacity:1;" d="M 87.644531 24.734375 C 87.644531 27.183594 87.019531 29.09375 85.773438 30.464844 C 84.523438 31.839844 82.789062 32.523438 80.5625 32.523438 C 79.167969 32.523438 77.9375 32.207031 76.875 31.578125 C 75.800781 30.9375 74.941406 29.992188 74.410156 28.855469 C 73.835938 27.671875 73.550781 26.300781 73.550781 24.738281 C 73.550781 22.308594 74.167969 20.414062 75.40625 19.050781 C 76.648438 17.6875 78.394531 17.003906 80.644531 17.003906 C 82.800781 17.003906 84.507812 17.699219 85.761719 19.097656 C 87.019531 20.492188 87.648438 22.371094 87.644531 24.734375 Z M 76.804688 24.734375 C 76.804688 28.195312 78.074219 29.929688 80.613281 29.929688 C 83.128906 29.929688 84.386719 28.195312 84.382812 24.734375 C 84.382812 21.3125 83.117188 19.601562 80.585938 19.601562 C 79.257812 19.601562 78.296875 20.042969 77.699219 20.929688 C 77.101562 21.8125 76.804688 23.082031 76.804688 24.734375 Z M 76.804688 24.734375 "/>
<path style=" stroke:none;fill-rule:nonzero;fill:rgb(0%,0%,0%);fill-opacity:1;" d="M 98.53125 32.253906 L 97.898438 30.167969 L 97.792969 30.167969 C 97.074219 31.082031 96.351562 31.703125 95.621094 32.03125 C 94.894531 32.359375 93.960938 32.523438 92.820312 32.523438 C 91.359375 32.523438 90.214844 32.128906 89.394531 31.332031 C 88.574219 30.539062 88.164062 29.414062 88.164062 27.960938 C 88.164062 26.414062 88.734375 25.25 89.875 24.464844 C 91.015625 23.679688 92.753906 23.25 95.089844 23.175781 L 97.660156 23.097656 L 97.660156 22.296875 C 97.660156 21.339844 97.4375 20.625 96.992188 20.148438 C 96.550781 19.675781 95.859375 19.4375 94.925781 19.4375 C 94.179688 19.433594 93.441406 19.550781 92.730469 19.777344 C 92.042969 20 91.367188 20.265625 90.710938 20.578125 L 89.6875 18.300781 C 90.527344 17.863281 91.417969 17.539062 92.339844 17.332031 C 93.230469 17.117188 94.144531 17.007812 95.0625 17 C 96.953125 17 98.382812 17.414062 99.351562 18.246094 C 100.316406 19.078125 100.796875 20.382812 100.796875 22.160156 L 100.796875 32.253906 Z M 93.820312 30.085938 C 94.964844 30.085938 95.886719 29.761719 96.585938 29.117188 C 97.28125 28.472656 97.632812 27.566406 97.628906 26.398438 L 97.628906 25.097656 L 95.71875 25.179688 C 94.226562 25.234375 93.140625 25.484375 92.464844 25.929688 C 91.789062 26.378906 91.449219 27.0625 91.449219 27.984375 C 91.449219 28.652344 91.644531 29.167969 92.039062 29.535156 C 92.4375 29.898438 93.027344 30.082031 93.820312 30.085938 Z M 93.820312 30.085938 "/>
<path style=" stroke:none;fill-rule:nonzero;fill:rgb(0%,0%,0%);fill-opacity:1;" d="M 108.167969 32.523438 C 106.308594 32.523438 104.859375 31.847656 103.816406 30.492188 C 102.773438 29.140625 102.253906 27.238281 102.253906 24.789062 C 102.253906 22.332031 102.78125 20.417969 103.835938 19.050781 C 104.890625 17.683594 106.351562 17 108.21875 17 C 110.179688 17 111.667969 17.726562 112.691406 19.179688 L 112.851562 19.179688 C 112.71875 18.339844 112.644531 17.488281 112.625 16.632812 L 112.625 11.175781 L 115.800781 11.175781 L 115.800781 32.253906 L 113.324219 32.253906 L 112.773438 30.289062 L 112.625 30.289062 C 111.609375 31.78125 110.125 32.523438 108.167969 32.523438 Z M 109.015625 29.949219 C 110.316406 29.949219 111.265625 29.582031 111.855469 28.847656 C 112.449219 28.109375 112.753906 26.914062 112.773438 25.261719 L 112.773438 24.8125 C 112.773438 22.925781 112.46875 21.585938 111.855469 20.789062 C 111.246094 19.992188 110.289062 19.597656 108.988281 19.605469 C 107.875 19.605469 107.015625 20.058594 106.414062 20.964844 C 105.8125 21.871094 105.511719 23.167969 105.511719 24.847656 C 105.511719 26.507812 105.804688 27.777344 106.386719 28.648438 C 106.972656 29.519531 107.847656 29.953125 109.015625 29.949219 Z M 109.015625 29.949219 "/>
<path style=" stroke:none;fill-rule:nonzero;fill:rgb(0%,0%,0%);fill-opacity:1;" d="M 124.265625 32.523438 C 122.011719 32.523438 120.300781 31.867188 119.128906 30.546875 C 117.957031 29.226562 117.371094 27.328125 117.371094 24.851562 C 117.371094 22.328125 117.980469 20.394531 119.207031 19.039062 C 120.433594 17.683594 122.203125 17.007812 124.519531 17.003906 C 126.09375 17.003906 127.507812 17.300781 128.761719 17.886719 L 127.808594 20.445312 C 126.46875 19.921875 125.363281 19.660156 124.488281 19.660156 C 121.910156 19.660156 120.621094 21.382812 120.621094 24.824219 C 120.621094 26.503906 120.945312 27.765625 121.585938 28.609375 C 122.226562 29.453125 123.171875 29.871094 124.414062 29.867188 C 125.816406 29.871094 127.191406 29.507812 128.414062 28.8125 L 128.414062 31.589844 C 127.851562 31.921875 127.238281 32.164062 126.601562 32.308594 C 125.832031 32.464844 125.046875 32.535156 124.265625 32.523438 Z M 124.265625 32.523438 "/>
<path style=" stroke:none;fill-rule:nonzero;fill:rgb(0%,0%,0%);fill-opacity:1;" d="M 139.164062 32.253906 L 138.53125 30.167969 L 138.425781 30.167969 C 137.707031 31.082031 136.984375 31.703125 136.257812 32.03125 C 135.53125 32.359375 134.597656 32.523438 133.453125 32.523438 C 131.992188 32.523438 130.847656 32.128906 130.027344 31.332031 C 129.207031 30.539062 128.796875 29.414062 128.800781 27.960938 C 128.800781 26.414062 129.367188 25.25 130.507812 24.464844 C 131.648438 23.679688 133.386719 23.25 135.71875 23.175781 L 138.292969 23.097656 L 138.292969 22.296875 C 138.292969 21.339844 138.070312 20.625 137.625 20.148438 C 137.183594 19.675781 136.492188 19.4375 135.550781 19.4375 C 134.804688 19.433594 134.066406 19.550781 133.355469 19.777344 C 132.664062 20 131.992188 20.265625 131.335938 20.578125 L 130.3125 18.300781 C 131.152344 17.863281 132.042969 17.539062 132.964844 17.332031 C 133.855469 17.117188 134.769531 17.007812 135.683594 17 C 137.582031 17 139.011719 17.414062 139.976562 18.246094 C 140.9375 19.078125 141.421875 20.382812 141.421875 22.160156 L 141.421875 32.253906 Z M 134.453125 30.085938 C 135.597656 30.085938 136.519531 29.761719 137.21875 29.117188 C 137.917969 28.472656 138.265625 27.566406 138.261719 26.398438 L 138.261719 25.097656 L 136.351562 25.179688 C 134.859375 25.234375 133.777344 25.484375 133.097656 25.929688 C 132.417969 26.378906 132.078125 27.0625 132.082031 27.984375 C 132.082031 28.652344 132.277344 29.167969 132.671875 29.535156 C 133.066406 29.898438 133.660156 30.082031 134.453125 30.085938 Z M 134.453125 30.085938 "/>
<path style=" stroke:none;fill-rule:nonzero;fill:rgb(0%,0%,0%);fill-opacity:1;" d="M 153.78125 27.988281 C 153.78125 29.449219 153.253906 30.570312 152.191406 31.351562 C 151.132812 32.132812 149.617188 32.523438 147.644531 32.523438 C 145.660156 32.523438 144.066406 32.222656 142.863281 31.617188 L 142.863281 28.867188 C 144.613281 29.679688 146.246094 30.085938 147.753906 30.085938 C 149.699219 30.085938 150.675781 29.496094 150.675781 28.3125 C 150.6875 27.964844 150.570312 27.628906 150.351562 27.363281 C 150.136719 27.109375 149.78125 26.847656 149.289062 26.578125 C 148.621094 26.226562 147.933594 25.921875 147.226562 25.65625 C 145.511719 24.988281 144.351562 24.320312 143.746094 23.652344 C 143.140625 22.984375 142.835938 22.117188 142.835938 21.054688 C 142.835938 19.773438 143.351562 18.777344 144.378906 18.066406 C 145.40625 17.359375 146.804688 17.003906 148.574219 17.003906 C 150.289062 16.996094 151.984375 17.363281 153.542969 18.074219 L 152.515625 20.472656 C 150.90625 19.804688 149.554688 19.46875 148.457031 19.46875 C 146.789062 19.46875 145.953125 19.949219 145.953125 20.90625 C 145.953125 21.375 146.171875 21.773438 146.605469 22.097656 C 147.042969 22.421875 147.992188 22.871094 149.453125 23.4375 C 150.683594 23.917969 151.578125 24.355469 152.132812 24.753906 C 152.648438 25.105469 153.074219 25.574219 153.371094 26.128906 C 153.65625 26.703125 153.796875 27.34375 153.78125 27.988281 Z M 153.78125 27.988281 "/>
<path style=" stroke:none;fill-rule:nonzero;fill:rgb(0%,0%,0%);fill-opacity:1;" d="M 160.683594 29.949219 C 161.46875 29.945312 162.25 29.820312 163 29.578125 L 163 31.976562 C 162.5625 32.15625 162.109375 32.285156 161.648438 32.363281 C 161.078125 32.46875 160.503906 32.519531 159.925781 32.519531 C 156.929688 32.519531 155.429688 30.929688 155.429688 27.75 L 155.429688 19.675781 L 153.394531 19.675781 L 153.394531 18.265625 L 155.574219 17.101562 L 156.652344 13.929688 L 158.605469 13.929688 L 158.605469 17.269531 L 162.847656 17.269531 L 162.847656 19.679688 L 158.605469 19.679688 L 158.605469 27.699219 C 158.605469 28.46875 158.796875 29.035156 159.179688 29.402344 C 159.558594 29.765625 160.0625 29.949219 160.683594 29.949219 Z M 160.683594 29.949219 "/>
</g>
</svg>
