<svg xmlns="http://www.w3.org/2000/svg" width="38.74" height="35.17" viewBox="0 0 38.74 35.17">
  <title>Asset 2</title>
  <g>
    <path d="M3.52,34.79A3.12,3.12,0,0,1,.69,33.15a3,3,0,0,1,.06-2.8L16.81,1.84a3,3,0,0,1,5.11,0L38,30.36a2.83,2.83,0,0,1,0,2.84,3.19,3.19,0,0,1-2.69,1.59ZM2.16,32.62H36.57a.11.11,0,0,0,.1-.17L19.47,1.91a.12.12,0,0,0-.21,0L2.06,32.45A.11.11,0,0,0,2.16,32.62Z" style="fill: #fcfcfc;stroke: #fcfcfc;stroke-miterlimit: 10;stroke-width: 0.75px"/>
    <path d="M19.37,24.58a1,1,0,0,1-1-.83l-1.15-7.66a2.4,2.4,0,0,1,.6-1.77,2,2,0,0,1,1.54-.66,2.22,2.22,0,0,1,1.67.75,2.07,2.07,0,0,1,.47,1.68l-1.16,7.68A1.11,1.11,0,0,1,19.37,24.58Z" style="fill: #d62b2b;stroke: #fcfcfc;stroke-miterlimit: 10;stroke-width: 0.75px"/>
    <path d="M19.36,29.11a1.35,1.35,0,1,1,1.35-1.35A1.34,1.34,0,0,1,19.36,29.11Z" style="fill: #fcfcfc;stroke: #fcfcfc;stroke-miterlimit: 10;stroke-width: 0.75px"/>
  </g>
</svg>
