<svg width="81" height="80" viewBox="0 0 81 80" fill="none" xmlns="http://www.w3.org/2000/svg">
<path d="M7.29183 9.99996V6.66663C6.40777 6.66663 5.55993 7.01782 4.93481 7.64294C4.30969 8.26806 3.9585 9.1159 3.9585 9.99996H7.29183ZM43.9585 9.99996H47.2918C47.2918 9.1159 46.9406 8.26806 46.3155 7.64294C45.6904 7.01782 44.8426 6.66663 43.9585 6.66663V9.99996ZM43.9585 30V26.6666C43.0744 26.6666 42.2266 27.0178 41.6015 27.6429C40.9764 28.2681 40.6252 29.1159 40.6252 30H43.9585ZM7.29183 13.3333H43.9585V6.66663H7.29183V13.3333ZM40.6252 9.99996V63.3333H47.2918V9.99996H40.6252ZM10.6252 56.6666V9.99996H3.9585V56.6666H10.6252ZM43.9585 33.3333H60.6252V26.6666H43.9585V33.3333ZM70.6252 43.3333V56.6666H77.2918V43.3333H70.6252ZM47.2918 63.3333V30H40.6252V63.3333H47.2918ZM62.9818 65.69C62.3567 66.3149 61.509 66.6659 60.6252 66.6659C59.7413 66.6659 58.8936 66.3149 58.2685 65.69L53.5552 70.4033C55.4304 72.278 57.9735 73.3312 60.6252 73.3312C63.2768 73.3312 65.8199 72.278 67.6952 70.4033L62.9818 65.69ZM58.2685 60.9766C58.8936 60.3517 59.7413 60.0007 60.6252 60.0007C61.509 60.0007 62.3567 60.3517 62.9818 60.9766L67.6952 56.2633C65.8199 54.3886 63.2768 53.3354 60.6252 53.3354C57.9735 53.3354 55.4304 54.3886 53.5552 56.2633L58.2685 60.9766ZM22.9818 65.69C22.3567 66.3149 21.509 66.6659 20.6252 66.6659C19.7413 66.6659 18.8936 66.3149 18.2685 65.69L13.5552 70.4033C15.4304 72.278 17.9735 73.3312 20.6252 73.3312C23.2768 73.3312 25.8199 72.278 27.6952 70.4033L22.9818 65.69ZM18.2685 60.9766C18.8936 60.3517 19.7413 60.0007 20.6252 60.0007C21.509 60.0007 22.3567 60.3517 22.9818 60.9766L27.6952 56.2633C25.8199 54.3886 23.2768 53.3354 20.6252 53.3354C17.9735 53.3354 15.4304 54.3886 13.5552 56.2633L18.2685 60.9766ZM62.9818 60.9766C63.6352 61.6266 63.9585 62.4766 63.9585 63.3333H70.6252C70.6252 60.78 69.6485 58.2133 67.6952 56.2633L62.9818 60.9766ZM63.9585 63.3333C63.9583 64.2173 63.607 65.065 62.9818 65.69L67.6952 70.4033C69.5707 68.5284 70.6246 65.9852 70.6252 63.3333H63.9585ZM53.9585 60H43.9585V66.6666H53.9585V60ZM58.2685 65.69C57.6433 65.065 57.292 64.2173 57.2918 63.3333H50.6252C50.6252 65.8866 51.6018 68.4533 53.5552 70.4033L58.2685 65.69ZM57.2918 63.3333C57.292 62.4493 57.6433 61.6016 58.2685 60.9766L53.5552 56.2633C51.6797 58.1382 50.6257 60.6813 50.6252 63.3333H57.2918ZM18.2685 65.69C17.6433 65.065 17.292 64.2173 17.2918 63.3333H10.6252C10.6252 65.8866 11.6018 68.4533 13.5552 70.4033L18.2685 65.69ZM17.2918 63.3333C17.292 62.4493 17.6433 61.6016 18.2685 60.9766L13.5552 56.2633C11.6797 58.1382 10.6257 60.6813 10.6252 63.3333H17.2918ZM43.9585 60H27.2918V66.6666H43.9585V60ZM22.9818 60.9766C23.6352 61.6266 23.9585 62.4766 23.9585 63.3333H30.6252C30.6252 60.78 29.6485 58.2133 27.6952 56.2633L22.9818 60.9766ZM23.9585 63.3333C23.9583 64.2173 23.607 65.065 22.9818 65.69L27.6952 70.4033C29.5707 68.5284 30.6246 65.9852 30.6252 63.3333H23.9585ZM70.6252 56.6666C70.6252 57.5507 70.274 58.3985 69.6489 59.0237C69.0237 59.6488 68.1759 60 67.2918 60V66.6666C69.944 66.6666 72.4875 65.6131 74.3629 63.7377C76.2383 61.8623 77.2918 59.3188 77.2918 56.6666H70.6252ZM60.6252 33.3333C63.2773 33.3333 65.8209 34.3869 67.6962 36.2622C69.5716 38.1376 70.6252 40.6811 70.6252 43.3333H77.2918C77.2918 41.1446 76.8607 38.9773 76.0232 36.9552C75.1856 34.9331 73.9579 33.0958 72.4103 31.5482C70.8626 30.0005 69.0253 28.7729 67.0032 27.9353C64.9811 27.0977 62.8139 26.6666 60.6252 26.6666V33.3333ZM3.9585 56.6666C3.9585 59.3188 5.01206 61.8623 6.88743 63.7377C8.76279 65.6131 11.3063 66.6666 13.9585 66.6666V60C13.0744 60 12.2266 59.6488 11.6015 59.0237C10.9764 58.3985 10.6252 57.5507 10.6252 56.6666H3.9585Z" fill="#2DB5A4"/>
</svg>
