<svg width="81" height="80" viewBox="0 0 81 80" fill="none" xmlns="http://www.w3.org/2000/svg">
<path d="M66.0252 24.1L66.0585 24.0667L55.4252 13.4333C54.4495 12.4576 52.8675 12.4576 51.8918 13.4333V13.4333C50.9161 14.409 50.9161 15.991 51.8918 16.9667L57.1585 22.2333C54.0252 23.4333 51.7918 26.4333 51.7918 30C51.7918 31.0943 52.0074 32.178 52.4262 33.189C52.845 34.2001 53.4588 35.1187 54.2326 35.8926C55.7954 37.4554 57.915 38.3333 60.1252 38.3333C61.3252 38.3333 62.4252 38.0667 63.4585 37.6333V61.6667C63.4585 62.5507 63.1073 63.3986 62.4822 64.0237C61.8571 64.6488 61.0092 65 60.1252 65C59.2411 65 58.3933 64.6488 57.7681 64.0237C57.143 63.3986 56.7918 62.5507 56.7918 61.6667V46.6667C56.7918 44.8986 56.0894 43.2029 54.8392 41.9526C53.589 40.7024 51.8933 40 50.1252 40H46.7918V16.6667C46.7918 14.8986 46.0894 13.2029 44.8392 11.9526C43.589 10.7024 41.8933 10 40.1252 10H20.1252C18.3571 10 16.6614 10.7024 15.4111 11.9526C14.1609 13.2029 13.4585 14.8986 13.4585 16.6667V62C13.4585 66.4183 17.0402 70 21.4585 70H38.7918C43.2101 70 46.7918 66.4183 46.7918 62V45H51.7918V61.6667C51.7918 63.8768 52.6698 65.9964 54.2326 67.5592C55.7954 69.122 57.915 70 60.1252 70C61.2195 70 62.3031 69.7844 63.3142 69.3657C64.3252 68.9469 65.2439 68.333 66.0177 67.5592C66.7915 66.7854 67.4054 65.8667 67.8242 64.8557C68.2429 63.8446 68.4585 62.761 68.4585 61.6667V30C68.4585 27.7 67.5252 25.6 66.0252 24.1ZM40.1252 45V63.3333H20.1252V40H40.1252V45ZM40.1252 33.3333H20.1252V16.6667H40.1252V33.3333ZM60.1252 33.3333C59.2411 33.3333 58.3933 32.9821 57.7681 32.357C57.143 31.7319 56.7918 30.8841 56.7918 30C56.7918 29.1159 57.143 28.2681 57.7681 27.643C58.3933 27.0179 59.2411 26.6667 60.1252 26.6667C61.0092 26.6667 61.8571 27.0179 62.4822 27.643C63.1073 28.2681 63.4585 29.1159 63.4585 30C63.4585 30.8841 63.1073 31.7319 62.4822 32.357C61.8571 32.9821 61.0092 33.3333 60.1252 33.3333Z" fill="#2DB5A4"/>
</svg>
