<svg width="81" height="80" viewBox="0 0 81 80" fill="none" xmlns="http://www.w3.org/2000/svg">
<path d="M37.5415 53.3333C37.5415 51.4923 39.0339 50 40.8748 50V50C42.7158 50 44.2082 51.4923 44.2082 53.3333V53.3333C44.2082 55.1742 42.7158 56.6666 40.8748 56.6666V56.6666C39.0339 56.6666 37.5415 55.1742 37.5415 53.3333V53.3333ZM37.5415 26.6666C37.5415 24.8257 39.0339 23.3333 40.8748 23.3333V23.3333C42.7158 23.3333 44.2082 24.8257 44.2082 26.6666V40C44.2082 41.8409 42.7158 43.3333 40.8748 43.3333V43.3333C39.0339 43.3333 37.5415 41.8409 37.5415 40V26.6666ZM40.8748 6.66663C22.4415 6.66663 7.5415 21.6666 7.5415 40C7.5415 48.8405 11.0534 57.319 17.3046 63.5702C20.3999 66.6655 24.0745 69.1208 28.1187 70.7959C32.1629 72.4711 36.4974 73.3333 40.8748 73.3333C49.7154 73.3333 58.1938 69.8214 64.4451 63.5702C70.6963 57.319 74.2082 48.8405 74.2082 40C74.2082 35.6226 73.346 31.288 71.6708 27.2438C69.9957 23.1997 67.5403 19.525 64.4451 16.4297C61.3498 13.3344 57.6751 10.8791 53.631 9.20397C49.5868 7.52882 45.2522 6.66663 40.8748 6.66663ZM40.8748 66.6666C33.8024 66.6666 27.0196 63.8571 22.0187 58.8561C17.0177 53.8552 14.2082 47.0724 14.2082 40C14.2082 32.9275 17.0177 26.1447 22.0187 21.1438C27.0196 16.1428 33.8024 13.3333 40.8748 13.3333C47.9473 13.3333 54.73 16.1428 59.731 21.1438C64.732 26.1447 67.5415 32.9275 67.5415 40C67.5415 47.0724 64.732 53.8552 59.731 58.8561C54.73 63.8571 47.9473 66.6666 40.8748 66.6666Z" fill="#2DB5A4"/>
</svg>
