<svg width="81" height="80" viewBox="0 0 81 80" fill="none" xmlns="http://www.w3.org/2000/svg">
<path fill-rule="evenodd" clip-rule="evenodd" d="M40.625 43.3333C48.6117 43.3333 55.875 45.6466 61.2183 48.9066C63.885 50.5333 66.165 52.4533 67.8117 54.54C69.4317 56.59 70.625 59.0433 70.625 61.6666C70.625 64.4833 69.255 66.7033 67.2817 68.2866C65.415 69.7866 62.9517 70.78 60.335 71.4733C55.075 72.8633 48.055 73.3333 40.625 73.3333C33.195 73.3333 26.175 72.8666 20.915 71.4733C18.2983 70.78 15.835 69.7866 13.9683 68.2866C11.9917 66.7 10.625 64.4833 10.625 61.6666C10.625 59.0433 11.8183 56.59 13.4383 54.5366C15.085 52.4533 17.3617 50.5366 20.0317 48.9033C25.375 45.65 32.6417 43.3333 40.625 43.3333ZM40.625 50C33.8817 50 27.815 51.9666 23.505 54.5966C21.3483 55.91 19.7217 57.3366 18.6717 58.67C17.5917 60.0366 17.2917 61.07 17.2917 61.6666C17.2917 62.0733 17.415 62.5033 18.1417 63.0866C18.9717 63.7533 20.415 64.4433 22.6217 65.0266C27.015 66.1933 33.3283 66.6666 40.625 66.6666C47.925 66.6666 54.235 66.19 58.625 65.0266C60.835 64.4433 62.2783 63.7533 63.1083 63.0866C63.835 62.5033 63.9583 62.0733 63.9583 61.6666C63.9583 61.0666 63.6583 60.0366 62.5817 58.67C61.5283 57.3366 59.9017 55.91 57.745 54.5966C53.435 51.9633 47.3683 50 40.625 50ZM40.625 6.66663C45.0453 6.66663 49.2845 8.42257 52.4101 11.5482C55.5357 14.6738 57.2917 18.913 57.2917 23.3333C57.2917 27.7536 55.5357 31.9928 52.4101 35.1184C49.2845 38.244 45.0453 40 40.625 40C36.2047 40 31.9655 38.244 28.8399 35.1184C25.7143 31.9928 23.9583 27.7536 23.9583 23.3333C23.9583 18.913 25.7143 14.6738 28.8399 11.5482C31.9655 8.42257 36.2047 6.66663 40.625 6.66663ZM40.625 13.3333C39.3118 13.3333 38.0114 13.592 36.7982 14.0945C35.5849 14.597 34.4825 15.3336 33.5539 16.2622C32.6253 17.1908 31.8888 18.2932 31.3862 19.5065C30.8837 20.7197 30.625 22.0201 30.625 23.3333C30.625 24.6465 30.8837 25.9469 31.3862 27.1601C31.8888 28.3734 32.6253 29.4758 33.5539 30.4044C34.4825 31.3329 35.5849 32.0695 36.7982 32.5721C38.0114 33.0746 39.3118 33.3333 40.625 33.3333C43.2772 33.3333 45.8207 32.2797 47.6961 30.4044C49.5714 28.529 50.625 25.9855 50.625 23.3333C50.625 20.6811 49.5714 18.1376 47.6961 16.2622C45.8207 14.3869 43.2772 13.3333 40.625 13.3333Z" fill="#2DB5A4"/>
</svg>
