<svg width="81" height="80" viewBox="0 0 81 80" fill="none" xmlns="http://www.w3.org/2000/svg">
<path fill-rule="evenodd" clip-rule="evenodd" d="M15.4952 13.173C19.4822 11.1072 34.7045 3.91663 40.3682 3.91663C46.0317 3.91663 50.6326 5.83066 54.6222 7.89618C55.8395 8.52643 56.9644 9.14661 58.0355 9.73707C60.6343 11.1698 62.9159 12.4277 65.4301 13.2299L65.5313 13.2621C67.012 13.7341 68.2509 14.129 69.1924 14.4975C70.0761 14.8435 71.1723 15.3334 71.9585 16.2064C72.6618 16.9875 73.0194 17.8613 73.2528 18.678C73.464 19.417 73.6246 20.309 73.7933 21.2456L73.8112 21.345C77.9562 44.3201 68.9063 66.1374 46.7349 74.6248L46.6133 74.6714C44.4532 75.4988 42.9272 76.0833 40.3782 76.0833C37.822 76.0833 36.2995 75.4993 34.1269 74.666L34.0282 74.6281L34.027 74.6277C11.8545 66.1371 2.79357 44.3215 6.93849 21.3456M15.4952 13.173C14.2786 13.8033 23.7783 9.14714 22.7081 9.7376L15.4952 13.173ZM22.7081 9.7376C20.1112 11.1704 19.375 11.1628 15.4952 13.173L22.7081 9.7376ZM16.9926 18.4693C20.0561 17.4913 23.0497 15.8393 25.8218 14.3096C26.7936 13.7733 27.7383 13.252 28.6492 12.78C32.3405 10.8674 36.0053 9.41663 40.3682 9.41663C44.7314 9.41663 48.3989 10.8676 52.0935 12.7804C53.0053 13.2525 53.9509 13.7739 54.9238 14.3103C57.6984 15.8402 60.6943 17.4921 63.7591 18.4699C65.3603 18.9803 66.4303 19.3227 67.1874 19.6191C67.5728 19.7699 67.7807 19.8746 67.8778 19.9271C67.8993 19.9809 67.9289 20.0647 67.9645 20.1894C68.09 20.6283 68.2038 21.2407 68.3985 22.321C72.1868 43.3192 63.9235 62.1557 44.7684 69.4884C42.5535 70.3364 41.8617 70.5833 40.3782 70.5833C38.8934 70.5833 38.2032 70.3386 35.9962 69.4923L35.9949 69.4918C16.8351 62.1554 8.56314 43.3183 12.3512 22.3215C12.5463 21.2388 12.6593 20.6265 12.7844 20.1869C12.8189 20.0659 12.8476 19.9838 12.8685 19.9308C12.9659 19.8782 13.1744 19.7733 13.5609 19.6219C14.3197 19.3248 15.3898 18.9819 16.9911 18.4698M15.4952 13.173L15.3172 13.2307L15.4952 13.173ZM15.3172 13.2307C15.2696 13.2459 15.4878 13.1943 15.4407 13.2094L15.3172 13.2307ZM15.4407 13.2094C13.9789 13.6768 12.4881 14.1354 11.5555 14.5005L15.4407 13.2094ZM11.5555 14.5005C10.6737 14.8458 9.66153 15.6279 8.875 16.5L11.5555 14.5005ZM8.875 16.5C8.16795 17.2825 12.5831 13.4167 12.3512 14.2314C12.3512 14.2314 15.5739 13.1323 15.4407 13.2094C15.4407 13.3168 9.375 19 6.93849 21.3456" fill="#2DB5A4"/>
<path fill-rule="evenodd" clip-rule="evenodd" d="M43.3462 28.1051C42.4841 25.6419 38.8513 25.2777 37.5527 27.864C37.5396 27.8902 37.526 27.9162 37.512 27.942C37.438 28.0783 37.3707 28.2784 37.3387 28.6745C37.3121 29.0046 37.3155 29.3013 37.3203 29.7203C37.3226 29.9144 37.3251 30.1346 37.3251 30.3967V30.4093L37.3251 30.4093C37.3227 30.9395 37.3176 31.4302 37.3121 31.85H43.493C43.4897 31.413 43.4883 30.9058 43.4919 30.378L43.4919 30.373C43.4968 29.8039 43.493 29.2944 43.4614 28.8552C43.4459 28.6395 43.4254 28.4672 43.4024 28.3342C43.3794 28.2008 43.3603 28.1447 43.3602 28.1442C43.3602 28.1442 43.3602 28.1442 43.3602 28.1443C43.3555 28.1313 43.3508 28.1182 43.3462 28.1051ZM48.9984 32.3609C48.9982 32.3464 48.998 32.3318 48.9978 32.3171C48.9917 31.8132 48.9869 31.1323 48.9917 30.4173M48.5311 26.2703C46.0274 19.1631 36.1049 18.5634 32.656 25.3594C31.7532 27.0541 31.7951 28.9339 31.8189 30.0006C31.8221 30.1468 31.825 30.2777 31.8251 30.3908C31.8218 31.0983 31.8137 31.7354 31.8063 32.2224C31.8057 32.261 31.8051 32.299 31.8045 32.3364C28.6 33.4363 26.8544 36.1712 26.3639 38.133C26.1981 38.7962 26.113 39.678 26.0601 40.4901C26.0034 41.3611 25.9723 42.3639 25.9619 43.3718C25.9415 45.3629 26.0008 47.5277 26.1354 48.8736C26.1501 49.0205 26.1766 49.1659 26.2146 49.3086C27.3263 53.4774 30.2735 55.3613 33.0819 55.9345C33.1831 55.9551 33.2854 55.97 33.3883 55.9792C35.0241 56.1246 40.7394 56.1046 43.7835 56.0939C44.376 56.0918 44.8672 56.0901 45.2076 56.09C47.1291 56.1225 49.1322 55.7857 50.8716 54.6377C52.6656 53.4537 53.8445 51.6293 54.4815 49.336C54.5074 49.2425 54.5284 49.1478 54.5444 49.0521C54.6858 48.2033 54.7819 46.0398 54.7942 44.0168C54.8007 42.9583 54.7848 41.8512 54.7327 40.8615C54.6835 39.9291 54.5942 38.9112 54.3997 38.133C54.383 38.0664 54.3639 38.0004 54.3423 37.9353C53.3063 34.8077 51.1638 33.1209 48.9984 32.3609M34.8318 37.35C32.7917 37.35 31.8724 38.7761 31.6997 39.467C31.6655 39.6038 31.6006 40.047 31.5485 40.8474C31.5002 41.5888 31.4713 42.4861 31.4616 43.4282C31.4434 45.2045 31.4947 47.0037 31.5868 48.0944C31.8578 48.9833 32.2519 49.4985 32.6216 49.8201C33.0038 50.1525 33.48 50.3806 34.0355 50.5132C35.5892 50.6189 40.5172 50.6034 43.5276 50.594C44.2177 50.5918 44.807 50.59 45.2318 50.59C45.249 50.59 45.2662 50.5902 45.2833 50.5905C46.5535 50.6143 47.3396 50.3789 47.842 50.0473C48.2781 49.7595 48.7738 49.2204 49.1337 48.0309C49.1341 48.0274 49.1345 48.0239 49.1349 48.0204C49.1437 47.9379 49.1536 47.8313 49.164 47.6999C49.1847 47.4369 49.2054 47.1025 49.224 46.7127C49.2611 45.9337 49.2883 44.9719 49.2943 43.9832C49.3004 42.9916 49.285 41.9988 49.2403 41.151C49.1979 40.3468 49.1354 39.8174 49.0831 39.5537C48.754 38.6344 48.2582 38.1322 47.7793 37.8336C47.2388 37.4966 46.6005 37.35 46.0318 37.35H34.8318Z" fill="#2DB5A4"/>
</svg>
