<svg width="81" height="80" viewBox="0 0 81 80" fill="none" xmlns="http://www.w3.org/2000/svg">
<path fill-rule="evenodd" clip-rule="evenodd" d="M40.875 13C25.9633 13 13.875 25.0883 13.875 40C13.875 54.9117 25.9633 67 40.875 67C55.7867 67 67.875 54.9117 67.875 40C67.875 25.0883 55.7867 13 40.875 13ZM7.875 40C7.875 21.7746 22.6496 7 40.875 7C59.1004 7 73.875 21.7746 73.875 40C73.875 58.2254 59.1004 73 40.875 73C22.6496 73 7.875 58.2254 7.875 40Z" fill="#2DB5A4"/>
<path fill-rule="evenodd" clip-rule="evenodd" d="M40.875 25.3334C42.5319 25.3334 43.875 26.6765 43.875 28.3334V37H55.875C57.5319 37 58.875 38.3432 58.875 40C58.875 41.6569 57.5319 43 55.875 43H41.7083C40.6917 43 39.7167 42.5962 38.9978 41.8773C38.2789 41.1584 37.875 40.1834 37.875 39.1667V28.3334C37.875 26.6765 39.2181 25.3334 40.875 25.3334Z" fill="#2DB5A4"/>
</svg>
