<svg width="81" height="80" viewBox="0 0 81 80" fill="none" xmlns="http://www.w3.org/2000/svg">
<path d="M60.375 53.3333C63.0272 53.3333 65.5707 54.3869 67.4461 56.2622C69.3214 58.1376 70.375 60.6811 70.375 63.3333C70.375 65.9855 69.3214 68.529 67.4461 70.4044C65.5707 72.2797 63.0272 73.3333 60.375 73.3333C57.7228 73.3333 55.1793 72.2797 53.3039 70.4044C51.4286 68.529 50.375 65.9855 50.375 63.3333C50.375 60.6811 51.4286 58.1376 53.3039 56.2622C55.1793 54.3869 57.7228 53.3333 60.375 53.3333ZM52.0417 13.3333C56.0199 13.3333 59.8352 14.9136 62.6483 17.7267C65.4613 20.5397 67.0417 24.355 67.0417 28.3333C67.0417 32.3115 65.4613 36.1268 62.6483 38.9399C59.8352 41.7529 56.0199 43.3333 52.0417 43.3333H28.7083C26.4982 43.3333 24.3786 44.2113 22.8158 45.7741C21.253 47.3369 20.375 49.4565 20.375 51.6666C20.375 53.8768 21.253 55.9964 22.8158 57.5592C24.3786 59.122 26.4982 60 28.7083 60H43.7083C44.5924 60 45.4402 60.3511 46.0654 60.9763C46.6905 61.6014 47.0417 62.4492 47.0417 63.3333C47.0417 64.2173 46.6905 65.0652 46.0654 65.6903C45.4402 66.3154 44.5924 66.6666 43.7083 66.6666H28.7083C24.7301 66.6666 20.9148 65.0863 18.1017 62.2732C15.2887 59.4602 13.7083 55.6449 13.7083 51.6666C13.7083 47.6884 15.2887 43.8731 18.1017 41.06C20.9148 38.247 24.7301 36.6666 28.7083 36.6666H52.0417C54.2518 36.6666 56.3714 35.7887 57.9342 34.2258C59.497 32.663 60.375 30.5434 60.375 28.3333C60.375 26.1232 59.497 24.0035 57.9342 22.4407C56.3714 20.8779 54.2518 20 52.0417 20H37.0417C36.1576 20 35.3098 19.6488 34.6846 19.0236C34.0595 18.3985 33.7083 17.5507 33.7083 16.6666C33.7083 15.7826 34.0595 14.9347 34.6846 14.3096C35.3098 13.6845 36.1576 13.3333 37.0417 13.3333H52.0417ZM20.375 6.66663C23.0272 6.66663 25.5707 7.72019 27.4461 9.59556C29.3214 11.4709 30.375 14.0145 30.375 16.6666C30.375 19.3188 29.3214 21.8623 27.4461 23.7377C25.5707 25.6131 23.0272 26.6666 20.375 26.6666C17.7228 26.6666 15.1793 25.6131 13.3039 23.7377C11.4286 21.8623 10.375 19.3188 10.375 16.6666C10.375 14.0145 11.4286 11.4709 13.3039 9.59556C15.1793 7.72019 17.7228 6.66663 20.375 6.66663Z" fill="#2DB5A4"/>
</svg>
