<svg width="81" height="80" viewBox="0 0 81 80" fill="none" xmlns="http://www.w3.org/2000/svg">
<path d="M38.4583 30C38.4583 27.7898 39.3363 25.6702 40.8991 24.1074C42.4619 22.5446 44.5815 21.6666 46.7917 21.6666C50.4583 21.6666 53.5583 24.0333 54.6917 27.3C54.9583 28.1666 55.125 29.0666 55.125 30C55.125 31.0943 54.9094 32.1779 54.4907 33.189C54.0719 34.2 53.458 35.1187 52.6842 35.8925C51.9104 36.6663 50.9917 37.2802 49.9807 37.699C48.9696 38.1177 47.886 38.3333 46.7917 38.3333C43.1583 38.3333 40.125 36.0333 38.925 32.8C38.625 31.9333 38.4583 30.9666 38.4583 30ZM16.7917 30C16.7917 45 33.725 65.5333 36.7917 69.3666L33.4583 73.3333C33.4583 73.3333 10.125 47.5 10.125 30C10.125 19.4333 17.1583 10.5 26.7917 7.63329C20.6583 13.1333 16.7917 21.1 16.7917 30ZM46.7917 6.66663C59.6583 6.66663 70.125 17.1 70.125 30C70.125 47.5 46.7917 73.3333 46.7917 73.3333C46.7917 73.3333 23.4583 47.5 23.4583 30C23.4583 17.1 33.925 6.66663 46.7917 6.66663ZM46.7917 13.3333C37.5917 13.3333 30.125 20.8 30.125 30C30.125 33.3333 30.125 40 46.7917 62.3666C63.4583 40 63.4583 33.3333 63.4583 30C63.4583 20.8 55.9917 13.3333 46.7917 13.3333Z" fill="#2DB5A4"/>
</svg>
