<svg width="20" height="20" viewBox="0 0 20 20" fill="none" xmlns="http://www.w3.org/2000/svg">
<path d="M16.5729 10.4425L17.7029 11.4488C17.9115 11.6229 18.051 11.866 18.0959 12.134C18.1409 12.4021 18.0883 12.6773 17.9479 12.91L16.5854 15.2375C16.4797 15.4157 16.3287 15.5627 16.1479 15.6638C15.9649 15.765 15.7595 15.8187 15.5504 15.82C15.4207 15.8208 15.2916 15.8014 15.1679 15.7625L13.7216 15.285C13.4683 15.4475 13.205 15.5929 12.9316 15.7213L12.6279 17.1875C12.5717 17.4572 12.4215 17.6982 12.2041 17.8675C11.984 18.0398 11.7111 18.1308 11.4316 18.125H8.61037C8.33089 18.1308 8.05799 18.0398 7.83787 17.8675C7.62097 17.698 7.47125 17.4571 7.41537 17.1875L7.11037 15.7213C6.84062 15.5912 6.5789 15.4451 6.32662 15.2838L4.87537 15.7625C4.75163 15.8014 4.62258 15.8208 4.49287 15.82C4.2842 15.8185 4.07921 15.7648 3.89662 15.6638C3.71592 15.5631 3.565 15.4165 3.45912 15.2388L2.04787 12.91C1.90116 12.6752 1.8451 12.395 1.8902 12.1219C1.9353 11.8487 2.07847 11.6014 2.29287 11.4263L3.42162 10V9.55751L2.29162 8.55127C2.08295 8.37713 1.94352 8.13404 1.89858 7.866C1.85364 7.59796 1.90616 7.32269 2.04662 7.09002L3.45787 4.76252C3.56358 4.58435 3.71451 4.4373 3.89537 4.33627C4.07796 4.23523 4.28294 4.18151 4.49162 4.18002C4.62016 4.17191 4.74919 4.18371 4.87412 4.21502L6.29662 4.71502C6.55079 4.55252 6.81412 4.4071 7.08662 4.27877L7.39162 2.81252C7.4475 2.54298 7.59722 2.30201 7.81412 2.13252C8.03424 1.9602 8.30714 1.86923 8.58662 1.87502H11.3841C11.6636 1.86923 11.9365 1.9602 12.1566 2.13252C12.3754 2.30377 12.5254 2.54502 12.5791 2.81252L12.8841 4.27877C13.155 4.40793 13.4162 4.55377 13.6679 4.71627L15.1204 4.23877C15.2816 4.18632 15.4519 4.16791 15.6206 4.1847C15.7893 4.20148 15.9527 4.25309 16.1004 4.33627C16.2816 4.43877 16.4316 4.58627 16.5379 4.76127L17.9479 7.09002C18.0966 7.32279 18.1555 7.60172 18.1136 7.87474C18.0717 8.14777 17.932 8.39623 17.7204 8.57377L16.5729 9.55126V10.4425Z" stroke="black" stroke-width="1.8"/>
<path d="M13.125 10C13.125 10.8288 12.7958 11.6237 12.2097 12.2097C11.6237 12.7958 10.8288 13.125 10 13.125C9.1712 13.125 8.37634 12.7958 7.79029 12.2097C7.20424 11.6237 6.875 10.8288 6.875 10C6.875 9.1712 7.20424 8.37634 7.79029 7.79029C8.37634 7.20424 9.1712 6.875 10 6.875C10.8288 6.875 11.6237 7.20424 12.2097 7.79029C12.7958 8.37634 13.125 9.1712 13.125 10Z" stroke="black" stroke-width="1.8"/>
</svg>
