<?xml version="1.0" encoding="UTF-8"?>
<svg id="Layer_1" data-name="Layer 1" xmlns="http://www.w3.org/2000/svg" xmlns:xlink="http://www.w3.org/1999/xlink" viewBox="0 0 64 64">
  <defs>
    <style>
      .cls-1 {
        fill: url(#radial-gradient);
      }

      .cls-2 {
        stroke: #000;
        stroke-linecap: round;
        stroke-linejoin: round;
        stroke-width: .24px;
      }

      .cls-2, .cls-3 {
        fill: none;
      }

      .cls-4 {
        fill: rgba(49, 114, 107, .1);
      }

      .cls-3 {
        stroke: #4ea69c;
        stroke-width: 1.79px;
      }
    </style>
    <radialGradient id="radial-gradient" cx="-224.08" cy="922.14" fx="-224.08" fy="922.14" r="1.04" gradientTransform="translate(-20088.31 38924.34) rotate(45) scale(45.25 -45.25) skewX(-4.29)" gradientUnits="userSpaceOnUse">
      <stop offset="0" stop-color="#63d1c4" stop-opacity=".2"/>
      <stop offset="1" stop-color="#63d1c4" stop-opacity="0"/>
    </radialGradient>
  </defs>
  <g>
    <rect class="cls-4" width="64" height="64"/>
    <path class="cls-1" d="M15.41,0h48.59v48.59c0,8.5-6.9,15.41-15.41,15.41H15.41c-8.5,0-15.41-6.9-15.41-15.41V15.41C0,6.9,6.9,0,15.41,0Z"/>
  </g>
  <g>
    <g>
      <path class="cls-2" d="M16.24,50.7l-.64-4.89c-.05-.38.22-.72.59-.77l4.89-.64"/>
      <path class="cls-2" d="M39.56,21.1l-.04-.3,4.9-.64c.29-.04.5-.31.46-.6l-.64-4.9.3-.04.64,4.9c.06.46-.26.88-.72.94l-4.9.64Z"/>
      <path class="cls-2" d="M13.09,41.06c-1.45-3.03-2.08-6.42-1.82-9.8.73-9.48,8.43-17.08,17.92-17.68,5.53-.36,10.95,1.69,14.86,5.59l-.21.21c-3.85-3.85-9.18-5.85-14.63-5.51-9.34.59-16.93,8.08-17.64,17.41-.26,3.34.36,6.67,1.79,9.65l-.27.13Z"/>
      <path class="cls-2" d="M43.94,19.27c-3.72-3.72-8.98-5.92-14.74-5.55-9.4.6-17.06,8.15-17.78,17.54-.27,3.5.41,6.82,1.8,9.73"/>
      <path class="cls-2" d="M30.47,52c-5.1,0-10.01-2.02-13.63-5.63l.21-.21c3.85,3.85,9.18,5.85,14.63,5.51,9.34-.59,16.93-8.08,17.64-17.41.26-3.34-.36-6.67-1.79-9.65l.27-.13c1.45,3.03,2.08,6.42,1.82,9.8-.73,9.48-8.43,17.08-17.92,17.68-.41.03-.82.04-1.23.04Z"/>
      <path class="cls-2" d="M16.95,46.26c3.72,3.72,8.98,5.92,14.74,5.55,9.4-.6,17.06-8.15,17.78-17.54.27-3.5-.41-6.82-1.8-9.73"/>
      <g>
        <path class="cls-2" d="M28.33,44.01c-.44,0-.8-.36-.8-.8,0-1.74-1.39-3.12-3.09-3.12-.54,0-1.06.14-1.54.42-.15.09-.29.12-.43.12-.29,0-.55-.15-.69-.4l-2.12-3.67c-.11-.19-.14-.4-.08-.61s.19-.38.37-.49c.99-.57,1.57-1.57,1.57-2.69s-.58-2.11-1.54-2.67c-.21-.12-.35-.3-.4-.5s-.03-.42.08-.61l2.12-3.67c.14-.25.41-.4.69-.4.14,0,.28.04.4.11.51.29,1.03.43,1.57.43,1.7,0,3.09-1.39,3.09-3.09,0-.48.36-.83.8-.83h4.24c.44,0,.8.36.8.8,0,.88.33,1.67.94,2.25.58.55,1.36.87,2.15.87.54,0,1.06-.14,1.54-.42.15-.09.29-.12.43-.12.29,0,.55.15.69.4l2.12,3.67c.22.38.09.87-.29,1.09-.99.57-1.57,1.57-1.57,2.69s.58,2.11,1.54,2.67c.41.24.54.73.32,1.11l-2.12,3.67c-.14.25-.41.4-.69.4h0c-.14,0-.28-.04-.4-.11-.51-.29-1.03-.43-1.57-.43-1.7,0-3.09,1.39-3.09,3.09,0,.48-.36.83-.8.83h-4.24Z"/>
        <path class="cls-2" d="M41.11,29.06l-2.12-3.67c-.18-.31-.58-.42-.89-.24l-.03.02c-2.16,1.24-4.85-.31-4.85-2.8v-.03c0-.36-.29-.65-.65-.65h-4.24c-.36,0-.65.29-.65.65v.03c0,2.49-2.69,4.04-4.85,2.8l-.03-.02c-.31-.18-.71-.07-.89.24l-2.12,3.67c-.18.31-.07.71.24.89l.03.02c2.16,1.24,2.16,4.36,0,5.6l-.03.02c-.31.18-.42.58-.24.89l2.12,3.67c.18.31.58.42.89.24l.03-.02c2.16-1.24,4.85.31,4.85,2.8v.03c0,.36.29.65.65.65h4.24c.36,0,.65-.29.65-.65v-.03c0-2.49,2.69-4.04,4.85-2.8l.03.02c.31.18.71.07.89-.24l2.12-3.67c.18-.31.07-.71-.24-.89l-.03-.02c-2.16-1.24-2.16-4.36,0-5.6l.03-.02c.31-.18.42-.58.24-.89Z"/>
      </g>
      <path class="cls-2" d="M30.45,36.88c-2.27,0-4.11-1.84-4.11-4.11s1.84-4.11,4.11-4.11,4.11,1.84,4.11,4.11-1.84,4.11-4.11,4.11Z"/>
      <circle class="cls-2" cx="30.45" cy="32.77" r="3.96"/>
    </g>
    <g>
      <path class="cls-3" d="M16.24,50.7l-.64-4.89c-.05-.38.22-.72.59-.77l4.89-.64"/>
      <path class="cls-3" d="M39.56,21.1l-.04-.3,4.9-.64c.29-.04.5-.31.46-.6l-.64-4.9.3-.04.64,4.9c.06.46-.26.88-.72.94l-4.9.64Z"/>
      <path class="cls-3" d="M13.09,41.06c-1.45-3.03-2.08-6.42-1.82-9.8.73-9.48,8.43-17.08,17.92-17.68,5.53-.36,10.95,1.69,14.86,5.59l-.21.21c-3.85-3.85-9.18-5.85-14.63-5.51-9.34.59-16.93,8.08-17.64,17.41-.26,3.34.36,6.67,1.79,9.65l-.27.13Z"/>
      <path class="cls-3" d="M43.94,19.27c-3.72-3.72-8.98-5.92-14.74-5.55-9.4.6-17.06,8.15-17.78,17.54-.27,3.5.41,6.82,1.8,9.73"/>
      <path class="cls-3" d="M30.47,52c-5.1,0-10.01-2.02-13.63-5.63l.21-.21c3.85,3.85,9.18,5.85,14.63,5.51,9.34-.59,16.93-8.08,17.64-17.41.26-3.34-.36-6.67-1.79-9.65l.27-.13c1.45,3.03,2.08,6.42,1.82,9.8-.73,9.48-8.43,17.08-17.92,17.68-.41.03-.82.04-1.23.04Z"/>
      <path class="cls-3" d="M16.95,46.26c3.72,3.72,8.98,5.92,14.74,5.55,9.4-.6,17.06-8.15,17.78-17.54.27-3.5-.41-6.82-1.8-9.73"/>
      <g>
        <path class="cls-3" d="M28.33,44.01c-.44,0-.8-.36-.8-.8,0-1.74-1.39-3.12-3.09-3.12-.54,0-1.06.14-1.54.42-.15.09-.29.12-.43.12-.29,0-.55-.15-.69-.4l-2.12-3.67c-.11-.19-.14-.4-.08-.61s.19-.38.37-.49c.99-.57,1.57-1.57,1.57-2.69s-.58-2.11-1.54-2.67c-.21-.12-.35-.3-.4-.5s-.03-.42.08-.61l2.12-3.67c.14-.25.41-.4.69-.4.14,0,.28.04.4.11.51.29,1.03.43,1.57.43,1.7,0,3.09-1.39,3.09-3.09,0-.48.36-.83.8-.83h4.24c.44,0,.8.36.8.8,0,.88.33,1.67.94,2.25.58.55,1.36.87,2.15.87.54,0,1.06-.14,1.54-.42.15-.09.29-.12.43-.12.29,0,.55.15.69.4l2.12,3.67c.22.38.09.87-.29,1.09-.99.57-1.57,1.57-1.57,2.69s.58,2.11,1.54,2.67c.41.24.54.73.32,1.11l-2.12,3.67c-.14.25-.41.4-.69.4h0c-.14,0-.28-.04-.4-.11-.51-.29-1.03-.43-1.57-.43-1.7,0-3.09,1.39-3.09,3.09,0,.48-.36.83-.8.83h-4.24Z"/>
        <path class="cls-3" d="M41.11,29.06l-2.12-3.67c-.18-.31-.58-.42-.89-.24l-.03.02c-2.16,1.24-4.85-.31-4.85-2.8v-.03c0-.36-.29-.65-.65-.65h-4.24c-.36,0-.65.29-.65.65v.03c0,2.49-2.69,4.04-4.85,2.8l-.03-.02c-.31-.18-.71-.07-.89.24l-2.12,3.67c-.18.31-.07.71.24.89l.03.02c2.16,1.24,2.16,4.36,0,5.6l-.03.02c-.31.18-.42.58-.24.89l2.12,3.67c.18.31.58.42.89.24l.03-.02c2.16-1.24,4.85.31,4.85,2.8v.03c0,.36.29.65.65.65h4.24c.36,0,.65-.29.65-.65v-.03c0-2.49,2.69-4.04,4.85-2.8l.03.02c.31.18.71.07.89-.24l2.12-3.67c.18-.31.07-.71-.24-.89l-.03-.02c-2.16-1.24-2.16-4.36,0-5.6l.03-.02c.31-.18.42-.58.24-.89Z"/>
      </g>
      <path class="cls-3" d="M30.45,36.88c-2.27,0-4.11-1.84-4.11-4.11s1.84-4.11,4.11-4.11,4.11,1.84,4.11,4.11-1.84,4.11-4.11,4.11Z"/>
      <circle class="cls-3" cx="30.45" cy="32.77" r="3.96"/>
    </g>
  </g>
</svg>