<?xml version="1.0" encoding="UTF-8"?>
<svg id="Layer_1" data-name="Layer 1" xmlns="http://www.w3.org/2000/svg" xmlns:xlink="http://www.w3.org/1999/xlink" viewBox="0 0 64 64">
  <defs>
    <style>
      .cls-1 {
        fill: url(#radial-gradient);
      }

      .cls-2 {
        fill: rgba(49, 114, 107, .1);
      }

      .cls-3 {
        fill: #4ea69c;
      }
    </style>
    <radialGradient id="radial-gradient" cx="-411.15" cy="759.37" fx="-411.15" fy="759.37" r="1" gradientTransform="translate(-9286.51 39313.34) rotate(45) scale(45.25 -45.25) skewX(-4.29)" gradientUnits="userSpaceOnUse">
      <stop offset="0" stop-color="#63d1c4" stop-opacity=".2"/>
      <stop offset="1" stop-color="#63d1c4" stop-opacity="0"/>
    </radialGradient>
  </defs>
  <g>
    <rect class="cls-2" width="64" height="64"/>
    <rect class="cls-1" width="64" height="64" rx="15.41" ry="15.41"/>
  </g>
  <g>
    <path class="cls-3" d="M42.13,18.74c.22.26.38,1.3.61,1.77.93,1.9,2.13,2.14,4.03,2.42,1.4.21,1.06,1.81,1.04,2.91-.07,3.78-.14,7.58-.09,11.38-1.39,4.92-5.45,9.05-9.69,11.73-1.4.88-5.27,2.98-6.84,2.82-1.44-.15-4.21-1.53-5.52-2.27-4.92-2.77-10.31-8.32-10.66-14.25-.22-3.63.16-7.46,0-11.11.13-1.35,1.29-1.09,2.26-1.32,1.32-.31,2.39-1.25,2.85-2.53.43-1.2,0-1.46,1.45-1.87,3.16-.89,6.45-1.38,9.63-2.2l10.34,2.18c.17.05.49.22.59.35ZM45.56,25.08c-1.84-.24-3.57-1.5-4.51-3.06-.19-.31-.59-1.36-.77-1.47l-8.74-2.01-9.11,2.05c-.83,2.3-2.63,4.22-5.16,4.49v10.34c.46,5.87,8.02,12.33,13.39,13.85,1.02.29,1.51.05,2.46-.32,4.99-1.91,12.05-7.65,12.46-13.35v-10.53Z"/>
    <path class="cls-3" d="M35.32,24.11l3.55,5.77c1.47.92,3.58,1.29,4.19,3.11.27.79.28,3.59.18,4.48-.14,1.22-1.1,1.02-2.05,1.04-.67,2.18-3.27,3.14-5.15,1.76-.67-.49-.91-1.05-1.28-1.76h-5.48c-.9,2.69-4.15,3.26-5.88.97-.24-.32-.33-.66-.56-.97-.97-.14-2.74.46-2.9-.95-.13-1.17-.11-4.69.29-5.71s1.1-1.5,1.99-2.04c1.02-1.58,1.71-3.73,2.72-5.26.33-.5.54-.62,1.13-.66,2.79-.2,5.8.16,8.61,0l.64.21ZM28.09,26.15h-1.39l-1.75,3.4,3.14-.09v-3.32ZM33.96,26.15h-3.63v3.32l5.64.09-2.02-3.4ZM22.18,32.73v3.54c1.07.19.95-.31,1.48-.9,1.64-1.8,4.43-1.18,5.48.9l5.7-.02c.48-.53.82-1.13,1.47-1.49,1.62-.91,3.74-.33,4.6,1.33h.13c.13-.01-.04-.11-.04-.13v-2.24c0-.15-.44-.42-.57-.51-.35-.22-2.62-1.39-2.88-1.42-4.83.08-9.7-.14-14.5.11-.28.07-.81.58-.87.83ZM27.13,37.64c0-.58-.47-1.05-1.05-1.05s-1.05.47-1.05,1.05.47,1.05,1.05,1.05,1.05-.47,1.05-1.05ZM39.01,37.64c0-.57-.46-1.03-1.03-1.03s-1.03.46-1.03,1.03.46,1.03,1.03,1.03,1.03-.46,1.03-1.03Z"/>
  </g>
</svg>