<?xml version="1.0" encoding="UTF-8"?>
<svg id="Layer_1" data-name="Layer 1" xmlns="http://www.w3.org/2000/svg" xmlns:xlink="http://www.w3.org/1999/xlink" viewBox="0 0 64 64">
  <defs>
    <style>
      .cls-1 {
        fill: url(#radial-gradient);
      }

      .cls-2 {
        fill: rgba(49, 114, 107, .1);
      }

      .cls-3 {
        fill: #4ea69c;
      }
    </style>
    <radialGradient id="radial-gradient" cx="-34.68" cy="755.78" fx="-34.68" fy="755.78" r="1" gradientTransform="translate(-21227.46 27142.57) rotate(45) scale(45.25 -45.25) skewX(-4.29)" gradientUnits="userSpaceOnUse">
      <stop offset="0" stop-color="#63d1c4" stop-opacity=".2"/>
      <stop offset="1" stop-color="#63d1c4" stop-opacity="0"/>
    </radialGradient>
  </defs>
  <g>
    <rect class="cls-2" width="64" height="64"/>
    <rect class="cls-1" width="64" height="64" rx="15.41" ry="15.41"/>
  </g>
  <g>
    <path class="cls-3" d="M59.75,43.13c-.77,2.49-3.14,1.76-5.17,1.86-.19,2.47-2.39,4.65-4.93,4.49-2.3-.15-4.32-1.96-4.54-4.29l-1.41-.11-17.46.02c-.13.04-.42,1.21-.55,1.5-1.97,4.4-8.59,3.32-9.08-1.42-1.63.06-3.43.01-4.43-1.47-.09-.13-.45-.93-.45-1.02v-5.81c-1.1.06-2.01-.12-1.86-1.42.07-.57.49-.78,1.02-.83l6.89.05c.68.39,1,1.08.48,1.76-.11.14-.48.44-.64.44h-3.66c.04.32-.08.61-.1.92-.07,1.08-.11,3.16,0,4.2.16,1.39,1.97.66,2.96.81.55-.89.95-1.57,1.85-2.15,2.53-1.64,5.88-.54,7.07,2.17,5.04-.06,10.11.1,15.14-.08.29-.2.6-.47.61-.85-.03-6.59.06-13.19-.05-19.77-.18-.33-.48-.66-.88-.68H14.71c-.49.13-.73.47-.81.96-.15.93-.01,2.21.07,3.15h3.66c.09,0,.56.43.63.54.42.64.04,1.49-.68,1.67-.62.15-4.03.13-4.73.03s-1.17-.6-1.23-1.31c-.11-1.15-.1-4.19.25-5.22s1.44-1.91,2.55-2.04h26.44c1.33.02,2.88,1.69,2.88,2.97v2.49c.18-.03.34-.1.53-.1,1.41-.04,5.73-.2,6.82.22.82.32,1.16.98,1.52,1.7,1.11,2.22,1.88,4.73,2.99,6.96.97.96,2.64,1.76,3.55,2.7.17.17.27.38.39.58l.2.63v5.76ZM50.28,26.83h-6.54v6.15h9.27l-2.73-6.15ZM54.23,35.22h-10.49v6.98c0,.12-.23.45-.2.63h1.81c1.23-2.34,3.62-3.58,6.22-2.61,1.31.48,2.04,1.48,2.77,2.6.51-.05,2.77.16,3.04-.1.11-.15.11-.33.12-.51.12-1.42-.08-3.03-.02-4.47l-3.25-2.51ZM23.83,44.66c0-1.39-1.12-2.51-2.51-2.51s-2.51,1.12-2.51,2.51,1.12,2.51,2.51,2.51,2.51-1.12,2.51-2.51ZM52.36,44.66c0-1.39-1.13-2.52-2.52-2.52s-2.52,1.13-2.52,2.52,1.13,2.52,2.52,2.52,2.52-1.13,2.52-2.52Z"/>
    <path class="cls-3" d="M9.77,31.42v-.39c.16-.44.45-.86.93-.97,2.48.16,5.27-.24,7.71,0,1.57.15,1.66,2.11,0,2.25-2.39.21-5.09-.16-7.51-.01-.54-.08-.9-.38-1.13-.87Z"/>
    <g>
      <path class="cls-3" d="M35.41,30.23c0,3.5-2.84,6.34-6.34,6.34s-6.34-2.84-6.34-6.34,2.84-6.34,6.34-6.34,6.34,2.84,6.34,6.34ZM33.18,30.24c0-2.27-1.84-4.12-4.12-4.12s-4.12,1.84-4.12,4.12,1.84,4.12,4.12,4.12,4.12-1.84,4.12-4.12Z"/>
      <path class="cls-3" d="M29.27,30.48c.68-.02,1.65,0,2.16,0,.08,0,.25-.09.37.02.3.26.25.94-.06,1.32-.11.14-.37.36-1.32.36-1.27,0-2.59.17-2.9-.81-.06-.17-.07-.17-.07-2.55,0-.37,0-.63.18-.85.39-.46,1.37-.47,1.64-.07.08.11.08.23.08.28-.02.7-.09,1.74-.08,2.3Z"/>
    </g>
  </g>
</svg>