<?xml version="1.0" encoding="UTF-8"?>
<svg id="Layer_1" data-name="Layer 1" xmlns="http://www.w3.org/2000/svg" xmlns:xlink="http://www.w3.org/1999/xlink" viewBox="0 0 64 64">
  <defs>
    <style>
      .cls-1 {
        fill: url(#radial-gradient);
      }

      .cls-2 {
        fill: rgba(49, 114, 107, .1);
      }

      .cls-3 {
        fill: #4ea69c;
      }
    </style>
    <radialGradient id="radial-gradient" cx="-45.59" cy="926.94" fx="-45.59" fy="926.94" r="1.16" gradientTransform="translate(-25944.05 33379.94) rotate(45) scale(45.25 -45.25) skewX(-4.29)" gradientUnits="userSpaceOnUse">
      <stop offset="0" stop-color="#63d1c4" stop-opacity=".2"/>
      <stop offset="1" stop-color="#63d1c4" stop-opacity="0"/>
    </radialGradient>
  </defs>
  <rect class="cls-2" x="0" y="0" width="64" height="64"/>
  <g>
    <rect class="cls-1" x="0" y="0" width="64" height="64"/>
    <path class="cls-3" d="M24.5,14.09h.23c.32.08.69.06,1.01.09.5.05,1.01.16,1.5.3,2.75.76,5.07,2.6,6.43,5.11,1.35,2.43,1.54,5.29.79,7.94.12.16.29.31.43.45l.74.72c.55.54,1.09,1.1,1.63,1.64l7.64,7.64c.83.82,1.66,1.64,2.47,2.47.48.48,1.01.94,1.4,1.5.51.74.84,1.6.91,2.5.11,1.34-.28,2.69-1.15,3.72-.88,1.03-2.05,1.63-3.4,1.73-1.02.07-2.1-.11-2.98-.65-.55-.33-.96-.78-1.41-1.22-.71-.7-1.4-1.42-2.11-2.12l-8.01-7.98-2.15-2.14c-.36-.37-.72-.77-1.11-1.1-.04-.03-.1-.09-.15-.1-.09-.02-.59.12-.73.15-.39.07-.77.12-1.16.14-2.69.2-5.35-.69-7.38-2.47-2.17-1.87-3.45-4.31-3.66-7.18-.1-1.38.06-2.83.53-4.13.1-.29.21-.6.42-.83.21-.24.52-.44.84-.45.15,0,.34.02.47.1.2.13.36.32.52.48.37.36.74.72,1.1,1.09l3.15,3.14c.29.28.57.58.86.87.36.36.88.49,1.37.36.14-.04.28-.08.41-.11.2-.05.39-.09.59-.14.51-.11.92-.51,1.05-1.02.02-.06.03-.12.05-.17.07-.24.13-.48.2-.73.14-.49,0-1.01-.36-1.37s-.7-.72-1.05-1.07l-1.57-1.57-1.92-1.93c-.3-.3-.61-.58-.9-.89-.09-.1-.21-.22-.25-.35-.08-.26-.03-.59.1-.83.38-.69,2.61-1.3,3.38-1.43.25-.04.5-.06.74-.08.14-.01.31-.01.44-.06,0,0,.01,0,.02,0ZM24.59,16.4c-.25,0-1.45.05-1.59.19.07.14,1.25,1.29,1.44,1.47.81.81,1.62,1.62,2.44,2.42l.85.84c.2.19.42.39.59.61.11.14.2.37.22.55.02.15,0,.31-.03.46-.06.29-.16.57-.24.85-.17.62-.35,1.24-.54,1.86-.1.33-.16.67-.27.99-.1.28-.27.56-.55.7-.25.12-.58.17-.85.23l-1.34.32-1.59.4c-.23.06-.46.14-.7.17-.16.02-.32,0-.46-.04-.28-.1-1.11-1.02-1.36-1.27l-3.13-3.15c-.11-.12-.76-.85-.83-.86-.16.19-.15,1.74-.13,2.04.15,1.63.77,3.17,1.8,4.44.38.45.8.87,1.26,1.25,1.55,1.3,3.7,2.02,5.72,1.83.89-.08,1.71-.3,2.55-.61.27.17.53.48.75.71l1.2,1.2,3.69,3.65c.84.84,1.66,1.71,2.52,2.53.75.72,1.47,1.46,2.2,2.2l2.95,2.92,1,1c.32.33.63.67,1.02.92.47.3,1.09.45,1.65.44.73-.02,1.37-.31,1.87-.84.52-.55.79-1.27.77-2.03-.02-.59-.21-1.11-.56-1.59-.15-.21-.34-.39-.53-.57-.34-.34-.7-.67-1.05-1.01l-2.7-2.64c-2.68-2.65-5.35-5.32-8.01-8.01l-1.71-1.74c-.28-.28-.65-.56-.86-.89-.12-.19-.15-.4-.12-.63.04-.28.17-.55.26-.81.06-.16.1-.32.14-.49.39-1.63.28-3.34-.33-4.9-.45-1.13-1.19-2.17-2.09-3-1.45-1.33-3.35-2.08-5.32-2.09Z"/>
  </g>
</svg>