<?xml version="1.0" encoding="UTF-8"?>
<svg id="Layer_1" data-name="Layer 1" xmlns="http://www.w3.org/2000/svg" xmlns:xlink="http://www.w3.org/1999/xlink" viewBox="0 0 64 64">
  <defs>
    <style>
      .cls-1 {
        fill: url(#radial-gradient);
      }

      .cls-2 {
        fill: rgba(49, 114, 107, .1);
      }

      .cls-3 {
        fill: #4ea69c;
      }
    </style>
    <radialGradient id="radial-gradient" cx="-704.12" cy="760.8" fx="-704.12" fy="760.8" r="1" gradientTransform="translate(46.06 48737.33) rotate(45) scale(45.25 -45.25) skewX(-4.29)" gradientUnits="userSpaceOnUse">
      <stop offset="0" stop-color="#63d1c4" stop-opacity=".2"/>
      <stop offset="1" stop-color="#63d1c4" stop-opacity="0"/>
    </radialGradient>
  </defs>
  <g>
    <rect class="cls-2" width="64" height="64"/>
    <rect class="cls-1" width="64" height="64" rx="15.41" ry="15.41"/>
  </g>
  <g>
    <circle class="cls-3" cx="30.93" cy="41.3" r="3.06"/>
    <path class="cls-3" d="M31.43,38.28l9.41-10.69s.71-.16.65.52l-7.88,11.71-1.78.3-.4-1.83Z"/>
    <path class="cls-3" d="M56.31,37.97v2.8c-.03.89-.08,1.82-.16,2.78-.07.79-.15,1.54-.24,2.27-.15.33-.5,1.01-1.27,1.54-.6.41-1.31.69-1.92.76l-40.24.02c-2.42-.18-2.87-2.21-3.35-4.2l-.51-3.45c.04-.8-.05-1.63,0-2.42.7-11.3,10.2-20.88,21.39-22.07,13.06-1.39,25.36,8.89,26.31,21.98ZM31.15,18.59c-2.64.1-5.21.86-7.63,1.87.16,1.18,2.37,3.1.92,4.13-1.8,1.27-2.38-1.86-3.3-2.72-2.21,1.36-4.03,3.23-5.63,5.25.56.72,2.43,1.9,2.52,2.8.09.95-.78,1.62-1.69,1.4-.46-.11-1.39-1.19-1.81-1.54-.09-.08-.52-.43-.6-.38-1.38,2.7-2.4,5.51-2.61,8.57h3.12c.59,0,1.23.77,1.25,1.36.01.46-.49,1.34-.97,1.34h-3.4c.17,1.28.29,2.6.68,3.84.1.32.2.93.58,1h39.5c.71.09.84-1.06.99-1.62,1.25-4.91.36-10.14-2.11-14.5-1.14.54-2.04,2.75-3.52,1.85-.56-.34-.71-1.32-.38-1.85.26-.41,2.37-2.21,2.37-2.38-1.57-2.03-3.5-3.77-5.65-5.16-.81.61-1.12,2.71-2.23,2.87-.82.12-1.61-.49-1.53-1.33.05-.56,1.49-2.73,1.39-2.85-2.4-1.07-4.97-1.93-7.64-1.96v2.75c0,.42-.84.97-1.26.98-.4.01-1.35-.51-1.35-.89v-2.84Z"/>
    <path class="cls-3" d="M54.01,38.33h-3.61c-.19.03-.56.12-.91.38-.1.07-.31.24-.45.51-.04.07-.27.53-.09.98.2.5.86.84,1.63.83h3.43s0-2.7,0-2.7Z"/>
  </g>
</svg>