<?xml version="1.0" encoding="UTF-8"?>
<svg id="Layer_1" data-name="Layer 1" xmlns="http://www.w3.org/2000/svg" xmlns:xlink="http://www.w3.org/1999/xlink" viewBox="0 0 64 64">
  <defs>
    <style>
      .cls-1 {
        fill: url(#radial-gradient);
      }

      .cls-2 {
        fill: rgba(49, 114, 107, .1);
      }

      .cls-3 {
        fill: #4ea69c;
      }
    </style>
    <radialGradient id="radial-gradient" cx="-799.24" cy="761.16" fx="-799.24" fy="761.16" r="1" gradientTransform="translate(3079.32 51793.66) rotate(45) scale(45.25 -45.25) skewX(-4.29)" gradientUnits="userSpaceOnUse">
      <stop offset="0" stop-color="#63d1c4" stop-opacity=".2"/>
      <stop offset="1" stop-color="#63d1c4" stop-opacity="0"/>
    </radialGradient>
  </defs>
  <g>
    <rect class="cls-2" width="64" height="64"/>
    <rect class="cls-1" width="64" height="64" rx="15.41" ry="15.41"/>
  </g>
  <path class="cls-3" d="M36.49,30.45c.5,0,.91.41.91.91s-.41.91-.91.91h-.91c-1.51,0-2.74,1.23-2.74,2.74s1.22,2.74,2.73,2.74h7.31c2.52,0,4.56,2.04,4.56,4.56s-2.04,4.56-4.56,4.56h-14.6c-.5,0-.91-.41-.91-.91s.41-.91.91-.91h14.6c1.51,0,2.74-1.23,2.74-2.74s-1.23-2.74-2.73-2.74h-7.31c-2.52,0-4.56-2.04-4.56-4.56s2.04-4.56,4.56-4.56h.91ZM41.61,31.62c-.33.26-.79.26-1.12,0-.05-.04-.14-.11-.26-.21-.2-.17-.42-.36-.65-.57-.67-.61-1.34-1.29-1.96-2.03-1.84-2.17-2.95-4.39-2.95-6.57,0-3.53,2.86-6.39,6.39-6.39s6.39,2.86,6.39,6.39c0,2.18-1.12,4.4-2.95,6.57-.63.74-1.29,1.42-1.96,2.03-.23.21-.45.41-.65.57-.12.1-.21.17-.26.21ZM41.29,29.49c.61-.56,1.23-1.19,1.8-1.87,1.58-1.87,2.52-3.73,2.52-5.39,0-2.52-2.04-4.56-4.56-4.56s-4.56,2.04-4.56,4.56c0,1.66.94,3.52,2.52,5.39.57.68,1.19,1.3,1.8,1.87.08.08.16.15.24.22.08-.07.16-.14.24-.22ZM41.05,24.97c-1.51,0-2.74-1.23-2.74-2.74s1.23-2.74,2.74-2.74,2.74,1.23,2.74,2.74-1.23,2.74-2.74,2.74ZM41.05,23.15c.5,0,.91-.41.91-.91s-.41-.91-.91-.91-.91.41-.91.91.41.91.91.91ZM23.37,46.67c-.33.26-.79.26-1.12,0-.05-.04-.14-.11-.26-.21-.2-.17-.42-.36-.65-.57-.67-.61-1.34-1.29-1.96-2.03-1.84-2.17-2.95-4.39-2.95-6.57,0-3.53,2.86-6.39,6.39-6.39s6.39,2.86,6.39,6.39c0,2.18-1.12,4.4-2.95,6.57-.63.74-1.29,1.42-1.96,2.03-.23.21-.45.41-.65.57-.12.1-.21.17-.26.21ZM23.05,44.54c.61-.56,1.23-1.19,1.8-1.87,1.58-1.87,2.52-3.73,2.52-5.39,0-2.52-2.04-4.56-4.56-4.56s-4.56,2.04-4.56,4.56c0,1.66.94,3.52,2.52,5.39.57.68,1.19,1.3,1.8,1.87.08.08.16.15.24.22.08-.07.16-.14.24-.22h0ZM22.81,40.03c-1.51,0-2.74-1.23-2.74-2.74s1.23-2.74,2.74-2.74,2.74,1.23,2.74,2.74-1.23,2.74-2.74,2.74ZM22.81,38.2c.5,0,.91-.41.91-.91s-.41-.91-.91-.91-.91.41-.91.91.41.91.91.91Z"/>
</svg>