<?xml version="1.0" encoding="UTF-8"?>
<svg id="Layer_1" data-name="Layer 1" xmlns="http://www.w3.org/2000/svg" xmlns:xlink="http://www.w3.org/1999/xlink" viewBox="0 0 64 64">
  <defs>
    <style>
      .cls-1 {
        fill: url(#radial-gradient);
      }

      .cls-2 {
        fill: #14a99c;
      }

      .cls-3 {
        fill: rgba(49, 114, 107, .1);
      }
    </style>
    <radialGradient id="radial-gradient" cx="-506.73" cy="760.01" fx="-506.73" fy="760.01" r="1" gradientTransform="translate(-6247.11 42393.77) rotate(45) scale(45.25 -45.25) skewX(-4.29)" gradientUnits="userSpaceOnUse">
      <stop offset="0" stop-color="#63d1c4" stop-opacity=".2"/>
      <stop offset="1" stop-color="#63d1c4" stop-opacity="0"/>
    </radialGradient>
  </defs>
  <g>
    <rect class="cls-3" width="64" height="64"/>
    <rect class="cls-1" width="64" height="64" rx="15.41" ry="15.41"/>
  </g>
  <g>
    <path class="cls-2" d="M47.88,18.8c-5.33-.38-10.49-2.17-14.92-5.16l-.23-.15c-.38-.26-.89-.26-1.27,0l-.23.15c-4.43,3-9.58,4.78-14.92,5.16-.59.04-1.05.54-1.05,1.13v8.72c0,10.43,6.61,19.76,16.46,23.22.24.08.5.09.75,0,9.84-3.45,16.46-12.78,16.46-23.22v-8.72c0-.59-.46-1.09-1.05-1.13h0ZM46.66,28.65c0,9.34-5.84,17.7-14.57,20.94-8.73-3.24-14.57-11.61-14.57-20.94v-7.69c5.19-.54,10.2-2.32,14.57-5.18,4.37,2.86,9.38,4.64,14.57,5.18v7.69Z"/>
    <path class="cls-2" d="M25.93,38.64c0,.44,0,1.78,1.02,2.51,1.76,1.25,4.44-.77,6.15-.77s4.39,2.02,6.15.77c1.02-.72,1.02-2.07,1.02-2.51,0-3.57-3.48-7.77-7.17-7.77s-7.17,4.21-7.17,7.77ZM38,38.64c0,.39-.05.58-.08.65-.34.05-1.29-.29-1.87-.49-2.63-.92-3.27-.92-5.9,0-.58.2-1.53.54-1.87.49-.03-.07-.08-.26-.08-.65,0-2.52,2.66-5.51,4.91-5.51s4.91,2.99,4.91,5.51h0Z"/>
    <path class="cls-2" d="M29.55,25.06c0,2.12,1.59,3.85,3.55,3.85s3.55-1.73,3.55-3.85-1.59-3.85-3.55-3.85-3.55,1.73-3.55,3.85ZM34.38,25.06c0,.87-.58,1.58-1.28,1.58s-1.28-.71-1.28-1.58.58-1.58,1.28-1.58,1.28.71,1.28,1.58Z"/>
    <path class="cls-2" d="M27.34,26.36c-1.49-1.54-3.83-1.65-5.23-.3-1.41,1.36-1.35,3.71.13,5.23,1.49,1.54,3.82,1.66,5.23.3,1.41-1.36,1.35-3.71-.13-5.23h0ZM25.9,29.96c-.46.44-1.37.43-2.02-.25-.91-.94-.55-2.34.62-2.34.46,0,.9.22,1.22.55.61.63.69,1.54.18,2.03h0Z"/>
    <path class="cls-2" d="M42.95,31.29c1.48-1.53,1.53-3.87.13-5.23-1.4-1.36-3.74-1.24-5.23.3-1.48,1.53-1.53,3.87-.13,5.23,1.45,1.41,3.79,1.18,5.23-.3h0ZM39.48,27.93c.66-.68,1.57-.69,2.02-.25.51.49.43,1.4-.18,2.03-.66.68-1.57.69-2.02.25-.51-.49-.43-1.4.18-2.03Z"/>
  </g>
</svg>