<?xml version="1.0" encoding="UTF-8"?>
<svg id="Layer_1" data-name="Layer 1" xmlns="http://www.w3.org/2000/svg" xmlns:xlink="http://www.w3.org/1999/xlink" viewBox="0 0 64 64">
  <defs>
    <style>
      .cls-1 {
        fill: url(#radial-gradient);
      }

      .cls-2 {
        fill: rgba(49, 114, 107, .1);
      }

      .cls-3 {
        fill: #4ea69c;
      }
    </style>
    <radialGradient id="radial-gradient" cx="-487.81" cy="921.46" fx="-487.81" fy="921.46" r="1.16" gradientTransform="translate(-11630.94 47342.61) rotate(45) scale(45.25 -45.25) skewX(-4.29)" gradientUnits="userSpaceOnUse">
      <stop offset="0" stop-color="#63d1c4" stop-opacity=".2"/>
      <stop offset="1" stop-color="#63d1c4" stop-opacity="0"/>
    </radialGradient>
  </defs>
  <g>
    <rect class="cls-2" width="64" height="64"/>
    <rect class="cls-1" width="64" height="64"/>
  </g>
  <g>
    <path class="cls-3" d="M31.71,14.12c.25.11.61.1.91.15,7.18,1.21,11.82,8.36,9.29,15.38-1.44,4-4.21,7.7-6.68,11.12l-.04.1c2.07.32,4.25.67,6.17,1.54,1.73.78,3.67,2.39,2,4.33-1.79,2.08-6.99,2.85-9.61,3.05-.35.03-.57.03-.93.08-.63.09-3.27.09-3.9,0-1.91-.27-3.74-.32-5.66-.79s-6.58-1.99-5.24-4.79c.89-1.85,4.68-2.81,6.55-3.14.62-.11,1.26-.14,1.88-.24.05,0,.07-.02.1-.06-1.49-1.99-2.93-4.03-4.22-6.16-2.47-4.06-4.28-7.94-2.53-12.76,1.49-4.1,4.98-6.9,9.26-7.65.42-.07,2.37-.29,2.66-.15ZM30.91,43.06c1.96-2.58,3.95-5.13,5.72-7.85,2.92-4.49,5.74-9.25,2.46-14.47-4.09-6.51-14-5.84-17.09,1.2-2.06,4.7.08,8.48,2.53,12.41,1.71,2.74,3.67,5.42,5.68,7.95.2.25.44.49.6.77h.1ZM27.82,42.76c-.84.02-1.98.24-2.82.39-1.09.2-4.4.92-4.99,1.85-.12.19-.12.33.02.52.65.92,3.85,1.63,4.97,1.82,3.91.68,8.24.69,12.14-.08,1.06-.21,4.09-.99,4.7-1.86.12-.17.1-.21-.02-.37-.78-1.04-5.13-1.9-6.45-2.08-.26-.04-1.45-.2-1.6-.14-.04.02-.12.12-.15.15-.55.59-1.75,2.61-2.37,2.84-.29.11-.57.1-.85-.04-.57-.27-1.74-2.21-2.26-2.8-.09-.1-.17-.21-.32-.2Z"/>
    <path class="cls-3" d="M30.67,21.99c-.41.06-.77.43-.83.83-.09.55-.06,2.03-.01,2.62.01.14.06.38.11.51.16.39,1.15,1.18,1.5,1.52s.81,1.01,1.32,1.08c1.02.13,1.52-.97.92-1.73-.48-.61-1.26-1.1-1.75-1.73-.11-.69.01-1.43-.05-2.12s-.54-1.07-1.21-.98Z"/>
    <g>
      <path class="cls-3" d="M38.56,25.83c0,4.24-3.44,7.68-7.68,7.68s-7.68-3.44-7.68-7.68,3.44-7.68,7.68-7.68,7.68,3.44,7.68,7.68ZM36.49,25.81c0-3.11-2.52-5.62-5.62-5.62s-5.62,2.52-5.62,5.62,2.52,5.62,5.62,5.62,5.62-2.52,5.62-5.62Z"/>
      <path class="cls-3" d="M30.67,21.99c.66-.1,1.15.32,1.21.98s-.06,1.42.05,2.12c.48.62,1.27,1.12,1.75,1.73.6.76.1,1.86-.92,1.73-.51-.06-.97-.74-1.32-1.08s-1.34-1.13-1.5-1.52c-.05-.13-.1-.37-.11-.51-.05-.59-.07-2.07.01-2.62.06-.4.43-.77.83-.83Z"/>
    </g>
  </g>
</svg>