<?xml version="1.0" encoding="UTF-8"?>
<svg id="Layer_1" data-name="Layer 1" xmlns="http://www.w3.org/2000/svg" xmlns:xlink="http://www.w3.org/1999/xlink" viewBox="0 0 64 64">
  <defs>
    <style>
      .cls-1 {
        fill: url(#radial-gradient);
      }

      .cls-2 {
        fill: rgba(49, 114, 107, .1);
      }

      .cls-3 {
        fill: #4ea69c;
      }
    </style>
    <radialGradient id="radial-gradient" cx="-177.58" cy="755.66" fx="-177.58" fy="755.66" r="1" gradientTransform="translate(-16650.93 31711.36) rotate(45) scale(45.25 -45.25) skewX(-4.29)" gradientUnits="userSpaceOnUse">
      <stop offset="0" stop-color="#63d1c4" stop-opacity=".2"/>
      <stop offset="1" stop-color="#63d1c4" stop-opacity="0"/>
    </radialGradient>
  </defs>
  <g>
    <rect class="cls-2" width="64" height="64"/>
    <rect class="cls-1" width="64" height="64" rx="15.41" ry="15.41"/>
  </g>
  <path class="cls-3" d="M14.18,24.93c.54-7.13,8.64-11.23,14.83-7.67,1.07.61,1.85,1.43,2.75,2.25,1.05-1.11,2.22-2.13,3.63-2.75,8.83-3.91,17.59,6.09,12.28,14.28-.77,1.19-1.79,2.19-2.84,3.13.67.74,1.53,1.29,1.82,2.3.63,2.22-.92,4.18-3.18,4.26-.08,1.91-1.54,3.49-3.5,3.42-.03,2.49-2.61,4-4.83,2.89-1.69,1.62-3.16,4.23-5.9,3.08-1.18-.49-1.94-1.69-2.03-2.94-.27-.11-.58-.04-.84-.08-1.57-.27-2.73-1.62-2.79-3.21-1.85-.03-3.43-1.31-3.42-3.23-2.4,0-4.04-2.12-3.25-4.46.31-.93,1.13-1.33,1.67-2.09-1.69-1.61-3.28-3.27-3.97-5.57-.15-.49-.36-1.32-.41-1.82s-.04-1.3,0-1.78ZM35.39,38.21c1.09,1.08,2.5,2.67,3.64,3.59,1.29,1.05,2.94-.15,2.38-1.56-.16-.41-1.41-1.51-1.8-1.9-2.02-2.06-4.1-4.08-6.13-6.14-.58-.94.58-1.92,1.4-1.2,2.15,2.08,4.25,4.21,6.41,6.28.5.47,1.12,1.38,1.8,1.49,1.32.23,2.35-1.13,1.49-2.25l-9.83-9.78c-.16-.04-1.87,1.88-2.13,2.14-.75.75-1.86,2.02-2.81,2.4-3.49,1.4-6.57-2.64-4.28-5.59l4.77-4.77c.07-.06.08-.09.03-.17-.1-.19-1.14-1.12-1.38-1.3-5.83-4.55-14.26.77-12.69,8.04.5,2.34,2.02,3.8,3.72,5.34,1.8-1.66,4.75-.57,5.29,1.77.05.22.05.82.17.96.36.19.75.2,1.13.35.97.38,1.54,1.19,1.9,2.14l7.16,7.1c1.32,1.05,3.05-.37,2.18-1.84l-7.5-7.52c-.29-.34-.25-1.05.11-1.34.76-.6,1.34.11,1.85.61,1.04,1.04,2.06,2.13,3.11,3.17ZM28.62,25.32c-.53.54-1.55,1.32-1.82,1.99-.71,1.78,1.45,3.16,2.87,1.91l4.56-4.63c.35-.25.89-.18,1.2.1l8.05,8.07c3.27-2.46,4.91-6.23,3.2-10.2-2.06-4.77-8.41-6.37-12.39-2.91-1.94,1.69-3.85,3.82-5.68,5.67ZM21.91,33.86c-.34.02-.56.16-.81.36-.41.32-2.1,2.01-2.32,2.41-.74,1.32.64,2.65,1.99,1.92.36-.2,1.82-1.71,2.15-2.1.47-.55.76-.95.46-1.69-.24-.59-.83-.94-1.46-.9ZM24.92,37.43c-.21.03-.43.16-.6.29-.35.27-2.01,1.96-2.16,2.3-.61,1.39.97,2.57,2.16,1.75.26-.18,2.05-2.06,2.16-2.29.52-1.09-.38-2.24-1.56-2.04ZM28.48,40.67c-.09-.08-.2-.14-.28-.23l-.03.03c-.74,1.21-3.6,2.6-2.33,4.26.63.82,1.62.6,2.29-.04.26-.26,1.65-1.63,1.74-1.83.12-.24.13-.56,0-.8-.1-.19-1.17-1.21-1.39-1.39ZM31.63,43.87c-.63.71-1.56,1.39-2.14,2.12-1.18,1.49.51,3.17,1.88,2.23.33-.23,1.62-1.54,1.89-1.88.12-.15.39-.49.24-.66l-1.88-1.81Z"/>
</svg>