<?xml version="1.0" encoding="UTF-8"?>
<svg id="Layer_1" data-name="Layer 1" xmlns="http://www.w3.org/2000/svg" xmlns:xlink="http://www.w3.org/1999/xlink" viewBox="0 0 64 64">
  <defs>
    <style>
      .cls-1 {
        fill: url(#radial-gradient);
      }

      .cls-2 {
        fill: rgba(49, 114, 107, .1);
      }

      .cls-3 {
        fill: #4ea69c;
      }
    </style>
    <radialGradient id="radial-gradient" cx="-608.99" cy="760.44" fx="-608.99" fy="760.44" r="1" gradientTransform="translate(-2987.27 45681.07) rotate(45) scale(45.25 -45.25) skewX(-4.29)" gradientUnits="userSpaceOnUse">
      <stop offset="0" stop-color="#63d1c4" stop-opacity=".2"/>
      <stop offset="1" stop-color="#63d1c4" stop-opacity="0"/>
    </radialGradient>
  </defs>
  <g>
    <rect class="cls-2" width="64" height="64"/>
    <rect class="cls-1" width="64" height="64" rx="15.41" ry="15.41"/>
  </g>
  <g>
    <path class="cls-3" d="M14.92,18.46l33.85-.02c1.63.13,3.4,1.61,3.48,3.26.03.68.06,1.34.09,2.07-.27,6.5.35,13.28,0,19.75-.11,2.11-.95,3.57-3.05,4.17-11.28.28-22.62.04-33.92.12-1.87-.14-3.28-1.39-3.71-3.19-.23-7.41-.04-14.86-.1-22.29.15-1.97,1.41-3.47,3.35-3.87ZM21.68,24.3l-1.25-2.88c-.31-.27-.71-.19-1.05-.18-1.2.03-2.97-.07-4.08.1-.29.04-.85.48-.85.76v2.21h7.22ZM31.39,24.3l-1.29-2.92c-.06-.13-.15-.12-.27-.13-.99-.11-2.49-.03-3.54,0-.21,0-.42.02-.65.04-.43.03-1.72-.01-2.04,0-.1.12.09.43.15.58.34.82.77,1.64,1.18,2.43h6.46ZM40.78,24.3l-1.24-2.97c-.06-.09-.15-.07-.24-.08-1.09-.14-2.57,0-3.68.04l-2.38-.03,1.28,3.05h6.26ZM49.45,24.3v-2.29c0-.31-.77-.75-1.09-.76-1.04-.03-2.14.01-3.2-.01-.84-.02-1.69.02-2.53,0l1.28,3.05h5.54ZM49.45,27.11H14.45v17.13c0,.36.89.83,1.24.77h32.35c.5.13,1.4-.54,1.4-1.01v-16.89Z"/>
    <path class="cls-3" d="M25.72,29.06c.35-.33.93-.46,1.39-.29l10.96,5.97c1.16.78.99,1.85-.13,2.57-3.3,2.09-7.27,3.68-10.62,5.75-.7.35-1.83.1-1.87-.68-.04-.91-.08-1.72-.08-2.56-.03-3.18-.17-6.55-.07-9.71.01-.33.17-.82.41-1.06ZM28.1,32.57v6.82l6.34-3.41-6.34-3.41Z"/>
  </g>
</svg>