<?xml version="1.0" encoding="UTF-8"?>
<svg id="Layer_1" data-name="Layer 1" xmlns="http://www.w3.org/2000/svg" xmlns:xlink="http://www.w3.org/1999/xlink" viewBox="0 0 64 64">
  <defs>
    <style>
      .cls-1 {
        fill: url(#radial-gradient);
      }

      .cls-2 {
        fill: #4ea69c;
      }

      .cls-3 {
        fill: rgba(49, 114, 107, .1);
      }
    </style>
    <radialGradient id="radial-gradient" cx="-932.86" cy="766.9" fx="-932.86" fy="766.9" r="1" gradientTransform="translate(7185.32 56266.91) rotate(45) scale(45.25 -45.25) skewX(-4.29)" gradientUnits="userSpaceOnUse">
      <stop offset="0" stop-color="#63d1c4" stop-opacity=".2"/>
      <stop offset="1" stop-color="#63d1c4" stop-opacity="0"/>
    </radialGradient>
  </defs>
  <g>
    <rect class="cls-3" width="64" height="64"/>
    <rect class="cls-1" width="64" height="64" rx="15.41" ry="15.41"/>
  </g>
  <g>
    <path class="cls-2" d="M39.39,23.51h7.67c1,0,1.95.78,2.52,1.57,2.1,2.89,3.74,6.44,5.85,9.37.14.4.42.9.45,1.32.2,2.32-.15,4.95,0,7.3-.16.7-.35,1.28-.79,1.83-1.54,1.92-3.57,1.29-5.69,1.39-.13,2.05-1.6,3.97-3.47,4.54-3.07.93-6.16-1.26-6.48-4.59h-14.99c-.36,3.48-3.52,5.64-6.72,4.5-1.72-.62-3.14-2.5-3.17-4.45-1.64-.07-3.41.31-4.83-.73-.95-.7-1.48-1.76-1.66-2.95v-21.16c.36-1.94,1.7-3.32,3.6-3.45,1.55-.11,3.21.1,4.77,0,2.24-2.78,5.44-4.07,8.89-3.44,2.28.42,4.14,1.69,5.64,3.5.89.01,1.79.02,2.68.01,1.7-.01,3.06-.33,4.48.95.61.55,1.26,1.69,1.26,2.55v1.94ZM30.47,24.24c0-3.96-3.05-7.18-6.81-7.18s-6.81,3.21-6.81,7.18,3.05,7.18,6.81,7.18,6.81-3.21,6.81-7.18ZM24.03,43.56h12.8s.07.11.08.03c.02-6.72-.03-13.45,0-20.17,0-.61.15-1.44-.1-2.04-.14-.33-.69-.77-1.03-.77h-3.49c1.52,4.22.28,8.92-3.17,11.58-4.63,3.58-11.05,1.91-13.71-3.37-1.29-2.55-1.37-5.59-.38-8.27-.83.13-1.66-.04-2.5,0-.9.04-1.89.13-2,1.31-.18,1.89,0,3.96,0,5.85.02,4.41,0,8.82,0,13.22,0,.5-.07.97,0,1.5.08.61.49,1.04,1.07,1.13h3.34c2.01-3.82,7.02-3.71,9.08,0ZM39.39,26.17v17.42c.06.11.42.12.49.08.02-.02.22-.45.28-.54,1.84-2.87,5.65-3.38,7.92-.75.31.36.5.84.77,1.16.05.07.1.13.19.14,1-.06,2.09.09,3.08,0s1.37-.68,1.34-1.68h-2.28c-.05,0-.41-.1-.48-.13-.71-.28-.98-1.36-.56-2.01.11-.18.57-.58.77-.58h2.47l.08-.09v-2.78c-.24-.2-.62-.03-.9-.03-1.11.03-2.2-.07-3.3-.06-2.16,0-4.62.23-6.76.06-.78-.06-1.29-.41-1.45-1.25.11-1.78-.15-3.75,0-5.5.05-.57.33-1.17.89-1.32.08-.02.45-.1.51-.1h6.07l-1.25-1.97c-.16-.01-.31-.05-.48-.06-1.99-.12-4.06.02-6.04.06-.45,0-.9,0-1.35-.06ZM50.02,30.87h-6.46v2.84h8.3s-1.66-2.69-1.66-2.69c-.04-.05-.13-.14-.18-.15ZM46.8,45.83c0-1.41-1.08-2.55-2.42-2.55s-2.42,1.14-2.42,2.55,1.08,2.55,2.42,2.55,2.42-1.14,2.42-2.55ZM21.88,45.9c0-1.39-1.07-2.52-2.39-2.52s-2.39,1.13-2.39,2.52,1.07,2.52,2.39,2.52,2.39-1.13,2.39-2.52Z"/>
    <path class="cls-2" d="M17.89,36.16l11.47-.02c1.73.17,1.82,2.43.17,2.78h-11.54c-1.68-.08-1.77-2.59-.1-2.77Z"/>
    <path class="cls-2" d="M24.77,23.39h1.4c.46,0,1.03.48,1.11.97.14.89-.32,1.51-1.17,1.58-.57.05-2.52.07-3-.09s-.73-.67-.77-1.16c-.09-1.14-.08-3.15,0-4.29.07-1,.9-1.56,1.78-1.12.32.16.64.7.64,1.06v3.04Z"/>
  </g>
</svg>