<svg width="24" height="25" viewBox="0 0 24 25" fill="none" xmlns="http://www.w3.org/2000/svg">
<g clip-path="url(#clip0_40008414_6624)">
<path d="M19.5001 16.0807V18.3307C19.5006 18.5395 19.4576 18.7461 19.3738 18.9373C19.2901 19.1286 19.1673 19.3002 19.0135 19.4414C18.8596 19.5825 18.678 19.69 18.4803 19.7571C18.2826 19.8241 18.073 19.8492 17.8651 19.8307C15.5574 19.58 13.3407 18.7915 11.3931 17.5287C9.58094 16.3772 8.04457 14.8408 6.89307 13.0287C5.62532 11.072 4.83635 8.84415 4.59007 6.5257C4.57133 6.31826 4.59599 6.10918 4.66249 5.9118C4.72899 5.71441 4.83586 5.53304 4.97631 5.37923C5.11677 5.22542 5.28771 5.10255 5.47826 5.01844C5.66881 4.93433 5.87479 4.89082 6.08307 4.8907H8.33307C8.69705 4.88712 9.04992 5.01601 9.32589 5.25335C9.60187 5.49069 9.78213 5.82028 9.83307 6.1807C9.928 6.90092 10.1041 7.60808 10.3581 8.2887C10.4588 8.55712 10.4805 8.84879 10.4206 9.12917C10.3607 9.40954 10.2217 9.66688 10.0201 9.8707L9.06807 10.8237C10.1357 12.7014 11.6904 14.256 13.5681 15.3237L14.5201 14.3707C14.7241 14.169 14.9816 14.0301 15.2622 13.9704C15.5428 13.9106 15.8346 13.9326 16.1031 14.0337C16.7831 14.2867 17.4901 14.4637 18.2101 14.5587C18.5743 14.6101 18.907 14.7935 19.1448 15.0741C19.3826 15.3547 19.5091 15.713 19.5001 16.0807Z" stroke="#18181B" stroke-width="1.5" stroke-linecap="round" stroke-linejoin="round"/>
</g>
<defs>
<clipPath id="clip0_40008414_6624">
<rect width="24" height="24" fill="white" transform="translate(0 0.390625)"/>
</clipPath>
</defs>
</svg>
