<svg width="10" height="6" viewBox="0 0 10 6" fill="none" xmlns="http://www.w3.org/2000/svg">
<path d="M5.16004 5.70833C5.07792 5.70872 4.99656 5.6927 4.92071 5.66122C4.84487 5.62974 4.77608 5.58343 4.71838 5.525L0.551708 1.35833C0.468604 1.23675 0.431102 1.08973 0.445817 0.943198C0.460531 0.796666 0.526517 0.660036 0.632136 0.557406C0.737755 0.454776 0.876222 0.392739 1.02312 0.382236C1.17001 0.371734 1.3159 0.41344 1.43504 0.5L5.16004 4.2L8.88504 0.5C9.00251 0.423841 9.14214 0.389324 9.28156 0.40198C9.42098 0.414636 9.55211 0.473733 9.65394 0.5698C9.75577 0.665866 9.8224 0.793337 9.84315 0.931784C9.8639 1.07023 9.83757 1.21164 9.76838 1.33333L5.60171 5.5C5.54615 5.56297 5.47832 5.61392 5.40238 5.64975C5.32643 5.68557 5.24397 5.70551 5.16004 5.70833Z" fill="#14A99C"/>
</svg>
