<svg width="46" height="44" viewBox="0 0 46 44" fill="none" xmlns="http://www.w3.org/2000/svg">
<path d="M36.2387 43.0105C35.9379 43.01 35.642 42.9339 35.3783 42.7892L23.4554 36.5205L11.5324 42.7892C11.2295 42.9519 10.8871 43.0266 10.5439 43.0048C10.2007 42.9831 9.87041 42.8659 9.59037 42.6663C9.31077 42.4613 9.0937 42.1826 8.96345 41.8614C8.83321 41.5401 8.79492 41.1889 8.85286 40.8471L11.1637 27.5721L1.47787 18.1813C1.23511 17.9383 1.06506 17.6323 0.986879 17.2979C0.908695 16.9634 0.925489 16.6138 1.03537 16.2884C1.13829 15.9618 1.33132 15.6708 1.59225 15.449C1.85318 15.2272 2.17142 15.0836 2.51037 15.0346L15.8345 13.0925L21.8083 1.02213C21.9783 0.736897 22.2195 0.500706 22.5082 0.336682C22.7969 0.172659 23.1233 0.0864258 23.4554 0.0864258C23.7874 0.0864258 24.1138 0.172659 24.4025 0.336682C24.6912 0.500706 24.9324 0.736897 25.1024 1.02213L31.0762 13.0925L44.4004 15.0346C44.7393 15.0836 45.0575 15.2272 45.3185 15.449C45.5794 15.6708 45.7724 15.9618 45.8754 16.2884C45.9852 16.6138 46.002 16.9634 45.9239 17.2979C45.8457 17.6323 45.6756 17.9383 45.4329 18.1813L35.747 27.5721L38.0333 40.8471C38.0912 41.1889 38.0529 41.5401 37.9227 41.8614C37.7924 42.1826 37.5754 42.4613 37.2958 42.6663C36.9845 42.8816 36.6171 43.0012 36.2387 43.0105ZM23.4554 32.6117C23.7529 32.6153 24.0463 32.6823 24.3158 32.8084L33.7804 37.725L31.9858 27.1788C31.9371 26.883 31.9584 26.5799 32.0481 26.2939C32.1378 26.0078 32.2932 25.7468 32.502 25.5317L40.172 18.1567L29.5766 16.5834C29.2836 16.5368 29.0059 16.421 28.7665 16.2457C28.5271 16.0705 28.3329 15.8407 28.1999 15.5755L23.4554 5.98796L18.7108 15.6C18.5778 15.8653 18.3836 16.0951 18.1442 16.2703C17.9048 16.4456 17.6271 16.5613 17.3341 16.608L6.7387 18.1567L14.4087 25.5317C14.6175 25.7468 14.773 26.0078 14.8626 26.2939C14.9523 26.5799 14.9736 26.883 14.9249 27.1788L13.1304 37.7988L22.5949 32.8821C22.8586 32.7304 23.1523 32.6381 23.4554 32.6117Z" fill="#FFCB00"/>
</svg>
