<svg width="17" height="16" viewBox="0 0 17 16" fill="none" xmlns="http://www.w3.org/2000/svg">
<path d="M2.89001 4.5C3.99458 4.5 4.89001 3.60457 4.89001 2.5C4.89001 1.39543 3.99458 0.5 2.89001 0.5C1.78545 0.5 0.890015 1.39543 0.890015 2.5C0.890015 3.60457 1.78545 4.5 2.89001 4.5Z" stroke="#59D499"/>
<path d="M2.89001 15.5C3.99458 15.5 4.89001 14.6046 4.89001 13.5C4.89001 12.3954 3.99458 11.5 2.89001 11.5C1.78545 11.5 0.890015 12.3954 0.890015 13.5C0.890015 14.6046 1.78545 15.5 2.89001 15.5Z" stroke="#59D499"/>
<path d="M11.89 15.5C12.9946 15.5 13.89 14.6046 13.89 13.5C13.89 12.3954 12.9946 11.5 11.89 11.5C10.7854 11.5 9.89001 12.3954 9.89001 13.5C9.89001 14.6046 10.7854 15.5 11.89 15.5Z" stroke="#59D499"/>
<path d="M2.89001 12V4" stroke="#59D499"/>
<path d="M12.39 12V4.5H11.39V12H12.39ZM9.89001 2H8.39001V3H9.89001V2ZM12.39 4.5C12.39 4.1717 12.3254 3.84661 12.1997 3.54329C12.0741 3.23998 11.8899 2.96438 11.6578 2.73223C11.4256 2.50009 11.15 2.31594 10.8467 2.1903C10.5434 2.06466 10.2183 2 9.89001 2V3C10.2878 3 10.6694 3.15804 10.9507 3.43934C11.232 3.72064 11.39 4.10218 11.39 4.5H12.39Z" fill="#59D499"/>
<path d="M9.39001 5V0L6.39001 2.5L9.39001 5Z" fill="#59D499"/>
</svg>
