<svg width="36" height="39" viewBox="0 0 36 39" fill="none" xmlns="http://www.w3.org/2000/svg">
<g clip-path="url(#clip0_40007783_6641)">
<path d="M30.4477 32.6495C30.0759 32.4729 29.7282 32.2963 29.4044 32.114C32.978 30.439 35.3344 26.9239 35.3344 23.1296V10.6528C35.3344 5.12087 30.5976 0.620117 24.7755 0.620117H11.2245C5.4024 0.620117 0.665556 5.12087 0.665556 10.6528V23.2093C0.665556 26.9808 2.99201 30.4789 6.53564 32.1652C6.22385 32.3362 5.88807 32.5242 5.53431 32.735C0.233844 35.5664 0 35.9766 0 36.9565C0 37.5604 0.317788 38.0903 0.8994 38.4207C1.02532 38.4834 1.36109 38.6201 1.75083 38.6201H34.2372C34.2372 38.6201 34.471 38.5518 34.555 38.5233C34.7648 38.4663 34.9567 38.4093 35.1306 38.3239C35.6822 38.0105 36 37.4807 36 36.8768C36 35.8969 35.7662 35.4924 30.4477 32.6495ZM3.99933 23.1353V10.6585C3.99933 6.86989 7.24317 3.79343 11.2245 3.79343H24.8534C28.8408 3.79343 32.0786 6.87559 32.0786 10.6585V23.215C32.0786 27.0036 28.8348 30.0801 24.8534 30.0801H11.6442V30.0003H11.2245C7.23717 30.0003 3.99933 26.9182 3.99933 23.1353ZM7.30313 35.3727C9.1559 34.3757 11.0266 33.4471 11.7222 33.1679H24.4337C25.1113 33.4642 26.982 34.4042 28.8228 35.3727H7.30313Z" fill="url(#paint0_linear_40007783_6641)"/>
<path d="M18.0415 25.585C23.0841 25.585 27.1914 21.6881 27.1914 16.8911C27.1914 12.0941 23.0901 8.19727 18.0415 8.19727C12.9929 8.19727 8.8916 12.0941 8.8916 16.8911C8.8916 21.6881 12.9929 25.585 18.0415 25.585ZM18.0415 11.3706C21.1954 11.3706 23.8576 13.9001 23.8576 16.8968C23.8576 19.8935 21.1954 22.4231 18.0415 22.4231C14.8876 22.4231 12.2254 19.8935 12.2254 16.8968C12.2254 13.9001 14.8876 11.3706 18.0415 11.3706Z" fill="url(#paint1_linear_40007783_6641)"/>
</g>
<defs>
<linearGradient id="paint0_linear_40007783_6641" x1="18" y1="0.620117" x2="18" y2="38.6201" gradientUnits="userSpaceOnUse">
<stop stop-color="#3BEEE2"/>
<stop offset="1" stop-color="#05A194" stop-opacity="0.7"/>
</linearGradient>
<linearGradient id="paint1_linear_40007783_6641" x1="18.0415" y1="8.19727" x2="18.0415" y2="25.585" gradientUnits="userSpaceOnUse">
<stop stop-color="#3BEEE2"/>
<stop offset="1" stop-color="#05A194" stop-opacity="0.7"/>
</linearGradient>
<clipPath id="clip0_40007783_6641">
<rect width="36" height="38" fill="white" transform="translate(0 0.620117)"/>
</clipPath>
</defs>
</svg>
