<svg width="32" height="32" viewBox="0 0 32 32" fill="none" xmlns="http://www.w3.org/2000/svg">
<path d="M13.476 12.3855L4.09596 22.4435C3.71159 22.8671 3.49866 23.4185 3.49866 23.9905C3.49866 24.5625 3.71159 25.1139 4.09596 25.5375L6.26196 27.8575C6.44423 28.0594 6.66684 28.2208 6.91541 28.3313C7.16397 28.4418 7.43295 28.4989 7.70496 28.4989C7.97697 28.4989 8.24595 28.4418 8.49451 28.3313C8.74308 28.2208 8.96569 28.0594 9.14796 27.8575L18.524 17.8015M13.476 12.3855L14.196 11.6115C14.5803 11.1879 14.7933 10.6365 14.7933 10.0645C14.7933 9.49254 14.5803 8.94106 14.196 8.5175L12.032 6.1975L12.752 5.4215C15.144 2.8595 19.02 2.8595 21.412 5.4215L27.902 12.3855C28.7 13.2395 28.7 14.6255 27.902 15.4795L25.74 17.7995C25.5577 18.0011 25.3352 18.1622 25.0868 18.2725C24.8385 18.3828 24.5697 18.4397 24.298 18.4397C24.0262 18.4397 23.7575 18.3828 23.5091 18.2725C23.2607 18.1622 23.0382 18.0011 22.856 17.7995L22.134 17.0275C21.9517 16.8256 21.7291 16.6642 21.4805 16.5537C21.232 16.4432 20.963 16.3861 20.691 16.3861C20.419 16.3861 20.15 16.4432 19.9014 16.5537C19.6528 16.6642 19.4302 16.8256 19.248 17.0275L18.528 17.8015M13.476 12.3855L18.524 17.7995" stroke="white" stroke-width="3" stroke-linecap="round" stroke-linejoin="round"/>
</svg>
