<?xml version="1.0" encoding="UTF-8"?>
<svg id="Layer_1" data-name="Layer 1" xmlns="http://www.w3.org/2000/svg" viewBox="0 0 64 64">
  <defs>
    <style>
      .cls-1 {
        fill: #4ea49b;
      }

      .cls-2 {
        fill: #00746b;
        opacity: .1;
      }
    </style>
  </defs>
  <rect class="cls-2" x="0" width="64" height="64"/>
  <g>
    <path class="cls-1" d="M39.22,14.46h-14.45c-2.28,0-4.13,1.85-4.13,4.13v26.83c0,2.28,1.85,4.13,4.13,4.13h14.45c2.28,0,4.13-1.85,4.13-4.13v-26.83c0-2.28-1.85-4.13-4.13-4.13ZM24.78,16.52h14.45c1.14,0,2.06.93,2.06,2.06h-4.44l-3.1,2.06h-3.5l-3.1-2.06h-4.44c0-1.14.93-2.06,2.06-2.06ZM38.12,31.93c0-3.41-2.78-6.19-6.19-6.19s-6.19,2.78-6.19,6.19c0,1.93,1.81,5.35,3.66,8.32h-6.69v-19.61h3.82l3.1,2.06h4.75l3.1-2.06h3.82v19.61h-6.83c1.85-2.98,3.66-6.39,3.66-8.32ZM32.02,40.26h-.17c-2.5-3.88-4.04-7.04-4.04-8.32,0-2.28,1.85-4.13,4.13-4.13s4.13,1.85,4.13,4.13c0,1.28-1.54,4.44-4.04,8.32ZM39.22,47.48h-14.45c-1.14,0-2.06-.93-2.06-2.06v-3.1h18.58v3.1c0,1.14-.93,2.06-2.06,2.06Z"/>
    <path class="cls-1" d="M30.97,44.38h2.06v2.06h-2.06v-2.06Z"/>
    <path class="cls-1" d="M30.97,30.9h2.06v2.06h-2.06v-2.06Z"/>
  </g>
</svg>