<?xml version="1.0" encoding="UTF-8"?>
<svg id="Layer_1" data-name="Layer 1" xmlns="http://www.w3.org/2000/svg" viewBox="0 0 64 64">
  <defs>
    <style>
      .cls-1 {
        fill: #4ea69c;
      }

      .cls-2 {
        fill: #00746b;
        opacity: .1;
      }
    </style>
  </defs>
  <rect class="cls-2" width="64" height="64"/>
  <g>
    <path class="cls-1" d="M18.14,13.89v21.82c0,1.84.48,3.65,1.38,5.25.9,1.6,2.21,2.95,3.78,3.89l8.7,5.26,8.7-5.26c1.57-.95,2.88-2.3,3.78-3.89s1.38-3.41,1.38-5.25V13.89h-27.73ZM43.74,35.71c0,2.98-1.58,5.79-4.13,7.33l-7.61,4.59-7.61-4.59c-2.55-1.54-4.13-4.35-4.13-7.33v-19.69h23.48v19.69Z"/>
    <path class="cls-1" d="M35.68,30.98c0-2.03-1.65-3.68-3.68-3.68s-3.68,1.65-3.68,3.68v2.06h-1.7v8.5h10.76v-8.5h-1.7v-2.06ZM30.44,30.98c0-.86.7-1.56,1.56-1.56s1.56.7,1.56,1.56v2.06h-3.11v-2.06ZM35.26,39.42h-6.51v-4.26h6.51v4.26Z"/>
    <path class="cls-1" d="M32,20.5c1.95,0,3.78.86,5.05,2.35l1.62-1.37c-1.67-1.97-4.1-3.1-6.67-3.1s-5,1.13-6.67,3.1l1.62,1.37c1.26-1.49,3.1-2.35,5.05-2.35h0Z"/>
    <path class="cls-1" d="M32,24.74c.7,0,1.36.31,1.81.84l1.62-1.37c-.86-1.01-2.1-1.59-3.43-1.59s-2.57.58-3.43,1.59l1.62,1.37c.45-.53,1.11-.84,1.81-.84h0Z"/>
  </g>
</svg>