<?xml version="1.0" encoding="UTF-8"?>
<svg xmlns="http://www.w3.org/2000/svg" xmlns:xlink="http://www.w3.org/1999/xlink" viewBox="0 0 18.5 16">
  <defs>
    <style>
      .cls-1 {
        mix-blend-mode: screen;
      }

      .cls-1, .cls-2 {
        isolation: isolate;
      }

      .cls-3 {
        fill: url(#linear-gradient-2);
      }

      .cls-4 {
        fill: url(#linear-gradient);
      }

      .cls-5 {
        fill: #fff;
      }

      .cls-6 {
        opacity: .5;
      }
    </style>
    <linearGradient id="linear-gradient" x1="1.31" y1="7.32" x2="17.19" y2="7.32" gradientUnits="userSpaceOnUse">
      <stop offset="0" stop-color="#3eccc3"/>
      <stop offset=".03" stop-color="#2abdb2"/>
      <stop offset=".07" stop-color="#19b0a4"/>
      <stop offset=".12" stop-color="#0da79b"/>
      <stop offset=".18" stop-color="#06a295"/>
      <stop offset=".37" stop-color="#05a194"/>
      <stop offset="1" stop-color="#3beee2"/>
    </linearGradient>
    <linearGradient id="linear-gradient-2" x1="6.29" y1="10.66" x2="12.21" y2="10.66" xlink:href="#linear-gradient"/>
  </defs>
  <g class="cls-2">
    <g id="Layer_1" data-name="Layer 1">
      <g>
        <g class="cls-1">
          <path class="cls-4" d="M16.81,6.27l-1.16-.23c-.13-.42-.3-.83-.51-1.22l.66-.99c.12-.19.1-.43-.06-.59l-1.76-1.76c-.16-.16-.4-.18-.59-.06l-.99.66c-.39-.21-.8-.38-1.22-.51l-.23-1.16c-.04-.22-.24-.38-.46-.38h-2.49c-.22,0-.41.16-.46.38l-.23,1.16c-.42.13-.83.3-1.22.51l-.99-.66c-.19-.12-.43-.1-.59.06l-1.76,1.76c-.16.16-.18.4-.06.59l.66.99c-.21.39-.38.8-.51,1.22l-1.16.23c-.22.04-.38.24-.38.46v2.49c0,.22.16.41.38.46l1.16.23c.13.42.3.83.51,1.22l-.66.99c-.12.19-.1.43.06.59l1.76,1.76c.16.16.4.18.59.06l.97-.64v-2.93c-.73-.78-1.18-1.82-1.18-2.98,0-2.41,1.95-4.36,4.36-4.36s4.36,1.95,4.36,4.36c0,1.15-.45,2.2-1.18,2.98v2.93l.97.64c.08.05.17.08.26.08.12,0,.24-.05.33-.14l1.76-1.76c.16-.16.18-.4.06-.59l-.66-.99c.21-.39.38-.8.51-1.22l1.16-.23c.22-.04.38-.24.38-.46v-2.49c0-.22-.16-.41-.38-.46h0Z"/>
          <path class="cls-3" d="M10.73,5.41c-.23-.14-.53,0-.57.28l-.28,1.97h-1.24l-.28-1.97c-.04-.27-.34-.41-.57-.28-.91.53-1.48,1.51-1.48,2.56,0,1.14.64,2.16,1.66,2.66l.05.02v4.85c0,.26.21.47.47.47h1.56c.26,0,.47-.21.47-.47v-4.85l.05-.02c1.03-.5,1.66-1.52,1.66-2.66,0-1.05-.57-2.03-1.48-2.56h0Z"/>
        </g>
        <g class="cls-6">
          <path class="cls-5" d="M16.81,6.27l-1.16-.23c-.13-.42-.3-.83-.51-1.22l.66-.99c.12-.19.1-.43-.06-.59l-1.76-1.76c-.16-.16-.4-.18-.59-.06l-.99.66c-.39-.21-.8-.38-1.22-.51l-.23-1.16c-.04-.22-.24-.38-.46-.38h-2.49c-.22,0-.41.16-.46.38l-.23,1.16c-.42.13-.83.3-1.22.51l-.99-.66c-.19-.12-.43-.1-.59.06l-1.76,1.76c-.16.16-.18.4-.06.59l.66.99c-.21.39-.38.8-.51,1.22l-1.16.23c-.22.04-.38.24-.38.46v2.49c0,.22.16.41.38.46l1.16.23c.13.42.3.83.51,1.22l-.66.99c-.12.19-.1.43.06.59l1.76,1.76c.16.16.4.18.59.06l.97-.64v-2.93c-.73-.78-1.18-1.82-1.18-2.98,0-2.41,1.95-4.36,4.36-4.36s4.36,1.95,4.36,4.36c0,1.15-.45,2.2-1.18,2.98v2.93l.97.64c.08.05.17.08.26.08.12,0,.24-.05.33-.14l1.76-1.76c.16-.16.18-.4.06-.59l-.66-.99c.21-.39.38-.8.51-1.22l1.16-.23c.22-.04.38-.24.38-.46v-2.49c0-.22-.16-.41-.38-.46h0Z"/>
          <path class="cls-5" d="M10.73,5.41c-.23-.14-.53,0-.57.28l-.28,1.97h-1.24l-.28-1.97c-.04-.27-.34-.41-.57-.28-.91.53-1.48,1.51-1.48,2.56,0,1.14.64,2.16,1.66,2.66l.05.02v4.85c0,.26.21.47.47.47h1.56c.26,0,.47-.21.47-.47v-4.85l.05-.02c1.03-.5,1.66-1.52,1.66-2.66,0-1.05-.57-2.03-1.48-2.56h0Z"/>
        </g>
      </g>
    </g>
  </g>
</svg>