<?xml version="1.0" encoding="UTF-8"?>
<svg xmlns="http://www.w3.org/2000/svg" xmlns:xlink="http://www.w3.org/1999/xlink" viewBox="0 0 18.5 16">
  <defs>
    <style>
      .cls-1 {
        fill: #fff;
        opacity: .5;
      }

      .cls-2, .cls-3 {
        isolation: isolate;
      }

      .cls-3 {
        fill: url(#linear-gradient);
        mix-blend-mode: screen;
      }
    </style>
    <linearGradient id="linear-gradient" x1="1.58" y1="8" x2="16.92" y2="8" gradientUnits="userSpaceOnUse">
      <stop offset="0" stop-color="#3eccc3"/>
      <stop offset=".03" stop-color="#2abdb2"/>
      <stop offset=".07" stop-color="#19b0a4"/>
      <stop offset=".12" stop-color="#0da79b"/>
      <stop offset=".18" stop-color="#06a295"/>
      <stop offset=".37" stop-color="#05a194"/>
      <stop offset="1" stop-color="#3beee2"/>
    </linearGradient>
  </defs>
  <g class="cls-2">
    <g id="Layer_1" data-name="Layer 1">
      <g>
        <path class="cls-3" d="M12.66,12.5c.24.39.31.85.2,1.29-.11.44-.38.82-.77,1.05l-1.41.86c-.27.16-.58.25-.88.25-.28,0-.55-.07-.81-.2-2.97-1.54-4.66-3.82-5.41-5.05-1.65-2.71-2-5.39-2-7.15,0-.59.31-1.14.82-1.45l1.41-.86c.39-.24.85-.31,1.29-.2.44.11.82.38,1.05.77l.89,1.46c.49.8.23,1.86-.57,2.34l-.73.45c-.22.13-.33.4-.25.64.24.78.58,1.53,1.01,2.23.42.7.94,1.34,1.52,1.92.18.18.46.21.69.07l.73-.45c.8-.49,1.86-.23,2.34.57l.89,1.46h0ZM9.3,5.67c1.24.19,2.09,1.36,1.9,2.59-.05.31.16.6.48.65.03,0,.06,0,.09,0,.28,0,.52-.2.56-.48.29-1.86-.99-3.61-2.85-3.89-.31-.05-.6.16-.65.47-.05.31.16.6.47.65h0ZM9.82,2.3c-.31-.05-.6.16-.65.48-.05.31.16.6.48.65,1.2.19,2.26.83,2.98,1.81s1.01,2.18.83,3.38c-.05.31.16.6.48.65.03,0,.06,0,.09,0,.28,0,.52-.2.56-.48.23-1.5-.13-3-1.03-4.23s-2.22-2.03-3.72-2.26h0ZM10.17.05c-.31-.05-.6.16-.65.48-.05.31.16.6.48.65,3.72.57,6.28,4.07,5.7,7.79-.05.31.16.6.48.65.03,0,.06,0,.09,0,.28,0,.52-.2.56-.48C17.49,4.79,14.51.72,10.17.05h0Z"/>
        <path class="cls-1" d="M12.66,12.5c.24.39.31.85.2,1.29-.11.44-.38.82-.77,1.05l-1.41.86c-.27.16-.58.25-.88.25-.28,0-.55-.07-.81-.2-2.97-1.54-4.66-3.82-5.41-5.05-1.65-2.71-2-5.39-2-7.15,0-.59.31-1.14.82-1.45l1.41-.86c.39-.24.85-.31,1.29-.2.44.11.82.38,1.05.77l.89,1.46c.49.8.23,1.86-.57,2.34l-.73.45c-.22.13-.33.4-.25.64.24.78.58,1.53,1.01,2.23.42.7.94,1.34,1.52,1.92.18.18.46.21.69.07l.73-.45c.8-.49,1.86-.23,2.34.57l.89,1.46h0ZM9.3,5.67c1.24.19,2.09,1.36,1.9,2.59-.05.31.16.6.48.65.03,0,.06,0,.09,0,.28,0,.52-.2.56-.48.29-1.86-.99-3.61-2.85-3.89-.31-.05-.6.16-.65.47-.05.31.16.6.47.65h0ZM9.82,2.3c-.31-.05-.6.16-.65.48-.05.31.16.6.48.65,1.2.19,2.26.83,2.98,1.81s1.01,2.18.83,3.38c-.05.31.16.6.48.65.03,0,.06,0,.09,0,.28,0,.52-.2.56-.48.23-1.5-.13-3-1.03-4.23s-2.22-2.03-3.72-2.26h0ZM10.17.05c-.31-.05-.6.16-.65.48-.05.31.16.6.48.65,3.72.57,6.28,4.07,5.7,7.79-.05.31.16.6.48.65.03,0,.06,0,.09,0,.28,0,.52-.2.56-.48C17.49,4.79,14.51.72,10.17.05h0Z"/>
      </g>
    </g>
  </g>
</svg>