<?xml version="1.0" encoding="UTF-8"?>
<svg xmlns="http://www.w3.org/2000/svg" xmlns:xlink="http://www.w3.org/1999/xlink" viewBox="0 0 18.5 16">
  <defs>
    <style>
      .cls-1 {
        fill: #fff;
        opacity: .5;
      }

      .cls-2, .cls-3 {
        isolation: isolate;
      }

      .cls-3 {
        fill: url(#linear-gradient);
        mix-blend-mode: screen;
      }
    </style>
    <linearGradient id="linear-gradient" x1="1.02" y1="8" x2="17.48" y2="8" gradientUnits="userSpaceOnUse">
      <stop offset="0" stop-color="#3eccc3"/>
      <stop offset=".03" stop-color="#2abdb2"/>
      <stop offset=".07" stop-color="#19b0a4"/>
      <stop offset=".12" stop-color="#0da79b"/>
      <stop offset=".18" stop-color="#06a295"/>
      <stop offset=".37" stop-color="#05a194"/>
      <stop offset="1" stop-color="#3beee2"/>
    </linearGradient>
  </defs>
  <g class="cls-2">
    <g id="Layer_1" data-name="Layer 1">
      <g>
        <path class="cls-3" d="M1.72,0C1.33,0,1.02.31,1.02.7s.31.7.7.7h1.24c.21,0,.39.13.46.33l2.29,6.88c.1.31.11.63.04.95l-.19.76c-.28,1.11.59,2.21,1.73,2.21h8.35c.38,0,.7-.31.7-.7s-.31-.7-.7-.7H7.28c-.27,0-.44-.22-.38-.48l.14-.57c.05-.2.23-.34.43-.34h7.45c.3,0,.57-.19.66-.48l1.85-5.56c.15-.45-.19-.92-.66-.92H5.58c-.21,0-.39-.13-.46-.33l-.66-1.98C4.37.19,4.1,0,3.8,0H1.72ZM6.58,13.22c-.77,0-1.39.62-1.39,1.39s.62,1.39,1.39,1.39,1.39-.62,1.39-1.39-.62-1.39-1.39-1.39ZM14.93,13.22c-.77,0-1.39.62-1.39,1.39s.62,1.39,1.39,1.39,1.39-.62,1.39-1.39-.62-1.39-1.39-1.39Z"/>
        <path class="cls-1" d="M1.72,0C1.33,0,1.02.31,1.02.7s.31.7.7.7h1.24c.21,0,.39.13.46.33l2.29,6.88c.1.31.11.63.04.95l-.19.76c-.28,1.11.59,2.21,1.73,2.21h8.35c.38,0,.7-.31.7-.7s-.31-.7-.7-.7H7.28c-.27,0-.44-.22-.38-.48l.14-.57c.05-.2.23-.34.43-.34h7.45c.3,0,.57-.19.66-.48l1.85-5.56c.15-.45-.19-.92-.66-.92H5.58c-.21,0-.39-.13-.46-.33l-.66-1.98C4.37.19,4.1,0,3.8,0H1.72ZM6.58,13.22c-.77,0-1.39.62-1.39,1.39s.62,1.39,1.39,1.39,1.39-.62,1.39-1.39-.62-1.39-1.39-1.39ZM14.93,13.22c-.77,0-1.39.62-1.39,1.39s.62,1.39,1.39,1.39,1.39-.62,1.39-1.39-.62-1.39-1.39-1.39Z"/>
      </g>
    </g>
  </g>
</svg>