<?xml version="1.0" encoding="UTF-8"?>
<svg xmlns="http://www.w3.org/2000/svg" xmlns:xlink="http://www.w3.org/1999/xlink" viewBox="0 0 18.5 16">
  <defs>
    <style>
      .cls-1, .cls-2 {
        isolation: isolate;
      }

      .cls-2 {
        fill: url(#linear-gradient);
        mix-blend-mode: screen;
      }

      .cls-2, .cls-3 {
        fill-rule: evenodd;
      }

      .cls-3 {
        fill: #fff;
        opacity: .5;
      }
    </style>
    <linearGradient id="linear-gradient" x1="2.33" y1="8" x2="16.17" y2="8" gradientUnits="userSpaceOnUse">
      <stop offset="0" stop-color="#3eccc3"/>
      <stop offset=".03" stop-color="#2abdb2"/>
      <stop offset=".07" stop-color="#19b0a4"/>
      <stop offset=".12" stop-color="#0da79b"/>
      <stop offset=".18" stop-color="#06a295"/>
      <stop offset=".37" stop-color="#05a194"/>
      <stop offset="1" stop-color="#3beee2"/>
    </linearGradient>
  </defs>
  <g class="cls-1">
    <g id="Layer_1" data-name="Layer 1">
      <g>
        <path class="cls-2" d="M8.93,10.71v2.69h-4.85v-4.55c0-2.86,2.32-5.18,5.18-5.18s5.18,2.32,5.18,5.18v4.55h-4.99v-2.66c.61-.1,1.08-.63,1.08-1.27,0-.71-.58-1.29-1.29-1.29s-1.29.58-1.29,1.29c0,.6.41,1.1.97,1.25h0ZM5.56,8.71c0-1.97,1.6-3.57,3.57-3.57.14,0,.26-.12.26-.26s-.12-.26-.26-.26c-2.26,0-4.1,1.84-4.1,4.1,0,.14.12.26.26.26s.26-.12.26-.26ZM9.52,2.63c0,.14-.12.26-.26.26s-.26-.12-.26-.26V.27c0-.14.12-.26.26-.26s.26.12.26.26v2.36ZM11.69,3.16c-.05.13-.21.2-.34.14-.13-.05-.2-.21-.14-.34l.63-1.55c.05-.13.21-.2.34-.14.13.05.2.21.14.34l-.63,1.55ZM7.27,2.98c.06.13,0,.29-.14.34s-.29,0-.34-.14l-.65-1.54c-.06-.13,0-.29.14-.34.13-.06.29,0,.34.14l.65,1.54ZM13.52,4.5c-.1.1-.27.1-.37,0-.1-.1-.1-.27,0-.37l1.67-1.67c.1-.1.27-.1.37,0s.1.27,0,.37l-1.67,1.67ZM5.37,4.13c.1.1.1.27,0,.37s-.27.1-.37,0l-1.67-1.67c-.1-.1-.1-.27,0-.37s.27-.1.37,0l1.67,1.67ZM16.01,15.99H2.49c-.06,0-.11-.03-.14-.08-.03-.05-.03-.11,0-.16l1.04-1.74s.08-.08.14-.08h11.43c.06,0,.11.03.14.08l1.04,1.74c.03.05.03.11,0,.16-.03.05-.08.08-.14.08Z"/>
        <path class="cls-3" d="M8.93,10.71v2.69h-4.85v-4.55c0-2.86,2.32-5.18,5.18-5.18s5.18,2.32,5.18,5.18v4.55h-4.99v-2.66c.61-.1,1.08-.63,1.08-1.27,0-.71-.58-1.29-1.29-1.29s-1.29.58-1.29,1.29c0,.6.41,1.1.97,1.25h0ZM5.56,8.71c0-1.97,1.6-3.57,3.57-3.57.14,0,.26-.12.26-.26s-.12-.26-.26-.26c-2.26,0-4.1,1.84-4.1,4.1,0,.14.12.26.26.26s.26-.12.26-.26ZM9.52,2.63c0,.14-.12.26-.26.26s-.26-.12-.26-.26V.27c0-.14.12-.26.26-.26s.26.12.26.26v2.36ZM11.69,3.16c-.05.13-.21.2-.34.14-.13-.05-.2-.21-.14-.34l.63-1.55c.05-.13.21-.2.34-.14.13.05.2.21.14.34l-.63,1.55ZM7.27,2.98c.06.13,0,.29-.14.34s-.29,0-.34-.14l-.65-1.54c-.06-.13,0-.29.14-.34.13-.06.29,0,.34.14l.65,1.54ZM13.52,4.5c-.1.1-.27.1-.37,0-.1-.1-.1-.27,0-.37l1.67-1.67c.1-.1.27-.1.37,0s.1.27,0,.37l-1.67,1.67ZM5.37,4.13c.1.1.1.27,0,.37s-.27.1-.37,0l-1.67-1.67c-.1-.1-.1-.27,0-.37s.27-.1.37,0l1.67,1.67ZM16.01,15.99H2.49c-.06,0-.11-.03-.14-.08-.03-.05-.03-.11,0-.16l1.04-1.74s.08-.08.14-.08h11.43c.06,0,.11.03.14.08l1.04,1.74c.03.05.03.11,0,.16-.03.05-.08.08-.14.08Z"/>
      </g>
    </g>
  </g>
</svg>