<?xml version="1.0" encoding="UTF-8"?>
<svg xmlns="http://www.w3.org/2000/svg" xmlns:xlink="http://www.w3.org/1999/xlink" viewBox="0 0 18.5 16">
  <defs>
    <style>
      .cls-1 {
        mix-blend-mode: screen;
      }

      .cls-1, .cls-2 {
        isolation: isolate;
      }

      .cls-3 {
        fill: url(#linear-gradient-4);
      }

      .cls-4 {
        fill: url(#linear-gradient-3);
      }

      .cls-5 {
        fill: url(#linear-gradient-2);
      }

      .cls-6 {
        fill: url(#linear-gradient);
      }

      .cls-7 {
        fill: #fff;
      }

      .cls-8 {
        opacity: .5;
      }
    </style>
    <linearGradient id="linear-gradient" x1=".83" y1="11" x2="17.67" y2="11" gradientUnits="userSpaceOnUse">
      <stop offset="0" stop-color="#3eccc3"/>
      <stop offset=".03" stop-color="#2abdb2"/>
      <stop offset=".07" stop-color="#19b0a4"/>
      <stop offset=".12" stop-color="#0da79b"/>
      <stop offset=".18" stop-color="#06a295"/>
      <stop offset=".37" stop-color="#05a194"/>
      <stop offset="1" stop-color="#3beee2"/>
    </linearGradient>
    <linearGradient id="linear-gradient-2" x1="6.26" y1="2.43" x2="7.96" y2="2.43" xlink:href="#linear-gradient"/>
    <linearGradient id="linear-gradient-3" x1="9.11" y1="2.43" x2="10.81" y2="2.43" xlink:href="#linear-gradient"/>
    <linearGradient id="linear-gradient-4" x1="3.4" y1="2.43" x2="5.1" y2="2.43" xlink:href="#linear-gradient"/>
  </defs>
  <g class="cls-2">
    <g id="Layer_1" data-name="Layer 1">
      <g>
        <g class="cls-1">
          <path class="cls-6" d="M14.96,8.29h-1.57v-1.71c0-.32-.26-.57-.57-.57H1.4c-.32,0-.57.26-.57.57v3.14c0,3.46,2.82,6.28,6.28,6.28,1.87,0,3.65-.84,4.84-2.28h3.01c1.5,0,2.71-1.21,2.71-2.71s-1.21-2.71-2.71-2.71h0ZM14.96,12.57h-2.26c.45-.88.69-1.86.69-2.85v-.29h1.57c.87,0,1.57.7,1.57,1.57s-.7,1.57-1.57,1.57Z"/>
          <path class="cls-5" d="M6.82,3.36c0,.31-.07.43-.2.63-.16.27-.08.62.19.79s.62.08.79-.19c0,0,0,0,0,0,.15-.25.36-.6.36-1.22s-.21-.97-.36-1.22c-.12-.2-.2-.33-.2-.63s.07-.43.2-.63h0c.16-.27.08-.62-.19-.78-.27-.16-.62-.08-.78.19-.15.25-.36.6-.36,1.22s.21.97.36,1.22c.12.2.2.33.2.63Z"/>
          <path class="cls-4" d="M9.67,3.36c0,.31-.07.43-.2.63-.16.27-.08.62.19.79.27.16.62.08.79-.19,0,0,0,0,0,0,.15-.25.36-.6.36-1.22s-.21-.97-.36-1.22c-.12-.2-.2-.33-.2-.63s.07-.43.2-.63h0c.16-.27.08-.62-.19-.78-.27-.16-.62-.08-.78.19-.15.25-.36.6-.36,1.22s.21.97.36,1.22c.12.2.2.33.2.63h0Z"/>
          <path class="cls-3" d="M3.96,3.36c0,.31-.07.43-.2.63-.16.27-.08.62.19.79s.62.08.79-.19c0,0,0,0,0,0,.15-.25.36-.6.36-1.22s-.21-.97-.36-1.22c-.12-.2-.2-.33-.2-.63s.07-.43.2-.63h0c.16-.27.08-.62-.19-.78-.27-.16-.62-.08-.78.19-.15.25-.36.6-.36,1.22s.21.97.36,1.22c.12.2.2.33.2.63Z"/>
        </g>
        <g class="cls-8">
          <path class="cls-7" d="M14.96,8.29h-1.57v-1.71c0-.32-.26-.57-.57-.57H1.4c-.32,0-.57.26-.57.57v3.14c0,3.46,2.82,6.28,6.28,6.28,1.87,0,3.65-.84,4.84-2.28h3.01c1.5,0,2.71-1.21,2.71-2.71s-1.21-2.71-2.71-2.71h0ZM14.96,12.57h-2.26c.45-.88.69-1.86.69-2.85v-.29h1.57c.87,0,1.57.7,1.57,1.57s-.7,1.57-1.57,1.57Z"/>
          <path class="cls-7" d="M6.82,3.36c0,.31-.07.43-.2.63-.16.27-.08.62.19.79s.62.08.79-.19c0,0,0,0,0,0,.15-.25.36-.6.36-1.22s-.21-.97-.36-1.22c-.12-.2-.2-.33-.2-.63s.07-.43.2-.63h0c.16-.27.08-.62-.19-.78-.27-.16-.62-.08-.78.19-.15.25-.36.6-.36,1.22s.21.97.36,1.22c.12.2.2.33.2.63Z"/>
          <path class="cls-7" d="M9.67,3.36c0,.31-.07.43-.2.63-.16.27-.08.62.19.79.27.16.62.08.79-.19,0,0,0,0,0,0,.15-.25.36-.6.36-1.22s-.21-.97-.36-1.22c-.12-.2-.2-.33-.2-.63s.07-.43.2-.63h0c.16-.27.08-.62-.19-.78-.27-.16-.62-.08-.78.19-.15.25-.36.6-.36,1.22s.21.97.36,1.22c.12.2.2.33.2.63h0Z"/>
          <path class="cls-7" d="M3.96,3.36c0,.31-.07.43-.2.63-.16.27-.08.62.19.79s.62.08.79-.19c0,0,0,0,0,0,.15-.25.36-.6.36-1.22s-.21-.97-.36-1.22c-.12-.2-.2-.33-.2-.63s.07-.43.2-.63h0c.16-.27.08-.62-.19-.78-.27-.16-.62-.08-.78.19-.15.25-.36.6-.36,1.22s.21.97.36,1.22c.12.2.2.33.2.63Z"/>
        </g>
      </g>
    </g>
  </g>
</svg>