<?xml version="1.0" encoding="UTF-8"?>
<svg id="Layer_1" data-name="Layer 1" xmlns="http://www.w3.org/2000/svg" xmlns:xlink="http://www.w3.org/1999/xlink" viewBox="0 0 18.5 16">
  <defs>
    <style>
      .cls-1 {
        fill: url(#linear-gradient-3);
      }

      .cls-2 {
        fill: url(#linear-gradient-2);
      }

      .cls-3 {
        fill: url(#linear-gradient);
      }

      .cls-4 {
        fill: #fff;
      }

      .cls-5 {
        opacity: .5;
      }
    </style>
    <linearGradient id="linear-gradient" x1="3.17" y1="2.3" x2="15.33" y2="2.3" gradientUnits="userSpaceOnUse">
      <stop offset="0" stop-color="#3eccc3"/>
      <stop offset=".03" stop-color="#2abdb2"/>
      <stop offset=".07" stop-color="#19b0a4"/>
      <stop offset=".12" stop-color="#0da79b"/>
      <stop offset=".18" stop-color="#06a295"/>
      <stop offset=".37" stop-color="#05a194"/>
      <stop offset="1" stop-color="#3beee2"/>
    </linearGradient>
    <linearGradient id="linear-gradient-2" y1="7.2" y2="7.2" xlink:href="#linear-gradient"/>
    <linearGradient id="linear-gradient-3" y1="12.9" y2="12.9" xlink:href="#linear-gradient"/>
  </defs>
  <g>
    <path class="cls-3" d="M9.25,4.58c3.02,0,6.08-.78,6.08-2.28S12.27.01,9.25.01,3.17.8,3.17,2.3s3.06,2.28,6.08,2.28ZM11.91,1.92h.76c.21,0,.38.17.38.38s-.17.38-.38.38h-.76c-.21,0-.38-.17-.38-.38s.17-.38.38-.38Z"/>
    <path class="cls-2" d="M14.95,4.12c-1.34.87-3.63,1.22-5.7,1.22s-4.37-.35-5.7-1.22v3.04c-.23.22-.37.52-.38.84,0,1.5,3.06,2.28,6.08,2.28s6.08-.78,6.08-2.28c0-.32-.15-.62-.38-.84v-3.04Z"/>
    <path class="cls-1" d="M14.95,9.82c-1.34.87-3.63,1.22-5.7,1.22s-4.37-.35-5.7-1.22v3.04c-.23.22-.37.52-.38.84,0,1.5,3.06,2.28,6.08,2.28s6.08-.78,6.08-2.28c0-.32-.15-.62-.38-.84v-3.04Z"/>
  </g>
  <g class="cls-5">
    <path class="cls-4" d="M9.25,4.58c3.02,0,6.08-.78,6.08-2.28S12.27.01,9.25.01,3.17.8,3.17,2.3s3.06,2.28,6.08,2.28ZM11.91,1.92h.76c.21,0,.38.17.38.38s-.17.38-.38.38h-.76c-.21,0-.38-.17-.38-.38s.17-.38.38-.38Z"/>
    <path class="cls-4" d="M14.95,4.12c-1.34.87-3.63,1.22-5.7,1.22s-4.37-.35-5.7-1.22v3.04c-.23.22-.37.52-.38.84,0,1.5,3.06,2.28,6.08,2.28s6.08-.78,6.08-2.28c0-.32-.15-.62-.38-.84v-3.04Z"/>
    <path class="cls-4" d="M14.95,9.82c-1.34.87-3.63,1.22-5.7,1.22s-4.37-.35-5.7-1.22v3.04c-.23.22-.37.52-.38.84,0,1.5,3.06,2.28,6.08,2.28s6.08-.78,6.08-2.28c0-.32-.15-.62-.38-.84v-3.04Z"/>
  </g>
</svg>