<?xml version="1.0" encoding="UTF-8"?>
<svg xmlns="http://www.w3.org/2000/svg" xmlns:xlink="http://www.w3.org/1999/xlink" viewBox="0 0 18.5 16">
  <defs>
    <style>
      .cls-1 {
        mix-blend-mode: screen;
      }

      .cls-1, .cls-2 {
        isolation: isolate;
      }

      .cls-3 {
        fill: url(#linear-gradient-3);
      }

      .cls-4 {
        fill: url(#linear-gradient-2);
      }

      .cls-5 {
        fill: url(#linear-gradient);
      }

      .cls-6 {
        fill: #fff;
      }

      .cls-7 {
        opacity: .5;
      }
    </style>
    <linearGradient id="linear-gradient" x1="1.27" y1="6.72" x2="11.09" y2="6.72" gradientUnits="userSpaceOnUse">
      <stop offset="0" stop-color="#3eccc3"/>
      <stop offset=".03" stop-color="#2abdb2"/>
      <stop offset=".07" stop-color="#19b0a4"/>
      <stop offset=".12" stop-color="#0da79b"/>
      <stop offset=".18" stop-color="#06a295"/>
      <stop offset=".37" stop-color="#05a194"/>
      <stop offset="1" stop-color="#3beee2"/>
    </linearGradient>
    <linearGradient id="linear-gradient-2" x1="10.87" y1="12.02" x2="17.23" y2="12.02" xlink:href="#linear-gradient"/>
    <linearGradient id="linear-gradient-3" x1="11.08" y1="2.51" x2="15.11" y2="2.51" xlink:href="#linear-gradient"/>
  </defs>
  <g class="cls-2">
    <g id="Layer_1" data-name="Layer 1">
      <g>
        <g class="cls-1">
          <path class="cls-5" d="M6.47.82l-.29-.23c-.42.36-4.79,3.62-4.91,7.35,0,2.71,2.2,4.91,4.91,4.91s4.91-2.2,4.91-4.91C11.09,4.48,6.66.97,6.47.82h0ZM5.8,6.55c.2.16.58.31.92.43,1.3.42,1.18,2.29-.1,2.7v.62h-.94v-.57c-.35-.02-.83-.35-1.16-.57l.51-.78c.38.24.62.49,1.11.44.52,0,.84-.73.25-.96-.43-.15-.87-.33-1.18-.57-.74-.56-.38-1.84.47-2.12v-.59h.94v.52c.5.1.72.28,1.09.47l-.44.82c-.37-.16-.69-.5-1.26-.35-.21.09-.34.35-.22.51h0Z"/>
          <path class="cls-4" d="M14.34,8.3l-.29-.23c-.37.33-3.05,2.23-3.18,4.72,0,1.75,1.42,3.18,3.18,3.18s3.18-1.42,3.18-3.18c0-2.2-2.77-4.4-2.89-4.49h0Z"/>
          <path class="cls-3" d="M13.1,4.99c1.11,0,2.01-.9,2.01-2.01-.13-1.62-1.56-2.54-2.01-2.95-.45.4-1.89,1.33-2.01,2.95,0,1.11.9,2.01,2.01,2.01h0Z"/>
        </g>
        <g class="cls-7">
          <path class="cls-6" d="M6.47.82l-.29-.23c-.42.36-4.79,3.62-4.91,7.35,0,2.71,2.2,4.91,4.91,4.91s4.91-2.2,4.91-4.91C11.09,4.48,6.66.97,6.47.82h0ZM5.8,6.55c.2.16.58.31.92.43,1.3.42,1.18,2.29-.1,2.7v.62h-.94v-.57c-.35-.02-.83-.35-1.16-.57l.51-.78c.38.24.62.49,1.11.44.52,0,.84-.73.25-.96-.43-.15-.87-.33-1.18-.57-.74-.56-.38-1.84.47-2.12v-.59h.94v.52c.5.1.72.28,1.09.47l-.44.82c-.37-.16-.69-.5-1.26-.35-.21.09-.34.35-.22.51h0Z"/>
          <path class="cls-6" d="M14.34,8.3l-.29-.23c-.37.33-3.05,2.23-3.18,4.72,0,1.75,1.42,3.18,3.18,3.18s3.18-1.42,3.18-3.18c0-2.2-2.77-4.4-2.89-4.49h0Z"/>
          <path class="cls-6" d="M13.1,4.99c1.11,0,2.01-.9,2.01-2.01-.13-1.62-1.56-2.54-2.01-2.95-.45.4-1.89,1.33-2.01,2.95,0,1.11.9,2.01,2.01,2.01h0Z"/>
        </g>
      </g>
    </g>
  </g>
</svg>