<?xml version="1.0" encoding="UTF-8"?>
<svg xmlns="http://www.w3.org/2000/svg" xmlns:xlink="http://www.w3.org/1999/xlink" viewBox="0 0 18.5 16">
  <defs>
    <style>
      .cls-1 {
        fill: #fff;
        opacity: .5;
      }

      .cls-2, .cls-3 {
        isolation: isolate;
      }

      .cls-3 {
        fill: url(#linear-gradient);
        mix-blend-mode: screen;
      }
    </style>
    <linearGradient id="linear-gradient" x1="4.75" y1="8" x2="13.75" y2="8" gradientUnits="userSpaceOnUse">
      <stop offset="0" stop-color="#3eccc3"/>
      <stop offset=".03" stop-color="#2abdb2"/>
      <stop offset=".07" stop-color="#19b0a4"/>
      <stop offset=".12" stop-color="#0da79b"/>
      <stop offset=".18" stop-color="#06a295"/>
      <stop offset=".37" stop-color="#05a194"/>
      <stop offset="1" stop-color="#3beee2"/>
    </linearGradient>
  </defs>
  <g class="cls-2">
    <g id="Layer_1" data-name="Layer 1">
      <g>
        <path class="cls-3" d="M13.75,8.23v2.59c0,1.01-.37,1.98-1.03,2.74-.41.47-.61,1-.6,1.62v.56c0,.14-.11.25-.24.25,0,0,0,0,0,0h-4.8c-.14,0-.25-.11-.25-.25,0,0,0,0,0,0v-.56c0-.62-.19-1.15-.6-1.62-.67-.76-1.04-1.74-1.04-2.75v-2.2c0-.61.5-1.11,1.11-1.11h.13V2.79c0-.61.5-1.11,1.11-1.11h0c.61,0,1.11.5,1.11,1.11v3.56s.01-.01.02-.02c.36-.21.81-.21,1.17,0,.11.06.21.15.29.25.21-.24.53-.37.85-.37h0c.53,0,1.06.35,1.11,1.01.01,0,.03-.02.04-.02.33-.19.74-.19,1.07,0,.34.2.54.57.54,1.01ZM5.75,4.84c.14,0,.25-.11.25-.25,0-.07-.03-.13-.07-.18-.9-.89-.9-2.34,0-3.24.89-.9,2.34-.9,3.24,0,.9.89.9,2.34,0,3.24,0,0,0,0,0,0-.1.1-.1.26,0,.35s.26.1.35,0c1.09-1.09,1.09-2.85,0-3.94-1.09-1.09-2.85-1.09-3.94,0-1.09,1.09-1.09,2.85,0,3.94,0,0,0,0,0,0,.05.05.11.07.18.07h0Z"/>
        <path class="cls-1" d="M13.75,8.23v2.59c0,1.01-.37,1.98-1.03,2.74-.41.47-.61,1-.6,1.62v.56c0,.14-.11.25-.24.25,0,0,0,0,0,0h-4.8c-.14,0-.25-.11-.25-.25,0,0,0,0,0,0v-.56c0-.62-.19-1.15-.6-1.62-.67-.76-1.04-1.74-1.04-2.75v-2.2c0-.61.5-1.11,1.11-1.11h.13V2.79c0-.61.5-1.11,1.11-1.11h0c.61,0,1.11.5,1.11,1.11v3.56s.01-.01.02-.02c.36-.21.81-.21,1.17,0,.11.06.21.15.29.25.21-.24.53-.37.85-.37h0c.53,0,1.06.35,1.11,1.01.01,0,.03-.02.04-.02.33-.19.74-.19,1.07,0,.34.2.54.57.54,1.01ZM5.75,4.84c.14,0,.25-.11.25-.25,0-.07-.03-.13-.07-.18-.9-.89-.9-2.34,0-3.24.89-.9,2.34-.9,3.24,0,.9.89.9,2.34,0,3.24,0,0,0,0,0,0-.1.1-.1.26,0,.35s.26.1.35,0c1.09-1.09,1.09-2.85,0-3.94-1.09-1.09-2.85-1.09-3.94,0-1.09,1.09-1.09,2.85,0,3.94,0,0,0,0,0,0,.05.05.11.07.18.07h0Z"/>
      </g>
    </g>
  </g>
</svg>