<?xml version="1.0" encoding="UTF-8"?>
<svg id="Layer_1" data-name="Layer 1" xmlns="http://www.w3.org/2000/svg" xmlns:xlink="http://www.w3.org/1999/xlink" viewBox="0 0 18.5 16">
  <defs>
    <style>
      .cls-1 {
        fill: url(#linear-gradient-2);
      }

      .cls-2 {
        fill: url(#linear-gradient);
      }

      .cls-3 {
        fill: #fff;
      }

      .cls-4 {
        opacity: .5;
      }
    </style>
    <linearGradient id="linear-gradient" x1="1.28" y1="8" x2="17.22" y2="8" gradientUnits="userSpaceOnUse">
      <stop offset="0" stop-color="#3eccc3"/>
      <stop offset=".03" stop-color="#2abdb2"/>
      <stop offset=".07" stop-color="#19b0a4"/>
      <stop offset=".12" stop-color="#0da79b"/>
      <stop offset=".18" stop-color="#06a295"/>
      <stop offset=".37" stop-color="#05a194"/>
      <stop offset="1" stop-color="#3beee2"/>
    </linearGradient>
    <linearGradient id="linear-gradient-2" x1="8.19" y1="5.34" x2="15.62" y2="5.34" xlink:href="#linear-gradient"/>
  </defs>
  <g>
    <path class="cls-2" d="M1.28,1.92C1.28.88,2.13.03,3.17.03s1.84.8,1.88,1.81l.13,3.12c.05,1.14.5,2.22,1.27,3.05l1.8,1.94c.1.11.24.17.39.17h4.21c2.41,0,4.36,1.95,4.36,4.36,0,.82-.67,1.49-1.49,1.49H7.13c-.88,0-1.59-.71-1.59-1.59v-1.22c0-.12-.04-.24-.12-.33l-2.39-2.98c-1.13-1.41-1.75-3.17-1.75-4.98V1.92Z"/>
    <path class="cls-1" d="M8.19,5.34c0-2.05,1.66-3.72,3.72-3.72s3.72,1.66,3.72,3.72-1.66,3.72-3.72,3.72-3.72-1.66-3.72-3.72Z"/>
  </g>
  <g class="cls-4">
    <path class="cls-3" d="M1.28,1.92C1.28.88,2.13.03,3.17.03s1.84.8,1.88,1.81l.13,3.12c.05,1.14.5,2.22,1.27,3.05l1.8,1.94c.1.11.24.17.39.17h4.21c2.41,0,4.36,1.95,4.36,4.36,0,.82-.67,1.49-1.49,1.49H7.13c-.88,0-1.59-.71-1.59-1.59v-1.22c0-.12-.04-.24-.12-.33l-2.39-2.98c-1.13-1.41-1.75-3.17-1.75-4.98V1.92Z"/>
    <path class="cls-3" d="M8.19,5.34c0-2.05,1.66-3.72,3.72-3.72s3.72,1.66,3.72,3.72-1.66,3.72-3.72,3.72-3.72-1.66-3.72-3.72Z"/>
  </g>
</svg>