<?xml version="1.0" encoding="UTF-8"?>
<svg xmlns="http://www.w3.org/2000/svg" xmlns:xlink="http://www.w3.org/1999/xlink" viewBox="0 0 18.5 16">
  <defs>
    <style>
      .cls-1 {
        fill: #fff;
      }

      .cls-1, .cls-2 {
        fill-rule: evenodd;
      }

      .cls-3 {
        mix-blend-mode: screen;
      }

      .cls-3, .cls-4 {
        isolation: isolate;
      }

      .cls-5 {
        opacity: .5;
      }

      .cls-2 {
        fill: url(#linear-gradient);
      }
    </style>
    <linearGradient id="linear-gradient" x1="1.6" y1="8" x2="16.9" y2="8" gradientUnits="userSpaceOnUse">
      <stop offset="0" stop-color="#3eccc3"/>
      <stop offset=".03" stop-color="#2abdb2"/>
      <stop offset=".07" stop-color="#19b0a4"/>
      <stop offset=".12" stop-color="#0da79b"/>
      <stop offset=".18" stop-color="#06a295"/>
      <stop offset=".37" stop-color="#05a194"/>
      <stop offset="1" stop-color="#3beee2"/>
    </linearGradient>
  </defs>
  <g class="cls-4">
    <g id="Layer_1" data-name="Layer 1">
      <g>
        <g class="cls-3">
          <path class="cls-2" d="M6.47,12.1c-.04-.09-.1-.16-.17-.22,0,0,0,0,0,0-1.12-.86-1.83-2.22-1.83-3.74,0-2.64,2.14-4.78,4.78-4.78s4.78,2.14,4.78,4.78c0,1.52-.71,2.87-1.81,3.75,0,0,0,0-.01,0-.07.06-.13.13-.17.21h-5.57ZM7.22,8.93l1.09,1.09c.11.11.26.17.42.16.15,0,.3-.08.4-.2l2.19-2.73c.19-.24.15-.58-.09-.77-.24-.19-.58-.15-.77.08l-1.8,2.26-.66-.66c-.21-.21-.56-.21-.77,0s-.21.56,0,.77h0ZM11.99,13.19c0,.36,0,.75,0,1.09,0,.43-.17.85-.48,1.16-.31.31-.73.48-1.16.48h-2.19c-.43,0-.85-.17-1.16-.48-.31-.31-.48-.72-.48-1.16v-1.09h5.47ZM8.7.62c0-.3.25-.55.55-.55s.55.25.55.55v1.09c0,.3-.25.55-.55.55s-.55-.24-.55-.55V.62ZM15.26,8.82c-.3,0-.55-.25-.55-.55s.25-.55.55-.55h1.09c.3,0,.55.25.55.55s-.25.55-.55.55h-1.09ZM2.14,8.82c-.3,0-.55-.25-.55-.55s.25-.55.55-.55h1.09c.3,0,.55.25.55.55s-.25.55-.55.55h-1.09ZM14.72,2.03c.21-.21.56-.21.77,0s.21.56,0,.77l-.77.77c-.21.21-.56.21-.77,0-.21-.21-.21-.56,0-.77l.77-.77ZM3.01,2.81c-.21-.21-.21-.56,0-.77s.56-.21.77,0l.77.77c.21.21.21.56,0,.77-.21.21-.56.21-.77,0l-.77-.77Z"/>
        </g>
        <g class="cls-5">
          <path class="cls-1" d="M6.47,12.1c-.04-.09-.1-.16-.17-.22,0,0,0,0,0,0-1.12-.86-1.83-2.22-1.83-3.74,0-2.64,2.14-4.78,4.78-4.78s4.78,2.14,4.78,4.78c0,1.52-.71,2.87-1.81,3.75,0,0,0,0-.01,0-.07.06-.13.13-.17.21h-5.57ZM7.22,8.93l1.09,1.09c.11.11.26.17.42.16.15,0,.3-.08.4-.2l2.19-2.73c.19-.24.15-.58-.09-.77-.24-.19-.58-.15-.77.08l-1.8,2.26-.66-.66c-.21-.21-.56-.21-.77,0s-.21.56,0,.77h0ZM11.99,13.19c0,.36,0,.75,0,1.09,0,.43-.17.85-.48,1.16-.31.31-.73.48-1.16.48h-2.19c-.43,0-.85-.17-1.16-.48-.31-.31-.48-.72-.48-1.16v-1.09h5.47ZM8.7.62c0-.3.25-.55.55-.55s.55.25.55.55v1.09c0,.3-.25.55-.55.55s-.55-.24-.55-.55V.62ZM15.26,8.82c-.3,0-.55-.25-.55-.55s.25-.55.55-.55h1.09c.3,0,.55.25.55.55s-.25.55-.55.55h-1.09ZM2.14,8.82c-.3,0-.55-.25-.55-.55s.25-.55.55-.55h1.09c.3,0,.55.25.55.55s-.25.55-.55.55h-1.09ZM14.72,2.03c.21-.21.56-.21.77,0s.21.56,0,.77l-.77.77c-.21.21-.56.21-.77,0-.21-.21-.21-.56,0-.77l.77-.77ZM3.01,2.81c-.21-.21-.21-.56,0-.77s.56-.21.77,0l.77.77c.21.21.21.56,0,.77-.21.21-.56.21-.77,0l-.77-.77Z"/>
        </g>
      </g>
    </g>
  </g>
</svg>