<?xml version="1.0" encoding="UTF-8"?>
<svg xmlns="http://www.w3.org/2000/svg" xmlns:xlink="http://www.w3.org/1999/xlink" viewBox="0 0 18.5 16">
  <defs>
    <style>
      .cls-1 {
        mix-blend-mode: screen;
      }

      .cls-1, .cls-2 {
        isolation: isolate;
      }

      .cls-3 {
        fill: url(#linear-gradient);
      }

      .cls-4 {
        fill: #fff;
      }

      .cls-5 {
        opacity: .5;
      }
    </style>
    <linearGradient id="linear-gradient" x1="1.3" y1="8" x2="17.2" y2="8" gradientUnits="userSpaceOnUse">
      <stop offset="0" stop-color="#3eccc3"/>
      <stop offset=".03" stop-color="#2abdb2"/>
      <stop offset=".07" stop-color="#19b0a4"/>
      <stop offset=".12" stop-color="#0da79b"/>
      <stop offset=".18" stop-color="#06a295"/>
      <stop offset=".37" stop-color="#05a194"/>
      <stop offset="1" stop-color="#3beee2"/>
    </linearGradient>
  </defs>
  <g class="cls-2">
    <g id="Layer_1" data-name="Layer 1">
      <g>
        <g class="cls-1">
          <path class="cls-3" d="M16.76,6.3l-.86-.04c-.16-.61-.4-1.2-.72-1.75l.58-.64c.17-.18.16-.47-.01-.65l-1.74-1.75c-.18-.18-.46-.18-.64-.01l-.64.59c-.55-.32-1.13-.56-1.74-.72l-.04-.87c-.01-.25-.22-.45-.47-.45h-2.46c-.25,0-.45.2-.47.45l-.04.87c-.61.16-1.19.4-1.74.72l-.64-.59c-.18-.17-.47-.16-.64.01l-1.74,1.75c-.18.18-.18.46-.01.65l.58.64c-.32.55-.56,1.13-.72,1.75l-.86.04c-.25.01-.44.22-.44.47v2.47c0,.25.2.46.44.47l.86.04c.16.61.4,1.2.72,1.75l-.58.64c-.17.18-.16.47.01.65l1.74,1.75c.18.18.46.18.64.01l.64-.59c.55.32,1.13.56,1.74.72l.04.87c.01.25.22.45.47.45h2.46c.25,0,.45-.2.47-.45l.04-.87c.61-.16,1.19-.4,1.74-.72l.64.59c.18.17.47.16.64-.01l1.74-1.75c.18-.18.18-.46.01-.65l-.58-.64c.32-.55.56-1.13.72-1.75l.86-.04c.25-.01.44-.22.44-.47v-2.47c0-.25-.2-.46-.44-.47h0ZM10.65,12.14v-3.36h1.13c.18,0,.35-.11.42-.27.08-.17.05-.36-.07-.5l-2.53-3.01c-.09-.11-.22-.17-.36-.17s-.27.06-.36.17l-2.53,3.01c-.12.14-.14.33-.07.5.08.17.24.27.42.27h1.13v3.36c-1.72-.59-2.95-2.22-2.95-4.14,0-2.41,1.95-4.37,4.35-4.37s4.35,1.96,4.35,4.37c0,1.92-1.24,3.55-2.95,4.14h0Z"/>
        </g>
        <g class="cls-5">
          <path class="cls-4" d="M16.76,6.3l-.86-.04c-.16-.61-.4-1.2-.72-1.75l.58-.64c.17-.18.16-.47-.01-.65l-1.74-1.75c-.18-.18-.46-.18-.64-.01l-.64.59c-.55-.32-1.13-.56-1.74-.72l-.04-.87c-.01-.25-.22-.45-.47-.45h-2.46c-.25,0-.45.2-.47.45l-.04.87c-.61.16-1.19.4-1.74.72l-.64-.59c-.18-.17-.47-.16-.64.01l-1.74,1.75c-.18.18-.18.46-.01.65l.58.64c-.32.55-.56,1.13-.72,1.75l-.86.04c-.25.01-.44.22-.44.47v2.47c0,.25.2.46.44.47l.86.04c.16.61.4,1.2.72,1.75l-.58.64c-.17.18-.16.47.01.65l1.74,1.75c.18.18.46.18.64.01l.64-.59c.55.32,1.13.56,1.74.72l.04.87c.01.25.22.45.47.45h2.46c.25,0,.45-.2.47-.45l.04-.87c.61-.16,1.19-.4,1.74-.72l.64.59c.18.17.47.16.64-.01l1.74-1.75c.18-.18.18-.46.01-.65l-.58-.64c.32-.55.56-1.13.72-1.75l.86-.04c.25-.01.44-.22.44-.47v-2.47c0-.25-.2-.46-.44-.47h0ZM10.65,12.14v-3.36h1.13c.18,0,.35-.11.42-.27.08-.17.05-.36-.07-.5l-2.53-3.01c-.09-.11-.22-.17-.36-.17s-.27.06-.36.17l-2.53,3.01c-.12.14-.14.33-.07.5.08.17.24.27.42.27h1.13v3.36c-1.72-.59-2.95-2.22-2.95-4.14,0-2.41,1.95-4.37,4.35-4.37s4.35,1.96,4.35,4.37c0,1.92-1.24,3.55-2.95,4.14h0Z"/>
        </g>
      </g>
    </g>
  </g>
</svg>