<?xml version="1.0" encoding="UTF-8"?>
<svg xmlns="http://www.w3.org/2000/svg" xmlns:xlink="http://www.w3.org/1999/xlink" viewBox="0 0 18.5 16">
  <defs>
    <style>
      .cls-1 {
        mix-blend-mode: screen;
      }

      .cls-1, .cls-2 {
        isolation: isolate;
      }

      .cls-3 {
        fill: url(#linear-gradient-2);
      }

      .cls-4 {
        fill: url(#linear-gradient);
      }

      .cls-5 {
        fill: #fff;
      }

      .cls-6 {
        opacity: .5;
      }
    </style>
    <linearGradient id="linear-gradient" x1="2.41" y1="12.68" x2="16.09" y2="12.68" gradientUnits="userSpaceOnUse">
      <stop offset="0" stop-color="#3eccc3"/>
      <stop offset=".03" stop-color="#2abdb2"/>
      <stop offset=".07" stop-color="#19b0a4"/>
      <stop offset=".12" stop-color="#0da79b"/>
      <stop offset=".18" stop-color="#06a295"/>
      <stop offset=".37" stop-color="#05a194"/>
      <stop offset="1" stop-color="#3beee2"/>
    </linearGradient>
    <linearGradient id="linear-gradient-2" x1="5.39" y1="3.93" x2="13.21" y2="3.93" xlink:href="#linear-gradient"/>
  </defs>
  <g class="cls-2">
    <g id="Layer_1" data-name="Layer 1">
      <g>
        <g class="cls-1">
          <g id="Layer_1-2" data-name="Layer 1-2">
            <g id="person">
              <path id="_1.2" data-name=" 1.2" class="cls-4" d="M3.24,16h-.01c-.46,0-.83-.38-.82-.84.05-3.8,3.49-5.78,6.88-5.78h.06c3.25.02,6.74,1.84,6.74,5.77,0,.46-.37.83-.83.83s-11.56.03-12.02.03Z"/>
              <path id="_1.1" data-name=" 1.1" class="cls-3" d="M9.3,7.85c-2.16,0-3.91-1.76-3.91-3.93S7.14,0,9.3,0s3.91,1.76,3.91,3.93-1.76,3.93-3.91,3.93h0Z"/>
            </g>
          </g>
        </g>
        <g class="cls-6">
          <g id="Layer_1-2-2" data-name="Layer 1-2">
            <g id="person-2" data-name="person">
              <path id="_1.2-2" data-name=" 1.2" class="cls-5" d="M3.24,16h-.01c-.46,0-.83-.38-.82-.84.05-3.8,3.49-5.78,6.88-5.78h.06c3.25.02,6.74,1.84,6.74,5.77,0,.46-.37.83-.83.83s-11.56.03-12.02.03Z"/>
              <path id="_1.1-2" data-name=" 1.1" class="cls-5" d="M9.3,7.85c-2.16,0-3.91-1.76-3.91-3.93S7.14,0,9.3,0s3.91,1.76,3.91,3.93-1.76,3.93-3.91,3.93h0Z"/>
            </g>
          </g>
        </g>
      </g>
    </g>
  </g>
</svg>