<?xml version="1.0" encoding="UTF-8"?>
<svg xmlns="http://www.w3.org/2000/svg" xmlns:xlink="http://www.w3.org/1999/xlink" viewBox="0 0 18.5 16">
  <defs>
    <style>
      .cls-1 {
        fill: #fff;
        opacity: .5;
      }

      .cls-2, .cls-3 {
        isolation: isolate;
      }

      .cls-3 {
        fill: url(#linear-gradient);
        mix-blend-mode: screen;
      }
    </style>
    <linearGradient id="linear-gradient" x1=".35" y1="8" x2="18.15" y2="8" gradientUnits="userSpaceOnUse">
      <stop offset="0" stop-color="#3eccc3"/>
      <stop offset=".03" stop-color="#2abdb2"/>
      <stop offset=".07" stop-color="#19b0a4"/>
      <stop offset=".12" stop-color="#0da79b"/>
      <stop offset=".18" stop-color="#06a295"/>
      <stop offset=".37" stop-color="#05a194"/>
      <stop offset="1" stop-color="#3beee2"/>
    </linearGradient>
  </defs>
  <g class="cls-2">
    <g id="Layer_1" data-name="Layer 1">
      <g>
        <path class="cls-3" d="M16.53,14.37v-7.45c0-.32-.16-.65-.49-.73l-5.18-2.27v10.52h-1.62V.29c-.08-.24-.32-.32-.57-.24L2.45,2.88c-.32.16-.49.4-.49.73v10.77H.35v1.62h17.81v-1.62h-1.62Z"/>
        <path class="cls-1" d="M16.53,14.37v-7.45c0-.32-.16-.65-.49-.73l-5.18-2.27v10.52h-1.62V.29c-.08-.24-.32-.32-.57-.24L2.45,2.88c-.32.16-.49.4-.49.73v10.77H.35v1.62h17.81v-1.62h-1.62Z"/>
      </g>
    </g>
  </g>
</svg>