<?xml version="1.0" encoding="UTF-8"?>
<svg xmlns="http://www.w3.org/2000/svg" xmlns:xlink="http://www.w3.org/1999/xlink" viewBox="0 0 18.5 16">
  <defs>
    <style>
      .cls-1 {
        mix-blend-mode: screen;
      }

      .cls-1, .cls-2 {
        isolation: isolate;
      }

      .cls-3 {
        fill: url(#linear-gradient-2);
      }

      .cls-4 {
        fill: url(#linear-gradient);
      }

      .cls-5 {
        fill: #fff;
      }

      .cls-6 {
        opacity: .5;
      }
    </style>
    <linearGradient id="linear-gradient" x1="1.28" y1=".81" x2="6.57" y2=".81" gradientUnits="userSpaceOnUse">
      <stop offset="0" stop-color="#3eccc3"/>
      <stop offset=".03" stop-color="#2abdb2"/>
      <stop offset=".07" stop-color="#19b0a4"/>
      <stop offset=".12" stop-color="#0da79b"/>
      <stop offset=".18" stop-color="#06a295"/>
      <stop offset=".37" stop-color="#05a194"/>
      <stop offset="1" stop-color="#3beee2"/>
    </linearGradient>
    <linearGradient id="linear-gradient-2" y1="9.24" x2="17.22" y2="9.24" xlink:href="#linear-gradient"/>
  </defs>
  <g class="cls-2">
    <g id="Layer_1" data-name="Layer 1">
      <g>
        <g>
          <g class="cls-1">
            <path class="cls-4" d="M6.11.03H1.75c-.26,0-.47.21-.47.47v1.09h5.29V.5c0-.26-.21-.47-.47-.47Z"/>
          </g>
          <g class="cls-1">
            <path class="cls-3" d="M16.98,4.48c-.15-.08-.32-.08-.47,0l-4.62,2.7v-2.3c0-.17-.09-.32-.23-.4-.15-.08-.32-.08-.47,0l-4.62,2.7V2.52H1.28v12.98c0,.26.21.47.47.47h15c.26,0,.47-.21.47-.47V4.89c0-.17-.09-.32-.23-.4ZM8.44,12.68c0,.26-.21.47-.47.47h-1.87c-.26,0-.47-.21-.47-.47v-1.87c0-.26.21-.47.47-.47h1.87c.26,0,.47.21.47.47v1.87ZM13.76,12.68c0,.26-.21.47-.47.47h-1.87c-.26,0-.47-.21-.47-.47v-1.87c0-.26.21-.47.47-.47h1.87c.26,0,.47.21.47.47v1.87Z"/>
          </g>
        </g>
        <g>
          <g class="cls-6">
            <path class="cls-5" d="M6.11.03H1.75c-.26,0-.47.21-.47.47v1.09h5.29V.5c0-.26-.21-.47-.47-.47Z"/>
          </g>
          <g class="cls-6">
            <path class="cls-5" d="M16.98,4.48c-.15-.08-.32-.08-.47,0l-4.62,2.7v-2.3c0-.17-.09-.32-.23-.4-.15-.08-.32-.08-.47,0l-4.62,2.7V2.52H1.28v12.98c0,.26.21.47.47.47h15c.26,0,.47-.21.47-.47V4.89c0-.17-.09-.32-.23-.4ZM8.44,12.68c0,.26-.21.47-.47.47h-1.87c-.26,0-.47-.21-.47-.47v-1.87c0-.26.21-.47.47-.47h1.87c.26,0,.47.21.47.47v1.87ZM13.76,12.68c0,.26-.21.47-.47.47h-1.87c-.26,0-.47-.21-.47-.47v-1.87c0-.26.21-.47.47-.47h1.87c.26,0,.47.21.47.47v1.87Z"/>
          </g>
        </g>
      </g>
    </g>
  </g>
</svg>