<?xml version="1.0" encoding="UTF-8"?>
<svg xmlns="http://www.w3.org/2000/svg" xmlns:xlink="http://www.w3.org/1999/xlink" viewBox="0 0 18.5 16">
  <defs>
    <style>
      .cls-1 {
        mix-blend-mode: screen;
      }

      .cls-1, .cls-2 {
        isolation: isolate;
      }

      .cls-3 {
        fill: url(#linear-gradient-5);
      }

      .cls-4 {
        fill: url(#linear-gradient-4);
      }

      .cls-5 {
        fill: url(#linear-gradient-3);
      }

      .cls-6 {
        fill: url(#linear-gradient-2);
      }

      .cls-7 {
        fill: url(#linear-gradient);
      }

      .cls-8 {
        fill: #fff;
      }

      .cls-9 {
        opacity: .5;
      }
    </style>
    <linearGradient id="linear-gradient" x1="7.13" y1="7.47" x2="11.39" y2="7.47" gradientUnits="userSpaceOnUse">
      <stop offset="0" stop-color="#3eccc3"/>
      <stop offset=".03" stop-color="#2abdb2"/>
      <stop offset=".07" stop-color="#19b0a4"/>
      <stop offset=".12" stop-color="#0da79b"/>
      <stop offset=".18" stop-color="#06a295"/>
      <stop offset=".37" stop-color="#05a194"/>
      <stop offset="1" stop-color="#3beee2"/>
    </linearGradient>
    <linearGradient id="linear-gradient-2" x1="2.32" y1="11.06" x2="16.18" y2="11.06" xlink:href="#linear-gradient"/>
    <linearGradient id="linear-gradient-3" x1="6.86" y1="2.41" x2="11.66" y2="2.41" xlink:href="#linear-gradient"/>
    <linearGradient id="linear-gradient-4" x1="3.8" y1="3.89" x2="6.48" y2="3.89" xlink:href="#linear-gradient"/>
    <linearGradient id="linear-gradient-5" x1="12.04" y1="3.88" x2="14.72" y2="3.88" xlink:href="#linear-gradient"/>
  </defs>
  <g class="cls-2">
    <g id="Layer_1" data-name="Layer 1">
      <g>
        <g class="cls-1">
          <circle class="cls-7" cx="9.26" cy="7.47" r="2.13"/>
          <path class="cls-6" d="M15.87,6.51c-.36-.44-1.01-.5-1.45-.14-.05.04-.1.09-.14.14l-2.4,2.7c-.66.78-1.61,1.23-2.63,1.25-1.03,0-2-.47-2.66-1.25l-2.37-2.66c-.2-.24-.49-.37-.8-.38-.31,0-.6.14-.8.38-.41.49-.41,1.21,0,1.71l3,3.51c.28.34.43.76.43,1.2v3.02h6.36v-3.02c0-.44.15-.87.43-1.21l3.02-3.54c.42-.5.42-1.22,0-1.71Z"/>
          <path class="cls-5" d="M11.65,1.82c-.03-.09-.11-.16-.21-.18l-1.33-.2-.61-1.27c-.06-.13-.22-.19-.35-.13-.06.03-.11.07-.13.13l-.6,1.27-1.33.2c-.1.01-.18.08-.21.18-.03.09,0,.2.06.27l.97,1-.23,1.41c-.02.15.09.28.23.3.05,0,.11,0,.16-.03l1.19-.64,1.19.66s.08.03.13.03c.06,0,.11-.02.15-.05.09-.06.13-.16.11-.27l-.23-1.41.97-1c.07-.07.1-.17.07-.27Z"/>
          <path class="cls-4" d="M6.37,3.81l-.53-.38v-.63c0-.15-.12-.26-.27-.26-.05,0-.11.02-.15.05l-.48.35-.6-.22c-.14-.05-.29.02-.34.16-.02.06-.02.12,0,.18l.21.61-.35.48c-.09.12-.06.29.06.37.04.03.1.05.15.05h.63l.38.53c.05.07.13.11.22.11h.05c.1-.02.18-.09.21-.19l.17-.58.58-.18c.14-.04.22-.19.18-.33-.02-.06-.05-.11-.1-.14h0Z"/>
          <path class="cls-3" d="M14.66,4.16l-.35-.48.22-.6c.05-.14-.02-.29-.16-.34-.06-.02-.12-.02-.18,0l-.61.21-.48-.35c-.12-.09-.29-.06-.37.06-.03.04-.05.1-.05.15v.63l-.53.38c-.11.09-.13.26-.04.37.03.04.08.07.12.09l.58.17.18.59c.03.1.11.17.21.19h.05c.09,0,.17-.04.22-.11l.38-.53h.63c.15,0,.26-.12.26-.27,0-.05-.02-.11-.05-.15h-.01Z"/>
        </g>
        <g class="cls-9">
          <circle class="cls-8" cx="9.26" cy="7.47" r="2.13"/>
          <path class="cls-8" d="M15.87,6.51c-.36-.44-1.01-.5-1.45-.14-.05.04-.1.09-.14.14l-2.4,2.7c-.66.78-1.61,1.23-2.63,1.25-1.03,0-2-.47-2.66-1.25l-2.37-2.66c-.2-.24-.49-.37-.8-.38-.31,0-.6.14-.8.38-.41.49-.41,1.21,0,1.71l3,3.51c.28.34.43.76.43,1.2v3.02h6.36v-3.02c0-.44.15-.87.43-1.21l3.02-3.54c.42-.5.42-1.22,0-1.71Z"/>
          <path class="cls-8" d="M11.65,1.82c-.03-.09-.11-.16-.21-.18l-1.33-.2-.61-1.27c-.06-.13-.22-.19-.35-.13-.06.03-.11.07-.13.13l-.6,1.27-1.33.2c-.1.01-.18.08-.21.18-.03.09,0,.2.06.27l.97,1-.23,1.41c-.02.15.09.28.23.3.05,0,.11,0,.16-.03l1.19-.64,1.19.66s.08.03.13.03c.06,0,.11-.02.15-.05.09-.06.13-.16.11-.27l-.23-1.41.97-1c.07-.07.1-.17.07-.27Z"/>
          <path class="cls-8" d="M6.37,3.81l-.53-.38v-.63c0-.15-.12-.26-.27-.26-.05,0-.11.02-.15.05l-.48.35-.6-.22c-.14-.05-.29.02-.34.16-.02.06-.02.12,0,.18l.21.61-.35.48c-.09.12-.06.29.06.37.04.03.1.05.15.05h.63l.38.53c.05.07.13.11.22.11h.05c.1-.02.18-.09.21-.19l.17-.58.58-.18c.14-.04.22-.19.18-.33-.02-.06-.05-.11-.1-.14h0Z"/>
          <path class="cls-8" d="M14.66,4.16l-.35-.48.22-.6c.05-.14-.02-.29-.16-.34-.06-.02-.12-.02-.18,0l-.61.21-.48-.35c-.12-.09-.29-.06-.37.06-.03.04-.05.1-.05.15v.63l-.53.38c-.11.09-.13.26-.04.37.03.04.08.07.12.09l.58.17.18.59c.03.1.11.17.21.19h.05c.09,0,.17-.04.22-.11l.38-.53h.63c.15,0,.26-.12.26-.27,0-.05-.02-.11-.05-.15h-.01Z"/>
        </g>
      </g>
    </g>
  </g>
</svg>