<?xml version="1.0" encoding="UTF-8"?>
<svg id="Layer_1" data-name="Layer 1" xmlns="http://www.w3.org/2000/svg" xmlns:xlink="http://www.w3.org/1999/xlink" viewBox="0 0 18.5 16">
  <defs>
    <style>
      .cls-1 {
        fill: #fff;
        opacity: .5;
      }

      .cls-1, .cls-2 {
        fill-rule: evenodd;
      }

      .cls-2 {
        fill: url(#linear-gradient);
      }
    </style>
    <linearGradient id="linear-gradient" x1=".01" y1="8" x2="18.49" y2="8" gradientUnits="userSpaceOnUse">
      <stop offset="0" stop-color="#3eccc3"/>
      <stop offset=".03" stop-color="#2abdb2"/>
      <stop offset=".07" stop-color="#19b0a4"/>
      <stop offset=".12" stop-color="#0da79b"/>
      <stop offset=".18" stop-color="#06a295"/>
      <stop offset=".37" stop-color="#05a194"/>
      <stop offset="1" stop-color="#3beee2"/>
    </linearGradient>
  </defs>
  <path class="cls-2" d="M5.32,5.24h-2.98c.77-1.29,1.38-2.23,2.98-2.6v2.6ZM17.41,5.35c.3,0,.54-.24.54-.54,0-.3-.24-.54-.54-.54h-.65v-1.19c0-.3-.24-.54-.54-.54H6.4s0,3.25,0,3.25c0,.3-.24.54-.54.54H1.69S.01,6.43.01,8.02v3.25c0,.3.24.54.54.54h.94c.19.96,1.04,1.66,2.03,1.66s1.84-.7,2.03-1.66h5.5c.19.96,1.04,1.66,2.03,1.66s1.84-.7,2.03-1.66h1.09c.3,0,.54-.24.54-.54v-1.62h1.19c.3,0,.54-.24.54-.54,0-.3-.24-.54-.54-.54h-4.87c-.3,0-.54-.24-.54-.54,0-.3.24-.54.54-.54h4.87c.3,0,.54-.24.54-.54,0-.3-.24-.54-.54-.54h-3.27c-.3,0-.54-.24-.54-.54,0-.35.23-.51.54-.51h2.73ZM4.52,11.39c0,.88-1.07,1.33-1.69.7-.39-.39-.39-1.02,0-1.4.62-.62,1.69-.18,1.69.7ZM14.09,11.39c0,.88-1.07,1.33-1.69.7-.39-.39-.39-1.02,0-1.4.62-.62,1.69-.18,1.69.7Z"/>
  <path class="cls-1" d="M5.32,5.24h-2.98c.77-1.29,1.38-2.23,2.98-2.6v2.6ZM17.41,5.35c.3,0,.54-.24.54-.54,0-.3-.24-.54-.54-.54h-.65v-1.19c0-.3-.24-.54-.54-.54H6.4s0,3.25,0,3.25c0,.3-.24.54-.54.54H1.69S.01,6.43.01,8.02v3.25c0,.3.24.54.54.54h.94c.19.96,1.04,1.66,2.03,1.66s1.84-.7,2.03-1.66h5.5c.19.96,1.04,1.66,2.03,1.66s1.84-.7,2.03-1.66h1.09c.3,0,.54-.24.54-.54v-1.62h1.19c.3,0,.54-.24.54-.54,0-.3-.24-.54-.54-.54h-4.87c-.3,0-.54-.24-.54-.54,0-.3.24-.54.54-.54h4.87c.3,0,.54-.24.54-.54,0-.3-.24-.54-.54-.54h-3.27c-.3,0-.54-.24-.54-.54,0-.35.23-.51.54-.51h2.73ZM4.52,11.39c0,.88-1.07,1.33-1.69.7-.39-.39-.39-1.02,0-1.4.62-.62,1.69-.18,1.69.7ZM14.09,11.39c0,.88-1.07,1.33-1.69.7-.39-.39-.39-1.02,0-1.4.62-.62,1.69-.18,1.69.7Z"/>
</svg>