<?xml version="1.0" encoding="UTF-8"?>
<svg xmlns="http://www.w3.org/2000/svg" xmlns:xlink="http://www.w3.org/1999/xlink" viewBox="0 0 18.5 16">
  <defs>
    <style>
      .cls-1 {
        mix-blend-mode: screen;
      }

      .cls-1, .cls-2 {
        isolation: isolate;
      }

      .cls-3 {
        fill: url(#linear-gradient);
      }

      .cls-4 {
        fill: #fff;
      }

      .cls-5 {
        opacity: .5;
      }
    </style>
    <linearGradient id="linear-gradient" x1=".02" y1="8" x2="18.48" y2="8" gradientUnits="userSpaceOnUse">
      <stop offset="0" stop-color="#3eccc3"/>
      <stop offset=".03" stop-color="#2abdb2"/>
      <stop offset=".07" stop-color="#19b0a4"/>
      <stop offset=".12" stop-color="#0da79b"/>
      <stop offset=".18" stop-color="#06a295"/>
      <stop offset=".37" stop-color="#05a194"/>
      <stop offset="1" stop-color="#3beee2"/>
    </linearGradient>
  </defs>
  <g class="cls-2">
    <g id="Layer_1" data-name="Layer 1">
      <g>
        <g class="cls-1">
          <path class="cls-3" d="M16.5,1.07H2C.87,1.07.02,1.93.02,3.05v9.9c0,1.12.85,1.98,1.98,1.98h14.51c1.13,0,1.98-.86,1.98-1.98V3.05c0-1.12-.85-1.98-1.98-1.98ZM15.2,8.99h-3.3c-.2,0-.4-.13-.54-.27l-.59-.92-.85,2.1c-.13.2-.4.4-.66.4s-.47-.13-.6-.4l-.92-1.85-.66.66c-.13.2-.27.27-.46.27h-3.3c-.4,0-.66-.27-.66-.66s.26-.66.66-.66h3.03l1.12-1.12c.13-.13.4-.2.59-.2.2.07.4.2.47.32l.66,1.32.78-1.91c.07-.19.34-.39.54-.39.26,0,.46.07.59.27l1.12,1.71h2.98c.39,0,.65.26.65.66s-.26.66-.65.66Z"/>
        </g>
        <g class="cls-5">
          <path class="cls-4" d="M16.5,1.07H2C.87,1.07.02,1.93.02,3.05v9.9c0,1.12.85,1.98,1.98,1.98h14.51c1.13,0,1.98-.86,1.98-1.98V3.05c0-1.12-.85-1.98-1.98-1.98ZM15.2,8.99h-3.3c-.2,0-.4-.13-.54-.27l-.59-.92-.85,2.1c-.13.2-.4.4-.66.4s-.47-.13-.6-.4l-.92-1.85-.66.66c-.13.2-.27.27-.46.27h-3.3c-.4,0-.66-.27-.66-.66s.26-.66.66-.66h3.03l1.12-1.12c.13-.13.4-.2.59-.2.2.07.4.2.47.32l.66,1.32.78-1.91c.07-.19.34-.39.54-.39.26,0,.46.07.59.27l1.12,1.71h2.98c.39,0,.65.26.65.66s-.26.66-.65.66Z"/>
        </g>
      </g>
    </g>
  </g>
</svg>