<?xml version="1.0" encoding="UTF-8"?>
<svg xmlns="http://www.w3.org/2000/svg" xmlns:xlink="http://www.w3.org/1999/xlink" viewBox="0 0 18.5 16">
  <defs>
    <style>
      .cls-1, .cls-2 {
        isolation: isolate;
      }

      .cls-2 {
        fill: url(#linear-gradient);
        mix-blend-mode: screen;
      }

      .cls-2, .cls-3 {
        fill-rule: evenodd;
      }

      .cls-3 {
        fill: #fff;
        opacity: .5;
      }
    </style>
    <linearGradient id="linear-gradient" x1="1.27" y1="8" x2="17.23" y2="8" gradientUnits="userSpaceOnUse">
      <stop offset="0" stop-color="#3eccc3"/>
      <stop offset=".03" stop-color="#2abdb2"/>
      <stop offset=".07" stop-color="#19b0a4"/>
      <stop offset=".12" stop-color="#0da79b"/>
      <stop offset=".18" stop-color="#06a295"/>
      <stop offset=".37" stop-color="#05a194"/>
      <stop offset="1" stop-color="#3beee2"/>
    </linearGradient>
  </defs>
  <g class="cls-1">
    <g id="Layer_1" data-name="Layer 1">
      <g>
        <path class="cls-2" d="M16.03,6.77l-.85-.29c-.15-.57-.37-1.11-.66-1.6l.4-.81.56-1.14-.58-.58-.58-.58-1.14.56-.81.4c-.49-.29-1.03-.52-1.6-.66l-.29-.85L10.07.02h-1.63l-.41,1.2-.29.85c-.57.15-1.11.37-1.6.66l-.81-.4-1.14-.56-.58.58-.58.58.56,1.14.4.81c-.29.49-.52,1.03-.66,1.6l-.85.29-1.2.41v1.63l1.2.41.85.29c.15.57.37,1.11.66,1.6l-.4.81-.56,1.14.58.58.58.58,1.14-.56.81-.4c.49.29,1.03.52,1.6.66l.29.85.41,1.2h1.63l.41-1.2.29-.85c.57-.15,1.11-.37,1.6-.66l.81.4,1.14.56.58-.58.58-.58-.56-1.14-.4-.81c.29-.49.52-1.03.66-1.6l.85-.29,1.2-.41v-1.63l-1.2-.41ZM9.25,11.97c-2.19,0-3.97-1.78-3.97-3.97s1.78-3.97,3.97-3.97,3.97,1.78,3.97,3.97-1.78,3.97-3.97,3.97h0ZM11.58,6.3c.19.19.19.49,0,.68l-2.37,2.37-.34.34c-.19.19-.49.19-.68,0l-.34-.34-.92-.92c-.19-.19-.19-.49,0-.68s.49-.19.68,0l.92.92,2.37-2.37c.19-.19.49-.19.68,0h0Z"/>
        <path class="cls-3" d="M16.03,6.77l-.85-.29c-.15-.57-.37-1.11-.66-1.6l.4-.81.56-1.14-.58-.58-.58-.58-1.14.56-.81.4c-.49-.29-1.03-.52-1.6-.66l-.29-.85L10.07.02h-1.63l-.41,1.2-.29.85c-.57.15-1.11.37-1.6.66l-.81-.4-1.14-.56-.58.58-.58.58.56,1.14.4.81c-.29.49-.52,1.03-.66,1.6l-.85.29-1.2.41v1.63l1.2.41.85.29c.15.57.37,1.11.66,1.6l-.4.81-.56,1.14.58.58.58.58,1.14-.56.81-.4c.49.29,1.03.52,1.6.66l.29.85.41,1.2h1.63l.41-1.2.29-.85c.57-.15,1.11-.37,1.6-.66l.81.4,1.14.56.58-.58.58-.58-.56-1.14-.4-.81c.29-.49.52-1.03.66-1.6l.85-.29,1.2-.41v-1.63l-1.2-.41ZM9.25,11.97c-2.19,0-3.97-1.78-3.97-3.97s1.78-3.97,3.97-3.97,3.97,1.78,3.97,3.97-1.78,3.97-3.97,3.97h0ZM11.58,6.3c.19.19.19.49,0,.68l-2.37,2.37-.34.34c-.19.19-.49.19-.68,0l-.34-.34-.92-.92c-.19-.19-.19-.49,0-.68s.49-.19.68,0l.92.92,2.37-2.37c.19-.19.49-.19.68,0h0Z"/>
      </g>
    </g>
  </g>
</svg>