<?xml version="1.0" encoding="UTF-8"?>
<svg id="Layer_1" data-name="Layer 1" xmlns="http://www.w3.org/2000/svg" viewBox="0 0 280.78 100">
  <defs>
    <style>
      .cls-1 {
        fill: #25539a;
      }

      .cls-2 {
        fill: #2077bb;
      }
    </style>
  </defs>
  <path class="cls-1" d="M151.14,66.58c.48-.08,1.32.11,1.74,0,.1-.03.07-.25.29-.28.18-.02.48.1.72.1.86.02,1.72,0,2.58-.09-.02.13.04.59,0,.63-.14.14-.77-.21-.62.77.06.42.78,2.26.98,2.72.04.09.06.21.18.22.06-.86,1.11-2.45,1.09-3.21-.02-.65-1.23-.39-.78-1.04.13-.18.66,0,.9.01.65.02,1.3,0,1.95-.09-.02.13.04.59,0,.63-.03.03-.47.04-.72.23-.75.59-2.4,5.38-2.97,6.6-.27.57-.71,1.49-1.14,1.93-.97.99-2.71.23-1.95-.77.34-.45,1.1-.18,1.58-.49.35-.23.97-1.24.93-1.65l-1.98-5.06c-.12-.25-.68-.97-.98-.74-.08.06-.12.41-.22.41h-1.58v4.1c0,.14.23.45.38.52.56.24.81-.28.7.7h-3.8c-.21-.89.56-.48.82-.85.04-.05.17-.67.17-.73v-3.74h-.81c.03-.14-.04-.68,0-.72.02-.02.3,0,.43-.07.47-.22.59-1.91.79-2.46.58-1.57,2.48-2.61,4.09-2.1s.43,1.75-.2,1.65c-.57-.08-.59-1.23-1.7-.98-.43.1-.88,1.02-.88,1.38v2.48Z"/>
  <path class="cls-1" d="M109.86,71.04c.01.09.17.51.23.58.44.54,2.89.24,3.47-.14.61-.4.85-1.43,1-1.54.1-.07.63.14.64.2.04.4-.66,1.84-.56,2.41l-.13.14h-7.8c-.17-.94.51-.42.9-.76.19-.16.26-.57.28-.81.2-2.26-.15-4.83-.01-7.12-.1-.53-.21-.67-.71-.82-.42-.13-.64.12-.37-.63l7.32-.04.18,2.53c-.9.17-.61-.34-.92-.93-.47-.89-2.12-.88-3.02-.79-.13.01-.49.07-.49.23v3.47h2.21c.08,0,.56-.19.63-.27.23-.26.06-.74.22-.86.09-.06.64-.14.64.1s-.09.46-.1.72c-.03.8.01,1.6.1,2.4-1.02.19-.52-.42-.86-.9-.08-.12-.53-.36-.63-.36h-2.21c.1.99-.13,2.24,0,3.2Z"/>
  <path class="cls-1" d="M206.16,67.39c.62,1.9-.26,2.99-2.15,3.22-.13.02-.28-.08-.38-.02-.23.14-.43.72-.03.84.35.1,1.09-.01,1.52.02,1.65.13,2.67.8,2.06,2.6-.44,1.3-2.41,2.08-3.69,2.1-1.11.01-3.09-.87-2.62-2.26.14-.41,1.14-1.08,1.21-1.33.05-.19-.22-.37-.26-.62-.12-.78.59-1.02,1.08-1.44l-.86-.58c-1.61-2.15.14-4.06,2.6-3.68.38.06.76.38,1.02.43.29.05,1.7-.06,1.76,0v.72h-1.27ZM203.69,66.78c-.95.21-1.12,3.38.43,3.13,1.02-.16,1.02-3.45-.43-3.13ZM202.56,72.91c-1.19,2.07,1.85,3.01,3.24,1.83.45-.38.6-1.14-.03-1.4-.85-.35-2.27-.22-3.2-.43Z"/>
  <path class="cls-1" d="M178.6,67.39c.73,1.76-.33,3.06-2.13,3.24-.13.01-.33-.11-.38-.07-.04.03-.3.48-.29.58.04.49,1.44.29,1.85.33,1.48.14,2.4.58,2.09,2.25-.28,1.52-2.4,2.44-3.8,2.44-1.12,0-3.16-.91-2.56-2.29.18-.42,1.1-1.08,1.15-1.3.07-.28-.69-.7.06-1.47.16-.16.7-.43.77-.59s-.06-.12-.11-.15c-.71-.41-1.2-.63-1.32-1.57-.26-1.95,1.46-2.81,3.18-2.54.38.06.79.37,1.11.42.28.04,1.61-.05,1.67,0v.72h-1.27ZM176.14,66.78c-1,.23-.85,2.97-.02,3.14.14.03.4.03.54,0,.93-.18,1-3.48-.52-3.14ZM175.15,72.9c-1.27,1.5.65,2.59,2.13,2.31.66-.12,1.9-1.05,1.24-1.74-.44-.46-2.67-.36-3.36-.58Z"/>
  <path class="cls-1" d="M192.43,70.01s.59.1.62.23l-.78,2.48h-7.44c.02-.13-.04-.47,0-.54.18-.22,1.06.23,1.17-.95-.2-2.28.26-4.98-.02-7.21-.03-.24-.1-.55-.3-.69-.46-.31-1.17.12-.77-.77l4.04-.02c.26-.02.28.46.12.57s-.73.03-.95.32c-.1.13-.23,1.02-.23,1.22,0,.31.1.54.1.8,0,1.69-.19,3.99,0,5.6.05.41.24.78.68.85.92.15,2.57,0,3.2-.76.2-.24.5-1.09.55-1.13Z"/>
  <path class="cls-1" d="M167.75,66.14c.13.2-.13.82-.08.89.88-.55,1.74-.98,2.82-.79,2.05.35,1.2,3.86,1.44,5.23.15.84.98.35.79,1.24-.12.12-1.42-.1-1.67-.1-.27,0-1.74.22-1.85.1-.17-1.08.81-.2.91-1.3.07-.72.09-2.64-.03-3.32-.05-.28-.22-.66-.52-.75-.4-.12-1.82-.01-1.9.46.12.77-.24,3.64.22,4.11.33.33.95-.07.77.81-.12.12-1.58-.1-1.85-.1s-1.64.22-1.76.1c-.05-.9-.02-.5.48-.65.37-.11.41-.69.43-1.01.04-.6.07-2.87-.11-3.32-.12-.29-.55-.25-.79-.25.01-.15-.03-.35.01-.48.04-.13,1.07-.4,1.31-.49.28-.11,1.14-.74,1.37-.36Z"/>
  <path class="cls-1" d="M200.26,69.48c0,1.89-1.53,3.42-3.42,3.42s-3.42-1.53-3.42-3.42,1.53-3.42,3.42-3.42,3.42,1.53,3.42,3.42ZM196.56,66.78c-1.48.23-1.39,3.16-1.01,4.22.5,1.4,2.02,1.73,2.59.24.48-1.24.38-4.77-1.58-4.46Z"/>
  <path class="cls-1" d="M118.61,61.99c.05.07.02.6.01.75-.14,2.45-.33,6.08-.09,8.48.03.29.11.74.43.84.11.04.37,0,.39.02.03.03-.02.51,0,.63-.12.12-1.41-.1-1.67-.1s-1.65.22-1.76.1c-.05-.9-.02-.5.48-.65.35-.1.41-.96.43-1.29.11-1.8.13-4.62,0-6.41-.05-.68-.08-1.16-.9-1.04.01-.15-.03-.35.01-.48.04-.13,1.07-.4,1.31-.49.28-.11,1.14-.74,1.37-.36Z"/>
  <path class="cls-1" d="M122.05,68.65c.11,1.47.5,3.32,2.39,3.06.41-.06,1.47-.88,1.58-.2.07.38-1.52,1.17-1.89,1.26-4.98,1.15-5.13-7.34.11-6.52.69.11,1.55.67,1.67,1.4.04.21.08,1.02-.2,1.02h-3.66ZM122.24,68.02h2.03c.29,0,.15-.96-.4-1.13-.88-.27-1.57.27-1.63,1.13Z"/>
  <path class="cls-1" d="M233.14,67.72s-.37.24-.42.26c-.73.22-.95-.96-1.69-1.11-2.44-.5-2.07,4.96.47,4.85.71-.03,1.15-.53,1.8-.64.35.36-.07.67-.35.91-2.76,2.31-6.24-.3-5.08-3.63.65-1.85,2.78-2.66,4.55-1.89.45.19,1.19.69.72,1.25Z"/>
  <path class="cls-1" d="M132.33,67.72c-.12.14-.52.32-.72.28-.52-.1-.72-1.04-1.47-1.15-2.2-.32-1.98,4.35.07,4.8.5.11.86.03,1.34-.16.23-.09,1.04-.75,1.09-.18.04.47-1.33,1.27-1.76,1.4-5.04,1.52-5.57-7.35.06-6.48.57.09,2,.75,1.4,1.49Z"/>
  <path class="cls-1" d="M216.99,67.92s-.45.12-.54.06c-.1-.07-.24-.78-.5-1.04-.52-.51-1.47-.25-1.47.49,0,.94,2.51,1.72,2.69,3.17s-1.04,2.26-2.31,2.29c-.29,0-1.73-.29-1.91-.47-.11-.11-.26-1.63-.2-1.69.81-.21.64.71,1.08,1.19.51.56,1.76.3,1.81-.43.07-1.12-2.46-1.73-2.69-3.17-.34-2.19,2.5-2.69,3.94-1.77-.07.22.15,1.31.09,1.38Z"/>
  <path class="cls-1" d="M238.21,66.41c.03.26.22,1.41.05,1.53-.07.05-.44.12-.49.08s-.18-.83-.45-1.1c-.46-.48-1.48-.22-1.46.52.03,1.04,2.43,1.66,2.62,2.99.37,2.56-2.46,2.81-4.23,2.01.05-.47-.19-1.05-.19-1.49,0-.27.54-.28.62-.21s.17,1.01.7,1.33c.88.54,2.08-.21,1.39-1.2-.62-.89-2.25-1.23-2.43-2.53-.31-2.26,2.26-2.54,3.86-1.92Z"/>
  <path class="cls-1" d="M138.22,72.71c.02-.12-.03-.6,0-.63.09-.08.74.17.88-.61.12-.66.09-2.69.03-3.41s-.28-.6-.91-.58c.03-.18-.04-.42,0-.57.02-.07,1.17-.36,1.38-.44s.73-.42.83-.43c.71-.03.18,1.1.32,1.53l.45-.67c.5-.87,2.32-1.19,1.94.23-.28,1.05-1.05.37-1.7.56-.42.12-.58,1-.61,1.38-.04.54-.1,2.57.28,2.89s.98-.14.81.77h-3.7Z"/>
  <path class="cls-1" d="M218.98,67.3h-.72c-.03-.66.75-.89,1.17-1.4.22-.26.79-1.45.87-1.47.14-.05.33,0,.49-.01l-.09,2.08h1.81c-.03.09-.14.81-.18.81h-1.58s-.14.13-.14.14v3.16c0,.07.12.64.15.75.35,1.2,1.52.35,1.65.47-.03.14.15.45.09.53-.04.05-1,.4-1.15.44-.6.13-1.5.14-1.96-.35-.1-.11-.42-.74-.42-.85v-4.29Z"/>
  <path class="cls-1" d="M134.07,67.3h-.72c-.08-.7.74-.87,1.17-1.4.22-.27.74-1.4.81-1.44.15-.09.38-.03.54-.04l-.09,2.08h1.81c-.02.14-.22.81-.32.81h-1.58v3.38s.11.6.13.68c.12.39.39.64.82.64.24,0,.63-.2.72-.18.12.03.26.49.23.53-.06.08-1.06.4-1.24.43-.82.15-1.73.14-2.12-.73-.03-.07-.16-.44-.16-.47v-4.29Z"/>
  <path class="cls-1" d="M160.45,72.71c-.1-.98.13-.44.59-.72.23-.13.29-.44.31-.68.06-.6.09-2.91-.02-3.41-.1-.43-.52-.45-.88-.42.01-.15-.03-.35.01-.48.03-.1,1.36-.47,1.65-.61.39-.18.67-.66,1.05-.21.19.22,0,.44,0,.72-.03,1.17-.16,3.62.03,4.67.13.72.7.43.79.52.03.03-.02.51,0,.63h-3.52Z"/>
  <path class="cls-1" d="M208.14,72.71c.02-.15-.05-.43.04-.55.19-.27.79.25.87-.94.04-.66.1-2.77-.02-3.32-.1-.43-.52-.45-.88-.42.01-.15-.03-.35.01-.48.05-.14,1.09-.36,1.34-.46.4-.17.91-.68,1.3-.4.29.21.06.55.05.85-.04,1.14-.16,3.56.03,4.58.13.72.7.43.79.52.03.03-.02.51,0,.63h-3.52Z"/>
  <path class="cls-1" d="M226.66,72.71c-.12.12-1.5-.1-1.76-.1s-1.64.22-1.76.1c-.1-.98.13-.44.59-.72.23-.13.29-.44.31-.68.06-.6.09-2.91-.02-3.41-.1-.43-.52-.45-.88-.42.01-.22-.09-.52.15-.61.51-.08.98-.26,1.45-.45.34-.14.53-.46.93-.34s.17.35.17.64c0,1.31-.19,3.69.03,4.85.15.8.98.21.79,1.15Z"/>
  <path class="cls-1" d="M146.61,66.14c.06,1.61-.22,3.29-.08,4.9.02.23.11.75.26.91.21.21.52.1.55.13.03.03-.02.51,0,.63-1.15-.05-2.28-.07-3.43,0,.02-.12-.03-.61,0-.63.06-.06.64.2.84-.47.13-.42.13-3.13.04-3.62-.1-.52-.4-.54-.88-.52-.17-.8.52-.64,1.08-.86.31-.12,1.39-.83,1.61-.48Z"/>
  <path class="cls-1" d="M78.78,68.92c7.09-.04,14.19-.19,21.27-.27,1.43-.02,2.87-.02,4.3.06l-.05.67c-.48-.02-.96.02-1.44,0-8.01-.26-16.05-.18-24.07-.27v-.18Z"/>
  <path class="cls-1" d="M266.23,68.92v.18c-7.93.09-15.88.02-23.8.27-.48.02-.96-.02-1.44,0l-.05-.67c1.42-.08,2.87-.07,4.3-.06,6.99.09,14,.22,21,.27Z"/>
  <polygon class="cls-1" points="104.35 66.67 104.3 67.39 81.85 66.98 104.35 66.67"/>
  <path class="cls-1" d="M84.93,70.91l19.37-.27.05.67c-.01.08-.98.06-1.13.06-6.07-.24-12.2-.21-18.29-.27v-.18Z"/>
  <path class="cls-1" d="M260.99,70.91l-.31.09c-1.75.06-3.5.05-5.24.09-4.43.09-8.93.11-13.36.28-.15,0-1.12.03-1.13-.06l.05-.67,20,.27Z"/>
  <path class="cls-1" d="M260.45,66.94v.09c-4.13.08-8.29.22-12.42.27-2.35.03-4.7-.08-7.04.09l-.05-.67c1.06-.08,2.15-.08,3.21-.06,5.42.1,10.87.26,16.3.27Z"/>
  <circle class="cls-1" cx="145.63" cy="63.18" r=".99"/>
  <circle class="cls-1" cx="162.2" cy="63.18" r=".99"/>
  <circle class="cls-1" cx="209.91" cy="63.18" r=".98"/>
  <circle class="cls-1" cx="224.88" cy="63.18" r=".98"/>
  <path class="cls-2" d="M266.23,68.92c1.56.01,3.14-.05,4.7.05-1.57.08-3.13.12-4.7.14v-.18Z"/>
  <path class="cls-2" d="M78.78,68.92v.18c-.59,0-1.18.02-1.77,0-.21,0-.41-.09-.62-.1-.2,0-1.95.06-1.95-.04,1.44-.09,2.89-.04,4.34-.05Z"/>
  <path class="cls-2" d="M84.93,70.91v.18c-.23,0-1.9.07-1.9-.14.62-.08,1.27-.04,1.9-.05Z"/>
  <path class="cls-2" d="M260.45,66.94c.19,0,1.9-.05,1.9.05-.56.12-1.11.14-1.68.14-.12,0-.21-.09-.22-.09v-.09Z"/>
  <g>
    <path class="cls-1" d="M271.47,34.28v2.35l-13.1,18.04h10.12l.77-3.34h2.03v5.95h-17.43v-2.3c4.14-5.88,8.63-11.52,12.72-17.43.14-.2.33-.43.38-.66h-9.12l-.81,3.34h-2.17v-5.95h16.62Z"/>
    <path class="cls-2" d="M144.55,34.28v1.98l-2.89.68,3.43,14.66,5.46-17.05.1-.08,3.05-.2,5.34,17.78,4.02-14.94v-.21c-.96-.23-2-.33-2.89-.68v-1.76l8.85-.18v1.98l-2.62.69-5.77,20.29h-3.63s-4.91-18.55-4.91-18.55l-5.38,18.58-3.34-.04-5.5-20.29c-.14-.2-2.23-.45-2.54-.73v-1.76l9.21-.18Z"/>
    <path class="cls-2" d="M179.87,34.28v1.94c-.04.06-.09.09-.15.12-.79.29-2.07.33-2.92.56v7.22h10.93v-7.22c-.85-.23-2.13-.28-2.92-.56-.07-.02-.12-.06-.15-.12v-1.76l9.39-.18v1.98l-2.81.68v17.59s.12.16.12.16l2.69.6v1.98h-9.39v-1.98l3.07-.63v-7.85h-10.93v7.85l3.07.63v1.98h-9.39v-1.98l2.81-.69v-17.67s-2.81-.68-2.81-.68v-1.8l9.39-.18Z"/>
    <path class="cls-2" d="M73.82,34.46c1.55-.07,3.1-.05,4.66-.09,3.91-.09,10.89-1.03,12.09,4.07.76,3.23-.65,6.19-4,6.89,1.41.48,2.84.95,3.84,2.12,1.31,1.53,1.43,3.76.85,5.63-.96,3.12-4.12,4.05-7.08,4.2-3.39.17-6.94-.14-10.35,0v-1.98l2.81-.69v-17.67s-2.81-.68-2.81-.68v-1.8ZM79.87,44.11h3.66c1.11,0,2.87-.92,3.38-1.95,1.24-2.5-.38-5.27-3.2-5.27h-3.84v7.22ZM79.87,54.67c3.45-.04,8.56.73,8.22-4.29-.28-4.32-5.1-3.72-8.22-3.74v8.03Z"/>
    <path class="cls-2" d="M120.52,34.28v1.98c-.89.26-1.93.33-2.8.58-.12.04-.3.05-.35.19.11,3.87-.19,7.86-.02,11.72.13,2.95.74,5.71,4.21,5.99,4.2.34,6.33-.75,6.64-5.19v-12.67s-3.07-.64-3.07-.64v-1.8l9.39-.18v1.98l-2.8.64v11.77c-.27,5.79-2.7,8.86-8.72,8.98-5.78.12-8.76-2.34-9.08-8.17v-12.58s-2.8-.64-2.8-.64v-1.8l9.39-.18Z"/>
    <path class="cls-1" d="M213.29,39.87h-2.12c-.46-.91-.48-2.09-.99-2.98h-6.91v7.13h7.5v2.62h-7.5v8.03h7.5l.77-3.34h2.03v5.95h-16.62v-1.98l2.69-.6.12-.16v-17.59s-2.81-.68-2.81-.68v-1.8c5.33-.21,10.69-.19,16.04-.19.09-.02.31.07.31.14v5.46Z"/>
    <path class="cls-1" d="M233.44,34.28v5.59h-2.03c-.4-.93-.63-1.98-.86-2.98h-7s-.14.13-.14.14v6.86s.13.14.14.14h7.45v2.62h-7.59v8.03h7.59l.63-3.25h2.17v5.86h-16.62v-1.98l2.69-.6.12-.16v-17.59s-2.81-.68-2.81-.68v-1.8l16.26-.18Z"/>
    <polygon class="cls-2" points="103.45 34.28 103.45 36.26 100.64 36.9 100.64 54.67 107.33 54.67 107.96 50.88 110.31 50.88 110.31 57.28 94.32 57.28 94.32 55.3 97.01 54.7 97.13 54.54 97.13 36.95 94.32 36.26 94.32 34.46 103.45 34.28"/>
    <path class="cls-1" d="M245.99,34.28v1.98l-2.8.63v17.77h6.78l.68-3.79h2.21v6.41h-15.9v-1.98l2.81-.69-.05-17.63c-.15-.23-2.41-.48-2.76-.76v-1.76l9.03-.18Z"/>
  </g>
  <g>
    <path class="cls-2" d="M41.75,29.05h-.95c-16.93-1.52-30.05,13.4-27.86,29.99,1.21,9.12,7.47,17.45,16.07,20.81-.08.19-.58,0-.74-.03-9.57-1.88-17.32-9.64-19.74-18.99-4.55-17.61,9.33-35.02,27.74-33.03,1.87.2,3.7.67,5.48,1.25Z"/>
    <path class="cls-1" d="M40.21,81.64c-.04-.69.09-1.41-.09-2.07,22.8-6.18,25.97-38.26,5.05-49.2l-2.16-1.05c11.32,1.87,19.89,11.69,21.14,22.96,1.62,14.68-8.98,28.42-23.94,29.36Z"/>
    <path class="cls-2" d="M28.65,52.06c-.3,1.28-.28,2.59,0,3.86l-11.38,5.38c-1.9-4.75-1.94-10.17-.08-14.94l11.47,5.69Z"/>
    <path class="cls-2" d="M37.86,33.38l-1.92,12.43c-1.24.21-2.5.48-3.56,1.18l-8.88-9.15,1.36-1.07c3.81-2.48,8.43-3.79,13-3.39Z"/>
    <path class="cls-2" d="M35.95,62.08l1.73,12.08c-.55-.09-1.15.1-1.67.1-.19,0-.37-.09-.54-.1-4.34-.14-8.49-1.67-11.88-4.38l8.67-8.75c.26-.12.87.34,1.17.45.81.31,1.65.51,2.51.6Z"/>
    <path class="cls-1" d="M56.11,48.89l-12.04,1.9c-.51-1.1-1.18-2.09-2.1-2.89l5.74-10.96c.18-.11.86.46,1.04.6,3.6,2.74,6.42,6.91,7.37,11.36Z"/>
    <path class="cls-1" d="M56.02,59.18c-1.04,3.79-3.21,7.26-6.14,9.88-.51.45-1.57,1.33-2.14,1.65-.1.05-.19.15-.3.07l-5.49-10.58c.76-.97,1.72-1.87,2.07-3.09l12.01,2.07Z"/>
    <path class="cls-2" d="M36.78,51.96c.01.26-.15.37-.17.51-.01.13.16.24.17.3.04.76-.1,1.89-.09,2.75,0,.15-.06.4.09.49-1.09,1.04-2.19,2.35-3.39,3.34-.1.08-.15.22-.32.18l2.26-4.64c-.77-.41-1.58-.76-2.33-1.21-.07-.04-.15.03-.11-.15,1.22-1.11,2.42-2.25,3.61-3.38.31.38.17,1.09.18,1.59,0,.12.09.2.09.22Z"/>
    <path class="cls-2" d="M40.12,79.57c.18.67.05,1.39.09,2.07-.02,0-.14.09-.31.1-3.3.16-6.6-.33-9.72-1.36-.02-.16.2-.09.3-.08,3.41.32,6.32.17,9.63-.73Z"/>
    <path class="cls-1" d="M36.78,56.02c-.15-.09-.09-.34-.09-.49-.01-.86.13-1.99.09-2.75.79.22,1.53.74,2.26,1.13.03.12-.32.41-.4.5-.59.56-1.29,1.08-1.85,1.62Z"/>
    <path class="cls-1" d="M36.51,50.16c.65-.62,1.35-1.42,2.03-1.98.1-.08.15-.22.32-.18l-2.08,3.97s-.09-.1-.09-.22c0-.49.14-1.2-.18-1.59Z"/>
  </g>
</svg>