<?xml version="1.0" encoding="UTF-8"?>
<svg id="Layer_1" data-name="Layer 1" xmlns="http://www.w3.org/2000/svg" viewBox="0 0 280.78 100">
  <defs>
    <style>
      .cls-1 {
        fill: #c5906f;
      }

      .cls-1, .cls-2, .cls-3, .cls-4, .cls-5, .cls-6, .cls-7, .cls-8, .cls-9, .cls-10, .cls-11 {
        fill-rule: evenodd;
      }

      .cls-2 {
        fill: #c1baa7;
      }

      .cls-4 {
        fill: #c89b7e;
      }

      .cls-5 {
        fill: #77b7b2;
      }

      .cls-6 {
        fill: #bdb2a0;
      }

      .cls-7 {
        fill: #bcaa95;
      }

      .cls-8 {
        fill: #b2bbb1;
      }

      .cls-9 {
        fill: #acb6ab;
      }

      .cls-10 {
        fill: #d09774;
      }

      .cls-11 {
        fill: #ca9373;
      }
    </style>
  </defs>
  <path d="M225.04,80.12c-3.58,0-5.98,1.8-5.98,4.66,0,5.58,8.23,3.85,8.23,6.81,0,.97-.86,1.51-2.3,1.51-1.63,0-3.88-.92-5.47-2.36l-1.39,2.9c1.74,1.51,4.28,2.5,6.82,2.5,3.42,0,6.05-1.66,6.05-4.75.02-5.67-8.21-4.05-8.21-6.95,0-.85.79-1.28,1.96-1.28,1.24,0,3.18.63,4.81,1.62l1.35-2.95c-1.54-1.03-3.71-1.71-5.87-1.71M216.28,80.28h-3.49v9.15c0,2.27-1.37,3.64-3.44,3.64s-3.53-1.37-3.53-3.64v-9.15h-3.49v9.15c0,4.16,2.74,6.75,7.02,6.75s6.93-2.59,6.93-6.75v-9.15ZM193.93,92.92v-12.64h-3.49v15.74h10.11v-3.1h-6.62ZM178.96,83.23h2.89c1.94,0,3.05.88,3.05,2.63s-1.1,2.7-3.05,2.7h-2.89v-5.33ZM175.48,80.28v15.74h3.49v-4.5h3.07c3.93,0,6.18-2.11,6.18-5.78s-2.25-5.46-6.18-5.46h-6.55ZM162.9,90.94l5.63-10.66h-3.51l-3.86,7.06-3.95-7.06h-3.51l5.72,10.75v4.99h3.49v-5.08ZM143.12,88.56v-5.33h3.22c1.92,0,3.02.88,3.02,2.63s-1.1,2.7-3.02,2.7h-3.22ZM149.13,96.02h3.95l-3.29-5.2c1.88-.9,2.89-2.65,2.89-5.08,0-3.49-2.3-5.46-6.33-5.46h-6.71v15.74h3.49v-4.5h3.55l2.45,4.5ZM136.66,83.23v-2.95h-11.76v15.74h12.01v-2.95h-8.52v-3.49h7.46v-2.95h-7.46v-3.42h8.28ZM117.06,96.02l6.14-15.74h-3.6l-4.24,11.87-4.22-11.87h-3.75l6.07,15.74h3.6ZM105.67,96.02v-15.74h-3.49v15.74h3.49ZM93.49,92.92v-12.64h-3.49v15.74h10.11v-3.1h-6.62ZM87.02,83.23v-2.95h-11.76v15.74h12.01v-2.95h-8.52v-3.49h7.46v-2.95h-7.46v-3.42h8.28ZM61.78,83.27h3c2.65,0,4.63,2,4.63,4.9s-1.9,4.86-4.48,4.86h-3.16v-9.76ZM58.29,80.28v15.74h6.42c4.88,0,8.25-3.24,8.25-7.87s-3.33-7.87-8.12-7.87h-6.55Z"/>
  <path class="cls-3" d="M157.96,52.25c.13-.22.02-.06.18-.24.4-.43,1.92-1.61,2.82-2.52,2.04-2.05,3.52-4.01,4.85-6.58.46-.89.71-1.6,1.04-2.51l.19-.62c.09-.37.08-.14.18-.47.12-.38-.08-.37.27-.49.74-2,.69-3.31.47-5.43l-.03-.03c-.21-.01-.42-.32-.6-.46-.27-1.34-.43-.98-.74-2.38-.12-.57-.11-1.31-.24-1.84-.12-.48-.26-1.15-.35-1.65-.1-.57-.35-1-.5-1.51-.08-.26-.12-.57-.22-.84l-.83-2.19c-.12-.38-.43-1.04-.61-1.36-.26-.46-.46-.94-.7-1.37-3.07-5.33-7.46-9.82-13.14-12.33-1.2-.53-2.34-.99-3.72-1.29-1.97-.43-5.79-1.12-7.96-.6-1.02.25-1.48.45-2.86.88-3.1.96-3.77,1.35-6.34,2.86-1.72,1.01-4.71,3.02-5.19,5.02-.1.42-.11.39-.21.72-.58,2.03.66,4.68,2.49,5.62,1.01.52,1.82.87,3.24.76,1.33-.1,1.97-.59,2.86-1.17.78-.5,1.78-1.09,2.45-1.69.72-.64,1.45-1.14,2.44-1.62,6.35-3.1,12.53,1.13,15.9,6.41.55.86.98,1.69,1.48,2.65.8,1.55.62,1.58,1.13,2.92.81,2.16.84,4.88.4,7.09-.75,3.76-2.87,4.92-5.36,6.88-.8.62-1.43,1.14-2.26,1.78-.23.17-.41.29-.62.43-.27.18-.33.28-.56.46l-5.74,4.41c-1.15.63-1.94-.56-2.42-1.22-.31-.42-.61-.74-.91-1.15l-6.03-8.18c-1.36-1.84-2.12-3.16-4.33-3.84-4.72-1.44-9.59,4.21-5.47,9.34.95,1.19.35.48.81,1.16.22.33.6.74.91,1.15l6.18,8.03c1.04,1.38,8.65,11.33,8.87,11.36.25.04,3.19-2.33,3.62-2.67l15.15-11.71Z"/>
  <path class="cls-5" d="M157.77,52.38l-14.96,11.58c-.43.34-3.38,2.7-3.62,2.67-.22-.03-7.83-9.98-8.87-11.36l-6.18-8.03c-.31-.41-.69-.82-.91-1.15-.47-.68.14.02-.81-1.16-4.12-5.13.75-10.78,5.47-9.34,2.21.68,2.97,2,4.33,3.84l6.03,8.18c.31.41.61.72.91,1.15.47.66,1.27,1.85,2.42,1.22l5.74-4.41c.23-.18.29-.28.56-.46.21-.14.4-.26.62-.43.83-.64,1.47-1.15,2.26-1.78,2.49-1.96,4.61-3.12,5.36-6.88.44-2.21.41-4.93-.4-7.09-.5-1.35-.32-1.38-1.13-2.92-.5-.96-.93-1.79-1.48-2.65-3.38-5.28-9.56-9.51-15.9-6.41-.98.48-1.72.97-2.44,1.62-.67.6-1.68,1.19-2.45,1.69-.89.58-1.52,1.06-2.86,1.17-1.42.11-2.24-.24-3.24-.76-1.83-.95-3.06-3.6-2.49-5.62.09-.33.11-.3.21-.72.48-1.99,3.47-4.01,5.19-5.02,2.57-1.51,3.24-1.9,6.34-2.86,3.53-1.09,7.24-1.06,10.83-.28,1.38.3,2.52.76,3.72,1.29,5.67,2.51,10.06,7,13.13,12.33.25.43.45.91.7,1.37.18.32.49.99.61,1.36l.83,2.19c.1.27.14.58.22.84.15.5.4.94.5,1.51.09.5.23,1.17.35,1.65l.35,3.7,1.26,1.08,1.37-1.1c0-1.81-.21-2.68-.29-3.31-.18-1.3-.5-2.38-.6-3.15-.58-1.58-.59-2.06-1.39-3.94-.55-1.3-1.17-2.45-1.81-3.6-1.91-3.46-5.6-7.83-8.9-10.04-2.1-1.4-1.78-1.27-4.26-2.54-.32-.16-.54-.35-.86-.48-.2-.09-.35-.11-.53-.18l-1.49-.58c-5.71-1.9-10.59-1.66-16.1.38-.56.21-1.36.51-1.89.78l-3.52,1.92c-1.45.96-3.35,2.49-4.45,3.72-.9,1.01-1.49,2.5-1.56,3.89-.12,2.7.45,4.37,2.15,6.05.45.44,1.06.83,1.61,1.15,2,1.16,4.43,1.03,6.52.2.86-.34,2.37-1.56,3.24-2.14,1.29-.86,2.26-2.34,5.32-2.85,2.78-.46,6,.99,7.94,2.76,2.55,2.33,4.27,4.91,5.47,8.14.49,1.3.93,2.93.99,4.42.05,1.42-.2,3.41-.8,4.64-.89,1.84-2.56,2.88-4.06,4.11l-8.36,6.61c-.82.65-.93.81-1.78-.45l-2.45-3.25c-1.02-1.38-2.18-2.74-3.15-4.16l-3.31-4.18c-1.4-1.3-3.57-2.24-5.66-1.81-4.44.91-6.53,5.36-4.8,9.09.55,1.2.54.93,1.06,1.69.15.22.19.38.34.61.25.38.55.64.85,1.02l4.18,5.29c.58.69,1.1,1.41,1.63,2.06,1.63,2.01,3.45,4.52,4.96,6.32l5,6.27c.69.86,1.31,0,2.27-.77l6.29-4.98c.67-.62,1.43-1.08,2.11-1.67,1.03-.9,8.25-6.39,8.34-6.6,1.3-.72,3.63-3.14,4.65-4.25,2-2.18,5.25-6.71,5.21-9.75-.35.13-.15.11-.27.49-.1.33-.09.1-.18.47l-.19.62c-.33.92-.58,1.62-1.04,2.51-1.33,2.56-2.81,4.52-4.85,6.58-.9.91-2.43,2.08-2.82,2.52-.16.18-.24.15-.37.37"/>
  <path class="cls-11" d="M147.87,27.09c-.45.31.09,1.01.31,1.44.2.39.42,1.21.53,1.62.68,2.58-.43,6.23-2,8.35-.83,1.12.03,1.25.37.97.4-.32,1.35-2.09,1.6-2.63,2.44-5.25.13-10.42-.82-9.76"/>
  <path class="cls-8" d="M134.6,25.28c-.47.55-.87,1.05-1.19,1.72-.16.33-1.11,1.88-.07,1.84.48-.02.42-.34.65-.81,1.07-2.2,2.04-3.33,4.28-4.5.62-.32,2.59-.7,3.25-.73.41-.02.74.03.91-.29.2-.39-.09-.69-.47-.74-.73-.09-1.64.11-2.3.24-1.93.41-3.8,1.81-5.06,3.27"/>
  <path class="cls-6" d="M139.93,26.74c.91-.45,1.79-.24,2.9-.38.34-.07.5-.53.12-.72-.83-.51-2.77-.08-3.5.28-1.23.61-2.15,1.59-2.89,2.71-.38.73-1.15,2.98-.32,3.26.98.33.57-1.52,1.29-2.83.59-1.07,1.3-1.76,2.41-2.31"/>
  <path class="cls-7" d="M142.97,40.95c.42.17.7-.05,1.67-.98.62-.59,1-1.06,1.54-1.81.72-1.01,2.04-3.99,1.66-4.89-.2-.49-.76-.16-.84.16-.34,1.41-.21,1.98-1.26,3.77-.53.91-1.48,1.96-2.3,2.6-.34.27-.73.47-.75.77-.02.24.13.31.29.38"/>
  <path class="cls-8" d="M134.32,32.59c1.02.36.8-.33.8-1.34,0-2.27,1.4-4.63,3.29-5.69.37-.21.39-.39.22-.8-.7-.23-1.51.54-1.96.97-1.36,1.31-1.72,2.29-2.28,3.91-.21.61-.23,2.34-.07,2.96"/>
  <path class="cls-6" d="M138.36,30.04c.65.36.81-.28,1.29-.75.48-.55,1.04-.89,1.87-.98.65-.07,1.23,0,1.68.22.29.14.32.15.62.35.22.14.38.34.62.33.24,0,.45-.21.47-.45.03-.35-.19-.47-.36-.62-1.1-.9-2.79-1.2-4.11-.65-.79.32-2.34,1.52-2.07,2.56"/>
  <path class="cls-7" d="M136.69,38.74c.36-.74.6-2.16.61-3.18,0-.61.01-1.33-.12-1.87-.03-.11-.22-1.42-.85-.83-.35.33.05,1.35.05,2.69,0,.64-.07.88-.16,1.4-.11.64-.22.9-.45,1.39-.11.24,0,.51.16.64.4.32.64.07.75-.25"/>
  <path class="cls-6" d="M144.77,25.15c.38.17,1.53,1.09,1.81,1.03.25-.06.89-.49-.2-1.25-2.17-1.52-6.18-2.02-6.01-.65.07.55.64.29,1.13.26.77-.04,2.57.29,3.28.62"/>
  <path class="cls-11" d="M141.17,39.61c-.22.49-.38.98-.21,1.23.81.51.94-.3,1.16-.97.36-1.09.91-2.85.88-3.98-.02-.77-.9-.88-1.04-.17-.32,1.59-.11,1.72-.79,3.88"/>
  <path class="cls-1" d="M138.09,31.42c-.31.27.13,2.2.19,2.75.06.52.04.94.08,1.47.06.86,1.54,1.4.78-2.3-.08-.38-.31-2.56-1.05-1.93"/>
  <path class="cls-4" d="M150.64,30.82c.01.48-.09.9.35.98.59.11.55-.35.54-.81-.05-1.7-1-4.3-2.08-5.62-.34-.41-1.58-1.66-2.04-1.8-.08-.13-1.04-.76-1.29-.89,0,0-.36-.15-.36-.15-.68-.23-1.22.6.37,1.26.17.05.22.12.38.23,1.2.81,1.84,1.36,2.74,2.69.76,1.13,1.35,2.76,1.39,4.11"/>
  <path class="cls-2" d="M133.25,35.46c.78.3.79-.73.5-1.34-.19-.53-.45-1.77-.36-2.34,0-.66-.22-.97-.86-.83-.36.21-.27.83-.24,1.25.14,1.03.37,2.42.95,3.26"/>
  <path class="cls-7" d="M140.11,29.93c-.15.2-.31.46-.38.65-.24.65-.32,1.48.57,1.34.5-.31-.1-.96.81-1.69.47-.45,1.34-.34,1.79.14.68.73.96,2.07,1.06,3.05.07.68-.2,1.56.78,1.3.49-1.05-.08-3.21-.68-4.29-.9-1.63-2.86-1.92-3.94-.5"/>
  <path class="cls-10" d="M145.44,31.9c-.02.44.04.87.04,1.33,0,.62-.07.58.25.98.17.13.38.13.6.03.45-.67.17-1.87.07-2.64-.02-.17-.03-.27-.07-.43-.04-.14-.01-.07-.07-.18-.18-.73-.82-1.29-1.19-.73-.03.07-.08.2-.06.31,0,.3.32.36.43,1.34"/>
  <path class="cls-7" d="M134.51,36.12c-.02.15-.06.47-.1.7-.07.4-.06.4.14.7,1.12.16,1.04-1.66,1.05-2.39,0-.77.1-1.65-.91-1.4-.35.28-.19.42-.16,1.06.02.45-.04.9-.02,1.34"/>
  <path class="cls-4" d="M143.62,36.78c.01.39-.14.72-.24,1.01-.15.48-.47.61-.05.94.83.62,1.7-2.59,1.51-3.01-.18-.4-1.14-.91-1.22,1.06"/>
  <path class="cls-10" d="M142.41,31.3c-.27-.57-1.17-.31-.76,1.01.17.54.13,1.82.36,2.16.16.24.57.29.8.05.35-.36,0-1.99-.1-2.56-.08-.43-.25-.53-.29-.66"/>
  <path class="cls-9" d="M140.95,37.53c.17-.86.16-1.86.1-2.74-.03-.38,0-.86-.22-1.13-.27-.33-.8-.3-.92.2-.04.19.13,2.03.09,2.64-.03.42-.2.87.09,1.17.36.36.59.1.86-.13"/>
  <path class="cls-6" d="M146.91,30.27c.14.54,0,.88.16,1.42.23.25.49.31.85.08.75-1.01-1.57-5.61-3.12-5.32-.2.1-.26.47-.14.67,1.12.77,1.96,1.69,2.25,3.15"/>
  <path class="cls-9" d="M138.85,36.97c-.85-.1-.74.65-.9,1.19-.16.52-.93,1.86-.02,2.01.14.02.13.03.25-.04.45-.25,1.35-2.84.67-3.17"/>
  <path class="cls-9" d="M151.28,33.38c0-.37-.11-.54-.37-.57-.26.02-.39.08-.42.53-.03.75-.16,1.7-.68,2.68-.17.65.43.81.73.54.42-.59.89-2.5.73-3.17"/>
  <path class="cls-11" d="M139.06,40.2c-.02.12.03.27.1.37.15.21.69.41.99-.26.11-.24.25-.66.35-.95.13-.35.22-.93-.11-1.1-.45-.19-.66.12-.87.74-.06.17-.46,1.2-.46,1.21"/>
</svg>