<?xml version="1.0" encoding="UTF-8"?>
<svg id="Layer_1" data-name="Layer 1" xmlns="http://www.w3.org/2000/svg" viewBox="0 0 280.78 100">
  <defs>
    <style>
      .cls-1 {
        fill: #3a8254;
      }

      .cls-2 {
        fill: #387350;
      }

      .cls-3 {
        fill: #326a46;
      }

      .cls-4 {
        fill: #849c84;
      }
    </style>
  </defs>
  <g id="X8OwVx">
    <g>
      <path class="cls-4" d="M41.75,61.09c-.79.06-2.06.13-2.7-.21.85,0,2.01-.18,2.7.21Z"/>
      <g>
        <g>
          <polygon class="cls-1" points="109.56 29.52 116.94 56.73 124.12 29.52 136.59 29.52 136.59 70.23 128.9 70.23 128.69 39.49 120.99 70.22 112.8 70.24 104.98 39.28 104.98 70.23 97.08 70.23 97.08 29.52 109.56 29.52"/>
          <path class="cls-1" d="M153.03,29.52v27.73c0,3.07,2.43,6.02,5.44,6.62,4.28.84,9.58-.1,10.1-5.22.58-9.68.12-19.42.27-29.12h8.53c-.18,7.5.23,15.04,0,22.54-.22,7.38-.15,14.71-8.12,17.85-4.47,1.76-12.92,1.68-17.3-.37-6.4-2.99-7.18-8.81-7.45-15.2-.35-8.19.28-16.62,0-24.83h8.53Z"/>
        </g>
        <g>
          <polygon class="cls-1" points="213.96 29.52 213.96 36.38 194.21 36.38 194.21 46.14 211.26 46.14 211.26 52.99 194.21 52.99 194.21 70.23 185.89 70.23 185.89 29.52 213.96 29.52"/>
          <g>
            <polygon class="cls-1" points="244.95 29.52 246.95 33.04 261.39 56.32 261.39 29.52 269.08 29.52 269.08 70.23 260.55 70.23 260.31 69.54 244.54 44.27 244.54 70.23 236.64 70.23 236.64 29.52 244.95 29.52"/>
            <rect class="cls-1" x="220.41" y="29.52" width="8.53" height="40.71"/>
          </g>
        </g>
      </g>
      <g>
        <path class="cls-1" d="M65.67,37.62l10.5,33.65c.05.09.13.16.23.2.63.19,5.12-2.68,6.11-3l.22-.61.1-36.26-31.23-18.44L19.19,31.39v36.35s31.67,18.66,31.67,18.66l.66-.07,12.58-6.73c.38.09,2.69,6.23,2.81,7.11-5.07,3.27-10.42,6.2-15.65,9.25l-39.55-23.64V26.4S51.43,4.05,51.43,4.05l39.52,22.98.11,45.4-.22.61-18.1,10.59-.51-.11-10.49-32.52.08-1.34,3.86-12.04Z"/>
        <path class="cls-2" d="M65.05,37.21l-7.09,23.56c-.15.32-.4.31-.7.34-.7.08-6.07.05-6.37-.11l-3.92-11.45,3.76-11.59.39-.34,3.54,11.21,3.57-11.6c2.27-.25,4.57-.41,6.84-.03Z"/>
        <path class="cls-3" d="M39.05,60.88c-1.11,0-2.22,0-3.33,0l.02-.71,7.68-22.97h6.86c-2.34,7.97-4.88,15.98-7.7,23.79-.26.17-.55.08-.83.1l-2.7-.21Z"/>
      </g>
    </g>
  </g>
</svg>