<?xml version="1.0" encoding="UTF-8"?>
<svg id="Layer_1" data-name="Layer 1" xmlns="http://www.w3.org/2000/svg" viewBox="0 0 280.78 100">
  <defs>
    <style>
      .cls-1 {
        fill: #010101;
      }

      .cls-1, .cls-2 {
        fill-rule: evenodd;
      }

      .cls-2, .cls-3 {
        fill: #da3832;
      }
    </style>
  </defs>
  <g id="Layer_1-2" data-name="Layer 1-2">
    <g>
      <path class="cls-1" d="M49.26,54.4l6.74-.19,4.04,7,4.04,7-4.46,7.25-4.46,7.25-8.51.25-8.51.25-4.04-7-4.04-7,3.43-5.57,7.55,14.95.32.63.68-.12,9.71-1.63.61-.38,5.69-7.87.38-.52-.35-.54-8.84-13.72v-.02ZM40.02,24.54l8.51-.25,8.51-.25,4.04,7,4.04,7-4.46,7.25-4.46,7.25-6.5.18,9.33-12.7.33-.46-.25-.51-4.49-9.36-.29-.6-.65.06-11.04,1-.48.04-.25.41-8.07,13.15-2.74-4.75,4.46-7.25,4.46-7.23ZM12.34,40.39l8.51-.25,8.51-.23,2.79,4.84-16.45-.03h-.6l-.26.54-4.41,9.43-.22.48.28.44,5.32,8.27.31.48.56-.05,15.17-1.33-3.34,5.41-8.51.25-8.51.25-4.04-7-4.04-7,4.46-7.25,4.46-7.25h.01ZM39.18,53.04l-4.26-7.39.22.38,4.04,7ZM47.04,54.46l9.1,14.14-5.08,7.02-8.63,1.45-7.76-15.37-.13-.26-.29-.58-.64.05-.52.04-16.01,1.41-4.73-7.35,3.94-8.41,16.95.03,4.2,7.27-4.04-7-.16-.27h1.08l.28-.46.33-.54,8.36-13.62,9.91-.91,3.96,8.25-9.86,13.44-.31.43-.38.52.35.54.1.15h-.01Z"/>
      <path class="cls-3" d="M16.29,46.62l-3.94,8.41,4.73,7.35,16.53-1.45.64-.05.29.58,7.89,15.62,8.63-1.45,5.08-7.02-9.2-14.29-.35-.54.38-.52,10.17-13.87-3.96-8.25-9.91.91-8.69,14.16-.28.46h-.53l-17.48-.03h0ZM10.42,54.71l4.42-9.43.26-.54h.6l17.55.03,8.66-14.12.25-.41.48-.04,11.04-1,.65-.06.29.6,4.49,9.36.25.51-.33.46-10.11,13.79,9.2,14.29.35.54-.38.52-5.69,7.87-.61.38-9.71,1.63-.68.12-.32-.63-7.91-15.68-16.47,1.45-.56.05-.31-.48-5.32-8.27-.28-.44.22-.48-.02-.02Z"/>
      <path class="cls-1" d="M119.35,57.17l-2.79-7.04-2.78,7.04h5.57ZM120.98,61.41h-8.9l-1.23,3.24h-7.98l9.5-19.61h8.52l9.51,19.61h-8.17l-1.25-3.24h.01ZM157.91,45.04h8.44l4.49,6.03,4.35-6.03h8.53l-7.87,9.5,8.6,10.11h-8.77l-4.99-6.3-5,6.3h-15.81l-4.99-6.3-5,6.3h-8.72l8.72-10.22-7.93-9.39h8.6l4.49,6.03,4.35-6.03h8.53-.02ZM185.3,45.04h7.81v14.77h12.19v4.83h-20.01v-19.61h0ZM206.44,45.04h7.83v19.61h-7.83v-19.61ZM216.13,45.04h7.3l9.52,10.85v-10.85h7.36v19.61h-7.36l-9.47-10.76v10.76h-7.34v-19.61h0ZM242.09,45.04h7.81v7.41l8.2-7.41h10.38l-9.21,7.4,9.62,12.21h-9.62l-5.33-8.07-4.04,3.28v4.79h-7.81v-19.61h0ZM154.77,50.08l-3.01,4.73,2.96,4.71,5.97-.02,3.01-4.73-2.96-4.71-5.97.02ZM73.33,45.04h10.27l3.96,11.93,3.95-11.93h10.24v19.61h-6.38v-14.95l-4.95,14.95h-5.78l-4.93-14.95v14.95h-6.39s0-19.61,0-19.61Z"/>
      <polygon class="cls-2" points="154.77 50.08 157.75 50.07 160.74 50.06 162.22 52.41 163.7 54.76 162.2 57.13 160.7 59.49 157.71 59.5 154.72 59.51 153.25 57.17 151.77 54.81 153.27 52.45 154.77 50.08"/>
      <path class="cls-3" d="M269.47,39.12h.78c.5,0,.82-.02.94-.06.13-.04.22-.12.29-.22.07-.11.11-.23.11-.38,0-.17-.04-.32-.14-.43-.1-.11-.22-.17-.39-.2-.09-.01-.34-.02-.77-.02h-.82v1.31h.01ZM268.43,42.11v-5.18h2.21c.55,0,.96.04,1.2.14s.45.26.61.5c.15.23.22.51.22.82,0,.38-.12.71-.34.96-.22.26-.58.42-1.02.48.22.13.42.28.56.44s.34.44.6.84l.63,1.01h-1.25l-.76-1.13c-.27-.41-.45-.66-.55-.76-.1-.11-.2-.18-.32-.21-.11-.04-.29-.05-.52-.05h-.21v2.16h-1.04v-.02Z"/>
      <path class="cls-2" d="M270.5,35.38c2.28,0,4.14,1.85,4.14,4.14s-1.85,4.14-4.14,4.14-4.14-1.85-4.14-4.14,1.85-4.14,4.14-4.14M270.5,34.83c2.59,0,4.69,2.1,4.69,4.7s-2.1,4.7-4.69,4.7-4.69-2.1-4.69-4.7,2.1-4.7,4.69-4.7Z"/>
    </g>
  </g>
</svg>