<?xml version="1.0" encoding="UTF-8"?>
<svg id="Layer_1" data-name="Layer 1" xmlns="http://www.w3.org/2000/svg" viewBox="0 0 280.78 100">
  <defs>
    <style>
      .cls-1 {
        fill: #d25235;
      }
    </style>
  </defs>
  <g>
    <path class="cls-1" d="M32.46,96.47h2.03v-19.85h5.97v-2.31h-13.98v2.31s5.97,0,5.97,0v19.85h0ZM46.08,96.47h12.99v-2.28s-10.98,0-10.98,0v-7.75s9.71,0,9.71,0v-2.28s-9.71,0-9.71,0v-7.57s10.85,0,10.85,0v-2.28s-12.86,0-12.86,0v22.16h0ZM73.1,96.84c3.23,0,5.26-1.55,7.12-3.9l-1.33-1.62c-1.7,2.03-3.3,3.2-5.74,3.2-3.91,0-6.89-4.02-6.89-9.16v-.06c0-5.1,2.95-9.08,6.89-9.08,2.41,0,4.09,1.27,5.59,3.03l1.38-1.83c-1.78-2.09-3.71-3.52-6.94-3.52-5.24,0-9,5.2-9,11.46v.06c0,6.36,3.79,11.4,8.92,11.4h0ZM85.58,96.47h2.01v-9.97h10.27s0,9.97,0,9.97h2.01v-22.16s-2.01,0-2.01,0v9.85s-10.27,0-10.27,0v-9.85s-2.01,0-2.01,0v22.16h0ZM106.76,96.47h1.96v-18.18s11.48,18.18,11.48,18.18h1.61v-22.16s-1.96,0-1.96,0v17.76s-11.21-17.76-11.21-17.76h-1.88v22.16h0ZM136.96,96.84c5.41,0,9.1-5.35,9.1-11.46v-.06c0-6.11-3.64-11.4-9.05-11.4s-9.1,5.35-9.1,11.46v.06c0,6.11,3.63,11.4,9.05,11.4h0ZM137.01,94.54c-4.07,0-7.02-4.12-7.02-9.16v-.06c0-5.03,2.9-9.08,6.97-9.08,4.06,0,7.01,4.11,7.01,9.15v.06c0,5.04-2.9,9.09-6.96,9.09h0ZM152.15,96.47h12.02v-2.32h-10.02v-19.84s-2.01,0-2.01,0v22.16h0ZM176.99,96.84c5.41,0,9.1-5.35,9.1-11.46v-.06c0-6.11-3.64-11.4-9.05-11.4-5.42,0-9.1,5.35-9.1,11.46v.06c0,6.11,3.63,11.4,9.05,11.4h0ZM177.04,94.54c-4.07,0-7.02-4.12-7.02-9.16v-.06c0-5.03,2.9-9.08,6.97-9.08,4.06,0,7.01,4.11,7.01,9.15v.06c0,5.04-2.9,9.09-6.96,9.09h0ZM200.46,96.84c3,0,5.49-1.55,7.14-3.38v-8.83h-7.34s0,2.24,0,2.24h5.41s0,5.51,0,5.51c-1.22,1.23-3.1,2.22-5.14,2.22-4.32,0-7.04-3.93-7.04-9.22v-.06c0-4.94,2.83-9.08,6.77-9.08,2.51,0,4.03,1.04,5.41,2.53l1.3-1.9c-1.78-1.87-3.64-2.94-6.63-2.94-5.34,0-8.92,5.39-8.92,11.46v.06c0,6.34,3.46,11.4,9.05,11.4h0ZM214.16,96.47h2.01v-22.16s-2.01,0-2.01,0v22.16h0ZM223.23,96.47h12.99v-2.28s-10.98,0-10.98,0v-7.75h9.71v-2.28s-9.71,0-9.71,0v-7.57h10.85s0-2.28,0-2.28h-12.86v22.16h0ZM248.22,96.78c3.53,0,6.07-2.47,6.07-6.26v-.06c0-3.39-1.83-5.2-5.79-6.27-3.92-1.04-4.83-2.22-4.83-4.31v-.06c0-1.99,1.48-3.57,3.79-3.57,1.83,0,3.48.73,5.14,2.41l1.17-1.93c-1.8-1.8-3.66-2.73-6.25-2.73-3.38,0-5.84,2.57-5.84,6.05v.06c0,3.64,1.88,5.29,5.97,6.4,3.73.98,4.63,2.15,4.63,4.21v.06c0,2.18-1.58,3.77-3.96,3.77-2.47,0-4.25-1.05-6.1-3.13l-1.25,1.83c2.13,2.38,4.45,3.55,7.27,3.55h0Z"/>
    <polygon class="cls-1" points="144.1 32.05 144.1 33.74 123.42 33.74 123.42 32.05 144.1 32.05 144.1 32.05"/>
    <polygon class="cls-1" points="104.41 45.35 76.12 45.35 76.12 42.29 101.84 42.29 101.84 20.87 104.41 20.87 104.41 45.35 104.41 45.35"/>
    <path class="cls-1" d="M110.76,8.83c-13.09,0-23.74,10.65-23.74,23.74,0,13.09,10.65,23.74,23.74,23.74,13.09,0,23.74-10.65,23.74-23.74,0-13.09-10.65-23.74-23.74-23.74h0ZM110.76,58.64c-14.38,0-26.07-11.69-26.07-26.07,0-14.37,11.69-26.07,26.07-26.07,14.37,0,26.07,11.69,26.07,26.07,0,14.37-11.69,26.07-26.07,26.07h0Z"/>
    <polygon class="cls-1" points="111.16 24.46 109.47 24.46 109.47 16.03 111.16 16.03 111.16 24.46 111.16 24.46"/>
    <polygon class="cls-1" points="129.71 21.09 111.16 21.09 111.16 19.41 128.02 19.41 128.02 7.6 129.71 7.6 129.71 21.09 129.71 21.09"/>
    <polygon class="cls-1" points="111.16 41.33 109.47 41.33 109.47 49.76 111.16 49.76 111.16 41.33 111.16 41.33"/>
    <polygon class="cls-1" points="129.71 44.7 111.16 44.7 111.16 46.39 128.02 46.39 128.02 58.19 129.71 58.19 129.71 44.7 129.71 44.7"/>
    <polygon class="cls-1" points="111.16 36.27 109.47 36.27 109.47 27.84 111.16 27.84 111.16 36.27 111.16 36.27"/>
    <polygon class="cls-1" points="124.65 35.03 113.85 32.57 124.65 30.12 124.65 35.03 124.65 35.03"/>
  </g>
  <path d="M145.17,53.28h9.79c3.08,0,5.6-2.52,5.6-5.6,0-8.18-15.39-3.29-15.39-15.39,0-5.39,4.41-9.79,9.79-9.79h9.79v4.2s-9.79,0-9.79,0c-3.08,0-5.6,2.52-5.6,5.6,0,8.19,15.39,3.29,15.39,15.39,0,5.39-4.41,9.79-9.79,9.79h-9.79v-4.2h0Z"/>
  <path d="M175.95,57.48h-4.2V22.5c0-9.66,7.83-17.49,17.49-17.49v4.2c-7.34,0-13.29,5.95-13.29,13.29v15.39h13.29v4.2s-13.29,0-13.29,0v15.39h0Z"/>
  <path d="M200.58,37.89h26.23c-.98-6.37-6.44-11.19-13.08-11.19-6.65,0-12.1,4.83-13.15,11.19h0ZM213.73,53.28c3.64,0,6.99-1.47,9.37-3.85l3.01,2.87c-3.15,3.22-7.56,5.18-12.38,5.18-9.66,0-17.49-7.83-17.49-17.49,0-9.65,7.84-17.49,17.49-17.49,9.65,0,17.49,7.83,17.49,17.49v2.1h-30.64c1.05,6.36,6.51,11.19,13.15,11.19h0Z"/>
  <polygon points="238.21 5.01 242.41 5.01 242.41 22.5 257.8 22.5 257.8 26.7 242.41 26.7 242.41 57.47 238.21 57.47 238.21 5.01 238.21 5.01"/>
  <path d="M71.25,39.99c0-7.35-4.48-13.29-10-13.29-5.53,0-9.93,5.95-9.93,13.29v17.49h-4.2v-17.49c0-7.35-4.48-13.29-10-13.29s-9.93,6.23-9.93,13.29v17.49h-4.2s0-34.98,0-34.98h4.2s0,5.04,0,5.04c2.52-3.08,6.02-5.04,9.93-5.04,5.11,0,9.52,3.36,12.03,8.32,2.52-4.97,6.99-8.32,12.1-8.32,7.84,0,14.2,7.84,14.2,17.49v17.49h-4.2v-17.49h0Z"/>
</svg>