<?xml version="1.0" encoding="UTF-8"?>
<svg id="Layer_1" data-name="Layer 1" xmlns="http://www.w3.org/2000/svg" xmlns:xlink="http://www.w3.org/1999/xlink" viewBox="0 0 280.78 100">
  <defs>
    <style>
      .cls-1 {
        fill: none;
      }

      .cls-2 {
        font-family: Montserrat-Bold, Montserrat;
        font-size: 1.21px;
        font-weight: 700;
      }

      .cls-2, .cls-3 {
        isolation: isolate;
      }

      .cls-2, .cls-4, .cls-5 {
        fill: #da3832;
      }

      .cls-6 {
        clip-path: url(#clippath-1);
      }

      .cls-4 {
        fill-rule: evenodd;
      }

      .cls-7 {
        fill: #f3d949;
      }

      .cls-8 {
        letter-spacing: -.01em;
      }

      .cls-9 {
        clip-path: url(#clippath);
      }
    </style>
    <clipPath id="clippath">
      <rect class="cls-1" x="47" y="70.93" width="18.49" height="23.01"/>
    </clipPath>
    <clipPath id="clippath-1">
      <rect class="cls-1" x="28.53" y="70.93" width="18.47" height="23.01"/>
    </clipPath>
  </defs>
  <g id="Group_7" data-name="Group 7">
    <path id="Path_173" data-name="Path 173" d="M96.6,33h10.56c4.12,0,6.18,2.3,6.18,6.91v9.94c0,3.52-1.07,5.75-3.2,6.69l3.76,16.8h-5.11l-3.54-16.29h-3.26v16.29h-5.39v-40.34ZM102,52.44h3.54c1.61,0,2.42-.97,2.42-2.92v-8.71c0-1.95-.81-2.92-2.42-2.92h-3.54v14.55Z"/>
    <path id="Path_174" data-name="Path 174" d="M122.95,73.34h-5.39v-33.43c0-4.61,2.15-6.91,6.46-6.91h4.05c4.31,0,6.46,2.3,6.46,6.91v33.43h-5.39v-14.78h-6.18v14.78ZM129.13,53.67v-13.43c.16-1.14-.63-2.2-1.77-2.36-.2-.03-.39-.03-.59,0h-1.46c-1.14-.16-2.2.63-2.36,1.77-.03.2-.03.39,0,.59v13.43h6.18Z"/>
    <rect id="Rectangle_1" data-name="Rectangle 1" x="139.3" y="33" width="5.39" height="40.34"/>
    <path id="Path_175" data-name="Path 175" d="M157.11,73.34h-5.39l-6.74-19.73v-.34l5.62-20.28h4.94l-5.67,20.06,7.25,20.28Z"/>
    <path id="Path_176" data-name="Path 176" d="M165.59,73.34h-5.39v-40.34h5.39v40.34ZM178.01,73.34h-5.39l-6.74-19.73v-.34l5.62-20.28h4.94l-5.67,20.07,7.25,20.28Z"/>
    <path id="Path_177" data-name="Path 177" d="M191.44,43.84v-3.54c.18-1.15-.61-2.23-1.76-2.41-.2-.03-.4-.03-.6,0h-.85c-1.53,0-2.3.81-2.3,2.42v6.69c-.07.55.09,1.1.45,1.52.46.37.95.71,1.46,1.01l5.11,2.75c.83.45,1.62.94,2.39,1.49.46.34.83.78,1.1,1.29.33.93.46,1.91.39,2.9v8.6c0,4.53-2.17,6.8-6.52,6.8h-3.32c-4.31,0-6.46-2.47-6.46-7.42v-2.03h5.4v2.19c-.15,1.16.66,2.22,1.82,2.37.2.03.4.02.6,0h.95c1.42,0,2.14-.79,2.14-2.36v-6.85c.07-.55-.1-1.1-.45-1.52-.46-.37-.95-.71-1.46-1.01l-5.11-2.87c-.86-.43-1.68-.94-2.45-1.52-.51-.42-.89-.98-1.09-1.6-.25-.83-.36-1.69-.34-2.55v-8.26c0-4.61,2.15-6.91,6.46-6.91h3.37c4.31,0,6.46,2.3,6.46,6.91v3.93h-5.4Z"/>
    <path id="Path_178" data-name="Path 178" d="M213.35,73.34v-18.32h-6.63v18.32h-5.39v-40.34h5.39v17.14h6.63v-17.14h5.39v40.34h-5.4Z"/>
    <path id="Path_179" data-name="Path 179" d="M228.92,73.34h-5.39v-33.43c0-4.61,2.15-6.91,6.46-6.91h4.04c4.31,0,6.46,2.3,6.46,6.91v33.43h-5.39v-14.78h-6.18v14.78ZM235.09,53.67v-13.43c.16-1.14-.63-2.2-1.77-2.36-.2-.03-.39-.03-.59,0h-1.46c-1.14-.16-2.2.63-2.36,1.77-.03.2-.03.39,0,.59v13.43h6.18Z"/>
    <path id="Path_180" data-name="Path 180" d="M250.66,73.34h-5.39v-40.34h5.39v40.34ZM263.08,73.34h-5.39l-6.74-19.73v-.34l5.62-20.28h4.95l-5.68,20.06,7.25,20.28Z"/>
    <g id="Group_3" data-name="Group 3">
      <g id="Group_2" data-name="Group 2">
        <g class="cls-9">
          <g id="Group_1" data-name="Group 1">
            <path id="Path_181" data-name="Path 181" class="cls-4" d="M61.98,76.61c.29-1.19.65-2.54,1.02-3.68.13-.4.66-1.59.52-1.79-.45-.48-1.39-.1-1.97,1.41-.47,1.19-.93,2.76-1.37,4.08.58-.24,1.23-.25,1.81-.01"/>
            <path id="Path_182" data-name="Path 182" class="cls-4" d="M59.59,76.85c.36-.17.17-.08.26-.11.34-1.2.63-2.43,1.04-3.58.13-.37.65-1.45.53-1.65-.27-.42-1.28-.14-1.87,1.24-.66,1.56-1.16,3.4-1.77,5.08.65-.38,1.45-.82,1.82-.99"/>
            <path id="Path_183" data-name="Path 183" class="cls-4" d="M58.42,74.71c.14-.36.53-1.18.43-1.34-.19-.29-.79-.19-1.28.49-.06.08-.12.17-.18.26-.39.6-.68,1.26-.85,1.96-.21,1.09-.6,2.14-1.14,3.11.69-.34,1.36-.72,2.02-1.13.45-1.3.56-2.06,1-3.34"/>
            <path id="Path_184" data-name="Path 184" class="cls-4" d="M65.46,71.12c-.38-.47-1.56.01-2.12,1.76-.88,2.77-1.21,3.81-1.21,3.81.41.27.55.8.34,1.24-.34.86-1.32,1.43-2.77,2.77-.28.31-.6.58-.95.81-.76.49-1.63.75-2.53.76.82-.21,1.6-.55,2.32-1.01.36-.26,3.34-3.06,3.34-3.06,0,0,.98-1.38-.78-1.39-1.22-.01-3.9,2.06-5.65,2.74-1.12.43-2.32.43-3.89.95-4.88,1.6-4.27,6.1-4.55,13.43,5.4-6.11,4.05-5.16,10.74-8.18,2.41-1.09,4.76-4.77,5.83-6.28.83-1.19.92-4.3,1.43-6.32.12-.47.63-1.84.46-2.06"/>
          </g>
        </g>
      </g>
    </g>
    <g id="Group_6" data-name="Group 6">
      <g id="Group_5" data-name="Group 5">
        <g class="cls-6">
          <g id="Group_4" data-name="Group 4">
            <path id="Path_185" data-name="Path 185" class="cls-4" d="M32.03,76.61c-.29-1.19-.65-2.54-1.02-3.68-.13-.4-.66-1.59-.52-1.79.45-.48,1.39-.1,1.97,1.41.47,1.19.93,2.76,1.37,4.08-.58-.24-1.23-.25-1.81-.01"/>
            <path id="Path_186" data-name="Path 186" class="cls-4" d="M34.43,76.85c-.36-.17-.17-.08-.26-.11-.34-1.2-.63-2.43-1.04-3.58-.13-.37-.65-1.45-.53-1.65.27-.42,1.28-.14,1.87,1.24.66,1.56,1.17,3.4,1.78,5.08-.65-.38-1.45-.82-1.82-.99"/>
            <path id="Path_187" data-name="Path 187" class="cls-4" d="M35.6,74.71c-.14-.36-.53-1.18-.43-1.34.19-.29.79-.19,1.28.49.06.08.12.17.18.26.39.6.68,1.26.85,1.96.21,1.09.6,2.14,1.14,3.11-.69-.34-1.37-.72-2.02-1.13-.45-1.3-.56-2.06-1.01-3.34"/>
            <path id="Path_188" data-name="Path 188" class="cls-4" d="M28.56,71.12c.38-.47,1.56.01,2.12,1.76.88,2.77,1.21,3.81,1.21,3.81-.41.27-.55.8-.34,1.24.33.86,1.32,1.43,2.77,2.77.28.31.6.58.95.81.76.49,1.63.75,2.53.76-.82-.21-1.6-.55-2.32-1.01-.36-.26-3.33-3.06-3.33-3.06,0,0-.98-1.38.78-1.39,1.22-.01,3.9,2.06,5.65,2.74,1.12.43,2.3.48,3.88.95,5.18,1.52,4.32,5.69,4.54,13.43-5.4-6.11-4.03-5.16-10.72-8.18-2.41-1.09-4.77-4.77-5.83-6.28-.83-1.19-.92-4.3-1.43-6.32-.12-.47-.63-1.84-.46-2.06"/>
          </g>
        </g>
      </g>
    </g>
    <path id="Path_189" data-name="Path 189" class="cls-5" d="M47.11,16.18c.16,0,.29.14.29.3l-.02,1.04c0,.16-.14.29-.3.29h-.09c-.16,0-.29-.14-.29-.3l.03-1.04c0-.16.14-.29.3-.29h.09Z"/>
    <path id="Path_190" data-name="Path 190" class="cls-5" d="M71.49,40.22c0,.17-.14.3-.3.3h-1.04c-.17,0-.3-.14-.3-.3v-.09c0-.17.14-.3.3-.3h1.04c.17,0,.3.14.3.3v.09Z"/>
    <path id="Path_191" data-name="Path 191" class="cls-5" d="M23.47,40.22c0,.17-.14.3-.3.3h-1.04c-.17,0-.3-.14-.3-.3v-.09c0-.17.14-.3.3-.3h1.04c.17,0,.3.14.3.3v.09Z"/>
    <path id="Path_192" data-name="Path 192" class="cls-5" d="M33.66,64.84c0,.17-.14.3-.3.3h-1.04c-.17,0-.3-.14-.3-.3v-.09c0-.17.14-.3.3-.3h1.04c.17,0,.3.14.3.3v.09Z"/>
    <g id="_7" data-name=" 7" class="cls-3">
      <text class="cls-2" transform="translate(34.65 63.54)"><tspan x="0" y="0">7</tspan></text>
    </g>
    <g id="_24" data-name=" 24" class="cls-3">
      <text class="cls-2" transform="translate(44.53 19.22)"><tspan class="cls-8" x="0" y="0">2</tspan><tspan x=".7" y="0">4</tspan></text>
    </g>
    <path id="Path_193" data-name="Path 193" class="cls-5" d="M77.33,41.22c0,.28-.02.58-.03.91-.02.39-.06.78-.12,1.17-.39,2.75-1.13,5.44-2.21,8.01-.17.42-.34.84-.5,1.27-.14.32-.27.62-.39.94-.23.57-.48,1.16-.77,1.72-2.04,4.28-4.34,8.44-6.87,12.46l-2.99.08c.74-1.14,1.12-2.39,1.82-3.54.35-.57.71-1.15,1.04-1.74.42-.71.82-1.42,1.22-2.13.25-.45.5-.89.73-1.34.37-.67.72-1.32,1.05-1.97.53-1.05,1.05-2.09,1.52-3.11.17-.35.32-.68.47-1.02s.3-.67.44-1.01c.18-.43.35-.87.53-1.3.88-2.09,1.53-4.26,1.96-6.49.05-.28.1-.57.13-.84s.07-.52.1-.79c.05-.43.07-.86.07-1.29,0-15.38-12.47-27.85-27.85-27.85s-27.85,12.47-27.85,27.85c0,.43.02.86.07,1.29.01.04.02.08.02.12.03.32.08.67.14,1.01.77,5.15,3.88,11.79,7.78,18.46.12.2.23.38.34.58.99,1.67,2.02,3.36,3.08,5.02h-3.29c-.36-.61-.74-1.19-1.11-1.79s-.72-1.22-1.07-1.84c-4.67-7.94-8.35-15.99-8.68-21.94-.02-.32-.03-.62-.03-.91,0-16.92,13.71-30.64,30.63-30.65,16.92,0,30.64,13.71,30.65,30.63v.02"/>
    <path id="Path_194" data-name="Path 194" class="cls-5" d="M72.28,50.62c.88-2.09,1.53-4.26,1.96-6.49-.47,2.21-1.12,4.38-1.96,6.49M63.5,67.69c-.35.57-.71,1.12-1.05,1.67h3.31c2.83-4.54,5.35-9.26,7.56-14.14-2.04,4.29-4.34,8.45-6.87,12.46h-2.95ZM26.94,67.69c-.36-.61-.74-1.19-1.1-1.79.68,1.19,1.37,2.34,2.07,3.46h3.3c-.35-.55-.71-1.11-1.05-1.67h-3.21ZM19.05,43.63c.77,5.15,3.88,11.8,7.78,18.46-3.73-6.62-6.9-13.46-7.78-18.46"/>
    <path id="Path_195" data-name="Path 195" class="cls-7" d="M74.54,41.22c0,.43-.02.86-.07,1.29-.03.27-.07.52-.1.79s-.08.55-.13.84c-.47,2.21-1.12,4.38-1.96,6.49-.18.43-.35.87-.53,1.3-.13.34-.28.67-.44,1.01s-.3.67-.47,1.02c-.47,1.02-.99,2.06-1.52,3.11-.34.65-.68,1.3-1.05,1.97-.23.45-.48.89-.73,1.34-.4.71-.81,1.42-1.22,2.13-.34.58-.68,1.17-1.04,1.74-.71,1.16-1.04,2.32-1.77,3.46-.35.57-.71,1.12-1.05,1.67h-2.36l1.64-2.56c7.29-11.46,11.13-20.3,11.13-25.59,0-14.46-11.72-26.18-26.18-26.18s-26.18,11.72-26.18,26.18c0,5.28,3.85,14.13,11.13,25.59l1.64,2.56h-2.07c-.35-.55-.71-1.1-1.05-1.67-1.05-1.66-2.01-3.34-2.99-5.02-.1-.2-.22-.38-.34-.58-3.73-6.62-6.91-13.46-7.78-18.46-.05-.34-.1-.69-.14-1.01,0-.04,0-.08-.02-.12-.05-.43-.07-.86-.07-1.29,0-15.38,12.47-27.85,27.85-27.85s27.85,12.47,27.85,27.85"/>
    <path id="Path_196" data-name="Path 196" class="cls-5" d="M79,41.22c0,6.24-3.75,15.45-11.13,27.36l-.48.79h-1.62c3.17-5.07,5.95-10.37,8.33-15.85.12-.32.25-.62.38-.94,1.32-2.96,2.23-6.08,2.71-9.28.06-.39.1-.78.12-1.17.02-.32.03-.62.03-.91,0-16.92-13.72-30.64-30.64-30.64s-30.64,13.72-30.64,30.64c0,.28.02.58.04.91.34,5.95,4.01,14,8.68,21.94.35.62.71,1.24,1.07,1.84.68,1.19,1.37,2.34,2.07,3.46h-1.92l-.48-.79c-7.39-11.9-11.13-21.12-11.13-27.36,0-17.84,14.47-32.31,32.31-32.31s32.31,14.47,32.31,32.31"/>
    <path id="Path_197" data-name="Path 197" class="cls-5" d="M77.33,41.22c0,.28-.02.58-.03.91-.02.36-.07.77-.12,1.17-.43,2.74-1.17,5.43-2.21,8.01-.17.42-.34.84-.5,1.27-.14.32-.27.62-.39.94-.23.57-.48,1.16-.77,1.72-2.21,4.87-4.73,9.59-7.56,14.13-.05.08.05-.08,0,0h-3.31c.35-.55.71-1.1,1.05-1.67,2.95-4.73,5.56-9.66,7.81-14.76.15-.34.3-.67.44-1.01.18-.43.35-.87.53-1.3.83-2.1,1.49-4.27,1.96-6.49.05-.28.1-.57.13-.84s.07-.52.1-.79c.05-.43.07-.86.07-1.29,0-15.38-12.47-27.85-27.85-27.85s-27.85,12.47-27.85,27.85h0c0,.43.02.86.07,1.29.01.04.02.08.02.12.03.32.08.67.14,1.01.87,5,4.05,11.84,7.78,18.46.12.2.23.38.34.58.97,1.71,1.99,3.4,2.99,5.02.35.57.71,1.12,1.05,1.67.05.08,0-.08.04,0h-3.29c-.05-.08,0,.08-.04,0-.71-1.12-1.39-2.28-2.07-3.46-.36-.61-.72-1.22-1.07-1.84-4.45-7.83-8.29-16.31-8.68-21.95-.02-.32-.03-.62-.03-.91,0-16.92,13.72-30.64,30.64-30.64s30.64,13.72,30.64,30.64"/>
    <path id="Path_198" data-name="Path 198" class="cls-5" d="M68.73,63.48l-15.89-16.64c2.41-.38,4.61-1.57,6.25-3.38,1.76-2.06,2.69-4.7,2.61-7.4,0-2.84-1.07-5.58-3-7.67-2.28-2.35-5.45-3.62-8.72-3.5l-26.85.54c-.89.01-1.63.7-1.69,1.59l-.44.96c0,.06.04.13.07.18l-.09.27c0,.94-.48,1.25.46,1.25h28.54c1.77-.07,3.49.57,4.77,1.8,1.16,1.22,1.79,2.85,1.75,4.54-.04,4.22-2.33,6.35-6.8,6.35h-15.01v16.9h4.97v-12.06h6.9l18.12,19.05.85.9c.32.34.77.53,1.24.53.19,0,.37-.03.55-.09.63-.22,1.08-.79,1.14-1.45l.25-2.67Z"/>
  </g>
</svg>