<?xml version="1.0" encoding="UTF-8"?>
<svg id="Layer_1" data-name="Layer 1" xmlns="http://www.w3.org/2000/svg" viewBox="0 0 280.78 100">
  <defs>
    <style>
      .cls-1 {
        fill: #3b82b3;
      }

      .cls-2 {
        fill: #254d97;
      }
    </style>
  </defs>
  <g id="bJg6ez">
    <g>
      <path class="cls-1" d="M142.16,33.64c.74-5.5,5.74-9.27,11.12-9.37,1.28-.02,5.85.74,6.74,1.54,1.03.92-1.83,5.23-1.77,6.75-4.1-2.37-8.32-.96-7.39,4.35h7.4v6.53h-7.4v22.64h-8.71v-32.43Z"/>
      <rect class="cls-1" x="196.14" y="24.71" width="5.66" height="41.35"/>
      <rect class="cls-1" x="209.63" y="36.44" width="5.66" height="29.62"/>
      <path class="cls-1" d="M210.81,24.37c5.56-1.65,7.2,5.28,2.76,6.69-4.84,1.53-6.62-5.54-2.76-6.69Z"/>
      <path class="cls-2" d="M134.98,36.03h-7.84c-.77,0-.73,2.44-.66,3.05-13.1-9.57-28.2,3.3-22.53,18.4,3.36,8.93,15.92,12.35,22.96,5.55.11.58-.14,2.9,0,3.05.31.31,7.49-.23,8.71,0v-29.38s-.61-.65-.65-.65ZM120.13,59.51c-10.09,1.08-11.38-14.66-2.9-16.41,11.58-2.4,13.11,15.32,2.9,16.41Z"/>
      <path class="cls-1" d="M191.24,48.55c-2.09-16.39-27.35-17.12-31.03-1.22-3.95,17.03,17.63,25.22,28.95,14.56-.59-.65-3.84-4.95-4.16-5-.67-.1-3.97,2.26-5.72,2.54-4.3.69-9.75-.67-10.56-5.55h21.98c1.02,0,.66-4.43.54-5.33ZM168.71,48.65c.55-8.51,13.29-8.26,14.36,0h-14.36Z"/>
      <g>
        <path class="cls-2" d="M99.5,38.21l-3.26,6.51c-2.24-2.31-12.97-3.62-13.72-.2-.49,2.24,1.15,2.54,3.04,3.05,5.02,1.35,13.84.83,14.77,7.86,1.71,12.97-19.16,13.08-26.76,8.02-.3-.48,2.18-5.91,2.71-6.06,3.3,1.38,12.54,4.38,15.21,1.31,3.46-3.99-8.36-4.49-10.61-5.14-4.15-1.2-6.97-3.44-6.89-8.1.19-11.31,18.26-11.02,25.51-7.25Z"/>
        <path class="cls-2" d="M78.16,21.21c-1.8-.45-6.52,3.27-7.51,3.02-1.19-.3-8.79-10.26-10.29-11.86.27-1.62,13.05-7.65,14.5-7.22.56.17.57.62.68,1.08,1.15,4.89,1.66,10.05,2.62,14.98Z"/>
        <path class="cls-2" d="M57.26,43.88c-.7,1.65.03,7.82-.85,8.48-1.93,1.46-12.8,1.7-15.68,3.25-.75-2.29-.04-15.38,1.28-16.36,1.09-.81,12.97,4.7,15.25,4.62Z"/>
        <path class="cls-2" d="M99.48,4.71l-4.81,15.17-8.62-.43-2.9-15.64c.99-1.4,13.97.24,16.33.9Z"/>
        <path class="cls-2" d="M61.57,68.19l-11.91,10.06c-2.04-1.31-8.14-14.25-7.18-15.23l15.38-2.56c.44.14,3.94,7.34,3.72,7.73Z"/>
        <path class="cls-1" d="M100.38,96.1l-2.91-15.48,7.49-4.09,10.21,12.34c-4.12,3.72-9.53,5.69-14.78,7.23Z"/>
        <path class="cls-2" d="M92.54,97.84c-5.58.28-11.08-.27-16.54-1.31.82-1.84,4.61-14.74,5.28-15.17.49-.32,7.39.5,8.45.79l2.81,15.69Z"/>
        <path class="cls-1" d="M106.9,7.73c2.24-.37,13.7,8.01,13.91,8.97.18.87-10.52,9.3-12.03,10.56l-6.62-4.58,4.75-14.95Z"/>
        <path class="cls-2" d="M54.66,17.75l9.94,11.96-4.54,6.79-15.4-5.47c1.95-3.57,3.85-7.34,6.53-10.44.48-.56,2.87-3.24,3.46-2.84Z"/>
        <path class="cls-2" d="M68.59,93.49c-.93.68-13.17-7.35-13.46-8.98-.19-1.11,10.27-8.94,11.57-10.54l7.06,4.55-5.17,14.97Z"/>
      </g>
    </g>
  </g>
</svg>