<?xml version="1.0" encoding="UTF-8"?>
<svg id="Layer_1" data-name="Layer 1" xmlns="http://www.w3.org/2000/svg" xmlns:xlink="http://www.w3.org/1999/xlink" viewBox="0 0 280.78 100">
  <defs>
    <style>
      .cls-1 {
        fill: #a64894;
      }

      .cls-2 {
        fill: #435ea6;
      }

      .cls-3 {
        fill: #478f4e;
      }

      .cls-4 {
        fill: #93c356;
      }

      .cls-5 {
        fill: #5daa55;
      }

      .cls-6 {
        fill: #9ec759;
      }

      .cls-7 {
        fill: #40864a;
      }

      .cls-8 {
        fill: url(#linear-gradient-2);
      }

      .cls-9 {
        fill: #88bf57;
      }

      .cls-10 {
        fill: #4475b6;
      }

      .cls-11 {
        fill: #377d46;
      }

      .cls-12 {
        fill: #895fa2;
      }

      .cls-13 {
        fill: url(#linear-gradient);
      }

      .cls-14 {
        fill: #435aa3;
      }

      .cls-15 {
        fill: #5d82bf;
      }

      .cls-16 {
        fill: #65b156;
      }

      .cls-17 {
        fill: #98c558;
      }

      .cls-18 {
        fill: #85bd56;
      }

      .cls-19 {
        fill: #c72f7b;
      }

      .cls-20 {
        fill: #58a454;
      }

      .cls-21 {
        fill: #4361a9;
      }

      .cls-22 {
        fill: #4c9650;
      }

      .cls-23 {
        fill: #4377b8;
      }

      .cls-24 {
        fill: #327744;
      }

      .cls-25 {
        fill: #744997;
      }

      .cls-26 {
        fill: #266a3d;
      }

      .cls-27 {
        fill: #b52e7f;
      }

      .cls-28 {
        fill: #296f40;
      }

      .cls-29 {
        fill: #425ba5;
      }

      .cls-30 {
        fill: #cb6f62;
      }

      .cls-31 {
        fill: #4464aa;
      }

      .cls-32 {
        fill: #4266ac;
      }

      .cls-33 {
        fill: #c62d84;
      }

      .cls-34 {
        fill: #529c52;
      }

      .cls-35 {
        fill: #456cb0;
      }

      .cls-36 {
        fill: #4585c3;
      }

      .cls-37 {
        fill: #75b857;
      }

      .cls-38 {
        fill: #4474b6;
      }

      .cls-39 {
        fill: #4891cc;
      }

      .cls-40 {
        fill: #6cb557;
      }

      .cls-41 {
        fill: #4683c1;
      }

      .cls-42 {
        fill: #529d52;
      }

      .cls-43 {
        fill: #4894ce;
      }

      .cls-44 {
        fill: #8ec156;
      }

      .cls-45 {
        fill: #60ac56;
      }

      .cls-46 {
        fill: #b4615d;
      }

      .cls-47 {
        fill: #da3462;
      }

      .cls-48 {
        fill: #4158a2;
      }

      .cls-49 {
        fill: #3a7f47;
      }

      .cls-50 {
        fill: #714b98;
      }

      .cls-51 {
        fill: #468ac7;
      }

      .cls-52 {
        fill: #cc6f64;
      }

      .cls-53 {
        fill: #6bb557;
      }

      .cls-54 {
        fill: #da3762;
      }
    </style>
    <linearGradient id="linear-gradient" x1="6636.25" y1="165.1" x2="5552.92" y2="1214.13" gradientTransform="translate(-38.35 9.82) scale(.02)" gradientUnits="userSpaceOnUse">
      <stop offset="0" stop-color="#85bd56"/>
      <stop offset=".59" stop-color="#84bd56"/>
      <stop offset=".91" stop-color="#24673c"/>
      <stop offset="1" stop-color="#21653b"/>
    </linearGradient>
    <linearGradient id="linear-gradient-2" x1="7347.51" y1="217.31" x2="6889.59" y2="652.89" gradientTransform="translate(-38.35 9.82) scale(.02)" gradientUnits="userSpaceOnUse">
      <stop offset="0" stop-color="#21653b"/>
      <stop offset=".58" stop-color="#80bc56"/>
      <stop offset="1" stop-color="#85be56"/>
    </linearGradient>
  </defs>
  <path class="cls-39" d="M249.87,83.13c.1.07.06.18-.11.3.04.72.02,1.42-.06,2.09-.69.61-1.27,1.31-1.54,2.23,0,.03,0,.06,0,.09l-.09.26s0,.06,0,.09l-.09.34s0,.06,0,.09l-.09.94c0,.11,0,.23,0,.34l.09.94c0,.06,0,.11,0,.17l.09.34s0,.06,0,.09c.22,1.11.81,2,1.71,2.65-.04.72-.03,1.45.05,2.18l-.14.21c-2.01-.29-3.41-1.95-3.94-3.85,0-.03,0-.06,0-.09l-.09-.26s0-.06,0-.09l-.09-.34s0-.06,0-.09l-.09-.51c0-.06,0-.11,0-.17-.08-.83-.08-1.66,0-2.48,0-.06,0-.11,0-.17l.09-.51s0-.06,0-.09l.26-.94s0-.06,0-.09l.09-.17s0-.06,0-.09l.17-.34s-.01-.06,0-.09c.67-1.42,1.89-2.59,3.43-3,.02,0,.06,0,.09,0,.07-.06.19-.06.26,0Z"/>
  <path class="cls-43" d="M252.09,82.88l.69.09s.06,0,.09,0c.39.07.76.19,1.11.34.03,0,.06,0,.09,0,.41.2,1.39.8,1.48,1.25.03.17-1.14,1.51-1.36,1.69-.42-.4-.89-.73-1.4-.98-.03,0-.06,0-.09,0l-.69-.17c-.08,0-.17,0-.26,0-.09-.06-.17-.06-.26,0-.09,0-.17,0-.26,0-.27.03-.52.09-.77.17-.03,0-.06,0-.09,0-.23.12-.46.2-.69.26-.14-.09-.09-.32-.09-.47,0-.36-.07-1.56,0-1.79.03-.09.22-.04.26-.14-.07-.02-.07-.05,0-.09.03,0,.06,0,.09,0l.34-.09s.06,0,.09,0c.22-.07.45-.1.69-.09.34-.02.69,0,1.03,0Z"/>
  <path class="cls-43" d="M250.81,94.43s.06,0,.09,0c.13.06.28.09.43.09.03,0,.06,0,.09,0,.48.09.98.09,1.46,0,.06,0,.11,0,.17,0,.15,0,.29-.02.43-.09.03,0,.06,0,.09,0l.26-.09s.06,0,.09,0c.34-.16.68-.25,1.03-.26l.17.69s0,.06,0,.09l.09.34s0,.06,0,.09l.09.34s0,.06,0,.09c.06.14.07.3.04.45l-.98.32s-.06,0-.09,0l-.77.17s-.06,0-.09,0c-.06,0-.11,0-.17,0-.11,0-.23,0-.34,0-.09,0-.17,0-.26,0-.54,0-1.09.02-1.63,0-.14,0-.29,0-.43,0-.08,0-.17,0-.26,0-.03,0-.06,0-.09,0-.2-.02-.37-.08-.51-.17-.12-.61-.13-1.39-.09-2.02,0-.16-.02-.32.18-.38.33.11.67.23,1.03.34Z"/>
  <path class="cls-31" d="M129.05,82.88l.6.09s.06,0,.09,0l.34.09s.06,0,.09,0c.87.27,1.79.67,2.31,1.46,0,.02,0,.06,0,.09-.44.59-.91,1.15-1.42,1.67-.45-.52-1.02-.85-1.66-1.07-.03,0-.06,0-.09,0l-.34-.09c-.08,0-.17,0-.26,0-.11-.07-.24-.07-.34,0-.09,0-.17,0-.26,0-.15,0-.29.02-.43.09-.03,0-.06,0-.09,0-1.3.33-2.21,1.39-2.57,2.65,0,.03,0,.06,0,.09l-.17.86c0,.06,0,.11,0,.17-.08.54-.09,1.09,0,1.63,0,.06,0,.11,0,.17,0,.15.03.29.09.43,0,.03,0,.06,0,.09l.09.34s0,.06,0,.09c.38,1.53,1.58,2.66,3.17,2.83.03,0,.06,0,.09,0,.51.09,1.03.09,1.54,0,.03,0,.06,0,.09,0,.15,0,.29-.03.43-.09.03,0,.06,0,.09,0l.6-.17s.06,0,.09,0l.17-.09s.06,0,.09,0c.3-.21.47-.18.51.09,0,.03,0,.06,0,.09l.17.68s0,.06,0,.09l.09.34s0,.06,0,.09c.18.34.15.57-.09.68-.02.01-.06,0-.09,0l-.17.09s-.06,0-.09,0l-.51.17s-.06,0-.09,0l-.26.09s-.06,0-.09,0l-.34.09s-.06,0-.09,0c-.09.07-.26.07-.34,0-.08.06-.17.06-.26,0-.16.02-.34.05-.51.09h-.94c-.21-.03-.41-.06-.6-.09-.1.07-.25.07-.34,0-.04.08-.11.06-.17,0-.03,0-.06,0-.09,0l-.34-.09s-.06,0-.09,0l-.26-.09s-.06,0-.09,0l-.43-.17s-.06,0-.09,0c-1.81-.67-2.89-2.36-3.25-4.2,0-.03,0-.06,0-.09l-.09-.43s0-.06,0-.09l-.09-.6c0-.09,0-.17,0-.26-.07-.57-.07-1.14,0-1.71,0-.06,0-.11,0-.17l.09-.6s0-.06,0-.09l.09-.43s0-.06,0-.09l.26-.86s0-.06,0-.09c.56-1.57,1.75-2.87,3.34-3.42.03,0,.06,0,.09,0l.51-.17s.06,0,.09,0c.15,0,.29-.03.43-.09.03,0,.06,0,.09,0,.22-.07.45-.09.69-.09.34-.02.69,0,1.03,0Z"/>
  <path class="cls-15" d="M252.61,96.66c.07.02.07.05,0,.09h-1.63c-.07-.02-.07-.05,0-.09.48-.24,1.15-.25,1.63,0Z"/>
  <path class="cls-25" d="M128.28,96.75h-.6c-.07-.02-.07-.05,0-.09.19,0,.48-.06.6.09Z"/>
  <path class="cls-50" d="M129.73,96.66c.07.02.07.05,0,.09h-.51c.09-.14.35-.08.51-.09Z"/>
  <path class="cls-1" d="M250.98,96.66v.09h-.43c-.07-.02-.07-.05,0-.09.09-.24.34-.24.43,0Z"/>
  <path class="cls-19" d="M127.68,96.66v.09h-.34c-.07-.02-.07-.05,0-.09.11,0,.23,0,.34,0Z"/>
  <path class="cls-33" d="M253.21,96.66c.07.02.07.05,0,.09h-.34c-.07-.02-.07-.05,0-.09.11-.23.24-.23.34,0Z"/>
  <path class="cls-12" d="M252.86,96.66v.09h-.26v-.09c.08-.17.18-.17.26,0Z"/>
  <path class="cls-27" d="M129.99,96.66v.09h-.26v-.09c.09,0,.17,0,.26,0Z"/>
  <path class="cls-21" d="M81.87,65.58c.02-.1.02-.1.09-.17l-.09.17Z"/>
  <path class="cls-48" d="M33.14,90.92l-.04,3.41c.11.04.09.07-.04.1.01-.19.07-.23.1-.04,2.23-.02,4.45,0,6.66.04.07.67.07,1.46,0,2.14-2.93.07-6.12.07-9.08,0-.08-4.39-.08-9.04,0-13.44,2.93-.07,6.12-.07,9.08,0,.07.65.07,1.4,0,2.05-2.19.05-4.41.07-6.66.04-.04.11-.07.09-.1-.04.19.01.23.07.04.1v3.39c.11.04.09.07-.04.1.03-.19.09-.23.13-.04l5.01.04c-.05.33.11,1.97-.08,2.1-.31.21-4.28-.08-4.97.04Z"/>
  <path class="cls-2" d="M94.62,94.35c2.26-.01,4.51.02,6.76.09.07.68.07,1.46,0,2.14-2.96.07-6.11.07-9.08,0-.08-4.4-.08-9.04,0-13.44,2.93-.07,6.12-.07,9.08,0,.07.65.07,1.4,0,2.05-2.23.07-4.48.09-6.76.09v3.42l5.09.04c.03.74.02,1.47-.04,2.18h-5.05s0,3.42,0,3.42Z"/>
  <path class="cls-41" d="M215.44,83.13c2.81-.04,5.61-.04,8.39,0,.07.65.07,1.4,0,2.05-1,.02-2,.05-3,.09v9.16s3,0,3,0c.06.26.09,2.11,0,2.18l-8.4-.04c.05-.34-.11-1.97.08-2.1.24-.17,2.45.05,2.92-.04l.04-9.21c-1,.01-2.01,0-3.03-.04-.13-.41.1-1.55,0-2.05Z"/>
  <path class="cls-14" d="M61.49,83.13c.76-.07,1.56-.07,2.31,0,.05,3.7.07,7.44.04,11.2.11.04.09.07-.04.11.03-.19.09-.24.13-.04,2.25-.02,4.49,0,6.72.04.07.68.07,1.46,0,2.14h-9.16v-13.44Z"/>
  <polygon class="cls-35" points="159.27 96.57 156.96 96.57 156.96 85.19 153.11 85.19 153.11 83.13 163.13 83.13 163.13 85.19 159.27 85.19 159.27 96.57"/>
  <g>
    <path class="cls-29" d="M36.31,30.14c0,.09,0,.17,0,.26-.13-.06-.08-.23-.09-.34h.09s0,.06,0,.09Z"/>
    <path class="cls-21" d="M81.87,65.84s0,.06,0,.09l-.17.26c.03-.18.02-.38.17-.51.07,0,.07.06,0,.17Z"/>
    <path class="cls-36" d="M236,58.3c.06-.09.12-.18.17-.26,0,.12-.05.22-.17.26Z"/>
    <path class="cls-51" d="M247.55,39.98s.04-.1.09-.17l-.09.17Z"/>
    <path class="cls-36" d="M237.45,55.99c.11-.18.18-.38.34-.51-.09.18-.12.41-.34.51Z"/>
    <path class="cls-36" d="M237.88,55.31c.07-.13.1-.28.26-.34-.08.12-.09.28-.26.34Z"/>
    <path class="cls-10" d="M182.56,57.36s.07-.07.09-.09l-.09.09Z"/>
    <path class="cls-29" d="M36.4,30.91c-.11-.17-.07-.17-.09-.34l.09.34Z"/>
    <path class="cls-16" d="M121.94,25.34v-.09s0,.06,0,.09Z"/>
    <path class="cls-21" d="M81.61,66.44c0-.07,0-.14.09-.17,0,.07,0,.14-.09.17Z"/>
    <g>
      <path class="cls-32" d="M193.18,23.03h-6.94c-10.88-.08-22.28-.08-33.14,0-.08,5.41-.08,11.14,0,16.52,6.31.08,13,.08,19.27,0-.18.03-.21.07-.08.13-3.65,5.88-7.4,11.8-11.25,17.76-4.6,6.96-9.02,13.92-13.24,20.89,0,.02-.13.01-.09.17h53.77v-17.11s-.09-.01-.09-.01c-1.74-.07-3.48-.07-5.22,0h-9.93c-2.01-.03-4.02-.06-6.02-.09.41-.61.76-1.23,1.06-1.88.16-.03.13-.17.17-.26.12-.03.17-.09.09-.17.02-.04.07-.06.09-.09.11,0,.16-.1.09-.17.12-.04.17-.13.17-.26.15-.05.29-.27.26-.43.12-.04.17-.13.17-.26.14-.04.3-.28.26-.43l.09-.09c.1-.01.16-.1.09-.17.06-.1.12-.18.17-.26.11-.01.18-.11.09-.17.02-.04.07-.06.09-.09.11,0,.16-.1.09-.17.06-.09.12-.17.17-.26.11,0,.18-.11.09-.17.02-.03.06-.06.09-.09.11,0,.17-.1.09-.17.12-.04.17-.13.17-.26.03.02.06.03.07.02.04-.02.08-.09.11-.13,6.55-10.34,13.08-20.79,19.51-31.23.06-.09.23-.27.33-.4.06-.09.09-.27.1-.28l.13.19c-.02,5.3,0,10.58.04,15.82l.21.09c5.5,0,10.99-.01,16.49,0,1.9-.04,3.77,0,5.6.11l-16.38,25.82c-.12.01-.23.04-.27.1-2.72,4.21-5.48,8.5-8.06,12.67-.03.04.05.12.1.16-.07.03-.07.06,0,.09h53.77v-17.11s-.09-.01-.09-.01c-7.01-.05-14.02-.07-21.06-.04l-.08-.12,1.03-1.69c.08-.1.11-.19.07-.28.01-.03.05-.06.09-.09.11,0,.17-.1.09-.17.12-.04.17-.13.17-.26.15-.04.29-.28.26-.43.09-.06.14-.15.17-.26.17-.07.27-.24.26-.43.23-.1.25-.35.34-.51.12-.02.16-.08.09-.17.02-.04.07-.06.09-.09.11-.02.18-.12.09-.17.06-.1.13-.18.17-.26.11,0,.18-.11.09-.17.02-.04.07-.06.09-.09.11,0,.16-.1.09-.17l.34-.51c.11,0,.16-.09.09-.17l.26-.34c3.23-4.93,6.34-9.95,9.42-14.98l.09-.17c3.55-5.56,7.03-11.04,10.45-16.44,0-.02,0-.06,0-.09l.09-.09v-.17c-21.35-.08-43.67-.08-64.99,0Z"/>
      <path class="cls-32" d="M126.48,56.68c.05,2.25.05,4.5.04,6.76,0-2.25-.01-4.51-.04-6.76.08-.24.07-.52,0-.77,0-.06,0-.11,0-.17l-.09-.43s0-.06,0-.09c-.06-.13-.09-.28-.09-.43,0-.03,0-.06,0-.09l-.26-.94s0-.06,0-.09l-.26-.68s0-.06,0-.09c-1.17-3.23-4.09-5.51-7.45-6.08-.03,0-.06,0-.09,0l-.43-.09s-.06,0-.09,0c-.22-.07-.47-.08-.69,0,.07-.03.07-.06,0-.09-.09,0-.17,0-.26,0-.6-.07-1.2-.09-1.8,0-.06,0-.11,0-.17,0-.24,0-.47.02-.69.09-.03,0-.06,0-.09,0-.13.06-.28.09-.43.09-.03,0-.06,0-.09,0-.59.12-1.16.29-1.71.51-.03,0-.06,0-.09,0-1.22.56-2.68,1.26-3.43,2.31-.71.61-1.37,1.27-1.97,1.97-.01-.04,0-.12,0-.17l.09-.94c0-.11,0-.23,0-.34l.09-1.37c0-.26,0-.51,0-.77l.04-3.88-1.07.03c-.17,0-.34,0-.51,0l-1.2-.09c-.06,0-.11,0-.17,0l-.6-.09s-.06,0-.09,0c-.15,0-.29-.03-.43-.09-.03,0-.06,0-.09,0l-.34-.09s-.06,0-.09,0c-.25-.1-.48-.13-.68-.09-.26-.14-.54-.26-.86-.34-.03,0-.06,0-.09,0l-1.28-.51s-.06,0-.09,0c-2.66-1.13-4.95-2.88-7.19-4.66l-.04.08.04,40.2h14.98c.06-5.53.06-11.03,0-16.52.05-.03.08-.08.09-.17,0-.03,0-.06,0-.09,0-.15.02-.3.09-.43,0-.03,0-.06,0-.09l.09-.26s0-.06,0-.09c.25-.85.77-1.49,1.54-1.88.45-.06.9-.06,1.37,0,.03,0,.06,0,.09,0,.63.16,1.02.68,1.2,1.28,0,.03,0,.06,0,.09l.17.86c0,.06,0,.11,0,.17.04,5.69.06,11.38.08,17.06l.09.06h14.98v-21.49c0-.11,0-.23,0-.34-.03-.07-.06-.07-.09,0Z"/>
      <path class="cls-32" d="M82.04,29.37c-2.36-2.15-5.03-4.15-7.78-5.57-.11.1-.17.27-.18.51,0,.03,0,.06,0,.09l-.09.34s0,.06,0,.09c0,.16-.02.3-.09.43,0,.03,0,.06,0,.09,0,.15-.02.3-.09.43,0,.03,0,.06,0,.09l-.09.34s0,.06,0,.09c0,.15-.03.29-.09.43,0,.03,0,.06,0,.09l-.17.86s0,.06,0,.09c0,.15-.02.3-.09.43,0,.03,0,.06,0,.09l-.09.34s0,.06,0,.09c0,.15-.03.29-.09.43,0,.03,0,.06,0,.09l-.17.86s0,.06,0,.09c0,.15-.02.3-.09.43,0,.03,0,.06,0,.09l-.09.34s0,.06,0,.09c0,.15-.03.29-.09.43,0,.03,0,.06,0,.09l-.17.86s0,.06,0,.09c0,.15-.02.3-.09.43,0,.03,0,.06,0,.09l-.09.34s0,.06,0,.09c0,.15-.02.3-.09.43,0,.03,0,.06,0,.09,0,.15-.02.3-.09.43,0,.03,0,.06,0,.09l-.09.34s0,.06,0,.09c0,.15-.02.3-.09.43,0,.03,0,.06,0,.09l-.09.34s0,.06,0,.09c0,.15-.02.3-.09.43,0,.03,0,.06,0,.09,0,.15-.02.3-.09.43,0,.03,0,.06,0,.09l-.09.34s0,.06,0,.09c0,.15-.02.3-.09.43,0,.03,0,.06,0,.09l-.09.34s0,.06,0,.09c0,.15-.02.3-.09.43,0,.03,0,.06,0,.09,0,.15-.02.3-.09.43,0,.03,0,.06,0,.09l-.09.34s0,.06,0,.09c0,.15-.02.3-.09.43,0,.03,0,.06,0,.09l-.09.34s0,.06,0,.09c0,.15-.02.3-.09.43,0,.03,0,.06,0,.09,0,.15-.02.3-.09.43,0,.03,0,.06,0,.09l-.09.34s0,.06,0,.09c0,.15-.02.3-.09.43,0,.03,0,.06,0,.09l-.09.34s0,.06,0,.09c0,.15-.02.3-.09.43,0,.03,0,.06,0,.09,0,.15-.02.3-.09.43,0,.03,0,.06,0,.09l-.09.34s0,.06,0,.09c0,.15-.03.29-.09.43,0,.03,0,.06,0,.09l-.17.86s0,.06,0,.09c0,.15-.02.3-.09.43,0,.03,0,.06,0,.09l-.09.34s0,.06,0,.09c0,.15-.02.3-.09.43,0,.03,0,.06,0,.09,0,.15-.02.3-.09.43,0,.03,0,.06,0,.09l-.09.34s0,.06,0,.09c0,.15-.02.29-.09.43,0,.05,0,.12,0,.17,0,.15-.03.29-.09.43,0,.03,0,.06,0,.09l-.09.43s0,.06,0,.09l-.09.51s0,.06,0,.09l-.09.51s0,.06,0,.09l-.09.51s0,.06,0,.09l-.09.51c0,.06,0,.11,0,.17l-.09.6s0,.06,0,.09l-.09.6c0,.06,0,.11,0,.17l-.09.68c0,.09,0,.17,0,.26l-.09.77c0,.06,0,.11,0,.17l-.09,1.03c0,.11,0,.23,0,.34l-.07,1.05c-.07.1-.19.15-.36.15v-.26h-.09c.06-.14.08-.39,0-.51,0-.23,0-.46,0-.68,0-.09,0-.17,0-.26-.03-.07-.06-.07-.09,0,.06-.06.06-.12,0-.17.08-.17.06-.34,0-.51,0-.06,0-.11,0-.17l-.09-.6c0-.06,0-.11,0-.17l-.09-.51s0-.06,0-.09l-.09-.51s0-.06,0-.09l-.09-.51s0-.06,0-.09l-.09-.43s0-.06,0-.09c-.06-.13-.09-.28-.09-.43,0-.03,0-.06,0-.09-.06-.13-.09-.28-.09-.43,0-.03,0-.06,0-.09l-.09-.34s0-.06,0-.09l-.17-.86s0-.06,0-.09l-.09-.34s0-.06,0-.09l-.6-2.83s0-.06,0-.09l-.09-.34s0-.06,0-.09l-.09-.34s0-.06,0-.09l-.09-.34s0-.06,0-.09l-.09-.34s0-.06,0-.09l-.09-.34s0-.06,0-.09l-.09-.34s0-.06,0-.09l-.09-.34s0-.06,0-.09l-.09-.34s0-.06,0-.09l-.34-1.54s0-.06,0-.09l-.09-.34s0-.06,0-.09l-.09-.34s0-.06,0-.09l-.09-.34s0-.06,0-.09l-.09-.34s0-.06,0-.09l-.09-.34s0-.06,0-.09l-.09-.34s0-.06,0-.09l-.09-.34s0-.06,0-.09l-.09-.34s0-.06,0-.09l-.34-1.54s0-.06,0-.09l-.09-.34s0-.06,0-.09l-.09-.34s0-.06,0-.09l-.09-.34s0-.06,0-.09l-.09-.34s0-.06,0-.09l-.09-.34s0-.06,0-.09l-.09-.34s0-.06,0-.09l-.09-.34s0-.06,0-.09l-.09-.34s0-.06,0-.09l-.43-1.97s0-.06,0-.09l-.09-.34s0-.06,0-.09l-.09-.34s0-.06,0-.09l-.09-.34s0-.06,0-.09l-.09-.34s0-.06,0-.09l-.09-.34s0-.06,0-.09l-.09-.34s0-.06,0-.09l-.09-.34s0-.06,0-.09l-.09-.34s0-.06,0-.09l-.34-1.54s0-.06,0-.09l-.09-.34s0-.06,0-.09l-.09-.34s0-.06,0-.09l-.09-.34s0-.06,0-.09l-.09-.34s0-.06,0-.09l-.09-.34s0-.06,0-.09l-.09-.34s0-.06,0-.09l-.09-.34s0-.06,0-.09c-.02-.09-.05-.12-.09-.09.05-.13-.06-.27-.19-.3h-13.78c-.19.14-.3.42-.33.82,0,.03,0,.06,0,.09l-.09.34s0,.06,0,.09l-.09.34s0,.06,0,.09l-.09.34s0,.06,0,.09l-.09.34s0,.06,0,.09l-.09.34s0,.06,0,.09l-.09.34s0,.06,0,.09l-.09.34s0,.06,0,.09l-.34,1.54s0,.06,0,.09l-.09.34s0,.06,0,.09l-.09.34s0,.06,0,.09l-.09.34s0,.06,0,.09l-.09.34s0,.06,0,.09l-.09.34s0,.06,0,.09l-.09.34s0,.06,0,.09l-.09.34s0,.06,0,.09l-.09.34s0,.06,0,.09l-.34,1.54s0,.06,0,.09l-.09.34s0,.06,0,.09l-.09.34s0,.06,0,.09l-.09.34s0,.06,0,.09l-.09.34s0,.06,0,.09l-.09.34s0,.06,0,.09l-.09.34s0,.06,0,.09l-.09.34s0,.06,0,.09l-.34,1.54s0,.06,0,.09l-.09.34s0,.06,0,.09l-.09.34s0,.06,0,.09l-.09.34s0,.06,0,.09l-.09.34s0,.06,0,.09l-.09.34s0,.06,0,.09l-.09.34s0,.06,0,.09l-.09.34s0,.06,0,.09l-.34,1.54s0,.06,0,.09l-.09.34s0,.06,0,.09l-.09.34s0,.06,0,.09l-.09.34s0,.06,0,.09l-.09.34s0,.06,0,.09l-.09.34s0,.06,0,.09l-.09.34s0,.06,0,.09l-.09.34s0,.06,0,.09l-.09.34s0,.06,0,.09l-.34,1.54s0,.06,0,.09l-.09.34s0,.06,0,.09l-.09.34s0,.06,0,.09l-.09.34s0,.06,0,.09l-.09.34s0,.06,0,.09c-.04.35-.16.67-.34.94-.47,2.54-.85,5.22-1.05,7.7l-.06-.09c-.08-3.2-.55-6.66-1.1-9.92-.13-.25-.22-.5-.28-.77,0-.03,0-.06,0-.09-.06-.13-.09-.28-.09-.43,0-.03,0-.06,0-.09l-.17-.86s0-.06,0-.09c-.06-.13-.09-.28-.09-.43,0-.03,0-.06,0-.09l-.09-.34s0-.06,0-.09c-.06-.13-.09-.28-.09-.43,0-.03,0-.06,0-.09-.06-.13-.09-.28-.09-.43,0-.03,0-.06,0-.09l-.09-.34s0-.06,0-.09c-.06-.13-.09-.28-.09-.43,0-.03,0-.06,0-.09l-.09-.34s0-.06,0-.09c-.06-.13-.09-.28-.09-.43,0-.03,0-.06,0-.09-.06-.13-.09-.28-.09-.43,0-.03,0-.06,0-.09l-.09-.34s0-.06,0-.09c-.06-.13-.09-.28-.09-.43,0-.03,0-.06,0-.09l-.09-.34s0-.06,0-.09c-.06-.13-.09-.28-.09-.43,0-.03,0-.06,0-.09-.06-.13-.09-.28-.09-.43,0-.03,0-.06,0-.09l-.09-.34s0-.06,0-.09c-.06-.13-.09-.28-.09-.43,0-.03,0-.06,0-.09l-.09-.34s0-.06,0-.09c-.06-.13-.09-.28-.09-.43,0-.03,0-.06,0-.09-.06-.13-.09-.28-.09-.43,0-.03,0-.06,0-.09l-.09-.34s0-.06,0-.09c-.06-.13-.09-.28-.09-.43,0-.03,0-.06,0-.09l-.17-.86s0-.06,0-.09c-.06-.13-.09-.28-.09-.43,0-.03,0-.06,0-.09l-.09-.34s0-.06,0-.09c-.06-.13-.09-.28-.09-.43,0-.03,0-.06,0-.09l-.17-.86s0-.06,0-.09c-.06-.13-.09-.28-.09-.43,0-.03,0-.06,0-.09l-.09-.34s0-.06,0-.09c-.06-.13-.09-.28-.09-.43,0-.03,0-.06,0-.09l-.09-.09-.09-.34c.09-.06.1-.14,0-.17-.03-.13-.06-.24-.09-.34.06-.04.06-.07,0-.09.08-.09.05-.24,0-.34,0-.03,0-.06,0-.09l-.09-.34s0-.06,0-.09c-.06-.13-.09-.28-.09-.43,0-.03,0-.06,0-.09l-.17-.86s0-.06,0-.09c-.06-.13-.09-.28-.09-.43,0-.03,0-.06,0-.09l-.09-.34s0-.06,0-.09c-.06-.13-.09-.28-.09-.43,0-.03,0-.06,0-.09-.06-.13-.09-.28-.09-.43,0-.03,0-.06,0-.09l-.09-.34s0-.06,0-.09c-.06-.13-.09-.27-.09-.43,0-.03,0-.06,0-.09l-.09-.34s0-.06,0-.09c-.06-.13-.09-.27-.09-.43,0-.03,0-.06,0-.09-.06-.13-.09-.27-.09-.43,0-.03,0-.06,0-.09-.01-.03-.07-.05-.09-.09-.02-.03.05-.16-.05-.18H15.03c-.05.01.03.25.04.35,0,.03,0,.06,0,.09l.26.77s0,.06,0,.09l.17.51s0,.06,0,.09l.43,1.37s0,.06,0,.09l.17.51s0,.06,0,.09l.26.77s0,.06,0,.09l.17.51s0,.06,0,.09l.43,1.37s0,.06,0,.09l.17.51s0,.06,0,.09l.26.77s0,.06,0,.09l.17.51s0,.06,0,.09l.17.51s0,.06,0,.09l.26.77s0,.06,0,.09l.17.51s0,.06,0,.09l.43,1.37s0,.06,0,.09l.17.51s0,.06,0,.09l.26.77s0,.06,0,.09l.17.51s0,.06,0,.09l.17.51s0,.06,0,.09l.26.77s0,.06,0,.09l.17.51s0,.06,0,.09l.43,1.37s0,.06,0,.09l.17.51s0,.06,0,.09l.26.77s0,.06,0,.09l.17.51s0,.06,0,.09l.43,1.37s0,.06,0,.09l.17.51s0,.06,0,.09l.26.77s0,.06,0,.09l.17.51s0,.06,0,.09l.17.51s0,.06,0,.09l.26.77s0,.06,0,.09l.17.51s0,.06,0,.09l.43,1.37s0,.06,0,.09l.17.51s0,.06,0,.09l.26.77s0,.06,0,.09l.17.51s0,.06,0,.09l.43,1.37s0,.06,0,.09l.17.51s0,.06,0,.09l.43,1.37s0,.06,0,.09l.17.51s0,.06,0,.09l.26.77s0,.06,0,.09l.17.51s0,.06,0,.09l.43,1.37s0,.06,0,.09l.17.51s0,.06,0,.09l.26.77s0,.06,0,.09c.03.07.06.07.09,0-.08.14.01.36.09.51,0,.03,0,.06,0,.09l.17.51s0,.06,0,.09l.26.77s0,.06,0,.09l.17.51s0,.06,0,.09l.43,1.37s0,.06,0,.09l.17.51s0,.06,0,.09l.26.77s0,.06,0,.09l.17.51s0,.06,0,.09l.43,1.37s0,.06,0,.09l.17.51s0,.06,0,.09l.26.77s0,.06,0,.09l.17.51s0,.06,0,.09l.17.51s0,.06,0,.09l.26.77s0,.06,0,.09l.17.51s0,.06,0,.09l.43,1.37s0,.06,0,.09l.17.51s0,.06,0,.09l.26.77s0,.06,0,.09l.17.51s0,.06,0,.09l.17.51s0,.06,0,.09l.26.77s0,.06,0,.09l.17.51s0,.06,0,.09c.04.23.12.43.26.6h17.3c.06-.03.06-.06,0-.09.09-.02.15-.1.17-.26,0-.03,0-.06,0-.09l.17-.68s0-.06,0-.09l.09-.34s0-.06,0-.09l.09-.26s0-.06,0-.09l.09-.34s0-.06,0-.09l.17-.68s0-.06,0-.09l.17-.68s0-.06,0-.09l.17-.68s0-.06,0-.09l.17-.68s0-.06,0-.09l.17-.68s0-.06,0-.09l.09-.34s0-.06,0-.09l.09-.26s0-.06,0-.09l.09-.34s0-.06,0-.09l.09-.26s0-.06,0-.09l.09-.34s0-.06,0-.09l.17-.68s0-.06,0-.09l.17-.68s0-.06,0-.09l.17-.68s0-.06,0-.09l.17-.68s0-.06,0-.09l.17-.68s0-.06,0-.09l.09-.34s0-.06,0-.09l.09-.26s0-.06,0-.09l.09-.34s0-.06,0-.09l.17-.68s0-.06,0-.09l.17-.68s0-.06,0-.09l.17-.68s0-.06,0-.09l.17-.68s0-.06,0-.09l.17-.68s0-.06,0-.09l.09-.34s0-.06,0-.09l.09-.26s0-.06,0-.09l.09-.34s0-.06,0-.09l.09-.26s0-.06,0-.09l.09-.34s0-.06,0-.09l.09-.26s0-.06,0-.09l.17-.68s0-.06,0-.09l.17-.68s0-.06,0-.09l.09-.34s0-.06,0-.09l.34-1.63s0-.06,0-.09l.09-.34s0-.06,0-.09c0-.15.02-.3.09-.43,0-.03,0-.06,0-.09,0-.15.02-.3.09-.43,0-.03,0-.06,0-.09,0-.15.03-.29.09-.43,0-.03,0-.06,0-.09l.09-.43c0-.06,0-.11,0-.17l.09-.51c0-.06,0-.11,0-.17l.09-.6c0-.06,0-.11,0-.17-.16-.76.08-1.06.71-.9l.06.81c0,.09,0,.17,0,.26l.09.6c0,.06,0,.11,0,.17l.09.51s0,.06,0,.09l.09.51s0,.06,0,.09c.03.07.06.07.09,0-.07.14-.06.29,0,.43,0,.03,0,.06,0,.09l.09.43s0,.06,0,.09l.17.86s0,.06,0,.09l.09.34s0,.06,0,.09l.09.34s0,.06,0,.09l.09.34s0,.06,0,.09l.09.34s0,.06,0,.09l.09.26s0,.06,0,.09l.09.34s0,.06,0,.09l.17.68s0,.06,0,.09l.17.68s0,.06,0,.09l.17.68s0,.06,0,.09l.17.68s0,.06,0,.09l.09.34s0,.06,0,.09l.09.26s0,.06,0,.09l.09.34s0,.06,0,.09l.09.26s0,.06,0,.09l.09.34s0,.06,0,.09l.17.68s0,.06,0,.09l.17.68s0,.06,0,.09l.17.68s0,.06,0,.09l.17.68s0,.06,0,.09l.17.68s0,.06,0,.09l.09.34s0,.06,0,.09l.09.26s0,.06,0,.09l.09.34s0,.06,0,.09l.17.68s0,.06,0,.09l.17.68s0,.06,0,.09l.17.68s0,.06,0,.09l.17.68s0,.06,0,.09l.17.68s0,.06,0,.09l.09.34s0,.06,0,.09l.09.26s0,.06,0,.09l.09.34s0,.06,0,.09l.09.26s0,.06,0,.09l.09.34s0,.06,0,.09l.17.68s0,.06,0,.09l.17.68s0,.06,0,.09l.17.68s0,.06,0,.09l.17.68s0,.06,0,.09l.17.68s0,.06,0,.09l.09.34s0,.06,0,.09c.02.14.08.26.17.34h17.3c.06-.03.06-.06,0-.09.14-.12.22-.29.26-.51,0-.03,0-.06,0-.09l.43-1.37s0-.06,0-.09l.17-.51s0-.06,0-.09l.26-.77s0-.06,0-.09l.17-.51s0-.06,0-.09l.43-1.37s0-.06,0-.09l.17-.51s0-.06,0-.09l.26-.77s0-.06,0-.09l.17-.51s0-.06,0-.09l.17-.51s0-.06,0-.09l.26-.77s0-.06,0-.09l.17-.51s0-.06,0-.09l.43-1.37s0-.06,0-.09l.17-.51s0-.06,0-.09c.05-.07.05-.13,0-.17.07-.03.07-.06,0-.09l.09-.17c.07-.04.07-.06,0-.09l.17-.51c.07-.03.07-.06,0-.09l.09-.17.09-.09s0-.06,0-.09l.43-1.37s0-.06,0-.09l.17-.51s0-.06,0-.09l.26-.77s0-.06,0-.09l.17-.51s0-.06,0-.09l.17-.51s0-.06,0-.09l.26-.77s0-.06,0-.09l.17-.51s0-.06,0-.09l.43-1.37s0-.06,0-.09l.17-.51s0-.06,0-.09l.26-.77s0-.06,0-.09l.17-.51s0-.06,0-.09l.17-.51s0-.06,0-.09l.26-.77s0-.06,0-.09l.17-.51s0-.06,0-.09l.43-1.37s0-.06,0-.09l.17-.51s0-.06,0-.09l.26-.77s0-.06,0-.09l.17-.51s0-.06,0-.09l.43-1.37s0-.06,0-.09l.17-.51s0-.06,0-.09l.26-.77s0-.06,0-.09l.17-.51s0-.06,0-.09l.17-.51s0-.06,0-.09l.26-.77s0-.06,0-.09l.17-.51s0-.06,0-.09l.43-1.37s0-.06,0-.09l.17-.51s0-.06,0-.09l.26-.77s0-.06,0-.09l.17-.51s0-.06,0-.09l.43-1.37s0-.06,0-.09l.17-.51s0-.06,0-.09l.26-.77s0-.06,0-.09l.17-.51s0-.06,0-.09l.17-.51s0-.06,0-.09c.08-.14.2-.5.07-.62-2.67-2.54-5.41-5.11-8.2-7.43Z"/>
      <path class="cls-32" d="M134.36,22.18v-7.96s0-.06,0-.09c-.13-.4-.45-.67-.86-.77-.03,0-.06,0-.09,0-.42-.09-.86-.09-1.28,0-.03,0-.06,0-.09,0-.42.04-.78.29-.94.68-.01.02,0,.06,0,.09l-.09.43c-.16,2.44.08,5.08.04,7.54l3.3.08Z"/>
      <path class="cls-32" d="M144.25,14.34c-.04-.52-.42-.86-.9-.98-.03,0-.06,0-.09,0-.39-.09-.81-.09-1.2,0-.06,0-.12,0-.17,0-.44.04-.81.35-.94.77,0,.03,0,.06,0,.09v7.96h3.25c.07-2.61.08-5.22.04-7.84Z"/>
      <path class="cls-32" d="M139.15,41.78s-.06,0-.09,0l-.34.17s-.06,0-.09,0l-1.2.43s-.06,0-.09,0l-.94.26s-.06,0-.09,0c-.2.03-.34.09-.43.17-.09-.07-.2-.07-.34,0-.03,0-.06,0-.09,0l-.43.09s-.06,0-.09,0l-.51.09c-.06,0-.11,0-.17,0l-.86.09c-.17,0-.34,0-.51,0-.22.07-.46.07-.69,0-.17,0-.34,0-.51,0l-.86-.09s-.06,0-.09,0l-.51-.09s-.11.04-.13.08l-.03,35.39,5.55.05h0c.11,0,.22,0,.33,0l9.09.09v-.09c.05-13.63.04-27.24-.02-40.83-1.63,1.82-3.65,3.24-5.89,4.19Z"/>
      <path class="cls-32" d="M148.14,25.34l.09-.26s0-.06,0-.09l.09-.26s0-.06,0-.09l.09-.34s0-.06,0-.09l.09-.6c0-.06,0-.11,0-.17l.03-.44c-7.16-.03-14.58-.03-21.76,0,0,0-.02.04-.03.09-.09.22-.06.46,0,.68,0,.03,0,.06,0,.09l.09.43s0,.06,0,.09l.09.34s0,.06,0,.09l.17.6s0,.06,0,.09l.09.17s0,.06,0,.09l.09.17s0,.06,0,.09c1.24,3.41,4.27,6.36,7.79,7.02-.07.03-.07.06,0,.09.03,0,.06,0,.09,0l.34.09s.06,0,.09,0l.34.09s.06,0,.09,0l.6.09c.09,0,.17,0,.26,0,.51.07,1.03.07,1.54,0,.06,0,.11,0,.17,0l.6-.09s.06,0,.09,0l.43-.09s.06,0,.09,0l.94-.26s.06,0,.09,0l.17-.09s.06,0,.09,0l.17-.09s.06,0,.09,0c3.3-1.24,5.81-4.01,6.85-7.36,0-.03,0-.06,0-.09Z"/>
    </g>
    <path class="cls-46" d="M128.53,34.16s.08-.14.09-.04c0,.03-.07.06-.09.04Z"/>
    <g>
      <path class="cls-17" d="M92.06,3.43c.22,0,.51-.04.71.02.1.03.18.17.3.22,1.13.5,2.3.97,3.45,1.43.54.22,1.13.53,1.71.56-.41.51-.61.94-.86,1.54l-.09.09s0,.06,0,.09l-.09.26s0,.06,0,.09l-.09.17c0,.06,0,.12,0,.17l-.51.05-9.51-3.94c-.11-.06-.23-.03-.34-.04-.07-.02-.07-.05,0-.09.03,0,.06,0,.09,0,.15,0,.29-.02.43-.09.03,0,.06,0,.09,0l.34-.09c.05,0,.12,0,.17,0,.15,0,.29-.03.43-.09.03,0,.06,0,.09,0l.43-.09c.06,0,.11,0,.17,0l.51-.09s.06,0,.09,0c.83-.04,1.65-.19,2.48-.17Z"/>
      <path class="cls-9" d="M97.79,20.38c.05.17.09.37,0,.51-.16-.17-.08-.53-.09-.77.02-.07.05-.07.09,0,0,.09,0,.17,0,.26Z"/>
      <path class="cls-9" d="M79.04,17.04c-.06,0-.11,0-.17,0-.03,0-.06,0-.09,0v-.09c.09,0,.21-.03.26.09Z"/>
      <path class="cls-9" d="M79.81,17.21c-.06,0-.11,0-.17,0-.03,0-.06,0-.09,0v-.09c.09,0,.21-.03.26.09Z"/>
      <path class="cls-9" d="M80.58,17.38c-.06,0-.11,0-.17,0-.03,0-.06,0-.09,0v-.09c.09,0,.21-.03.26.09Z"/>
      <path class="cls-9" d="M81.35,17.55c-.06,0-.11,0-.17,0-.03,0-.06,0-.09,0v-.09c.09,0,.21-.03.26.09Z"/>
      <path class="cls-9" d="M82.12,17.72c-.06,0-.11,0-.17,0-.03,0-.06,0-.09,0v-.09c.09,0,.21-.03.26.09Z"/>
      <path class="cls-9" d="M82.89,17.89c-.06,0-.11,0-.17,0-.03,0-.06,0-.09,0v-.09c.09,0,.21-.03.26.09Z"/>
      <path class="cls-9" d="M83.66,18.07c-.06,0-.11,0-.17,0-.03,0-.06,0-.09,0v-.09c.09,0,.21-.03.26.09Z"/>
      <path class="cls-9" d="M84.44,18.24c-.06,0-.11,0-.17,0-.03,0-.06,0-.09,0v-.09c.09,0,.21-.03.26.09Z"/>
      <path class="cls-9" d="M85.21,18.41c-.06,0-.11,0-.17,0-.03,0-.06,0-.09,0v-.09c.09,0,.21-.03.26.09Z"/>
      <path class="cls-9" d="M85.98,18.58c-.06,0-.11,0-.17,0-.03,0-.06,0-.09,0v-.09c.09,0,.21-.03.26.09Z"/>
      <path class="cls-9" d="M87.09,18.84c-.06,0-.11,0-.17,0-.03,0-.06,0-.09,0v-.09c.09,0,.21-.03.26.09Z"/>
      <path class="cls-9" d="M87.86,19.01c-.06,0-.11,0-.17,0-.03,0-.06,0-.09,0v-.09c.09,0,.21-.03.26.09Z"/>
      <path class="cls-9" d="M88.63,19.18c-.06,0-.11,0-.17,0-.03,0-.06,0-.09,0v-.09c.09,0,.21-.03.26.09Z"/>
      <path class="cls-9" d="M89.4,19.35c-.06,0-.11,0-.17,0-.03,0-.06,0-.09,0v-.09c.09,0,.21-.03.26.09Z"/>
      <path class="cls-9" d="M90.17,19.52c-.06,0-.11,0-.17,0-.03,0-.06,0-.09,0v-.09c.09,0,.21-.03.26.09Z"/>
      <path class="cls-9" d="M90.94,19.69c-.06,0-.11,0-.17,0-.03,0-.06,0-.09,0v-.09c.09,0,.21-.03.26.09Z"/>
      <path class="cls-9" d="M91.71,19.86c-.06,0-.11,0-.17,0-.03,0-.06,0-.09,0v-.09c.09,0,.21-.03.26.09Z"/>
      <path class="cls-9" d="M97.11,21.06c-.06,0-.11,0-.17,0-.03,0-.06,0-.09,0-.07-.02-.07-.05,0-.09.09,0,.21-.03.26.09Z"/>
      <path class="cls-9" d="M92.48,20.03c-.06,0-.11,0-.17,0-.03,0-.06,0-.09,0v-.09c.09,0,.21-.03.26.09Z"/>
      <path class="cls-9" d="M93.25,20.21c-.06,0-.11,0-.17,0-.03,0-.06,0-.09,0v-.09c.09,0,.21-.03.26.09Z"/>
      <path class="cls-9" d="M96.34,20.89c-.06,0-.11,0-.17,0-.03,0-.06,0-.09,0-.07-.02-.07-.05,0-.09.09,0,.21-.03.26.09Z"/>
      <path class="cls-9" d="M94.03,20.38c-.06,0-.11,0-.17,0-.03,0-.06,0-.09,0v-.09c.09,0,.21-.03.26.09Z"/>
      <path class="cls-9" d="M94.8,20.55c-.06,0-.11,0-.17,0-.03,0-.06,0-.09,0v-.09c.09,0,.21-.03.26.09Z"/>
      <path class="cls-9" d="M95.57,20.72c-.06,0-.11,0-.17,0-.03,0-.06,0-.09,0v-.09c.09,0,.21-.03.26.09Z"/>
      <path class="cls-9" d="M95.14,20.63s-.06,0-.09,0-.06,0-.09,0v-.09c.07,0,.15,0,.17.09Z"/>
      <path class="cls-9" d="M95.91,20.81s-.06,0-.09,0-.06,0-.09,0v-.09c.07,0,.15,0,.17.09Z"/>
      <path class="cls-9" d="M94.37,20.46s-.06,0-.09,0-.06,0-.09,0v-.09c.07,0,.15,0,.17.09Z"/>
      <path class="cls-9" d="M93.6,20.29s-.06,0-.09,0-.06,0-.09,0v-.09c.07,0,.15,0,.17.09Z"/>
      <path class="cls-9" d="M96.68,20.98s-.06,0-.09,0-.06,0-.09,0v-.09c.07,0,.15,0,.17.09Z"/>
      <path class="cls-9" d="M92.83,20.12s-.06,0-.09,0-.06,0-.09,0v-.09c.07,0,.15,0,.17.09Z"/>
      <path class="cls-9" d="M92.06,19.95s-.06,0-.09,0-.06,0-.09,0v-.09c.07,0,.15,0,.17.09Z"/>
      <path class="cls-9" d="M91.29,19.78s-.06,0-.09,0-.06,0-.09,0v-.09c.07,0,.15,0,.17.09Z"/>
      <path class="cls-11" d="M71.25,19.69h-.09s-.06,0-.09,0c-.07-.02-.07-.05,0-.09.08.03.11.06.17.09Z"/>
      <path class="cls-9" d="M90.51,19.61s-.06,0-.09,0-.06,0-.09,0v-.09c.07,0,.15,0,.17.09Z"/>
      <path class="cls-9" d="M89.74,19.44s-.06,0-.09,0-.06,0-.09,0v-.09c.07,0,.15,0,.17.09Z"/>
      <path class="cls-9" d="M88.97,19.26s-.06,0-.09,0-.06,0-.09,0v-.09c.07,0,.15,0,.17.09Z"/>
      <path class="cls-9" d="M88.2,19.09s-.06,0-.09,0-.06,0-.09,0v-.09c.07,0,.15,0,.17.09Z"/>
      <path class="cls-9" d="M87.43,18.92s-.06,0-.09,0-.06,0-.09,0v-.09c.07,0,.15,0,.17.09Z"/>
      <path class="cls-9" d="M86.66,18.75s-.06,0-.09,0-.06,0-.09,0v-.09c.07,0,.15,0,.17.09Z"/>
      <path class="cls-49" d="M120.57,18.49v.09c-.05-.07-.06-.08-.09-.17.02-.07.05-.07.09,0,0,.03,0,.06,0,.09Z"/>
      <path class="cls-3" d="M76.21,22.26c-.06-.02-.11-.06-.17-.09-.02-.01-.06.01-.09,0l-.09-.17c.13.07.28.1.34.26Z"/>
      <path class="cls-9" d="M83.24,17.98s-.06,0-.09,0-.06,0-.09,0v-.09c.07,0,.15,0,.17.09Z"/>
      <path class="cls-9" d="M82.47,17.81s-.06,0-.09,0-.06,0-.09,0v-.09c.07,0,.15,0,.17.09Z"/>
      <path class="cls-9" d="M81.7,17.64s-.06,0-.09,0-.06,0-.09,0v-.09c.07,0,.15,0,.17.09Z"/>
      <path class="cls-9" d="M80.92,17.47s-.06,0-.09,0-.06,0-.09,0v-.09c.07,0,.15,0,.17.09Z"/>
      <path class="cls-9" d="M80.15,17.3s-.06,0-.09,0-.06,0-.09,0v-.09c.07,0,.15,0,.17.09Z"/>
      <path class="cls-9" d="M79.38,17.12s-.06,0-.09,0-.06,0-.09,0v-.09c.07,0,.15,0,.17.09Z"/>
      <path class="cls-24" d="M119.97,17.04s0,.06,0,.09c-.08-.03-.07-.11-.09-.17.02-.07.05-.07.09,0,0,.02,0,.06,0,.09Z"/>
      <path class="cls-9" d="M78.61,16.95s-.06,0-.09,0-.06,0-.09,0v-.09c.07,0,.15,0,.17.09Z"/>
      <path class="cls-40" d="M99.76,40.5s-.06,0-.09,0-.06,0-.09,0v-.09c.07.02.14,0,.17.09Z"/>
      <path class="cls-24" d="M109.18,5.74v.09c-.07-.02-.14,0-.17-.09.02-.04.05-.03.09,0,.03,0,.06,0,.09,0Z"/>
      <path class="cls-49" d="M107.98,5.22v.09c-.08-.03-.13-.07-.17-.09h.09s.06,0,.09,0Z"/>
      <path class="cls-45" d="M98.82,40.15s-.06,0-.09,0v-.09s.06.07.09.09Z"/>
      <path class="cls-45" d="M78.01,18.15c-.1-.07-.13-.13-.17-.17.03,0,.06,0,.09,0l.09.17Z"/>
      <path class="cls-5" d="M102.67,4.02c-.23,0-.46,0-.69,0,.13-.14.55-.14.69,0Z"/>
      <path class="cls-47" d="M75.36,16.27l-.17.09c-.14-.07-.32-.09-.43-.26.23.05.42.13.6.17Z"/>
      <path class="cls-34" d="M72.19,15.67l-.43-.09c.18.02.35.08.43.09Z"/>
      <path class="cls-53" d="M79.55,19.09c-.27-.13-.59-.27-.77-.51.25.13.58.29.77.51Z"/>
      <path class="cls-20" d="M92.06,35.7l-.51-.43c.17.14.35.29.51.43Z"/>
      <path class="cls-53" d="M78.7,18.58c-.13-.06-.28-.1-.34-.26.13.07.28.09.34.26Z"/>
      <path class="cls-40" d="M100.02,40.58c-.07-.01-.14,0-.17-.09.07.01.14,0,.17.09Z"/>
      <path class="cls-40" d="M100.28,40.67l-.17-.09c.09.03.13.07.17.09Z"/>
      <path class="cls-45" d="M98.65,40.07s-.06-.05-.09-.09c.04.02.07.05.09.09Z"/>
      <path class="cls-45" d="M98.48,39.98l-.09-.09s.07.08.09.09Z"/>
      <path class="cls-45" d="M98.31,39.9s-.07-.05-.09-.09c.03.01.06.05.09.09Z"/>
      <path class="cls-45" d="M95.74,38.44l-.09-.09s.06.07.09.09Z"/>
      <path class="cls-45" d="M95.57,38.36l-.17-.17c.1.07.15.16.17.17Z"/>
      <path class="cls-45" d="M95.31,38.19l-.09-.09s.06.07.09.09Z"/>
      <path class="cls-22" d="M79.64,24.66l-.26-.26c.12.1.19.21.26.26Z"/>
      <path class="cls-22" d="M79.3,24.4l-.26-.26c.13.1.2.21.26.26Z"/>
      <path class="cls-6" d="M96.42,3.25c.21.03.41.06.6.09.17-.06.34-.06.51,0,.14-.06.29-.06.43,0,.09,0,.17,0,.26,0l.94.09c.06,0,.11,0,.17,0l.69.09c.06,0,.11,0,.17,0l.6.09c.06,0,.11,0,.17,0l.51.09s.06,0,.09,0l.51.09s.06,0,.09,0l.43.09c.06,0,.12,0,.17,0l.34.09c.05,0,.12,0,.17,0,.07.02.07.05,0,.09-.17.24-.43.24-.6,0-.22-.07-.46-.08-.69,0l-.21.18c-1.24.05-2.46.41-3.29,1.39l-.27.06-.25.14c-1.76-.56-3.62-1.32-5.26-2.19-.31.04-.53-.02-.65-.18-.05-.2.51-.16.69-.09.15-.07.36-.06.51,0,.19-.03.39-.06.6-.09h2.57Z"/>
      <path class="cls-22" d="M78.95,24.14l-.17-.17c.09.07.14.15.17.17Z"/>
      <path class="cls-22" d="M78.61,23.89l-.17-.17c.09.07.14.15.17.17Z"/>
      <path class="cls-22" d="M78.36,23.72l-.17-.17c.1.07.14.15.17.17Z"/>
      <path class="cls-52" d="M97.02,3.25c.07.02.07.05,0,.09-.19,0-.48.06-.6-.09h.6Z"/>
      <path class="cls-3" d="M76.64,22.52l-.09-.09s.06.07.09.09Z"/>
      <path class="cls-3" d="M76.47,22.43c-.08-.05-.14-.07-.17-.17.08.04.14.08.17.17Z"/>
      <path class="cls-30" d="M93.85,3.25l-.21.09c-.13.01-.26,0-.39,0-.07-.02-.07-.05,0-.09h.6Z"/>
      <path class="cls-3" d="M75.79,22l-.09-.09s.06.07.09.09Z"/>
      <path class="cls-54" d="M93.25,3.25v.09c-.17,0-.34,0-.51,0v-.09h.51Z"/>
      <path class="cls-3" d="M75.36,21.75s-.06-.06-.09-.09c.04.01.07.05.09.09Z"/>
      <path class="cls-37" d="M82.21,20.72s-.06-.06-.09-.09c.03.03.06.05.09.09Z"/>
      <path class="cls-45" d="M78.18,18.24s-.06-.06-.09-.09c.04.01.07.05.09.09Z"/>
      <path class="cls-45" d="M77.76,17.98s-.07-.05-.09-.09c.03.02.06.06.09.09Z"/>
      <path class="cls-44" d="M96.94,11.39c-.15-.17-.09-1.26-.09-1.59,0-.14-.05-.38.09-.47-.03.65-.03,1.41,0,2.05Z"/>
      <path class="cls-4" d="M97.19,7.62c.03-.15.06-.17.09-.26l-.09.26Z"/>
      <path class="cls-4" d="M97.11,7.88c0-.07,0-.15.09-.17,0,.07,0,.14-.09.17Z"/>
      <path class="cls-7" d="M106.44,4.8c-.07,0-.13-.03-.17-.09.06.02.14,0,.17.09Z"/>
      <path class="cls-42" d="M121.85,24.23v-.09s0,.06,0,.09Z"/>
      <path class="cls-13" d="M71.76,15.58l.43.09c.39-.14.83-.14,1.32.01.51.02.93.15,1.25.42.19.07.33.16.43.26.09-.04.18.02.26.17.02.01.06-.01.09,0,.73.43,1.44.89,2.14,1.37l.09.09h.09l.17.17c.02-.07.05-.07.09,0l.09.09c.09-.05.15-.02.17.09l.34.26c.02-.07.05-.07.09,0l.77.51c.08-.01.17.01.26.09.02.01.06-.01.09,0l1.93,1.16c.17.07.27.17.29.29l.09.09.14-.03c.63.35,1.25.71,1.83,1.14.02.01.06-.01.09,0l1.88,1.2s.06-.01.09,0l2.31,1.46s.06-.01.09,0l1.88,1.2s.06-.01.09,0l2.31,1.46s.06-.01.09,0l1.88,1.2s.06-.01.09,0l.34.26s.06-.01.09,0l1.88,1.2s.06-.01.09,0l1.88,1.2s.06-.01.09,0l1.88,1.2s.06-.01.09,0l2.31,1.46s.06-.01.09,0l1.29.8c.12-.03.15-.12.08-.29,0-.03,0-.06,0-.09l-.09-.34s0-.06,0-.09c0-.15-.02-.3-.09-.43,0-.03,0-.06,0-.09l-.09-.34s0-.06,0-.09l-.09-.34s0-.06,0-.09c0-.15-.02-.3-.09-.43,0-.03,0-.06,0-.09l-.09-.34s0-.06,0-.09l-.09-.34s0-.06,0-.09c0-.15-.02-.3-.09-.43,0-.03,0-.06,0-.09l-.09-.34s0-.06,0-.09l-.09-.34s0-.06,0-.09c0-.15-.02-.3-.09-.43,0-.03,0-.06,0-.09l-.09-.34s0-.06,0-.09l-.09-.34s0-.06,0-.09c0-.15-.02-.29-.09-.43,0-.03,0-.06,0-.09l-.09-.34s0-.06,0-.09c-.07-.22-.13-.49.17-.34.03,0,.06,0,.09,0l.34.09s.06,0,.09,0l.26.09s.06,0,.09,0l.34.09s.06,0,.09,0l.34.09s.06,0,.09,0l.26.09s.06,0,.09,0l.34.09s.06,0,.09,0l.69.17s.06,0,.09,0l.34.09s.06,0,.09,0l.26.09s.06,0,.09,0l.34.09s.06,0,.09,0l.34.09s.06,0,.09,0l.26.09s.06,0,.09,0l.34.09s.06,0,.09,0l.34.09s.06,0,.09,0l.26.09s.06,0,.09,0l.34.09s.06,0,.09,0l.34.09s.06,0,.09,0l.26.09s.06,0,.09,0l.34.09s.06,0,.09,0l.34.09s.06,0,.09,0l.26.09s.06,0,.09,0l.34.09s.06,0,.09,0l.34.09s.06,0,.09,0l.26.09s.06,0,.09,0l.34.09s.06,0,.09,0l.34.09s.06,0,.09,0l.26.09s.06,0,.09,0l.34.09s.06,0,.09,0l.34.09s.06,0,.09,0l.26.09s.06,0,.09,0l.34.09s.06,0,.09,0l.69.17s.06,0,.09,0l.34.09s.06,0,.09,0l.69.17s.06,0,.09,0l.34.09s.06,0,.09,0l.26.09s.06,0,.09,0l.34.09s.06,0,.09,0l.34.09s.06,0,.09,0l.26.09s.06,0,.09,0c.31.02.23.22.09.43,0,.03,0,.06,0,.09l-.26.51s0,.06,0,.09l-.86,1.63s.01.06,0,.09l-.26.34s.01.06,0,.09c-1.51,2.46-3.67,4.44-6.17,5.82-.23.11-.53.24-.77.34l-1.37.6s-.06,0-.09,0l-.17.09s-.06,0-.09,0l-.17.09s-.06,0-.09,0l-.17.09s-.06,0-.09,0l-.51.17s-.06,0-.09,0l-.26.09s-.06,0-.09,0l-.69.17s-.06,0-.09,0c-.15,0-.29.03-.43.09-.03,0-.06,0-.09,0l-.43.09s-.06,0-.09,0l-.6.09c-.06,0-.11,0-.17,0l-1.03.09c-.37,0-.74,0-1.11,0l-.94-.09c-.06,0-.11,0-.17,0l-.6-.09s-.06,0-.09,0l-.43-.09s-.06,0-.09,0l-.34-.09s-.06,0-.09,0l-.26-.09s-.06,0-.09,0l-.26-.09s-.06,0-.09,0l-.26-.09s-.06,0-.09,0l-.17-.09s-.06,0-.09,0c-.14-.04-.25-.1-.34-.17l-.17-.09c-.02.07-.05.07-.09,0l-.17-.09c-.02.07-.05.07-.09,0-.08-.02-.14-.05-.17-.09-.12.05-.24-.02-.34-.09-.03,0-.06,0-.09,0l-.34-.17-.09-.09s-.05.05-.09,0l-.09-.09c-.02.06-.05.06-.09,0l-.09-.09c-.03.07-.06.07-.09,0l-.09-.09c-.45-.11-.88-.31-1.28-.6-.02-.01-.06.01-.09,0-.41-.23-.78-.48-1.11-.77l-.09-.09c-.03.07-.06.07-.09,0l-.17-.17c-.03.07-.06.07-.09,0l-.09-.09c-1.14-.62-2.26-1.47-3.17-2.4l-.51-.43-.37-.23c-3.77-3.55-7.61-7.01-11.53-10.39l-.26-.26c-.03.07-.06.07-.09,0l-.26-.26c-.03.07-.06.07-.09,0l-.17-.17c-.07.06-.16,0-.17-.09l-.17-.17c-.03.07-.06.07-.09,0l-.17-.17c-.55-.27-1.05-.65-1.54-1.03l-.09-.09s-.06.04-.09,0l-.17-.17s-.06.04-.09,0c-.12-.08-.24-.17-.34-.26-.02.07-.05.07-.09,0l-.09-.09c-.12.04-.27-.07-.34-.17l-.09-.09h-.09s-.06,0-.09,0l-.51-.34s-.06.01-.09,0l-2.14-1.11c-.09-.03-.17-.06-.26-.09l-.51-.26s-.06,0-.09,0c-.12-.04-.2-.1-.26-.17-.09,0-.15-.03-.17-.09-.11.06-.25-.02-.34-.09-.03,0-.06,0-.09,0l-.6-.26s-.06,0-.09,0l-.17-.09s-.06,0-.09,0l-.17-.09s-.06,0-.09,0l-.17-.09s-.06,0-.09,0l-.17-.09s-.06,0-.09,0l-.77-.26s-.06,0-.09,0l-.26-.09s-.06,0-.09,0l-.26-.09s-.06,0-.09,0l-.26-.09s-.06,0-.09,0l-.26-.09s-.06,0-.09,0l-.34-.09s-.06,0-.09,0l-.34-.09s-.06,0-.09,0l-.34-.09s-.06,0-.09,0c-.13-.06-.28-.09-.43-.09-.03,0-.06,0-.09,0l-.51-.09c-.06,0-.11,0-.17,0l-.51-.09c-.06,0-.11,0-.17,0l-.69-.09c-.08,0-.17,0-.26,0-.49-.02-1.05-.12-.34-.43,1.46-1.34,3.65-1.75,5.59-1.92.65-.06,3.38-.19,3.78.08.05.04.1.08.14.13Z"/>
      <path class="cls-24" d="M120.06,17.3s-.08-.05-.09-.09c.03.03.07.05.09.09Z"/>
      <path class="cls-28" d="M119.37,15.84s-.06-.04-.09-.09l.09.09Z"/>
      <path class="cls-28" d="M119.29,15.67s-.07-.05-.09-.09c.03.02.07.05.09.09Z"/>
      <path class="cls-4" d="M97.28,7.28c.02-.07.08-.08.09-.09l-.09.09Z"/>
      <path class="cls-26" d="M111.32,7.02s-.06-.06-.09-.09c.04.02.06.05.09.09Z"/>
      <path class="cls-8" d="M101.99,4.02c.22-.08.46-.07.69,0,.2,0,.4,0,.6,0,.1-.07.24-.06.34,0,.03,0,.06,0,.09,0l.34.09c.06,0,.12,0,.17,0l.26.09s.06,0,.09,0l.34.09s.06,0,.09,0l.26.09s.06,0,.09,0l.51.17s.06,0,.09,0c.14.04.26.1.34.17l.17.09c.05-.07.14-.07.26,0,.03,0,.06,0,.09,0l.17.09s.06,0,.09,0c.27.1.53.21.77.34.09,0,.15.03.17.09.1-.06.24.02.34.09.03,0,.06,0,.09,0,.17.07.31.16.43.26l.09.09c.03-.07.06-.07.09,0,.08.02.14.05.17.09.08-.06.19,0,.26.09.13.05.3.12.43.17.06.03.05.05,0,.09l.09.09c.03-.07.06-.07.09,0l.09.09c.02-.07.05-.07.09,0l.09.09c.03-.07.06-.07.09,0l.09.09c.06-.05.14-.02.26.09.03,0,.06-.01.09,0,.13.07.21.16.26.26l.09.09c.02-.07.05-.07.09,0l.09.09c1.03.37,2.02,1.25,2.86,2.01,1.92,1.75,3.56,3.77,4.85,6.03.01.02-.01.06,0,.09.11.14.16.29.17.43l.09.09c.07.03.07.05,0,.09l.09.09c.25.29.47.73.51,1.11.04.03.07.09.09.17.07.02.07.05,0,.09l.09.09c.07.06.12.14.17.26,0,.02,0,.06,0,.09l.17.34s0,.06,0,.09c.07.1.14.23.09.34.05.02.08.08.09.17l.09.09s0,.06,0,.09l.09.17s0,.06,0,.09l.09.17s0,.06,0,.09l.09.17s0,.06,0,.09l.09.17s0,.06,0,.09l.17.51s0,.06,0,.09l.09.26s0,.06,0,.09l.09.26s0,.06,0,.09l.09.26s0,.06,0,.09l.09.26s0,.06,0,.09l.09.34s0,.06,0,.09c0,.15.03.29.09.43,0,.03,0,.06,0,.09l.09.43c0,.06,0,.11,0,.17l.09.51c0,.06,0,.11,0,.17.04.07.04.13,0,.17v.09c.03.16.06.33.09.51,0,.14,0,.29,0,.43v.17c0,.44.05.87.13,1.3,2.11,2.48,4.24,4.87,6.38,7.18.01.02-.01.06,0,.09.11.1.16.15,0,.17h-.09c-10.27-7.45-20.74-15.01-31.43-22.69-.09-.68-.1-1.38,0-2.05-.26-.29-.13-1.06.17-1.28-.23-.03-.21-.1,0-.17l.09-.17c-.08-.02-.07-.05,0-.09l.09-.26c-.07-.02-.07-.05,0-.09l.09-.09c-.26-.21.49-1.45.63-1.5l.22-.04c1-1.24,2.23-1.56,3.77-1.63Z"/>
      <path class="cls-26" d="M111.15,6.94s-.06-.06-.09-.09l.09.09Z"/>
      <path class="cls-28" d="M110.47,6.51s-.06-.05-.09-.09c.04.01.07.05.09.09Z"/>
      <path class="cls-28" d="M110.29,6.42s-.07-.08-.09-.09l.09.09Z"/>
      <path class="cls-28" d="M110.12,6.34s-.07-.07-.09-.09l.09.09Z"/>
      <path class="cls-28" d="M109.95,6.25s-.08-.03-.09-.09l.09.09Z"/>
      <path class="cls-24" d="M108.92,5.74s-.07-.05-.09-.09c.03.02.06.06.09.09Z"/>
      <path class="cls-18" d="M97.71,20.03c.06.02.06.05,0,.09.02.24.05.5.09.77.04.01.07.07.09.17,0,.06,0,.11,0,.17-.05.06-.11.05-.17,0-.03,0-.06,0-.09,0l-.17-.09-.17-.09c-.05.09-.11.09-.17,0-.09-.02-.18-.05-.26-.09-.04.07-.11.06-.17,0l-.17-.09c-.06.06-.12.06-.17,0-.09-.02-.18-.05-.26-.09-.04.07-.11.06-.17,0l-.17-.09c-.06.06-.12.06-.17,0-.09-.02-.18-.05-.26-.09-.04.07-.11.06-.17,0l-.17-.09c-.06.06-.12.06-.17,0-.09-.02-.18-.05-.26-.09-.04.07-.11.06-.17,0l-.17-.09c-.06.06-.12.06-.17,0-.09-.02-.18-.05-.26-.09-.04.07-.11.06-.17,0l-.17-.09c-.06.06-.12.06-.17,0-.09-.02-.18-.05-.26-.09-.04.07-.11.06-.17,0l-.17-.09c-.06.06-.12.06-.17,0-.09-.02-.18-.05-.26-.09-.04.07-.11.06-.17,0l-.17-.09c-.06.06-.12.06-.17,0-.09-.02-.18-.05-.26-.09-.04.07-.11.06-.17,0l-.17-.09c-.06.06-.12.06-.17,0-.09-.02-.18-.05-.26-.09-.04.07-.11.06-.17,0l-.17-.09c-.06.06-.12.06-.17,0-.09-.02-.18-.05-.26-.09-.04.07-.11.06-.17,0l-.17-.09c-.06.06-.12.06-.17,0-.09-.02-.18-.05-.26-.09-.04.07-.11.06-.17,0l-.17-.09c-.06.06-.12.06-.17,0-.09-.02-.18-.05-.26-.09-.04.07-.11.06-.17,0l-.17-.09c-.06.06-.12.06-.17,0-.09-.02-.18-.05-.26-.09-.04.07-.11.06-.17,0l-.17-.09c-.06.06-.12.06-.17,0-.09-.02-.18-.05-.26-.09-.04.07-.11.06-.17,0l-.17-.09c-.05.06-.11.06-.17,0l-.17-.09c-.05.09-.11.09-.17,0-.09-.02-.18-.05-.26-.09-.05.06-.11.06-.17,0l-.17-.09c-.05.09-.11.09-.17,0-.09-.02-.18-.05-.26-.09-.05.06-.11.06-.17,0l-.17-.09c-.05.09-.11.09-.17,0-.09-.02-.18-.05-.26-.09-.05.06-.11.06-.17,0l-.17-.09c-.05.09-.11.09-.17,0-.09-.02-.18-.05-.26-.09-.04.07-.11.06-.17,0l-.17-.09c-.06.06-.12.06-.17,0-.09-.02-.18-.05-.26-.09-.04.07-.11.06-.17,0l-.17-.09c-.06.06-.12.06-.17,0-.09-.02-.18-.05-.26-.09-.04.07-.11.06-.17,0l-.17-.09c-.06.06-.12.06-.17,0-.09-.02-.18-.05-.26-.09-.04.07-.11.06-.17,0l-.17-.09c-.06.06-.12.06-.17,0-.09-.02-.18-.05-.26-.09-.04.07-.11.06-.17,0l-.17-.09c-.06.06-.12.06-.17,0-.09-.02-.18-.05-.26-.09-.04.07-.11.06-.17,0l-.17-.09c-.06.06-.12.06-.17,0-.09-.02-.18-.05-.26-.09-.04.07-.11.06-.17,0l-.17-.09c-.1.07-.24.06-.34,0-.03,0-.06,0-.09,0l-.26-.09s-.06,0-.09,0l-.34-.09s-.06,0-.09,0l-.26-.09s-.06,0-.09,0l-.34-.09s-.06,0-.09,0l-.26-.09s-.06,0-.09,0l-.34-.09s-.06,0-.09,0c-.14,0-.25-.02-.34-.09-.21.05-.42-.06-.6-.17-.9-.2-1.65-.32-2.57-.43l-.43-.09c-3.01-.31-6.92-.05-9.5,1.71,2.79-3.05,6.24-5.7,9.75-7.65l.1.03c.44-.32,1.1-.06,1.84.45,7.91,3.36,15.72,6.57,23.43,9.63l.34.28Z"/>
      <path class="cls-9" d="M77.16,7.11l.19-.02c6.28,2.83,13.37,5.71,19.8,8.14l.12.19s.06-.01.09.09c0,.06,0,.11,0,.17l.09.77c0,.06,0,.11,0,.17l.09.77c0,.06,0,.11,0,.17l.09.77c0,.06,0,.11,0,.17l.09.77c0,.06,0,.11,0,.17.07.2.07.4,0,.6-1.1-.33-2.18-.81-3.25-1.24-7.4-3.03-14.8-6.06-22.15-9.18-.08-.03-.14.05-.2.06.15-.2.38-.37.69-.51.02-.01.06.01.09,0l.69-.43c.07-.03.17-.04.26-.09l2.14-1.11c.07-.03.17-.05.26-.09l.69-.34s.06,0,.09,0c.09-.07.14-.07.17,0Z"/>
      <path class="cls-9" d="M97.45,21.15c-.06-.02-.14,0-.17-.09.07,0,.13.03.17.09Z"/>
      <path class="cls-9" d="M86.32,18.66c-.07,0-.15,0-.17-.09.07,0,.15,0,.17.09Z"/>
      <path class="cls-44" d="M81.95,5.31l.94.29c4.7,1.99,9.34,3.88,13.9,5.68l.14.2c.09.01.12.1.09.26,0,.06,0,.11,0,.17l.09.68c0,.09,0,.17,0,.26l.09.68c0,.09,0,.17,0,.26l.09.68c0,.09,0,.17,0,.26.06.22.08.48,0,.68-.5-.03-.99-.29-1.45-.47-5.92-2.37-11.87-4.76-17.72-7.28-.23-.1-.5-.2-.72-.31-.13-.06-.2-.23-.22-.24.03-.11.14-.19.34-.26.03,0,.06,0,.09,0l.51-.26s.06,0,.09,0l.34-.17s.06,0,.09,0l.6-.26s.06,0,.09,0l.6-.26s.06,0,.09,0l.17-.09s.06,0,.09,0c.47-.22.96-.39,1.46-.51.02,0,.06,0,.09,0,.06-.05.12-.05.17,0Z"/>
      <path class="cls-9" d="M85.55,18.49c-.07,0-.15,0-.17-.09.07,0,.15,0,.17.09Z"/>
      <path class="cls-9" d="M84.78,18.32c-.07,0-.15,0-.17-.09.07,0,.15,0,.17.09Z"/>
      <path class="cls-9" d="M84.01,18.15c-.07,0-.15,0-.17-.09.07,0,.15,0,.17.09Z"/>
      <path class="cls-4" d="M86.75,4.11c.19-.04.4-.05.62-.03l9.26,3.85c.25-.09.41-.05.48.12-.06.44-.15.83-.17,1.28-.1.66-.08,1.38,0,2.05v.09c-.47-.08-.93-.3-1.37-.47-4.56-1.84-9.12-3.72-13.62-5.69-.07-.02-.07-.05,0-.09.03,0,.06,0,.09,0l.17-.09s.06,0,.09,0l.51-.17s.06,0,.09,0l.51-.17s.06,0,.09,0l.26-.09s.06,0,.09,0l.26-.09s.06,0,.09,0l.26-.09s.06,0,.09,0l.26-.09s.06,0,.09,0l.26-.09s.06,0,.09,0l.34-.09s.06,0,.09,0l.26-.09s.06,0,.09,0l.34-.09s.06,0,.09,0c.1-.06.26-.08.34,0Z"/>
    </g>
  </g>
  <g>
    <path class="cls-23" d="M190.18,83.13s.06,0,.09,0l.34.09s.06,0,.09,0l.26.09s.06,0,.09,0l.17.09s.06,0,.09,0c1.24.52,2.14,1.56,2.31,2.91,0,.03,0,.06,0,.09.09.54.09,1.09,0,1.63,0,.06,0,.11,0,.17l-.09.34s0,.06,0,.09c-.3,1.06-.95,1.95-1.92,2.49.81,1.8,1.66,3.63,2.54,5.48-.92.07-1.84.07-2.77,0l-2.1-4.97c-.13-.15-.6-.08-.81-.08-.07-.02-.16-.05-.17-.1-.04-.24-.04-1.6,0-1.83l.17-.12c.16-.18.42-.25.78-.22,2.45.03,2.44-3.82.02-3.83-.36.03-.63-.05-.8-.23-.07-.02-.16-.05-.17-.1-.03-.21-.04-1.69,0-1.83l.17-.12h1.71Z"/>
    <path class="cls-38" d="M188.47,83.13v2.05c-.48.25-1.25.27-1.71,0l.17.08v4.1l-.17.1c.46-.27,1.23-.25,1.71,0v2.05c-.57-.01-1.14.01-1.71,0v5.05c-.76.07-1.56.07-2.31,0-.07-4.37-.08-9.04,0-13.44,1.34-.05,2.68-.05,4.02,0Z"/>
  </g>
</svg>