<?xml version="1.0" encoding="UTF-8"?>
<svg id="Layer_1" data-name="Layer 1" xmlns="http://www.w3.org/2000/svg" viewBox="0 0 64 64">
  <defs>
    <style>
      .cls-1 {
        fill: none;
        stroke: #4ea69c;
        stroke-linecap: round;
        stroke-linejoin: round;
        stroke-width: 1.32px;
      }

      .cls-2 {
        fill: #4ea69c;
      }

      .cls-3 {
        fill: #00746b;
        opacity: .1;
      }
    </style>
  </defs>
  <rect class="cls-3" width="64" height="64"/>
  <g>
    <path class="cls-2" d="M32,33.48c-1.31,0-2.38-1.07-2.38-2.38s1.07-2.38,2.38-2.38,2.38,1.07,2.38,2.38-1.07,2.38-2.38,2.38ZM32,29.92c-.65,0-1.18.53-1.18,1.18s.53,1.18,1.18,1.18,1.18-.53,1.18-1.18-.53-1.18-1.18-1.18Z"/>
    <path class="cls-2" d="M32,33.29c-1.21,0-2.19-.98-2.19-2.19s.98-2.19,2.19-2.19,2.19.98,2.19,2.19-.98,2.19-2.19,2.19ZM32,29.73c-.75,0-1.37.61-1.37,1.36s.61,1.37,1.37,1.37,1.37-.61,1.37-1.37-.61-1.36-1.37-1.36Z"/>
    <path class="cls-2" d="M32,33.29c-1.21,0-2.19-.98-2.19-2.19s.98-2.19,2.19-2.19,2.19.98,2.19,2.19-.98,2.19-2.19,2.19ZM32,29.73c-.75,0-1.37.61-1.37,1.36s.61,1.37,1.37,1.37,1.37-.61,1.37-1.37-.61-1.36-1.37-1.36Z"/>
    <path class="cls-2" d="M34,31.1c0,1.1-.89,2-2,2s-2-.89-2-2,.89-2,2-2,2,.89,2,2ZM33.55,31.1c0-.86-.7-1.55-1.55-1.55s-1.55.7-1.55,1.55.7,1.55,1.55,1.55,1.55-.7,1.55-1.55Z"/>
    <path class="cls-2" d="M24.31,37.74c-.64,0-1.19-.36-1.47-.94-.29-.6-.22-1.29.18-1.81.16-.21.34-.32.5-.42-.14-3.69,1.65-6.88,4.8-8.55.05-.03.13-.06.22-.1.04-.02.09-.03.13-.05,0-.03,0-.06,0-.09,0-.1.02-.19.04-.25.13-.47.54-.85,1.06-.97.66-.16,1.54-.19,2.16-.19.3,0,.59,0,.84.02.35.02,1.5.09,1.93.39.44.31.54.72.61,1.09,2.49,1.11,4.38,3.5,4.94,6.27.14.71.21,1.48.21,2.43.69.39.92,1.14.83,1.73-.12.81-.74,1.38-1.57,1.44h-.02s-15.41,0-15.41,0ZM35.8,36.53c.45.01,1.04.03,1.46.03.31,0,.4,0,.42-.01h.05s.11,0,.11,0c0,0,.21.01.22.01.07,0,.16,0,.24,0,.15,0,.26-.01.34-.01.06,0,.11,0,.15,0-.02,0,.09,0,.09,0h.09s.34,0,.34,0c.15,0,.61,0,.7-.16.05-.08.06-.1.06-.11.04-.12.03-.42,0-.49l-.02-.05-.06-.04-.06-.08s0,0,0,0c-.03,0-.12-.04-.16-.04h-15.57c-.18.02-.26.2-.3.3-.05.16-.04.38.1.52l.06.03.05.04h.04c.22.04.7.07.84.07h.1s.08,0,.14,0h.13s.02,0,.02,0h1.54c1.37,0,2.74,0,4.11,0h.37c1.28,0,2.56-.02,3.83-.02,0,0,.3,0,.56.01ZM39.28,34.34c0-.51-.03-1.2-.16-1.86-.41-2.16-1.72-4.04-3.52-5.12.59,2.98,1.44,5.09,2.67,6.62.04.05.08.09.12.14.07.08.14.15.2.23h.69ZM37.04,34.34c-1.67-2.38-2.36-5.27-2.74-7.26-.02-.1-.04-.23-.05-.38-.07-.55-.13-.86-.19-.93-.06-.03-.51-.13-1.16-.18-.27-.02-.57-.03-.88-.03-.7,0-1.36.05-1.84.15-.27.05-.27.07-.32.29-.05.21-.08.45-.11.68-.03.23-.06.46-.1.67-.58,3.02-1.44,5.25-2.69,7h10.08ZM25.41,34.34c1.38-1.59,2.39-3.88,2.98-6.81.01-.07.03-.13.04-.19-1.78,1.07-3.11,2.97-3.53,5.06-.06.28-.13.7-.15,1.02,0,.15,0,.3,0,.46,0,.16,0,.31,0,.46h.66Z"/>
    <path class="cls-2" d="M24.31,37.56c-.57,0-1.05-.32-1.3-.84-.26-.54-.19-1.15.16-1.61.15-.19.32-.3.48-.4l.06-.04c-.18-3.66,1.57-6.83,4.7-8.49.04-.02.12-.05.2-.09.07-.03.21-.08.24-.11,0,0,0-.13.01-.2,0-.08.02-.16.03-.22.11-.41.47-.73.93-.84.64-.15,1.51-.19,2.12-.19.3,0,.58,0,.83.02.24.01,1.44.08,1.83.36.41.29.48.68.55,1.06h0c2.48,1.08,4.36,3.44,4.92,6.19.15.72.21,1.52.2,2.51.69.33.92,1.02.84,1.59-.11.72-.66,1.22-1.4,1.28h0s-15.41,0-15.41,0ZM35.8,36.72c.44.01,1.03.03,1.46.03.37,0,.45-.01.46-.02h.06s.06,0,.06,0h.11s.07,0,.11,0c.09,0,.19,0,.29,0,.11,0,.21,0,.29,0,.05,0,.1,0,.13,0,.02,0,.11,0,.11,0h.06s.36,0,.36,0c.35,0,.73-.03.86-.25.05-.08.07-.12.08-.16.05-.14.04-.5-.02-.62l-.02-.09-.07-.03-.06-.08s-.22-.11-.31-.11h-15.58c-.32.04-.44.32-.48.43-.07.23-.05.55.18.75h.04s.08.08.08.08c.07.02.1.03.13.04h.05c.15.03.64.05.78.05h.09s.1,0,.15,0h.08s.01,0,.01,0h1.6c1.49,0,2.99,0,4.48-.01,1.28,0,2.56-.01,3.83-.01h0c.09,0,.3,0,.56.01ZM39.47,34.53c0-.61-.02-1.36-.16-2.09-.45-2.34-1.95-4.4-3.97-5.45.59,3.22,1.48,5.49,2.79,7.1.04.05.09.1.14.15.08.09.17.18.23.28h.97ZM37.41,34.53c-1.8-2.4-2.53-5.4-2.92-7.49-.02-.1-.03-.23-.05-.37-.04-.33-.11-.93-.25-1.05-.1-.08-.67-.18-1.27-.22-.27-.02-.58-.03-.9-.03-.72,0-1.38.05-1.88.15-.33.07-.4.13-.47.43-.05.22-.08.46-.11.7-.03.22-.06.44-.1.65-.61,3.15-1.53,5.46-2.88,7.23h10.82ZM25.5,34.53c1.44-1.62,2.47-3.96,3.08-6.96.05-.25.09-.44.11-.59-2,1.05-3.51,3.08-3.97,5.38-.06.29-.14.71-.16,1.05-.01.16,0,.33,0,.5,0,.21.01.42,0,.63h.95Z"/>
    <path class="cls-2" d="M24.31,37.56c-.57,0-1.05-.32-1.3-.84-.26-.54-.19-1.15.16-1.61.15-.19.32-.3.48-.4l.06-.04c-.18-3.66,1.57-6.83,4.7-8.49.04-.02.12-.05.2-.09.07-.03.21-.08.24-.11,0,0,0-.13.01-.2,0-.08.02-.16.03-.22.11-.41.47-.73.93-.84.64-.15,1.51-.19,2.12-.19.3,0,.58,0,.83.02.24.01,1.44.08,1.83.36.41.29.48.68.55,1.06h0c2.48,1.08,4.36,3.44,4.92,6.19.15.72.21,1.52.2,2.51.69.33.92,1.02.84,1.59-.11.72-.66,1.22-1.4,1.28h0s-15.41,0-15.41,0ZM35.8,36.72c.44.01,1.03.03,1.46.03.37,0,.45-.01.46-.02h.06s.06,0,.06,0h.11s.07,0,.11,0c.09,0,.19,0,.29,0,.11,0,.21,0,.29,0,.05,0,.1,0,.13,0,.02,0,.11,0,.11,0h.06s.36,0,.36,0c.35,0,.73-.03.86-.25.05-.08.07-.12.08-.16.05-.14.04-.5-.02-.62l-.02-.09-.07-.03-.06-.08s-.22-.11-.31-.11h-15.58c-.32.04-.44.32-.48.43-.07.23-.05.55.18.75h.04s.08.08.08.08c.07.02.1.03.13.04h.05c.15.03.64.05.78.05h.09s.1,0,.15,0h.08s.01,0,.01,0h1.6c1.49,0,2.99,0,4.48-.01,1.28,0,2.56-.01,3.83-.01h0c.09,0,.3,0,.56.01ZM39.47,34.53c0-.61-.02-1.36-.16-2.09-.45-2.34-1.95-4.4-3.97-5.45.59,3.22,1.48,5.49,2.79,7.1.04.05.09.1.14.15.08.09.17.18.23.28h.97ZM37.41,34.53c-1.8-2.4-2.53-5.4-2.92-7.49-.02-.1-.03-.23-.05-.37-.04-.33-.11-.93-.25-1.05-.1-.08-.67-.18-1.27-.22-.27-.02-.58-.03-.9-.03-.72,0-1.38.05-1.88.15-.33.07-.4.13-.47.43-.05.22-.08.46-.11.7-.03.22-.06.44-.1.65-.61,3.15-1.53,5.46-2.88,7.23h10.82ZM25.5,34.53c1.44-1.62,2.47-3.96,3.08-6.96.05-.25.09-.44.11-.59-2,1.05-3.51,3.08-3.97,5.38-.06.29-.14.71-.16,1.05-.01.16,0,.33,0,.5,0,.21.01.42,0,.63h.95Z"/>
    <path class="cls-2" d="M40.1,34.81c.01-.87-.02-1.74-.2-2.59-.54-2.66-2.38-5.04-4.9-6.08-.08-.42-.12-.79-.5-1.05-.31-.22-1.32-.3-1.73-.32-.84-.04-2.09-.03-2.9.16-.36.09-.68.34-.79.7-.03.12-.03.42-.1.5-.06.07-.38.17-.49.22-3.14,1.67-4.8,4.88-4.59,8.42-.22.15-.42.23-.59.45-.65.84-.1,2.13.99,2.14h15.4c1.45-.11,1.69-2.05.39-2.56ZM39.49,32.4c.15.76.17,1.54.17,2.31h-1.27c-.09-.18-.28-.34-.41-.5-1.67-2.07-2.44-4.97-2.89-7.55,2.29,1.04,3.93,3.28,4.4,5.74ZM29.28,27.27c.09-.44.12-.93.21-1.36.09-.4.23-.5.62-.58.82-.16,1.99-.18,2.82-.12.29.02,1.18.1,1.37.27.27.22.3,1.16.37,1.53.51,2.73,1.35,5.53,3.12,7.71h-11.6c1.72-2.09,2.58-4.82,3.08-7.45ZM24.37,33.39c.02-.33.1-.74.16-1.07.48-2.43,2.11-4.61,4.37-5.66.05,0-.13.86-.14.94-.51,2.53-1.43,5.18-3.18,7.11h-1.25c.09-.43.01-.89.04-1.32ZM40.45,36.35s0,0,0,.01c0,0,0,0,0,0-.02.07-.05.13-.08.17,0,.01,0,.02-.02.03-.24.41-.97.34-1.38.34h0s-.01,0-.02,0c-.02,0-.03,0-.05,0-.04,0-.07,0-.11,0,0,0,0,0-.01,0h0s0,0-.01,0c0,0,0,0,0,0-.17-.02-.68.03-.84,0-.03,0-.07,0-.1,0-.02,0-.04,0-.05-.01-.22.06-2.22-.02-2.54-.02-3.3,0-6.63.04-9.95.03,0,0,0,0,0,0-.06,0-.11,0-.17,0-.02,0-.05,0-.07,0,0,0,0,0,0,0-.07,0-.84-.03-.89-.04,0,0,0,0-.01,0-.06-.01-.11-.03-.17-.05-.02,0-.04-.02-.05-.03-.03,0-.07-.03-.12-.08-.51-.45-.29-1.42.42-1.51h15.59c.12,0,.38.11.45.2,0,0,.01.02.01.02.03.01.05.03.06.05,0,0,0,0,0,0,.01.02.03.03.04.05.02.02.03.04.03.06,0,0,0,.01,0,.02.09.18.1.59.05.74Z"/>
    <path class="cls-1" d="M29.35,46.06c-.55,0-1-.45-1-1,0-2.17-1.73-3.91-3.87-3.91-.68,0-1.32.18-1.92.52-.19.11-.36.16-.54.16-.36,0-.69-.19-.87-.5l-2.65-4.59c-.13-.23-.17-.5-.1-.76s.23-.47.47-.61c1.24-.72,1.97-1.97,1.97-3.36s-.72-2.64-1.93-3.34c-.27-.15-.43-.37-.5-.63s-.03-.53.1-.76l2.65-4.59c.18-.31.51-.5.87-.5.17,0,.35.05.5.13.64.37,1.29.54,1.96.54,2.13,0,3.87-1.73,3.87-3.87,0-.59.45-1.04,1-1.04h5.31c.55,0,1,.45,1,1,0,1.11.42,2.09,1.18,2.82.72.69,1.7,1.09,2.69,1.09.68,0,1.32-.18,1.92-.52.19-.11.36-.16.54-.16.36,0,.69.19.87.5l2.65,4.59c.28.48.11,1.09-.37,1.37-1.24.72-1.97,1.97-1.97,3.36s.72,2.64,1.93,3.34c.51.3.68.91.4,1.39l-2.65,4.59c-.18.31-.51.5-.87.5h0c-.17,0-.35-.05-.5-.13-.64-.37-1.29-.54-1.96-.54-2.13,0-3.87,1.73-3.87,3.86,0,.59-.45,1.04-1,1.04h-5.31Z"/>
    <path class="cls-1" d="M45.34,27.36l-2.65-4.59c-.23-.39-.72-.52-1.11-.3l-.04.02c-2.7,1.56-6.07-.39-6.07-3.5v-.04c0-.45-.36-.82-.82-.82h-5.31c-.45,0-.82.36-.82.82v.04c0,3.11-3.37,5.06-6.07,3.5l-.04-.02c-.39-.23-.89-.09-1.11.3l-2.65,4.59c-.23.39-.09.89.3,1.11l.04.02c2.7,1.56,2.7,5.45,0,7.01l-.04.02c-.39.23-.52.72-.3,1.11l2.65,4.59c.23.39.72.52,1.11.3l.04-.02c2.7-1.56,6.07.39,6.07,3.5v.04c0,.45.36.82.82.82h5.31c.45,0,.82-.36.82-.82v-.04c0-3.11,3.37-5.06,6.07-3.5l.04.02c.39.23.89.09,1.11-.3l2.65-4.59c.23-.39.09-.89-.3-1.11l-.04-.02c-2.7-1.56-2.7-5.45,0-7.01l.04-.02c.39-.23.52-.72.3-1.11Z"/>
  </g>
</svg>