<?xml version="1.0" encoding="UTF-8"?>
<svg id="Layer_1" data-name="Layer 1" xmlns="http://www.w3.org/2000/svg" viewBox="0 0 64 64">
  <defs>
    <style>
      .cls-1 {
        fill: #4ea69c;
      }

      .cls-2 {
        fill: #00746b;
        opacity: .1;
      }

      .cls-3 {
        fill: #4ea59b;
      }
    </style>
  </defs>
  <rect class="cls-2" width="64" height="64"/>
  <g>
    <path class="cls-1" d="M41.36,26.58c-.01-.6-.02-1.17-.02-1.72,0-.43-.35-.78-.78-.78-3.35,0-5.89-.96-8.02-3.03-.3-.3-.79-.3-1.09,0-2.12,2.06-4.67,3.03-8.01,3.03-.43,0-.78.35-.78.78,0,.55-.01,1.12-.02,1.73-.11,5.61-.25,13.3,9.11,16.55.08.03.17.04.26.04s.17-.01.26-.04c9.36-3.25,9.22-10.94,9.11-16.55ZM32,41.56c-8.03-2.92-7.91-9.31-7.8-14.95,0-.34.01-.67.02-.99,3.13-.13,5.64-1.08,7.78-2.95,2.14,1.87,4.65,2.82,7.78,2.95,0,.32.01.65.02.99.11,5.64.23,12.03-7.8,14.95Z"/>
    <path class="cls-1" d="M34.69,29.28l-3.78,3.78-1.61-1.61c-.31-.31-.8-.31-1.11,0-.31.31-.31.8,0,1.11l2.16,2.16c.15.15.35.23.55.23s.4-.08.55-.23l4.33-4.33c.31-.31.31-.8,0-1.11-.31-.31-.8-.31-1.11,0Z"/>
    <path class="cls-3" d="M46.06,38.15v2.8c0,2.28-2.98,5.1-5.24,5.1h-1.52v-1.22c1.77.08,3.39-.38,4.53-1.79.45-.55,1.02-1.79,1.02-2.5v-2.4h1.22Z"/>
    <path class="cls-3" d="M46.06,25.51h-1.22v-2.06c0-2.01-2.28-4.29-4.29-4.29h-1.25v-1.22h1.66c2.2,0,5.1,2.91,5.1,5.1v2.47Z"/>
    <path class="cls-3" d="M19.16,38.15c-.02,1.78-.12,3.48,1.05,4.93,1,1.22,2.38,1.76,3.95,1.76v1.22h-.98c-2.34,0-5.24-2.89-5.24-5.24v-2.67h1.22Z"/>
    <path class="cls-3" d="M24.16,17.94v1.22c-1.98-.08-3.8.98-4.59,2.81-.48,1.13-.42,2.33-.42,3.54h-1.22v-2.33c0-2.26,2.83-5.24,5.1-5.24h1.12Z"/>
  </g>
</svg>