<?xml version="1.0" encoding="UTF-8"?>
<svg id="Layer_1" data-name="Layer 1" xmlns="http://www.w3.org/2000/svg" viewBox="0 0 64 64">
  <defs>
    <style>
      .cls-1 {
        fill: #4ea69c;
      }

      .cls-2 {
        fill: #00746b;
        opacity: .1;
      }
    </style>
  </defs>
  <rect class="cls-2" x="0" y="-.03" width="64" height="64"/>
  <g>
    <path class="cls-1" d="M52.29,39.1c-.62,2.03-2.55,1.43-4.2,1.51-.15,2.01-1.94,3.77-4,3.64-1.87-.12-3.51-1.59-3.69-3.48l-1.14-.09h-14.18c-.11.05-.34.99-.45,1.23-1.6,3.57-6.98,2.69-7.37-1.15-1.32.05-2.78,0-3.6-1.19-.07-.1-.36-.76-.36-.83v-4.72c-.89.05-1.63-.1-1.51-1.15.06-.46.4-.63.83-.68l5.6.04c.56.32.81.88.39,1.43-.09.11-.39.36-.52.36h-2.97c.04.26-.07.5-.08.75-.06.88-.09,2.56,0,3.41.13,1.13,1.6.54,2.41.66.44-.72.77-1.28,1.5-1.75,2.05-1.33,4.78-.44,5.74,1.77,4.09-.05,8.21.08,12.29-.06.24-.16.49-.38.5-.69-.03-5.35.05-10.71-.04-16.06-.15-.27-.39-.54-.72-.55H15.71c-.4.1-.6.38-.66.78-.12.75-.01,1.79.06,2.56h2.97c.07,0,.46.35.52.44.34.52.03,1.21-.55,1.35-.5.12-3.27.11-3.84.03s-.95-.49-1-1.06c-.09-.93-.08-3.4.2-4.24s1.17-1.55,2.07-1.66h21.47c1.08.01,2.34,1.37,2.34,2.41v2.02c.15-.02.28-.08.43-.08,1.14-.04,4.65-.16,5.54.18.66.26.94.79,1.23,1.38.9,1.8,1.53,3.84,2.43,5.65.78.78,2.14,1.43,2.88,2.19.13.14.22.31.32.47l.17.51v4.68ZM44.6,25.87h-5.31v4.99h7.53l-2.22-4.99ZM47.81,32.68h-8.52v5.67c0,.1-.19.36-.16.52h1.47c1-1.9,2.94-2.9,5.06-2.12,1.06.39,1.66,1.2,2.25,2.11.42-.04,2.25.13,2.47-.08.09-.12.09-.27.1-.41.1-1.16-.06-2.46-.02-3.63l-2.64-2.04ZM23.13,40.35c0-1.13-.91-2.04-2.04-2.04s-2.04.91-2.04,2.04.91,2.04,2.04,2.04,2.04-.91,2.04-2.04ZM46.29,40.35c0-1.13-.92-2.05-2.05-2.05s-2.05.92-2.05,2.05.92,2.05,2.05,2.05,2.05-.92,2.05-2.05Z"/>
    <path class="cls-1" d="M11.71,29.59v-.32c.13-.36.36-.7.76-.79,2.01.13,4.28-.19,6.26,0,1.28.12,1.35,1.71,0,1.83-1.94.17-4.13-.13-6.1-.01-.44-.07-.73-.31-.92-.71Z"/>
    <path class="cls-1" d="M32.53,28.63c0,2.84-2.31,5.15-5.15,5.15s-5.15-2.31-5.15-5.15,2.31-5.15,5.15-5.15,5.15,2.31,5.15,5.15ZM30.72,28.64c0-1.85-1.5-3.34-3.34-3.34s-3.34,1.5-3.34,3.34,1.5,3.34,3.34,3.34,3.34-1.5,3.34-3.34Z"/>
    <path class="cls-1" d="M27.54,28.83c.55-.01,1.34,0,1.75,0,.07,0,.2-.07.3.02.24.21.2.77-.05,1.07-.09.11-.3.29-1.07.3-1.03,0-2.1.13-2.36-.66-.04-.14-.06-.14-.06-2.07,0-.3,0-.51.15-.69.31-.37,1.11-.38,1.33-.06.06.09.07.18.07.23-.02.57-.07,1.42-.06,1.87Z"/>
  </g>
</svg>