<?xml version="1.0" encoding="UTF-8"?>
<svg id="Layer_1" data-name="Layer 1" xmlns="http://www.w3.org/2000/svg" viewBox="0 0 64 64">
  <defs>
    <style>
      .cls-1 {
        fill: #4ea69c;
      }

      .cls-2 {
        fill: #00746b;
        opacity: .1;
      }
    </style>
  </defs>
  <rect class="cls-2" x="0" width="64" height="64"/>
  <path class="cls-1" d="M38.48,54.21c-.16,0-.32-.04-.46-.12l-6.02-3.4-6.02,3.4c-.14.08-.3.12-.46.12h0c-.06,0-.13,0-.19-.02-.24-.05-.45-.19-.59-.4-.14-.21-.19-.46-.14-.71l1.25-6.18h-7.47c-1.17,0-2.13-.96-2.13-2.13v-8.42c0-4.61,3.76-8.36,8.37-8.37h14.77c4.61,0,8.36,3.76,8.37,8.37v8.42c0,1.17-.96,2.13-2.13,2.13h-7.47l1.25,6.18c.04.22,0,.45-.1.65-.17.29-.48.48-.82.48ZM27.63,45.29c.24.22.35.56.28.88l-1.07,5.29,4.7-2.65c.14-.08.3-.12.46-.12s.32.04.46.12l4.7,2.65-1.07-5.29c-.06-.32.04-.66.28-.88l3.98-3.65-5.36-.62c-.32-.04-.61-.24-.74-.54l-2.24-4.91-2.24,4.91c-.14.3-.42.5-.75.54l-5.36.62,3.98,3.65ZM45.62,45.04c.14,0,.26-.12.26-.26v-8.42c0-3.58-2.92-6.49-6.49-6.49h-14.77c-3.58,0-6.49,2.92-6.49,6.49v8.42c0,.14.12.26.26.26h6.21l-3.71-3.41c-.17-.15-.27-.36-.3-.58-.03-.25.04-.49.2-.69s.38-.32.63-.35l6.87-.79,2.88-6.29c.09-.2.26-.37.46-.46.12-.06.26-.09.39-.09.37,0,.7.21.85.55l2.88,6.29,6.87.79c.22.03.43.13.58.3.35.38.32.97-.06,1.32l-3.71,3.41h6.21ZM32,27.12c-4.77,0-8.66-3.89-8.67-8.67,0-4.78,3.89-8.67,8.67-8.67s8.67,3.89,8.67,8.67-3.89,8.67-8.67,8.67h0ZM32,11.66c-3.74,0-6.79,3.05-6.79,6.79,0,3.75,3.05,6.79,6.79,6.79s6.79-3.05,6.79-6.79-3.05-6.79-6.79-6.79h0Z"/>
  <path class="cls-1" d="M32,26.87c4.65,0,8.42-3.77,8.42-8.42,0-4.65-3.77-8.42-8.42-8.42-4.65,0-8.42,3.77-8.42,8.42,0,4.65,3.77,8.41,8.42,8.42ZM32,11.41c3.89,0,7.04,3.15,7.04,7.04s-3.15,7.04-7.04,7.04-7.04-3.15-7.04-7.04c0-3.89,3.16-7.04,7.04-7.04ZM16.5,36.37v8.42c0,1.04.84,1.88,1.88,1.88h7.77l-1.31,6.48c-.08.37.17.73.54.81.16.03.33,0,.47-.07l6.15-3.47,6.15,3.47c.33.19.75.07.94-.26.08-.14.11-.31.07-.47l-1.31-6.48h7.77c1.04,0,1.88-.84,1.88-1.88v-8.42c0-4.48-3.64-8.11-8.12-8.12h-14.77c-4.48,0-8.11,3.64-8.12,8.12ZM32.34,49.02c-.21-.12-.47-.12-.67,0l-5.18,2.92,1.18-5.83c.05-.24-.03-.48-.21-.64l-4.38-4.02,5.9-.68c.24-.03.45-.18.55-.4l2.47-5.41,2.47,5.41c.1.22.31.37.55.4l5.9.68-4.38,4.02c-.18.16-.26.41-.21.64l1.18,5.83-5.18-2.92ZM24.62,29.63h14.77c3.72,0,6.74,3.02,6.74,6.74v8.42c0,.28-.23.51-.51.51h-6.85l4.19-3.84c.28-.26.3-.69.04-.97-.11-.12-.26-.2-.43-.22l-7.01-.81-2.93-6.42c-.16-.34-.56-.5-.91-.34-.15.07-.27.19-.34.34l-2.93,6.42-7.01.81c-.38.04-.65.38-.6.76.02.16.1.32.22.43l4.19,3.84h-6.85c-.28,0-.51-.23-.51-.51v-8.42c0-3.72,3.02-6.74,6.74-6.74Z"/>
</svg>