<?xml version="1.0" encoding="UTF-8"?>
<svg id="Layer_1" data-name="Layer 1" xmlns="http://www.w3.org/2000/svg" viewBox="0 0 64 64">
  <defs>
    <style>
      .cls-1 {
        fill: #4ea69c;
      }

      .cls-2 {
        fill: #00746b;
        opacity: .1;
      }
    </style>
  </defs>
  <rect class="cls-2" width="64" height="64"/>
  <g>
    <path class="cls-1" d="M47.21,41.66l-12.65-22.23c-1.13-1.98-3.99-1.98-5.12,0l-12.66,22.23c-1.12,1.96.3,4.4,2.56,4.4h25.31c2.26,0,3.68-2.44,2.55-4.4ZM45.12,43.36c-.07.12-.21.26-.46.26h-25.31c-.25,0-.39-.14-.46-.26-.07-.12-.12-.31,0-.53l12.66-22.22c.13-.23.32-.27.46-.27s.33.04.46.27l12.66,22.22c.12.22.06.41,0,.53Z"/>
    <path class="cls-1" d="M32,36.24c-.69,0-1.25-.57-1.25-1.27v-5.97c0-.7.56-1.27,1.25-1.27s1.25.57,1.25,1.27v5.97c0,.7-.56,1.27-1.25,1.27h0Z"/>
    <path class="cls-1" d="M32,27.73c-.21,0-.4.05-.58.14.4.21.68.64.68,1.13v5.97c0,.49-.28.92-.68,1.13.17.09.37.14.58.14.69,0,1.25-.57,1.25-1.27v-5.97c0-.7-.56-1.27-1.25-1.27h0Z"/>
    <path class="cls-1" d="M32,40.58c-.69,0-1.25-.57-1.25-1.27s.56-1.27,1.25-1.27,1.25.57,1.25,1.27-.56,1.27-1.25,1.27h0Z"/>
    <path class="cls-1" d="M32,38.04c-.21,0-.4.05-.58.14.4.21.68.64.68,1.13s-.28.92-.68,1.13c.17.09.37.14.58.14.69,0,1.25-.57,1.25-1.27s-.56-1.27-1.25-1.27h0Z"/>
    <path class="cls-1" d="M44.43,30.15c-.06,0-.12,0-.19-.02-.49-.11-.8-.59-.7-1.08.29-1.35-.57-2.7-1.91-3-.49-.11-.79-.6-.68-1.08.09-.41.46-.7.88-.7.07,0,.13,0,.2.02,2.31.52,3.78,2.83,3.28,5.15-.09.41-.46.71-.88.71Z"/>
    <path class="cls-1" d="M44.43,29.72s-.07,0-.1-.01c-.25-.06-.42-.31-.36-.56.34-1.58-.66-3.16-2.24-3.52-.25-.06-.41-.31-.35-.56s.31-.41.56-.36c2.08.47,3.4,2.55,2.95,4.63-.05.22-.24.37-.46.37h0Z"/>
    <path class="cls-1" d="M47.08,30.68c-.06,0-.12,0-.19-.02-.49-.11-.8-.59-.7-1.08.6-2.77-1.16-5.53-3.92-6.16-.24-.05-.44-.2-.56-.4-.13-.2-.17-.45-.12-.68.09-.41.46-.7.88-.7.07,0,.13,0,.2.02,3.73.85,6.1,4.57,5.29,8.3-.09.41-.46.71-.88.71Z"/>
    <path class="cls-1" d="M47.08,30.25s-.07,0-.1-.01c-.25-.06-.42-.31-.36-.56.65-3-1.26-5.99-4.25-6.67-.25-.06-.41-.31-.35-.56.06-.25.31-.41.56-.36,3.5.79,5.72,4.29,4.96,7.79-.05.22-.24.37-.46.37h0Z"/>
    <path class="cls-1" d="M19.57,30.15c-.42,0-.79-.3-.88-.71-.5-2.31.97-4.62,3.28-5.15.07-.02.13-.02.2-.02.42,0,.79.29.88.7.05.23.01.48-.12.68-.13.2-.33.35-.57.4-1.35.31-2.21,1.65-1.91,3,.11.49-.21.97-.69,1.08-.07.01-.13.02-.19.02Z"/>
    <path class="cls-1" d="M19.57,29.72c-.22,0-.41-.15-.46-.37-.45-2.08.87-4.16,2.95-4.63.25-.06.51.1.56.36.06.25-.1.51-.35.56-1.58.36-2.58,1.94-2.24,3.52.06.25-.11.5-.36.56-.03,0-.07.01-.1.01h0Z"/>
    <path class="cls-1" d="M16.92,30.68c-.42,0-.79-.3-.88-.71-.81-3.73,1.56-7.45,5.29-8.3.07-.02.13-.02.2-.02.42,0,.79.29.88.7.05.24.01.48-.12.68-.13.2-.33.35-.57.4-2.76.63-4.52,3.39-3.92,6.15.11.49-.21.97-.69,1.08-.07.01-.13.02-.19.02Z"/>
    <path class="cls-1" d="M16.92,30.25c-.22,0-.41-.15-.46-.37-.76-3.5,1.47-6.99,4.96-7.79.25-.06.51.1.56.36s-.1.51-.35.56c-2.99.68-4.9,3.67-4.25,6.67.06.25-.11.5-.36.56-.03,0-.07.01-.1.01Z"/>
  </g>
</svg>