<?xml version="1.0" encoding="UTF-8"?>
<svg id="Layer_1" data-name="Layer 1" xmlns="http://www.w3.org/2000/svg" viewBox="0 0 65.64 65.64">
  <defs>
    <style>
      .cls-1 {
        fill: #2f2f2f;
      }

      .cls-2 {
        fill: #fff;
        stroke: #e9e9ee;
        stroke-miterlimit: 10;
        stroke-width: 1.89px;
      }
    </style>
  </defs>
  <path class="cls-2" d="M65.64,65.64H0V0h65.64v65.64Z"/>
  <path class="cls-1" d="M20.61,37.89c-.75,0-1.37-.61-1.37-1.37s.61-1.37,1.37-1.37h4.7c.75,0,1.37.61,1.37,1.37s-.61,1.37-1.37,1.37h-4.7Z"/>
  <path class="cls-1" d="M20.61,31.62c-.75,0-1.37-.61-1.37-1.37s.61-1.37,1.37-1.37h4.7c.75,0,1.37.61,1.37,1.37s-.61,1.37-1.37,1.37h-4.7Z"/>
  <path class="cls-1" d="M31.37,37.89c-.75,0-1.37-.61-1.37-1.37,0-3.22,1.25-6.25,3.53-8.53l11.45-11.45c.85-.85,1.98-1.32,3.18-1.32s2.33.47,3.18,1.32c1.75,1.75,1.75,4.61,0,6.36l-11.45,11.45c-2.28,2.28-5.31,3.53-8.53,3.53ZM48.16,17.96c-.47,0-.92.18-1.25.52l-11.45,11.45c-1.33,1.33-2.22,3-2.56,4.83l-.06.29.29-.06c1.83-.35,3.5-1.24,4.83-2.57l11.45-11.45c.33-.33.52-.78.52-1.25s-.18-.92-.52-1.25c-.33-.33-.78-.52-1.25-.52Z"/>
  <path class="cls-1" d="M17.48,50.41c-2.48,0-4.5-2.02-4.5-4.5v-18.79c0-4.21,3.42-7.63,7.63-7.63h13.13c.75,0,1.37.61,1.37,1.37s-.61,1.37-1.37,1.37h-13.13c-2.7,0-4.9,2.2-4.9,4.9v18.79c0,.97.79,1.77,1.77,1.77.43,0,.85-.16,1.18-.45l2.61-2.33c.25-.22.57-.35.91-.35h16.6c2.7,0,4.9-2.2,4.9-4.9v-3.51c0-.75.61-1.37,1.37-1.37s1.37.61,1.37,1.37v3.51c0,4.21-3.42,7.63-7.63,7.63h-16.08l-2.22,1.99c-.82.74-1.89,1.14-3,1.14Z"/>
</svg>