<?xml version="1.0" encoding="UTF-8"?>
<svg id="Layer_1" data-name="Layer 1" xmlns="http://www.w3.org/2000/svg" viewBox="0 0 65.64 65.64">
  <defs>
    <style>
      .cls-1 {
        fill: #2f2f2f;
      }

      .cls-2 {
        fill: #fff;
        stroke: #e9e9ee;
        stroke-miterlimit: 10;
        stroke-width: 1.89px;
      }
    </style>
  </defs>
  <path class="cls-2" d="M65.64,65.64H0V0h65.64v65.64Z"/>
  <path class="cls-1" d="M19.3,51.22c-1.83,0-3.33-1.49-3.33-3.33v-30.49c0-1.83,1.49-3.33,3.33-3.33h17.72c.26,0,.51.11.69.29l7.53,7.6c.18.18.28.43.28.69v4.83c0,.54-.44.98-.98.98s-.98-.44-.98-.98v-4.43l-6.96-7.03h-17.31c-.76,0-1.38.62-1.38,1.38v30.49c0,.76.62,1.38,1.38,1.38h22.54c.54,0,.98.44.98.98s-.44.98-.98.98h-22.54Z"/>
  <path class="cls-1" d="M37.02,23.62c-.54,0-.98-.44-.98-.98v-7.39c0-.54.44-.98.98-.98s.98.44.98.98v6.42h6.33c.54,0,.98.44.98.98s-.44.98-.98.98h-7.31Z"/>
  <path class="cls-1" d="M44.54,53.8c-1.92,0-3.48-1.56-3.48-3.48v-7.93c0-.54.44-.98.98-.98s.98.44.98.98v7.93c0,.84.69,1.53,1.53,1.53s1.53-.69,1.53-1.53v-7.91c0-.54.44-.98.98-.98s.98.44.98.98v7.91c0,1.92-1.56,3.48-3.48,3.48Z"/>
  <path class="cls-1" d="M44.54,43.69c-4.69,0-8.5-3.81-8.5-8.5s3.81-8.5,8.5-8.5,8.5,3.81,8.5,8.5-3.81,8.5-8.5,8.5ZM44.54,28.64c-3.61,0-6.55,2.94-6.55,6.55s2.94,6.55,6.55,6.55,6.55-2.94,6.55-6.55-2.94-6.55-6.55-6.55Z"/>
  <path class="cls-1" d="M21.97,28.64c-.54,0-.98-.44-.98-.98v-7.53c0-.54.44-.98.98-.98h10.03c.54,0,.98.44.98.98v7.53c0,.54-.44.98-.98.98h-10.03ZM22.94,26.69h8.08v-5.57h-8.08v5.57Z"/>
</svg>