<?xml version="1.0" encoding="UTF-8"?>
<svg id="Layer_1" data-name="Layer 1" xmlns="http://www.w3.org/2000/svg" viewBox="0 0 65.64 65.64">
  <defs>
    <style>
      .cls-1 {
        fill: #2f2f2f;
      }

      .cls-2 {
        fill: #fff;
        stroke: #e9e9ee;
        stroke-miterlimit: 10;
        stroke-width: 1.89px;
      }
    </style>
  </defs>
  <path class="cls-2" d="M65.64,65.64H0V0h65.64v65.64Z"/>
  <g>
    <path class="cls-1" d="M32.82,38.09c-.81,0-1.36-.54-1.36-1.36.14-1.76,1.09-3.26,2.44-4.34.81-.81,1.63-1.63,1.63-2.44,0-1.49-1.22-2.71-2.71-2.71s-2.71,1.22-2.71,2.71c0,.81-.54,1.36-1.36,1.36s-1.36-.54-1.36-1.36c0-2.99,2.44-5.43,5.43-5.43s5.43,2.44,5.43,5.43c-.14,1.76-1.09,3.26-2.44,4.34-.81.81-1.63,1.63-1.63,2.44s-.54,1.36-1.36,1.36Z"/>
    <circle class="cls-1" cx="32.82" cy="40.8" r="1.36"/>
    <path class="cls-1" d="M17.08,50.03c-.41-.27-.54-.81-.54-1.36l1.22-6.92c-5.02-8.28-2.31-19.13,5.97-24.02,8.28-4.89,19.13-2.31,24.16,5.97,5.02,8.28,2.31,19.13-5.97,24.16-5.43,3.26-12.35,3.39-17.78.14l-5.56,2.31c-.68.14-1.09,0-1.49-.27h0ZM24.14,45.15c.27,0,.54.14.68.27,7.06,4.48,16.28,2.31,20.63-4.61,4.34-6.92,2.31-16.28-4.61-20.63-6.92-4.34-16.15-2.58-20.63,4.48-3.12,4.89-3.12,11.26,0,16.15.14.27.27.68.14.95l-.81,5.02,3.94-1.63h.68Z"/>
  </g>
</svg>