<?xml version="1.0" encoding="UTF-8"?>
<svg id="Layer_1" data-name="Layer 1" xmlns="http://www.w3.org/2000/svg" viewBox="0 0 65.64 65.64">
  <defs>
    <style>
      .cls-1 {
        fill: #2f2f2f;
      }

      .cls-2 {
        fill: #fff;
        stroke: #e9e9ee;
        stroke-miterlimit: 10;
        stroke-width: 1.89px;
      }
    </style>
  </defs>
  <path class="cls-2" d="M65.64,65.64H0V0h65.64v65.64Z"/>
  <path class="cls-1" d="M27.78,52.76c-.71,0-1.28-.57-1.28-1.28s.57-1.28,1.28-1.28h3.76v-5.9l-.35-.04c-7.46-.84-13.09-7.13-13.1-14.64,0-.71.57-1.28,1.28-1.28s1.28.57,1.28,1.28c0,6.71,5.46,12.17,12.17,12.17s12.17-5.46,12.17-12.17c0-.71.58-1.28,1.28-1.28s1.28.57,1.28,1.28c-.01,7.5-5.64,13.8-13.1,14.64l-.35.04v5.9h3.76c.71,0,1.28.57,1.28,1.28s-.57,1.28-1.28,1.28h-10.09Z"/>
  <path class="cls-1" d="M32.82,37.63c-4.41,0-8-3.6-8.01-8.01v-8.41c0-4.42,3.59-8.01,8.01-8.01s8.01,3.59,8.01,8.01v8.41c0,4.41-3.6,8-8.01,8.01ZM32.82,15.77c-3,0-5.44,2.44-5.44,5.44v8.41c0,3,2.44,5.45,5.44,5.45s5.44-2.44,5.44-5.45v-8.41c0-3-2.44-5.44-5.44-5.44Z"/>
</svg>