<?xml version="1.0" encoding="UTF-8"?>
<svg id="Layer_2" data-name="Layer 2" xmlns="http://www.w3.org/2000/svg" viewBox="0 0 100 100">
  <defs>
    <style>
      .cls-1 {
        fill: #4d9f86;
      }

      .cls-2 {
        fill: rgba(77, 159, 134, .3);
      }

      .cls-3 {
        fill: #fff;
      }
    </style>
  </defs>
  <g id="Layer_1-2" data-name="Layer 1">
    <g>
      <path class="cls-2" d="M50,0h0c27.61,0,50,22.39,50,50h0c0,27.61-22.39,50-50,50h0C22.39,100,0,77.61,0,50h0C0,22.39,22.39,0,50,0Z"/>
      <path class="cls-1" d="M50,10h0c22.09,0,40,17.91,40,40h0c0,22.09-17.91,40-40,40h0c-22.09,0-40-17.91-40-40h0c0-22.09,17.91-40,40-40Z"/>
      <path class="cls-3" d="M31.47,37.19v9.74c0,10.33,6.47,19.76,16.12,23.47.78.3,1.6.45,2.42.45s1.64-.15,2.42-.45l1.45-.56c8.91-3.43,14.67-12.05,14.67-21.96v-10.69c0-.8-.63-1.46-1.43-1.49-5.35-.21-10.81-2.32-16.22-6.27-.52-.38-1.23-.38-1.76,0-5.41,3.95-10.87,6.06-16.22,6.27-.8.03-1.43.69-1.43,1.49ZM34.45,38.59c5.19-.49,10.41-2.54,15.55-6.12,5.14,3.58,10.37,5.63,15.55,6.12v9.29c0,8.67-5.01,16.2-12.76,19.18l-1.44.56c-.87.33-1.83.33-2.69,0-8.5-3.27-14.21-11.58-14.21-20.69v-8.35Z"/>
      <path class="cls-3" d="M46.95,56.15c.28.28.66.44,1.05.44s.77-.16,1.05-.44l9.26-9.26c.58-.58.58-1.52,0-2.11s-1.52-.58-2.11,0l-8.21,8.21-4.22-4.22c-.58-.58-1.52-.58-2.11,0s-.58,1.52,0,2.11l5.27,5.27Z"/>
    </g>
  </g>
</svg>