<?xml version="1.0" encoding="UTF-8"?>
<svg id="Layer_2" data-name="Layer 2" xmlns="http://www.w3.org/2000/svg" viewBox="0 0 100 100">
  <defs>
    <style>
      .cls-1 {
        fill: #fff;
      }

      .cls-2 {
        fill: #a9b645;
      }

      .cls-3 {
        fill: rgba(169, 182, 69, .3);
      }
    </style>
  </defs>
  <g id="Layer_1-2" data-name="Layer 1">
    <g>
      <path class="cls-3" d="M50,0h0c27.61,0,50,22.39,50,50h0c0,27.61-22.39,50-50,50h0C22.39,100,0,77.61,0,50h0C0,22.39,22.39,0,50,0Z"/>
      <path class="cls-2" d="M50,10h0c22.09,0,40,17.91,40,40h0c0,22.09-17.91,40-40,40h0c-22.09,0-40-17.91-40-40h0c0-22.09,17.91-40,40-40Z"/>
      <g>
        <path class="cls-1" d="M48.94,71.66c.24.35.63.57,1.06.57s.82-.21,1.06-.57c3.02-4.53,7.46-10.12,10.56-15.8,2.48-4.55,3.68-8.42,3.68-11.85,0-8.44-6.86-15.3-15.3-15.3s-15.3,6.86-15.3,15.3c0,3.43,1.2,7.31,3.68,11.85,3.1,5.68,7.55,11.29,10.56,15.8ZM50,31.25c7.03,0,12.75,5.72,12.75,12.75,0,2.99-1.1,6.47-3.37,10.63-2.67,4.9-6.48,9.87-9.38,14.05-2.9-4.18-6.71-9.15-9.38-14.05-2.27-4.16-3.37-7.64-3.37-10.63,0-7.03,5.72-12.75,12.75-12.75h0Z"/>
        <path class="cls-1" d="M50,51.66c4.22,0,7.65-3.43,7.65-7.65s-3.43-7.65-7.65-7.65-7.65,3.43-7.65,7.65,3.43,7.65,7.65,7.65ZM50,38.91c2.81,0,5.1,2.29,5.1,5.1s-2.29,5.1-5.1,5.1-5.1-2.29-5.1-5.1,2.29-5.1,5.1-5.1Z"/>
      </g>
    </g>
  </g>
</svg>