<?xml version="1.0" encoding="UTF-8"?>
<svg id="Layer_2" data-name="Layer 2" xmlns="http://www.w3.org/2000/svg" viewBox="0 0 100 100">
  <defs>
    <style>
      .cls-1 {
        fill: #fff;
      }

      .cls-2 {
        fill: rgba(84, 136, 175, .3);
      }

      .cls-3 {
        fill: #5488af;
      }
    </style>
  </defs>
  <g id="Layer_1-2" data-name="Layer 1">
    <g>
      <path class="cls-2" d="M50,0h0c27.61,0,50,22.39,50,50h0c0,27.61-22.39,50-50,50h0C22.39,100,0,77.61,0,50h0C0,22.39,22.39,0,50,0Z"/>
      <path class="cls-3" d="M50,10h0c22.09,0,40,17.91,40,40h0c0,22.09-17.91,40-40,40h0c-22.09,0-40-17.91-40-40h0c0-22.09,17.91-40,40-40Z"/>
      <g>
        <path class="cls-1" d="M50.53,29.52c-5.84,0-10.52,4.67-10.52,10.52v4.67c-1.99,0-3.51,1.52-3.51,3.51v15.19c0,1.99,1.52,3.51,3.51,3.51h21.04c1.99,0,3.51-1.52,3.51-3.51v-15.19c0-1.99-1.52-3.51-3.51-3.51v-4.67c0-5.84-4.67-10.52-10.52-10.52ZM62.21,48.22v15.19c0,.7-.47,1.17-1.17,1.17h-21.04c-.7,0-1.17-.47-1.17-1.17v-15.19c0-.7.47-1.17,1.17-1.17h21.04c.7,0,1.17.47,1.17,1.17ZM42.35,44.71v-4.67c0-4.56,3.62-8.18,8.18-8.18s8.18,3.62,8.18,8.18v4.67h-16.36Z"/>
        <path class="cls-1" d="M50.53,50.56c-1.99,0-3.51,1.52-3.51,3.51,0,1.52.93,2.8,2.34,3.27v2.57c0,.7.47,1.17,1.17,1.17s1.17-.47,1.17-1.17v-2.57c1.4-.47,2.34-1.75,2.34-3.27,0-1.99-1.52-3.51-3.51-3.51ZM50.53,55.23c-.7,0-1.17-.47-1.17-1.17s.47-1.17,1.17-1.17,1.17.47,1.17,1.17-.47,1.17-1.17,1.17Z"/>
      </g>
    </g>
  </g>
</svg>