<?xml version="1.0" encoding="UTF-8"?>
<svg id="Layer_2" data-name="Layer 2" xmlns="http://www.w3.org/2000/svg" viewBox="0 0 100 100">
  <defs>
    <style>
      .cls-1 {
        fill: rgba(232, 151, 54, .3);
      }

      .cls-2 {
        fill: #fff;
      }

      .cls-3 {
        fill: #e89736;
      }
    </style>
  </defs>
  <g id="Layer_1-2" data-name="Layer 1">
    <g>
      <path class="cls-1" d="M50,0h0c27.61,0,50,22.39,50,50h0c0,27.61-22.39,50-50,50h0C22.39,100,0,77.61,0,50h0C0,22.39,22.39,0,50,0Z"/>
      <path class="cls-3" d="M50,10h0c22.09,0,40,17.91,40,40h0c0,22.09-17.91,40-40,40h0c-22.09,0-40-17.91-40-40h0c0-22.09,17.91-40,40-40Z"/>
      <path id="Show" class="cls-2" d="M50.92,64.84c-15.6,0-23.34-13.6-23.66-14.18-.25-.45-.25-1,0-1.45.32-.58,8.06-14.18,23.66-14.18s23.34,13.6,23.66,14.18c.25.45.25,1,0,1.45-.32.58-8.06,14.18-23.66,14.18ZM30.32,49.93c1.77,2.69,8.73,11.93,20.6,11.93s18.84-9.23,20.6-11.92c-1.77-2.69-8.73-11.93-20.6-11.93s-18.84,9.23-20.6,11.92h0ZM50.92,58.87c-4.93,0-8.94-4.01-8.94-8.94s4.01-8.94,8.94-8.94,8.94,4.01,8.94,8.94-4.01,8.94-8.94,8.94ZM50.92,43.97c-3.29,0-5.96,2.67-5.96,5.96s2.67,5.96,5.96,5.96,5.96-2.67,5.96-5.96-2.67-5.96-5.96-5.96Z"/>
    </g>
  </g>
</svg>