<svg width="64" height="64" viewBox="0 0 64 64" fill="none" xmlns="http://www.w3.org/2000/svg">
<g clip-path="url(#clip0_5258_33)">
<path d="M20.5996 37.6512L29.523 30.9587V17.3259C29.523 15.9552 30.631 14.8472 32.0017 14.8472C33.3725 14.8472 34.4805 15.9552 34.4805 17.3259V32.1982C34.4805 32.9789 34.1136 33.7152 33.489 34.1812L23.5742 41.6173C23.1281 41.9519 22.6075 42.113 22.0895 42.113C21.3335 42.113 20.5898 41.7734 20.104 41.119C19.2808 40.0258 19.504 38.4717 20.5996 37.6512Z" fill="#2DB5A4"/>
<path d="M32 0C49.6459 0 64 14.3541 64 32C64 49.6459 49.6459 64 32 64C14.3541 64 0 49.6459 0 32C0 14.3541 14.3541 0 32 0ZM32 59.0426C46.9094 59.0426 59.0426 46.9094 59.0426 32C59.0426 17.0906 46.9094 4.95738 32 4.95738C17.0881 4.95738 4.95737 17.0906 4.95737 32C4.95737 46.9094 17.0906 59.0426 32 59.0426Z" fill="#2DB5A4"/>
</g>
<defs>
<clipPath id="clip0_5258_33">
<rect width="64" height="64" fill="white" transform="matrix(-1 0 0 1 64 0)"/>
</clipPath>
</defs>
</svg>
