<svg width="24" height="35" viewBox="0 0 24 35" fill="none" xmlns="http://www.w3.org/2000/svg">
<path d="M23.9826 8.4082L22.767 12.6294H0L1.21563 8.4082H23.9826ZM12.903 35L0.468886 20.1489L0.434153 16.8164H6.59913C8.13893 16.8164 9.44139 16.5828 10.5065 16.1157C11.5716 15.6486 12.3821 14.9707 12.9378 14.082C13.4935 13.182 13.7713 12.0882 13.7713 10.8008C13.7713 8.88672 13.1925 7.36572 12.0347 6.23779C10.877 5.10986 9.06512 4.5459 6.59913 4.5459H0L1.26773 0H6.59913C9.47033 0 11.8379 0.450033 13.7019 1.3501C15.5658 2.25016 16.9551 3.49772 17.8698 5.09277C18.7844 6.68782 19.2417 8.52783 19.2417 10.6128C19.2417 12.4699 18.8654 14.1504 18.1129 15.6543C17.3603 17.1582 16.1621 18.383 14.5181 19.3286C12.8741 20.2743 10.7149 20.8268 8.04052 20.9863L7.88423 21.0205L19.2417 34.7095V35H12.903ZM24 0L22.767 4.25537L4.56729 4.15283L5.80029 0H24Z" fill="#2DB5A4"/>
</svg>
