<svg width="32" height="40" viewBox="0 0 32 40" fill="none" xmlns="http://www.w3.org/2000/svg">
<path d="M14.9596 28.8125H17.043V17.0354H14.9596V28.8125ZM16.0013 13.75C16.3652 13.75 16.6701 13.6271 16.9159 13.3812C17.1603 13.1354 17.2826 12.8312 17.2826 12.4687C17.2826 12.1048 17.1596 11.8 16.9138 11.5542C16.668 11.3083 16.3638 11.1861 16.0013 11.1875C15.6388 11.1889 15.3346 11.3118 15.0888 11.5562C14.843 11.8007 14.7201 12.1055 14.7201 12.4708C14.7201 12.8361 14.843 13.1403 15.0888 13.3833C15.3346 13.6264 15.6388 13.7486 16.0013 13.75ZM16.0013 38.6708C11.8152 37.4278 8.33811 34.8923 5.57005 31.0646C2.802 27.2368 1.41797 22.9236 1.41797 18.125V6.85832L16.0013 1.4104L30.5846 6.85832V18.125C30.5846 22.9222 29.2006 27.2347 26.4326 31.0625C23.6645 34.8903 20.1874 37.425 16.0013 38.6708ZM16.0013 36.4604C19.6124 35.3146 22.5985 33.0229 24.9596 29.5854C27.3207 26.1479 28.5013 22.3285 28.5013 18.1271V8.28123L16.0013 3.6354L3.5013 8.28123V18.125C3.5013 22.3264 4.68186 26.1458 7.04297 29.5833C9.40408 33.0208 12.3902 35.3146 16.0013 36.4604Z" fill="white" stroke="white"/>
</svg>
