<svg width="39" height="35" viewBox="0 0 39 35" fill="none" xmlns="http://www.w3.org/2000/svg">
<path d="M7.94514 24.7652C4.11013 24.7652 1.17662 22.4144 0.47223 18.7779C0.105541 16.8879 0.583831 14.8719 1.781 13.2486C2.96079 11.6485 4.71451 10.6122 6.58999 10.4078C7.16973 10.3441 7.42337 10.1759 7.71904 9.65706C9.26986 6.93371 11.7048 5.50753 14.9528 5.41767C14.9934 5.41767 15.034 5.41622 15.0746 5.41622C15.3717 5.41622 15.6876 5.44666 16.0137 5.50608C16.0311 5.50898 16.0427 5.51043 16.05 5.51043C16.0616 5.49884 16.0833 5.47275 16.1224 5.41477C18.1182 2.42619 20.9271 0.910156 24.4693 0.910156C24.5577 0.910156 24.6476 0.910156 24.7375 0.913055C26.868 0.957985 28.9855 1.81746 30.7016 3.33204C32.4133 4.84228 33.5336 6.83515 33.8568 8.94397L33.8612 8.97586C33.9438 9.51357 34.0293 10.0701 34.0105 10.6426C34.0105 10.6673 34.0105 10.6832 34.0119 10.6919C34.025 10.7006 34.054 10.7165 34.1119 10.7368C36.7034 11.6717 38.302 13.5167 38.8615 16.2212C39.2557 18.1286 38.789 20.1591 37.5803 21.7955C36.3584 23.4477 34.5294 24.5014 32.5611 24.6855C32.1278 24.7261 31.677 24.7464 31.2205 24.7464C31.0378 24.7464 30.8538 24.7435 30.6711 24.7362C30.1885 24.7203 29.7841 24.5493 29.5015 24.2449C29.2363 23.9579 29.1058 23.5782 29.1247 23.1492C29.1566 22.4419 29.6073 21.91 30.303 21.7621C30.5972 21.6998 30.8828 21.6911 31.0987 21.6911C31.2016 21.6911 31.3045 21.6926 31.4074 21.6955C31.5045 21.6969 31.6016 21.6998 31.6987 21.6998C31.735 21.6998 31.7712 21.6998 31.8089 21.6998C33.8424 21.6621 35.4801 20.3055 35.886 18.3242C36.3411 16.0995 34.9004 13.9167 32.6727 13.4573C32.606 13.4442 32.5379 13.4326 32.4713 13.4211C32.364 13.4022 32.2524 13.3834 32.1379 13.3558C31.3002 13.1544 30.8219 12.4659 30.9204 11.6036C31.2871 8.37293 29.6305 5.53507 26.7013 4.37268C25.9433 4.07267 25.1418 3.91903 24.3171 3.91903C21.8445 3.91903 19.5183 5.31332 18.3907 7.47287C18.3661 7.5207 18.3414 7.56853 18.3182 7.61636C18.2936 7.66564 18.269 7.71491 18.2443 7.76419C18.0124 8.20915 17.6486 8.72077 16.8848 8.72077C16.7123 8.72077 16.5239 8.69468 16.3094 8.64251C15.8021 8.51786 15.305 8.45409 14.8325 8.45409C13.5904 8.45409 12.4903 8.87295 11.4671 9.73388C10.8047 10.2919 10.3062 11.018 9.9873 11.8934C9.58872 12.9877 9.34378 13.3703 8.16835 13.3703C8.06979 13.3703 7.96254 13.3689 7.84514 13.3645H7.65962C5.5479 13.3645 3.89852 14.6907 3.45792 16.743C3.21297 17.8865 3.50575 19.1026 4.26231 20.078C5.02178 21.0577 6.13054 21.6462 7.30597 21.694C7.38424 21.6969 7.46251 21.6984 7.54077 21.6984C7.64368 21.6984 7.74658 21.6969 7.84949 21.694C7.95674 21.6926 8.06544 21.6897 8.17269 21.6897C8.39734 21.6897 8.69446 21.6969 8.99883 21.7549C9.76844 21.9013 10.2409 22.4752 10.2308 23.2535C10.2206 24.0608 9.65684 24.6522 8.82781 24.7261C8.53214 24.7522 8.23502 24.7667 7.94514 24.7667V24.7652Z" fill="black"/>
<path d="M15.6418 34.4513C15.2302 34.4513 14.8157 34.2744 14.4751 33.9556C14.0866 33.5903 13.7084 33.2077 13.3417 32.8381C13.1938 32.6888 13.0474 32.541 12.8982 32.3932C12.7721 32.2671 12.646 32.1424 12.5213 32.0178C12.1865 31.6859 11.8416 31.3438 11.5068 30.9974C10.8343 30.2988 10.814 29.4336 11.4575 28.793C11.7343 28.5161 12.0778 28.3697 12.4503 28.3697C12.8634 28.3697 13.2822 28.5582 13.6301 28.9002C13.7866 29.0553 13.9403 29.2089 14.0939 29.3683C14.0953 27.1929 14.0953 25.0188 14.0953 22.8433V21.1287C14.0953 20.9055 14.0953 20.6519 14.1852 20.3881C14.3983 19.7649 14.9809 19.3286 15.6012 19.3286C15.6302 19.3286 15.6577 19.3286 15.6867 19.3315C16.4201 19.3808 16.9839 19.9011 17.0868 20.6287C17.1216 20.8751 17.139 21.1403 17.1404 21.4186C17.1419 22.9854 17.1419 24.5536 17.1433 26.1203C17.1433 27.2045 17.1433 28.2886 17.1433 29.3727C17.3216 29.1785 17.4984 28.9901 17.6825 28.8089C17.9767 28.519 18.3362 28.3654 18.7203 28.3654C18.9101 28.3654 19.1029 28.4031 19.2942 28.4784C19.8348 28.69 20.1667 29.1307 20.2276 29.7191C20.2725 30.1539 20.129 30.5641 19.8232 30.8728L19.5855 31.1134C18.6347 32.0743 17.6506 33.0671 16.6651 34.0281C16.381 34.3049 16.0273 34.4513 15.6447 34.4513H15.6418Z" fill="#196861"/>
<path d="M23.7461 34.4253C23.7127 34.4253 23.6794 34.4253 23.6446 34.4224C22.9141 34.3803 22.375 33.8861 22.2692 33.16C22.2329 32.9136 22.2155 32.6542 22.2155 32.3686C22.2127 30.2047 22.2126 28.0408 22.2141 25.8769V24.4435C22.1967 24.4609 22.1808 24.4769 22.1634 24.4942C21.9677 24.6914 21.7648 24.8943 21.5387 25.0783C21.2662 25.3015 20.9517 25.4189 20.627 25.4189C20.2227 25.4189 19.827 25.2349 19.5139 24.9001C18.9719 24.3203 18.9748 23.4913 19.5212 22.9289C20.5662 21.855 21.659 20.7636 22.7692 19.6824C23.0272 19.4316 23.3605 19.2925 23.7055 19.2925C24.0504 19.2925 24.4229 19.4432 24.7099 19.7142C25.8158 20.7636 26.9231 21.8405 28 22.9173C28.5507 23.4681 28.5406 24.3551 27.9753 24.9363C27.684 25.2363 27.284 25.4073 26.8767 25.4073C26.51 25.4073 26.1578 25.2682 25.8853 25.0175C25.6621 24.8117 25.4563 24.5899 25.2578 24.3696V32.5788C25.2578 32.8165 25.2578 33.0846 25.1722 33.3614C24.965 34.0267 24.4316 34.4238 23.7446 34.4238L23.7461 34.4253Z" fill="#196861"/>
</svg>
