<svg width="38" height="34" viewBox="0 0 38 34" fill="none" xmlns="http://www.w3.org/2000/svg">
<path d="M7.4665 24.1814C3.69566 24.1814 0.811249 21.7984 0.118648 18.1122C-0.241904 16.1964 0.228381 14.1527 1.40552 12.5072C2.56556 10.8852 4.28993 9.83476 6.13402 9.6276C6.70406 9.56296 6.95346 9.39253 7.24418 8.86656C8.76904 6.10595 11.1632 4.66027 14.3569 4.56918C14.3968 4.56918 14.4367 4.56771 14.4766 4.56771C14.7687 4.56771 15.0794 4.59856 15.4001 4.6588C15.4172 4.66174 15.4286 4.66321 15.4357 4.66321C15.4471 4.65146 15.4685 4.62501 15.5069 4.56624C17.4693 1.53677 20.2312 0 23.7141 0C23.8011 0 23.8894 -2.73658e-09 23.9778 0.00293838C26.0727 0.0484833 28.1548 0.919713 29.8421 2.45502C31.5251 3.98591 32.6267 6.00605 32.9445 8.14372L32.9488 8.17604C33.03 8.72111 33.1141 9.28528 33.0956 9.86561C33.0956 9.89059 33.0956 9.90675 33.097 9.91556C33.1099 9.92438 33.1384 9.94054 33.1954 9.96111C35.7435 10.9087 37.3153 12.779 37.8654 15.5205C38.2531 17.454 37.7942 19.5123 36.6056 21.171C35.4043 22.8459 33.6058 23.914 31.6705 24.1006C31.2444 24.1417 30.8012 24.1623 30.3523 24.1623C30.1727 24.1623 29.9917 24.1594 29.8122 24.152C29.3376 24.1359 28.94 23.9625 28.6621 23.654C28.4013 23.3631 28.273 22.9781 28.2916 22.5433C28.3229 21.8263 28.7661 21.2871 29.4502 21.1372C29.7395 21.0741 30.0202 21.0652 30.2326 21.0652C30.3337 21.0652 30.4349 21.0667 30.5361 21.0697C30.6316 21.0711 30.7271 21.0741 30.8226 21.0741C30.8582 21.0741 30.8938 21.0741 30.9309 21.0741C32.9303 21.0359 34.5407 19.6607 34.9397 17.6523C35.3872 15.3971 33.9706 13.1845 31.7802 12.7188C31.7147 12.7056 31.6477 12.6938 31.5821 12.682C31.4767 12.6629 31.367 12.6439 31.2544 12.6159C30.4307 12.4117 29.9604 11.7139 30.0573 10.8397C30.4178 7.56486 28.7889 4.68819 25.9088 3.5099C25.1635 3.20577 24.3754 3.05004 23.5645 3.05004C21.1333 3.05004 18.846 4.4634 17.7372 6.65249C17.713 6.70098 17.6888 6.74946 17.666 6.79794C17.6418 6.8479 17.6175 6.89785 17.5933 6.9478C17.3653 7.39884 17.0076 7.91747 16.2566 7.91747C16.087 7.91747 15.9017 7.89102 15.6908 7.83813C15.192 7.71178 14.7032 7.64713 14.2386 7.64713C13.0173 7.64713 11.9356 8.07173 10.9295 8.94443C10.2782 9.51007 9.78799 10.2461 9.47447 11.1335C9.08257 12.2428 8.84172 12.6306 7.68596 12.6306C7.58905 12.6306 7.4836 12.6292 7.36816 12.6248H7.18575C5.10937 12.6248 3.4876 13.9691 3.05437 16.0494C2.81352 17.2086 3.1014 18.4413 3.8453 19.43C4.59206 20.4232 5.68226 21.0197 6.83802 21.0682C6.91498 21.0711 6.99194 21.0726 7.06889 21.0726C7.17007 21.0726 7.27126 21.0711 7.37244 21.0682C7.4779 21.0667 7.58478 21.0638 7.69024 21.0638C7.91113 21.0638 8.20328 21.0711 8.50255 21.1299C9.25928 21.2783 9.72386 21.8601 9.71389 22.649C9.70391 23.4674 9.14955 24.0668 8.33439 24.1417C8.04366 24.1682 7.75152 24.1829 7.4665 24.1829V24.1814Z" fill="black"/>
<path d="M15.0339 33.9999C14.6292 33.9999 14.2216 33.8207 13.8867 33.4975C13.5048 33.1272 13.1328 32.7394 12.7723 32.3647C12.6269 32.2134 12.483 32.0635 12.3362 31.9137C12.2122 31.7859 12.0882 31.6595 11.9656 31.5332C11.6364 31.1967 11.2973 30.85 10.9681 30.4989C10.3068 29.7907 10.2869 28.9136 10.9196 28.2642C11.1918 27.9836 11.5296 27.8352 11.8958 27.8352C12.302 27.8352 12.7138 28.0262 13.0558 28.3729C13.2098 28.5301 13.3608 28.6859 13.5119 28.8475C13.5133 26.6422 13.5133 24.4385 13.5133 22.2332V20.4951C13.5133 20.2689 13.5133 20.0118 13.6017 19.7444C13.8112 19.1126 14.384 18.6704 14.994 18.6704C15.0225 18.6704 15.0496 18.6704 15.0781 18.6733C15.7992 18.7233 16.3535 19.2507 16.4547 19.9883C16.4889 20.238 16.506 20.5069 16.5075 20.789C16.5089 22.3772 16.5089 23.9668 16.5103 25.555C16.5103 26.654 16.5103 27.7529 16.5103 28.8519C16.6856 28.655 16.8595 28.464 17.0404 28.2804C17.3297 27.9865 17.6832 27.8308 18.0608 27.8308C18.2475 27.8308 18.437 27.869 18.6252 27.9454C19.1567 28.1599 19.4831 28.6065 19.5429 29.203C19.5871 29.6438 19.446 30.0596 19.1453 30.3725L18.9116 30.6164C17.9767 31.5905 17.0091 32.5969 16.04 33.5709C15.7607 33.8516 15.413 33.9999 15.0367 33.9999H15.0339Z" fill="#ED1F24"/>
<path d="M23.0029 33.9735C22.9702 33.9735 22.9374 33.9735 22.9032 33.9705C22.1849 33.9279 21.6548 33.4269 21.5508 32.6909C21.5151 32.4411 21.498 32.1781 21.498 31.8887C21.4952 29.6952 21.4952 27.5017 21.4966 25.3082V23.8552C21.4795 23.8728 21.4638 23.889 21.4467 23.9066C21.2543 24.1064 21.0548 24.3121 20.8325 24.4987C20.5646 24.7249 20.2553 24.8439 19.9361 24.8439C19.5385 24.8439 19.1495 24.6573 18.8416 24.318C18.3087 23.7303 18.3115 22.8899 18.8488 22.3199C19.8763 21.2312 20.9508 20.1249 22.0424 19.0289C22.2961 18.7747 22.6239 18.6337 22.963 18.6337C23.3022 18.6337 23.6685 18.7865 23.9506 19.0612C25.038 20.1249 26.1268 21.2165 27.1856 22.3081C27.7272 22.8664 27.7172 23.7655 27.1614 24.3547C26.875 24.6588 26.4816 24.8322 26.0812 24.8322C25.7206 24.8322 25.3743 24.6911 25.1064 24.437C24.8869 24.2283 24.6846 24.0036 24.4893 23.7802V32.1017C24.4893 32.3427 24.4893 32.6145 24.4053 32.8951C24.2015 33.5695 23.677 33.972 23.0015 33.972L23.0029 33.9735Z" fill="#ED1F24"/>
</svg>
