<svg width="31" height="40" viewBox="0 0 31 40" fill="none" xmlns="http://www.w3.org/2000/svg">
<path d="M31 12.7193C31 10.361 29.8146 8.57375 28.4941 6.80023L23.0778 0L17.6849 6.76977L17.6615 6.80016C17.3053 7.27844 16.9593 7.75781 16.6434 8.24898L13.687 4.53734L4.47817 16.0973L4.45476 16.1277C2.10722 19.2805 0 22.4478 0 26.5221C0 33.936 6.11063 39.9709 13.6329 39.9997L13.6887 40C21.2348 40 27.3739 33.954 27.3739 26.5223C27.3739 24.1374 26.6512 22.0634 25.5815 20.121C28.7266 19.087 31 16.1598 31 12.7193ZM13.7402 37.653L13.687 37.6529C7.45415 37.6529 2.3834 32.6597 2.3834 26.5222C2.3834 23.1588 4.18573 20.4591 6.36539 17.5308L13.687 8.34008L15.4891 10.6023C15.2786 11.2612 15.1555 11.9605 15.1555 12.7192C15.1555 17.0037 18.6816 20.4926 23.0262 20.5202L23.0727 20.5205C24.2177 22.4036 24.9906 24.3209 24.9906 26.5224C24.9906 32.643 19.9486 37.6256 13.7402 37.653ZM23.1085 18.1734H23.0777C20.0236 18.1734 17.5388 15.7266 17.5388 12.7191C17.5388 11.0707 18.4193 9.75242 19.5721 8.2032L23.0778 3.80258L26.5834 8.2032C27.7363 9.75242 28.6167 11.0709 28.6167 12.7193C28.6166 15.717 26.1485 18.1577 23.1085 18.1734Z" fill="#2DB5A4"/>
</svg>
