<svg width="47" height="47" viewBox="0 0 47 47" fill="none" xmlns="http://www.w3.org/2000/svg">
<path fill-rule="evenodd" clip-rule="evenodd" d="M44.2148 5.23962e-05C45.5151 5.23962e-05 46.5694 1.05425 46.5694 2.35468V23.2847C46.5694 24.5851 45.5151 25.6393 44.2148 25.6393C42.9145 25.6393 41.8602 24.5851 41.8602 23.2847V8.03924L8.03919 41.8602H23.2847C24.5851 41.8602 25.6393 42.9146 25.6393 44.2149C25.6393 45.5151 24.5851 46.5695 23.2847 46.5695H2.35463C1.73013 46.5695 1.13122 46.3215 0.689646 45.8798C0.248074 45.4382 0 44.8391 0 44.2149V23.2847C0 21.9843 1.0542 20.9301 2.35463 20.9301C3.65507 20.9301 4.70926 21.9843 4.70926 23.2847V38.5303L38.5302 4.70932L23.2847 4.70926C21.9843 4.70926 20.9301 3.65507 20.9301 2.35463C20.9301 1.0542 21.9843 0 23.2847 0L44.2148 5.23962e-05Z" fill="#2DB5A4"/>
</svg>
