<svg width="56" height="64" viewBox="0 0 56 64" fill="none" xmlns="http://www.w3.org/2000/svg">
<path d="M52.0281 21.4044C51.7551 18.56 49.4342 16.3556 46.6355 16.3556H41.6524V15.0756C41.6524 6.75556 35.7818 0 28.1365 0H27.8635C20.2182 0 14.3476 6.75556 14.3476 15.0756V16.3556H9.36453C6.5658 16.3556 4.31316 18.56 3.97185 21.4044L0.0126688 60.8C-0.055593 61.5822 0.149192 62.4356 0.695287 63.0044C1.24138 63.6444 1.99226 64 2.74314 64H53.2569C54.0077 64 54.7586 63.6444 55.3047 63.0756C55.8508 62.5067 56.0556 61.6533 55.9873 60.8711L52.0281 21.4044ZM19.8086 15.0756C19.8086 9.88445 23.2899 5.68889 27.8635 5.68889H28.1365C32.7101 5.68889 36.1914 9.88445 36.1914 15.0756V16.3556H19.8086V15.0756ZM5.74666 58.3111L9.36453 22.0444H46.4989L50.1168 58.3111H5.74666Z" fill="#2DB5A4"/>
</svg>
