<svg width="36" height="36" viewBox="0 0 36 36" fill="none" xmlns="http://www.w3.org/2000/svg">
<path d="M11.9587 18.9371C11.7011 18.729 11.4314 18.5284 11.1798 18.3054C9.18446 16.536 7.97557 14.3414 7.65351 11.6843C7.09476 7.07965 9.57842 3.0064 13.3354 1.10676C19.5041 -2.01442 27.1244 1.7759 28.2508 8.59158C28.9369 12.7427 27.5318 16.1513 24.2377 18.7769C24.1763 18.8263 24.07 18.8877 24.073 18.9386C24.079 19.0673 24.2228 19.0643 24.3126 19.0973C26.991 20.1002 29.2994 21.6586 31.2318 23.7573C33.8114 26.5567 35.3573 29.85 35.8576 33.6268C35.9445 34.2885 35.9939 34.9501 35.9999 35.6178C36.0029 35.9112 35.8981 36.0025 35.6135 35.9965C34.9468 35.9815 34.2802 35.992 33.6136 35.992C33.1208 35.992 33.1058 35.992 33.0953 35.4801C33.0774 34.507 32.9605 33.5475 32.7328 32.6014C31.7097 28.344 29.2979 25.1031 25.5335 22.8801C23.4004 21.6197 21.0785 20.9909 18.5978 20.8817C11.1843 20.5523 4.59462 25.7737 3.15655 33.0729C2.99777 33.8753 2.91088 34.6882 2.90039 35.5085C2.8944 35.9905 2.87193 35.9935 2.39407 35.9935C1.72747 35.9935 1.05937 35.98 0.394262 35.9995C0.0796841 36.0085 -0.00570195 35.8947 0.000289998 35.5938C0.0527196 32.3754 0.912564 29.3859 2.59331 26.6465C4.76988 23.0972 7.8123 20.5733 11.7146 19.0943C11.7969 19.0628 11.9033 19.0614 11.9617 18.9401L11.9587 18.9371ZM17.9986 17.979C22.1705 17.9027 25.52 14.6917 25.535 10.4463C25.5485 6.25632 22.2499 2.89862 17.9986 2.89713C13.7668 2.89563 10.4473 6.25033 10.4607 10.4463C10.4742 14.6767 13.8192 17.9027 17.9971 17.979H17.9986Z" fill="black"/>
<path d="M17.9837 35.9906C17.0474 35.9906 16.1112 35.9801 15.1764 35.9966C14.8663 36.0011 14.7315 35.8529 14.8319 35.6014C15.0611 35.0221 14.7285 34.7077 14.363 34.3574C13.5631 33.5865 12.7796 32.7991 12.0052 32.0012C11.791 31.7811 11.6966 31.8141 11.5528 32.0611C10.9611 33.076 10.5686 34.1508 10.4967 35.3319C10.4697 35.772 10.2356 35.9921 9.79416 35.9921C9.20844 35.9921 8.62422 35.9921 8.03851 35.9921C7.58162 35.9921 7.56815 35.9891 7.58612 35.5175C7.67301 33.2721 8.41002 31.2512 9.82262 29.5132C12.149 26.651 15.1944 25.3292 18.869 25.5837C23.6356 25.913 27.6756 29.7438 28.3198 34.4652C28.3752 34.8694 28.4231 35.2765 28.4111 35.6867C28.4052 35.8798 28.3602 35.9951 28.1355 35.9936C27.3641 35.9876 26.5911 35.9861 25.8196 35.9936C25.5919 35.9966 25.547 35.8708 25.5335 35.6882C25.4781 34.8813 25.3523 34.0879 25.0527 33.329C24.8819 32.8919 24.6692 32.4772 24.4415 32.0685C24.3097 31.8305 24.2138 31.7691 23.9906 31.9982C23.0933 32.9188 22.1795 33.826 21.2628 34.7286C21.104 34.8843 21.05 35.025 21.101 35.2496C21.2702 35.9876 21.2598 35.9921 20.5063 35.9921C19.6644 35.9921 18.821 35.9921 17.9792 35.9921L17.9837 35.9906ZM18.0735 28.4264C16.5815 28.4459 15.2708 28.8082 14.0634 29.5417C13.8522 29.6704 13.8103 29.7557 14.0065 29.9488C14.9397 30.865 15.864 31.7916 16.7823 32.7227C16.9336 32.8769 17.0759 32.9083 17.2781 32.8574C17.75 32.7422 18.2293 32.7392 18.6997 32.8544C18.9154 32.9068 19.0637 32.8754 19.227 32.7107C20.1363 31.7856 21.0515 30.868 21.9788 29.9623C22.187 29.7587 22.1496 29.6719 21.9204 29.5327C20.71 28.8007 19.3977 28.4474 18.0735 28.4264Z" fill="#ED1F24"/>
</svg>
