<svg width="40" height="40" viewBox="0 0 40 40" fill="none" xmlns="http://www.w3.org/2000/svg">
<path d="M13.5929 20.8155C13.3099 20.5867 13.0138 20.3663 12.7373 20.1211C10.5456 18.1762 9.21771 15.7639 8.86393 12.8433C8.25018 7.78187 10.9783 3.30461 15.1051 1.21653C21.8811 -2.21422 30.2515 1.95205 31.4888 9.44377C32.2425 14.0066 30.699 17.7533 27.0807 20.6394C27.0132 20.6937 26.8964 20.7612 26.8997 20.8171C26.9063 20.9586 27.0642 20.9553 27.163 20.9915C30.105 22.094 32.6407 23.8069 34.7633 26.1138C37.5967 29.1908 39.2948 32.8108 39.8444 36.9622C39.9399 37.6895 39.9942 38.4168 40.0007 39.1507C40.004 39.4732 39.8889 39.5736 39.5762 39.567C38.844 39.5505 38.1118 39.562 37.3795 39.562C36.8382 39.562 36.8217 39.562 36.8102 38.9993C36.7905 37.9298 36.6621 36.875 36.412 35.8351C35.2882 31.1554 32.639 27.5931 28.504 25.1496C26.1609 23.7641 23.6104 23.073 20.8856 22.9529C12.7423 22.5909 5.50394 28.3302 3.92431 36.3534C3.74989 37.2354 3.65445 38.1289 3.64293 39.0306C3.63635 39.5604 3.61167 39.5637 3.08677 39.5637C2.35455 39.5637 1.62068 39.5489 0.890103 39.5703C0.544559 39.5801 0.450768 39.4551 0.45735 39.1244C0.51494 35.5866 1.45943 32.3007 3.30562 29.2895C5.69645 25.3882 9.03836 22.6139 13.3248 20.9882C13.4153 20.9537 13.5321 20.952 13.5962 20.8187L13.5929 20.8155ZM20.2274 19.7624C24.81 19.6785 28.4892 16.149 28.5056 11.4825C28.5205 6.87687 24.8972 3.18613 20.2274 3.18449C15.579 3.18284 11.9327 6.87029 11.9475 11.4825C11.9623 16.1325 15.6366 19.6785 20.2258 19.7624H20.2274Z" fill="#2DB5A4"/>
<path d="M20.2112 39.5604C19.1828 39.5604 18.1544 39.5489 17.1277 39.567C16.7871 39.572 16.639 39.4091 16.7492 39.1326C17.001 38.4958 16.6357 38.1503 16.2342 37.7653C15.3555 36.9179 14.495 36.0523 13.6443 35.1753C13.409 34.9334 13.3053 34.9696 13.1473 35.2411C12.4974 36.3568 12.0663 37.5382 11.9873 38.8364C11.9577 39.3202 11.7004 39.5621 11.2156 39.5621C10.5722 39.5621 9.93048 39.5621 9.28711 39.5621C8.78524 39.5621 8.77044 39.5588 8.79019 39.0405C8.88562 36.5723 9.69518 34.351 11.2468 32.4406C13.8022 29.2945 17.1474 27.8416 21.1837 28.1213C26.4195 28.4833 30.8573 32.694 31.5648 37.8837C31.6257 38.328 31.6784 38.7756 31.6652 39.2264C31.6586 39.4387 31.6093 39.5654 31.3624 39.5637C30.515 39.5572 29.666 39.5555 28.8186 39.5637C28.5685 39.567 28.5191 39.4288 28.5043 39.2281C28.4434 38.3412 28.3052 37.4691 27.9761 36.6348C27.7885 36.1544 27.5549 35.6986 27.3048 35.2494C27.16 34.9877 27.0546 34.9203 26.8095 35.172C25.8239 36.184 24.8201 37.1811 23.8131 38.1733C23.6387 38.3445 23.5795 38.4991 23.6354 38.7459C23.8213 39.5572 23.8098 39.5621 22.9822 39.5621C22.0574 39.5621 21.131 39.5621 20.2063 39.5621L20.2112 39.5604ZM20.31 31.246C18.6711 31.2674 17.2313 31.6656 15.9051 32.4719C15.6731 32.6134 15.627 32.7072 15.8426 32.9194C16.8677 33.9264 17.8829 34.945 18.8916 35.9684C19.0578 36.1379 19.2141 36.1725 19.4362 36.1165C19.9545 35.9898 20.4811 35.9865 20.9978 36.1132C21.2347 36.1708 21.3976 36.1363 21.577 35.9553C22.5757 34.9384 23.5811 33.9297 24.5996 32.9342C24.8284 32.7104 24.7872 32.615 24.5355 32.462C23.2059 31.6574 21.7645 31.269 20.31 31.246Z" fill="#2DB5A4"/>
</svg>
