<svg width="42" height="20" viewBox="0 0 42 20" fill="none" xmlns="http://www.w3.org/2000/svg">
<path d="M18.5161 18.575C17.5842 18.575 16.7905 18.2466 16.1349 17.5896C15.478 16.9341 15.1495 16.1403 15.1495 15.2084V4.79171C15.1495 3.85976 15.4773 3.06601 16.1328 2.41046C16.7898 1.7549 17.5842 1.42712 18.5161 1.42712H23.4828C24.4161 1.42712 25.2106 1.7549 25.8661 2.41046C26.5217 3.06601 26.8495 3.85976 26.8495 4.79171V15.2084C26.8495 16.1403 26.5217 16.9341 25.8661 17.5896C25.2106 18.2452 24.4161 18.573 23.4828 18.573L18.5161 18.575ZM6.97657 18.575H1.76823C1.4724 18.575 1.22518 18.475 1.02657 18.275C0.826567 18.0764 0.726567 17.8292 0.726567 17.5334C0.726567 17.2362 0.826567 16.9882 1.02657 16.7896C1.22657 16.591 1.47379 16.4917 1.76823 16.4917H6.97657C7.35157 16.4917 7.65921 16.3709 7.89948 16.1292C8.13976 15.8889 8.2599 15.582 8.2599 15.2084V12.325C8.2599 11.95 8.13976 11.6424 7.89948 11.4021C7.65921 11.1618 7.35157 11.0417 6.97657 11.0417H4.09323C3.16129 11.0417 2.36684 10.7139 1.7099 10.0584C1.05296 9.40282 0.725178 8.60837 0.726567 7.67504V4.79171C0.726567 3.85976 1.05434 3.06601 1.7099 2.41046C2.36684 1.7549 3.16129 1.42712 4.09323 1.42712H9.30157C9.5974 1.42712 9.84462 1.52643 10.0432 1.72504C10.2432 1.92365 10.3432 2.17157 10.3432 2.46879C10.3432 2.76462 10.2432 3.01185 10.0432 3.21046C9.84323 3.40907 9.59601 3.50907 9.30157 3.51046H4.09323C3.71823 3.51046 3.41059 3.63059 3.17032 3.87087C2.93004 4.11115 2.81059 4.4181 2.81198 4.79171V7.67712C2.81198 8.05073 2.93212 8.35768 3.1724 8.59796C3.41268 8.83823 3.71962 8.95837 4.09323 8.95837H6.97865C7.91198 8.95837 8.70643 9.28615 9.36198 9.94171C10.0175 10.5973 10.3453 11.3917 10.3453 12.325V15.2084C10.3453 16.1403 10.0175 16.9341 9.36198 17.5896C8.70504 18.2452 7.91059 18.573 6.97865 18.573M37.9099 18.573H32.7016C32.4043 18.573 32.1564 18.4736 31.9578 18.275C31.7578 18.0764 31.6578 17.8292 31.6578 17.5334C31.6578 17.2362 31.7578 16.9882 31.9578 16.7896C32.1578 16.591 32.405 16.4917 32.6995 16.4917H37.9078C38.2828 16.4917 38.5905 16.3709 38.8307 16.1292C39.071 15.8889 39.1912 15.582 39.1912 15.2084V12.325C39.1912 11.95 39.071 11.6424 38.8307 11.4021C38.5905 11.1618 38.2835 11.0417 37.9099 11.0417H35.0203C34.087 11.0417 33.2925 10.7139 32.637 10.0584C31.9814 9.40282 31.6543 8.60837 31.6557 7.67504V4.79171C31.6557 3.85976 31.9835 3.06601 32.6391 2.41046C33.2946 1.7549 34.0884 1.42712 35.0203 1.42712H40.2286C40.5245 1.42712 40.7717 1.52643 40.9703 1.72504C41.1703 1.92365 41.2703 2.17157 41.2703 2.46879C41.2703 2.76462 41.1703 3.01185 40.9703 3.21046C40.7703 3.40907 40.5231 3.50907 40.2286 3.51046H35.0203C34.6453 3.51046 34.3377 3.63059 34.0974 3.87087C33.8571 4.11115 33.737 4.4181 33.737 4.79171V7.67712C33.737 8.05073 33.8578 8.35768 34.0995 8.59796C34.3384 8.83823 34.6453 8.95837 35.0203 8.95837H37.9037C38.837 8.95837 39.6314 9.28615 40.287 9.94171C40.9425 10.5973 41.2703 11.3917 41.2703 12.325V15.2084C41.2703 16.1403 40.9425 16.9341 40.287 17.5896C39.63 18.2452 38.8356 18.573 37.9037 18.573M18.5141 16.4896H23.4807C23.8557 16.4896 24.1634 16.3695 24.4036 16.1292C24.6439 15.8889 24.7641 15.582 24.7641 15.2084V4.79171C24.7641 4.41671 24.6439 4.10976 24.4036 3.87087C24.1634 3.63059 23.8557 3.51046 23.4807 3.51046H18.5141C18.1391 3.51046 17.8321 3.63059 17.5932 3.87087C17.3516 4.11115 17.2307 4.4181 17.2307 4.79171V15.2084C17.2307 15.5834 17.3516 15.8903 17.5932 16.1292C17.8335 16.3695 18.1405 16.4896 18.5141 16.4896Z" fill="white"/>
<path d="M6.97657 18.575H1.76823C1.4724 18.575 1.22518 18.475 1.02657 18.275C0.826567 18.0764 0.726567 17.8292 0.726567 17.5334C0.726567 17.2362 0.826567 16.9882 1.02657 16.7896C1.22657 16.591 1.47379 16.4917 1.76823 16.4917H6.97657C7.35157 16.4917 7.65921 16.3709 7.89948 16.1292C8.13976 15.8889 8.2599 15.582 8.2599 15.2084V12.325C8.2599 11.95 8.13976 11.6424 7.89948 11.4021C7.65921 11.1618 7.35157 11.0417 6.97657 11.0417H4.09323C3.16129 11.0417 2.36684 10.7139 1.7099 10.0584C1.05296 9.40282 0.725178 8.60837 0.726567 7.67504V4.79171C0.726567 3.85976 1.05434 3.06601 1.7099 2.41046C2.36684 1.7549 3.16129 1.42712 4.09323 1.42712H9.30157C9.5974 1.42712 9.84462 1.52643 10.0432 1.72504C10.2432 1.92365 10.3432 2.17157 10.3432 2.46879C10.3432 2.76462 10.2432 3.01185 10.0432 3.21046C9.84323 3.40907 9.59601 3.50907 9.30157 3.51046H4.09323C3.71823 3.51046 3.41059 3.63059 3.17032 3.87087C2.93004 4.11115 2.81059 4.4181 2.81198 4.79171V7.67712C2.81198 8.05073 2.93212 8.35768 3.1724 8.59796C3.41268 8.83823 3.71962 8.95837 4.09323 8.95837H6.97865C7.91198 8.95837 8.70643 9.28615 9.36198 9.94171C10.0175 10.5973 10.3453 11.3917 10.3453 12.325V15.2084C10.3453 16.1403 10.0175 16.9341 9.36198 17.5896C8.70504 18.2452 7.91059 18.573 6.97865 18.573M37.9099 18.573H32.7016C32.4043 18.573 32.1564 18.4737 31.9578 18.275C31.7578 18.0764 31.6578 17.8292 31.6578 17.5334C31.6578 17.2362 31.7578 16.9882 31.9578 16.7896C32.1578 16.591 32.405 16.4917 32.6995 16.4917H37.9078C38.2828 16.4917 38.5905 16.3709 38.8307 16.1292C39.071 15.8889 39.1912 15.582 39.1912 15.2084V12.325C39.1912 11.95 39.071 11.6424 38.8307 11.4021C38.5905 11.1618 38.2835 11.0417 37.9099 11.0417H35.0203C34.087 11.0417 33.2925 10.7139 32.637 10.0584C31.9814 9.40282 31.6543 8.60837 31.6557 7.67504V4.79171C31.6557 3.85976 31.9835 3.06601 32.6391 2.41046C33.2946 1.7549 34.0884 1.42712 35.0203 1.42712H40.2286C40.5245 1.42712 40.7717 1.52643 40.9703 1.72504C41.1703 1.92365 41.2703 2.17157 41.2703 2.46879C41.2703 2.76462 41.1703 3.01185 40.9703 3.21046C40.7703 3.40907 40.5231 3.50907 40.2286 3.51046H35.0203C34.6453 3.51046 34.3377 3.63059 34.0974 3.87087C33.8571 4.11115 33.737 4.4181 33.737 4.79171V7.67712C33.737 8.05073 33.8578 8.35768 34.0995 8.59796C34.3384 8.83823 34.6453 8.95837 35.0203 8.95837H37.9037C38.837 8.95837 39.6314 9.28615 40.287 9.94171C40.9425 10.5973 41.2703 11.3917 41.2703 12.325V15.2084C41.2703 16.1403 40.9425 16.9341 40.287 17.5896C39.63 18.2452 38.8356 18.573 37.9037 18.573M18.5161 18.575C17.5842 18.575 16.7905 18.2466 16.1349 17.5896C15.478 16.9341 15.1495 16.1403 15.1495 15.2084V4.79171C15.1495 3.85976 15.4773 3.06601 16.1328 2.41046C16.7898 1.7549 17.5842 1.42712 18.5161 1.42712H23.4828C24.4161 1.42712 25.2106 1.7549 25.8661 2.41046C26.5217 3.06601 26.8495 3.85976 26.8495 4.79171V15.2084C26.8495 16.1403 26.5217 16.9341 25.8661 17.5896C25.2106 18.2452 24.4161 18.573 23.4828 18.573L18.5161 18.575ZM18.5141 16.4896H23.4807C23.8557 16.4896 24.1634 16.3695 24.4036 16.1292C24.6439 15.8889 24.7641 15.582 24.7641 15.2084V4.79171C24.7641 4.41671 24.6439 4.10976 24.4036 3.87087C24.1634 3.63059 23.8557 3.51046 23.4807 3.51046H18.5141C18.1391 3.51046 17.8321 3.63059 17.5932 3.87087C17.3516 4.11115 17.2307 4.4181 17.2307 4.79171V15.2084C17.2307 15.5834 17.3516 15.8903 17.5932 16.1292C17.8335 16.3695 18.1405 16.4896 18.5141 16.4896Z" stroke="white"/>
</svg>
