<svg width="42" height="46" viewBox="0 0 42 46" fill="none" xmlns="http://www.w3.org/2000/svg">
<path d="M21.0013 0.166626C32.5076 0.166626 41.8346 9.49371 41.8346 21C41.8346 32.5062 32.5076 41.8333 21.0013 41.8333C9.49505 41.8333 0.167969 32.5062 0.167969 21C0.167969 9.49371 9.49505 0.166626 21.0013 0.166626ZM21.0013 4.33329C16.581 4.33329 12.3418 6.08924 9.21619 9.21485C6.09058 12.3405 4.33464 16.5797 4.33464 21C4.33464 25.4202 6.09058 29.6595 9.21619 32.7851C12.3418 35.9107 16.581 37.6666 21.0013 37.6666C25.4216 37.6666 29.6608 35.9107 32.7864 32.7851C35.912 29.6595 37.668 25.4202 37.668 21C37.668 16.5797 35.912 12.3405 32.7864 9.21485C29.6608 6.08924 25.4216 4.33329 21.0013 4.33329ZM21.0013 8.49996C21.5116 8.50003 22.0041 8.68737 22.3854 9.02645C22.7667 9.36553 23.0104 9.83277 23.0701 10.3395L23.0846 10.5833V20.1375L28.7242 25.777C29.0979 26.152 29.3148 26.655 29.3309 27.1841C29.3471 27.7132 29.1613 28.2285 28.8112 28.6255C28.4611 29.0226 27.9731 29.2714 27.4461 29.3216C26.9192 29.3718 26.393 29.2196 25.9742 28.8958L25.7784 28.7229L19.5284 22.4729C19.2046 22.1488 18.9966 21.727 18.9367 21.2729L18.918 21V10.5833C18.918 10.0308 19.1375 9.50086 19.5282 9.11015C19.9189 8.71945 20.4488 8.49996 21.0013 8.49996Z" fill="white"/>
</svg>
