<svg width="38" height="36" viewBox="0 0 38 36" fill="none" xmlns="http://www.w3.org/2000/svg">
<path d="M18.9904 35.9861C14.6853 35.9861 10.3787 35.9471 6.07358 35.9996C3.25539 36.034 0.481679 33.9769 0.0562075 30.757C-0.108348 29.5059 0.0843759 28.2908 0.687744 27.1716C2.0872 24.5795 3.50148 21.9934 4.90984 19.4059C7.28773 15.0383 9.66415 10.6707 12.0435 6.30468C12.6558 5.18095 13.2428 4.04074 13.8937 2.93799C16.2063 -0.981572 21.8353 -0.984569 24.1139 2.96047C25.5874 5.51058 26.9498 8.12512 28.3597 10.7112C31.1616 15.8534 33.9605 20.9956 36.7609 26.1377C37.2605 27.0547 37.7497 27.9672 37.9231 29.028C38.445 32.2223 36.2524 35.3568 33.0843 35.9067C32.73 35.9681 32.3742 35.9861 32.017 35.9861C27.6748 35.9861 23.3326 35.9861 18.9889 35.9861H18.9904ZM19.0023 32.94C23.1354 32.94 27.2671 32.94 31.4002 32.94C31.7205 32.94 32.0392 32.9251 32.3594 32.8876C34.4126 32.6494 35.5749 30.4184 34.5935 28.5665C33.9293 27.3139 33.2444 26.0733 32.5669 24.8282C29.9103 19.9482 27.2537 15.0668 24.5957 10.1868C23.5728 8.30941 22.5617 6.42455 21.518 4.55916C20.9102 3.46989 19.7835 2.95298 18.5783 3.12678C17.4753 3.2856 16.7845 3.95834 16.2715 4.91276C14.7164 7.80299 13.1406 10.6812 11.5721 13.564C8.85026 18.5653 6.12251 23.5622 3.40957 28.568C2.48302 30.2761 3.44367 32.4066 5.31604 32.8382C5.6748 32.9206 6.0469 32.9415 6.419 32.9415C10.6129 32.9385 14.8083 32.94 19.0023 32.94Z" fill="black"/>
<path d="M20.5085 16.5471C20.5085 18.0049 20.5115 19.4628 20.5085 20.9221C20.507 21.8586 19.8889 22.5148 19.0157 22.5193C18.1188 22.5238 17.4947 21.8706 17.4947 20.9146C17.4917 17.9735 17.4917 15.0323 17.4947 12.0911C17.4947 11.1457 18.1025 10.5029 18.986 10.4984C19.8963 10.4939 20.5056 11.1307 20.5071 12.0986C20.51 13.5819 20.5071 15.0653 20.5071 16.5471H20.5085Z" fill="#ED1F24"/>
<path d="M18.9979 28.5036C18.1529 28.5036 17.4991 27.8458 17.4947 26.9933C17.4902 26.1048 18.1292 25.4575 19.0053 25.459C19.88 25.459 20.5145 26.1108 20.5085 27.0008C20.5026 27.8503 19.8459 28.5036 18.9979 28.5036Z" fill="#ED1F24"/>
</svg>
