<svg width="38" height="36" viewBox="0 0 38 36" fill="none" xmlns="http://www.w3.org/2000/svg">
<path d="M18.9904 35.606C14.6853 35.606 10.3787 35.5674 6.07358 35.6193C3.25539 35.6534 0.481679 33.618 0.0562075 30.4321C-0.108348 29.1943 0.0843759 27.992 0.687744 26.8846C2.0872 24.3199 3.50148 21.7611 4.90984 19.2009C7.28773 14.8794 9.66415 10.558 12.0435 6.23809C12.6558 5.12623 13.2428 3.99806 13.8937 2.90696C16.2063 -0.971204 21.8353 -0.974169 24.1139 2.9292C25.5874 5.45237 26.9498 8.0393 28.3597 10.5981C31.1616 15.6859 33.9605 20.7738 36.7609 25.8616C37.2605 26.7689 37.7497 27.6717 37.9231 28.7213C38.445 31.882 36.2524 34.9833 33.0843 35.5274C32.73 35.5882 32.3742 35.606 32.017 35.606C27.6748 35.606 23.3326 35.606 18.9889 35.606H18.9904ZM19.0023 32.5921C23.1354 32.5921 27.2671 32.5921 31.4002 32.5921C31.7204 32.5921 32.0392 32.5773 32.3594 32.5402C34.4126 32.3045 35.5749 30.0971 34.5935 28.2647C33.9293 27.0254 33.2444 25.7979 32.5669 24.566C29.9103 19.7375 27.2537 14.9076 24.5957 10.0792C23.5728 8.22164 22.5617 6.35668 21.518 4.511C20.9102 3.43324 19.7835 2.92178 18.5783 3.09375C17.4753 3.25089 16.7845 3.91653 16.2715 4.86086C14.7164 7.72056 13.1406 10.5684 11.5721 13.4207C8.85026 18.3692 6.12251 23.3133 3.40957 28.2662C2.48302 29.9562 3.44367 32.0643 5.31604 32.4913C5.6748 32.5728 6.0469 32.5936 6.419 32.5936C10.6129 32.5906 14.8083 32.5921 19.0023 32.5921Z" fill="black"/>
<path d="M20.5083 16.3722C20.5083 17.8147 20.5113 19.2571 20.5083 20.7011C20.5068 21.6276 19.8886 22.2769 19.0154 22.2814C18.1185 22.2858 17.4944 21.6395 17.4944 20.6937C17.4914 17.7836 17.4914 14.8735 17.4944 11.9633C17.4944 11.0279 18.1022 10.3919 18.9858 10.3875C19.896 10.383 20.5053 11.0131 20.5068 11.9708C20.5098 13.4384 20.5068 14.9061 20.5068 16.3722H20.5083Z" fill="#196861"/>
<path d="M18.9994 28.2026C18.1543 28.2026 17.5006 27.5518 17.4961 26.7082C17.4917 25.8291 18.1306 25.1887 19.0068 25.1902C19.8814 25.1902 20.5159 25.8351 20.51 26.7157C20.5041 27.5562 19.8473 28.2026 18.9994 28.2026Z" fill="#196861"/>
</svg>
