<svg width="43" height="43" viewBox="0 0 43 43" fill="none" xmlns="http://www.w3.org/2000/svg">
<path fill-rule="evenodd" clip-rule="evenodd" d="M34.5143 39.0674C36.0271 39.0674 37.2535 37.701 37.2535 36.0153V31.132C37.2535 30.1205 37.9893 29.3008 38.8969 29.3008C39.8047 29.3008 40.5405 30.1205 40.5405 31.132V36.0153C40.5405 39.7238 37.8425 42.7301 34.5143 42.7301H30.1319C29.2241 42.7301 28.4883 41.9102 28.4883 40.8989C28.4883 39.8874 29.2241 39.0674 30.1319 39.0674H34.5143Z" fill="black"/>
<path fill-rule="evenodd" clip-rule="evenodd" d="M34.5143 3.66258C36.0271 3.66258 37.2535 5.02906 37.2535 6.71471V11.5981C37.2535 12.6095 37.9893 13.4294 38.8969 13.4294C39.8047 13.4294 40.5405 12.6095 40.5405 11.5981V6.71471C40.5405 3.00627 37.8425 0 34.5143 0H30.1319C29.2241 0 28.4883 0.819894 28.4883 1.83129C28.4883 2.84268 29.2241 3.66258 30.1319 3.66258H34.5143Z" fill="black"/>
<path fill-rule="evenodd" clip-rule="evenodd" d="M8.21743 39.0674C6.70468 39.0674 5.47833 37.701 5.47833 36.0153V31.132C5.47833 30.1205 4.74254 29.3008 3.83487 29.3008C2.92722 29.3008 2.19141 30.1205 2.19141 31.132V36.0153C2.19141 39.7238 4.88936 42.7301 8.21743 42.7301H12.6C13.5077 42.7301 14.2435 41.9102 14.2435 40.8989C14.2435 39.8874 13.5077 39.0674 12.6 39.0674H8.21743Z" fill="black"/>
<path fill-rule="evenodd" clip-rule="evenodd" d="M8.21743 3.66258C6.70468 3.66258 5.47833 5.02906 5.47833 6.71471V11.5982C5.47833 12.6095 4.74254 13.4294 3.83487 13.4294C2.92722 13.4294 2.19141 12.6095 2.19141 11.5982V6.71471C2.19141 3.00629 4.88936 0 8.21743 0H12.6C13.5077 0 14.2435 0.819894 14.2435 1.83129C14.2435 2.84268 13.5077 3.66258 12.6 3.66258H8.21743Z" fill="black"/>
<path fill-rule="evenodd" clip-rule="evenodd" d="M42.73 21.3654C42.73 22.3767 41.9942 23.1966 41.0866 23.1966H1.64346C0.73581 23.1966 0 22.3767 0 21.3654C0 20.3541 0.73581 19.5342 1.64346 19.5342H41.0866C41.9942 19.5342 42.73 20.3541 42.73 21.3654Z" fill="#196861"/>
</svg>
