<svg width="31" height="37" viewBox="0 0 31 37" fill="none" xmlns="http://www.w3.org/2000/svg">
<path d="M2.86221 18.2973C2.86221 22.4296 2.86067 26.5635 2.86221 30.6958C2.86221 32.1725 3.64609 33.248 4.99318 33.6338C5.29253 33.7187 5.60115 33.7403 5.91285 33.7403C10.4032 33.7403 14.8935 33.7403 19.3838 33.7403C21.1537 33.7403 22.314 32.6524 22.4437 30.8856C22.5085 30.0091 23.138 29.4135 23.9512 29.4583C24.7521 29.5015 25.3153 30.1465 25.2999 31.006C25.249 34.1137 22.6998 36.5903 19.5149 36.5996C15.7159 36.6119 11.9169 36.6088 8.11633 36.5996C7.04545 36.5965 5.97302 36.6752 4.90522 36.5363C2.2635 36.1907 0.141791 33.8869 0.0121742 31.2266C0.00445886 31.0847 0.00137161 30.9412 0.00137161 30.7977C0.00137161 22.4728 -0.00171451 14.1465 0.00137161 5.82166C0.00291467 3.2787 1.4966 1.16162 3.85595 0.323734C4.38676 0.135481 4.93609 0.0182081 5.49776 0.0166651C10.2612 0.0120359 15.0262 -0.0234545 19.7896 0.0259234C22.7924 0.0567847 25.2428 2.59821 25.2983 5.59483C25.3138 6.46975 24.7382 7.12401 23.9219 7.15178C23.1195 7.17956 22.5054 6.59011 22.4406 5.73216C22.3079 3.94376 21.1521 2.86824 19.3529 2.86824C14.8873 2.86824 10.4201 2.86824 5.9545 2.86824C4.05654 2.86824 2.85912 4.07029 2.85912 5.97288C2.85912 10.0821 2.85912 14.1912 2.85912 18.3004L2.86221 18.2973Z" fill="black"/>
<path d="M17.5826 18.3807C17.6721 18.0798 17.5008 17.927 17.2709 17.7819C16.9484 17.5798 16.6382 17.3591 16.3296 17.1354C15.6553 16.6463 15.481 15.9689 15.8359 15.2205C16.0087 14.8548 16.1908 14.4937 16.379 14.1357C16.7586 13.412 17.3835 13.1404 18.1705 13.358C18.5594 13.466 18.9467 13.5848 19.334 13.699C19.4142 13.7222 19.4929 13.7499 19.5731 13.77C19.8818 13.8471 20.9604 13.1281 21.0036 12.8133C21.0591 12.4121 21.11 12.0109 21.164 11.6112C21.2813 10.7302 21.8384 10.2379 22.7333 10.2287C23.1376 10.2256 23.5435 10.2194 23.9477 10.2318C24.6915 10.2534 25.23 10.7116 25.3735 11.4415C25.4661 11.9075 25.551 12.3766 25.625 12.8457C25.6544 13.0278 25.7238 13.1512 25.9028 13.216C26.0015 13.2515 26.1096 13.2978 26.1836 13.3688C26.5879 13.7638 27.0076 13.7067 27.4705 13.4737C27.7545 13.3302 28.0677 13.2407 28.3732 13.1404C29.0753 12.9105 29.7219 13.1404 30.0999 13.7654C30.3391 14.1619 30.5659 14.5678 30.7742 14.9813C31.1137 15.6525 30.9656 16.3253 30.3792 16.8052C30.0027 17.1153 29.6108 17.407 29.2296 17.711C28.9256 17.9532 28.9334 18.4455 29.2435 18.6723C29.6077 18.9392 29.9796 19.1969 30.3422 19.467C31.0103 19.9654 31.1739 20.632 30.8113 21.3881C30.6477 21.7306 30.4764 22.0717 30.299 22.408C29.9255 23.1132 29.3052 23.3802 28.5353 23.1749C28.4427 23.1503 28.3532 23.1225 28.2606 23.0947C27.3666 22.8324 26.5375 22.9543 25.7732 23.4604C25.6466 23.5437 25.6127 23.6533 25.5926 23.786C25.5232 24.2443 25.4553 24.7041 25.3735 25.1593C25.2439 25.8892 24.6992 26.3614 23.9616 26.3783C23.5218 26.3891 23.0805 26.3891 22.6407 26.3783C21.9803 26.3598 21.4526 25.9478 21.2983 25.3028C21.1795 24.806 21.0961 24.3014 21.0175 23.7953C20.9866 23.5962 20.9064 23.4681 20.7227 23.3925C20.6132 23.3478 20.4897 23.3061 20.4095 23.2259C20.0206 22.8432 19.6102 22.8802 19.1504 23.0916C18.8171 23.2444 18.4606 23.3509 18.1057 23.4496C17.4854 23.6224 16.8867 23.4095 16.5488 22.8741C16.2756 22.442 16.0272 21.993 15.8081 21.5331C15.5303 20.9529 15.6785 20.3141 16.1769 19.8821C16.5364 19.5704 16.9129 19.2772 17.2987 18.9979C17.5209 18.8374 17.6752 18.6738 17.5826 18.3822V18.3807ZM26.1682 18.3112C26.1759 16.7527 24.9091 15.4704 23.3459 15.4504C21.789 15.4303 20.4681 16.7296 20.4558 18.2912C20.4434 19.8589 21.7304 21.1535 23.3074 21.1628C24.8875 21.1705 26.1605 19.9021 26.1682 18.3128V18.3112Z" fill="#196861"/>
<path d="M12.6305 7.94191C12.1537 7.94191 11.6768 7.95271 11.2016 7.93882C10.4316 7.91722 9.83906 7.34012 9.79894 6.59173C9.75882 5.83255 10.3066 5.1428 11.0874 5.10731C12.1336 5.05947 13.1844 5.05793 14.2291 5.10885C15.0083 5.14743 15.553 5.84335 15.5067 6.60253C15.462 7.34938 14.8679 7.92031 14.0933 7.93882C13.6057 7.95117 13.1165 7.94037 12.6289 7.94037L12.6305 7.94191Z" fill="black"/>
<path d="M12.6341 31.5275C11.8456 31.5198 11.2114 30.8655 11.2268 30.0755C11.2423 29.3055 11.8873 28.6729 12.6557 28.6729C13.438 28.6729 14.0877 29.3302 14.0815 30.1141C14.0753 30.9026 13.4272 31.5352 12.6341 31.5275Z" fill="black"/>
</svg>
