<svg width="30" height="36" viewBox="0 0 30 36" fill="none" xmlns="http://www.w3.org/2000/svg">
<path d="M2.76988 17.988C2.76988 22.0505 2.76839 26.1145 2.76988 30.1769C2.76988 31.6287 3.52847 32.686 4.83211 33.0653C5.12181 33.1487 5.42047 33.1699 5.72211 33.1699C10.0676 33.1699 14.413 33.1699 18.7585 33.1699C20.4713 33.1699 21.5942 32.1005 21.7197 30.3635C21.7824 29.5019 22.3917 28.9163 23.1786 28.9603C23.9536 29.0028 24.4987 29.6369 24.4837 30.4818C24.4345 33.537 21.9676 35.9718 18.8854 35.9809C15.2089 35.993 11.5325 35.99 7.85452 35.9809C6.81818 35.9779 5.78035 36.0552 4.74699 35.9187C2.19049 35.5789 0.137217 33.314 0.0117815 30.6988C0.00431503 30.5592 0.00132736 30.4181 0.00132736 30.277C0.00132736 22.093 -0.00165921 13.9073 0.00132736 5.72325C0.00282065 3.22327 1.44833 1.14198 3.73156 0.318262C4.24525 0.133191 4.77686 0.0179003 5.32042 0.0163833C9.93019 0.0118324 14.5415 -0.0230581 19.1512 0.0254852C22.0572 0.0558248 24.4285 2.55429 24.4823 5.50026C24.4972 6.36038 23.9402 7.00358 23.1502 7.03089C22.3737 7.05819 21.7794 6.47871 21.7167 5.63527C21.5883 3.87709 20.4698 2.81976 18.7286 2.81976C14.4071 2.81976 10.084 2.81976 5.76242 2.81976C3.92568 2.81976 2.76689 4.00148 2.76689 5.87192C2.76689 9.91163 2.76689 13.9513 2.76689 17.991L2.76988 17.988Z" fill="black"/>
<path d="M17.0158 18.0699C17.1024 17.7741 16.9367 17.6239 16.7142 17.4813C16.4021 17.2826 16.1019 17.0657 15.8033 16.8457C15.1507 16.3648 14.982 15.6989 15.3254 14.9632C15.4927 14.6036 15.6689 14.2487 15.8511 13.8967C16.2184 13.1853 16.8232 12.9183 17.5848 13.1322C17.9611 13.2384 18.3359 13.3552 18.7107 13.4674C18.7884 13.4902 18.8645 13.5175 18.9422 13.5372C19.2408 13.6131 20.2846 12.9061 20.3264 12.5967C20.3802 12.2023 20.4295 11.8078 20.4817 11.415C20.5952 10.5488 21.1343 10.0648 22.0004 10.0557C22.3917 10.0527 22.7844 10.0466 23.1756 10.0588C23.8954 10.08 24.4165 10.5306 24.5554 11.2481C24.645 11.7062 24.7271 12.1674 24.7988 12.6285C24.8272 12.8075 24.8944 12.9289 25.0676 12.9926C25.1632 13.0275 25.2677 13.073 25.3394 13.1428C25.7306 13.5311 26.1368 13.475 26.5848 13.2459C26.8596 13.1049 27.1627 13.0169 27.4584 12.9183C28.1378 12.6922 28.7635 12.9183 29.1294 13.5327C29.3608 13.9225 29.5803 14.3215 29.7819 14.728C30.1104 15.3879 29.9671 16.0493 29.3996 16.5211C29.0353 16.826 28.656 17.1127 28.2871 17.4116C27.993 17.6497 28.0004 18.1336 28.3006 18.3566C28.653 18.6191 29.0129 18.8724 29.3638 19.1379C30.0104 19.6279 30.1687 20.2832 29.8178 21.0265C29.6595 21.3633 29.4937 21.6985 29.322 22.0292C28.9606 22.7225 28.3603 22.9849 27.6152 22.7832C27.5256 22.7589 27.4389 22.7316 27.3494 22.7043C26.4842 22.4464 25.6819 22.5663 24.9422 23.0638C24.8197 23.1457 24.7869 23.2534 24.7675 23.3839C24.7003 23.8344 24.6346 24.2865 24.5554 24.734C24.43 25.4515 23.9029 25.9157 23.1891 25.9324C22.7635 25.943 22.3364 25.943 21.9108 25.9324C21.2717 25.9142 20.761 25.5092 20.6117 24.8751C20.4967 24.3866 20.416 23.8906 20.3399 23.393C20.31 23.1973 20.2324 23.0714 20.0547 22.9971C19.9486 22.9531 19.8292 22.9121 19.7515 22.8332C19.3752 22.457 18.978 22.4934 18.533 22.7013C18.2105 22.8514 17.8655 22.9561 17.522 23.0532C16.9217 23.2231 16.3424 23.0138 16.0153 22.4874C15.751 22.0626 15.5106 21.6212 15.2985 21.1691C15.0297 20.5987 15.1731 19.9707 15.6554 19.5459C16.0034 19.2395 16.3677 18.9513 16.7411 18.6767C16.9561 18.519 17.1054 18.3582 17.0158 18.0714V18.0699ZM25.3245 18.0017C25.3319 16.4695 24.1059 15.2089 22.5932 15.1892C21.0865 15.1695 19.8083 16.4468 19.7963 17.9819C19.7844 19.5232 21.0298 20.7959 22.5559 20.805C24.085 20.8126 25.317 19.5657 25.3245 18.0032V18.0017Z" fill="#ED1F24"/>
<path d="M12.2224 7.80757C11.761 7.80757 11.2995 7.81818 10.8396 7.80453C10.0945 7.78329 9.52105 7.21594 9.48223 6.48021C9.4434 5.73386 9.97351 5.05577 10.7291 5.02088C11.7416 4.97385 12.7585 4.97234 13.7694 5.0224C14.5236 5.06032 15.0507 5.74448 15.0059 6.49083C14.9626 7.22505 14.3877 7.78633 13.638 7.80453C13.1662 7.81667 12.6928 7.80605 12.2209 7.80605L12.2224 7.80757Z" fill="black"/>
<path d="M12.2254 30.9945C11.4624 30.9869 10.8486 30.3437 10.8635 29.567C10.8785 28.8101 11.5027 28.1881 12.2463 28.1881C13.0034 28.1881 13.6321 28.8343 13.6261 29.605C13.6202 30.3801 12.993 31.0021 12.2254 30.9945Z" fill="black"/>
</svg>
