<svg width="42" height="37" viewBox="0 0 42 37" fill="none" xmlns="http://www.w3.org/2000/svg">
<path d="M21.0013 3.375C17.5003 3.37492 14.0777 4.41264 11.1663 6.35702C8.25477 8.30139 5.98497 11.0652 4.64368 14.2991C3.30239 17.533 2.94982 21.092 3.6305 24.5262C4.31119 27.9605 5.99459 31.1159 8.46799 33.5937C8.75247 33.8886 8.90978 34.2833 8.90603 34.693C8.90227 35.1027 8.73776 35.4945 8.44792 35.7841C8.15809 36.0737 7.76611 36.2378 7.35643 36.2412C6.94674 36.2445 6.55212 36.0868 6.25757 35.8021C4.32398 33.8701 2.79075 31.5754 1.74577 29.0497C0.700792 26.5239 0.164617 23.8167 0.167985 21.0833C0.167985 9.57708 9.49507 0.25 21.0013 0.25C32.5076 0.25 41.8346 9.57708 41.8346 21.0833C41.838 23.8167 41.3018 26.5239 40.2569 29.0497C39.2119 31.5754 37.6786 33.8701 35.7451 35.8021C35.4505 36.0868 35.0559 36.2445 34.6462 36.2412C34.2365 36.2378 33.8445 36.0737 33.5547 35.7841C33.2649 35.4945 33.1004 35.1027 33.0966 34.693C33.0929 34.2833 33.2502 33.8886 33.5347 33.5937C36.008 31.1159 37.6914 27.9605 38.3721 24.5262C39.0528 21.092 38.7002 17.533 37.359 14.2991C36.0177 11.0652 33.7479 8.30139 30.8364 6.35702C27.9249 4.41264 24.5024 3.37492 21.0013 3.375ZM21.0013 10.6667C18.9407 10.6667 16.9265 11.2779 15.2133 12.4228C13.5001 13.5678 12.165 15.1952 11.3769 17.0991C10.5887 19.003 10.3829 21.0979 10.7856 23.1187C11.1882 25.1396 12.1812 26.9956 13.6388 28.4521C13.9236 28.7466 14.0813 29.1413 14.0779 29.5509C14.0745 29.9606 13.9104 30.3526 13.6208 30.6424C13.3313 30.9323 12.9394 31.0968 12.5298 31.1005C12.1201 31.1043 11.7253 30.947 11.4305 30.6625C9.53536 28.7692 8.24435 26.3563 7.7208 23.7291C7.19724 21.1019 7.46466 18.3785 8.48921 15.9033C9.51377 13.4282 11.2494 11.3125 13.4766 9.82394C15.7038 8.33539 18.3225 7.54086 21.0013 7.54086C23.6802 7.54086 26.2988 8.33539 28.526 9.82394C30.7532 11.3125 32.4889 13.4282 33.5134 15.9033C34.538 18.3785 34.8054 21.1019 34.2818 23.7291C33.7583 26.3563 32.4673 28.7692 30.5721 30.6625C30.276 30.9385 29.8842 31.0888 29.4794 31.0816C29.0746 31.0745 28.6884 30.9105 28.4021 30.6242C28.1158 30.3379 27.9518 29.9517 27.9447 29.5469C27.9376 29.1421 28.0878 28.7504 28.3638 28.4542C29.8222 26.9978 30.8158 25.1416 31.2188 23.1204C31.6219 21.0992 31.4163 19.0038 30.628 17.0995C29.8398 15.1952 28.5044 13.5675 26.7908 12.4224C25.0771 11.2773 23.0623 10.6663 21.0013 10.6667ZM21.0013 15.875C19.62 15.875 18.2952 16.4237 17.3185 17.4005C16.3417 18.3772 15.793 19.702 15.793 21.0833C15.793 22.4647 16.3417 23.7894 17.3185 24.7662C18.2952 25.7429 19.62 26.2917 21.0013 26.2917C22.3827 26.2917 23.7074 25.7429 24.6842 24.7662C25.6609 23.7894 26.2097 22.4647 26.2097 21.0833C26.2097 19.702 25.6609 18.3772 24.6842 17.4005C23.7074 16.4237 22.3827 15.875 21.0013 15.875ZM18.918 21.0833C18.918 20.5308 19.1375 20.0009 19.5282 19.6102C19.9189 19.2195 20.4488 19 21.0013 19C21.5539 19 22.0838 19.2195 22.4745 19.6102C22.8652 20.0009 23.0847 20.5308 23.0847 21.0833C23.0847 21.6359 22.8652 22.1658 22.4745 22.5565C22.0838 22.9472 21.5539 23.1667 21.0013 23.1667C20.4488 23.1667 19.9189 22.9472 19.5282 22.5565C19.1375 22.1658 18.918 21.6359 18.918 21.0833Z" fill="white"/>
</svg>
