<svg width="72" height="50" viewBox="0 0 72 50" fill="none" xmlns="http://www.w3.org/2000/svg">
<path d="M69.5559 22.2841L64.6531 20.1816L60.4897 12.1535C59.3645 9.95539 57.0819 8.58553 54.5903 8.60146H47.4209V6.59445C47.4209 2.96272 44.4953 0 40.8303 0H6.55892C2.89388 0 0.000427715 2.97865 0.000427715 6.59445V37.3367C-0.0317218 39.5508 1.75258 41.3666 3.98696 41.3985C4.00304 41.3985 4.01911 41.3985 4.05126 41.3985H4.90323C4.90323 41.5578 4.88715 41.6215 4.88715 41.7171C4.87108 46.2726 8.58434 49.984 13.1817 49.9999C17.7791 50.0159 21.5245 46.3364 21.5406 41.7808C21.5406 41.7489 21.5406 41.733 21.5406 41.7011C21.5406 41.5896 21.5406 41.5418 21.5245 41.3826H49.2213C49.2213 41.5418 49.2213 41.6056 49.2213 41.7011C49.2052 46.2567 52.9185 49.9681 57.5159 49.984C62.1133 49.9999 65.8587 46.3204 65.8747 41.7649C65.8747 41.733 65.8747 41.7171 65.8747 41.6852C65.8747 41.5737 65.8747 41.5259 65.8747 41.3666H67.9484C70.1828 41.3666 71.9992 39.5667 71.9992 37.3526C71.9992 37.3367 71.9992 37.3208 71.9992 37.2889V25.9796C72.0314 24.4186 71.0669 22.9372 69.5559 22.2841ZM13.2299 46.8302C10.4008 46.8302 8.11817 44.5683 8.11817 41.7649C8.11817 38.9614 10.4008 36.6995 13.2299 36.6995C16.0591 36.6995 18.3417 38.9614 18.3417 41.7649C18.3417 44.5524 16.043 46.8302 13.2299 46.8302ZM44.206 38.2446H20.769C19.4187 35.3297 16.461 33.466 13.2299 33.482C9.98285 33.466 7.04117 35.3138 5.69089 38.2446H4.05126C3.55295 38.2446 3.21538 37.8623 3.21538 37.3685V29.1653H44.206V38.2446ZM44.206 6.61038V25.9796H3.21538V6.61038C3.21538 4.74673 4.67818 3.20165 6.55892 3.20165H40.8303C42.711 3.21758 44.2221 4.74673 44.206 6.59445V6.61038ZM47.4209 11.8031H54.5903C55.8602 11.7872 57.0497 12.4721 57.6445 13.603L60.8594 19.7674H47.4209V11.8031ZM57.5641 46.8302C54.7349 46.8302 52.4523 44.5683 52.4523 41.7649C52.4523 38.9614 54.7349 36.6995 57.5641 36.6995C60.3933 36.6995 62.6759 38.9614 62.6759 41.7649C62.6759 44.5524 60.3933 46.8302 57.5641 46.8302ZM68.8003 37.3685C68.8003 37.8623 68.4628 38.2446 67.9645 38.2446H65.1031C63.1581 34.1191 58.2071 32.3351 54.0437 34.2625C52.2755 35.0748 50.8449 36.4925 50.025 38.2446H47.4209V22.9531H63.1742L68.286 25.1832C68.6075 25.3424 68.8164 25.6929 68.8003 26.0433V37.3685Z" fill="#2DB5A4"/>
</svg>
