<svg width="43" height="43" viewBox="0 0 43 43" fill="none" xmlns="http://www.w3.org/2000/svg">
<path d="M21.365 42.73C17.1394 42.73 13.0087 41.477 9.49525 39.1293C5.98179 36.7817 3.24339 33.445 1.62632 29.541C0.00925715 25.6371 -0.413841 21.3413 0.410532 17.1969C1.23491 13.0525 3.26972 9.24562 6.25767 6.25767C9.24562 3.26972 13.0525 1.23491 17.1969 0.410532C21.3413 -0.413841 25.6371 0.00925715 29.541 1.62632C33.445 3.24339 36.7817 5.98179 39.1293 9.49525C41.477 13.0087 42.73 17.1394 42.73 21.365C42.73 27.0314 40.479 32.4656 36.4723 36.4723C32.4656 40.479 27.0314 42.73 21.365 42.73ZM21.365 3.56084C17.8437 3.56084 14.4014 4.60504 11.4735 6.56138C8.54566 8.51773 6.26366 11.2984 4.9161 14.5516C3.56855 17.8049 3.21597 21.3848 3.90294 24.8384C4.58992 28.2921 6.2856 31.4645 8.77556 33.9544C11.2655 36.4444 14.4379 38.1401 17.8916 38.8271C21.3453 39.514 24.9251 39.1615 28.1784 37.8139C31.4316 36.4664 34.2123 34.1843 36.1686 31.2565C38.125 28.3286 39.1692 24.8863 39.1692 21.365C39.1692 16.643 37.2934 12.1145 33.9544 8.77556C30.6155 5.43663 26.087 3.56084 21.365 3.56084Z" fill="#111224"/>
<path d="M30.2684 31.1574C29.8272 31.1563 29.4021 30.9913 29.0756 30.6945L20.1735 22.6826C19.989 22.5162 19.8415 22.3129 19.7403 22.086C19.6391 21.8591 19.5865 21.6136 19.5859 21.3651V12.463C19.5859 11.9908 19.7735 11.538 20.1074 11.2041C20.4413 10.8702 20.8942 10.6826 21.3664 10.6826C21.8385 10.6826 22.2914 10.8702 22.6253 11.2041C22.9592 11.538 23.1468 11.9908 23.1468 12.463V20.5639L31.4613 28.0417C31.7335 28.2817 31.9259 28.5993 32.0126 28.9517C32.0993 29.3041 32.0763 29.6747 31.9465 30.0136C31.8167 30.3526 31.5864 30.6438 31.2865 30.8482C30.9866 31.0527 30.6314 31.1605 30.2684 31.1574Z" fill="#196861"/>
</svg>
