<svg width="32" height="34" viewBox="0 0 32 34" fill="none" xmlns="http://www.w3.org/2000/svg">
<path fill-rule="evenodd" clip-rule="evenodd" d="M3.89066 12.4219C4.39199 10.4166 6.1938 9.00977 8.26088 9.00977H23.0917C25.1588 9.00977 26.9607 10.4166 27.4619 12.4219L31.2159 27.4377C31.9267 30.2808 29.7763 33.035 26.8457 33.035H4.50693C1.57629 33.035 -0.574066 30.2808 0.136719 27.4377L3.89066 12.4219ZM8.26088 12.0129C7.57186 12.0129 6.97124 12.4819 6.80413 13.1503L3.05019 28.1661C2.81328 29.1138 3.53005 30.0318 4.50693 30.0318H26.8457C27.8226 30.0318 28.5393 29.1138 28.3025 28.1661L24.5486 13.1503C24.3814 12.4819 23.7808 12.0129 23.0917 12.0129H8.26088Z" fill="#2DB5A4"/>
<path fill-rule="evenodd" clip-rule="evenodd" d="M15.6743 3.00315C14.0156 3.00315 12.6711 4.34771 12.6711 6.0063C12.6711 7.66489 14.0156 9.00945 15.6743 9.00945C17.3329 9.00945 18.6774 7.66489 18.6774 6.0063C18.6774 4.34771 17.3329 3.00315 15.6743 3.00315ZM9.66797 6.0063C9.66797 2.68911 12.3571 0 15.6743 0C18.9914 0 21.6806 2.68911 21.6806 6.0063C21.6806 9.32349 18.9914 12.0126 15.6743 12.0126C12.3571 12.0126 9.66797 9.32349 9.66797 6.0063Z" fill="#2DB5A4"/>
</svg>
