<?xml version="1.0" encoding="UTF-8"?>
<svg id="Layer_1" data-name="Layer 1" xmlns="http://www.w3.org/2000/svg" viewBox="0 0 65.64 65.64">
  <defs>
    <style>
      .cls-1 {
        fill: #2f2f2f;
      }

      .cls-2 {
        fill: #fff;
        stroke: #e9e9ee;
        stroke-miterlimit: 10;
        stroke-width: 1.89px;
      }
    </style>
  </defs>
  <path class="cls-2" d="M65.64,65.64H0V0h65.64v65.64Z"/>
  <path class="cls-1" d="M18.03,24.05v6.47h-3.7c-.51,0-.92.41-.92.92,0,10.72,8.69,19.41,19.41,19.41s19.41-8.69,19.41-19.41c0-.51-.41-.92-.92-.92h-3.7v-6.47c0-1.53-1.24-2.77-2.77-2.77h-.35c1.54-1.34,1.71-3.67.38-5.21-1.34-1.54-3.67-1.71-5.21-.38s-1.71,3.67-.38,5.21c.12.13.24.26.38.38h-.35c-.68,0-1.34.26-1.85.72-.51-.46-1.16-.72-1.85-.72h-.35c1.54-1.34,1.71-3.67.38-5.21-1.34-1.54-3.67-1.71-5.21-.38s-1.71,3.67-.38,5.21c.12.13.24.26.38.38h-.35c-.68,0-1.34.26-1.85.72-.51-.46-1.16-.72-1.85-.72h-.73c.81-.69,1.28-1.7,1.29-2.77-.03-2.06-1.73-3.7-3.79-3.67-2.01.03-3.64,1.66-3.67,3.67,0,1.07.48,2.09,1.29,2.78-1.51.03-2.72,1.26-2.72,2.77ZM23.16,46.09c-1.76-1.16-3.3-2.64-4.55-4.34,1.56-.58,3.18-1.02,4.82-1.32.49,1.8,1.2,3.52,2.11,5.15-.84.15-1.63.32-2.38.51ZM25.26,40.13c5.01-.71,10.1-.71,15.11,0-.5,1.82-1.26,3.55-2.26,5.16-3.52-.4-7.08-.4-10.6,0-.99-1.6-1.75-3.34-2.25-5.16ZM32.82,49.01c-2.48,0-4.94-.54-7.2-1.56.5-.09,1.02-.18,1.55-.25,3.74-.47,7.53-.47,11.28,0,.54.07,1.05.16,1.56.25-2.26,1.03-4.71,1.56-7.19,1.56ZM42.48,46.09c-.75-.19-1.54-.37-2.38-.51.91-1.62,1.62-3.35,2.11-5.15,1.64.3,3.25.74,4.82,1.32-1.24,1.71-2.78,3.18-4.55,4.35ZM50.36,32.37c-.14,2.74-.93,5.41-2.31,7.79-1.75-.68-3.56-1.19-5.41-1.53.43-2.06.67-4.16.72-6.26h6.99ZM42.06,16.66c1.02,0,1.85.83,1.85,1.85s-.83,1.85-1.85,1.85-1.85-.83-1.85-1.85.83-1.85,1.85-1.85ZM38.37,24.05c0-.51.41-.92.92-.92h5.55c.51,0,.92.41.92.92v6.47h-7.39v-6.47ZM32.82,16.66c1.02,0,1.85.83,1.85,1.85s-.83,1.85-1.85,1.85-1.85-.83-1.85-1.85.83-1.85,1.85-1.85ZM29.12,24.05c0-.51.41-.92.92-.92h5.55c.51,0,.92.41.92.92v6.47h-7.39v-6.47ZM41.51,32.37c-.05,2-.28,4-.7,5.96-5.3-.77-10.69-.77-15.99,0-.42-1.96-.65-3.96-.7-5.96h17.39ZM23.19,16.66c1.02.02,1.83.86,1.82,1.88-.02,1.02-.86,1.83-1.88,1.82-1.01-.02-1.82-.84-1.82-1.85,0-1.03.85-1.86,1.88-1.85ZM19.88,24.05c0-.51.41-.92.92-.92h5.55c.51,0,.92.41.92.92v6.47h-7.39v-6.47ZM22.28,32.37c.05,2.1.29,4.2.72,6.26-1.85.34-3.66.85-5.41,1.53-1.37-2.38-2.16-5.05-2.31-7.79h6.99Z"/>
</svg>