<?xml version="1.0" encoding="UTF-8"?>
<svg id="Layer_1" data-name="Layer 1" xmlns="http://www.w3.org/2000/svg" viewBox="0 0 65.64 65.64">
  <defs>
    <style>
      .cls-1 {
        fill: #2f2f2f;
      }

      .cls-2 {
        fill: #fff;
        stroke: #e9e9ee;
        stroke-miterlimit: 10;
        stroke-width: 1.89px;
      }
    </style>
  </defs>
  <path class="cls-2" d="M65.64,65.64H0V0h65.64v65.64Z"/>
  <path class="cls-1" d="M38.63,25.03h7.55c.43,0,1.19.35,1.53.62,2.32,2.57,4.51,5.3,6.56,8.08l.02,7.37c-.14.53-.27,1.03-.62,1.47-1.21,1.51-3.45.93-5.14,1.05-.51,2.57-2.92,4.27-5.54,3.69-1.35-.3-2.68-1.46-3.2-2.73-.07-.18-.22-.83-.28-.9-.21-.23-.79-.06-1.07-.05-4.46.08-8.93-.06-13.39,0-.53,2.48-2.77,4.11-5.31,3.73-1.85-.28-3.5-1.86-3.77-3.72-.57-.03-1.15.03-1.72,0-1.6-.08-2.65-.66-3.11-2.26l-.03-19.03c.14-1.05.86-1.98,1.92-2.21,7.83-.14,15.7-.12,23.53-.01,1.01.18,2.08,1.35,2.08,2.39v2.52ZM36.37,41.25v-18.63s-.14-.14-.17-.17c-6.67-.08-13.36,0-20.04-.03-.42,0-.91-.12-1.36-.06-.3.12-1.13-.04-1.29.18-.15.2-.08.92-.09,1.21-.01.27-.18.67,0,.84v16.06s.08.48.08.48c.06.09.29.11.39.12.7.06,1.49-.04,2.2-.01.47-.84.94-1.59,1.75-2.15,2.47-1.72,5.88-.61,6.94,2.16h11.59ZM50.45,32.49c-.02-.13-.15-.26-.23-.37-1.28-1.6-2.67-3.14-4.01-4.69-.33-.23-.5-.09-.82-.08-.74,0-1.49,0-2.24,0v5.14h7.29ZM40.89,27.35h-2.18l-.08,13.91h1.05c.13-.14.15-.33.24-.49,1.63-2.98,5.5-3.42,7.7-.78.33.4.51.84.77,1.26h3.32s.2-.08.2-.08c.03-.03.11-.26.11-.28v-6.05c-1.98-.19-4.32.01-6.36.03-1.51.01-2.84-.03-3.9-1.25-.32-.37-.88-1.36-.88-1.84v-4.44ZM22.68,42.82c0-1.22-.99-2.22-2.22-2.22s-2.22.99-2.22,2.22.99,2.22,2.22,2.22,2.22-.99,2.22-2.22ZM46.27,42.86c0-1.24-1-2.24-2.24-2.24s-2.24,1-2.24,2.24,1,2.24,2.24,2.24,2.24-1,2.24-2.24Z"/>
</svg>