<?xml version="1.0" encoding="UTF-8"?>
<svg id="Layer_1" data-name="Layer 1" xmlns="http://www.w3.org/2000/svg" viewBox="0 0 65.64 65.64">
  <defs>
    <style>
      .cls-1 {
        fill: #fff;
        stroke: #e9e9ee;
        stroke-miterlimit: 10;
        stroke-width: 1.89px;
      }
    </style>
  </defs>
  <path class="cls-1" d="M65.64,0H0v65.36s0,0,0,0h65.64V0Z"/>
  <path d="M33.15,50.8c-7.78,0-14.11-6.34-14.12-14.11,0-7.39,11.95-18.47,13.32-19.71.22-.2.5-.31.8-.31s.58.11.8.31c.54.49,13.31,12.06,13.31,19.71,0,7.77-6.34,14.1-14.11,14.11h0ZM32.59,20.02c-5.15,4.98-11.17,12.33-11.17,16.67.08,6.38,5.34,11.57,11.72,11.57s11.63-5.19,11.71-11.56c0-4.28-6.26-12.2-11.56-17.36l.64-.62-1.35,1.3Z"/>
</svg>