<?xml version="1.0" encoding="UTF-8"?>
<svg id="Layer_1" data-name="Layer 1" xmlns="http://www.w3.org/2000/svg" viewBox="0 0 65.64 65.64">
  <defs>
    <style>
      .cls-1 {
        stroke: #000;
        stroke-width: .4px;
      }

      .cls-1, .cls-2 {
        stroke-miterlimit: 10;
      }

      .cls-2 {
        fill: #fff;
        stroke: #e9e9ee;
        stroke-width: 1.89px;
      }
    </style>
  </defs>
  <path class="cls-2" d="M65.64,65.64H0V0h65.64v65.64Z"/>
  <path class="cls-1" d="M45.44,31.5c.94.14,1.79.55,2.44,1.15l.04.04c.8.76,1.29,1.79,1.29,2.93v16.28c0,.61-.27,1.17-.69,1.56-.41.39-.98.63-1.61.63h-27.81c-.62,0-1.19-.24-1.61-.63-.43-.4-.69-.95-.69-1.56v-16.28c0-1.16.51-2.21,1.33-2.97.65-.6,1.5-1.02,2.44-1.16.03-.19.09-.38.18-.57.25-.52.7-.97,1.36-1.19v-.48c0-2.81,1.23-5.37,3.22-7.22,1.82-1.69,4.26-2.79,6.97-2.96v-8.03c0-.39.32-.71.71-.71.16,0,.31.06.43.15l6.88,4.68c.32.22.4.66.18.98-.14.2-.36.31-.58.31h-6.21v2.62c2.71.16,5.16,1.27,6.97,2.96,1.99,1.85,3.22,4.41,3.22,7.22v.49c.66.22,1.11.66,1.36,1.19.09.18.15.37.18.57ZM33.71,12.39v2.67h3.92l-3.92-2.67ZM23.52,29.59h18.97v-.33c0-2.41-1.06-4.6-2.77-6.19-1.72-1.6-4.1-2.6-6.72-2.6s-5,1-6.72,2.6c-1.71,1.59-2.77,3.78-2.77,6.19v.33ZM20.78,32.89c-.66.09-1.25.38-1.7.79-.54.5-.87,1.18-.87,1.93v16.28c0,.2.09.39.24.53.16.15.39.25.65.25h7.64v-4.17c0-2.73,1.64-4.47,3.75-5.23.8-.29,1.66-.43,2.51-.43s1.72.14,2.51.43c2.1.76,3.75,2.5,3.75,5.23v4.17h7.64c.25,0,.48-.09.65-.25.15-.14.24-.33.24-.53v-16.28c0-.74-.32-1.41-.84-1.9l-.03-.03c-.45-.41-1.04-.7-1.7-.79-.37.72-1.14,1.27-2.3,1.27h-19.84c-1.16,0-1.93-.55-2.3-1.27ZM42.92,31.01h-19.84c-.57,0-.92.23-1.06.53-.05.11-.08.22-.08.34s.03.24.08.34c.14.29.49.53,1.06.53h19.84c.57,0,.92-.23,1.06-.53.05-.11.08-.23.08-.34s-.03-.24-.08-.34c-.14-.3-.49-.53-1.06-.53ZM28.15,52.68h9.7v-4.17c0-2.03-1.24-3.34-2.82-3.91-.64-.23-1.33-.34-2.03-.34s-1.4.12-2.03.34c-1.58.57-2.82,1.87-2.82,3.91v4.17Z"/>
</svg>