<?xml version="1.0" encoding="UTF-8"?>
<svg id="Layer_1" data-name="Layer 1" xmlns="http://www.w3.org/2000/svg" viewBox="0 0 65.64 65.64">
  <defs>
    <style>
      .cls-1 {
        fill: #2f2f2f;
      }

      .cls-2 {
        fill: #fff;
        stroke: #e9e9ee;
        stroke-miterlimit: 10;
        stroke-width: 1.89px;
      }
    </style>
  </defs>
  <path class="cls-1" d="M47.88,52.89c-.79,0-1.44-.61-1.48-1.39-.46-7.74-6.9-13.81-14.67-13.81s-14.21,6.07-14.67,13.81c-.05.78-.7,1.39-1.48,1.39-.41,0-.8-.17-1.08-.47-.28-.3-.43-.7-.4-1.11.42-6.92,4.92-12.98,11.34-15.43-3.76-2.21-6.13-6.3-6.13-10.71,0-6.85,5.57-12.42,12.42-12.42s12.42,5.57,12.42,12.42c0,4.41-2.37,8.49-6.12,10.71,6.42,2.45,10.92,8.51,11.34,15.43.02.41-.12.81-.4,1.11-.28.3-.67.47-1.08.47ZM31.73,15.72c-5.21,0-9.45,4.24-9.45,9.45s4.24,9.45,9.45,9.45,9.45-4.24,9.45-9.45-4.24-9.45-9.45-9.45Z"/>
  <g>
    <path class="cls-2" d="M65.64,65.64H0V0h65.64v65.64Z"/>
    <path class="cls-1" d="M49.95,51.34c-.44-7.27-5.39-13.31-12.1-15.37,4.06-1.9,6.88-6.02,6.88-10.8,0-6.58-5.33-11.92-11.92-11.92s-11.92,5.33-11.92,11.92c0,4.78,2.82,8.9,6.88,10.8-6.7,2.05-11.66,8.1-12.1,15.37-.03.56.41,1.04.98,1.04h0c.51,0,.95-.4.98-.92.47-7.97,7.08-14.28,15.17-14.28s14.7,6.32,15.17,14.28c.03.51.46.92.98.92.57,0,1.02-.48.98-1.04ZM22.86,25.17c0-5.5,4.46-9.95,9.95-9.95s9.95,4.46,9.95,9.95-4.46,9.95-9.95,9.95-9.95-4.46-9.95-9.95Z"/>
  </g>
</svg>