<?xml version="1.0" encoding="UTF-8"?>
<svg id="Layer_1" data-name="Layer 1" xmlns="http://www.w3.org/2000/svg" viewBox="0 0 65.64 65.64">
  <defs>
    <style>
      .cls-1 {
        fill: #2f2f2f;
      }

      .cls-2 {
        fill: #fff;
        stroke: #e9e9ee;
        stroke-miterlimit: 10;
        stroke-width: 1.89px;
      }
    </style>
  </defs>
  <rect class="cls-2" x=".82" y=".82" width="64" height="64"/>
  <path class="cls-1" d="M37.38,31.73c.5,0,.91.41.91.91s-.41.91-.91.91h-2.23c-2.74,2.41-1.07,5.47,1.32,5.47h9.49c4.59,4.02,1.79,9.12-2.19,9.12h-14.6c-.5,0-.91-.41-.91-.91s.41-.91.91-.91h15.9c2.77-2.4,1.09-5.47-1.3-5.47h-9.48c-4.6-4-1.81-9.12,2.18-9.12h.91ZM42.5,32.9c-.33.26-.79.26-1.12,0-.05-.04-.14-.11-.26-.21-.2-.17-.42-.36-.65-.57-.67-.61-1.34-1.29-1.96-2.03-3.29-3.89-4.27-7.92-.66-11.66,5.1-3.33,10.48.25,10.48,5.09,0,2.18-1.12,4.4-2.95,6.57-.63.74-1.29,1.42-1.96,2.03-.23.21-.45.41-.65.57-.12.1-.21.17-.26.21ZM42.18,30.78c.61-.56,1.23-1.19,1.8-1.87,3.32-3.93,3.8-7.8-1.26-9.89-2.87-.48-5.35,1.72-5.35,4.5,0,1.66.94,3.52,2.52,5.39.57.68,1.19,1.3,1.8,1.87.08.08.16.15.24.22.08-.07.16-.14.24-.22ZM41.94,26.26c-1.51,0-2.74-1.23-2.74-2.74s1.23-2.74,2.74-2.74,2.74,1.23,2.74,2.74-1.23,2.74-2.74,2.74ZM41.94,24.43c.5,0,.91-.41.91-.91s-.41-.91-.91-.91-.91.41-.91.91.41.91.91.91ZM24.26,47.96c-.33.26-.79.26-1.12,0-.05-.04-.14-.11-.26-.21-.2-.17-.42-.36-.65-.57-.67-.61-1.34-1.29-1.96-2.03-3.29-3.89-4.27-7.92-.66-11.66,5.1-3.33,10.48.25,10.48,5.09,0,2.18-1.12,4.4-2.95,6.57-.63.74-1.29,1.42-1.96,2.03-.23.21-.45.41-.65.57-.12.1-.21.17-.26.21ZM23.94,45.83c.61-.56,1.23-1.19,1.8-1.87,3.32-3.93,3.8-7.8-1.26-9.89-2.87-.48-5.35,1.72-5.35,4.5,0,1.66.94,3.52,2.52,5.39.57.68,1.19,1.3,1.8,1.87.08.08.16.15.24.22.08-.07.16-.14.24-.22h0ZM23.7,41.31c-1.51,0-2.74-1.23-2.74-2.74s1.23-2.74,2.74-2.74,2.74,1.23,2.74,2.74-1.23,2.74-2.74,2.74ZM23.7,39.48c.5,0,.91-.41.91-.91s-.41-.91-.91-.91-.91.41-.91.91.41.91.91.91Z"/>
</svg>