<?xml version="1.0" encoding="UTF-8"?>
<svg id="Layer_1" data-name="Layer 1" xmlns="http://www.w3.org/2000/svg" viewBox="0 0 65.64 65.64">
  <defs>
    <style>
      .cls-1 {
        fill: #fff;
        stroke: #e9e9ee;
        stroke-miterlimit: 10;
        stroke-width: 1.89px;
      }
    </style>
  </defs>
  <path class="cls-1" d="M65.64,65.64H0V0h65.64v65.64Z"/>
  <g>
    <path d="M32.82,50.16c-4.34,0-8.43-1.69-11.5-4.76-3.07-3.07-4.76-7.15-4.76-11.5s1.69-8.43,4.76-11.5c3.07-3.07,7.15-4.76,11.5-4.76s8.43,1.69,11.5,4.76c3.07,3.07,4.76,7.15,4.76,11.5s-1.69,8.43-4.76,11.5c-3.07,3.07-7.15,4.76-11.5,4.76ZM32.82,19.86c-3.75,0-7.27,1.46-9.93,4.11-2.65,2.65-4.11,6.18-4.11,9.93s1.46,7.27,4.11,9.92c2.65,2.65,6.18,4.11,9.92,4.11,3.75,0,7.27-1.46,9.92-4.11,2.65-2.65,4.11-6.17,4.11-9.92,0-3.75-1.46-7.27-4.11-9.92-2.65-2.65-6.18-4.11-9.92-4.11Z"/>
    <path d="M29.56,41.83c-.48,0-.97-.11-1.41-.32-1.07-.49-1.78-1.58-1.79-2.76v-10.08c0-1.19.71-2.28,1.79-2.77.44-.21.93-.32,1.42-.32.57,0,1.14.15,1.63.43l8.58,4.94.09.05c.96.54,1.57,1.56,1.57,2.67s-.6,2.14-1.57,2.67l-8.66,5.04c-.5.29-1.07.44-1.64.44ZM29.56,27.81c-.16,0-.31.03-.45.1-.3.13-.5.42-.51.74v10.09c.02.31.22.6.51.72.17.09.33.13.51.13s.34-.04.49-.12l8.66-5.03c.28-.16.46-.46.46-.77,0-.3-.19-.58-.45-.73l-8.68-4.99c-.16-.09-.34-.14-.53-.14Z"/>
  </g>
</svg>