<?xml version="1.0" encoding="UTF-8"?>
<svg id="Layer_1" data-name="Layer 1" xmlns="http://www.w3.org/2000/svg" viewBox="0 0 65.64 65.64">
  <defs>
    <style>
      .cls-1 {
        fill: #2f2f2f;
      }

      .cls-2 {
        fill: #fff;
        stroke: #e9e9ee;
        stroke-miterlimit: 10;
        stroke-width: 1.89px;
      }
    </style>
  </defs>
  <path class="cls-2" d="M65.64,65.64H0V0S0,0,0,0h65.64v65.64Z"/>
  <g>
    <path class="cls-1" d="M22.04,49.82c-.51,0-1.02-.09-1.51-.27-1.54-.55-2.73-2.22-2.76-3.87v-.17s-.17,0-.17,0c-.15,0-.31,0-.46,0-.22,0-.43,0-.65,0-.22,0-.43.01-.65.01-.86,0-1.76-.08-2.53-.64-.77-.56-1.26-1.45-1.43-2.56v-19.18c.32-1.69,1.51-2.84,3.1-2.95.31-.02.62-.03.94-.03.4,0,.81.01,1.21.02.41.01.82.03,1.23.03.32,0,.63,0,.95-.03h.08s.05-.07.05-.07c1.66-2.06,3.93-3.2,6.37-3.2.5,0,1.01.05,1.52.14,1.9.35,3.59,1.4,5.01,3.11l.05.06h.08c.6.01,1.21.02,1.81.02h.63c.25,0,.5-.01.74-.02.25,0,.49-.02.73-.02.91,0,1.68.15,2.47.86.52.47,1.09,1.46,1.09,2.18v1.94h7.14c.86,0,1.67.7,2.14,1.35.96,1.32,1.83,2.82,2.67,4.28.83,1.43,1.68,2.9,2.63,4.22.02.06.06.18.11.3.11.27.24.57.26.81.09,1.1.05,2.3,0,3.46-.04,1.05-.08,2.14-.02,3.16-.15.61-.31,1.08-.68,1.54-.81,1.01-1.78,1.22-2.98,1.22-.25,0-.5,0-.75-.02-.27,0-.53-.02-.8-.02-.16,0-.33,0-.49.01h-.16s0,.17,0,.17c-.11,1.79-1.38,3.46-3.03,3.95-.41.12-.83.19-1.25.19-2.27,0-4.16-1.8-4.4-4.19l-.02-.16h-13.94s-.02.16-.02.16c-.25,2.44-2.08,4.21-4.34,4.21ZM22.07,42.87c-1.3,0-2.35,1.11-2.35,2.47s1.06,2.47,2.35,2.47,2.35-1.11,2.35-2.47-1.06-2.47-2.35-2.47ZM44.66,42.78c-1.31,0-2.37,1.12-2.37,2.49s1.07,2.49,2.37,2.49,2.37-1.12,2.37-2.49-1.06-2.49-2.37-2.49ZM49.38,43.48c.27,0,.55.01.83.02.28.01.56.02.84.02.22,0,.44,0,.65-.02.94-.08,1.41-.65,1.39-1.71v-.18h-2.25s-.32-.08-.37-.1c-.23-.09-.42-.31-.51-.6-.11-.34-.07-.7.09-.96.09-.14.44-.43.55-.45h2.32s.18-.19.18-.19v-2.68l-.06-.05c-.11-.09-.24-.13-.4-.13-.1,0-.22.02-.32.04-.08.01-.15.03-.22.03-.14,0-.28,0-.41,0-.42,0-.84-.02-1.26-.03-.42-.02-.84-.03-1.27-.03-.75,0-1.47.03-2.21.06-.78.03-1.57.06-2.34.06-.61,0-1.14-.02-1.62-.06-.68-.05-1.04-.36-1.16-.99.05-.73.02-1.55,0-2.35-.03-.87-.06-1.77,0-2.59.04-.42.23-.92.67-1.04.07-.02.37-.08.42-.08h5.84s-1.36-2.14-1.36-2.14h-.09c-.06-.01-.13-.02-.19-.03-.08-.01-.16-.03-.24-.03-.51-.03-1.04-.04-1.56-.04-.8,0-1.61.03-2.41.05-.52.02-1.03.04-1.54.05h-.28c-.36,0-.65-.01-.91-.05l-.21-.03v16.02c.1.25.34.27.48.27.16,0,.22-.04.24-.05.05-.04.07-.07.18-.3.05-.1.1-.21.13-.25.87-1.35,2.27-2.16,3.75-2.16,1.2,0,2.31.53,3.14,1.49.14.16.26.36.37.55.1.18.21.35.32.5.06.08.14.18.3.19.19,0,.35-.01.52-.01ZM37.73,43.4l.13.04h.16l.03-.19c.01-3,0-5.98,0-8.96,0-3.12-.01-6.24,0-9.36,0-.14,0-.29.02-.45.03-.48.06-1.03-.12-1.47-.15-.35-.7-.81-1.1-.81h-3.43l.09.24c1.37,3.8.24,7.94-2.82,10.31-1.43,1.11-3.11,1.69-4.85,1.69-3.06,0-5.87-1.8-7.32-4.69-1.12-2.22-1.24-4.9-.33-7.36l.11-.29-.31.05c-.2.03-.41.04-.61.04-.23,0-.45-.01-.68-.03-.23-.01-.47-.03-.71-.03-.08,0-.17,0-.25,0-.74.04-1.87.09-1.99,1.35-.11,1.18-.07,2.43-.04,3.65.02.57.03,1.13.04,1.68.01,2.93,0,5.85,0,8.77v3.22c0,.15,0,.29-.02.43-.01.3-.03.61.02.95.09.64.52,1.09,1.13,1.18h3.17s.05-.1.05-.1c.81-1.54,2.27-2.46,3.91-2.46s3.16.93,4.01,2.48l.05.09h11.66ZM43.73,34.45h8.04l-1.67-2.71s-.15-.19-.28-.22h-6.08s0,2.94,0,2.94ZM25.85,18.98c-3.51,0-6.36,3-6.36,6.7s2.85,6.7,6.36,6.7,6.36-3,6.36-6.7-2.85-6.7-6.36-6.7Z"/>
    <path class="cls-1" d="M26.95,27.07c-.77,0-1.34-.04-1.53-.1-.36-.12-.55-.54-.58-.89-.09-1.06-.07-2.89,0-3.87.04-.58.4-.99.88-.99.15,0,.31.04.47.12.23.11.48.54.48.8v2.94h1.45c.34,0,.78.38.83.73.06.36,0,.66-.17.88-.16.2-.41.32-.72.35-.22.02-.65.03-1.12.03Z"/>
  </g>
</svg>